G04 MADE WITH FRITZING*
G04 WWW.FRITZING.ORG*
G04 DOUBLE SIDED*
G04 HOLES PLATED*
G04 CONTOUR ON CENTER OF CONTOUR VECTOR*
%ASAXBY*%
%FSLAX23Y23*%
%MOIN*%
%OFA0B0*%
%SFA1.0B1.0*%
%ADD10C,0.084000*%
%ADD11C,0.049370*%
%ADD12C,0.072992*%
%ADD13C,0.128110*%
%ADD14C,0.061496*%
%ADD15C,0.074803*%
%ADD16C,0.088000*%
%ADD17C,0.075000*%
%ADD18R,0.084000X0.084000*%
%ADD19R,0.072992X0.072992*%
%ADD20R,0.072992X0.100551*%
%ADD21R,0.001000X0.001000*%
%LNMASK0*%
G90*
G70*
G54D10*
X1701Y1415D03*
X1601Y1415D03*
X1501Y1415D03*
X1401Y1415D03*
X1701Y1515D03*
X1601Y1515D03*
X1501Y1515D03*
X1401Y1515D03*
G54D11*
X1739Y440D03*
X1501Y440D03*
X1651Y440D03*
X1577Y439D03*
G54D12*
X551Y1466D03*
X551Y1565D03*
X976Y1466D03*
X976Y1565D03*
G54D11*
X1264Y1102D03*
X1189Y1027D03*
G54D13*
X151Y140D03*
X151Y1602D03*
G54D14*
X251Y1303D03*
X251Y1240D03*
X251Y1177D03*
X204Y1271D03*
X204Y1208D03*
G54D15*
X51Y1096D03*
X51Y1384D03*
G54D11*
X1276Y715D03*
X564Y215D03*
G54D16*
X1126Y115D03*
X1026Y115D03*
X101Y840D03*
X101Y740D03*
X101Y640D03*
X101Y540D03*
X101Y440D03*
X101Y340D03*
G54D11*
X1414Y440D03*
G54D17*
X514Y1102D03*
X514Y1202D03*
X476Y740D03*
X476Y840D03*
G54D18*
X1701Y1515D03*
G54D19*
X551Y1466D03*
X976Y1466D03*
G54D20*
X389Y1427D03*
X389Y1675D03*
G54D21*
X43Y1436D02*
X58Y1436D01*
X38Y1435D02*
X62Y1435D01*
X34Y1434D02*
X66Y1434D01*
X32Y1433D02*
X68Y1433D01*
X29Y1432D02*
X71Y1432D01*
X27Y1431D02*
X73Y1431D01*
X25Y1430D02*
X75Y1430D01*
X24Y1429D02*
X77Y1429D01*
X22Y1428D02*
X78Y1428D01*
X20Y1427D02*
X80Y1427D01*
X19Y1426D02*
X81Y1426D01*
X18Y1425D02*
X83Y1425D01*
X16Y1424D02*
X84Y1424D01*
X15Y1423D02*
X85Y1423D01*
X14Y1422D02*
X86Y1422D01*
X13Y1421D02*
X87Y1421D01*
X12Y1420D02*
X88Y1420D01*
X11Y1419D02*
X89Y1419D01*
X10Y1418D02*
X90Y1418D01*
X10Y1417D02*
X90Y1417D01*
X9Y1416D02*
X91Y1416D01*
X8Y1415D02*
X92Y1415D01*
X8Y1414D02*
X93Y1414D01*
X7Y1413D02*
X93Y1413D01*
X6Y1412D02*
X94Y1412D01*
X6Y1411D02*
X94Y1411D01*
X5Y1410D02*
X95Y1410D01*
X5Y1409D02*
X96Y1409D01*
X4Y1408D02*
X96Y1408D01*
X4Y1407D02*
X97Y1407D01*
X3Y1406D02*
X97Y1406D01*
X3Y1405D02*
X98Y1405D01*
X2Y1404D02*
X98Y1404D01*
X2Y1403D02*
X98Y1403D01*
X1Y1402D02*
X99Y1402D01*
X1Y1401D02*
X99Y1401D01*
X1Y1400D02*
X99Y1400D01*
X0Y1399D02*
X100Y1399D01*
X0Y1398D02*
X100Y1398D01*
X0Y1397D02*
X100Y1397D01*
X0Y1396D02*
X101Y1396D01*
X0Y1395D02*
X101Y1395D01*
X0Y1394D02*
X101Y1394D01*
X0Y1393D02*
X101Y1393D01*
X0Y1392D02*
X101Y1392D01*
X0Y1391D02*
X101Y1391D01*
X0Y1390D02*
X102Y1390D01*
X0Y1389D02*
X102Y1389D01*
X0Y1388D02*
X102Y1388D01*
X0Y1387D02*
X102Y1387D01*
X0Y1386D02*
X102Y1386D01*
X0Y1385D02*
X102Y1385D01*
X0Y1384D02*
X102Y1384D01*
X0Y1383D02*
X102Y1383D01*
X0Y1382D02*
X102Y1382D01*
X0Y1381D02*
X102Y1381D01*
X0Y1380D02*
X102Y1380D01*
X0Y1379D02*
X102Y1379D01*
X0Y1378D02*
X101Y1378D01*
X0Y1377D02*
X101Y1377D01*
X0Y1376D02*
X101Y1376D01*
X0Y1375D02*
X101Y1375D01*
X0Y1374D02*
X101Y1374D01*
X0Y1373D02*
X101Y1373D01*
X0Y1372D02*
X100Y1372D01*
X0Y1371D02*
X100Y1371D01*
X0Y1370D02*
X100Y1370D01*
X1Y1369D02*
X99Y1369D01*
X1Y1368D02*
X99Y1368D01*
X1Y1367D02*
X99Y1367D01*
X2Y1366D02*
X98Y1366D01*
X2Y1365D02*
X98Y1365D01*
X3Y1364D02*
X98Y1364D01*
X3Y1363D02*
X97Y1363D01*
X3Y1362D02*
X97Y1362D01*
X4Y1361D02*
X96Y1361D01*
X4Y1360D02*
X96Y1360D01*
X5Y1359D02*
X95Y1359D01*
X6Y1358D02*
X95Y1358D01*
X6Y1357D02*
X94Y1357D01*
X7Y1356D02*
X93Y1356D01*
X7Y1355D02*
X93Y1355D01*
X8Y1354D02*
X92Y1354D01*
X9Y1353D02*
X91Y1353D01*
X10Y1352D02*
X91Y1352D01*
X10Y1351D02*
X90Y1351D01*
X11Y1350D02*
X89Y1350D01*
X12Y1349D02*
X88Y1349D01*
X13Y1348D02*
X87Y1348D01*
X14Y1347D02*
X86Y1347D01*
X15Y1346D02*
X85Y1346D01*
X16Y1345D02*
X84Y1345D01*
X17Y1344D02*
X83Y1344D01*
X19Y1343D02*
X82Y1343D01*
X20Y1342D02*
X80Y1342D01*
X21Y1341D02*
X79Y1341D01*
X23Y1340D02*
X77Y1340D01*
X25Y1339D02*
X75Y1339D01*
X27Y1338D02*
X73Y1338D01*
X29Y1337D02*
X71Y1337D01*
X31Y1336D02*
X69Y1336D01*
X34Y1335D02*
X66Y1335D01*
X37Y1334D02*
X63Y1334D01*
X41Y1333D02*
X59Y1333D01*
X476Y1240D02*
X550Y1240D01*
X476Y1239D02*
X550Y1239D01*
X476Y1238D02*
X550Y1238D01*
X476Y1237D02*
X550Y1237D01*
X476Y1236D02*
X550Y1236D01*
X476Y1235D02*
X550Y1235D01*
X476Y1234D02*
X550Y1234D01*
X476Y1233D02*
X550Y1233D01*
X476Y1232D02*
X550Y1232D01*
X476Y1231D02*
X550Y1231D01*
X476Y1230D02*
X550Y1230D01*
X476Y1229D02*
X550Y1229D01*
X476Y1228D02*
X550Y1228D01*
X476Y1227D02*
X550Y1227D01*
X476Y1226D02*
X550Y1226D01*
X476Y1225D02*
X550Y1225D01*
X476Y1224D02*
X550Y1224D01*
X476Y1223D02*
X550Y1223D01*
X476Y1222D02*
X550Y1222D01*
X476Y1221D02*
X550Y1221D01*
X476Y1220D02*
X550Y1220D01*
X476Y1219D02*
X550Y1219D01*
X476Y1218D02*
X550Y1218D01*
X476Y1217D02*
X550Y1217D01*
X476Y1216D02*
X550Y1216D01*
X476Y1215D02*
X550Y1215D01*
X476Y1214D02*
X550Y1214D01*
X476Y1213D02*
X550Y1213D01*
X476Y1212D02*
X550Y1212D01*
X476Y1211D02*
X508Y1211D01*
X518Y1211D02*
X550Y1211D01*
X476Y1210D02*
X507Y1210D01*
X520Y1210D02*
X550Y1210D01*
X476Y1209D02*
X506Y1209D01*
X520Y1209D02*
X550Y1209D01*
X476Y1208D02*
X505Y1208D01*
X521Y1208D02*
X550Y1208D01*
X476Y1207D02*
X505Y1207D01*
X522Y1207D02*
X550Y1207D01*
X476Y1206D02*
X504Y1206D01*
X522Y1206D02*
X550Y1206D01*
X476Y1205D02*
X504Y1205D01*
X522Y1205D02*
X550Y1205D01*
X476Y1204D02*
X504Y1204D01*
X523Y1204D02*
X550Y1204D01*
X476Y1203D02*
X504Y1203D01*
X523Y1203D02*
X550Y1203D01*
X476Y1202D02*
X504Y1202D01*
X523Y1202D02*
X550Y1202D01*
X476Y1201D02*
X504Y1201D01*
X522Y1201D02*
X550Y1201D01*
X476Y1200D02*
X505Y1200D01*
X522Y1200D02*
X550Y1200D01*
X476Y1199D02*
X505Y1199D01*
X521Y1199D02*
X550Y1199D01*
X476Y1198D02*
X506Y1198D01*
X521Y1198D02*
X550Y1198D01*
X476Y1197D02*
X506Y1197D01*
X520Y1197D02*
X550Y1197D01*
X476Y1196D02*
X508Y1196D01*
X519Y1196D02*
X550Y1196D01*
X476Y1195D02*
X510Y1195D01*
X517Y1195D02*
X550Y1195D01*
X476Y1194D02*
X550Y1194D01*
X476Y1193D02*
X550Y1193D01*
X476Y1192D02*
X550Y1192D01*
X476Y1191D02*
X550Y1191D01*
X476Y1190D02*
X550Y1190D01*
X476Y1189D02*
X550Y1189D01*
X476Y1188D02*
X550Y1188D01*
X476Y1187D02*
X550Y1187D01*
X476Y1186D02*
X550Y1186D01*
X476Y1185D02*
X550Y1185D01*
X476Y1184D02*
X550Y1184D01*
X476Y1183D02*
X550Y1183D01*
X476Y1182D02*
X550Y1182D01*
X476Y1181D02*
X550Y1181D01*
X476Y1180D02*
X550Y1180D01*
X476Y1179D02*
X550Y1179D01*
X476Y1178D02*
X550Y1178D01*
X476Y1177D02*
X550Y1177D01*
X476Y1176D02*
X550Y1176D01*
X476Y1175D02*
X550Y1175D01*
X476Y1174D02*
X550Y1174D01*
X476Y1173D02*
X550Y1173D01*
X476Y1172D02*
X550Y1172D01*
X476Y1171D02*
X550Y1171D01*
X476Y1170D02*
X550Y1170D01*
X476Y1169D02*
X550Y1169D01*
X476Y1168D02*
X550Y1168D01*
X476Y1167D02*
X550Y1167D01*
X476Y1166D02*
X550Y1166D01*
X44Y1149D02*
X56Y1149D01*
X39Y1148D02*
X61Y1148D01*
X35Y1147D02*
X65Y1147D01*
X32Y1146D02*
X68Y1146D01*
X30Y1145D02*
X70Y1145D01*
X28Y1144D02*
X72Y1144D01*
X26Y1143D02*
X74Y1143D01*
X24Y1142D02*
X76Y1142D01*
X22Y1141D02*
X78Y1141D01*
X21Y1140D02*
X79Y1140D01*
X19Y1139D02*
X81Y1139D01*
X18Y1138D02*
X82Y1138D01*
X17Y1137D02*
X83Y1137D01*
X16Y1136D02*
X85Y1136D01*
X14Y1135D02*
X86Y1135D01*
X13Y1134D02*
X87Y1134D01*
X13Y1133D02*
X88Y1133D01*
X12Y1132D02*
X89Y1132D01*
X11Y1131D02*
X89Y1131D01*
X10Y1130D02*
X90Y1130D01*
X9Y1129D02*
X91Y1129D01*
X8Y1128D02*
X92Y1128D01*
X8Y1127D02*
X92Y1127D01*
X7Y1126D02*
X93Y1126D01*
X6Y1125D02*
X94Y1125D01*
X6Y1124D02*
X94Y1124D01*
X5Y1123D02*
X95Y1123D01*
X5Y1122D02*
X95Y1122D01*
X4Y1121D02*
X96Y1121D01*
X4Y1120D02*
X96Y1120D01*
X3Y1119D02*
X97Y1119D01*
X3Y1118D02*
X97Y1118D01*
X2Y1117D02*
X98Y1117D01*
X2Y1116D02*
X98Y1116D01*
X2Y1115D02*
X99Y1115D01*
X1Y1114D02*
X99Y1114D01*
X1Y1113D02*
X99Y1113D01*
X1Y1112D02*
X100Y1112D01*
X0Y1111D02*
X100Y1111D01*
X0Y1110D02*
X100Y1110D01*
X0Y1109D02*
X100Y1109D01*
X0Y1108D02*
X101Y1108D01*
X0Y1107D02*
X101Y1107D01*
X0Y1106D02*
X101Y1106D01*
X0Y1105D02*
X101Y1105D01*
X0Y1104D02*
X101Y1104D01*
X0Y1103D02*
X102Y1103D01*
X0Y1102D02*
X102Y1102D01*
X0Y1101D02*
X102Y1101D01*
X0Y1100D02*
X102Y1100D01*
X0Y1099D02*
X102Y1099D01*
X0Y1098D02*
X102Y1098D01*
X0Y1097D02*
X102Y1097D01*
X0Y1096D02*
X102Y1096D01*
X0Y1095D02*
X102Y1095D01*
X0Y1094D02*
X102Y1094D01*
X0Y1093D02*
X102Y1093D01*
X0Y1092D02*
X102Y1092D01*
X0Y1091D02*
X102Y1091D01*
X0Y1090D02*
X101Y1090D01*
X0Y1089D02*
X101Y1089D01*
X0Y1088D02*
X101Y1088D01*
X0Y1087D02*
X101Y1087D01*
X0Y1086D02*
X101Y1086D01*
X0Y1085D02*
X100Y1085D01*
X0Y1084D02*
X100Y1084D01*
X0Y1083D02*
X100Y1083D01*
X1Y1082D02*
X100Y1082D01*
X1Y1081D02*
X99Y1081D01*
X1Y1080D02*
X99Y1080D01*
X2Y1079D02*
X98Y1079D01*
X2Y1078D02*
X98Y1078D01*
X2Y1077D02*
X98Y1077D01*
X3Y1076D02*
X97Y1076D01*
X3Y1075D02*
X97Y1075D01*
X4Y1074D02*
X96Y1074D01*
X4Y1073D02*
X96Y1073D01*
X5Y1072D02*
X95Y1072D01*
X5Y1071D02*
X95Y1071D01*
X6Y1070D02*
X94Y1070D01*
X7Y1069D02*
X94Y1069D01*
X7Y1068D02*
X93Y1068D01*
X8Y1067D02*
X92Y1067D01*
X9Y1066D02*
X92Y1066D01*
X9Y1065D02*
X91Y1065D01*
X10Y1064D02*
X90Y1064D01*
X11Y1063D02*
X89Y1063D01*
X12Y1062D02*
X88Y1062D01*
X13Y1061D02*
X87Y1061D01*
X14Y1060D02*
X87Y1060D01*
X15Y1059D02*
X85Y1059D01*
X16Y1058D02*
X84Y1058D01*
X17Y1057D02*
X83Y1057D01*
X18Y1056D02*
X82Y1056D01*
X20Y1055D02*
X81Y1055D01*
X21Y1054D02*
X79Y1054D01*
X23Y1053D02*
X78Y1053D01*
X24Y1052D02*
X76Y1052D01*
X26Y1051D02*
X74Y1051D01*
X28Y1050D02*
X72Y1050D01*
X30Y1049D02*
X70Y1049D01*
X33Y1048D02*
X67Y1048D01*
X36Y1047D02*
X64Y1047D01*
X40Y1046D02*
X60Y1046D01*
X46Y1045D02*
X54Y1045D01*
X439Y878D02*
X513Y878D01*
X439Y877D02*
X513Y877D01*
X439Y876D02*
X513Y876D01*
X439Y875D02*
X513Y875D01*
X439Y874D02*
X513Y874D01*
X439Y873D02*
X513Y873D01*
X439Y872D02*
X513Y872D01*
X439Y871D02*
X513Y871D01*
X439Y870D02*
X513Y870D01*
X439Y869D02*
X513Y869D01*
X439Y868D02*
X513Y868D01*
X439Y867D02*
X513Y867D01*
X439Y866D02*
X513Y866D01*
X439Y865D02*
X513Y865D01*
X439Y864D02*
X513Y864D01*
X439Y863D02*
X513Y863D01*
X439Y862D02*
X513Y862D01*
X439Y861D02*
X513Y861D01*
X439Y860D02*
X513Y860D01*
X439Y859D02*
X513Y859D01*
X439Y858D02*
X513Y858D01*
X439Y857D02*
X513Y857D01*
X439Y856D02*
X513Y856D01*
X439Y855D02*
X513Y855D01*
X439Y854D02*
X513Y854D01*
X439Y853D02*
X513Y853D01*
X439Y852D02*
X513Y852D01*
X439Y851D02*
X513Y851D01*
X439Y850D02*
X513Y850D01*
X439Y849D02*
X472Y849D01*
X480Y849D02*
X513Y849D01*
X439Y848D02*
X470Y848D01*
X482Y848D02*
X513Y848D01*
X439Y847D02*
X469Y847D01*
X483Y847D02*
X513Y847D01*
X439Y846D02*
X468Y846D01*
X483Y846D02*
X513Y846D01*
X439Y845D02*
X467Y845D01*
X484Y845D02*
X513Y845D01*
X439Y844D02*
X467Y844D01*
X484Y844D02*
X513Y844D01*
X439Y843D02*
X467Y843D01*
X485Y843D02*
X513Y843D01*
X439Y842D02*
X466Y842D01*
X485Y842D02*
X513Y842D01*
X439Y841D02*
X466Y841D01*
X485Y841D02*
X513Y841D01*
X439Y840D02*
X466Y840D01*
X485Y840D02*
X513Y840D01*
X439Y839D02*
X467Y839D01*
X485Y839D02*
X513Y839D01*
X439Y838D02*
X467Y838D01*
X485Y838D02*
X513Y838D01*
X439Y837D02*
X467Y837D01*
X484Y837D02*
X513Y837D01*
X439Y836D02*
X468Y836D01*
X484Y836D02*
X513Y836D01*
X439Y835D02*
X469Y835D01*
X483Y835D02*
X513Y835D01*
X439Y834D02*
X470Y834D01*
X482Y834D02*
X513Y834D01*
X439Y833D02*
X471Y833D01*
X480Y833D02*
X513Y833D01*
X439Y832D02*
X513Y832D01*
X439Y831D02*
X513Y831D01*
X439Y830D02*
X513Y830D01*
X439Y829D02*
X513Y829D01*
X439Y828D02*
X513Y828D01*
X439Y827D02*
X513Y827D01*
X439Y826D02*
X513Y826D01*
X439Y825D02*
X513Y825D01*
X439Y824D02*
X513Y824D01*
X439Y823D02*
X513Y823D01*
X439Y822D02*
X513Y822D01*
X439Y821D02*
X513Y821D01*
X439Y820D02*
X513Y820D01*
X439Y819D02*
X513Y819D01*
X439Y818D02*
X513Y818D01*
X439Y817D02*
X513Y817D01*
X439Y816D02*
X513Y816D01*
X439Y815D02*
X513Y815D01*
X439Y814D02*
X513Y814D01*
X439Y813D02*
X513Y813D01*
X439Y812D02*
X513Y812D01*
X439Y811D02*
X513Y811D01*
X439Y810D02*
X513Y810D01*
X439Y809D02*
X513Y809D01*
X439Y808D02*
X513Y808D01*
X439Y807D02*
X513Y807D01*
X439Y806D02*
X513Y806D01*
X439Y805D02*
X513Y805D01*
X439Y804D02*
X513Y804D01*
D02*
G04 End of Mask0*
M02*