; NON-PLATED HOLES START AT T1
; THROUGH (PLATED) HOLES START AT T100
M48
INCH
T1C0.118110
T100C0.015748
T101C0.031496
T102C0.031497
T103C0.027559
T104C0.038000
T105C0.074803
T106C0.040000
%
T1
X001513Y001398
X001513Y016023
T100
X015013Y004398
X012638Y011023
X016513Y004398
X005638Y002148
X015769Y004389
X012763Y007148
X011888Y010273
X014138Y004398
X017388Y004398
T101
X002513Y011768
X002041Y012713
X002041Y012083
X002513Y012398
X002513Y013028
T102
X009763Y014663
X005513Y014663
X009763Y015648
X005513Y015648
T103
X005138Y012023
X004763Y007398
X005138Y011023
X004763Y008398
T104
X001013Y005398
X001013Y003398
X001013Y008398
X001013Y006398
X001013Y004398
X011263Y001148
X010263Y001148
X001013Y007398
T105
X000506Y010961
X000506Y013835
T106
X014013Y014148
X017013Y015148
X016013Y015148
X015013Y015148
X014013Y015148
X017013Y014148
X016013Y014148
X015013Y014148
T00
M30
