G04 MADE WITH FRITZING*
G04 WWW.FRITZING.ORG*
G04 DOUBLE SIDED*
G04 HOLES PLATED*
G04 CONTOUR ON CENTER OF CONTOUR VECTOR*
%ASAXBY*%
%FSLAX23Y23*%
%MOIN*%
%OFA0B0*%
%SFA1.0B1.0*%
%ADD10C,0.084000*%
%ADD11C,0.049370*%
%ADD12C,0.072992*%
%ADD13C,0.128110*%
%ADD14C,0.061496*%
%ADD15C,0.074803*%
%ADD16C,0.088000*%
%ADD17C,0.075000*%
%ADD18R,0.084000X0.084000*%
%ADD19R,0.072992X0.072992*%
%ADD20R,0.072992X0.080866*%
%ADD21R,0.080866X0.072992*%
%ADD22R,0.072992X0.084803*%
%ADD23R,0.084803X0.072992*%
%ADD24R,0.058000X0.098000*%
%ADD25R,0.151732X0.096614*%
%ADD26R,0.001000X0.001000*%
%LNMASK1*%
G90*
G70*
G54D10*
X1701Y1415D03*
X1601Y1415D03*
X1501Y1415D03*
X1401Y1415D03*
X1701Y1515D03*
X1601Y1515D03*
X1501Y1515D03*
X1401Y1515D03*
G54D11*
X1739Y440D03*
X1501Y440D03*
X1651Y440D03*
X1577Y439D03*
G54D12*
X551Y1466D03*
X551Y1565D03*
X976Y1466D03*
X976Y1565D03*
G54D11*
X1264Y1102D03*
X1189Y1027D03*
G54D13*
X151Y140D03*
X151Y1602D03*
G54D14*
X251Y1303D03*
X251Y1240D03*
X251Y1177D03*
X204Y1271D03*
X204Y1208D03*
G54D15*
X51Y1096D03*
X51Y1384D03*
G54D14*
X251Y1303D03*
X251Y1240D03*
X251Y1177D03*
X204Y1271D03*
X204Y1208D03*
G54D15*
X51Y1096D03*
X51Y1384D03*
G54D11*
X1276Y715D03*
X564Y215D03*
G54D16*
X1126Y115D03*
X1026Y115D03*
X101Y840D03*
X101Y740D03*
X101Y640D03*
X101Y540D03*
X101Y440D03*
X101Y340D03*
G54D11*
X1414Y440D03*
G54D17*
X514Y1102D03*
X514Y1202D03*
X514Y1102D03*
X514Y1202D03*
X476Y740D03*
X476Y840D03*
X476Y740D03*
X476Y840D03*
G54D18*
X1701Y1515D03*
G54D19*
X551Y1466D03*
X976Y1466D03*
G54D20*
X1564Y1140D03*
X1674Y1140D03*
G54D21*
X1864Y527D03*
X1864Y638D03*
X789Y115D03*
X789Y225D03*
G54D22*
X664Y352D03*
X786Y352D03*
G54D23*
X776Y1440D03*
X776Y1562D03*
X1114Y1340D03*
X1114Y1218D03*
X776Y840D03*
X776Y718D03*
G54D22*
X664Y602D03*
X786Y602D03*
X664Y478D03*
X786Y478D03*
G54D24*
X739Y1002D03*
X830Y1002D03*
X921Y1002D03*
G54D25*
X830Y1246D03*
G54D26*
X43Y1436D02*
X58Y1436D01*
X38Y1435D02*
X62Y1435D01*
X34Y1434D02*
X66Y1434D01*
X32Y1433D02*
X68Y1433D01*
X29Y1432D02*
X71Y1432D01*
X27Y1431D02*
X73Y1431D01*
X25Y1430D02*
X75Y1430D01*
X24Y1429D02*
X77Y1429D01*
X22Y1428D02*
X78Y1428D01*
X20Y1427D02*
X80Y1427D01*
X19Y1426D02*
X81Y1426D01*
X18Y1425D02*
X83Y1425D01*
X16Y1424D02*
X84Y1424D01*
X15Y1423D02*
X85Y1423D01*
X14Y1422D02*
X86Y1422D01*
X13Y1421D02*
X87Y1421D01*
X12Y1420D02*
X88Y1420D01*
X11Y1419D02*
X89Y1419D01*
X10Y1418D02*
X90Y1418D01*
X10Y1417D02*
X90Y1417D01*
X9Y1416D02*
X91Y1416D01*
X8Y1415D02*
X92Y1415D01*
X8Y1414D02*
X93Y1414D01*
X7Y1413D02*
X93Y1413D01*
X6Y1412D02*
X94Y1412D01*
X6Y1411D02*
X94Y1411D01*
X5Y1410D02*
X95Y1410D01*
X5Y1409D02*
X96Y1409D01*
X4Y1408D02*
X96Y1408D01*
X4Y1407D02*
X97Y1407D01*
X3Y1406D02*
X97Y1406D01*
X3Y1405D02*
X98Y1405D01*
X2Y1404D02*
X98Y1404D01*
X2Y1403D02*
X98Y1403D01*
X1Y1402D02*
X99Y1402D01*
X1Y1401D02*
X99Y1401D01*
X1Y1400D02*
X99Y1400D01*
X0Y1399D02*
X100Y1399D01*
X0Y1398D02*
X100Y1398D01*
X0Y1397D02*
X100Y1397D01*
X0Y1396D02*
X101Y1396D01*
X0Y1395D02*
X101Y1395D01*
X0Y1394D02*
X101Y1394D01*
X0Y1393D02*
X101Y1393D01*
X0Y1392D02*
X101Y1392D01*
X0Y1391D02*
X101Y1391D01*
X0Y1390D02*
X102Y1390D01*
X0Y1389D02*
X102Y1389D01*
X0Y1388D02*
X102Y1388D01*
X0Y1387D02*
X102Y1387D01*
X0Y1386D02*
X102Y1386D01*
X0Y1385D02*
X102Y1385D01*
X0Y1384D02*
X102Y1384D01*
X0Y1383D02*
X102Y1383D01*
X0Y1382D02*
X102Y1382D01*
X0Y1381D02*
X102Y1381D01*
X0Y1380D02*
X102Y1380D01*
X0Y1379D02*
X102Y1379D01*
X0Y1378D02*
X101Y1378D01*
X0Y1377D02*
X101Y1377D01*
X0Y1376D02*
X101Y1376D01*
X0Y1375D02*
X101Y1375D01*
X0Y1374D02*
X101Y1374D01*
X0Y1373D02*
X101Y1373D01*
X0Y1372D02*
X100Y1372D01*
X0Y1371D02*
X100Y1371D01*
X0Y1370D02*
X100Y1370D01*
X1Y1369D02*
X99Y1369D01*
X1Y1368D02*
X99Y1368D01*
X1Y1367D02*
X99Y1367D01*
X2Y1366D02*
X98Y1366D01*
X2Y1365D02*
X98Y1365D01*
X3Y1364D02*
X98Y1364D01*
X3Y1363D02*
X97Y1363D01*
X3Y1362D02*
X97Y1362D01*
X4Y1361D02*
X96Y1361D01*
X4Y1360D02*
X96Y1360D01*
X5Y1359D02*
X95Y1359D01*
X6Y1358D02*
X95Y1358D01*
X6Y1357D02*
X94Y1357D01*
X7Y1356D02*
X93Y1356D01*
X7Y1355D02*
X93Y1355D01*
X8Y1354D02*
X92Y1354D01*
X9Y1353D02*
X91Y1353D01*
X10Y1352D02*
X91Y1352D01*
X10Y1351D02*
X90Y1351D01*
X11Y1350D02*
X89Y1350D01*
X12Y1349D02*
X88Y1349D01*
X13Y1348D02*
X87Y1348D01*
X14Y1347D02*
X86Y1347D01*
X15Y1346D02*
X85Y1346D01*
X16Y1345D02*
X84Y1345D01*
X17Y1344D02*
X83Y1344D01*
X19Y1343D02*
X82Y1343D01*
X20Y1342D02*
X80Y1342D01*
X21Y1341D02*
X79Y1341D01*
X23Y1340D02*
X77Y1340D01*
X25Y1339D02*
X75Y1339D01*
X27Y1338D02*
X73Y1338D01*
X29Y1337D02*
X71Y1337D01*
X31Y1336D02*
X69Y1336D01*
X34Y1335D02*
X66Y1335D01*
X37Y1334D02*
X63Y1334D01*
X41Y1333D02*
X59Y1333D01*
X476Y1240D02*
X550Y1240D01*
X476Y1239D02*
X550Y1239D01*
X476Y1238D02*
X550Y1238D01*
X476Y1237D02*
X550Y1237D01*
X476Y1236D02*
X550Y1236D01*
X476Y1235D02*
X550Y1235D01*
X476Y1234D02*
X550Y1234D01*
X476Y1233D02*
X550Y1233D01*
X476Y1232D02*
X550Y1232D01*
X476Y1231D02*
X550Y1231D01*
X476Y1230D02*
X550Y1230D01*
X476Y1229D02*
X550Y1229D01*
X476Y1228D02*
X550Y1228D01*
X476Y1227D02*
X550Y1227D01*
X476Y1226D02*
X550Y1226D01*
X476Y1225D02*
X550Y1225D01*
X476Y1224D02*
X550Y1224D01*
X476Y1223D02*
X550Y1223D01*
X476Y1222D02*
X550Y1222D01*
X476Y1221D02*
X550Y1221D01*
X476Y1220D02*
X550Y1220D01*
X476Y1219D02*
X550Y1219D01*
X476Y1218D02*
X550Y1218D01*
X476Y1217D02*
X550Y1217D01*
X476Y1216D02*
X550Y1216D01*
X476Y1215D02*
X550Y1215D01*
X476Y1214D02*
X550Y1214D01*
X476Y1213D02*
X550Y1213D01*
X476Y1212D02*
X550Y1212D01*
X476Y1211D02*
X508Y1211D01*
X518Y1211D02*
X550Y1211D01*
X476Y1210D02*
X507Y1210D01*
X520Y1210D02*
X550Y1210D01*
X476Y1209D02*
X506Y1209D01*
X520Y1209D02*
X550Y1209D01*
X476Y1208D02*
X505Y1208D01*
X521Y1208D02*
X550Y1208D01*
X476Y1207D02*
X505Y1207D01*
X522Y1207D02*
X550Y1207D01*
X476Y1206D02*
X504Y1206D01*
X522Y1206D02*
X550Y1206D01*
X476Y1205D02*
X504Y1205D01*
X522Y1205D02*
X550Y1205D01*
X476Y1204D02*
X504Y1204D01*
X523Y1204D02*
X550Y1204D01*
X476Y1203D02*
X504Y1203D01*
X523Y1203D02*
X550Y1203D01*
X476Y1202D02*
X504Y1202D01*
X523Y1202D02*
X550Y1202D01*
X476Y1201D02*
X504Y1201D01*
X522Y1201D02*
X550Y1201D01*
X476Y1200D02*
X505Y1200D01*
X522Y1200D02*
X550Y1200D01*
X476Y1199D02*
X505Y1199D01*
X521Y1199D02*
X550Y1199D01*
X476Y1198D02*
X506Y1198D01*
X521Y1198D02*
X550Y1198D01*
X476Y1197D02*
X506Y1197D01*
X520Y1197D02*
X550Y1197D01*
X476Y1196D02*
X508Y1196D01*
X519Y1196D02*
X550Y1196D01*
X476Y1195D02*
X510Y1195D01*
X517Y1195D02*
X550Y1195D01*
X476Y1194D02*
X550Y1194D01*
X476Y1193D02*
X550Y1193D01*
X476Y1192D02*
X550Y1192D01*
X476Y1191D02*
X550Y1191D01*
X476Y1190D02*
X550Y1190D01*
X476Y1189D02*
X550Y1189D01*
X476Y1188D02*
X550Y1188D01*
X476Y1187D02*
X550Y1187D01*
X476Y1186D02*
X550Y1186D01*
X476Y1185D02*
X550Y1185D01*
X476Y1184D02*
X550Y1184D01*
X476Y1183D02*
X550Y1183D01*
X476Y1182D02*
X550Y1182D01*
X476Y1181D02*
X550Y1181D01*
X476Y1180D02*
X550Y1180D01*
X476Y1179D02*
X550Y1179D01*
X476Y1178D02*
X550Y1178D01*
X476Y1177D02*
X550Y1177D01*
X476Y1176D02*
X550Y1176D01*
X476Y1175D02*
X550Y1175D01*
X476Y1174D02*
X550Y1174D01*
X476Y1173D02*
X550Y1173D01*
X476Y1172D02*
X550Y1172D01*
X476Y1171D02*
X550Y1171D01*
X476Y1170D02*
X550Y1170D01*
X476Y1169D02*
X550Y1169D01*
X476Y1168D02*
X550Y1168D01*
X476Y1167D02*
X550Y1167D01*
X476Y1166D02*
X550Y1166D01*
X44Y1149D02*
X56Y1149D01*
X39Y1148D02*
X61Y1148D01*
X35Y1147D02*
X65Y1147D01*
X32Y1146D02*
X68Y1146D01*
X30Y1145D02*
X70Y1145D01*
X28Y1144D02*
X72Y1144D01*
X26Y1143D02*
X74Y1143D01*
X24Y1142D02*
X76Y1142D01*
X22Y1141D02*
X78Y1141D01*
X21Y1140D02*
X79Y1140D01*
X19Y1139D02*
X81Y1139D01*
X18Y1138D02*
X82Y1138D01*
X17Y1137D02*
X83Y1137D01*
X16Y1136D02*
X85Y1136D01*
X14Y1135D02*
X86Y1135D01*
X13Y1134D02*
X87Y1134D01*
X13Y1133D02*
X88Y1133D01*
X12Y1132D02*
X89Y1132D01*
X11Y1131D02*
X89Y1131D01*
X10Y1130D02*
X90Y1130D01*
X9Y1129D02*
X91Y1129D01*
X8Y1128D02*
X92Y1128D01*
X8Y1127D02*
X92Y1127D01*
X7Y1126D02*
X93Y1126D01*
X6Y1125D02*
X94Y1125D01*
X6Y1124D02*
X94Y1124D01*
X5Y1123D02*
X95Y1123D01*
X5Y1122D02*
X95Y1122D01*
X4Y1121D02*
X96Y1121D01*
X4Y1120D02*
X96Y1120D01*
X3Y1119D02*
X97Y1119D01*
X3Y1118D02*
X97Y1118D01*
X2Y1117D02*
X98Y1117D01*
X2Y1116D02*
X98Y1116D01*
X2Y1115D02*
X99Y1115D01*
X1Y1114D02*
X99Y1114D01*
X1Y1113D02*
X99Y1113D01*
X1Y1112D02*
X100Y1112D01*
X0Y1111D02*
X100Y1111D01*
X0Y1110D02*
X100Y1110D01*
X0Y1109D02*
X100Y1109D01*
X0Y1108D02*
X101Y1108D01*
X0Y1107D02*
X101Y1107D01*
X0Y1106D02*
X101Y1106D01*
X0Y1105D02*
X101Y1105D01*
X0Y1104D02*
X101Y1104D01*
X0Y1103D02*
X102Y1103D01*
X0Y1102D02*
X102Y1102D01*
X0Y1101D02*
X102Y1101D01*
X0Y1100D02*
X102Y1100D01*
X0Y1099D02*
X102Y1099D01*
X0Y1098D02*
X102Y1098D01*
X0Y1097D02*
X102Y1097D01*
X0Y1096D02*
X102Y1096D01*
X0Y1095D02*
X102Y1095D01*
X0Y1094D02*
X102Y1094D01*
X0Y1093D02*
X102Y1093D01*
X0Y1092D02*
X102Y1092D01*
X0Y1091D02*
X102Y1091D01*
X0Y1090D02*
X101Y1090D01*
X0Y1089D02*
X101Y1089D01*
X0Y1088D02*
X101Y1088D01*
X0Y1087D02*
X101Y1087D01*
X0Y1086D02*
X101Y1086D01*
X0Y1085D02*
X100Y1085D01*
X0Y1084D02*
X100Y1084D01*
X0Y1083D02*
X100Y1083D01*
X1Y1082D02*
X100Y1082D01*
X1Y1081D02*
X99Y1081D01*
X1Y1080D02*
X99Y1080D01*
X2Y1079D02*
X98Y1079D01*
X2Y1078D02*
X98Y1078D01*
X2Y1077D02*
X98Y1077D01*
X3Y1076D02*
X97Y1076D01*
X3Y1075D02*
X97Y1075D01*
X4Y1074D02*
X96Y1074D01*
X4Y1073D02*
X96Y1073D01*
X5Y1072D02*
X95Y1072D01*
X5Y1071D02*
X95Y1071D01*
X6Y1070D02*
X94Y1070D01*
X7Y1069D02*
X94Y1069D01*
X7Y1068D02*
X93Y1068D01*
X8Y1067D02*
X92Y1067D01*
X9Y1066D02*
X92Y1066D01*
X9Y1065D02*
X91Y1065D01*
X10Y1064D02*
X90Y1064D01*
X11Y1063D02*
X89Y1063D01*
X12Y1062D02*
X88Y1062D01*
X13Y1061D02*
X87Y1061D01*
X14Y1060D02*
X87Y1060D01*
X15Y1059D02*
X85Y1059D01*
X16Y1058D02*
X84Y1058D01*
X17Y1057D02*
X83Y1057D01*
X18Y1056D02*
X82Y1056D01*
X20Y1055D02*
X81Y1055D01*
X21Y1054D02*
X79Y1054D01*
X23Y1053D02*
X78Y1053D01*
X24Y1052D02*
X76Y1052D01*
X26Y1051D02*
X74Y1051D01*
X28Y1050D02*
X72Y1050D01*
X30Y1049D02*
X70Y1049D01*
X33Y1048D02*
X67Y1048D01*
X36Y1047D02*
X64Y1047D01*
X40Y1046D02*
X60Y1046D01*
X46Y1045D02*
X54Y1045D01*
X1156Y965D02*
X1212Y965D01*
X1235Y965D02*
X1291Y965D01*
X1314Y965D02*
X1370Y965D01*
X1393Y965D02*
X1448Y965D01*
X1471Y965D02*
X1527Y965D01*
X1550Y965D02*
X1606Y965D01*
X1627Y965D02*
X1682Y965D01*
X1708Y965D02*
X1763Y965D01*
X1156Y964D02*
X1212Y964D01*
X1235Y964D02*
X1291Y964D01*
X1314Y964D02*
X1370Y964D01*
X1392Y964D02*
X1449Y964D01*
X1471Y964D02*
X1527Y964D01*
X1550Y964D02*
X1606Y964D01*
X1626Y964D02*
X1683Y964D01*
X1707Y964D02*
X1764Y964D01*
X1156Y963D02*
X1212Y963D01*
X1235Y963D02*
X1291Y963D01*
X1314Y963D02*
X1370Y963D01*
X1392Y963D02*
X1449Y963D01*
X1471Y963D02*
X1527Y963D01*
X1550Y963D02*
X1606Y963D01*
X1626Y963D02*
X1683Y963D01*
X1707Y963D02*
X1764Y963D01*
X1156Y962D02*
X1212Y962D01*
X1235Y962D02*
X1291Y962D01*
X1314Y962D02*
X1370Y962D01*
X1392Y962D02*
X1449Y962D01*
X1471Y962D02*
X1527Y962D01*
X1550Y962D02*
X1606Y962D01*
X1626Y962D02*
X1683Y962D01*
X1707Y962D02*
X1764Y962D01*
X1156Y961D02*
X1212Y961D01*
X1235Y961D02*
X1291Y961D01*
X1314Y961D02*
X1370Y961D01*
X1392Y961D02*
X1449Y961D01*
X1471Y961D02*
X1527Y961D01*
X1550Y961D02*
X1606Y961D01*
X1626Y961D02*
X1683Y961D01*
X1707Y961D02*
X1764Y961D01*
X1156Y960D02*
X1212Y960D01*
X1235Y960D02*
X1291Y960D01*
X1314Y960D02*
X1370Y960D01*
X1392Y960D02*
X1449Y960D01*
X1471Y960D02*
X1527Y960D01*
X1550Y960D02*
X1606Y960D01*
X1626Y960D02*
X1683Y960D01*
X1707Y960D02*
X1764Y960D01*
X1156Y959D02*
X1212Y959D01*
X1235Y959D02*
X1291Y959D01*
X1314Y959D02*
X1370Y959D01*
X1392Y959D02*
X1449Y959D01*
X1471Y959D02*
X1527Y959D01*
X1550Y959D02*
X1606Y959D01*
X1626Y959D02*
X1683Y959D01*
X1707Y959D02*
X1764Y959D01*
X1156Y958D02*
X1212Y958D01*
X1235Y958D02*
X1291Y958D01*
X1314Y958D02*
X1370Y958D01*
X1392Y958D02*
X1449Y958D01*
X1471Y958D02*
X1527Y958D01*
X1550Y958D02*
X1606Y958D01*
X1626Y958D02*
X1683Y958D01*
X1707Y958D02*
X1764Y958D01*
X1156Y957D02*
X1212Y957D01*
X1235Y957D02*
X1291Y957D01*
X1314Y957D02*
X1370Y957D01*
X1392Y957D02*
X1449Y957D01*
X1471Y957D02*
X1527Y957D01*
X1550Y957D02*
X1606Y957D01*
X1626Y957D02*
X1683Y957D01*
X1707Y957D02*
X1764Y957D01*
X1156Y956D02*
X1212Y956D01*
X1235Y956D02*
X1291Y956D01*
X1314Y956D02*
X1370Y956D01*
X1392Y956D02*
X1449Y956D01*
X1471Y956D02*
X1527Y956D01*
X1550Y956D02*
X1606Y956D01*
X1626Y956D02*
X1683Y956D01*
X1707Y956D02*
X1764Y956D01*
X1156Y955D02*
X1212Y955D01*
X1235Y955D02*
X1291Y955D01*
X1314Y955D02*
X1370Y955D01*
X1392Y955D02*
X1449Y955D01*
X1471Y955D02*
X1527Y955D01*
X1550Y955D02*
X1606Y955D01*
X1626Y955D02*
X1683Y955D01*
X1707Y955D02*
X1764Y955D01*
X1156Y954D02*
X1212Y954D01*
X1235Y954D02*
X1291Y954D01*
X1314Y954D02*
X1370Y954D01*
X1392Y954D02*
X1449Y954D01*
X1471Y954D02*
X1527Y954D01*
X1550Y954D02*
X1606Y954D01*
X1626Y954D02*
X1683Y954D01*
X1707Y954D02*
X1764Y954D01*
X1156Y953D02*
X1212Y953D01*
X1235Y953D02*
X1291Y953D01*
X1314Y953D02*
X1370Y953D01*
X1392Y953D02*
X1449Y953D01*
X1471Y953D02*
X1527Y953D01*
X1550Y953D02*
X1606Y953D01*
X1626Y953D02*
X1683Y953D01*
X1707Y953D02*
X1764Y953D01*
X1156Y952D02*
X1212Y952D01*
X1235Y952D02*
X1291Y952D01*
X1314Y952D02*
X1370Y952D01*
X1392Y952D02*
X1449Y952D01*
X1471Y952D02*
X1527Y952D01*
X1550Y952D02*
X1606Y952D01*
X1626Y952D02*
X1683Y952D01*
X1707Y952D02*
X1764Y952D01*
X1156Y951D02*
X1212Y951D01*
X1235Y951D02*
X1291Y951D01*
X1314Y951D02*
X1370Y951D01*
X1392Y951D02*
X1449Y951D01*
X1471Y951D02*
X1527Y951D01*
X1550Y951D02*
X1606Y951D01*
X1626Y951D02*
X1683Y951D01*
X1707Y951D02*
X1764Y951D01*
X1156Y950D02*
X1212Y950D01*
X1235Y950D02*
X1291Y950D01*
X1314Y950D02*
X1370Y950D01*
X1392Y950D02*
X1449Y950D01*
X1471Y950D02*
X1527Y950D01*
X1550Y950D02*
X1606Y950D01*
X1626Y950D02*
X1683Y950D01*
X1707Y950D02*
X1764Y950D01*
X1156Y949D02*
X1212Y949D01*
X1235Y949D02*
X1291Y949D01*
X1314Y949D02*
X1370Y949D01*
X1392Y949D02*
X1449Y949D01*
X1471Y949D02*
X1527Y949D01*
X1550Y949D02*
X1606Y949D01*
X1626Y949D02*
X1683Y949D01*
X1707Y949D02*
X1764Y949D01*
X1156Y948D02*
X1212Y948D01*
X1235Y948D02*
X1291Y948D01*
X1314Y948D02*
X1370Y948D01*
X1392Y948D02*
X1449Y948D01*
X1471Y948D02*
X1527Y948D01*
X1550Y948D02*
X1606Y948D01*
X1626Y948D02*
X1683Y948D01*
X1707Y948D02*
X1764Y948D01*
X1156Y947D02*
X1212Y947D01*
X1235Y947D02*
X1291Y947D01*
X1314Y947D02*
X1370Y947D01*
X1392Y947D02*
X1449Y947D01*
X1471Y947D02*
X1527Y947D01*
X1550Y947D02*
X1606Y947D01*
X1626Y947D02*
X1683Y947D01*
X1707Y947D02*
X1764Y947D01*
X1156Y946D02*
X1212Y946D01*
X1235Y946D02*
X1291Y946D01*
X1314Y946D02*
X1370Y946D01*
X1392Y946D02*
X1449Y946D01*
X1471Y946D02*
X1527Y946D01*
X1550Y946D02*
X1606Y946D01*
X1626Y946D02*
X1683Y946D01*
X1707Y946D02*
X1764Y946D01*
X1156Y945D02*
X1212Y945D01*
X1235Y945D02*
X1291Y945D01*
X1314Y945D02*
X1370Y945D01*
X1392Y945D02*
X1449Y945D01*
X1471Y945D02*
X1527Y945D01*
X1550Y945D02*
X1606Y945D01*
X1626Y945D02*
X1683Y945D01*
X1707Y945D02*
X1764Y945D01*
X1156Y944D02*
X1212Y944D01*
X1235Y944D02*
X1291Y944D01*
X1314Y944D02*
X1370Y944D01*
X1392Y944D02*
X1449Y944D01*
X1471Y944D02*
X1527Y944D01*
X1550Y944D02*
X1606Y944D01*
X1626Y944D02*
X1683Y944D01*
X1707Y944D02*
X1764Y944D01*
X1156Y943D02*
X1212Y943D01*
X1235Y943D02*
X1291Y943D01*
X1314Y943D02*
X1370Y943D01*
X1392Y943D02*
X1449Y943D01*
X1471Y943D02*
X1527Y943D01*
X1550Y943D02*
X1606Y943D01*
X1626Y943D02*
X1683Y943D01*
X1707Y943D02*
X1764Y943D01*
X1156Y942D02*
X1212Y942D01*
X1235Y942D02*
X1291Y942D01*
X1314Y942D02*
X1370Y942D01*
X1392Y942D02*
X1449Y942D01*
X1471Y942D02*
X1527Y942D01*
X1550Y942D02*
X1606Y942D01*
X1626Y942D02*
X1683Y942D01*
X1707Y942D02*
X1764Y942D01*
X1156Y941D02*
X1212Y941D01*
X1235Y941D02*
X1291Y941D01*
X1314Y941D02*
X1370Y941D01*
X1392Y941D02*
X1449Y941D01*
X1471Y941D02*
X1527Y941D01*
X1550Y941D02*
X1606Y941D01*
X1626Y941D02*
X1683Y941D01*
X1707Y941D02*
X1764Y941D01*
X1156Y940D02*
X1212Y940D01*
X1235Y940D02*
X1291Y940D01*
X1314Y940D02*
X1370Y940D01*
X1392Y940D02*
X1449Y940D01*
X1471Y940D02*
X1527Y940D01*
X1550Y940D02*
X1606Y940D01*
X1626Y940D02*
X1683Y940D01*
X1707Y940D02*
X1764Y940D01*
X1156Y939D02*
X1212Y939D01*
X1235Y939D02*
X1291Y939D01*
X1314Y939D02*
X1370Y939D01*
X1392Y939D02*
X1449Y939D01*
X1471Y939D02*
X1527Y939D01*
X1550Y939D02*
X1606Y939D01*
X1626Y939D02*
X1683Y939D01*
X1707Y939D02*
X1764Y939D01*
X1156Y938D02*
X1212Y938D01*
X1235Y938D02*
X1291Y938D01*
X1314Y938D02*
X1370Y938D01*
X1392Y938D02*
X1449Y938D01*
X1471Y938D02*
X1527Y938D01*
X1550Y938D02*
X1606Y938D01*
X1626Y938D02*
X1683Y938D01*
X1707Y938D02*
X1764Y938D01*
X1156Y937D02*
X1212Y937D01*
X1235Y937D02*
X1291Y937D01*
X1314Y937D02*
X1370Y937D01*
X1392Y937D02*
X1449Y937D01*
X1471Y937D02*
X1527Y937D01*
X1550Y937D02*
X1606Y937D01*
X1626Y937D02*
X1683Y937D01*
X1707Y937D02*
X1764Y937D01*
X1156Y936D02*
X1212Y936D01*
X1235Y936D02*
X1291Y936D01*
X1314Y936D02*
X1370Y936D01*
X1392Y936D02*
X1449Y936D01*
X1471Y936D02*
X1527Y936D01*
X1550Y936D02*
X1606Y936D01*
X1626Y936D02*
X1683Y936D01*
X1707Y936D02*
X1764Y936D01*
X1156Y935D02*
X1212Y935D01*
X1235Y935D02*
X1291Y935D01*
X1314Y935D02*
X1370Y935D01*
X1392Y935D02*
X1449Y935D01*
X1471Y935D02*
X1527Y935D01*
X1550Y935D02*
X1606Y935D01*
X1626Y935D02*
X1683Y935D01*
X1707Y935D02*
X1764Y935D01*
X1156Y934D02*
X1212Y934D01*
X1235Y934D02*
X1291Y934D01*
X1314Y934D02*
X1370Y934D01*
X1392Y934D02*
X1449Y934D01*
X1471Y934D02*
X1527Y934D01*
X1550Y934D02*
X1606Y934D01*
X1626Y934D02*
X1683Y934D01*
X1707Y934D02*
X1764Y934D01*
X1156Y933D02*
X1212Y933D01*
X1235Y933D02*
X1291Y933D01*
X1314Y933D02*
X1370Y933D01*
X1392Y933D02*
X1449Y933D01*
X1471Y933D02*
X1527Y933D01*
X1550Y933D02*
X1606Y933D01*
X1626Y933D02*
X1683Y933D01*
X1707Y933D02*
X1764Y933D01*
X1156Y932D02*
X1212Y932D01*
X1235Y932D02*
X1291Y932D01*
X1314Y932D02*
X1370Y932D01*
X1392Y932D02*
X1449Y932D01*
X1471Y932D02*
X1527Y932D01*
X1550Y932D02*
X1606Y932D01*
X1626Y932D02*
X1683Y932D01*
X1707Y932D02*
X1764Y932D01*
X1156Y931D02*
X1212Y931D01*
X1235Y931D02*
X1291Y931D01*
X1314Y931D02*
X1370Y931D01*
X1392Y931D02*
X1449Y931D01*
X1471Y931D02*
X1527Y931D01*
X1550Y931D02*
X1606Y931D01*
X1626Y931D02*
X1683Y931D01*
X1707Y931D02*
X1764Y931D01*
X1156Y930D02*
X1212Y930D01*
X1235Y930D02*
X1291Y930D01*
X1314Y930D02*
X1370Y930D01*
X1392Y930D02*
X1449Y930D01*
X1471Y930D02*
X1527Y930D01*
X1550Y930D02*
X1606Y930D01*
X1626Y930D02*
X1683Y930D01*
X1707Y930D02*
X1764Y930D01*
X1156Y929D02*
X1212Y929D01*
X1235Y929D02*
X1291Y929D01*
X1314Y929D02*
X1370Y929D01*
X1392Y929D02*
X1449Y929D01*
X1471Y929D02*
X1527Y929D01*
X1550Y929D02*
X1606Y929D01*
X1626Y929D02*
X1683Y929D01*
X1707Y929D02*
X1764Y929D01*
X1156Y928D02*
X1212Y928D01*
X1235Y928D02*
X1291Y928D01*
X1314Y928D02*
X1370Y928D01*
X1392Y928D02*
X1449Y928D01*
X1471Y928D02*
X1527Y928D01*
X1550Y928D02*
X1606Y928D01*
X1626Y928D02*
X1683Y928D01*
X1707Y928D02*
X1764Y928D01*
X1156Y927D02*
X1212Y927D01*
X1235Y927D02*
X1291Y927D01*
X1314Y927D02*
X1370Y927D01*
X1392Y927D02*
X1449Y927D01*
X1471Y927D02*
X1527Y927D01*
X1550Y927D02*
X1606Y927D01*
X1626Y927D02*
X1683Y927D01*
X1707Y927D02*
X1764Y927D01*
X1156Y926D02*
X1212Y926D01*
X1235Y926D02*
X1291Y926D01*
X1314Y926D02*
X1370Y926D01*
X1392Y926D02*
X1449Y926D01*
X1471Y926D02*
X1527Y926D01*
X1550Y926D02*
X1606Y926D01*
X1626Y926D02*
X1683Y926D01*
X1707Y926D02*
X1764Y926D01*
X1156Y925D02*
X1212Y925D01*
X1235Y925D02*
X1291Y925D01*
X1314Y925D02*
X1370Y925D01*
X1392Y925D02*
X1449Y925D01*
X1471Y925D02*
X1527Y925D01*
X1550Y925D02*
X1606Y925D01*
X1626Y925D02*
X1683Y925D01*
X1707Y925D02*
X1764Y925D01*
X1156Y924D02*
X1212Y924D01*
X1235Y924D02*
X1291Y924D01*
X1314Y924D02*
X1370Y924D01*
X1392Y924D02*
X1449Y924D01*
X1471Y924D02*
X1527Y924D01*
X1550Y924D02*
X1606Y924D01*
X1626Y924D02*
X1683Y924D01*
X1707Y924D02*
X1764Y924D01*
X1156Y923D02*
X1212Y923D01*
X1235Y923D02*
X1291Y923D01*
X1314Y923D02*
X1370Y923D01*
X1392Y923D02*
X1449Y923D01*
X1471Y923D02*
X1527Y923D01*
X1550Y923D02*
X1606Y923D01*
X1626Y923D02*
X1683Y923D01*
X1707Y923D02*
X1764Y923D01*
X1156Y922D02*
X1212Y922D01*
X1235Y922D02*
X1291Y922D01*
X1314Y922D02*
X1370Y922D01*
X1392Y922D02*
X1449Y922D01*
X1471Y922D02*
X1527Y922D01*
X1550Y922D02*
X1606Y922D01*
X1626Y922D02*
X1683Y922D01*
X1707Y922D02*
X1764Y922D01*
X1156Y921D02*
X1212Y921D01*
X1235Y921D02*
X1291Y921D01*
X1314Y921D02*
X1370Y921D01*
X1392Y921D02*
X1449Y921D01*
X1471Y921D02*
X1527Y921D01*
X1550Y921D02*
X1606Y921D01*
X1626Y921D02*
X1683Y921D01*
X1707Y921D02*
X1764Y921D01*
X1156Y920D02*
X1212Y920D01*
X1235Y920D02*
X1291Y920D01*
X1314Y920D02*
X1370Y920D01*
X1392Y920D02*
X1449Y920D01*
X1471Y920D02*
X1527Y920D01*
X1550Y920D02*
X1606Y920D01*
X1626Y920D02*
X1683Y920D01*
X1707Y920D02*
X1764Y920D01*
X1156Y919D02*
X1212Y919D01*
X1235Y919D02*
X1291Y919D01*
X1314Y919D02*
X1370Y919D01*
X1392Y919D02*
X1449Y919D01*
X1471Y919D02*
X1527Y919D01*
X1550Y919D02*
X1606Y919D01*
X1626Y919D02*
X1683Y919D01*
X1707Y919D02*
X1764Y919D01*
X1156Y918D02*
X1212Y918D01*
X1235Y918D02*
X1291Y918D01*
X1314Y918D02*
X1370Y918D01*
X1392Y918D02*
X1449Y918D01*
X1471Y918D02*
X1527Y918D01*
X1550Y918D02*
X1606Y918D01*
X1626Y918D02*
X1683Y918D01*
X1707Y918D02*
X1764Y918D01*
X1156Y917D02*
X1212Y917D01*
X1235Y917D02*
X1291Y917D01*
X1314Y917D02*
X1370Y917D01*
X1392Y917D02*
X1449Y917D01*
X1471Y917D02*
X1527Y917D01*
X1550Y917D02*
X1606Y917D01*
X1626Y917D02*
X1683Y917D01*
X1707Y917D02*
X1764Y917D01*
X1156Y916D02*
X1212Y916D01*
X1235Y916D02*
X1291Y916D01*
X1314Y916D02*
X1370Y916D01*
X1392Y916D02*
X1449Y916D01*
X1471Y916D02*
X1527Y916D01*
X1550Y916D02*
X1606Y916D01*
X1626Y916D02*
X1683Y916D01*
X1707Y916D02*
X1764Y916D01*
X1156Y915D02*
X1212Y915D01*
X1235Y915D02*
X1291Y915D01*
X1314Y915D02*
X1370Y915D01*
X1392Y915D02*
X1449Y915D01*
X1471Y915D02*
X1527Y915D01*
X1550Y915D02*
X1606Y915D01*
X1626Y915D02*
X1683Y915D01*
X1707Y915D02*
X1764Y915D01*
X1156Y914D02*
X1212Y914D01*
X1235Y914D02*
X1291Y914D01*
X1314Y914D02*
X1370Y914D01*
X1392Y914D02*
X1449Y914D01*
X1471Y914D02*
X1527Y914D01*
X1550Y914D02*
X1606Y914D01*
X1626Y914D02*
X1683Y914D01*
X1707Y914D02*
X1764Y914D01*
X1156Y913D02*
X1212Y913D01*
X1235Y913D02*
X1291Y913D01*
X1314Y913D02*
X1370Y913D01*
X1392Y913D02*
X1449Y913D01*
X1471Y913D02*
X1527Y913D01*
X1550Y913D02*
X1606Y913D01*
X1626Y913D02*
X1683Y913D01*
X1707Y913D02*
X1764Y913D01*
X1156Y912D02*
X1212Y912D01*
X1235Y912D02*
X1291Y912D01*
X1314Y912D02*
X1370Y912D01*
X1392Y912D02*
X1449Y912D01*
X1471Y912D02*
X1527Y912D01*
X1550Y912D02*
X1606Y912D01*
X1626Y912D02*
X1683Y912D01*
X1707Y912D02*
X1764Y912D01*
X1156Y911D02*
X1212Y911D01*
X1235Y911D02*
X1291Y911D01*
X1314Y911D02*
X1370Y911D01*
X1392Y911D02*
X1449Y911D01*
X1471Y911D02*
X1527Y911D01*
X1550Y911D02*
X1606Y911D01*
X1626Y911D02*
X1683Y911D01*
X1707Y911D02*
X1764Y911D01*
X1156Y910D02*
X1212Y910D01*
X1235Y910D02*
X1291Y910D01*
X1314Y910D02*
X1370Y910D01*
X1392Y910D02*
X1449Y910D01*
X1471Y910D02*
X1527Y910D01*
X1550Y910D02*
X1606Y910D01*
X1626Y910D02*
X1683Y910D01*
X1707Y910D02*
X1764Y910D01*
X1156Y909D02*
X1212Y909D01*
X1235Y909D02*
X1291Y909D01*
X1314Y909D02*
X1370Y909D01*
X1392Y909D02*
X1449Y909D01*
X1471Y909D02*
X1527Y909D01*
X1550Y909D02*
X1606Y909D01*
X1626Y909D02*
X1683Y909D01*
X1707Y909D02*
X1764Y909D01*
X1156Y908D02*
X1212Y908D01*
X1235Y908D02*
X1291Y908D01*
X1314Y908D02*
X1370Y908D01*
X1392Y908D02*
X1449Y908D01*
X1471Y908D02*
X1527Y908D01*
X1550Y908D02*
X1606Y908D01*
X1626Y908D02*
X1683Y908D01*
X1707Y908D02*
X1764Y908D01*
X1156Y907D02*
X1212Y907D01*
X1235Y907D02*
X1291Y907D01*
X1314Y907D02*
X1370Y907D01*
X1392Y907D02*
X1449Y907D01*
X1471Y907D02*
X1527Y907D01*
X1550Y907D02*
X1606Y907D01*
X1626Y907D02*
X1683Y907D01*
X1707Y907D02*
X1764Y907D01*
X1156Y906D02*
X1212Y906D01*
X1235Y906D02*
X1291Y906D01*
X1314Y906D02*
X1370Y906D01*
X1392Y906D02*
X1449Y906D01*
X1471Y906D02*
X1527Y906D01*
X1550Y906D02*
X1606Y906D01*
X1626Y906D02*
X1683Y906D01*
X1707Y906D02*
X1764Y906D01*
X1156Y905D02*
X1212Y905D01*
X1235Y905D02*
X1291Y905D01*
X1314Y905D02*
X1370Y905D01*
X1392Y905D02*
X1449Y905D01*
X1471Y905D02*
X1527Y905D01*
X1550Y905D02*
X1606Y905D01*
X1626Y905D02*
X1683Y905D01*
X1707Y905D02*
X1764Y905D01*
X1156Y904D02*
X1212Y904D01*
X1235Y904D02*
X1291Y904D01*
X1314Y904D02*
X1370Y904D01*
X1392Y904D02*
X1449Y904D01*
X1471Y904D02*
X1527Y904D01*
X1550Y904D02*
X1606Y904D01*
X1626Y904D02*
X1683Y904D01*
X1707Y904D02*
X1764Y904D01*
X1156Y903D02*
X1212Y903D01*
X1235Y903D02*
X1291Y903D01*
X1314Y903D02*
X1370Y903D01*
X1392Y903D02*
X1449Y903D01*
X1471Y903D02*
X1527Y903D01*
X1550Y903D02*
X1606Y903D01*
X1626Y903D02*
X1683Y903D01*
X1707Y903D02*
X1764Y903D01*
X1156Y902D02*
X1212Y902D01*
X1235Y902D02*
X1291Y902D01*
X1314Y902D02*
X1370Y902D01*
X1392Y902D02*
X1449Y902D01*
X1471Y902D02*
X1527Y902D01*
X1550Y902D02*
X1606Y902D01*
X1626Y902D02*
X1683Y902D01*
X1707Y902D02*
X1764Y902D01*
X1156Y901D02*
X1212Y901D01*
X1235Y901D02*
X1291Y901D01*
X1314Y901D02*
X1370Y901D01*
X1392Y901D02*
X1449Y901D01*
X1471Y901D02*
X1527Y901D01*
X1550Y901D02*
X1606Y901D01*
X1626Y901D02*
X1683Y901D01*
X1707Y901D02*
X1764Y901D01*
X1156Y900D02*
X1212Y900D01*
X1235Y900D02*
X1291Y900D01*
X1314Y900D02*
X1370Y900D01*
X1392Y900D02*
X1449Y900D01*
X1471Y900D02*
X1527Y900D01*
X1550Y900D02*
X1606Y900D01*
X1626Y900D02*
X1683Y900D01*
X1707Y900D02*
X1764Y900D01*
X1156Y899D02*
X1183Y899D01*
X1186Y899D02*
X1212Y899D01*
X1235Y899D02*
X1261Y899D01*
X1265Y899D02*
X1291Y899D01*
X1314Y899D02*
X1340Y899D01*
X1344Y899D02*
X1370Y899D01*
X1392Y899D02*
X1419Y899D01*
X1422Y899D02*
X1449Y899D01*
X1471Y899D02*
X1498Y899D01*
X1501Y899D02*
X1527Y899D01*
X1550Y899D02*
X1576Y899D01*
X1580Y899D02*
X1606Y899D01*
X1626Y899D02*
X1653Y899D01*
X1656Y899D02*
X1683Y899D01*
X1707Y899D02*
X1734Y899D01*
X1737Y899D02*
X1764Y899D01*
X1156Y898D02*
X1180Y898D01*
X1189Y898D02*
X1212Y898D01*
X1235Y898D02*
X1259Y898D01*
X1267Y898D02*
X1291Y898D01*
X1314Y898D02*
X1337Y898D01*
X1346Y898D02*
X1370Y898D01*
X1392Y898D02*
X1416Y898D01*
X1425Y898D02*
X1449Y898D01*
X1471Y898D02*
X1495Y898D01*
X1504Y898D02*
X1527Y898D01*
X1550Y898D02*
X1574Y898D01*
X1582Y898D02*
X1606Y898D01*
X1626Y898D02*
X1650Y898D01*
X1659Y898D02*
X1683Y898D01*
X1707Y898D02*
X1731Y898D01*
X1740Y898D02*
X1764Y898D01*
X1156Y897D02*
X1179Y897D01*
X1190Y897D02*
X1212Y897D01*
X1235Y897D02*
X1258Y897D01*
X1269Y897D02*
X1291Y897D01*
X1314Y897D02*
X1336Y897D01*
X1347Y897D02*
X1370Y897D01*
X1392Y897D02*
X1415Y897D01*
X1426Y897D02*
X1449Y897D01*
X1471Y897D02*
X1494Y897D01*
X1505Y897D02*
X1527Y897D01*
X1550Y897D02*
X1572Y897D01*
X1584Y897D02*
X1606Y897D01*
X1626Y897D02*
X1649Y897D01*
X1660Y897D02*
X1683Y897D01*
X1707Y897D02*
X1730Y897D01*
X1741Y897D02*
X1764Y897D01*
X1156Y896D02*
X1178Y896D01*
X1191Y896D02*
X1212Y896D01*
X1235Y896D02*
X1257Y896D01*
X1269Y896D02*
X1291Y896D01*
X1314Y896D02*
X1335Y896D01*
X1348Y896D02*
X1370Y896D01*
X1392Y896D02*
X1414Y896D01*
X1427Y896D02*
X1449Y896D01*
X1471Y896D02*
X1493Y896D01*
X1506Y896D02*
X1527Y896D01*
X1550Y896D02*
X1572Y896D01*
X1584Y896D02*
X1606Y896D01*
X1626Y896D02*
X1648Y896D01*
X1661Y896D02*
X1683Y896D01*
X1707Y896D02*
X1729Y896D01*
X1742Y896D02*
X1764Y896D01*
X1156Y895D02*
X1177Y895D01*
X1191Y895D02*
X1212Y895D01*
X1235Y895D02*
X1256Y895D01*
X1270Y895D02*
X1291Y895D01*
X1314Y895D02*
X1335Y895D01*
X1349Y895D02*
X1370Y895D01*
X1392Y895D02*
X1413Y895D01*
X1428Y895D02*
X1449Y895D01*
X1471Y895D02*
X1492Y895D01*
X1506Y895D02*
X1527Y895D01*
X1550Y895D02*
X1571Y895D01*
X1585Y895D02*
X1606Y895D01*
X1626Y895D02*
X1647Y895D01*
X1662Y895D02*
X1683Y895D01*
X1707Y895D02*
X1728Y895D01*
X1742Y895D02*
X1764Y895D01*
X1156Y894D02*
X1177Y894D01*
X1192Y894D02*
X1212Y894D01*
X1235Y894D02*
X1256Y894D01*
X1270Y894D02*
X1291Y894D01*
X1314Y894D02*
X1334Y894D01*
X1349Y894D02*
X1370Y894D01*
X1392Y894D02*
X1413Y894D01*
X1428Y894D02*
X1449Y894D01*
X1471Y894D02*
X1492Y894D01*
X1507Y894D02*
X1527Y894D01*
X1550Y894D02*
X1571Y894D01*
X1585Y894D02*
X1606Y894D01*
X1626Y894D02*
X1647Y894D01*
X1662Y894D02*
X1683Y894D01*
X1707Y894D02*
X1728Y894D01*
X1743Y894D02*
X1764Y894D01*
X1156Y893D02*
X1177Y893D01*
X1192Y893D02*
X1212Y893D01*
X1235Y893D02*
X1255Y893D01*
X1271Y893D02*
X1291Y893D01*
X1314Y893D02*
X1334Y893D01*
X1349Y893D02*
X1370Y893D01*
X1392Y893D02*
X1413Y893D01*
X1428Y893D02*
X1449Y893D01*
X1471Y893D02*
X1492Y893D01*
X1507Y893D02*
X1527Y893D01*
X1550Y893D02*
X1570Y893D01*
X1586Y893D02*
X1606Y893D01*
X1626Y893D02*
X1647Y893D01*
X1662Y893D02*
X1683Y893D01*
X1707Y893D02*
X1728Y893D01*
X1743Y893D02*
X1764Y893D01*
X1156Y892D02*
X1177Y892D01*
X1192Y892D02*
X1212Y892D01*
X1235Y892D02*
X1255Y892D01*
X1271Y892D02*
X1291Y892D01*
X1314Y892D02*
X1334Y892D01*
X1349Y892D02*
X1370Y892D01*
X1392Y892D02*
X1413Y892D01*
X1428Y892D02*
X1449Y892D01*
X1471Y892D02*
X1492Y892D01*
X1507Y892D02*
X1527Y892D01*
X1550Y892D02*
X1570Y892D01*
X1586Y892D02*
X1606Y892D01*
X1626Y892D02*
X1647Y892D01*
X1662Y892D02*
X1683Y892D01*
X1707Y892D02*
X1728Y892D01*
X1743Y892D02*
X1764Y892D01*
X1156Y891D02*
X1177Y891D01*
X1192Y891D02*
X1212Y891D01*
X1235Y891D02*
X1255Y891D01*
X1271Y891D02*
X1291Y891D01*
X1314Y891D02*
X1334Y891D01*
X1349Y891D02*
X1370Y891D01*
X1392Y891D02*
X1413Y891D01*
X1428Y891D02*
X1449Y891D01*
X1471Y891D02*
X1492Y891D01*
X1507Y891D02*
X1527Y891D01*
X1550Y891D02*
X1570Y891D01*
X1586Y891D02*
X1606Y891D01*
X1626Y891D02*
X1647Y891D01*
X1662Y891D02*
X1683Y891D01*
X1707Y891D02*
X1728Y891D01*
X1743Y891D02*
X1764Y891D01*
X1156Y890D02*
X1177Y890D01*
X1192Y890D02*
X1212Y890D01*
X1235Y890D02*
X1256Y890D01*
X1270Y890D02*
X1291Y890D01*
X1314Y890D02*
X1334Y890D01*
X1349Y890D02*
X1370Y890D01*
X1392Y890D02*
X1413Y890D01*
X1428Y890D02*
X1449Y890D01*
X1471Y890D02*
X1492Y890D01*
X1507Y890D02*
X1527Y890D01*
X1550Y890D02*
X1571Y890D01*
X1585Y890D02*
X1606Y890D01*
X1626Y890D02*
X1647Y890D01*
X1662Y890D02*
X1683Y890D01*
X1707Y890D02*
X1728Y890D01*
X1743Y890D02*
X1764Y890D01*
X1156Y889D02*
X1177Y889D01*
X1191Y889D02*
X1212Y889D01*
X1235Y889D02*
X1256Y889D01*
X1270Y889D02*
X1291Y889D01*
X1314Y889D02*
X1335Y889D01*
X1349Y889D02*
X1370Y889D01*
X1392Y889D02*
X1413Y889D01*
X1428Y889D02*
X1449Y889D01*
X1471Y889D02*
X1492Y889D01*
X1506Y889D02*
X1527Y889D01*
X1550Y889D02*
X1571Y889D01*
X1585Y889D02*
X1606Y889D01*
X1626Y889D02*
X1647Y889D01*
X1662Y889D02*
X1683Y889D01*
X1707Y889D02*
X1728Y889D01*
X1742Y889D02*
X1764Y889D01*
X1156Y888D02*
X1178Y888D01*
X1191Y888D02*
X1212Y888D01*
X1235Y888D02*
X1257Y888D01*
X1270Y888D02*
X1291Y888D01*
X1314Y888D02*
X1335Y888D01*
X1348Y888D02*
X1370Y888D01*
X1392Y888D02*
X1414Y888D01*
X1427Y888D02*
X1449Y888D01*
X1471Y888D02*
X1493Y888D01*
X1506Y888D02*
X1527Y888D01*
X1550Y888D02*
X1572Y888D01*
X1584Y888D02*
X1606Y888D01*
X1626Y888D02*
X1648Y888D01*
X1661Y888D02*
X1683Y888D01*
X1707Y888D02*
X1729Y888D01*
X1742Y888D02*
X1764Y888D01*
X1156Y887D02*
X1179Y887D01*
X1190Y887D02*
X1212Y887D01*
X1235Y887D02*
X1257Y887D01*
X1269Y887D02*
X1291Y887D01*
X1314Y887D02*
X1336Y887D01*
X1347Y887D02*
X1370Y887D01*
X1392Y887D02*
X1415Y887D01*
X1426Y887D02*
X1449Y887D01*
X1471Y887D02*
X1494Y887D01*
X1505Y887D02*
X1527Y887D01*
X1550Y887D02*
X1572Y887D01*
X1584Y887D02*
X1606Y887D01*
X1626Y887D02*
X1649Y887D01*
X1660Y887D02*
X1683Y887D01*
X1707Y887D02*
X1730Y887D01*
X1741Y887D02*
X1764Y887D01*
X1156Y886D02*
X1180Y886D01*
X1189Y886D02*
X1212Y886D01*
X1235Y886D02*
X1259Y886D01*
X1268Y886D02*
X1291Y886D01*
X1314Y886D02*
X1337Y886D01*
X1346Y886D02*
X1370Y886D01*
X1392Y886D02*
X1416Y886D01*
X1425Y886D02*
X1449Y886D01*
X1471Y886D02*
X1495Y886D01*
X1504Y886D02*
X1527Y886D01*
X1550Y886D02*
X1574Y886D01*
X1582Y886D02*
X1606Y886D01*
X1626Y886D02*
X1650Y886D01*
X1659Y886D02*
X1683Y886D01*
X1707Y886D02*
X1731Y886D01*
X1740Y886D02*
X1764Y886D01*
X1156Y885D02*
X1182Y885D01*
X1187Y885D02*
X1212Y885D01*
X1235Y885D02*
X1261Y885D01*
X1265Y885D02*
X1291Y885D01*
X1314Y885D02*
X1340Y885D01*
X1344Y885D02*
X1370Y885D01*
X1392Y885D02*
X1418Y885D01*
X1423Y885D02*
X1449Y885D01*
X1471Y885D02*
X1497Y885D01*
X1501Y885D02*
X1527Y885D01*
X1550Y885D02*
X1576Y885D01*
X1580Y885D02*
X1606Y885D01*
X1626Y885D02*
X1652Y885D01*
X1657Y885D02*
X1683Y885D01*
X1707Y885D02*
X1733Y885D01*
X1738Y885D02*
X1764Y885D01*
X1156Y884D02*
X1212Y884D01*
X1235Y884D02*
X1291Y884D01*
X1314Y884D02*
X1370Y884D01*
X1392Y884D02*
X1449Y884D01*
X1471Y884D02*
X1527Y884D01*
X1550Y884D02*
X1606Y884D01*
X1626Y884D02*
X1683Y884D01*
X1707Y884D02*
X1764Y884D01*
X1156Y883D02*
X1212Y883D01*
X1235Y883D02*
X1291Y883D01*
X1314Y883D02*
X1370Y883D01*
X1392Y883D02*
X1449Y883D01*
X1471Y883D02*
X1527Y883D01*
X1550Y883D02*
X1606Y883D01*
X1626Y883D02*
X1683Y883D01*
X1707Y883D02*
X1764Y883D01*
X1156Y882D02*
X1212Y882D01*
X1235Y882D02*
X1291Y882D01*
X1314Y882D02*
X1370Y882D01*
X1392Y882D02*
X1449Y882D01*
X1471Y882D02*
X1527Y882D01*
X1550Y882D02*
X1606Y882D01*
X1626Y882D02*
X1683Y882D01*
X1707Y882D02*
X1764Y882D01*
X1156Y881D02*
X1212Y881D01*
X1235Y881D02*
X1291Y881D01*
X1314Y881D02*
X1370Y881D01*
X1392Y881D02*
X1449Y881D01*
X1471Y881D02*
X1527Y881D01*
X1550Y881D02*
X1606Y881D01*
X1626Y881D02*
X1683Y881D01*
X1707Y881D02*
X1764Y881D01*
X1156Y880D02*
X1212Y880D01*
X1235Y880D02*
X1291Y880D01*
X1314Y880D02*
X1370Y880D01*
X1392Y880D02*
X1449Y880D01*
X1471Y880D02*
X1527Y880D01*
X1550Y880D02*
X1606Y880D01*
X1626Y880D02*
X1683Y880D01*
X1707Y880D02*
X1764Y880D01*
X1156Y879D02*
X1212Y879D01*
X1235Y879D02*
X1291Y879D01*
X1314Y879D02*
X1370Y879D01*
X1392Y879D02*
X1449Y879D01*
X1471Y879D02*
X1527Y879D01*
X1550Y879D02*
X1606Y879D01*
X1626Y879D02*
X1683Y879D01*
X1707Y879D02*
X1764Y879D01*
X439Y878D02*
X513Y878D01*
X1156Y878D02*
X1212Y878D01*
X1235Y878D02*
X1291Y878D01*
X1314Y878D02*
X1370Y878D01*
X1392Y878D02*
X1449Y878D01*
X1471Y878D02*
X1527Y878D01*
X1550Y878D02*
X1606Y878D01*
X1626Y878D02*
X1683Y878D01*
X1707Y878D02*
X1764Y878D01*
X439Y877D02*
X513Y877D01*
X1156Y877D02*
X1212Y877D01*
X1235Y877D02*
X1291Y877D01*
X1314Y877D02*
X1370Y877D01*
X1392Y877D02*
X1449Y877D01*
X1471Y877D02*
X1527Y877D01*
X1550Y877D02*
X1606Y877D01*
X1626Y877D02*
X1683Y877D01*
X1707Y877D02*
X1764Y877D01*
X439Y876D02*
X513Y876D01*
X1156Y876D02*
X1212Y876D01*
X1235Y876D02*
X1291Y876D01*
X1314Y876D02*
X1370Y876D01*
X1392Y876D02*
X1449Y876D01*
X1471Y876D02*
X1527Y876D01*
X1550Y876D02*
X1606Y876D01*
X1626Y876D02*
X1683Y876D01*
X1707Y876D02*
X1764Y876D01*
X439Y875D02*
X513Y875D01*
X1156Y875D02*
X1212Y875D01*
X1235Y875D02*
X1291Y875D01*
X1314Y875D02*
X1370Y875D01*
X1392Y875D02*
X1449Y875D01*
X1471Y875D02*
X1527Y875D01*
X1550Y875D02*
X1606Y875D01*
X1626Y875D02*
X1683Y875D01*
X1707Y875D02*
X1764Y875D01*
X439Y874D02*
X513Y874D01*
X1156Y874D02*
X1212Y874D01*
X1235Y874D02*
X1291Y874D01*
X1314Y874D02*
X1370Y874D01*
X1392Y874D02*
X1449Y874D01*
X1471Y874D02*
X1527Y874D01*
X1550Y874D02*
X1606Y874D01*
X1626Y874D02*
X1683Y874D01*
X1707Y874D02*
X1764Y874D01*
X439Y873D02*
X513Y873D01*
X1156Y873D02*
X1212Y873D01*
X1235Y873D02*
X1291Y873D01*
X1314Y873D02*
X1370Y873D01*
X1392Y873D02*
X1449Y873D01*
X1471Y873D02*
X1527Y873D01*
X1550Y873D02*
X1606Y873D01*
X1626Y873D02*
X1683Y873D01*
X1707Y873D02*
X1764Y873D01*
X439Y872D02*
X513Y872D01*
X1156Y872D02*
X1212Y872D01*
X1235Y872D02*
X1291Y872D01*
X1314Y872D02*
X1370Y872D01*
X1392Y872D02*
X1449Y872D01*
X1471Y872D02*
X1527Y872D01*
X1550Y872D02*
X1606Y872D01*
X1626Y872D02*
X1683Y872D01*
X1707Y872D02*
X1764Y872D01*
X439Y871D02*
X513Y871D01*
X1156Y871D02*
X1212Y871D01*
X1235Y871D02*
X1291Y871D01*
X1314Y871D02*
X1370Y871D01*
X1392Y871D02*
X1449Y871D01*
X1471Y871D02*
X1527Y871D01*
X1550Y871D02*
X1606Y871D01*
X1626Y871D02*
X1683Y871D01*
X1707Y871D02*
X1764Y871D01*
X439Y870D02*
X513Y870D01*
X1156Y870D02*
X1212Y870D01*
X1235Y870D02*
X1291Y870D01*
X1314Y870D02*
X1370Y870D01*
X1392Y870D02*
X1449Y870D01*
X1471Y870D02*
X1527Y870D01*
X1550Y870D02*
X1606Y870D01*
X1626Y870D02*
X1683Y870D01*
X1707Y870D02*
X1764Y870D01*
X439Y869D02*
X513Y869D01*
X1156Y869D02*
X1212Y869D01*
X1235Y869D02*
X1291Y869D01*
X1314Y869D02*
X1370Y869D01*
X1392Y869D02*
X1449Y869D01*
X1471Y869D02*
X1527Y869D01*
X1550Y869D02*
X1606Y869D01*
X1626Y869D02*
X1683Y869D01*
X1707Y869D02*
X1764Y869D01*
X439Y868D02*
X513Y868D01*
X1156Y868D02*
X1212Y868D01*
X1235Y868D02*
X1291Y868D01*
X1314Y868D02*
X1370Y868D01*
X1392Y868D02*
X1449Y868D01*
X1471Y868D02*
X1527Y868D01*
X1550Y868D02*
X1606Y868D01*
X1626Y868D02*
X1683Y868D01*
X1707Y868D02*
X1764Y868D01*
X439Y867D02*
X513Y867D01*
X1156Y867D02*
X1212Y867D01*
X1235Y867D02*
X1291Y867D01*
X1314Y867D02*
X1370Y867D01*
X1392Y867D02*
X1448Y867D01*
X1471Y867D02*
X1527Y867D01*
X1550Y867D02*
X1606Y867D01*
X1626Y867D02*
X1682Y867D01*
X1707Y867D02*
X1763Y867D01*
X439Y866D02*
X513Y866D01*
X439Y865D02*
X513Y865D01*
X439Y864D02*
X513Y864D01*
X439Y863D02*
X513Y863D01*
X439Y862D02*
X513Y862D01*
X439Y861D02*
X513Y861D01*
X439Y860D02*
X513Y860D01*
X439Y859D02*
X513Y859D01*
X439Y858D02*
X513Y858D01*
X439Y857D02*
X513Y857D01*
X439Y856D02*
X513Y856D01*
X439Y855D02*
X513Y855D01*
X439Y854D02*
X513Y854D01*
X439Y853D02*
X513Y853D01*
X439Y852D02*
X513Y852D01*
X439Y851D02*
X513Y851D01*
X439Y850D02*
X513Y850D01*
X439Y849D02*
X472Y849D01*
X480Y849D02*
X513Y849D01*
X439Y848D02*
X470Y848D01*
X482Y848D02*
X513Y848D01*
X439Y847D02*
X469Y847D01*
X483Y847D02*
X513Y847D01*
X439Y846D02*
X468Y846D01*
X483Y846D02*
X513Y846D01*
X439Y845D02*
X467Y845D01*
X484Y845D02*
X513Y845D01*
X439Y844D02*
X467Y844D01*
X484Y844D02*
X513Y844D01*
X439Y843D02*
X467Y843D01*
X485Y843D02*
X513Y843D01*
X439Y842D02*
X466Y842D01*
X485Y842D02*
X513Y842D01*
X439Y841D02*
X466Y841D01*
X485Y841D02*
X513Y841D01*
X439Y840D02*
X466Y840D01*
X485Y840D02*
X513Y840D01*
X439Y839D02*
X467Y839D01*
X485Y839D02*
X513Y839D01*
X439Y838D02*
X467Y838D01*
X485Y838D02*
X513Y838D01*
X439Y837D02*
X467Y837D01*
X484Y837D02*
X513Y837D01*
X439Y836D02*
X468Y836D01*
X484Y836D02*
X513Y836D01*
X439Y835D02*
X469Y835D01*
X483Y835D02*
X513Y835D01*
X439Y834D02*
X470Y834D01*
X482Y834D02*
X513Y834D01*
X439Y833D02*
X471Y833D01*
X480Y833D02*
X513Y833D01*
X439Y832D02*
X513Y832D01*
X439Y831D02*
X513Y831D01*
X439Y830D02*
X513Y830D01*
X439Y829D02*
X513Y829D01*
X439Y828D02*
X513Y828D01*
X439Y827D02*
X513Y827D01*
X439Y826D02*
X513Y826D01*
X439Y825D02*
X513Y825D01*
X439Y824D02*
X513Y824D01*
X439Y823D02*
X513Y823D01*
X439Y822D02*
X513Y822D01*
X439Y821D02*
X513Y821D01*
X439Y820D02*
X513Y820D01*
X439Y819D02*
X513Y819D01*
X439Y818D02*
X513Y818D01*
X439Y817D02*
X513Y817D01*
X439Y816D02*
X513Y816D01*
X439Y815D02*
X513Y815D01*
X439Y814D02*
X513Y814D01*
X439Y813D02*
X513Y813D01*
X439Y812D02*
X513Y812D01*
X439Y811D02*
X513Y811D01*
X439Y810D02*
X513Y810D01*
X439Y809D02*
X513Y809D01*
X439Y808D02*
X513Y808D01*
X439Y807D02*
X513Y807D01*
X439Y806D02*
X513Y806D01*
X439Y805D02*
X513Y805D01*
X439Y804D02*
X513Y804D01*
X1156Y345D02*
X1212Y345D01*
X1235Y345D02*
X1291Y345D01*
X1314Y345D02*
X1370Y345D01*
X1392Y345D02*
X1449Y345D01*
X1471Y345D02*
X1527Y345D01*
X1550Y345D02*
X1606Y345D01*
X1626Y345D02*
X1682Y345D01*
X1707Y345D02*
X1764Y345D01*
X1156Y344D02*
X1212Y344D01*
X1235Y344D02*
X1291Y344D01*
X1314Y344D02*
X1370Y344D01*
X1392Y344D02*
X1449Y344D01*
X1471Y344D02*
X1527Y344D01*
X1550Y344D02*
X1606Y344D01*
X1626Y344D02*
X1683Y344D01*
X1707Y344D02*
X1764Y344D01*
X1156Y343D02*
X1212Y343D01*
X1235Y343D02*
X1291Y343D01*
X1314Y343D02*
X1370Y343D01*
X1392Y343D02*
X1449Y343D01*
X1471Y343D02*
X1527Y343D01*
X1550Y343D02*
X1606Y343D01*
X1626Y343D02*
X1683Y343D01*
X1707Y343D02*
X1764Y343D01*
X1156Y342D02*
X1212Y342D01*
X1235Y342D02*
X1291Y342D01*
X1314Y342D02*
X1370Y342D01*
X1392Y342D02*
X1449Y342D01*
X1471Y342D02*
X1527Y342D01*
X1550Y342D02*
X1606Y342D01*
X1626Y342D02*
X1683Y342D01*
X1707Y342D02*
X1764Y342D01*
X1156Y341D02*
X1212Y341D01*
X1235Y341D02*
X1291Y341D01*
X1314Y341D02*
X1370Y341D01*
X1392Y341D02*
X1449Y341D01*
X1471Y341D02*
X1527Y341D01*
X1550Y341D02*
X1606Y341D01*
X1626Y341D02*
X1683Y341D01*
X1707Y341D02*
X1764Y341D01*
X1156Y340D02*
X1212Y340D01*
X1235Y340D02*
X1291Y340D01*
X1314Y340D02*
X1370Y340D01*
X1392Y340D02*
X1449Y340D01*
X1471Y340D02*
X1527Y340D01*
X1550Y340D02*
X1606Y340D01*
X1626Y340D02*
X1683Y340D01*
X1707Y340D02*
X1764Y340D01*
X1156Y339D02*
X1212Y339D01*
X1235Y339D02*
X1291Y339D01*
X1314Y339D02*
X1370Y339D01*
X1392Y339D02*
X1449Y339D01*
X1471Y339D02*
X1527Y339D01*
X1550Y339D02*
X1606Y339D01*
X1626Y339D02*
X1683Y339D01*
X1707Y339D02*
X1764Y339D01*
X1156Y338D02*
X1212Y338D01*
X1235Y338D02*
X1291Y338D01*
X1314Y338D02*
X1370Y338D01*
X1392Y338D02*
X1449Y338D01*
X1471Y338D02*
X1527Y338D01*
X1550Y338D02*
X1606Y338D01*
X1626Y338D02*
X1683Y338D01*
X1707Y338D02*
X1764Y338D01*
X1156Y337D02*
X1212Y337D01*
X1235Y337D02*
X1291Y337D01*
X1314Y337D02*
X1370Y337D01*
X1392Y337D02*
X1449Y337D01*
X1471Y337D02*
X1527Y337D01*
X1550Y337D02*
X1606Y337D01*
X1626Y337D02*
X1683Y337D01*
X1707Y337D02*
X1764Y337D01*
X1156Y336D02*
X1212Y336D01*
X1235Y336D02*
X1291Y336D01*
X1314Y336D02*
X1370Y336D01*
X1392Y336D02*
X1449Y336D01*
X1471Y336D02*
X1527Y336D01*
X1550Y336D02*
X1606Y336D01*
X1626Y336D02*
X1683Y336D01*
X1707Y336D02*
X1764Y336D01*
X1156Y335D02*
X1212Y335D01*
X1235Y335D02*
X1291Y335D01*
X1314Y335D02*
X1370Y335D01*
X1392Y335D02*
X1449Y335D01*
X1471Y335D02*
X1527Y335D01*
X1550Y335D02*
X1606Y335D01*
X1626Y335D02*
X1683Y335D01*
X1707Y335D02*
X1764Y335D01*
X1156Y334D02*
X1212Y334D01*
X1235Y334D02*
X1291Y334D01*
X1314Y334D02*
X1370Y334D01*
X1392Y334D02*
X1449Y334D01*
X1471Y334D02*
X1527Y334D01*
X1550Y334D02*
X1606Y334D01*
X1626Y334D02*
X1683Y334D01*
X1707Y334D02*
X1764Y334D01*
X1156Y333D02*
X1212Y333D01*
X1235Y333D02*
X1291Y333D01*
X1314Y333D02*
X1370Y333D01*
X1392Y333D02*
X1449Y333D01*
X1471Y333D02*
X1527Y333D01*
X1550Y333D02*
X1606Y333D01*
X1626Y333D02*
X1683Y333D01*
X1707Y333D02*
X1764Y333D01*
X1156Y332D02*
X1212Y332D01*
X1235Y332D02*
X1291Y332D01*
X1314Y332D02*
X1370Y332D01*
X1392Y332D02*
X1449Y332D01*
X1471Y332D02*
X1527Y332D01*
X1550Y332D02*
X1606Y332D01*
X1626Y332D02*
X1683Y332D01*
X1707Y332D02*
X1764Y332D01*
X1156Y331D02*
X1212Y331D01*
X1235Y331D02*
X1291Y331D01*
X1314Y331D02*
X1370Y331D01*
X1392Y331D02*
X1449Y331D01*
X1471Y331D02*
X1527Y331D01*
X1550Y331D02*
X1606Y331D01*
X1626Y331D02*
X1683Y331D01*
X1707Y331D02*
X1764Y331D01*
X1156Y330D02*
X1212Y330D01*
X1235Y330D02*
X1291Y330D01*
X1314Y330D02*
X1370Y330D01*
X1392Y330D02*
X1449Y330D01*
X1471Y330D02*
X1527Y330D01*
X1550Y330D02*
X1606Y330D01*
X1626Y330D02*
X1683Y330D01*
X1707Y330D02*
X1764Y330D01*
X1156Y329D02*
X1212Y329D01*
X1235Y329D02*
X1291Y329D01*
X1314Y329D02*
X1370Y329D01*
X1392Y329D02*
X1449Y329D01*
X1471Y329D02*
X1527Y329D01*
X1550Y329D02*
X1606Y329D01*
X1626Y329D02*
X1683Y329D01*
X1707Y329D02*
X1764Y329D01*
X1156Y328D02*
X1212Y328D01*
X1235Y328D02*
X1291Y328D01*
X1314Y328D02*
X1370Y328D01*
X1392Y328D02*
X1449Y328D01*
X1471Y328D02*
X1527Y328D01*
X1550Y328D02*
X1606Y328D01*
X1626Y328D02*
X1683Y328D01*
X1707Y328D02*
X1764Y328D01*
X1156Y327D02*
X1182Y327D01*
X1187Y327D02*
X1212Y327D01*
X1235Y327D02*
X1261Y327D01*
X1265Y327D02*
X1291Y327D01*
X1314Y327D02*
X1339Y327D01*
X1344Y327D02*
X1370Y327D01*
X1392Y327D02*
X1418Y327D01*
X1423Y327D02*
X1449Y327D01*
X1471Y327D02*
X1497Y327D01*
X1502Y327D02*
X1527Y327D01*
X1550Y327D02*
X1576Y327D01*
X1580Y327D02*
X1606Y327D01*
X1626Y327D02*
X1652Y327D01*
X1657Y327D02*
X1683Y327D01*
X1707Y327D02*
X1733Y327D01*
X1738Y327D02*
X1764Y327D01*
X1156Y326D02*
X1180Y326D01*
X1189Y326D02*
X1212Y326D01*
X1235Y326D02*
X1259Y326D01*
X1268Y326D02*
X1291Y326D01*
X1314Y326D02*
X1337Y326D01*
X1346Y326D02*
X1370Y326D01*
X1392Y326D02*
X1416Y326D01*
X1425Y326D02*
X1449Y326D01*
X1471Y326D02*
X1495Y326D01*
X1504Y326D02*
X1527Y326D01*
X1550Y326D02*
X1573Y326D01*
X1582Y326D02*
X1606Y326D01*
X1626Y326D02*
X1650Y326D01*
X1659Y326D02*
X1683Y326D01*
X1707Y326D02*
X1731Y326D01*
X1740Y326D02*
X1764Y326D01*
X1156Y325D02*
X1179Y325D01*
X1190Y325D02*
X1212Y325D01*
X1235Y325D02*
X1258Y325D01*
X1269Y325D02*
X1291Y325D01*
X1314Y325D02*
X1336Y325D01*
X1348Y325D02*
X1370Y325D01*
X1392Y325D02*
X1415Y325D01*
X1426Y325D02*
X1449Y325D01*
X1471Y325D02*
X1494Y325D01*
X1505Y325D02*
X1527Y325D01*
X1550Y325D02*
X1572Y325D01*
X1584Y325D02*
X1606Y325D01*
X1626Y325D02*
X1649Y325D01*
X1660Y325D02*
X1683Y325D01*
X1707Y325D02*
X1730Y325D01*
X1741Y325D02*
X1764Y325D01*
X1156Y324D02*
X1178Y324D01*
X1191Y324D02*
X1212Y324D01*
X1235Y324D02*
X1257Y324D01*
X1270Y324D02*
X1291Y324D01*
X1314Y324D02*
X1335Y324D01*
X1348Y324D02*
X1370Y324D01*
X1392Y324D02*
X1414Y324D01*
X1427Y324D02*
X1449Y324D01*
X1471Y324D02*
X1493Y324D01*
X1506Y324D02*
X1527Y324D01*
X1550Y324D02*
X1571Y324D01*
X1584Y324D02*
X1606Y324D01*
X1626Y324D02*
X1648Y324D01*
X1661Y324D02*
X1683Y324D01*
X1707Y324D02*
X1729Y324D01*
X1742Y324D02*
X1764Y324D01*
X1156Y323D02*
X1177Y323D01*
X1191Y323D02*
X1212Y323D01*
X1235Y323D02*
X1256Y323D01*
X1270Y323D02*
X1291Y323D01*
X1314Y323D02*
X1335Y323D01*
X1349Y323D02*
X1370Y323D01*
X1392Y323D02*
X1413Y323D01*
X1428Y323D02*
X1449Y323D01*
X1471Y323D02*
X1492Y323D01*
X1506Y323D02*
X1527Y323D01*
X1550Y323D02*
X1571Y323D01*
X1585Y323D02*
X1606Y323D01*
X1626Y323D02*
X1647Y323D01*
X1662Y323D02*
X1683Y323D01*
X1707Y323D02*
X1728Y323D01*
X1743Y323D02*
X1764Y323D01*
X1156Y322D02*
X1177Y322D01*
X1192Y322D02*
X1212Y322D01*
X1235Y322D02*
X1256Y322D01*
X1271Y322D02*
X1291Y322D01*
X1314Y322D02*
X1334Y322D01*
X1349Y322D02*
X1370Y322D01*
X1392Y322D02*
X1413Y322D01*
X1428Y322D02*
X1449Y322D01*
X1471Y322D02*
X1492Y322D01*
X1507Y322D02*
X1527Y322D01*
X1550Y322D02*
X1571Y322D01*
X1585Y322D02*
X1606Y322D01*
X1626Y322D02*
X1647Y322D01*
X1662Y322D02*
X1683Y322D01*
X1707Y322D02*
X1728Y322D01*
X1743Y322D02*
X1764Y322D01*
X1156Y321D02*
X1177Y321D01*
X1192Y321D02*
X1212Y321D01*
X1235Y321D02*
X1256Y321D01*
X1271Y321D02*
X1291Y321D01*
X1314Y321D02*
X1334Y321D01*
X1349Y321D02*
X1370Y321D01*
X1392Y321D02*
X1413Y321D01*
X1428Y321D02*
X1449Y321D01*
X1471Y321D02*
X1492Y321D01*
X1507Y321D02*
X1527Y321D01*
X1550Y321D02*
X1570Y321D01*
X1586Y321D02*
X1606Y321D01*
X1626Y321D02*
X1647Y321D01*
X1662Y321D02*
X1683Y321D01*
X1707Y321D02*
X1728Y321D01*
X1743Y321D02*
X1764Y321D01*
X1156Y320D02*
X1177Y320D01*
X1192Y320D02*
X1212Y320D01*
X1235Y320D02*
X1256Y320D01*
X1271Y320D02*
X1291Y320D01*
X1314Y320D02*
X1334Y320D01*
X1350Y320D02*
X1370Y320D01*
X1392Y320D02*
X1413Y320D01*
X1428Y320D02*
X1449Y320D01*
X1471Y320D02*
X1492Y320D01*
X1507Y320D02*
X1527Y320D01*
X1550Y320D02*
X1570Y320D01*
X1586Y320D02*
X1606Y320D01*
X1626Y320D02*
X1647Y320D01*
X1662Y320D02*
X1683Y320D01*
X1707Y320D02*
X1728Y320D01*
X1743Y320D02*
X1764Y320D01*
X1156Y319D02*
X1177Y319D01*
X1192Y319D02*
X1212Y319D01*
X1235Y319D02*
X1256Y319D01*
X1271Y319D02*
X1291Y319D01*
X1314Y319D02*
X1334Y319D01*
X1349Y319D02*
X1370Y319D01*
X1392Y319D02*
X1413Y319D01*
X1428Y319D02*
X1449Y319D01*
X1471Y319D02*
X1492Y319D01*
X1507Y319D02*
X1527Y319D01*
X1550Y319D02*
X1570Y319D01*
X1586Y319D02*
X1606Y319D01*
X1626Y319D02*
X1647Y319D01*
X1662Y319D02*
X1683Y319D01*
X1707Y319D02*
X1728Y319D01*
X1743Y319D02*
X1764Y319D01*
X1156Y318D02*
X1177Y318D01*
X1192Y318D02*
X1212Y318D01*
X1235Y318D02*
X1256Y318D01*
X1271Y318D02*
X1291Y318D01*
X1314Y318D02*
X1335Y318D01*
X1349Y318D02*
X1370Y318D01*
X1392Y318D02*
X1413Y318D01*
X1428Y318D02*
X1449Y318D01*
X1471Y318D02*
X1492Y318D01*
X1507Y318D02*
X1527Y318D01*
X1550Y318D02*
X1571Y318D01*
X1585Y318D02*
X1606Y318D01*
X1626Y318D02*
X1647Y318D01*
X1662Y318D02*
X1683Y318D01*
X1707Y318D02*
X1728Y318D01*
X1743Y318D02*
X1764Y318D01*
X1156Y317D02*
X1177Y317D01*
X1191Y317D02*
X1212Y317D01*
X1235Y317D02*
X1256Y317D01*
X1270Y317D02*
X1291Y317D01*
X1314Y317D02*
X1335Y317D01*
X1349Y317D02*
X1370Y317D01*
X1392Y317D02*
X1414Y317D01*
X1428Y317D02*
X1449Y317D01*
X1471Y317D02*
X1492Y317D01*
X1506Y317D02*
X1527Y317D01*
X1550Y317D02*
X1571Y317D01*
X1585Y317D02*
X1606Y317D01*
X1626Y317D02*
X1647Y317D01*
X1661Y317D02*
X1683Y317D01*
X1707Y317D02*
X1728Y317D01*
X1742Y317D02*
X1764Y317D01*
X1156Y316D02*
X1178Y316D01*
X1191Y316D02*
X1212Y316D01*
X1235Y316D02*
X1257Y316D01*
X1270Y316D02*
X1291Y316D01*
X1314Y316D02*
X1336Y316D01*
X1348Y316D02*
X1370Y316D01*
X1392Y316D02*
X1414Y316D01*
X1427Y316D02*
X1449Y316D01*
X1471Y316D02*
X1493Y316D01*
X1506Y316D02*
X1527Y316D01*
X1550Y316D02*
X1572Y316D01*
X1584Y316D02*
X1606Y316D01*
X1626Y316D02*
X1648Y316D01*
X1661Y316D02*
X1683Y316D01*
X1707Y316D02*
X1729Y316D01*
X1742Y316D02*
X1764Y316D01*
X1156Y315D02*
X1179Y315D01*
X1190Y315D02*
X1212Y315D01*
X1235Y315D02*
X1258Y315D01*
X1269Y315D02*
X1291Y315D01*
X1314Y315D02*
X1336Y315D01*
X1347Y315D02*
X1370Y315D01*
X1392Y315D02*
X1415Y315D01*
X1426Y315D02*
X1449Y315D01*
X1471Y315D02*
X1494Y315D01*
X1505Y315D02*
X1527Y315D01*
X1550Y315D02*
X1572Y315D01*
X1583Y315D02*
X1606Y315D01*
X1626Y315D02*
X1649Y315D01*
X1660Y315D02*
X1683Y315D01*
X1707Y315D02*
X1730Y315D01*
X1741Y315D02*
X1764Y315D01*
X1156Y314D02*
X1180Y314D01*
X1189Y314D02*
X1212Y314D01*
X1235Y314D02*
X1259Y314D01*
X1267Y314D02*
X1291Y314D01*
X1314Y314D02*
X1338Y314D01*
X1346Y314D02*
X1370Y314D01*
X1392Y314D02*
X1416Y314D01*
X1425Y314D02*
X1449Y314D01*
X1471Y314D02*
X1495Y314D01*
X1504Y314D02*
X1527Y314D01*
X1550Y314D02*
X1574Y314D01*
X1582Y314D02*
X1606Y314D01*
X1626Y314D02*
X1650Y314D01*
X1659Y314D02*
X1683Y314D01*
X1707Y314D02*
X1731Y314D01*
X1740Y314D02*
X1764Y314D01*
X1156Y313D02*
X1183Y313D01*
X1186Y313D02*
X1212Y313D01*
X1235Y313D02*
X1261Y313D01*
X1265Y313D02*
X1291Y313D01*
X1314Y313D02*
X1341Y313D01*
X1343Y313D02*
X1370Y313D01*
X1392Y313D02*
X1449Y313D01*
X1471Y313D02*
X1498Y313D01*
X1500Y313D02*
X1527Y313D01*
X1550Y313D02*
X1576Y313D01*
X1580Y313D02*
X1606Y313D01*
X1626Y313D02*
X1653Y313D01*
X1656Y313D02*
X1683Y313D01*
X1707Y313D02*
X1764Y313D01*
X1156Y312D02*
X1212Y312D01*
X1235Y312D02*
X1291Y312D01*
X1314Y312D02*
X1370Y312D01*
X1392Y312D02*
X1449Y312D01*
X1471Y312D02*
X1527Y312D01*
X1550Y312D02*
X1606Y312D01*
X1626Y312D02*
X1683Y312D01*
X1707Y312D02*
X1764Y312D01*
X1156Y311D02*
X1212Y311D01*
X1235Y311D02*
X1291Y311D01*
X1314Y311D02*
X1370Y311D01*
X1392Y311D02*
X1449Y311D01*
X1471Y311D02*
X1527Y311D01*
X1550Y311D02*
X1606Y311D01*
X1626Y311D02*
X1683Y311D01*
X1707Y311D02*
X1764Y311D01*
X1156Y310D02*
X1212Y310D01*
X1235Y310D02*
X1291Y310D01*
X1314Y310D02*
X1370Y310D01*
X1392Y310D02*
X1449Y310D01*
X1471Y310D02*
X1527Y310D01*
X1550Y310D02*
X1606Y310D01*
X1626Y310D02*
X1683Y310D01*
X1707Y310D02*
X1764Y310D01*
X1156Y309D02*
X1212Y309D01*
X1235Y309D02*
X1291Y309D01*
X1314Y309D02*
X1370Y309D01*
X1392Y309D02*
X1449Y309D01*
X1471Y309D02*
X1527Y309D01*
X1550Y309D02*
X1606Y309D01*
X1626Y309D02*
X1683Y309D01*
X1707Y309D02*
X1764Y309D01*
X1156Y308D02*
X1212Y308D01*
X1235Y308D02*
X1291Y308D01*
X1314Y308D02*
X1370Y308D01*
X1392Y308D02*
X1449Y308D01*
X1471Y308D02*
X1527Y308D01*
X1550Y308D02*
X1606Y308D01*
X1626Y308D02*
X1683Y308D01*
X1707Y308D02*
X1764Y308D01*
X1156Y307D02*
X1212Y307D01*
X1235Y307D02*
X1291Y307D01*
X1314Y307D02*
X1370Y307D01*
X1392Y307D02*
X1449Y307D01*
X1471Y307D02*
X1527Y307D01*
X1550Y307D02*
X1606Y307D01*
X1626Y307D02*
X1683Y307D01*
X1707Y307D02*
X1764Y307D01*
X1156Y306D02*
X1212Y306D01*
X1235Y306D02*
X1291Y306D01*
X1314Y306D02*
X1370Y306D01*
X1392Y306D02*
X1449Y306D01*
X1471Y306D02*
X1527Y306D01*
X1550Y306D02*
X1606Y306D01*
X1626Y306D02*
X1683Y306D01*
X1707Y306D02*
X1764Y306D01*
X1156Y305D02*
X1212Y305D01*
X1235Y305D02*
X1291Y305D01*
X1314Y305D02*
X1370Y305D01*
X1392Y305D02*
X1449Y305D01*
X1471Y305D02*
X1527Y305D01*
X1550Y305D02*
X1606Y305D01*
X1626Y305D02*
X1683Y305D01*
X1707Y305D02*
X1764Y305D01*
X1156Y304D02*
X1212Y304D01*
X1235Y304D02*
X1291Y304D01*
X1314Y304D02*
X1370Y304D01*
X1392Y304D02*
X1449Y304D01*
X1471Y304D02*
X1527Y304D01*
X1550Y304D02*
X1606Y304D01*
X1626Y304D02*
X1683Y304D01*
X1707Y304D02*
X1764Y304D01*
X1156Y303D02*
X1212Y303D01*
X1235Y303D02*
X1291Y303D01*
X1314Y303D02*
X1370Y303D01*
X1392Y303D02*
X1449Y303D01*
X1471Y303D02*
X1527Y303D01*
X1550Y303D02*
X1606Y303D01*
X1626Y303D02*
X1683Y303D01*
X1707Y303D02*
X1764Y303D01*
X1156Y302D02*
X1212Y302D01*
X1235Y302D02*
X1291Y302D01*
X1314Y302D02*
X1370Y302D01*
X1392Y302D02*
X1449Y302D01*
X1471Y302D02*
X1527Y302D01*
X1550Y302D02*
X1606Y302D01*
X1626Y302D02*
X1683Y302D01*
X1707Y302D02*
X1764Y302D01*
X1156Y301D02*
X1212Y301D01*
X1235Y301D02*
X1291Y301D01*
X1314Y301D02*
X1370Y301D01*
X1392Y301D02*
X1449Y301D01*
X1471Y301D02*
X1527Y301D01*
X1550Y301D02*
X1606Y301D01*
X1626Y301D02*
X1683Y301D01*
X1707Y301D02*
X1764Y301D01*
X1156Y300D02*
X1212Y300D01*
X1235Y300D02*
X1291Y300D01*
X1314Y300D02*
X1370Y300D01*
X1392Y300D02*
X1449Y300D01*
X1471Y300D02*
X1527Y300D01*
X1550Y300D02*
X1606Y300D01*
X1626Y300D02*
X1683Y300D01*
X1707Y300D02*
X1764Y300D01*
X1156Y299D02*
X1212Y299D01*
X1235Y299D02*
X1291Y299D01*
X1314Y299D02*
X1370Y299D01*
X1392Y299D02*
X1449Y299D01*
X1471Y299D02*
X1527Y299D01*
X1550Y299D02*
X1606Y299D01*
X1626Y299D02*
X1683Y299D01*
X1707Y299D02*
X1764Y299D01*
X1156Y298D02*
X1212Y298D01*
X1235Y298D02*
X1291Y298D01*
X1314Y298D02*
X1370Y298D01*
X1392Y298D02*
X1449Y298D01*
X1471Y298D02*
X1527Y298D01*
X1550Y298D02*
X1606Y298D01*
X1626Y298D02*
X1683Y298D01*
X1707Y298D02*
X1764Y298D01*
X1156Y297D02*
X1212Y297D01*
X1235Y297D02*
X1291Y297D01*
X1314Y297D02*
X1370Y297D01*
X1392Y297D02*
X1449Y297D01*
X1471Y297D02*
X1527Y297D01*
X1550Y297D02*
X1606Y297D01*
X1626Y297D02*
X1683Y297D01*
X1707Y297D02*
X1764Y297D01*
X1156Y296D02*
X1212Y296D01*
X1235Y296D02*
X1291Y296D01*
X1314Y296D02*
X1370Y296D01*
X1392Y296D02*
X1449Y296D01*
X1471Y296D02*
X1527Y296D01*
X1550Y296D02*
X1606Y296D01*
X1626Y296D02*
X1683Y296D01*
X1707Y296D02*
X1764Y296D01*
X1156Y295D02*
X1212Y295D01*
X1235Y295D02*
X1291Y295D01*
X1314Y295D02*
X1370Y295D01*
X1392Y295D02*
X1449Y295D01*
X1471Y295D02*
X1527Y295D01*
X1550Y295D02*
X1606Y295D01*
X1626Y295D02*
X1683Y295D01*
X1707Y295D02*
X1764Y295D01*
X1156Y294D02*
X1212Y294D01*
X1235Y294D02*
X1291Y294D01*
X1314Y294D02*
X1370Y294D01*
X1392Y294D02*
X1449Y294D01*
X1471Y294D02*
X1527Y294D01*
X1550Y294D02*
X1606Y294D01*
X1626Y294D02*
X1683Y294D01*
X1707Y294D02*
X1764Y294D01*
X1156Y293D02*
X1212Y293D01*
X1235Y293D02*
X1291Y293D01*
X1314Y293D02*
X1370Y293D01*
X1392Y293D02*
X1449Y293D01*
X1471Y293D02*
X1527Y293D01*
X1550Y293D02*
X1606Y293D01*
X1626Y293D02*
X1683Y293D01*
X1707Y293D02*
X1764Y293D01*
X1156Y292D02*
X1212Y292D01*
X1235Y292D02*
X1291Y292D01*
X1314Y292D02*
X1370Y292D01*
X1392Y292D02*
X1449Y292D01*
X1471Y292D02*
X1527Y292D01*
X1550Y292D02*
X1606Y292D01*
X1626Y292D02*
X1683Y292D01*
X1707Y292D02*
X1764Y292D01*
X1156Y291D02*
X1212Y291D01*
X1235Y291D02*
X1291Y291D01*
X1314Y291D02*
X1370Y291D01*
X1392Y291D02*
X1449Y291D01*
X1471Y291D02*
X1527Y291D01*
X1550Y291D02*
X1606Y291D01*
X1626Y291D02*
X1683Y291D01*
X1707Y291D02*
X1764Y291D01*
X1156Y290D02*
X1212Y290D01*
X1235Y290D02*
X1291Y290D01*
X1314Y290D02*
X1370Y290D01*
X1392Y290D02*
X1449Y290D01*
X1471Y290D02*
X1527Y290D01*
X1550Y290D02*
X1606Y290D01*
X1626Y290D02*
X1683Y290D01*
X1707Y290D02*
X1764Y290D01*
X1156Y289D02*
X1212Y289D01*
X1235Y289D02*
X1291Y289D01*
X1314Y289D02*
X1370Y289D01*
X1392Y289D02*
X1449Y289D01*
X1471Y289D02*
X1527Y289D01*
X1550Y289D02*
X1606Y289D01*
X1626Y289D02*
X1683Y289D01*
X1707Y289D02*
X1764Y289D01*
X1156Y288D02*
X1212Y288D01*
X1235Y288D02*
X1291Y288D01*
X1314Y288D02*
X1370Y288D01*
X1392Y288D02*
X1449Y288D01*
X1471Y288D02*
X1527Y288D01*
X1550Y288D02*
X1606Y288D01*
X1626Y288D02*
X1683Y288D01*
X1707Y288D02*
X1764Y288D01*
X1156Y287D02*
X1212Y287D01*
X1235Y287D02*
X1291Y287D01*
X1314Y287D02*
X1370Y287D01*
X1392Y287D02*
X1449Y287D01*
X1471Y287D02*
X1527Y287D01*
X1550Y287D02*
X1606Y287D01*
X1626Y287D02*
X1683Y287D01*
X1707Y287D02*
X1764Y287D01*
X1156Y286D02*
X1212Y286D01*
X1235Y286D02*
X1291Y286D01*
X1314Y286D02*
X1370Y286D01*
X1392Y286D02*
X1449Y286D01*
X1471Y286D02*
X1527Y286D01*
X1550Y286D02*
X1606Y286D01*
X1626Y286D02*
X1683Y286D01*
X1707Y286D02*
X1764Y286D01*
X1156Y285D02*
X1212Y285D01*
X1235Y285D02*
X1291Y285D01*
X1314Y285D02*
X1370Y285D01*
X1392Y285D02*
X1449Y285D01*
X1471Y285D02*
X1527Y285D01*
X1550Y285D02*
X1606Y285D01*
X1626Y285D02*
X1683Y285D01*
X1707Y285D02*
X1764Y285D01*
X1156Y284D02*
X1212Y284D01*
X1235Y284D02*
X1291Y284D01*
X1314Y284D02*
X1370Y284D01*
X1392Y284D02*
X1449Y284D01*
X1471Y284D02*
X1527Y284D01*
X1550Y284D02*
X1606Y284D01*
X1626Y284D02*
X1683Y284D01*
X1707Y284D02*
X1764Y284D01*
X1156Y283D02*
X1212Y283D01*
X1235Y283D02*
X1291Y283D01*
X1314Y283D02*
X1370Y283D01*
X1392Y283D02*
X1449Y283D01*
X1471Y283D02*
X1527Y283D01*
X1550Y283D02*
X1606Y283D01*
X1626Y283D02*
X1683Y283D01*
X1707Y283D02*
X1764Y283D01*
X1156Y282D02*
X1212Y282D01*
X1235Y282D02*
X1291Y282D01*
X1314Y282D02*
X1370Y282D01*
X1392Y282D02*
X1449Y282D01*
X1471Y282D02*
X1527Y282D01*
X1550Y282D02*
X1606Y282D01*
X1626Y282D02*
X1683Y282D01*
X1707Y282D02*
X1764Y282D01*
X1156Y281D02*
X1212Y281D01*
X1235Y281D02*
X1291Y281D01*
X1314Y281D02*
X1370Y281D01*
X1392Y281D02*
X1449Y281D01*
X1471Y281D02*
X1527Y281D01*
X1550Y281D02*
X1606Y281D01*
X1626Y281D02*
X1683Y281D01*
X1707Y281D02*
X1764Y281D01*
X1156Y280D02*
X1212Y280D01*
X1235Y280D02*
X1291Y280D01*
X1314Y280D02*
X1370Y280D01*
X1392Y280D02*
X1449Y280D01*
X1471Y280D02*
X1527Y280D01*
X1550Y280D02*
X1606Y280D01*
X1626Y280D02*
X1683Y280D01*
X1707Y280D02*
X1764Y280D01*
X1156Y279D02*
X1212Y279D01*
X1235Y279D02*
X1291Y279D01*
X1314Y279D02*
X1370Y279D01*
X1392Y279D02*
X1449Y279D01*
X1471Y279D02*
X1527Y279D01*
X1550Y279D02*
X1606Y279D01*
X1626Y279D02*
X1683Y279D01*
X1707Y279D02*
X1764Y279D01*
X1156Y278D02*
X1212Y278D01*
X1235Y278D02*
X1291Y278D01*
X1314Y278D02*
X1370Y278D01*
X1392Y278D02*
X1449Y278D01*
X1471Y278D02*
X1527Y278D01*
X1550Y278D02*
X1606Y278D01*
X1626Y278D02*
X1683Y278D01*
X1707Y278D02*
X1764Y278D01*
X1156Y277D02*
X1212Y277D01*
X1235Y277D02*
X1291Y277D01*
X1314Y277D02*
X1370Y277D01*
X1392Y277D02*
X1449Y277D01*
X1471Y277D02*
X1527Y277D01*
X1550Y277D02*
X1606Y277D01*
X1626Y277D02*
X1683Y277D01*
X1707Y277D02*
X1764Y277D01*
X1156Y276D02*
X1212Y276D01*
X1235Y276D02*
X1291Y276D01*
X1314Y276D02*
X1370Y276D01*
X1392Y276D02*
X1449Y276D01*
X1471Y276D02*
X1527Y276D01*
X1550Y276D02*
X1606Y276D01*
X1626Y276D02*
X1683Y276D01*
X1707Y276D02*
X1764Y276D01*
X1156Y275D02*
X1212Y275D01*
X1235Y275D02*
X1291Y275D01*
X1314Y275D02*
X1370Y275D01*
X1392Y275D02*
X1449Y275D01*
X1471Y275D02*
X1527Y275D01*
X1550Y275D02*
X1606Y275D01*
X1626Y275D02*
X1683Y275D01*
X1707Y275D02*
X1764Y275D01*
X1156Y274D02*
X1212Y274D01*
X1235Y274D02*
X1291Y274D01*
X1314Y274D02*
X1370Y274D01*
X1392Y274D02*
X1449Y274D01*
X1471Y274D02*
X1527Y274D01*
X1550Y274D02*
X1606Y274D01*
X1626Y274D02*
X1683Y274D01*
X1707Y274D02*
X1764Y274D01*
X1156Y273D02*
X1212Y273D01*
X1235Y273D02*
X1291Y273D01*
X1314Y273D02*
X1370Y273D01*
X1392Y273D02*
X1449Y273D01*
X1471Y273D02*
X1527Y273D01*
X1550Y273D02*
X1606Y273D01*
X1626Y273D02*
X1683Y273D01*
X1707Y273D02*
X1764Y273D01*
X1156Y272D02*
X1212Y272D01*
X1235Y272D02*
X1291Y272D01*
X1314Y272D02*
X1370Y272D01*
X1392Y272D02*
X1449Y272D01*
X1471Y272D02*
X1527Y272D01*
X1550Y272D02*
X1606Y272D01*
X1626Y272D02*
X1683Y272D01*
X1707Y272D02*
X1764Y272D01*
X1156Y271D02*
X1212Y271D01*
X1235Y271D02*
X1291Y271D01*
X1314Y271D02*
X1370Y271D01*
X1392Y271D02*
X1449Y271D01*
X1471Y271D02*
X1527Y271D01*
X1550Y271D02*
X1606Y271D01*
X1626Y271D02*
X1683Y271D01*
X1707Y271D02*
X1764Y271D01*
X1156Y270D02*
X1212Y270D01*
X1235Y270D02*
X1291Y270D01*
X1314Y270D02*
X1370Y270D01*
X1392Y270D02*
X1449Y270D01*
X1471Y270D02*
X1527Y270D01*
X1550Y270D02*
X1606Y270D01*
X1626Y270D02*
X1683Y270D01*
X1707Y270D02*
X1764Y270D01*
X1156Y269D02*
X1212Y269D01*
X1235Y269D02*
X1291Y269D01*
X1314Y269D02*
X1370Y269D01*
X1392Y269D02*
X1449Y269D01*
X1471Y269D02*
X1527Y269D01*
X1550Y269D02*
X1606Y269D01*
X1626Y269D02*
X1683Y269D01*
X1707Y269D02*
X1764Y269D01*
X1156Y268D02*
X1212Y268D01*
X1235Y268D02*
X1291Y268D01*
X1314Y268D02*
X1370Y268D01*
X1392Y268D02*
X1449Y268D01*
X1471Y268D02*
X1527Y268D01*
X1550Y268D02*
X1606Y268D01*
X1626Y268D02*
X1683Y268D01*
X1707Y268D02*
X1764Y268D01*
X1156Y267D02*
X1212Y267D01*
X1235Y267D02*
X1291Y267D01*
X1314Y267D02*
X1370Y267D01*
X1392Y267D02*
X1449Y267D01*
X1471Y267D02*
X1527Y267D01*
X1550Y267D02*
X1606Y267D01*
X1626Y267D02*
X1683Y267D01*
X1707Y267D02*
X1764Y267D01*
X1156Y266D02*
X1212Y266D01*
X1235Y266D02*
X1291Y266D01*
X1314Y266D02*
X1370Y266D01*
X1392Y266D02*
X1449Y266D01*
X1471Y266D02*
X1527Y266D01*
X1550Y266D02*
X1606Y266D01*
X1626Y266D02*
X1683Y266D01*
X1707Y266D02*
X1764Y266D01*
X1156Y265D02*
X1212Y265D01*
X1235Y265D02*
X1291Y265D01*
X1314Y265D02*
X1370Y265D01*
X1392Y265D02*
X1449Y265D01*
X1471Y265D02*
X1527Y265D01*
X1550Y265D02*
X1606Y265D01*
X1626Y265D02*
X1683Y265D01*
X1707Y265D02*
X1764Y265D01*
X1156Y264D02*
X1212Y264D01*
X1235Y264D02*
X1291Y264D01*
X1314Y264D02*
X1370Y264D01*
X1392Y264D02*
X1449Y264D01*
X1471Y264D02*
X1527Y264D01*
X1550Y264D02*
X1606Y264D01*
X1626Y264D02*
X1683Y264D01*
X1707Y264D02*
X1764Y264D01*
X1156Y263D02*
X1212Y263D01*
X1235Y263D02*
X1291Y263D01*
X1314Y263D02*
X1370Y263D01*
X1392Y263D02*
X1449Y263D01*
X1471Y263D02*
X1527Y263D01*
X1550Y263D02*
X1606Y263D01*
X1626Y263D02*
X1683Y263D01*
X1707Y263D02*
X1764Y263D01*
X1156Y262D02*
X1212Y262D01*
X1235Y262D02*
X1291Y262D01*
X1314Y262D02*
X1370Y262D01*
X1392Y262D02*
X1449Y262D01*
X1471Y262D02*
X1527Y262D01*
X1550Y262D02*
X1606Y262D01*
X1626Y262D02*
X1683Y262D01*
X1707Y262D02*
X1764Y262D01*
X1156Y261D02*
X1212Y261D01*
X1235Y261D02*
X1291Y261D01*
X1314Y261D02*
X1370Y261D01*
X1392Y261D02*
X1449Y261D01*
X1471Y261D02*
X1527Y261D01*
X1550Y261D02*
X1606Y261D01*
X1626Y261D02*
X1683Y261D01*
X1707Y261D02*
X1764Y261D01*
X1156Y260D02*
X1212Y260D01*
X1235Y260D02*
X1291Y260D01*
X1314Y260D02*
X1370Y260D01*
X1392Y260D02*
X1449Y260D01*
X1471Y260D02*
X1527Y260D01*
X1550Y260D02*
X1606Y260D01*
X1626Y260D02*
X1683Y260D01*
X1707Y260D02*
X1764Y260D01*
X1156Y259D02*
X1212Y259D01*
X1235Y259D02*
X1291Y259D01*
X1314Y259D02*
X1370Y259D01*
X1392Y259D02*
X1449Y259D01*
X1471Y259D02*
X1527Y259D01*
X1550Y259D02*
X1606Y259D01*
X1626Y259D02*
X1683Y259D01*
X1707Y259D02*
X1764Y259D01*
X1156Y258D02*
X1212Y258D01*
X1235Y258D02*
X1291Y258D01*
X1314Y258D02*
X1370Y258D01*
X1392Y258D02*
X1449Y258D01*
X1471Y258D02*
X1527Y258D01*
X1550Y258D02*
X1606Y258D01*
X1626Y258D02*
X1683Y258D01*
X1707Y258D02*
X1764Y258D01*
X1156Y257D02*
X1212Y257D01*
X1235Y257D02*
X1291Y257D01*
X1314Y257D02*
X1370Y257D01*
X1392Y257D02*
X1449Y257D01*
X1471Y257D02*
X1527Y257D01*
X1550Y257D02*
X1606Y257D01*
X1626Y257D02*
X1683Y257D01*
X1707Y257D02*
X1764Y257D01*
X1156Y256D02*
X1212Y256D01*
X1235Y256D02*
X1291Y256D01*
X1314Y256D02*
X1370Y256D01*
X1392Y256D02*
X1449Y256D01*
X1471Y256D02*
X1527Y256D01*
X1550Y256D02*
X1606Y256D01*
X1626Y256D02*
X1683Y256D01*
X1707Y256D02*
X1764Y256D01*
X1156Y255D02*
X1212Y255D01*
X1235Y255D02*
X1291Y255D01*
X1314Y255D02*
X1370Y255D01*
X1392Y255D02*
X1449Y255D01*
X1471Y255D02*
X1527Y255D01*
X1550Y255D02*
X1606Y255D01*
X1626Y255D02*
X1683Y255D01*
X1707Y255D02*
X1764Y255D01*
X1156Y254D02*
X1212Y254D01*
X1235Y254D02*
X1291Y254D01*
X1314Y254D02*
X1370Y254D01*
X1392Y254D02*
X1449Y254D01*
X1471Y254D02*
X1527Y254D01*
X1550Y254D02*
X1606Y254D01*
X1626Y254D02*
X1683Y254D01*
X1707Y254D02*
X1764Y254D01*
X1156Y253D02*
X1212Y253D01*
X1235Y253D02*
X1291Y253D01*
X1314Y253D02*
X1370Y253D01*
X1392Y253D02*
X1449Y253D01*
X1471Y253D02*
X1527Y253D01*
X1550Y253D02*
X1606Y253D01*
X1626Y253D02*
X1683Y253D01*
X1707Y253D02*
X1764Y253D01*
X1156Y252D02*
X1212Y252D01*
X1235Y252D02*
X1291Y252D01*
X1314Y252D02*
X1370Y252D01*
X1392Y252D02*
X1449Y252D01*
X1471Y252D02*
X1527Y252D01*
X1550Y252D02*
X1606Y252D01*
X1626Y252D02*
X1683Y252D01*
X1707Y252D02*
X1764Y252D01*
X1156Y251D02*
X1212Y251D01*
X1235Y251D02*
X1291Y251D01*
X1314Y251D02*
X1370Y251D01*
X1392Y251D02*
X1449Y251D01*
X1471Y251D02*
X1527Y251D01*
X1550Y251D02*
X1606Y251D01*
X1626Y251D02*
X1683Y251D01*
X1707Y251D02*
X1764Y251D01*
X1156Y250D02*
X1212Y250D01*
X1235Y250D02*
X1291Y250D01*
X1314Y250D02*
X1370Y250D01*
X1392Y250D02*
X1449Y250D01*
X1471Y250D02*
X1527Y250D01*
X1550Y250D02*
X1606Y250D01*
X1626Y250D02*
X1683Y250D01*
X1707Y250D02*
X1764Y250D01*
X1156Y249D02*
X1212Y249D01*
X1235Y249D02*
X1291Y249D01*
X1314Y249D02*
X1370Y249D01*
X1392Y249D02*
X1449Y249D01*
X1471Y249D02*
X1527Y249D01*
X1550Y249D02*
X1606Y249D01*
X1626Y249D02*
X1683Y249D01*
X1707Y249D02*
X1764Y249D01*
X1156Y248D02*
X1212Y248D01*
X1235Y248D02*
X1291Y248D01*
X1314Y248D02*
X1370Y248D01*
X1392Y248D02*
X1449Y248D01*
X1471Y248D02*
X1527Y248D01*
X1550Y248D02*
X1606Y248D01*
X1626Y248D02*
X1683Y248D01*
X1707Y248D02*
X1764Y248D01*
X1156Y247D02*
X1212Y247D01*
X1235Y247D02*
X1291Y247D01*
X1314Y247D02*
X1370Y247D01*
X1393Y247D02*
X1448Y247D01*
X1472Y247D02*
X1527Y247D01*
X1550Y247D02*
X1606Y247D01*
X1627Y247D02*
X1682Y247D01*
X1708Y247D02*
X1763Y247D01*
D02*
G04 End of Mask1*
M02*