G04 MADE WITH FRITZING*
G04 WWW.FRITZING.ORG*
G04 DOUBLE SIDED*
G04 HOLES PLATED*
G04 CONTOUR ON CENTER OF CONTOUR VECTOR*
%ASAXBY*%
%FSLAX23Y23*%
%MOIN*%
%OFA0B0*%
%SFA1.0B1.0*%
%ADD10C,0.015748*%
%ADD11C,0.061496*%
%ADD12C,0.077244*%
%ADD13C,0.116299*%
%ADD14C,0.049370*%
%ADD15C,0.072992*%
%ADD16C,0.088000*%
%ADD17C,0.085000*%
%ADD18R,0.072992X0.072992*%
%ADD19R,0.072992X0.084803*%
%ADD20R,0.072992X0.080866*%
%ADD21R,0.057244X0.031653*%
%ADD22R,0.090000X0.036000*%
%ADD23R,0.085000X0.085000*%
%ADD24R,0.001000X0.001000*%
%LNMASK1*%
G90*
G70*
G54D10*
X21Y255D03*
G54D11*
X68Y580D03*
X146Y580D03*
X68Y659D03*
X146Y659D03*
X68Y737D03*
X146Y737D03*
G54D12*
X107Y840D03*
X107Y477D03*
G54D11*
X68Y580D03*
X146Y580D03*
X68Y659D03*
X146Y659D03*
X68Y737D03*
X146Y737D03*
G54D12*
X107Y840D03*
X107Y477D03*
G54D13*
X71Y80D03*
X71Y330D03*
G54D14*
X346Y405D03*
G54D15*
X509Y453D03*
X509Y355D03*
X509Y653D03*
X509Y555D03*
G54D14*
X1009Y255D03*
X784Y405D03*
X796Y317D03*
X696Y405D03*
X971Y467D03*
X784Y505D03*
X1321Y155D03*
X271Y405D03*
G54D16*
X496Y67D03*
X396Y67D03*
X296Y67D03*
X509Y805D03*
X609Y805D03*
X1246Y592D03*
X1246Y492D03*
X1246Y392D03*
X1246Y292D03*
X1121Y592D03*
X1121Y492D03*
X1121Y392D03*
X1121Y292D03*
G54D17*
X384Y792D03*
X284Y792D03*
X1059Y792D03*
X959Y792D03*
X1284Y792D03*
X1184Y792D03*
G54D18*
X509Y453D03*
X509Y653D03*
G54D19*
X271Y492D03*
X393Y492D03*
X271Y605D03*
X393Y605D03*
X384Y180D03*
X262Y180D03*
G54D20*
X871Y592D03*
X982Y592D03*
G54D21*
X409Y267D03*
X409Y305D03*
X409Y342D03*
X306Y342D03*
X306Y267D03*
G54D22*
X623Y505D03*
X623Y455D03*
X623Y405D03*
X623Y355D03*
X623Y305D03*
X623Y255D03*
X623Y205D03*
X884Y205D03*
X884Y255D03*
X884Y305D03*
X884Y355D03*
X884Y405D03*
X884Y455D03*
X884Y505D03*
G54D21*
X734Y792D03*
X734Y755D03*
X734Y717D03*
X836Y717D03*
X836Y792D03*
G54D23*
X384Y792D03*
X1059Y792D03*
X1284Y792D03*
G54D24*
X16Y279D02*
X26Y279D01*
X13Y278D02*
X28Y278D01*
X11Y277D02*
X30Y277D01*
X9Y276D02*
X32Y276D01*
X8Y275D02*
X34Y275D01*
X7Y274D02*
X35Y274D01*
X5Y273D02*
X36Y273D01*
X4Y272D02*
X37Y272D01*
X3Y271D02*
X38Y271D01*
X3Y270D02*
X39Y270D01*
X2Y269D02*
X40Y269D01*
X1Y268D02*
X41Y268D01*
X0Y267D02*
X41Y267D01*
X0Y266D02*
X42Y266D01*
X0Y265D02*
X42Y265D01*
X0Y264D02*
X43Y264D01*
X0Y263D02*
X43Y263D01*
X0Y262D02*
X44Y262D01*
X0Y261D02*
X44Y261D01*
X0Y260D02*
X44Y260D01*
X0Y259D02*
X45Y259D01*
X0Y258D02*
X45Y258D01*
X0Y257D02*
X45Y257D01*
X0Y256D02*
X45Y256D01*
X0Y255D02*
X45Y255D01*
X0Y254D02*
X45Y254D01*
X0Y253D02*
X45Y253D01*
X0Y252D02*
X45Y252D01*
X0Y251D02*
X44Y251D01*
X0Y250D02*
X44Y250D01*
X0Y249D02*
X44Y249D01*
X0Y248D02*
X43Y248D01*
X0Y247D02*
X43Y247D01*
X0Y246D02*
X43Y246D01*
X0Y245D02*
X42Y245D01*
X0Y244D02*
X42Y244D01*
X1Y243D02*
X41Y243D01*
X1Y242D02*
X40Y242D01*
X2Y241D02*
X39Y241D01*
X3Y240D02*
X39Y240D01*
X4Y239D02*
X38Y239D01*
X5Y238D02*
X37Y238D01*
X6Y237D02*
X36Y237D01*
X7Y236D02*
X34Y236D01*
X8Y235D02*
X33Y235D01*
X10Y234D02*
X32Y234D01*
X12Y233D02*
X30Y233D01*
X14Y232D02*
X27Y232D01*
X17Y231D02*
X24Y231D01*
D02*
G04 End of Mask1*
M02*