G04 MADE WITH FRITZING*
G04 WWW.FRITZING.ORG*
G04 DOUBLE SIDED*
G04 HOLES PLATED*
G04 CONTOUR ON CENTER OF CONTOUR VECTOR*
%ASAXBY*%
%FSLAX23Y23*%
%MOIN*%
%OFA0B0*%
%SFA1.0B1.0*%
%ADD10C,0.074000*%
%ADD11C,0.039370*%
%ADD12C,0.062992*%
%ADD13C,0.051496*%
%ADD14C,0.094803*%
%ADD15C,0.078000*%
%ADD16C,0.065000*%
%ADD17R,0.074000X0.074000*%
%ADD18R,0.062992X0.062992*%
%ADD19R,0.062992X0.090551*%
%ADD20C,0.024000*%
%ADD21R,0.001000X0.001000*%
%LNCOPPER0*%
G90*
G70*
G54D10*
X1701Y1415D03*
X1601Y1415D03*
X1501Y1415D03*
X1401Y1415D03*
X1701Y1515D03*
X1601Y1515D03*
X1501Y1515D03*
X1401Y1515D03*
G54D11*
X1739Y440D03*
X1501Y440D03*
X1651Y440D03*
X1577Y439D03*
G54D12*
X551Y1466D03*
X551Y1565D03*
X976Y1466D03*
X976Y1565D03*
G54D11*
X1264Y1102D03*
X1189Y1027D03*
G54D13*
X251Y1303D03*
X251Y1240D03*
X251Y1177D03*
X204Y1271D03*
X204Y1208D03*
G54D14*
X51Y1096D03*
X51Y1384D03*
G54D11*
X1276Y715D03*
X564Y215D03*
G54D15*
X1126Y115D03*
X1026Y115D03*
X101Y840D03*
X101Y740D03*
X101Y640D03*
X101Y540D03*
X101Y440D03*
X101Y340D03*
G54D11*
X1414Y440D03*
G54D16*
X514Y1102D03*
X514Y1202D03*
X476Y740D03*
X476Y840D03*
G54D17*
X1701Y1515D03*
G54D18*
X551Y1466D03*
X976Y1466D03*
G54D19*
X389Y1427D03*
X389Y1675D03*
G54D20*
X1739Y1415D02*
X1740Y452D01*
D02*
X1733Y1415D02*
X1739Y1415D01*
D02*
X1740Y452D02*
X1741Y459D01*
D02*
X1215Y1239D02*
X1215Y1577D01*
D02*
X1215Y1577D02*
X1501Y1577D01*
D02*
X1501Y939D02*
X1390Y938D01*
D02*
X1390Y938D02*
X1390Y1238D01*
D02*
X1390Y1238D02*
X1215Y1239D01*
D02*
X1501Y459D02*
X1501Y939D01*
D02*
X1501Y1577D02*
X1501Y1546D01*
D02*
X1451Y1327D02*
X1277Y1328D01*
D02*
X1277Y1328D02*
X1277Y1515D01*
D02*
X1451Y1002D02*
X1451Y1327D01*
D02*
X1577Y1001D02*
X1451Y1002D01*
D02*
X1277Y1515D02*
X1370Y1515D01*
D02*
X1577Y458D02*
X1577Y1001D01*
D02*
X1501Y1077D02*
X1501Y1384D01*
D02*
X1653Y1077D02*
X1501Y1077D01*
D02*
X1651Y459D02*
X1653Y1077D01*
D02*
X564Y40D02*
X564Y196D01*
D02*
X1740Y38D02*
X564Y40D01*
D02*
X1739Y421D02*
X1740Y38D01*
D02*
X526Y438D02*
X1190Y441D01*
D02*
X1190Y441D02*
X1189Y1008D01*
D02*
X132Y440D02*
X526Y438D01*
D02*
X1101Y541D02*
X327Y541D01*
D02*
X1102Y1103D02*
X1101Y541D01*
D02*
X327Y541D02*
X131Y540D01*
D02*
X1245Y1102D02*
X1102Y1103D01*
D02*
X263Y639D02*
X131Y640D01*
D02*
X1276Y115D02*
X1276Y696D01*
D02*
X1157Y115D02*
X1276Y115D01*
D02*
X553Y1678D02*
X552Y1592D01*
D02*
X415Y1676D02*
X553Y1678D01*
D02*
X853Y1341D02*
X538Y1341D01*
D02*
X853Y1178D02*
X853Y1341D01*
D02*
X538Y1341D02*
X453Y1426D01*
D02*
X453Y1426D02*
X415Y1427D01*
D02*
X1340Y1177D02*
X853Y1178D01*
D02*
X1340Y838D02*
X1340Y1177D01*
D02*
X1414Y841D02*
X1340Y838D01*
D02*
X1414Y459D02*
X1414Y841D01*
D02*
X264Y841D02*
X263Y639D01*
D02*
X451Y840D02*
X264Y841D01*
G54D21*
X481Y1235D02*
X545Y1235D01*
X481Y1234D02*
X545Y1234D01*
X481Y1233D02*
X545Y1233D01*
X481Y1232D02*
X545Y1232D01*
X481Y1231D02*
X545Y1231D01*
X481Y1230D02*
X545Y1230D01*
X481Y1229D02*
X545Y1229D01*
X481Y1228D02*
X545Y1228D01*
X481Y1227D02*
X545Y1227D01*
X481Y1226D02*
X545Y1226D01*
X481Y1225D02*
X545Y1225D01*
X481Y1224D02*
X545Y1224D01*
X481Y1223D02*
X545Y1223D01*
X481Y1222D02*
X545Y1222D01*
X481Y1221D02*
X545Y1221D01*
X481Y1220D02*
X545Y1220D01*
X481Y1219D02*
X545Y1219D01*
X481Y1218D02*
X545Y1218D01*
X481Y1217D02*
X512Y1217D01*
X514Y1217D02*
X545Y1217D01*
X481Y1216D02*
X508Y1216D01*
X519Y1216D02*
X545Y1216D01*
X481Y1215D02*
X506Y1215D01*
X521Y1215D02*
X545Y1215D01*
X481Y1214D02*
X504Y1214D01*
X522Y1214D02*
X545Y1214D01*
X481Y1213D02*
X503Y1213D01*
X523Y1213D02*
X545Y1213D01*
X481Y1212D02*
X502Y1212D01*
X524Y1212D02*
X545Y1212D01*
X481Y1211D02*
X501Y1211D01*
X525Y1211D02*
X545Y1211D01*
X481Y1210D02*
X501Y1210D01*
X526Y1210D02*
X545Y1210D01*
X481Y1209D02*
X500Y1209D01*
X526Y1209D02*
X545Y1209D01*
X481Y1208D02*
X500Y1208D01*
X527Y1208D02*
X545Y1208D01*
X481Y1207D02*
X500Y1207D01*
X527Y1207D02*
X545Y1207D01*
X481Y1206D02*
X499Y1206D01*
X527Y1206D02*
X545Y1206D01*
X481Y1205D02*
X499Y1205D01*
X527Y1205D02*
X545Y1205D01*
X481Y1204D02*
X499Y1204D01*
X528Y1204D02*
X545Y1204D01*
X481Y1203D02*
X499Y1203D01*
X528Y1203D02*
X545Y1203D01*
X481Y1202D02*
X499Y1202D01*
X527Y1202D02*
X545Y1202D01*
X481Y1201D02*
X499Y1201D01*
X527Y1201D02*
X545Y1201D01*
X481Y1200D02*
X499Y1200D01*
X527Y1200D02*
X545Y1200D01*
X481Y1199D02*
X500Y1199D01*
X527Y1199D02*
X545Y1199D01*
X481Y1198D02*
X500Y1198D01*
X526Y1198D02*
X545Y1198D01*
X481Y1197D02*
X501Y1197D01*
X526Y1197D02*
X545Y1197D01*
X481Y1196D02*
X501Y1196D01*
X525Y1196D02*
X545Y1196D01*
X481Y1195D02*
X502Y1195D01*
X525Y1195D02*
X545Y1195D01*
X481Y1194D02*
X503Y1194D01*
X524Y1194D02*
X545Y1194D01*
X481Y1193D02*
X504Y1193D01*
X523Y1193D02*
X545Y1193D01*
X481Y1192D02*
X505Y1192D01*
X522Y1192D02*
X545Y1192D01*
X481Y1191D02*
X507Y1191D01*
X520Y1191D02*
X545Y1191D01*
X481Y1190D02*
X509Y1190D01*
X517Y1190D02*
X545Y1190D01*
X481Y1189D02*
X545Y1189D01*
X481Y1188D02*
X545Y1188D01*
X481Y1187D02*
X545Y1187D01*
X481Y1186D02*
X545Y1186D01*
X481Y1185D02*
X545Y1185D01*
X481Y1184D02*
X545Y1184D01*
X481Y1183D02*
X545Y1183D01*
X481Y1182D02*
X545Y1182D01*
X481Y1181D02*
X545Y1181D01*
X481Y1180D02*
X545Y1180D01*
X481Y1179D02*
X545Y1179D01*
X481Y1178D02*
X545Y1178D01*
X481Y1177D02*
X545Y1177D01*
X481Y1176D02*
X545Y1176D01*
X481Y1175D02*
X545Y1175D01*
X481Y1174D02*
X545Y1174D01*
X481Y1173D02*
X545Y1173D01*
X481Y1172D02*
X545Y1172D01*
X481Y1171D02*
X545Y1171D01*
X444Y873D02*
X508Y873D01*
X444Y872D02*
X508Y872D01*
X444Y871D02*
X508Y871D01*
X444Y870D02*
X508Y870D01*
X444Y869D02*
X508Y869D01*
X444Y868D02*
X508Y868D01*
X444Y867D02*
X508Y867D01*
X444Y866D02*
X508Y866D01*
X444Y865D02*
X508Y865D01*
X444Y864D02*
X508Y864D01*
X444Y863D02*
X508Y863D01*
X444Y862D02*
X508Y862D01*
X444Y861D02*
X508Y861D01*
X444Y860D02*
X508Y860D01*
X444Y859D02*
X508Y859D01*
X444Y858D02*
X508Y858D01*
X444Y857D02*
X508Y857D01*
X444Y856D02*
X508Y856D01*
X444Y855D02*
X508Y855D01*
X444Y854D02*
X471Y854D01*
X480Y854D02*
X508Y854D01*
X444Y853D02*
X469Y853D01*
X483Y853D02*
X508Y853D01*
X444Y852D02*
X467Y852D01*
X484Y852D02*
X508Y852D01*
X444Y851D02*
X466Y851D01*
X486Y851D02*
X508Y851D01*
X444Y850D02*
X465Y850D01*
X487Y850D02*
X508Y850D01*
X444Y849D02*
X464Y849D01*
X487Y849D02*
X508Y849D01*
X444Y848D02*
X463Y848D01*
X488Y848D02*
X508Y848D01*
X444Y847D02*
X463Y847D01*
X489Y847D02*
X508Y847D01*
X444Y846D02*
X463Y846D01*
X489Y846D02*
X508Y846D01*
X444Y845D02*
X462Y845D01*
X489Y845D02*
X508Y845D01*
X444Y844D02*
X462Y844D01*
X490Y844D02*
X508Y844D01*
X444Y843D02*
X462Y843D01*
X490Y843D02*
X508Y843D01*
X444Y842D02*
X462Y842D01*
X490Y842D02*
X508Y842D01*
X444Y841D02*
X461Y841D01*
X490Y841D02*
X508Y841D01*
X444Y840D02*
X462Y840D01*
X490Y840D02*
X508Y840D01*
X444Y839D02*
X462Y839D01*
X490Y839D02*
X508Y839D01*
X444Y838D02*
X462Y838D01*
X490Y838D02*
X508Y838D01*
X444Y837D02*
X462Y837D01*
X489Y837D02*
X508Y837D01*
X444Y836D02*
X462Y836D01*
X489Y836D02*
X508Y836D01*
X444Y835D02*
X463Y835D01*
X489Y835D02*
X508Y835D01*
X444Y834D02*
X463Y834D01*
X488Y834D02*
X508Y834D01*
X444Y833D02*
X464Y833D01*
X487Y833D02*
X508Y833D01*
X444Y832D02*
X465Y832D01*
X487Y832D02*
X508Y832D01*
X444Y831D02*
X466Y831D01*
X486Y831D02*
X508Y831D01*
X444Y830D02*
X467Y830D01*
X484Y830D02*
X508Y830D01*
X444Y829D02*
X468Y829D01*
X483Y829D02*
X508Y829D01*
X444Y828D02*
X471Y828D01*
X481Y828D02*
X508Y828D01*
X444Y827D02*
X508Y827D01*
X444Y826D02*
X508Y826D01*
X444Y825D02*
X508Y825D01*
X444Y824D02*
X508Y824D01*
X444Y823D02*
X508Y823D01*
X444Y822D02*
X508Y822D01*
X444Y821D02*
X508Y821D01*
X444Y820D02*
X508Y820D01*
X444Y819D02*
X508Y819D01*
X444Y818D02*
X508Y818D01*
X444Y817D02*
X508Y817D01*
X444Y816D02*
X508Y816D01*
X444Y815D02*
X508Y815D01*
X444Y814D02*
X508Y814D01*
X444Y813D02*
X508Y813D01*
X444Y812D02*
X508Y812D01*
X444Y811D02*
X508Y811D01*
X444Y810D02*
X508Y810D01*
X444Y809D02*
X508Y809D01*
D02*
G04 End of Copper0*
M02*