G04 MADE WITH FRITZING*
G04 WWW.FRITZING.ORG*
G04 DOUBLE SIDED*
G04 HOLES PLATED*
G04 CONTOUR ON CENTER OF CONTOUR VECTOR*
%ASAXBY*%
%FSLAX23Y23*%
%MOIN*%
%OFA0B0*%
%SFA1.0B1.0*%
%ADD10C,0.074000*%
%ADD11C,0.039370*%
%ADD12C,0.062992*%
%ADD13C,0.051496*%
%ADD14C,0.094803*%
%ADD15C,0.078000*%
%ADD16C,0.065000*%
%ADD17R,0.074000X0.074000*%
%ADD18R,0.062992X0.062992*%
%ADD19R,0.062992X0.070866*%
%ADD20R,0.070866X0.062992*%
%ADD21R,0.062992X0.074803*%
%ADD22R,0.074803X0.062992*%
%ADD23R,0.048000X0.088000*%
%ADD24R,0.141732X0.086614*%
%ADD25C,0.024000*%
%ADD26R,0.001000X0.001000*%
%LNCOPPER1*%
G90*
G70*
G54D10*
X1701Y1415D03*
X1601Y1415D03*
X1501Y1415D03*
X1401Y1415D03*
X1701Y1515D03*
X1601Y1515D03*
X1501Y1515D03*
X1401Y1515D03*
G54D11*
X1739Y440D03*
X1501Y440D03*
X1651Y440D03*
X1577Y439D03*
G54D12*
X551Y1466D03*
X551Y1565D03*
X976Y1466D03*
X976Y1565D03*
G54D11*
X1264Y1102D03*
X1189Y1027D03*
G54D13*
X251Y1303D03*
X251Y1240D03*
X251Y1177D03*
X204Y1271D03*
X204Y1208D03*
G54D14*
X51Y1096D03*
X51Y1384D03*
G54D13*
X251Y1303D03*
X251Y1240D03*
X251Y1177D03*
X204Y1271D03*
X204Y1208D03*
G54D14*
X51Y1096D03*
X51Y1384D03*
G54D11*
X1276Y715D03*
X564Y215D03*
G54D15*
X1126Y115D03*
X1026Y115D03*
X101Y840D03*
X101Y740D03*
X101Y640D03*
X101Y540D03*
X101Y440D03*
X101Y340D03*
G54D11*
X1414Y440D03*
G54D16*
X514Y1102D03*
X514Y1202D03*
X514Y1102D03*
X514Y1202D03*
X476Y740D03*
X476Y840D03*
X476Y740D03*
X476Y840D03*
G54D17*
X1701Y1515D03*
G54D18*
X551Y1466D03*
X976Y1466D03*
G54D19*
X1564Y1140D03*
X1674Y1140D03*
G54D20*
X1864Y527D03*
X1864Y638D03*
X789Y115D03*
X789Y225D03*
G54D21*
X664Y352D03*
X786Y352D03*
G54D22*
X776Y1440D03*
X776Y1562D03*
X1114Y1340D03*
X1114Y1218D03*
X776Y840D03*
X776Y718D03*
G54D21*
X664Y602D03*
X786Y602D03*
X664Y478D03*
X786Y478D03*
G54D23*
X739Y1002D03*
X830Y1002D03*
X921Y1002D03*
G54D24*
X830Y1246D03*
G54D25*
X1788Y1515D02*
X1733Y1515D01*
D02*
X1788Y1139D02*
X1788Y1515D01*
D02*
X1740Y1138D02*
X1788Y1139D01*
D02*
X1737Y954D02*
X1740Y1138D01*
D02*
X1739Y421D02*
X1737Y334D01*
D02*
X1015Y1352D02*
X1015Y1227D01*
D02*
X953Y1352D02*
X1015Y1352D01*
D02*
X976Y1702D02*
X1701Y1702D01*
D02*
X553Y1700D02*
X976Y1702D01*
D02*
X1701Y1702D02*
X1701Y1546D01*
D02*
X1476Y1038D02*
X1476Y1313D01*
D02*
X1651Y1038D02*
X1476Y1038D01*
D02*
X1476Y1313D02*
X1601Y1315D01*
D02*
X1601Y1315D02*
X1601Y1384D01*
D02*
X1654Y954D02*
X1651Y1038D01*
D02*
X1339Y1339D02*
X1326Y1339D01*
D02*
X1326Y1339D02*
X1326Y1590D01*
D02*
X1326Y1590D02*
X1601Y1590D01*
D02*
X1601Y1590D02*
X1601Y1546D01*
D02*
X1339Y1028D02*
X1339Y1339D01*
D02*
X1341Y954D02*
X1339Y1028D01*
D02*
X1501Y334D02*
X1501Y421D01*
D02*
X1578Y333D02*
X1577Y420D01*
D02*
X1654Y333D02*
X1652Y421D01*
D02*
X915Y390D02*
X1188Y390D01*
D02*
X915Y352D02*
X915Y390D01*
D02*
X1188Y390D02*
X1186Y333D01*
D02*
X812Y352D02*
X915Y352D01*
D02*
X901Y477D02*
X1340Y477D01*
D02*
X1340Y477D02*
X1342Y334D01*
D02*
X812Y478D02*
X901Y477D01*
D02*
X1015Y852D02*
X827Y852D01*
D02*
X827Y852D02*
X808Y848D01*
D02*
X664Y570D02*
X664Y509D01*
D02*
X1015Y1227D02*
X1015Y852D01*
D02*
X664Y446D02*
X664Y384D01*
D02*
X565Y838D02*
X745Y840D01*
D02*
X1576Y602D02*
X1579Y876D01*
D02*
X812Y602D02*
X1576Y602D01*
D02*
X1501Y713D02*
X1500Y876D01*
D02*
X808Y718D02*
X1501Y713D01*
D02*
X1415Y421D02*
X1419Y334D01*
D02*
X553Y1700D02*
X552Y1592D01*
D02*
X976Y1702D02*
X976Y1592D01*
D02*
X1113Y1465D02*
X1003Y1466D01*
D02*
X1114Y1366D02*
X1113Y1465D01*
D02*
X1414Y816D02*
X1113Y816D01*
D02*
X1113Y816D02*
X1114Y1192D01*
D02*
X1419Y876D02*
X1414Y816D01*
D02*
X1264Y1083D02*
X1264Y954D01*
D02*
X1188Y1008D02*
X1186Y954D01*
D02*
X865Y1438D02*
X808Y1439D01*
D02*
X953Y1352D02*
X865Y1438D01*
D02*
X665Y1463D02*
X665Y1563D01*
D02*
X665Y1563D02*
X745Y1562D01*
D02*
X578Y1466D02*
X665Y1463D01*
D02*
X788Y251D02*
X787Y320D01*
D02*
X1865Y913D02*
X1754Y915D01*
D02*
X1864Y663D02*
X1865Y913D01*
D02*
X1865Y441D02*
X1864Y501D01*
D02*
X1758Y440D02*
X1865Y441D01*
D02*
X1740Y1138D02*
X1700Y1139D01*
D02*
X1565Y1252D02*
X1701Y1252D01*
D02*
X1701Y1252D02*
X1701Y1384D01*
D02*
X1564Y1170D02*
X1565Y1252D01*
D02*
X565Y838D02*
X501Y839D01*
D02*
X375Y741D02*
X376Y838D01*
D02*
X452Y740D02*
X375Y741D01*
D02*
X476Y715D02*
X475Y115D01*
D02*
X379Y1063D02*
X514Y1065D01*
D02*
X514Y1065D02*
X514Y1077D01*
D02*
X376Y838D02*
X379Y1063D01*
D02*
X250Y1063D02*
X251Y1150D01*
D02*
X278Y1303D02*
X338Y1304D01*
D02*
X140Y1063D02*
X250Y1063D01*
D02*
X140Y1477D02*
X140Y1063D01*
D02*
X51Y1477D02*
X140Y1477D01*
D02*
X51Y1702D02*
X51Y1477D01*
D02*
X553Y1700D02*
X51Y1702D01*
D02*
X376Y838D02*
X132Y840D01*
D02*
X564Y352D02*
X564Y234D01*
D02*
X638Y352D02*
X564Y352D01*
D02*
X565Y602D02*
X565Y838D01*
D02*
X638Y602D02*
X565Y602D01*
D02*
X808Y718D02*
X1257Y715D01*
D02*
X475Y115D02*
X759Y115D01*
D02*
X819Y115D02*
X996Y115D01*
D02*
X720Y1011D02*
X537Y1092D01*
D02*
X492Y1215D02*
X338Y1304D01*
D02*
X827Y852D02*
X829Y964D01*
D02*
X713Y1115D02*
X537Y1192D01*
D02*
X915Y1114D02*
X713Y1115D01*
D02*
X919Y1041D02*
X915Y1114D01*
D02*
X379Y1063D02*
X250Y1063D01*
G54D26*
X481Y1235D02*
X545Y1235D01*
X481Y1234D02*
X545Y1234D01*
X481Y1233D02*
X545Y1233D01*
X481Y1232D02*
X545Y1232D01*
X481Y1231D02*
X545Y1231D01*
X481Y1230D02*
X545Y1230D01*
X481Y1229D02*
X545Y1229D01*
X481Y1228D02*
X545Y1228D01*
X481Y1227D02*
X545Y1227D01*
X481Y1226D02*
X545Y1226D01*
X481Y1225D02*
X545Y1225D01*
X481Y1224D02*
X545Y1224D01*
X481Y1223D02*
X545Y1223D01*
X481Y1222D02*
X545Y1222D01*
X481Y1221D02*
X545Y1221D01*
X481Y1220D02*
X545Y1220D01*
X481Y1219D02*
X545Y1219D01*
X481Y1218D02*
X545Y1218D01*
X481Y1217D02*
X512Y1217D01*
X514Y1217D02*
X545Y1217D01*
X481Y1216D02*
X508Y1216D01*
X519Y1216D02*
X545Y1216D01*
X481Y1215D02*
X506Y1215D01*
X521Y1215D02*
X545Y1215D01*
X481Y1214D02*
X504Y1214D01*
X522Y1214D02*
X545Y1214D01*
X481Y1213D02*
X503Y1213D01*
X523Y1213D02*
X545Y1213D01*
X481Y1212D02*
X502Y1212D01*
X524Y1212D02*
X545Y1212D01*
X481Y1211D02*
X501Y1211D01*
X525Y1211D02*
X545Y1211D01*
X481Y1210D02*
X501Y1210D01*
X526Y1210D02*
X545Y1210D01*
X481Y1209D02*
X500Y1209D01*
X526Y1209D02*
X545Y1209D01*
X481Y1208D02*
X500Y1208D01*
X527Y1208D02*
X545Y1208D01*
X481Y1207D02*
X500Y1207D01*
X527Y1207D02*
X545Y1207D01*
X481Y1206D02*
X499Y1206D01*
X527Y1206D02*
X545Y1206D01*
X481Y1205D02*
X499Y1205D01*
X527Y1205D02*
X545Y1205D01*
X481Y1204D02*
X499Y1204D01*
X528Y1204D02*
X545Y1204D01*
X481Y1203D02*
X499Y1203D01*
X528Y1203D02*
X545Y1203D01*
X481Y1202D02*
X499Y1202D01*
X527Y1202D02*
X545Y1202D01*
X481Y1201D02*
X499Y1201D01*
X527Y1201D02*
X545Y1201D01*
X481Y1200D02*
X499Y1200D01*
X527Y1200D02*
X545Y1200D01*
X481Y1199D02*
X500Y1199D01*
X527Y1199D02*
X545Y1199D01*
X481Y1198D02*
X500Y1198D01*
X526Y1198D02*
X545Y1198D01*
X481Y1197D02*
X501Y1197D01*
X526Y1197D02*
X545Y1197D01*
X481Y1196D02*
X501Y1196D01*
X525Y1196D02*
X545Y1196D01*
X481Y1195D02*
X502Y1195D01*
X525Y1195D02*
X545Y1195D01*
X481Y1194D02*
X503Y1194D01*
X524Y1194D02*
X545Y1194D01*
X481Y1193D02*
X504Y1193D01*
X523Y1193D02*
X545Y1193D01*
X481Y1192D02*
X505Y1192D01*
X522Y1192D02*
X545Y1192D01*
X481Y1191D02*
X507Y1191D01*
X520Y1191D02*
X545Y1191D01*
X481Y1190D02*
X509Y1190D01*
X517Y1190D02*
X545Y1190D01*
X481Y1189D02*
X545Y1189D01*
X481Y1188D02*
X545Y1188D01*
X481Y1187D02*
X545Y1187D01*
X481Y1186D02*
X545Y1186D01*
X481Y1185D02*
X545Y1185D01*
X481Y1184D02*
X545Y1184D01*
X481Y1183D02*
X545Y1183D01*
X481Y1182D02*
X545Y1182D01*
X481Y1181D02*
X545Y1181D01*
X481Y1180D02*
X545Y1180D01*
X481Y1179D02*
X545Y1179D01*
X481Y1178D02*
X545Y1178D01*
X481Y1177D02*
X545Y1177D01*
X481Y1176D02*
X545Y1176D01*
X481Y1175D02*
X545Y1175D01*
X481Y1174D02*
X545Y1174D01*
X481Y1173D02*
X545Y1173D01*
X481Y1172D02*
X545Y1172D01*
X481Y1171D02*
X545Y1171D01*
X1161Y960D02*
X1207Y960D01*
X1240Y960D02*
X1286Y960D01*
X1319Y960D02*
X1365Y960D01*
X1398Y960D02*
X1443Y960D01*
X1476Y960D02*
X1522Y960D01*
X1555Y960D02*
X1601Y960D01*
X1632Y960D02*
X1677Y960D01*
X1713Y960D02*
X1758Y960D01*
X1161Y959D02*
X1207Y959D01*
X1240Y959D02*
X1286Y959D01*
X1319Y959D02*
X1365Y959D01*
X1397Y959D02*
X1444Y959D01*
X1476Y959D02*
X1522Y959D01*
X1555Y959D02*
X1601Y959D01*
X1631Y959D02*
X1678Y959D01*
X1712Y959D02*
X1759Y959D01*
X1161Y958D02*
X1207Y958D01*
X1240Y958D02*
X1286Y958D01*
X1319Y958D02*
X1365Y958D01*
X1397Y958D02*
X1444Y958D01*
X1476Y958D02*
X1522Y958D01*
X1555Y958D02*
X1601Y958D01*
X1631Y958D02*
X1678Y958D01*
X1712Y958D02*
X1759Y958D01*
X1161Y957D02*
X1207Y957D01*
X1240Y957D02*
X1286Y957D01*
X1319Y957D02*
X1365Y957D01*
X1397Y957D02*
X1444Y957D01*
X1476Y957D02*
X1522Y957D01*
X1555Y957D02*
X1601Y957D01*
X1631Y957D02*
X1678Y957D01*
X1712Y957D02*
X1759Y957D01*
X1161Y956D02*
X1207Y956D01*
X1240Y956D02*
X1286Y956D01*
X1319Y956D02*
X1365Y956D01*
X1397Y956D02*
X1444Y956D01*
X1476Y956D02*
X1522Y956D01*
X1555Y956D02*
X1601Y956D01*
X1631Y956D02*
X1678Y956D01*
X1712Y956D02*
X1759Y956D01*
X1161Y955D02*
X1207Y955D01*
X1240Y955D02*
X1286Y955D01*
X1319Y955D02*
X1365Y955D01*
X1397Y955D02*
X1444Y955D01*
X1476Y955D02*
X1522Y955D01*
X1555Y955D02*
X1601Y955D01*
X1631Y955D02*
X1678Y955D01*
X1712Y955D02*
X1759Y955D01*
X1161Y954D02*
X1207Y954D01*
X1240Y954D02*
X1286Y954D01*
X1319Y954D02*
X1365Y954D01*
X1397Y954D02*
X1444Y954D01*
X1476Y954D02*
X1522Y954D01*
X1555Y954D02*
X1601Y954D01*
X1631Y954D02*
X1678Y954D01*
X1712Y954D02*
X1759Y954D01*
X1161Y953D02*
X1207Y953D01*
X1240Y953D02*
X1286Y953D01*
X1319Y953D02*
X1365Y953D01*
X1397Y953D02*
X1444Y953D01*
X1476Y953D02*
X1522Y953D01*
X1555Y953D02*
X1601Y953D01*
X1631Y953D02*
X1678Y953D01*
X1712Y953D02*
X1759Y953D01*
X1161Y952D02*
X1207Y952D01*
X1240Y952D02*
X1286Y952D01*
X1319Y952D02*
X1365Y952D01*
X1397Y952D02*
X1444Y952D01*
X1476Y952D02*
X1522Y952D01*
X1555Y952D02*
X1601Y952D01*
X1631Y952D02*
X1678Y952D01*
X1712Y952D02*
X1759Y952D01*
X1161Y951D02*
X1207Y951D01*
X1240Y951D02*
X1286Y951D01*
X1319Y951D02*
X1365Y951D01*
X1397Y951D02*
X1444Y951D01*
X1476Y951D02*
X1522Y951D01*
X1555Y951D02*
X1601Y951D01*
X1631Y951D02*
X1678Y951D01*
X1712Y951D02*
X1759Y951D01*
X1161Y950D02*
X1207Y950D01*
X1240Y950D02*
X1286Y950D01*
X1319Y950D02*
X1365Y950D01*
X1397Y950D02*
X1444Y950D01*
X1476Y950D02*
X1522Y950D01*
X1555Y950D02*
X1601Y950D01*
X1631Y950D02*
X1678Y950D01*
X1712Y950D02*
X1759Y950D01*
X1161Y949D02*
X1207Y949D01*
X1240Y949D02*
X1286Y949D01*
X1319Y949D02*
X1365Y949D01*
X1397Y949D02*
X1444Y949D01*
X1476Y949D02*
X1522Y949D01*
X1555Y949D02*
X1601Y949D01*
X1631Y949D02*
X1678Y949D01*
X1712Y949D02*
X1759Y949D01*
X1161Y948D02*
X1207Y948D01*
X1240Y948D02*
X1286Y948D01*
X1319Y948D02*
X1365Y948D01*
X1397Y948D02*
X1444Y948D01*
X1476Y948D02*
X1522Y948D01*
X1555Y948D02*
X1601Y948D01*
X1631Y948D02*
X1678Y948D01*
X1712Y948D02*
X1759Y948D01*
X1161Y947D02*
X1207Y947D01*
X1240Y947D02*
X1286Y947D01*
X1319Y947D02*
X1365Y947D01*
X1397Y947D02*
X1444Y947D01*
X1476Y947D02*
X1522Y947D01*
X1555Y947D02*
X1601Y947D01*
X1631Y947D02*
X1678Y947D01*
X1712Y947D02*
X1759Y947D01*
X1161Y946D02*
X1207Y946D01*
X1240Y946D02*
X1286Y946D01*
X1319Y946D02*
X1365Y946D01*
X1397Y946D02*
X1444Y946D01*
X1476Y946D02*
X1522Y946D01*
X1555Y946D02*
X1601Y946D01*
X1631Y946D02*
X1678Y946D01*
X1712Y946D02*
X1759Y946D01*
X1161Y945D02*
X1207Y945D01*
X1240Y945D02*
X1286Y945D01*
X1319Y945D02*
X1365Y945D01*
X1397Y945D02*
X1444Y945D01*
X1476Y945D02*
X1522Y945D01*
X1555Y945D02*
X1601Y945D01*
X1631Y945D02*
X1678Y945D01*
X1712Y945D02*
X1759Y945D01*
X1161Y944D02*
X1207Y944D01*
X1240Y944D02*
X1286Y944D01*
X1319Y944D02*
X1365Y944D01*
X1397Y944D02*
X1444Y944D01*
X1476Y944D02*
X1522Y944D01*
X1555Y944D02*
X1601Y944D01*
X1631Y944D02*
X1678Y944D01*
X1712Y944D02*
X1759Y944D01*
X1161Y943D02*
X1207Y943D01*
X1240Y943D02*
X1286Y943D01*
X1319Y943D02*
X1365Y943D01*
X1397Y943D02*
X1444Y943D01*
X1476Y943D02*
X1522Y943D01*
X1555Y943D02*
X1601Y943D01*
X1631Y943D02*
X1678Y943D01*
X1712Y943D02*
X1759Y943D01*
X1161Y942D02*
X1207Y942D01*
X1240Y942D02*
X1286Y942D01*
X1319Y942D02*
X1365Y942D01*
X1397Y942D02*
X1444Y942D01*
X1476Y942D02*
X1522Y942D01*
X1555Y942D02*
X1601Y942D01*
X1631Y942D02*
X1678Y942D01*
X1712Y942D02*
X1759Y942D01*
X1161Y941D02*
X1207Y941D01*
X1240Y941D02*
X1286Y941D01*
X1319Y941D02*
X1365Y941D01*
X1397Y941D02*
X1444Y941D01*
X1476Y941D02*
X1522Y941D01*
X1555Y941D02*
X1601Y941D01*
X1631Y941D02*
X1678Y941D01*
X1712Y941D02*
X1759Y941D01*
X1161Y940D02*
X1207Y940D01*
X1240Y940D02*
X1286Y940D01*
X1319Y940D02*
X1365Y940D01*
X1397Y940D02*
X1444Y940D01*
X1476Y940D02*
X1522Y940D01*
X1555Y940D02*
X1601Y940D01*
X1631Y940D02*
X1678Y940D01*
X1712Y940D02*
X1759Y940D01*
X1161Y939D02*
X1207Y939D01*
X1240Y939D02*
X1286Y939D01*
X1319Y939D02*
X1365Y939D01*
X1397Y939D02*
X1444Y939D01*
X1476Y939D02*
X1522Y939D01*
X1555Y939D02*
X1601Y939D01*
X1631Y939D02*
X1678Y939D01*
X1712Y939D02*
X1759Y939D01*
X1161Y938D02*
X1207Y938D01*
X1240Y938D02*
X1286Y938D01*
X1319Y938D02*
X1365Y938D01*
X1397Y938D02*
X1444Y938D01*
X1476Y938D02*
X1522Y938D01*
X1555Y938D02*
X1601Y938D01*
X1631Y938D02*
X1678Y938D01*
X1712Y938D02*
X1759Y938D01*
X1161Y937D02*
X1207Y937D01*
X1240Y937D02*
X1286Y937D01*
X1319Y937D02*
X1365Y937D01*
X1397Y937D02*
X1444Y937D01*
X1476Y937D02*
X1522Y937D01*
X1555Y937D02*
X1601Y937D01*
X1631Y937D02*
X1678Y937D01*
X1712Y937D02*
X1759Y937D01*
X1161Y936D02*
X1207Y936D01*
X1240Y936D02*
X1286Y936D01*
X1319Y936D02*
X1365Y936D01*
X1397Y936D02*
X1444Y936D01*
X1476Y936D02*
X1522Y936D01*
X1555Y936D02*
X1601Y936D01*
X1631Y936D02*
X1678Y936D01*
X1712Y936D02*
X1759Y936D01*
X1161Y935D02*
X1207Y935D01*
X1240Y935D02*
X1286Y935D01*
X1319Y935D02*
X1365Y935D01*
X1397Y935D02*
X1444Y935D01*
X1476Y935D02*
X1522Y935D01*
X1555Y935D02*
X1601Y935D01*
X1631Y935D02*
X1678Y935D01*
X1712Y935D02*
X1759Y935D01*
X1161Y934D02*
X1207Y934D01*
X1240Y934D02*
X1286Y934D01*
X1319Y934D02*
X1365Y934D01*
X1397Y934D02*
X1444Y934D01*
X1476Y934D02*
X1522Y934D01*
X1555Y934D02*
X1601Y934D01*
X1631Y934D02*
X1678Y934D01*
X1712Y934D02*
X1759Y934D01*
X1161Y933D02*
X1207Y933D01*
X1240Y933D02*
X1286Y933D01*
X1319Y933D02*
X1365Y933D01*
X1397Y933D02*
X1444Y933D01*
X1476Y933D02*
X1522Y933D01*
X1555Y933D02*
X1601Y933D01*
X1631Y933D02*
X1678Y933D01*
X1712Y933D02*
X1759Y933D01*
X1161Y932D02*
X1207Y932D01*
X1240Y932D02*
X1286Y932D01*
X1319Y932D02*
X1365Y932D01*
X1397Y932D02*
X1444Y932D01*
X1476Y932D02*
X1522Y932D01*
X1555Y932D02*
X1601Y932D01*
X1631Y932D02*
X1678Y932D01*
X1712Y932D02*
X1759Y932D01*
X1161Y931D02*
X1207Y931D01*
X1240Y931D02*
X1286Y931D01*
X1319Y931D02*
X1365Y931D01*
X1397Y931D02*
X1444Y931D01*
X1476Y931D02*
X1522Y931D01*
X1555Y931D02*
X1601Y931D01*
X1631Y931D02*
X1678Y931D01*
X1712Y931D02*
X1759Y931D01*
X1161Y930D02*
X1207Y930D01*
X1240Y930D02*
X1286Y930D01*
X1319Y930D02*
X1365Y930D01*
X1397Y930D02*
X1444Y930D01*
X1476Y930D02*
X1522Y930D01*
X1555Y930D02*
X1601Y930D01*
X1631Y930D02*
X1678Y930D01*
X1712Y930D02*
X1759Y930D01*
X1161Y929D02*
X1207Y929D01*
X1240Y929D02*
X1286Y929D01*
X1319Y929D02*
X1365Y929D01*
X1397Y929D02*
X1444Y929D01*
X1476Y929D02*
X1522Y929D01*
X1555Y929D02*
X1601Y929D01*
X1631Y929D02*
X1678Y929D01*
X1712Y929D02*
X1759Y929D01*
X1161Y928D02*
X1207Y928D01*
X1240Y928D02*
X1286Y928D01*
X1319Y928D02*
X1365Y928D01*
X1397Y928D02*
X1444Y928D01*
X1476Y928D02*
X1522Y928D01*
X1555Y928D02*
X1601Y928D01*
X1631Y928D02*
X1678Y928D01*
X1712Y928D02*
X1759Y928D01*
X1161Y927D02*
X1207Y927D01*
X1240Y927D02*
X1286Y927D01*
X1319Y927D02*
X1365Y927D01*
X1397Y927D02*
X1444Y927D01*
X1476Y927D02*
X1522Y927D01*
X1555Y927D02*
X1601Y927D01*
X1631Y927D02*
X1678Y927D01*
X1712Y927D02*
X1759Y927D01*
X1161Y926D02*
X1207Y926D01*
X1240Y926D02*
X1286Y926D01*
X1319Y926D02*
X1365Y926D01*
X1397Y926D02*
X1444Y926D01*
X1476Y926D02*
X1522Y926D01*
X1555Y926D02*
X1601Y926D01*
X1631Y926D02*
X1678Y926D01*
X1712Y926D02*
X1759Y926D01*
X1161Y925D02*
X1207Y925D01*
X1240Y925D02*
X1286Y925D01*
X1319Y925D02*
X1365Y925D01*
X1397Y925D02*
X1444Y925D01*
X1476Y925D02*
X1522Y925D01*
X1555Y925D02*
X1601Y925D01*
X1631Y925D02*
X1678Y925D01*
X1712Y925D02*
X1759Y925D01*
X1161Y924D02*
X1207Y924D01*
X1240Y924D02*
X1286Y924D01*
X1319Y924D02*
X1365Y924D01*
X1397Y924D02*
X1444Y924D01*
X1476Y924D02*
X1522Y924D01*
X1555Y924D02*
X1601Y924D01*
X1631Y924D02*
X1678Y924D01*
X1712Y924D02*
X1759Y924D01*
X1161Y923D02*
X1207Y923D01*
X1240Y923D02*
X1286Y923D01*
X1319Y923D02*
X1365Y923D01*
X1397Y923D02*
X1444Y923D01*
X1476Y923D02*
X1522Y923D01*
X1555Y923D02*
X1601Y923D01*
X1631Y923D02*
X1678Y923D01*
X1712Y923D02*
X1759Y923D01*
X1161Y922D02*
X1207Y922D01*
X1240Y922D02*
X1286Y922D01*
X1319Y922D02*
X1365Y922D01*
X1397Y922D02*
X1444Y922D01*
X1476Y922D02*
X1522Y922D01*
X1555Y922D02*
X1601Y922D01*
X1631Y922D02*
X1678Y922D01*
X1712Y922D02*
X1759Y922D01*
X1161Y921D02*
X1207Y921D01*
X1240Y921D02*
X1286Y921D01*
X1319Y921D02*
X1365Y921D01*
X1397Y921D02*
X1444Y921D01*
X1476Y921D02*
X1522Y921D01*
X1555Y921D02*
X1601Y921D01*
X1631Y921D02*
X1678Y921D01*
X1712Y921D02*
X1759Y921D01*
X1161Y920D02*
X1207Y920D01*
X1240Y920D02*
X1286Y920D01*
X1319Y920D02*
X1365Y920D01*
X1397Y920D02*
X1444Y920D01*
X1476Y920D02*
X1522Y920D01*
X1555Y920D02*
X1601Y920D01*
X1631Y920D02*
X1678Y920D01*
X1712Y920D02*
X1759Y920D01*
X1161Y919D02*
X1207Y919D01*
X1240Y919D02*
X1286Y919D01*
X1319Y919D02*
X1365Y919D01*
X1397Y919D02*
X1444Y919D01*
X1476Y919D02*
X1522Y919D01*
X1555Y919D02*
X1601Y919D01*
X1631Y919D02*
X1678Y919D01*
X1712Y919D02*
X1759Y919D01*
X1161Y918D02*
X1207Y918D01*
X1240Y918D02*
X1286Y918D01*
X1319Y918D02*
X1365Y918D01*
X1397Y918D02*
X1444Y918D01*
X1476Y918D02*
X1522Y918D01*
X1555Y918D02*
X1601Y918D01*
X1631Y918D02*
X1678Y918D01*
X1712Y918D02*
X1759Y918D01*
X1161Y917D02*
X1207Y917D01*
X1240Y917D02*
X1286Y917D01*
X1319Y917D02*
X1365Y917D01*
X1397Y917D02*
X1444Y917D01*
X1476Y917D02*
X1522Y917D01*
X1555Y917D02*
X1601Y917D01*
X1631Y917D02*
X1678Y917D01*
X1712Y917D02*
X1759Y917D01*
X1161Y916D02*
X1207Y916D01*
X1240Y916D02*
X1286Y916D01*
X1319Y916D02*
X1365Y916D01*
X1397Y916D02*
X1444Y916D01*
X1476Y916D02*
X1522Y916D01*
X1555Y916D02*
X1601Y916D01*
X1631Y916D02*
X1678Y916D01*
X1712Y916D02*
X1759Y916D01*
X1161Y915D02*
X1207Y915D01*
X1240Y915D02*
X1286Y915D01*
X1319Y915D02*
X1365Y915D01*
X1397Y915D02*
X1444Y915D01*
X1476Y915D02*
X1522Y915D01*
X1555Y915D02*
X1601Y915D01*
X1631Y915D02*
X1678Y915D01*
X1712Y915D02*
X1759Y915D01*
X1161Y914D02*
X1207Y914D01*
X1240Y914D02*
X1286Y914D01*
X1319Y914D02*
X1365Y914D01*
X1397Y914D02*
X1444Y914D01*
X1476Y914D02*
X1522Y914D01*
X1555Y914D02*
X1601Y914D01*
X1631Y914D02*
X1678Y914D01*
X1712Y914D02*
X1759Y914D01*
X1161Y913D02*
X1207Y913D01*
X1240Y913D02*
X1286Y913D01*
X1319Y913D02*
X1365Y913D01*
X1397Y913D02*
X1444Y913D01*
X1476Y913D02*
X1522Y913D01*
X1555Y913D02*
X1601Y913D01*
X1631Y913D02*
X1678Y913D01*
X1712Y913D02*
X1759Y913D01*
X1161Y912D02*
X1207Y912D01*
X1240Y912D02*
X1286Y912D01*
X1319Y912D02*
X1365Y912D01*
X1397Y912D02*
X1444Y912D01*
X1476Y912D02*
X1522Y912D01*
X1555Y912D02*
X1601Y912D01*
X1631Y912D02*
X1678Y912D01*
X1712Y912D02*
X1759Y912D01*
X1161Y911D02*
X1207Y911D01*
X1240Y911D02*
X1286Y911D01*
X1319Y911D02*
X1365Y911D01*
X1397Y911D02*
X1444Y911D01*
X1476Y911D02*
X1522Y911D01*
X1555Y911D02*
X1601Y911D01*
X1631Y911D02*
X1678Y911D01*
X1712Y911D02*
X1759Y911D01*
X1161Y910D02*
X1207Y910D01*
X1240Y910D02*
X1286Y910D01*
X1319Y910D02*
X1365Y910D01*
X1397Y910D02*
X1444Y910D01*
X1476Y910D02*
X1522Y910D01*
X1555Y910D02*
X1601Y910D01*
X1631Y910D02*
X1678Y910D01*
X1712Y910D02*
X1759Y910D01*
X1161Y909D02*
X1207Y909D01*
X1240Y909D02*
X1286Y909D01*
X1319Y909D02*
X1365Y909D01*
X1397Y909D02*
X1444Y909D01*
X1476Y909D02*
X1522Y909D01*
X1555Y909D02*
X1601Y909D01*
X1631Y909D02*
X1678Y909D01*
X1712Y909D02*
X1759Y909D01*
X1161Y908D02*
X1207Y908D01*
X1240Y908D02*
X1286Y908D01*
X1319Y908D02*
X1365Y908D01*
X1397Y908D02*
X1444Y908D01*
X1476Y908D02*
X1522Y908D01*
X1555Y908D02*
X1601Y908D01*
X1631Y908D02*
X1678Y908D01*
X1712Y908D02*
X1759Y908D01*
X1161Y907D02*
X1207Y907D01*
X1240Y907D02*
X1286Y907D01*
X1319Y907D02*
X1365Y907D01*
X1397Y907D02*
X1444Y907D01*
X1476Y907D02*
X1522Y907D01*
X1555Y907D02*
X1601Y907D01*
X1631Y907D02*
X1678Y907D01*
X1712Y907D02*
X1759Y907D01*
X1161Y906D02*
X1207Y906D01*
X1240Y906D02*
X1286Y906D01*
X1319Y906D02*
X1365Y906D01*
X1397Y906D02*
X1444Y906D01*
X1476Y906D02*
X1522Y906D01*
X1555Y906D02*
X1601Y906D01*
X1631Y906D02*
X1678Y906D01*
X1712Y906D02*
X1759Y906D01*
X1161Y905D02*
X1207Y905D01*
X1240Y905D02*
X1286Y905D01*
X1319Y905D02*
X1365Y905D01*
X1397Y905D02*
X1444Y905D01*
X1476Y905D02*
X1522Y905D01*
X1555Y905D02*
X1601Y905D01*
X1631Y905D02*
X1678Y905D01*
X1712Y905D02*
X1759Y905D01*
X1161Y904D02*
X1183Y904D01*
X1186Y904D02*
X1207Y904D01*
X1240Y904D02*
X1262Y904D01*
X1265Y904D02*
X1286Y904D01*
X1319Y904D02*
X1340Y904D01*
X1343Y904D02*
X1365Y904D01*
X1397Y904D02*
X1419Y904D01*
X1422Y904D02*
X1444Y904D01*
X1476Y904D02*
X1498Y904D01*
X1501Y904D02*
X1522Y904D01*
X1555Y904D02*
X1576Y904D01*
X1580Y904D02*
X1601Y904D01*
X1631Y904D02*
X1653Y904D01*
X1656Y904D02*
X1678Y904D01*
X1712Y904D02*
X1734Y904D01*
X1737Y904D02*
X1759Y904D01*
X1161Y903D02*
X1179Y903D01*
X1190Y903D02*
X1207Y903D01*
X1240Y903D02*
X1258Y903D01*
X1269Y903D02*
X1286Y903D01*
X1319Y903D02*
X1336Y903D01*
X1347Y903D02*
X1365Y903D01*
X1397Y903D02*
X1415Y903D01*
X1426Y903D02*
X1444Y903D01*
X1476Y903D02*
X1494Y903D01*
X1505Y903D02*
X1522Y903D01*
X1555Y903D02*
X1572Y903D01*
X1583Y903D02*
X1601Y903D01*
X1631Y903D02*
X1649Y903D01*
X1660Y903D02*
X1678Y903D01*
X1712Y903D02*
X1730Y903D01*
X1741Y903D02*
X1759Y903D01*
X1161Y902D02*
X1177Y902D01*
X1192Y902D02*
X1207Y902D01*
X1240Y902D02*
X1256Y902D01*
X1270Y902D02*
X1286Y902D01*
X1319Y902D02*
X1335Y902D01*
X1349Y902D02*
X1365Y902D01*
X1397Y902D02*
X1413Y902D01*
X1428Y902D02*
X1444Y902D01*
X1476Y902D02*
X1492Y902D01*
X1507Y902D02*
X1522Y902D01*
X1555Y902D02*
X1571Y902D01*
X1585Y902D02*
X1601Y902D01*
X1631Y902D02*
X1647Y902D01*
X1662Y902D02*
X1678Y902D01*
X1712Y902D02*
X1728Y902D01*
X1743Y902D02*
X1759Y902D01*
X1161Y901D02*
X1176Y901D01*
X1193Y901D02*
X1207Y901D01*
X1240Y901D02*
X1255Y901D01*
X1272Y901D02*
X1286Y901D01*
X1319Y901D02*
X1333Y901D01*
X1350Y901D02*
X1365Y901D01*
X1397Y901D02*
X1412Y901D01*
X1429Y901D02*
X1444Y901D01*
X1476Y901D02*
X1491Y901D01*
X1508Y901D02*
X1522Y901D01*
X1555Y901D02*
X1569Y901D01*
X1587Y901D02*
X1601Y901D01*
X1631Y901D02*
X1646Y901D01*
X1663Y901D02*
X1678Y901D01*
X1712Y901D02*
X1727Y901D01*
X1744Y901D02*
X1759Y901D01*
X1161Y900D02*
X1175Y900D01*
X1194Y900D02*
X1207Y900D01*
X1240Y900D02*
X1254Y900D01*
X1273Y900D02*
X1286Y900D01*
X1319Y900D02*
X1332Y900D01*
X1351Y900D02*
X1365Y900D01*
X1397Y900D02*
X1411Y900D01*
X1430Y900D02*
X1444Y900D01*
X1476Y900D02*
X1490Y900D01*
X1509Y900D02*
X1522Y900D01*
X1555Y900D02*
X1568Y900D01*
X1588Y900D02*
X1601Y900D01*
X1631Y900D02*
X1645Y900D01*
X1664Y900D02*
X1678Y900D01*
X1712Y900D02*
X1726Y900D01*
X1745Y900D02*
X1759Y900D01*
X1161Y899D02*
X1174Y899D01*
X1195Y899D02*
X1207Y899D01*
X1240Y899D02*
X1253Y899D01*
X1273Y899D02*
X1286Y899D01*
X1319Y899D02*
X1331Y899D01*
X1352Y899D02*
X1365Y899D01*
X1397Y899D02*
X1410Y899D01*
X1431Y899D02*
X1444Y899D01*
X1476Y899D02*
X1489Y899D01*
X1510Y899D02*
X1522Y899D01*
X1555Y899D02*
X1568Y899D01*
X1588Y899D02*
X1601Y899D01*
X1631Y899D02*
X1644Y899D01*
X1665Y899D02*
X1678Y899D01*
X1712Y899D02*
X1725Y899D01*
X1746Y899D02*
X1759Y899D01*
X1161Y898D02*
X1173Y898D01*
X1195Y898D02*
X1207Y898D01*
X1240Y898D02*
X1252Y898D01*
X1274Y898D02*
X1286Y898D01*
X1319Y898D02*
X1331Y898D01*
X1353Y898D02*
X1365Y898D01*
X1397Y898D02*
X1409Y898D01*
X1431Y898D02*
X1444Y898D01*
X1476Y898D02*
X1488Y898D01*
X1510Y898D02*
X1522Y898D01*
X1555Y898D02*
X1567Y898D01*
X1589Y898D02*
X1601Y898D01*
X1631Y898D02*
X1643Y898D01*
X1665Y898D02*
X1678Y898D01*
X1712Y898D02*
X1724Y898D01*
X1746Y898D02*
X1759Y898D01*
X1161Y897D02*
X1173Y897D01*
X1196Y897D02*
X1207Y897D01*
X1240Y897D02*
X1252Y897D01*
X1275Y897D02*
X1286Y897D01*
X1319Y897D02*
X1330Y897D01*
X1353Y897D02*
X1365Y897D01*
X1397Y897D02*
X1409Y897D01*
X1432Y897D02*
X1444Y897D01*
X1476Y897D02*
X1488Y897D01*
X1511Y897D02*
X1522Y897D01*
X1555Y897D02*
X1566Y897D01*
X1590Y897D02*
X1601Y897D01*
X1631Y897D02*
X1643Y897D01*
X1666Y897D02*
X1678Y897D01*
X1712Y897D02*
X1724Y897D01*
X1747Y897D02*
X1759Y897D01*
X1161Y896D02*
X1172Y896D01*
X1196Y896D02*
X1207Y896D01*
X1240Y896D02*
X1251Y896D01*
X1275Y896D02*
X1286Y896D01*
X1319Y896D02*
X1330Y896D01*
X1354Y896D02*
X1365Y896D01*
X1397Y896D02*
X1409Y896D01*
X1432Y896D02*
X1444Y896D01*
X1476Y896D02*
X1487Y896D01*
X1511Y896D02*
X1522Y896D01*
X1555Y896D02*
X1566Y896D01*
X1590Y896D02*
X1601Y896D01*
X1631Y896D02*
X1643Y896D01*
X1666Y896D02*
X1678Y896D01*
X1712Y896D02*
X1723Y896D01*
X1747Y896D02*
X1759Y896D01*
X1161Y895D02*
X1172Y895D01*
X1197Y895D02*
X1207Y895D01*
X1240Y895D02*
X1251Y895D01*
X1275Y895D02*
X1286Y895D01*
X1319Y895D02*
X1330Y895D01*
X1354Y895D02*
X1365Y895D01*
X1397Y895D02*
X1408Y895D01*
X1433Y895D02*
X1444Y895D01*
X1476Y895D02*
X1487Y895D01*
X1511Y895D02*
X1522Y895D01*
X1555Y895D02*
X1566Y895D01*
X1590Y895D02*
X1601Y895D01*
X1631Y895D02*
X1642Y895D01*
X1667Y895D02*
X1678Y895D01*
X1712Y895D02*
X1723Y895D01*
X1748Y895D02*
X1759Y895D01*
X1161Y894D02*
X1172Y894D01*
X1197Y894D02*
X1207Y894D01*
X1240Y894D02*
X1251Y894D01*
X1276Y894D02*
X1286Y894D01*
X1319Y894D02*
X1329Y894D01*
X1354Y894D02*
X1365Y894D01*
X1397Y894D02*
X1408Y894D01*
X1433Y894D02*
X1444Y894D01*
X1476Y894D02*
X1487Y894D01*
X1512Y894D02*
X1522Y894D01*
X1555Y894D02*
X1566Y894D01*
X1590Y894D02*
X1601Y894D01*
X1631Y894D02*
X1642Y894D01*
X1667Y894D02*
X1678Y894D01*
X1712Y894D02*
X1723Y894D01*
X1748Y894D02*
X1759Y894D01*
X1161Y893D02*
X1172Y893D01*
X1197Y893D02*
X1207Y893D01*
X1240Y893D02*
X1251Y893D01*
X1276Y893D02*
X1286Y893D01*
X1319Y893D02*
X1329Y893D01*
X1354Y893D02*
X1365Y893D01*
X1397Y893D02*
X1408Y893D01*
X1433Y893D02*
X1444Y893D01*
X1476Y893D02*
X1487Y893D01*
X1512Y893D02*
X1522Y893D01*
X1555Y893D02*
X1565Y893D01*
X1591Y893D02*
X1601Y893D01*
X1631Y893D02*
X1642Y893D01*
X1667Y893D02*
X1678Y893D01*
X1712Y893D02*
X1723Y893D01*
X1748Y893D02*
X1759Y893D01*
X1161Y892D02*
X1172Y892D01*
X1197Y892D02*
X1207Y892D01*
X1240Y892D02*
X1250Y892D01*
X1276Y892D02*
X1286Y892D01*
X1319Y892D02*
X1329Y892D01*
X1354Y892D02*
X1365Y892D01*
X1397Y892D02*
X1408Y892D01*
X1433Y892D02*
X1444Y892D01*
X1476Y892D02*
X1487Y892D01*
X1512Y892D02*
X1522Y892D01*
X1555Y892D02*
X1565Y892D01*
X1591Y892D02*
X1601Y892D01*
X1631Y892D02*
X1642Y892D01*
X1667Y892D02*
X1678Y892D01*
X1712Y892D02*
X1723Y892D01*
X1748Y892D02*
X1759Y892D01*
X1161Y891D02*
X1172Y891D01*
X1197Y891D02*
X1207Y891D01*
X1240Y891D02*
X1251Y891D01*
X1276Y891D02*
X1286Y891D01*
X1319Y891D02*
X1329Y891D01*
X1354Y891D02*
X1365Y891D01*
X1397Y891D02*
X1408Y891D01*
X1433Y891D02*
X1444Y891D01*
X1476Y891D02*
X1487Y891D01*
X1512Y891D02*
X1522Y891D01*
X1555Y891D02*
X1565Y891D01*
X1591Y891D02*
X1601Y891D01*
X1631Y891D02*
X1642Y891D01*
X1667Y891D02*
X1678Y891D01*
X1712Y891D02*
X1723Y891D01*
X1748Y891D02*
X1759Y891D01*
X1161Y890D02*
X1172Y890D01*
X1197Y890D02*
X1207Y890D01*
X1240Y890D02*
X1251Y890D01*
X1276Y890D02*
X1286Y890D01*
X1319Y890D02*
X1329Y890D01*
X1354Y890D02*
X1365Y890D01*
X1397Y890D02*
X1408Y890D01*
X1433Y890D02*
X1444Y890D01*
X1476Y890D02*
X1487Y890D01*
X1512Y890D02*
X1522Y890D01*
X1555Y890D02*
X1566Y890D01*
X1590Y890D02*
X1601Y890D01*
X1631Y890D02*
X1642Y890D01*
X1667Y890D02*
X1678Y890D01*
X1712Y890D02*
X1723Y890D01*
X1748Y890D02*
X1759Y890D01*
X1161Y889D02*
X1172Y889D01*
X1197Y889D02*
X1207Y889D01*
X1240Y889D02*
X1251Y889D01*
X1275Y889D02*
X1286Y889D01*
X1319Y889D02*
X1330Y889D01*
X1354Y889D02*
X1365Y889D01*
X1397Y889D02*
X1408Y889D01*
X1433Y889D02*
X1444Y889D01*
X1476Y889D02*
X1487Y889D01*
X1511Y889D02*
X1522Y889D01*
X1555Y889D02*
X1566Y889D01*
X1590Y889D02*
X1601Y889D01*
X1631Y889D02*
X1642Y889D01*
X1667Y889D02*
X1678Y889D01*
X1712Y889D02*
X1723Y889D01*
X1748Y889D02*
X1759Y889D01*
X1161Y888D02*
X1172Y888D01*
X1196Y888D02*
X1207Y888D01*
X1240Y888D02*
X1251Y888D01*
X1275Y888D02*
X1286Y888D01*
X1319Y888D02*
X1330Y888D01*
X1354Y888D02*
X1365Y888D01*
X1397Y888D02*
X1409Y888D01*
X1432Y888D02*
X1444Y888D01*
X1476Y888D02*
X1487Y888D01*
X1511Y888D02*
X1522Y888D01*
X1555Y888D02*
X1566Y888D01*
X1590Y888D02*
X1601Y888D01*
X1631Y888D02*
X1643Y888D01*
X1666Y888D02*
X1678Y888D01*
X1712Y888D02*
X1723Y888D01*
X1747Y888D02*
X1759Y888D01*
X1161Y887D02*
X1173Y887D01*
X1196Y887D02*
X1207Y887D01*
X1240Y887D02*
X1252Y887D01*
X1275Y887D02*
X1286Y887D01*
X1319Y887D02*
X1330Y887D01*
X1353Y887D02*
X1365Y887D01*
X1397Y887D02*
X1409Y887D01*
X1432Y887D02*
X1444Y887D01*
X1476Y887D02*
X1488Y887D01*
X1511Y887D02*
X1522Y887D01*
X1555Y887D02*
X1566Y887D01*
X1590Y887D02*
X1601Y887D01*
X1631Y887D02*
X1643Y887D01*
X1666Y887D02*
X1678Y887D01*
X1712Y887D02*
X1724Y887D01*
X1747Y887D02*
X1759Y887D01*
X1161Y886D02*
X1173Y886D01*
X1195Y886D02*
X1207Y886D01*
X1240Y886D02*
X1252Y886D01*
X1274Y886D02*
X1286Y886D01*
X1319Y886D02*
X1331Y886D01*
X1353Y886D02*
X1365Y886D01*
X1397Y886D02*
X1409Y886D01*
X1431Y886D02*
X1444Y886D01*
X1476Y886D02*
X1488Y886D01*
X1510Y886D02*
X1522Y886D01*
X1555Y886D02*
X1567Y886D01*
X1589Y886D02*
X1601Y886D01*
X1631Y886D02*
X1643Y886D01*
X1665Y886D02*
X1678Y886D01*
X1712Y886D02*
X1724Y886D01*
X1746Y886D02*
X1759Y886D01*
X1161Y885D02*
X1174Y885D01*
X1195Y885D02*
X1207Y885D01*
X1240Y885D02*
X1253Y885D01*
X1273Y885D02*
X1286Y885D01*
X1319Y885D02*
X1331Y885D01*
X1352Y885D02*
X1365Y885D01*
X1397Y885D02*
X1410Y885D01*
X1431Y885D02*
X1444Y885D01*
X1476Y885D02*
X1489Y885D01*
X1510Y885D02*
X1522Y885D01*
X1555Y885D02*
X1568Y885D01*
X1588Y885D02*
X1601Y885D01*
X1631Y885D02*
X1644Y885D01*
X1665Y885D02*
X1678Y885D01*
X1712Y885D02*
X1725Y885D01*
X1746Y885D02*
X1759Y885D01*
X1161Y884D02*
X1175Y884D01*
X1194Y884D02*
X1207Y884D01*
X1240Y884D02*
X1253Y884D01*
X1273Y884D02*
X1286Y884D01*
X1319Y884D02*
X1332Y884D01*
X1351Y884D02*
X1365Y884D01*
X1397Y884D02*
X1411Y884D01*
X1430Y884D02*
X1444Y884D01*
X1476Y884D02*
X1490Y884D01*
X1509Y884D02*
X1522Y884D01*
X1555Y884D02*
X1568Y884D01*
X1588Y884D02*
X1601Y884D01*
X1631Y884D02*
X1645Y884D01*
X1664Y884D02*
X1678Y884D01*
X1712Y884D02*
X1726Y884D01*
X1745Y884D02*
X1759Y884D01*
X1161Y883D02*
X1176Y883D01*
X1193Y883D02*
X1207Y883D01*
X1240Y883D02*
X1254Y883D01*
X1272Y883D02*
X1286Y883D01*
X1319Y883D02*
X1333Y883D01*
X1350Y883D02*
X1365Y883D01*
X1397Y883D02*
X1412Y883D01*
X1429Y883D02*
X1444Y883D01*
X1476Y883D02*
X1491Y883D01*
X1508Y883D02*
X1522Y883D01*
X1555Y883D02*
X1569Y883D01*
X1587Y883D02*
X1601Y883D01*
X1631Y883D02*
X1646Y883D01*
X1663Y883D02*
X1678Y883D01*
X1712Y883D02*
X1727Y883D01*
X1744Y883D02*
X1759Y883D01*
X1161Y882D02*
X1177Y882D01*
X1192Y882D02*
X1207Y882D01*
X1240Y882D02*
X1256Y882D01*
X1270Y882D02*
X1286Y882D01*
X1319Y882D02*
X1334Y882D01*
X1349Y882D02*
X1365Y882D01*
X1397Y882D02*
X1413Y882D01*
X1428Y882D02*
X1444Y882D01*
X1476Y882D02*
X1492Y882D01*
X1507Y882D02*
X1522Y882D01*
X1555Y882D02*
X1571Y882D01*
X1585Y882D02*
X1601Y882D01*
X1631Y882D02*
X1647Y882D01*
X1662Y882D02*
X1678Y882D01*
X1712Y882D02*
X1728Y882D01*
X1743Y882D02*
X1759Y882D01*
X1161Y881D02*
X1179Y881D01*
X1190Y881D02*
X1207Y881D01*
X1240Y881D02*
X1257Y881D01*
X1269Y881D02*
X1286Y881D01*
X1319Y881D02*
X1336Y881D01*
X1347Y881D02*
X1365Y881D01*
X1397Y881D02*
X1415Y881D01*
X1426Y881D02*
X1444Y881D01*
X1476Y881D02*
X1494Y881D01*
X1505Y881D02*
X1522Y881D01*
X1555Y881D02*
X1572Y881D01*
X1584Y881D02*
X1601Y881D01*
X1631Y881D02*
X1649Y881D01*
X1660Y881D02*
X1678Y881D01*
X1712Y881D02*
X1730Y881D01*
X1741Y881D02*
X1759Y881D01*
X1161Y880D02*
X1182Y880D01*
X1186Y880D02*
X1207Y880D01*
X1240Y880D02*
X1261Y880D01*
X1265Y880D02*
X1286Y880D01*
X1319Y880D02*
X1340Y880D01*
X1344Y880D02*
X1365Y880D01*
X1397Y880D02*
X1418Y880D01*
X1423Y880D02*
X1444Y880D01*
X1476Y880D02*
X1497Y880D01*
X1501Y880D02*
X1522Y880D01*
X1555Y880D02*
X1576Y880D01*
X1580Y880D02*
X1601Y880D01*
X1631Y880D02*
X1652Y880D01*
X1657Y880D02*
X1678Y880D01*
X1712Y880D02*
X1733Y880D01*
X1738Y880D02*
X1759Y880D01*
X1161Y879D02*
X1207Y879D01*
X1240Y879D02*
X1286Y879D01*
X1319Y879D02*
X1365Y879D01*
X1397Y879D02*
X1444Y879D01*
X1476Y879D02*
X1522Y879D01*
X1555Y879D02*
X1601Y879D01*
X1631Y879D02*
X1678Y879D01*
X1712Y879D02*
X1759Y879D01*
X1161Y878D02*
X1207Y878D01*
X1240Y878D02*
X1286Y878D01*
X1319Y878D02*
X1365Y878D01*
X1397Y878D02*
X1444Y878D01*
X1476Y878D02*
X1522Y878D01*
X1555Y878D02*
X1601Y878D01*
X1631Y878D02*
X1678Y878D01*
X1712Y878D02*
X1759Y878D01*
X1161Y877D02*
X1207Y877D01*
X1240Y877D02*
X1286Y877D01*
X1319Y877D02*
X1365Y877D01*
X1397Y877D02*
X1444Y877D01*
X1476Y877D02*
X1522Y877D01*
X1555Y877D02*
X1601Y877D01*
X1631Y877D02*
X1678Y877D01*
X1712Y877D02*
X1759Y877D01*
X1161Y876D02*
X1207Y876D01*
X1240Y876D02*
X1286Y876D01*
X1319Y876D02*
X1365Y876D01*
X1397Y876D02*
X1444Y876D01*
X1476Y876D02*
X1522Y876D01*
X1555Y876D02*
X1601Y876D01*
X1631Y876D02*
X1678Y876D01*
X1712Y876D02*
X1759Y876D01*
X1161Y875D02*
X1207Y875D01*
X1240Y875D02*
X1286Y875D01*
X1319Y875D02*
X1365Y875D01*
X1397Y875D02*
X1444Y875D01*
X1476Y875D02*
X1522Y875D01*
X1555Y875D02*
X1601Y875D01*
X1631Y875D02*
X1678Y875D01*
X1712Y875D02*
X1759Y875D01*
X1161Y874D02*
X1207Y874D01*
X1240Y874D02*
X1286Y874D01*
X1319Y874D02*
X1365Y874D01*
X1397Y874D02*
X1444Y874D01*
X1476Y874D02*
X1522Y874D01*
X1555Y874D02*
X1601Y874D01*
X1631Y874D02*
X1678Y874D01*
X1712Y874D02*
X1759Y874D01*
X444Y873D02*
X508Y873D01*
X1161Y873D02*
X1207Y873D01*
X1240Y873D02*
X1286Y873D01*
X1319Y873D02*
X1365Y873D01*
X1397Y873D02*
X1444Y873D01*
X1476Y873D02*
X1522Y873D01*
X1555Y873D02*
X1601Y873D01*
X1631Y873D02*
X1678Y873D01*
X1712Y873D02*
X1759Y873D01*
X444Y872D02*
X508Y872D01*
X1161Y872D02*
X1207Y872D01*
X1240Y872D02*
X1286Y872D01*
X1319Y872D02*
X1365Y872D01*
X1397Y872D02*
X1444Y872D01*
X1476Y872D02*
X1522Y872D01*
X1555Y872D02*
X1601Y872D01*
X1631Y872D02*
X1677Y872D01*
X1712Y872D02*
X1758Y872D01*
X444Y871D02*
X508Y871D01*
X444Y870D02*
X508Y870D01*
X444Y869D02*
X508Y869D01*
X444Y868D02*
X508Y868D01*
X444Y867D02*
X508Y867D01*
X444Y866D02*
X508Y866D01*
X444Y865D02*
X508Y865D01*
X444Y864D02*
X508Y864D01*
X444Y863D02*
X508Y863D01*
X444Y862D02*
X508Y862D01*
X444Y861D02*
X508Y861D01*
X444Y860D02*
X508Y860D01*
X444Y859D02*
X508Y859D01*
X444Y858D02*
X508Y858D01*
X444Y857D02*
X508Y857D01*
X444Y856D02*
X508Y856D01*
X444Y855D02*
X508Y855D01*
X444Y854D02*
X471Y854D01*
X480Y854D02*
X508Y854D01*
X444Y853D02*
X469Y853D01*
X483Y853D02*
X508Y853D01*
X444Y852D02*
X467Y852D01*
X484Y852D02*
X508Y852D01*
X444Y851D02*
X466Y851D01*
X486Y851D02*
X508Y851D01*
X444Y850D02*
X465Y850D01*
X487Y850D02*
X508Y850D01*
X444Y849D02*
X464Y849D01*
X487Y849D02*
X508Y849D01*
X444Y848D02*
X463Y848D01*
X488Y848D02*
X508Y848D01*
X444Y847D02*
X463Y847D01*
X489Y847D02*
X508Y847D01*
X444Y846D02*
X463Y846D01*
X489Y846D02*
X508Y846D01*
X444Y845D02*
X462Y845D01*
X489Y845D02*
X508Y845D01*
X444Y844D02*
X462Y844D01*
X490Y844D02*
X508Y844D01*
X444Y843D02*
X462Y843D01*
X490Y843D02*
X508Y843D01*
X444Y842D02*
X462Y842D01*
X490Y842D02*
X508Y842D01*
X444Y841D02*
X461Y841D01*
X490Y841D02*
X508Y841D01*
X444Y840D02*
X462Y840D01*
X490Y840D02*
X508Y840D01*
X444Y839D02*
X462Y839D01*
X490Y839D02*
X508Y839D01*
X444Y838D02*
X462Y838D01*
X490Y838D02*
X508Y838D01*
X444Y837D02*
X462Y837D01*
X489Y837D02*
X508Y837D01*
X444Y836D02*
X462Y836D01*
X489Y836D02*
X508Y836D01*
X444Y835D02*
X463Y835D01*
X489Y835D02*
X508Y835D01*
X444Y834D02*
X463Y834D01*
X488Y834D02*
X508Y834D01*
X444Y833D02*
X464Y833D01*
X487Y833D02*
X508Y833D01*
X444Y832D02*
X465Y832D01*
X487Y832D02*
X508Y832D01*
X444Y831D02*
X466Y831D01*
X486Y831D02*
X508Y831D01*
X444Y830D02*
X467Y830D01*
X484Y830D02*
X508Y830D01*
X444Y829D02*
X468Y829D01*
X483Y829D02*
X508Y829D01*
X444Y828D02*
X471Y828D01*
X481Y828D02*
X508Y828D01*
X444Y827D02*
X508Y827D01*
X444Y826D02*
X508Y826D01*
X444Y825D02*
X508Y825D01*
X444Y824D02*
X508Y824D01*
X444Y823D02*
X508Y823D01*
X444Y822D02*
X508Y822D01*
X444Y821D02*
X508Y821D01*
X444Y820D02*
X508Y820D01*
X444Y819D02*
X508Y819D01*
X444Y818D02*
X508Y818D01*
X444Y817D02*
X508Y817D01*
X444Y816D02*
X508Y816D01*
X444Y815D02*
X508Y815D01*
X444Y814D02*
X508Y814D01*
X444Y813D02*
X508Y813D01*
X444Y812D02*
X508Y812D01*
X444Y811D02*
X508Y811D01*
X444Y810D02*
X508Y810D01*
X444Y809D02*
X508Y809D01*
X1161Y340D02*
X1207Y340D01*
X1240Y340D02*
X1286Y340D01*
X1319Y340D02*
X1365Y340D01*
X1397Y340D02*
X1444Y340D01*
X1476Y340D02*
X1522Y340D01*
X1555Y340D02*
X1601Y340D01*
X1631Y340D02*
X1677Y340D01*
X1712Y340D02*
X1759Y340D01*
X1161Y339D02*
X1207Y339D01*
X1240Y339D02*
X1286Y339D01*
X1319Y339D02*
X1365Y339D01*
X1397Y339D02*
X1444Y339D01*
X1476Y339D02*
X1522Y339D01*
X1555Y339D02*
X1601Y339D01*
X1631Y339D02*
X1678Y339D01*
X1712Y339D02*
X1759Y339D01*
X1161Y338D02*
X1207Y338D01*
X1240Y338D02*
X1286Y338D01*
X1319Y338D02*
X1365Y338D01*
X1397Y338D02*
X1444Y338D01*
X1476Y338D02*
X1522Y338D01*
X1555Y338D02*
X1601Y338D01*
X1631Y338D02*
X1678Y338D01*
X1712Y338D02*
X1759Y338D01*
X1161Y337D02*
X1207Y337D01*
X1240Y337D02*
X1286Y337D01*
X1319Y337D02*
X1365Y337D01*
X1397Y337D02*
X1444Y337D01*
X1476Y337D02*
X1522Y337D01*
X1555Y337D02*
X1601Y337D01*
X1631Y337D02*
X1678Y337D01*
X1712Y337D02*
X1759Y337D01*
X1161Y336D02*
X1207Y336D01*
X1240Y336D02*
X1286Y336D01*
X1319Y336D02*
X1365Y336D01*
X1397Y336D02*
X1444Y336D01*
X1476Y336D02*
X1522Y336D01*
X1555Y336D02*
X1601Y336D01*
X1631Y336D02*
X1678Y336D01*
X1712Y336D02*
X1759Y336D01*
X1161Y335D02*
X1207Y335D01*
X1240Y335D02*
X1286Y335D01*
X1319Y335D02*
X1365Y335D01*
X1397Y335D02*
X1444Y335D01*
X1476Y335D02*
X1522Y335D01*
X1555Y335D02*
X1601Y335D01*
X1631Y335D02*
X1678Y335D01*
X1712Y335D02*
X1759Y335D01*
X1161Y334D02*
X1207Y334D01*
X1240Y334D02*
X1286Y334D01*
X1319Y334D02*
X1365Y334D01*
X1397Y334D02*
X1444Y334D01*
X1476Y334D02*
X1522Y334D01*
X1555Y334D02*
X1601Y334D01*
X1631Y334D02*
X1678Y334D01*
X1712Y334D02*
X1759Y334D01*
X1161Y333D02*
X1207Y333D01*
X1240Y333D02*
X1286Y333D01*
X1319Y333D02*
X1365Y333D01*
X1397Y333D02*
X1444Y333D01*
X1476Y333D02*
X1522Y333D01*
X1555Y333D02*
X1601Y333D01*
X1631Y333D02*
X1678Y333D01*
X1712Y333D02*
X1759Y333D01*
X1161Y332D02*
X1182Y332D01*
X1187Y332D02*
X1207Y332D01*
X1240Y332D02*
X1261Y332D01*
X1265Y332D02*
X1286Y332D01*
X1319Y332D02*
X1339Y332D01*
X1345Y332D02*
X1365Y332D01*
X1397Y332D02*
X1418Y332D01*
X1423Y332D02*
X1444Y332D01*
X1476Y332D02*
X1496Y332D01*
X1502Y332D02*
X1522Y332D01*
X1555Y332D02*
X1576Y332D01*
X1580Y332D02*
X1601Y332D01*
X1631Y332D02*
X1652Y332D01*
X1657Y332D02*
X1678Y332D01*
X1712Y332D02*
X1733Y332D01*
X1738Y332D02*
X1759Y332D01*
X1161Y331D02*
X1179Y331D01*
X1190Y331D02*
X1207Y331D01*
X1240Y331D02*
X1258Y331D01*
X1269Y331D02*
X1286Y331D01*
X1319Y331D02*
X1336Y331D01*
X1348Y331D02*
X1365Y331D01*
X1397Y331D02*
X1415Y331D01*
X1426Y331D02*
X1444Y331D01*
X1476Y331D02*
X1494Y331D01*
X1505Y331D02*
X1522Y331D01*
X1555Y331D02*
X1572Y331D01*
X1584Y331D02*
X1601Y331D01*
X1631Y331D02*
X1649Y331D01*
X1660Y331D02*
X1678Y331D01*
X1712Y331D02*
X1730Y331D01*
X1741Y331D02*
X1759Y331D01*
X1161Y330D02*
X1177Y330D01*
X1192Y330D02*
X1207Y330D01*
X1240Y330D02*
X1256Y330D01*
X1271Y330D02*
X1286Y330D01*
X1319Y330D02*
X1334Y330D01*
X1349Y330D02*
X1365Y330D01*
X1397Y330D02*
X1413Y330D01*
X1428Y330D02*
X1444Y330D01*
X1476Y330D02*
X1492Y330D01*
X1507Y330D02*
X1522Y330D01*
X1555Y330D02*
X1571Y330D01*
X1585Y330D02*
X1601Y330D01*
X1631Y330D02*
X1647Y330D01*
X1662Y330D02*
X1678Y330D01*
X1712Y330D02*
X1728Y330D01*
X1743Y330D02*
X1759Y330D01*
X1161Y329D02*
X1176Y329D01*
X1193Y329D02*
X1207Y329D01*
X1240Y329D02*
X1255Y329D01*
X1272Y329D02*
X1286Y329D01*
X1319Y329D02*
X1333Y329D01*
X1351Y329D02*
X1365Y329D01*
X1397Y329D02*
X1412Y329D01*
X1429Y329D02*
X1444Y329D01*
X1476Y329D02*
X1491Y329D01*
X1508Y329D02*
X1522Y329D01*
X1555Y329D02*
X1569Y329D01*
X1587Y329D02*
X1601Y329D01*
X1631Y329D02*
X1646Y329D01*
X1663Y329D02*
X1678Y329D01*
X1712Y329D02*
X1727Y329D01*
X1744Y329D02*
X1759Y329D01*
X1161Y328D02*
X1175Y328D01*
X1194Y328D02*
X1207Y328D01*
X1240Y328D02*
X1254Y328D01*
X1273Y328D02*
X1286Y328D01*
X1319Y328D02*
X1332Y328D01*
X1352Y328D02*
X1365Y328D01*
X1397Y328D02*
X1411Y328D01*
X1430Y328D02*
X1444Y328D01*
X1476Y328D02*
X1490Y328D01*
X1509Y328D02*
X1522Y328D01*
X1555Y328D02*
X1568Y328D01*
X1588Y328D02*
X1601Y328D01*
X1631Y328D02*
X1645Y328D01*
X1664Y328D02*
X1678Y328D01*
X1712Y328D02*
X1726Y328D01*
X1745Y328D02*
X1759Y328D01*
X1161Y327D02*
X1174Y327D01*
X1195Y327D02*
X1207Y327D01*
X1240Y327D02*
X1253Y327D01*
X1274Y327D02*
X1286Y327D01*
X1319Y327D02*
X1331Y327D01*
X1352Y327D02*
X1365Y327D01*
X1397Y327D02*
X1410Y327D01*
X1431Y327D02*
X1444Y327D01*
X1476Y327D02*
X1489Y327D01*
X1510Y327D02*
X1522Y327D01*
X1555Y327D02*
X1568Y327D01*
X1588Y327D02*
X1601Y327D01*
X1631Y327D02*
X1644Y327D01*
X1665Y327D02*
X1678Y327D01*
X1712Y327D02*
X1725Y327D01*
X1746Y327D02*
X1759Y327D01*
X1161Y326D02*
X1173Y326D01*
X1195Y326D02*
X1207Y326D01*
X1240Y326D02*
X1252Y326D01*
X1274Y326D02*
X1286Y326D01*
X1319Y326D02*
X1331Y326D01*
X1353Y326D02*
X1365Y326D01*
X1397Y326D02*
X1410Y326D01*
X1432Y326D02*
X1444Y326D01*
X1476Y326D02*
X1488Y326D01*
X1510Y326D02*
X1522Y326D01*
X1555Y326D02*
X1567Y326D01*
X1589Y326D02*
X1601Y326D01*
X1631Y326D02*
X1643Y326D01*
X1665Y326D02*
X1678Y326D01*
X1712Y326D02*
X1724Y326D01*
X1747Y326D02*
X1759Y326D01*
X1161Y325D02*
X1173Y325D01*
X1196Y325D02*
X1207Y325D01*
X1240Y325D02*
X1252Y325D01*
X1275Y325D02*
X1286Y325D01*
X1319Y325D02*
X1330Y325D01*
X1354Y325D02*
X1365Y325D01*
X1397Y325D02*
X1409Y325D01*
X1432Y325D02*
X1444Y325D01*
X1476Y325D02*
X1488Y325D01*
X1511Y325D02*
X1522Y325D01*
X1555Y325D02*
X1566Y325D01*
X1590Y325D02*
X1601Y325D01*
X1631Y325D02*
X1643Y325D01*
X1666Y325D02*
X1678Y325D01*
X1712Y325D02*
X1724Y325D01*
X1747Y325D02*
X1759Y325D01*
X1161Y324D02*
X1172Y324D01*
X1196Y324D02*
X1207Y324D01*
X1240Y324D02*
X1251Y324D01*
X1275Y324D02*
X1286Y324D01*
X1319Y324D02*
X1330Y324D01*
X1354Y324D02*
X1365Y324D01*
X1397Y324D02*
X1409Y324D01*
X1433Y324D02*
X1444Y324D01*
X1476Y324D02*
X1487Y324D01*
X1511Y324D02*
X1522Y324D01*
X1555Y324D02*
X1566Y324D01*
X1590Y324D02*
X1601Y324D01*
X1631Y324D02*
X1643Y324D01*
X1666Y324D02*
X1678Y324D01*
X1712Y324D02*
X1724Y324D01*
X1747Y324D02*
X1759Y324D01*
X1161Y323D02*
X1172Y323D01*
X1197Y323D02*
X1207Y323D01*
X1240Y323D02*
X1251Y323D01*
X1275Y323D02*
X1286Y323D01*
X1319Y323D02*
X1330Y323D01*
X1354Y323D02*
X1365Y323D01*
X1397Y323D02*
X1408Y323D01*
X1433Y323D02*
X1444Y323D01*
X1476Y323D02*
X1487Y323D01*
X1512Y323D02*
X1522Y323D01*
X1555Y323D02*
X1566Y323D01*
X1590Y323D02*
X1601Y323D01*
X1631Y323D02*
X1642Y323D01*
X1667Y323D02*
X1678Y323D01*
X1712Y323D02*
X1723Y323D01*
X1748Y323D02*
X1759Y323D01*
X1161Y322D02*
X1172Y322D01*
X1197Y322D02*
X1207Y322D01*
X1240Y322D02*
X1251Y322D01*
X1276Y322D02*
X1286Y322D01*
X1319Y322D02*
X1329Y322D01*
X1354Y322D02*
X1365Y322D01*
X1397Y322D02*
X1408Y322D01*
X1433Y322D02*
X1444Y322D01*
X1476Y322D02*
X1487Y322D01*
X1512Y322D02*
X1522Y322D01*
X1555Y322D02*
X1566Y322D01*
X1590Y322D02*
X1601Y322D01*
X1631Y322D02*
X1642Y322D01*
X1667Y322D02*
X1678Y322D01*
X1712Y322D02*
X1723Y322D01*
X1748Y322D02*
X1759Y322D01*
X1161Y321D02*
X1172Y321D01*
X1197Y321D02*
X1207Y321D01*
X1240Y321D02*
X1251Y321D01*
X1276Y321D02*
X1286Y321D01*
X1319Y321D02*
X1329Y321D01*
X1354Y321D02*
X1365Y321D01*
X1397Y321D02*
X1408Y321D01*
X1433Y321D02*
X1444Y321D01*
X1476Y321D02*
X1487Y321D01*
X1512Y321D02*
X1522Y321D01*
X1555Y321D02*
X1565Y321D01*
X1591Y321D02*
X1601Y321D01*
X1631Y321D02*
X1642Y321D01*
X1667Y321D02*
X1678Y321D01*
X1712Y321D02*
X1723Y321D01*
X1748Y321D02*
X1759Y321D01*
X1161Y320D02*
X1172Y320D01*
X1197Y320D02*
X1207Y320D01*
X1240Y320D02*
X1251Y320D01*
X1276Y320D02*
X1286Y320D01*
X1319Y320D02*
X1329Y320D01*
X1355Y320D02*
X1365Y320D01*
X1397Y320D02*
X1408Y320D01*
X1433Y320D02*
X1444Y320D01*
X1476Y320D02*
X1487Y320D01*
X1512Y320D02*
X1522Y320D01*
X1555Y320D02*
X1565Y320D01*
X1591Y320D02*
X1601Y320D01*
X1631Y320D02*
X1642Y320D01*
X1667Y320D02*
X1678Y320D01*
X1712Y320D02*
X1723Y320D01*
X1748Y320D02*
X1759Y320D01*
X1161Y319D02*
X1172Y319D01*
X1197Y319D02*
X1207Y319D01*
X1240Y319D02*
X1251Y319D01*
X1276Y319D02*
X1286Y319D01*
X1319Y319D02*
X1329Y319D01*
X1354Y319D02*
X1365Y319D01*
X1397Y319D02*
X1408Y319D01*
X1433Y319D02*
X1444Y319D01*
X1476Y319D02*
X1487Y319D01*
X1512Y319D02*
X1522Y319D01*
X1555Y319D02*
X1565Y319D01*
X1591Y319D02*
X1601Y319D01*
X1631Y319D02*
X1642Y319D01*
X1667Y319D02*
X1678Y319D01*
X1712Y319D02*
X1723Y319D01*
X1748Y319D02*
X1759Y319D01*
X1161Y318D02*
X1172Y318D01*
X1197Y318D02*
X1207Y318D01*
X1240Y318D02*
X1251Y318D01*
X1276Y318D02*
X1286Y318D01*
X1319Y318D02*
X1329Y318D01*
X1354Y318D02*
X1365Y318D01*
X1397Y318D02*
X1408Y318D01*
X1433Y318D02*
X1444Y318D01*
X1476Y318D02*
X1487Y318D01*
X1512Y318D02*
X1522Y318D01*
X1555Y318D02*
X1566Y318D01*
X1590Y318D02*
X1601Y318D01*
X1631Y318D02*
X1642Y318D01*
X1667Y318D02*
X1678Y318D01*
X1712Y318D02*
X1723Y318D01*
X1748Y318D02*
X1759Y318D01*
X1161Y317D02*
X1172Y317D01*
X1197Y317D02*
X1207Y317D01*
X1240Y317D02*
X1251Y317D01*
X1275Y317D02*
X1286Y317D01*
X1319Y317D02*
X1330Y317D01*
X1354Y317D02*
X1365Y317D01*
X1397Y317D02*
X1408Y317D01*
X1433Y317D02*
X1444Y317D01*
X1476Y317D02*
X1487Y317D01*
X1512Y317D02*
X1522Y317D01*
X1555Y317D02*
X1566Y317D01*
X1590Y317D02*
X1601Y317D01*
X1631Y317D02*
X1642Y317D01*
X1667Y317D02*
X1678Y317D01*
X1712Y317D02*
X1723Y317D01*
X1748Y317D02*
X1759Y317D01*
X1161Y316D02*
X1172Y316D01*
X1196Y316D02*
X1207Y316D01*
X1240Y316D02*
X1251Y316D01*
X1275Y316D02*
X1286Y316D01*
X1319Y316D02*
X1330Y316D01*
X1354Y316D02*
X1365Y316D01*
X1397Y316D02*
X1409Y316D01*
X1432Y316D02*
X1444Y316D01*
X1476Y316D02*
X1487Y316D01*
X1511Y316D02*
X1522Y316D01*
X1555Y316D02*
X1566Y316D01*
X1590Y316D02*
X1601Y316D01*
X1631Y316D02*
X1643Y316D01*
X1666Y316D02*
X1678Y316D01*
X1712Y316D02*
X1724Y316D01*
X1747Y316D02*
X1759Y316D01*
X1161Y315D02*
X1173Y315D01*
X1196Y315D02*
X1207Y315D01*
X1240Y315D02*
X1252Y315D01*
X1275Y315D02*
X1286Y315D01*
X1319Y315D02*
X1330Y315D01*
X1353Y315D02*
X1365Y315D01*
X1397Y315D02*
X1409Y315D01*
X1432Y315D02*
X1444Y315D01*
X1476Y315D02*
X1488Y315D01*
X1511Y315D02*
X1522Y315D01*
X1555Y315D02*
X1566Y315D01*
X1589Y315D02*
X1601Y315D01*
X1631Y315D02*
X1643Y315D01*
X1666Y315D02*
X1678Y315D01*
X1712Y315D02*
X1724Y315D01*
X1747Y315D02*
X1759Y315D01*
X1161Y314D02*
X1173Y314D01*
X1195Y314D02*
X1207Y314D01*
X1240Y314D02*
X1252Y314D01*
X1274Y314D02*
X1286Y314D01*
X1319Y314D02*
X1331Y314D01*
X1353Y314D02*
X1365Y314D01*
X1397Y314D02*
X1410Y314D01*
X1432Y314D02*
X1444Y314D01*
X1476Y314D02*
X1488Y314D01*
X1510Y314D02*
X1522Y314D01*
X1555Y314D02*
X1567Y314D01*
X1589Y314D02*
X1601Y314D01*
X1631Y314D02*
X1643Y314D01*
X1665Y314D02*
X1678Y314D01*
X1712Y314D02*
X1725Y314D01*
X1746Y314D02*
X1759Y314D01*
X1161Y313D02*
X1174Y313D01*
X1195Y313D02*
X1207Y313D01*
X1240Y313D02*
X1253Y313D01*
X1274Y313D02*
X1286Y313D01*
X1319Y313D02*
X1332Y313D01*
X1352Y313D02*
X1365Y313D01*
X1397Y313D02*
X1410Y313D01*
X1431Y313D02*
X1444Y313D01*
X1476Y313D02*
X1489Y313D01*
X1510Y313D02*
X1522Y313D01*
X1555Y313D02*
X1568Y313D01*
X1588Y313D02*
X1601Y313D01*
X1631Y313D02*
X1644Y313D01*
X1665Y313D02*
X1678Y313D01*
X1712Y313D02*
X1725Y313D01*
X1746Y313D02*
X1759Y313D01*
X1161Y312D02*
X1175Y312D01*
X1194Y312D02*
X1207Y312D01*
X1240Y312D02*
X1254Y312D01*
X1273Y312D02*
X1286Y312D01*
X1319Y312D02*
X1332Y312D01*
X1351Y312D02*
X1365Y312D01*
X1397Y312D02*
X1411Y312D01*
X1430Y312D02*
X1444Y312D01*
X1476Y312D02*
X1490Y312D01*
X1509Y312D02*
X1522Y312D01*
X1555Y312D02*
X1568Y312D01*
X1587Y312D02*
X1601Y312D01*
X1631Y312D02*
X1645Y312D01*
X1664Y312D02*
X1678Y312D01*
X1712Y312D02*
X1726Y312D01*
X1745Y312D02*
X1759Y312D01*
X1161Y311D02*
X1176Y311D01*
X1193Y311D02*
X1207Y311D01*
X1240Y311D02*
X1255Y311D01*
X1272Y311D02*
X1286Y311D01*
X1319Y311D02*
X1333Y311D01*
X1350Y311D02*
X1365Y311D01*
X1397Y311D02*
X1412Y311D01*
X1429Y311D02*
X1444Y311D01*
X1476Y311D02*
X1491Y311D01*
X1508Y311D02*
X1522Y311D01*
X1555Y311D02*
X1569Y311D01*
X1586Y311D02*
X1601Y311D01*
X1631Y311D02*
X1646Y311D01*
X1663Y311D02*
X1678Y311D01*
X1712Y311D02*
X1727Y311D01*
X1744Y311D02*
X1759Y311D01*
X1161Y310D02*
X1177Y310D01*
X1192Y310D02*
X1207Y310D01*
X1240Y310D02*
X1256Y310D01*
X1270Y310D02*
X1286Y310D01*
X1319Y310D02*
X1335Y310D01*
X1349Y310D02*
X1365Y310D01*
X1397Y310D02*
X1413Y310D01*
X1428Y310D02*
X1444Y310D01*
X1476Y310D02*
X1492Y310D01*
X1507Y310D02*
X1522Y310D01*
X1555Y310D02*
X1571Y310D01*
X1585Y310D02*
X1601Y310D01*
X1631Y310D02*
X1647Y310D01*
X1662Y310D02*
X1678Y310D01*
X1712Y310D02*
X1728Y310D01*
X1743Y310D02*
X1759Y310D01*
X1161Y309D02*
X1179Y309D01*
X1190Y309D02*
X1207Y309D01*
X1240Y309D02*
X1258Y309D01*
X1269Y309D02*
X1286Y309D01*
X1319Y309D02*
X1337Y309D01*
X1347Y309D02*
X1365Y309D01*
X1397Y309D02*
X1415Y309D01*
X1426Y309D02*
X1444Y309D01*
X1476Y309D02*
X1494Y309D01*
X1505Y309D02*
X1522Y309D01*
X1555Y309D02*
X1572Y309D01*
X1583Y309D02*
X1601Y309D01*
X1631Y309D02*
X1649Y309D01*
X1660Y309D02*
X1678Y309D01*
X1712Y309D02*
X1730Y309D01*
X1741Y309D02*
X1759Y309D01*
X1161Y308D02*
X1183Y308D01*
X1186Y308D02*
X1207Y308D01*
X1240Y308D02*
X1262Y308D01*
X1265Y308D02*
X1286Y308D01*
X1319Y308D02*
X1341Y308D01*
X1343Y308D02*
X1365Y308D01*
X1397Y308D02*
X1444Y308D01*
X1476Y308D02*
X1522Y308D01*
X1555Y308D02*
X1577Y308D01*
X1579Y308D02*
X1601Y308D01*
X1631Y308D02*
X1653Y308D01*
X1656Y308D02*
X1678Y308D01*
X1712Y308D02*
X1759Y308D01*
X1161Y307D02*
X1207Y307D01*
X1240Y307D02*
X1286Y307D01*
X1319Y307D02*
X1365Y307D01*
X1397Y307D02*
X1444Y307D01*
X1476Y307D02*
X1522Y307D01*
X1555Y307D02*
X1601Y307D01*
X1631Y307D02*
X1678Y307D01*
X1712Y307D02*
X1759Y307D01*
X1161Y306D02*
X1207Y306D01*
X1240Y306D02*
X1286Y306D01*
X1319Y306D02*
X1365Y306D01*
X1397Y306D02*
X1444Y306D01*
X1476Y306D02*
X1522Y306D01*
X1555Y306D02*
X1601Y306D01*
X1631Y306D02*
X1678Y306D01*
X1712Y306D02*
X1759Y306D01*
X1161Y305D02*
X1207Y305D01*
X1240Y305D02*
X1286Y305D01*
X1319Y305D02*
X1365Y305D01*
X1397Y305D02*
X1444Y305D01*
X1476Y305D02*
X1522Y305D01*
X1555Y305D02*
X1601Y305D01*
X1631Y305D02*
X1678Y305D01*
X1712Y305D02*
X1759Y305D01*
X1161Y304D02*
X1207Y304D01*
X1240Y304D02*
X1286Y304D01*
X1319Y304D02*
X1365Y304D01*
X1397Y304D02*
X1444Y304D01*
X1476Y304D02*
X1522Y304D01*
X1555Y304D02*
X1601Y304D01*
X1631Y304D02*
X1678Y304D01*
X1712Y304D02*
X1759Y304D01*
X1161Y303D02*
X1207Y303D01*
X1240Y303D02*
X1286Y303D01*
X1319Y303D02*
X1365Y303D01*
X1397Y303D02*
X1444Y303D01*
X1476Y303D02*
X1522Y303D01*
X1555Y303D02*
X1601Y303D01*
X1631Y303D02*
X1678Y303D01*
X1712Y303D02*
X1759Y303D01*
X1161Y302D02*
X1207Y302D01*
X1240Y302D02*
X1286Y302D01*
X1319Y302D02*
X1365Y302D01*
X1397Y302D02*
X1444Y302D01*
X1476Y302D02*
X1522Y302D01*
X1555Y302D02*
X1601Y302D01*
X1631Y302D02*
X1678Y302D01*
X1712Y302D02*
X1759Y302D01*
X1161Y301D02*
X1207Y301D01*
X1240Y301D02*
X1286Y301D01*
X1319Y301D02*
X1365Y301D01*
X1397Y301D02*
X1444Y301D01*
X1476Y301D02*
X1522Y301D01*
X1555Y301D02*
X1601Y301D01*
X1631Y301D02*
X1678Y301D01*
X1712Y301D02*
X1759Y301D01*
X1161Y300D02*
X1207Y300D01*
X1240Y300D02*
X1286Y300D01*
X1319Y300D02*
X1365Y300D01*
X1397Y300D02*
X1444Y300D01*
X1476Y300D02*
X1522Y300D01*
X1555Y300D02*
X1601Y300D01*
X1631Y300D02*
X1678Y300D01*
X1712Y300D02*
X1759Y300D01*
X1161Y299D02*
X1207Y299D01*
X1240Y299D02*
X1286Y299D01*
X1319Y299D02*
X1365Y299D01*
X1397Y299D02*
X1444Y299D01*
X1476Y299D02*
X1522Y299D01*
X1555Y299D02*
X1601Y299D01*
X1631Y299D02*
X1678Y299D01*
X1712Y299D02*
X1759Y299D01*
X1161Y298D02*
X1207Y298D01*
X1240Y298D02*
X1286Y298D01*
X1319Y298D02*
X1365Y298D01*
X1397Y298D02*
X1444Y298D01*
X1476Y298D02*
X1522Y298D01*
X1555Y298D02*
X1601Y298D01*
X1631Y298D02*
X1678Y298D01*
X1712Y298D02*
X1759Y298D01*
X1161Y297D02*
X1207Y297D01*
X1240Y297D02*
X1286Y297D01*
X1319Y297D02*
X1365Y297D01*
X1397Y297D02*
X1444Y297D01*
X1476Y297D02*
X1522Y297D01*
X1555Y297D02*
X1601Y297D01*
X1631Y297D02*
X1678Y297D01*
X1712Y297D02*
X1759Y297D01*
X1161Y296D02*
X1207Y296D01*
X1240Y296D02*
X1286Y296D01*
X1319Y296D02*
X1365Y296D01*
X1397Y296D02*
X1444Y296D01*
X1476Y296D02*
X1522Y296D01*
X1555Y296D02*
X1601Y296D01*
X1631Y296D02*
X1678Y296D01*
X1712Y296D02*
X1759Y296D01*
X1161Y295D02*
X1207Y295D01*
X1240Y295D02*
X1286Y295D01*
X1319Y295D02*
X1365Y295D01*
X1397Y295D02*
X1444Y295D01*
X1476Y295D02*
X1522Y295D01*
X1555Y295D02*
X1601Y295D01*
X1631Y295D02*
X1678Y295D01*
X1712Y295D02*
X1759Y295D01*
X1161Y294D02*
X1207Y294D01*
X1240Y294D02*
X1286Y294D01*
X1319Y294D02*
X1365Y294D01*
X1397Y294D02*
X1444Y294D01*
X1476Y294D02*
X1522Y294D01*
X1555Y294D02*
X1601Y294D01*
X1631Y294D02*
X1678Y294D01*
X1712Y294D02*
X1759Y294D01*
X1161Y293D02*
X1207Y293D01*
X1240Y293D02*
X1286Y293D01*
X1319Y293D02*
X1365Y293D01*
X1397Y293D02*
X1444Y293D01*
X1476Y293D02*
X1522Y293D01*
X1555Y293D02*
X1601Y293D01*
X1631Y293D02*
X1678Y293D01*
X1712Y293D02*
X1759Y293D01*
X1161Y292D02*
X1207Y292D01*
X1240Y292D02*
X1286Y292D01*
X1319Y292D02*
X1365Y292D01*
X1397Y292D02*
X1444Y292D01*
X1476Y292D02*
X1522Y292D01*
X1555Y292D02*
X1601Y292D01*
X1631Y292D02*
X1678Y292D01*
X1712Y292D02*
X1759Y292D01*
X1161Y291D02*
X1207Y291D01*
X1240Y291D02*
X1286Y291D01*
X1319Y291D02*
X1365Y291D01*
X1397Y291D02*
X1444Y291D01*
X1476Y291D02*
X1522Y291D01*
X1555Y291D02*
X1601Y291D01*
X1631Y291D02*
X1678Y291D01*
X1712Y291D02*
X1759Y291D01*
X1161Y290D02*
X1207Y290D01*
X1240Y290D02*
X1286Y290D01*
X1319Y290D02*
X1365Y290D01*
X1397Y290D02*
X1444Y290D01*
X1476Y290D02*
X1522Y290D01*
X1555Y290D02*
X1601Y290D01*
X1631Y290D02*
X1678Y290D01*
X1712Y290D02*
X1759Y290D01*
X1161Y289D02*
X1207Y289D01*
X1240Y289D02*
X1286Y289D01*
X1319Y289D02*
X1365Y289D01*
X1397Y289D02*
X1444Y289D01*
X1476Y289D02*
X1522Y289D01*
X1555Y289D02*
X1601Y289D01*
X1631Y289D02*
X1678Y289D01*
X1712Y289D02*
X1759Y289D01*
X1161Y288D02*
X1207Y288D01*
X1240Y288D02*
X1286Y288D01*
X1319Y288D02*
X1365Y288D01*
X1397Y288D02*
X1444Y288D01*
X1476Y288D02*
X1522Y288D01*
X1555Y288D02*
X1601Y288D01*
X1631Y288D02*
X1678Y288D01*
X1712Y288D02*
X1759Y288D01*
X1161Y287D02*
X1207Y287D01*
X1240Y287D02*
X1286Y287D01*
X1319Y287D02*
X1365Y287D01*
X1397Y287D02*
X1444Y287D01*
X1476Y287D02*
X1522Y287D01*
X1555Y287D02*
X1601Y287D01*
X1631Y287D02*
X1678Y287D01*
X1712Y287D02*
X1759Y287D01*
X1161Y286D02*
X1207Y286D01*
X1240Y286D02*
X1286Y286D01*
X1319Y286D02*
X1365Y286D01*
X1397Y286D02*
X1444Y286D01*
X1476Y286D02*
X1522Y286D01*
X1555Y286D02*
X1601Y286D01*
X1631Y286D02*
X1678Y286D01*
X1712Y286D02*
X1759Y286D01*
X1161Y285D02*
X1207Y285D01*
X1240Y285D02*
X1286Y285D01*
X1319Y285D02*
X1365Y285D01*
X1397Y285D02*
X1444Y285D01*
X1476Y285D02*
X1522Y285D01*
X1555Y285D02*
X1601Y285D01*
X1631Y285D02*
X1678Y285D01*
X1712Y285D02*
X1759Y285D01*
X1161Y284D02*
X1207Y284D01*
X1240Y284D02*
X1286Y284D01*
X1319Y284D02*
X1365Y284D01*
X1397Y284D02*
X1444Y284D01*
X1476Y284D02*
X1522Y284D01*
X1555Y284D02*
X1601Y284D01*
X1631Y284D02*
X1678Y284D01*
X1712Y284D02*
X1759Y284D01*
X1161Y283D02*
X1207Y283D01*
X1240Y283D02*
X1286Y283D01*
X1319Y283D02*
X1365Y283D01*
X1397Y283D02*
X1444Y283D01*
X1476Y283D02*
X1522Y283D01*
X1555Y283D02*
X1601Y283D01*
X1631Y283D02*
X1678Y283D01*
X1712Y283D02*
X1759Y283D01*
X1161Y282D02*
X1207Y282D01*
X1240Y282D02*
X1286Y282D01*
X1319Y282D02*
X1365Y282D01*
X1397Y282D02*
X1444Y282D01*
X1476Y282D02*
X1522Y282D01*
X1555Y282D02*
X1601Y282D01*
X1631Y282D02*
X1678Y282D01*
X1712Y282D02*
X1759Y282D01*
X1161Y281D02*
X1207Y281D01*
X1240Y281D02*
X1286Y281D01*
X1319Y281D02*
X1365Y281D01*
X1397Y281D02*
X1444Y281D01*
X1476Y281D02*
X1522Y281D01*
X1555Y281D02*
X1601Y281D01*
X1631Y281D02*
X1678Y281D01*
X1712Y281D02*
X1759Y281D01*
X1161Y280D02*
X1207Y280D01*
X1240Y280D02*
X1286Y280D01*
X1319Y280D02*
X1365Y280D01*
X1397Y280D02*
X1444Y280D01*
X1476Y280D02*
X1522Y280D01*
X1555Y280D02*
X1601Y280D01*
X1631Y280D02*
X1678Y280D01*
X1712Y280D02*
X1759Y280D01*
X1161Y279D02*
X1207Y279D01*
X1240Y279D02*
X1286Y279D01*
X1319Y279D02*
X1365Y279D01*
X1397Y279D02*
X1444Y279D01*
X1476Y279D02*
X1522Y279D01*
X1555Y279D02*
X1601Y279D01*
X1631Y279D02*
X1678Y279D01*
X1712Y279D02*
X1759Y279D01*
X1161Y278D02*
X1207Y278D01*
X1240Y278D02*
X1286Y278D01*
X1319Y278D02*
X1365Y278D01*
X1397Y278D02*
X1444Y278D01*
X1476Y278D02*
X1522Y278D01*
X1555Y278D02*
X1601Y278D01*
X1631Y278D02*
X1678Y278D01*
X1712Y278D02*
X1759Y278D01*
X1161Y277D02*
X1207Y277D01*
X1240Y277D02*
X1286Y277D01*
X1319Y277D02*
X1365Y277D01*
X1397Y277D02*
X1444Y277D01*
X1476Y277D02*
X1522Y277D01*
X1555Y277D02*
X1601Y277D01*
X1631Y277D02*
X1678Y277D01*
X1712Y277D02*
X1759Y277D01*
X1161Y276D02*
X1207Y276D01*
X1240Y276D02*
X1286Y276D01*
X1319Y276D02*
X1365Y276D01*
X1397Y276D02*
X1444Y276D01*
X1476Y276D02*
X1522Y276D01*
X1555Y276D02*
X1601Y276D01*
X1631Y276D02*
X1678Y276D01*
X1712Y276D02*
X1759Y276D01*
X1161Y275D02*
X1207Y275D01*
X1240Y275D02*
X1286Y275D01*
X1319Y275D02*
X1365Y275D01*
X1397Y275D02*
X1444Y275D01*
X1476Y275D02*
X1522Y275D01*
X1555Y275D02*
X1601Y275D01*
X1631Y275D02*
X1678Y275D01*
X1712Y275D02*
X1759Y275D01*
X1161Y274D02*
X1207Y274D01*
X1240Y274D02*
X1286Y274D01*
X1319Y274D02*
X1365Y274D01*
X1397Y274D02*
X1444Y274D01*
X1476Y274D02*
X1522Y274D01*
X1555Y274D02*
X1601Y274D01*
X1631Y274D02*
X1678Y274D01*
X1712Y274D02*
X1759Y274D01*
X1161Y273D02*
X1207Y273D01*
X1240Y273D02*
X1286Y273D01*
X1319Y273D02*
X1365Y273D01*
X1397Y273D02*
X1444Y273D01*
X1476Y273D02*
X1522Y273D01*
X1555Y273D02*
X1601Y273D01*
X1631Y273D02*
X1678Y273D01*
X1712Y273D02*
X1759Y273D01*
X1161Y272D02*
X1207Y272D01*
X1240Y272D02*
X1286Y272D01*
X1319Y272D02*
X1365Y272D01*
X1397Y272D02*
X1444Y272D01*
X1476Y272D02*
X1522Y272D01*
X1555Y272D02*
X1601Y272D01*
X1631Y272D02*
X1678Y272D01*
X1712Y272D02*
X1759Y272D01*
X1161Y271D02*
X1207Y271D01*
X1240Y271D02*
X1286Y271D01*
X1319Y271D02*
X1365Y271D01*
X1397Y271D02*
X1444Y271D01*
X1476Y271D02*
X1522Y271D01*
X1555Y271D02*
X1601Y271D01*
X1631Y271D02*
X1678Y271D01*
X1712Y271D02*
X1759Y271D01*
X1161Y270D02*
X1207Y270D01*
X1240Y270D02*
X1286Y270D01*
X1319Y270D02*
X1365Y270D01*
X1397Y270D02*
X1444Y270D01*
X1476Y270D02*
X1522Y270D01*
X1555Y270D02*
X1601Y270D01*
X1631Y270D02*
X1678Y270D01*
X1712Y270D02*
X1759Y270D01*
X1161Y269D02*
X1207Y269D01*
X1240Y269D02*
X1286Y269D01*
X1319Y269D02*
X1365Y269D01*
X1397Y269D02*
X1444Y269D01*
X1476Y269D02*
X1522Y269D01*
X1555Y269D02*
X1601Y269D01*
X1631Y269D02*
X1678Y269D01*
X1712Y269D02*
X1759Y269D01*
X1161Y268D02*
X1207Y268D01*
X1240Y268D02*
X1286Y268D01*
X1319Y268D02*
X1365Y268D01*
X1397Y268D02*
X1444Y268D01*
X1476Y268D02*
X1522Y268D01*
X1555Y268D02*
X1601Y268D01*
X1631Y268D02*
X1678Y268D01*
X1712Y268D02*
X1759Y268D01*
X1161Y267D02*
X1207Y267D01*
X1240Y267D02*
X1286Y267D01*
X1319Y267D02*
X1365Y267D01*
X1397Y267D02*
X1444Y267D01*
X1476Y267D02*
X1522Y267D01*
X1555Y267D02*
X1601Y267D01*
X1631Y267D02*
X1678Y267D01*
X1712Y267D02*
X1759Y267D01*
X1161Y266D02*
X1207Y266D01*
X1240Y266D02*
X1286Y266D01*
X1319Y266D02*
X1365Y266D01*
X1397Y266D02*
X1444Y266D01*
X1476Y266D02*
X1522Y266D01*
X1555Y266D02*
X1601Y266D01*
X1631Y266D02*
X1678Y266D01*
X1712Y266D02*
X1759Y266D01*
X1161Y265D02*
X1207Y265D01*
X1240Y265D02*
X1286Y265D01*
X1319Y265D02*
X1365Y265D01*
X1397Y265D02*
X1444Y265D01*
X1476Y265D02*
X1522Y265D01*
X1555Y265D02*
X1601Y265D01*
X1631Y265D02*
X1678Y265D01*
X1712Y265D02*
X1759Y265D01*
X1161Y264D02*
X1207Y264D01*
X1240Y264D02*
X1286Y264D01*
X1319Y264D02*
X1365Y264D01*
X1397Y264D02*
X1444Y264D01*
X1476Y264D02*
X1522Y264D01*
X1555Y264D02*
X1601Y264D01*
X1631Y264D02*
X1678Y264D01*
X1712Y264D02*
X1759Y264D01*
X1161Y263D02*
X1207Y263D01*
X1240Y263D02*
X1286Y263D01*
X1319Y263D02*
X1365Y263D01*
X1397Y263D02*
X1444Y263D01*
X1476Y263D02*
X1522Y263D01*
X1555Y263D02*
X1601Y263D01*
X1631Y263D02*
X1678Y263D01*
X1712Y263D02*
X1759Y263D01*
X1161Y262D02*
X1207Y262D01*
X1240Y262D02*
X1286Y262D01*
X1319Y262D02*
X1365Y262D01*
X1397Y262D02*
X1444Y262D01*
X1476Y262D02*
X1522Y262D01*
X1555Y262D02*
X1601Y262D01*
X1631Y262D02*
X1678Y262D01*
X1712Y262D02*
X1759Y262D01*
X1161Y261D02*
X1207Y261D01*
X1240Y261D02*
X1286Y261D01*
X1319Y261D02*
X1365Y261D01*
X1397Y261D02*
X1444Y261D01*
X1476Y261D02*
X1522Y261D01*
X1555Y261D02*
X1601Y261D01*
X1631Y261D02*
X1678Y261D01*
X1712Y261D02*
X1759Y261D01*
X1161Y260D02*
X1207Y260D01*
X1240Y260D02*
X1286Y260D01*
X1319Y260D02*
X1365Y260D01*
X1397Y260D02*
X1444Y260D01*
X1476Y260D02*
X1522Y260D01*
X1555Y260D02*
X1601Y260D01*
X1631Y260D02*
X1678Y260D01*
X1712Y260D02*
X1759Y260D01*
X1161Y259D02*
X1207Y259D01*
X1240Y259D02*
X1286Y259D01*
X1319Y259D02*
X1365Y259D01*
X1397Y259D02*
X1444Y259D01*
X1476Y259D02*
X1522Y259D01*
X1555Y259D02*
X1601Y259D01*
X1631Y259D02*
X1678Y259D01*
X1712Y259D02*
X1759Y259D01*
X1161Y258D02*
X1207Y258D01*
X1240Y258D02*
X1286Y258D01*
X1319Y258D02*
X1365Y258D01*
X1397Y258D02*
X1444Y258D01*
X1476Y258D02*
X1522Y258D01*
X1555Y258D02*
X1601Y258D01*
X1631Y258D02*
X1678Y258D01*
X1712Y258D02*
X1759Y258D01*
X1161Y257D02*
X1207Y257D01*
X1240Y257D02*
X1286Y257D01*
X1319Y257D02*
X1365Y257D01*
X1397Y257D02*
X1444Y257D01*
X1476Y257D02*
X1522Y257D01*
X1555Y257D02*
X1601Y257D01*
X1631Y257D02*
X1678Y257D01*
X1712Y257D02*
X1759Y257D01*
X1161Y256D02*
X1207Y256D01*
X1240Y256D02*
X1286Y256D01*
X1319Y256D02*
X1365Y256D01*
X1397Y256D02*
X1444Y256D01*
X1476Y256D02*
X1522Y256D01*
X1555Y256D02*
X1601Y256D01*
X1631Y256D02*
X1678Y256D01*
X1712Y256D02*
X1759Y256D01*
X1161Y255D02*
X1207Y255D01*
X1240Y255D02*
X1286Y255D01*
X1319Y255D02*
X1365Y255D01*
X1397Y255D02*
X1444Y255D01*
X1476Y255D02*
X1522Y255D01*
X1555Y255D02*
X1601Y255D01*
X1631Y255D02*
X1678Y255D01*
X1712Y255D02*
X1759Y255D01*
X1161Y254D02*
X1207Y254D01*
X1240Y254D02*
X1286Y254D01*
X1319Y254D02*
X1365Y254D01*
X1397Y254D02*
X1444Y254D01*
X1476Y254D02*
X1522Y254D01*
X1555Y254D02*
X1601Y254D01*
X1631Y254D02*
X1678Y254D01*
X1712Y254D02*
X1759Y254D01*
X1161Y253D02*
X1207Y253D01*
X1240Y253D02*
X1286Y253D01*
X1319Y253D02*
X1365Y253D01*
X1397Y253D02*
X1444Y253D01*
X1476Y253D02*
X1522Y253D01*
X1555Y253D02*
X1601Y253D01*
X1631Y253D02*
X1678Y253D01*
X1712Y253D02*
X1759Y253D01*
X1161Y252D02*
X1207Y252D01*
X1240Y252D02*
X1286Y252D01*
X1319Y252D02*
X1365Y252D01*
X1398Y252D02*
X1443Y252D01*
X1477Y252D02*
X1522Y252D01*
X1555Y252D02*
X1601Y252D01*
X1632Y252D02*
X1677Y252D01*
X1713Y252D02*
X1758Y252D01*
D02*
G04 End of Copper1*
M02*