G04 MADE WITH FRITZING*
G04 WWW.FRITZING.ORG*
G04 DOUBLE SIDED*
G04 HOLES PLATED*
G04 CONTOUR ON CENTER OF CONTOUR VECTOR*
%ASAXBY*%
%FSLAX23Y23*%
%MOIN*%
%OFA0B0*%
%SFA1.0B1.0*%
%ADD10C,0.092677*%
%ADD11C,0.084000*%
%ADD12C,0.049370*%
%ADD13C,0.072992*%
%ADD14C,0.128110*%
%ADD15C,0.061496*%
%ADD16C,0.104803*%
%ADD17C,0.088000*%
%ADD18C,0.075000*%
%ADD19R,0.084000X0.084000*%
%ADD20R,0.072992X0.072992*%
%ADD21R,0.072992X0.100551*%
%ADD22R,0.001000X0.001000*%
%LNMASK0*%
G90*
G70*
G54D10*
X222Y1320D03*
X220Y1606D03*
G54D11*
X1416Y1737D03*
X1416Y1637D03*
X1416Y1537D03*
X1416Y1437D03*
X1316Y1737D03*
X1316Y1637D03*
X1316Y1537D03*
X1316Y1437D03*
G54D12*
X1553Y1225D03*
X1478Y1287D03*
G54D13*
X553Y1689D03*
X553Y1787D03*
X978Y1689D03*
X978Y1787D03*
G54D14*
X91Y1075D03*
G54D15*
X253Y1525D03*
X253Y1462D03*
X253Y1399D03*
X206Y1494D03*
X206Y1431D03*
G54D16*
X52Y1318D03*
X52Y1606D03*
G54D12*
X1403Y612D03*
X566Y575D03*
G54D17*
X841Y425D03*
X741Y425D03*
X103Y800D03*
X103Y700D03*
X103Y600D03*
X103Y500D03*
X103Y400D03*
X103Y300D03*
G54D12*
X991Y1025D03*
X994Y507D03*
X1866Y625D03*
X1116Y1337D03*
X1641Y412D03*
X1191Y912D03*
G54D18*
X516Y1325D03*
X516Y1425D03*
X478Y962D03*
X478Y1062D03*
G54D19*
X1316Y1737D03*
G54D20*
X553Y1689D03*
X978Y1689D03*
G54D21*
X391Y1625D03*
X391Y1873D03*
G54D22*
X478Y1462D02*
X552Y1462D01*
X478Y1461D02*
X552Y1461D01*
X478Y1460D02*
X552Y1460D01*
X478Y1459D02*
X552Y1459D01*
X478Y1458D02*
X552Y1458D01*
X478Y1457D02*
X552Y1457D01*
X478Y1456D02*
X552Y1456D01*
X478Y1455D02*
X552Y1455D01*
X478Y1454D02*
X552Y1454D01*
X478Y1453D02*
X552Y1453D01*
X478Y1452D02*
X552Y1452D01*
X478Y1451D02*
X552Y1451D01*
X478Y1450D02*
X552Y1450D01*
X478Y1449D02*
X552Y1449D01*
X478Y1448D02*
X552Y1448D01*
X478Y1447D02*
X552Y1447D01*
X478Y1446D02*
X552Y1446D01*
X478Y1445D02*
X552Y1445D01*
X478Y1444D02*
X552Y1444D01*
X478Y1443D02*
X552Y1443D01*
X478Y1442D02*
X552Y1442D01*
X478Y1441D02*
X552Y1441D01*
X478Y1440D02*
X552Y1440D01*
X478Y1439D02*
X552Y1439D01*
X478Y1438D02*
X552Y1438D01*
X478Y1437D02*
X552Y1437D01*
X478Y1436D02*
X552Y1436D01*
X478Y1435D02*
X552Y1435D01*
X478Y1434D02*
X552Y1434D01*
X478Y1433D02*
X511Y1433D01*
X519Y1433D02*
X552Y1433D01*
X478Y1432D02*
X509Y1432D01*
X521Y1432D02*
X552Y1432D01*
X478Y1431D02*
X508Y1431D01*
X522Y1431D02*
X552Y1431D01*
X478Y1430D02*
X508Y1430D01*
X523Y1430D02*
X552Y1430D01*
X478Y1429D02*
X507Y1429D01*
X523Y1429D02*
X552Y1429D01*
X478Y1428D02*
X506Y1428D01*
X524Y1428D02*
X552Y1428D01*
X478Y1427D02*
X506Y1427D01*
X524Y1427D02*
X552Y1427D01*
X478Y1426D02*
X506Y1426D01*
X524Y1426D02*
X552Y1426D01*
X478Y1425D02*
X506Y1425D01*
X525Y1425D02*
X552Y1425D01*
X478Y1424D02*
X506Y1424D01*
X525Y1424D02*
X552Y1424D01*
X478Y1423D02*
X506Y1423D01*
X524Y1423D02*
X552Y1423D01*
X478Y1422D02*
X506Y1422D01*
X524Y1422D02*
X552Y1422D01*
X478Y1421D02*
X507Y1421D01*
X524Y1421D02*
X552Y1421D01*
X478Y1420D02*
X507Y1420D01*
X523Y1420D02*
X552Y1420D01*
X478Y1419D02*
X508Y1419D01*
X522Y1419D02*
X552Y1419D01*
X478Y1418D02*
X509Y1418D01*
X521Y1418D02*
X552Y1418D01*
X478Y1417D02*
X510Y1417D01*
X520Y1417D02*
X552Y1417D01*
X478Y1416D02*
X552Y1416D01*
X478Y1415D02*
X552Y1415D01*
X478Y1414D02*
X552Y1414D01*
X478Y1413D02*
X552Y1413D01*
X478Y1412D02*
X552Y1412D01*
X478Y1411D02*
X552Y1411D01*
X478Y1410D02*
X552Y1410D01*
X478Y1409D02*
X552Y1409D01*
X478Y1408D02*
X552Y1408D01*
X478Y1407D02*
X552Y1407D01*
X478Y1406D02*
X552Y1406D01*
X478Y1405D02*
X552Y1405D01*
X478Y1404D02*
X552Y1404D01*
X478Y1403D02*
X552Y1403D01*
X478Y1402D02*
X552Y1402D01*
X478Y1401D02*
X552Y1401D01*
X478Y1400D02*
X552Y1400D01*
X478Y1399D02*
X552Y1399D01*
X478Y1398D02*
X552Y1398D01*
X478Y1397D02*
X552Y1397D01*
X478Y1396D02*
X552Y1396D01*
X478Y1395D02*
X552Y1395D01*
X478Y1394D02*
X552Y1394D01*
X478Y1393D02*
X552Y1393D01*
X478Y1392D02*
X552Y1392D01*
X478Y1391D02*
X552Y1391D01*
X478Y1390D02*
X552Y1390D01*
X478Y1389D02*
X552Y1389D01*
X478Y1388D02*
X552Y1388D01*
X441Y1099D02*
X515Y1099D01*
X441Y1098D02*
X515Y1098D01*
X441Y1097D02*
X515Y1097D01*
X441Y1096D02*
X515Y1096D01*
X441Y1095D02*
X515Y1095D01*
X441Y1094D02*
X515Y1094D01*
X441Y1093D02*
X515Y1093D01*
X441Y1092D02*
X515Y1092D01*
X441Y1091D02*
X515Y1091D01*
X441Y1090D02*
X515Y1090D01*
X441Y1089D02*
X515Y1089D01*
X441Y1088D02*
X515Y1088D01*
X441Y1087D02*
X515Y1087D01*
X441Y1086D02*
X515Y1086D01*
X441Y1085D02*
X515Y1085D01*
X441Y1084D02*
X515Y1084D01*
X441Y1083D02*
X515Y1083D01*
X441Y1082D02*
X515Y1082D01*
X441Y1081D02*
X515Y1081D01*
X441Y1080D02*
X515Y1080D01*
X441Y1079D02*
X515Y1079D01*
X441Y1078D02*
X515Y1078D01*
X441Y1077D02*
X515Y1077D01*
X441Y1076D02*
X515Y1076D01*
X441Y1075D02*
X515Y1075D01*
X441Y1074D02*
X515Y1074D01*
X441Y1073D02*
X515Y1073D01*
X441Y1072D02*
X515Y1072D01*
X441Y1071D02*
X475Y1071D01*
X480Y1071D02*
X515Y1071D01*
X441Y1070D02*
X473Y1070D01*
X483Y1070D02*
X515Y1070D01*
X441Y1069D02*
X471Y1069D01*
X484Y1069D02*
X515Y1069D01*
X441Y1068D02*
X470Y1068D01*
X485Y1068D02*
X515Y1068D01*
X441Y1067D02*
X470Y1067D01*
X486Y1067D02*
X515Y1067D01*
X441Y1066D02*
X469Y1066D01*
X486Y1066D02*
X515Y1066D01*
X441Y1065D02*
X469Y1065D01*
X487Y1065D02*
X515Y1065D01*
X441Y1064D02*
X468Y1064D01*
X487Y1064D02*
X515Y1064D01*
X441Y1063D02*
X468Y1063D01*
X487Y1063D02*
X515Y1063D01*
X441Y1062D02*
X468Y1062D01*
X487Y1062D02*
X515Y1062D01*
X441Y1061D02*
X468Y1061D01*
X487Y1061D02*
X515Y1061D01*
X441Y1060D02*
X469Y1060D01*
X487Y1060D02*
X515Y1060D01*
X441Y1059D02*
X469Y1059D01*
X486Y1059D02*
X515Y1059D01*
X441Y1058D02*
X470Y1058D01*
X486Y1058D02*
X515Y1058D01*
X441Y1057D02*
X470Y1057D01*
X485Y1057D02*
X515Y1057D01*
X441Y1056D02*
X471Y1056D01*
X484Y1056D02*
X515Y1056D01*
X441Y1055D02*
X472Y1055D01*
X483Y1055D02*
X515Y1055D01*
X441Y1054D02*
X474Y1054D01*
X481Y1054D02*
X515Y1054D01*
X441Y1053D02*
X515Y1053D01*
X441Y1052D02*
X515Y1052D01*
X441Y1051D02*
X515Y1051D01*
X441Y1050D02*
X515Y1050D01*
X441Y1049D02*
X515Y1049D01*
X441Y1048D02*
X515Y1048D01*
X441Y1047D02*
X515Y1047D01*
X441Y1046D02*
X515Y1046D01*
X441Y1045D02*
X515Y1045D01*
X441Y1044D02*
X515Y1044D01*
X441Y1043D02*
X515Y1043D01*
X441Y1042D02*
X515Y1042D01*
X441Y1041D02*
X515Y1041D01*
X441Y1040D02*
X515Y1040D01*
X441Y1039D02*
X515Y1039D01*
X441Y1038D02*
X515Y1038D01*
X441Y1037D02*
X515Y1037D01*
X441Y1036D02*
X515Y1036D01*
X441Y1035D02*
X515Y1035D01*
X441Y1034D02*
X515Y1034D01*
X441Y1033D02*
X515Y1033D01*
X441Y1032D02*
X515Y1032D01*
X441Y1031D02*
X515Y1031D01*
X441Y1030D02*
X515Y1030D01*
X441Y1029D02*
X515Y1029D01*
X441Y1028D02*
X515Y1028D01*
X441Y1027D02*
X515Y1027D01*
X441Y1026D02*
X515Y1026D01*
X441Y1025D02*
X514Y1025D01*
D02*
G04 End of Mask0*
M02*