G04 MADE WITH FRITZING*
G04 WWW.FRITZING.ORG*
G04 DOUBLE SIDED*
G04 HOLES PLATED*
G04 CONTOUR ON CENTER OF CONTOUR VECTOR*
%ASAXBY*%
%FSLAX23Y23*%
%MOIN*%
%OFA0B0*%
%SFA1.0B1.0*%
%ADD10C,0.092677*%
%ADD11C,0.084000*%
%ADD12C,0.049370*%
%ADD13C,0.072992*%
%ADD14C,0.128110*%
%ADD15C,0.061496*%
%ADD16C,0.104803*%
%ADD17C,0.088000*%
%ADD18C,0.075000*%
%ADD19R,0.084000X0.084000*%
%ADD20R,0.072992X0.072992*%
%ADD21R,0.072992X0.080866*%
%ADD22R,0.080866X0.072992*%
%ADD23R,0.072992X0.084803*%
%ADD24R,0.084803X0.072992*%
%ADD25R,0.058000X0.098000*%
%ADD26R,0.151732X0.096614*%
%ADD27R,0.001000X0.001000*%
%LNMASK1*%
G90*
G70*
G54D10*
X222Y1320D03*
X220Y1606D03*
G54D11*
X1416Y1737D03*
X1416Y1637D03*
X1416Y1537D03*
X1416Y1437D03*
X1316Y1737D03*
X1316Y1637D03*
X1316Y1537D03*
X1316Y1437D03*
G54D12*
X1553Y1225D03*
X1478Y1287D03*
G54D13*
X553Y1689D03*
X553Y1787D03*
X978Y1689D03*
X978Y1787D03*
G54D14*
X91Y1075D03*
G54D15*
X253Y1525D03*
X253Y1462D03*
X253Y1399D03*
X206Y1494D03*
X206Y1431D03*
G54D16*
X52Y1318D03*
X52Y1606D03*
G54D15*
X253Y1525D03*
X253Y1462D03*
X253Y1399D03*
X206Y1494D03*
X206Y1431D03*
G54D16*
X52Y1318D03*
X52Y1606D03*
G54D12*
X1403Y612D03*
X566Y575D03*
G54D17*
X841Y425D03*
X741Y425D03*
X103Y800D03*
X103Y700D03*
X103Y600D03*
X103Y500D03*
X103Y400D03*
X103Y300D03*
G54D12*
X991Y1025D03*
X994Y507D03*
X1866Y625D03*
X1116Y1337D03*
X1641Y412D03*
X1191Y912D03*
G54D18*
X516Y1325D03*
X516Y1425D03*
X516Y1325D03*
X516Y1425D03*
X478Y962D03*
X478Y1062D03*
X478Y962D03*
X478Y1062D03*
G54D19*
X1316Y1737D03*
G54D20*
X553Y1689D03*
X978Y1689D03*
G54D21*
X1641Y1462D03*
X1751Y1462D03*
X841Y1025D03*
X731Y1025D03*
G54D22*
X1878Y1287D03*
X1878Y1397D03*
G54D23*
X1641Y1287D03*
X1763Y1287D03*
G54D24*
X778Y1662D03*
X778Y1784D03*
X1116Y1562D03*
X1116Y1440D03*
G54D23*
X728Y575D03*
X850Y575D03*
X991Y612D03*
X1113Y612D03*
X728Y912D03*
X850Y912D03*
X728Y800D03*
X850Y800D03*
X728Y687D03*
X850Y687D03*
G54D25*
X741Y1225D03*
X832Y1225D03*
X923Y1225D03*
G54D26*
X832Y1469D03*
G54D27*
X478Y1462D02*
X552Y1462D01*
X478Y1461D02*
X552Y1461D01*
X478Y1460D02*
X552Y1460D01*
X478Y1459D02*
X552Y1459D01*
X478Y1458D02*
X552Y1458D01*
X478Y1457D02*
X552Y1457D01*
X478Y1456D02*
X552Y1456D01*
X478Y1455D02*
X552Y1455D01*
X478Y1454D02*
X552Y1454D01*
X478Y1453D02*
X552Y1453D01*
X478Y1452D02*
X552Y1452D01*
X478Y1451D02*
X552Y1451D01*
X478Y1450D02*
X552Y1450D01*
X478Y1449D02*
X552Y1449D01*
X478Y1448D02*
X552Y1448D01*
X478Y1447D02*
X552Y1447D01*
X478Y1446D02*
X552Y1446D01*
X478Y1445D02*
X552Y1445D01*
X478Y1444D02*
X552Y1444D01*
X478Y1443D02*
X552Y1443D01*
X478Y1442D02*
X552Y1442D01*
X478Y1441D02*
X552Y1441D01*
X478Y1440D02*
X552Y1440D01*
X478Y1439D02*
X552Y1439D01*
X478Y1438D02*
X552Y1438D01*
X478Y1437D02*
X552Y1437D01*
X478Y1436D02*
X552Y1436D01*
X478Y1435D02*
X552Y1435D01*
X478Y1434D02*
X552Y1434D01*
X478Y1433D02*
X511Y1433D01*
X519Y1433D02*
X552Y1433D01*
X478Y1432D02*
X509Y1432D01*
X521Y1432D02*
X552Y1432D01*
X478Y1431D02*
X508Y1431D01*
X522Y1431D02*
X552Y1431D01*
X478Y1430D02*
X508Y1430D01*
X523Y1430D02*
X552Y1430D01*
X478Y1429D02*
X507Y1429D01*
X523Y1429D02*
X552Y1429D01*
X478Y1428D02*
X506Y1428D01*
X524Y1428D02*
X552Y1428D01*
X478Y1427D02*
X506Y1427D01*
X524Y1427D02*
X552Y1427D01*
X478Y1426D02*
X506Y1426D01*
X524Y1426D02*
X552Y1426D01*
X478Y1425D02*
X506Y1425D01*
X525Y1425D02*
X552Y1425D01*
X478Y1424D02*
X506Y1424D01*
X525Y1424D02*
X552Y1424D01*
X478Y1423D02*
X506Y1423D01*
X524Y1423D02*
X552Y1423D01*
X478Y1422D02*
X506Y1422D01*
X524Y1422D02*
X552Y1422D01*
X478Y1421D02*
X507Y1421D01*
X524Y1421D02*
X552Y1421D01*
X478Y1420D02*
X507Y1420D01*
X523Y1420D02*
X552Y1420D01*
X478Y1419D02*
X508Y1419D01*
X522Y1419D02*
X552Y1419D01*
X478Y1418D02*
X509Y1418D01*
X521Y1418D02*
X552Y1418D01*
X478Y1417D02*
X510Y1417D01*
X520Y1417D02*
X552Y1417D01*
X478Y1416D02*
X552Y1416D01*
X478Y1415D02*
X552Y1415D01*
X478Y1414D02*
X552Y1414D01*
X478Y1413D02*
X552Y1413D01*
X478Y1412D02*
X552Y1412D01*
X478Y1411D02*
X552Y1411D01*
X478Y1410D02*
X552Y1410D01*
X478Y1409D02*
X552Y1409D01*
X478Y1408D02*
X552Y1408D01*
X478Y1407D02*
X552Y1407D01*
X478Y1406D02*
X552Y1406D01*
X478Y1405D02*
X552Y1405D01*
X478Y1404D02*
X552Y1404D01*
X478Y1403D02*
X552Y1403D01*
X478Y1402D02*
X552Y1402D01*
X478Y1401D02*
X552Y1401D01*
X478Y1400D02*
X552Y1400D01*
X478Y1399D02*
X552Y1399D01*
X478Y1398D02*
X552Y1398D01*
X478Y1397D02*
X552Y1397D01*
X478Y1396D02*
X552Y1396D01*
X478Y1395D02*
X552Y1395D01*
X478Y1394D02*
X552Y1394D01*
X478Y1393D02*
X552Y1393D01*
X478Y1392D02*
X552Y1392D01*
X478Y1391D02*
X552Y1391D01*
X478Y1390D02*
X552Y1390D01*
X478Y1389D02*
X552Y1389D01*
X478Y1388D02*
X552Y1388D01*
X1294Y1174D02*
X1349Y1174D01*
X1374Y1174D02*
X1430Y1174D01*
X1451Y1174D02*
X1507Y1174D01*
X1530Y1174D02*
X1585Y1174D01*
X1608Y1174D02*
X1664Y1174D01*
X1687Y1174D02*
X1743Y1174D01*
X1766Y1174D02*
X1822Y1174D01*
X1845Y1174D02*
X1900Y1174D01*
X1293Y1173D02*
X1349Y1173D01*
X1374Y1173D02*
X1431Y1173D01*
X1451Y1173D02*
X1507Y1173D01*
X1529Y1173D02*
X1586Y1173D01*
X1608Y1173D02*
X1664Y1173D01*
X1687Y1173D02*
X1743Y1173D01*
X1766Y1173D02*
X1822Y1173D01*
X1844Y1173D02*
X1901Y1173D01*
X1293Y1172D02*
X1349Y1172D01*
X1374Y1172D02*
X1431Y1172D01*
X1451Y1172D02*
X1507Y1172D01*
X1529Y1172D02*
X1586Y1172D01*
X1608Y1172D02*
X1664Y1172D01*
X1687Y1172D02*
X1743Y1172D01*
X1766Y1172D02*
X1822Y1172D01*
X1844Y1172D02*
X1901Y1172D01*
X1293Y1171D02*
X1349Y1171D01*
X1374Y1171D02*
X1431Y1171D01*
X1451Y1171D02*
X1507Y1171D01*
X1529Y1171D02*
X1586Y1171D01*
X1608Y1171D02*
X1664Y1171D01*
X1687Y1171D02*
X1743Y1171D01*
X1766Y1171D02*
X1822Y1171D01*
X1844Y1171D02*
X1901Y1171D01*
X1293Y1170D02*
X1349Y1170D01*
X1374Y1170D02*
X1431Y1170D01*
X1451Y1170D02*
X1507Y1170D01*
X1529Y1170D02*
X1586Y1170D01*
X1608Y1170D02*
X1664Y1170D01*
X1687Y1170D02*
X1743Y1170D01*
X1766Y1170D02*
X1822Y1170D01*
X1844Y1170D02*
X1901Y1170D01*
X1293Y1169D02*
X1349Y1169D01*
X1374Y1169D02*
X1431Y1169D01*
X1451Y1169D02*
X1507Y1169D01*
X1529Y1169D02*
X1586Y1169D01*
X1608Y1169D02*
X1664Y1169D01*
X1687Y1169D02*
X1743Y1169D01*
X1766Y1169D02*
X1822Y1169D01*
X1844Y1169D02*
X1901Y1169D01*
X1293Y1168D02*
X1349Y1168D01*
X1374Y1168D02*
X1431Y1168D01*
X1451Y1168D02*
X1507Y1168D01*
X1529Y1168D02*
X1586Y1168D01*
X1608Y1168D02*
X1664Y1168D01*
X1687Y1168D02*
X1743Y1168D01*
X1766Y1168D02*
X1822Y1168D01*
X1844Y1168D02*
X1901Y1168D01*
X1293Y1167D02*
X1349Y1167D01*
X1374Y1167D02*
X1431Y1167D01*
X1451Y1167D02*
X1507Y1167D01*
X1529Y1167D02*
X1586Y1167D01*
X1608Y1167D02*
X1664Y1167D01*
X1687Y1167D02*
X1743Y1167D01*
X1766Y1167D02*
X1822Y1167D01*
X1844Y1167D02*
X1901Y1167D01*
X1293Y1166D02*
X1349Y1166D01*
X1374Y1166D02*
X1431Y1166D01*
X1451Y1166D02*
X1507Y1166D01*
X1529Y1166D02*
X1586Y1166D01*
X1608Y1166D02*
X1664Y1166D01*
X1687Y1166D02*
X1743Y1166D01*
X1766Y1166D02*
X1822Y1166D01*
X1844Y1166D02*
X1901Y1166D01*
X1293Y1165D02*
X1349Y1165D01*
X1374Y1165D02*
X1431Y1165D01*
X1451Y1165D02*
X1507Y1165D01*
X1529Y1165D02*
X1586Y1165D01*
X1608Y1165D02*
X1664Y1165D01*
X1687Y1165D02*
X1743Y1165D01*
X1766Y1165D02*
X1822Y1165D01*
X1844Y1165D02*
X1901Y1165D01*
X1293Y1164D02*
X1349Y1164D01*
X1374Y1164D02*
X1431Y1164D01*
X1451Y1164D02*
X1507Y1164D01*
X1529Y1164D02*
X1586Y1164D01*
X1608Y1164D02*
X1664Y1164D01*
X1687Y1164D02*
X1743Y1164D01*
X1766Y1164D02*
X1822Y1164D01*
X1844Y1164D02*
X1901Y1164D01*
X1293Y1163D02*
X1349Y1163D01*
X1374Y1163D02*
X1431Y1163D01*
X1451Y1163D02*
X1507Y1163D01*
X1529Y1163D02*
X1586Y1163D01*
X1608Y1163D02*
X1664Y1163D01*
X1687Y1163D02*
X1743Y1163D01*
X1766Y1163D02*
X1822Y1163D01*
X1844Y1163D02*
X1901Y1163D01*
X1293Y1162D02*
X1349Y1162D01*
X1374Y1162D02*
X1431Y1162D01*
X1451Y1162D02*
X1507Y1162D01*
X1529Y1162D02*
X1586Y1162D01*
X1608Y1162D02*
X1664Y1162D01*
X1687Y1162D02*
X1743Y1162D01*
X1766Y1162D02*
X1822Y1162D01*
X1844Y1162D02*
X1901Y1162D01*
X1293Y1161D02*
X1349Y1161D01*
X1374Y1161D02*
X1431Y1161D01*
X1451Y1161D02*
X1507Y1161D01*
X1529Y1161D02*
X1586Y1161D01*
X1608Y1161D02*
X1664Y1161D01*
X1687Y1161D02*
X1743Y1161D01*
X1766Y1161D02*
X1822Y1161D01*
X1844Y1161D02*
X1901Y1161D01*
X1293Y1160D02*
X1349Y1160D01*
X1374Y1160D02*
X1431Y1160D01*
X1451Y1160D02*
X1507Y1160D01*
X1529Y1160D02*
X1586Y1160D01*
X1608Y1160D02*
X1664Y1160D01*
X1687Y1160D02*
X1743Y1160D01*
X1766Y1160D02*
X1822Y1160D01*
X1844Y1160D02*
X1901Y1160D01*
X1293Y1159D02*
X1349Y1159D01*
X1374Y1159D02*
X1431Y1159D01*
X1451Y1159D02*
X1507Y1159D01*
X1529Y1159D02*
X1586Y1159D01*
X1608Y1159D02*
X1664Y1159D01*
X1687Y1159D02*
X1743Y1159D01*
X1766Y1159D02*
X1822Y1159D01*
X1844Y1159D02*
X1901Y1159D01*
X1293Y1158D02*
X1349Y1158D01*
X1374Y1158D02*
X1431Y1158D01*
X1451Y1158D02*
X1507Y1158D01*
X1529Y1158D02*
X1586Y1158D01*
X1608Y1158D02*
X1664Y1158D01*
X1687Y1158D02*
X1743Y1158D01*
X1766Y1158D02*
X1822Y1158D01*
X1844Y1158D02*
X1901Y1158D01*
X1293Y1157D02*
X1349Y1157D01*
X1374Y1157D02*
X1431Y1157D01*
X1451Y1157D02*
X1507Y1157D01*
X1529Y1157D02*
X1586Y1157D01*
X1608Y1157D02*
X1664Y1157D01*
X1687Y1157D02*
X1743Y1157D01*
X1766Y1157D02*
X1822Y1157D01*
X1844Y1157D02*
X1901Y1157D01*
X1293Y1156D02*
X1349Y1156D01*
X1374Y1156D02*
X1431Y1156D01*
X1451Y1156D02*
X1507Y1156D01*
X1529Y1156D02*
X1586Y1156D01*
X1608Y1156D02*
X1664Y1156D01*
X1687Y1156D02*
X1743Y1156D01*
X1766Y1156D02*
X1822Y1156D01*
X1844Y1156D02*
X1901Y1156D01*
X1293Y1155D02*
X1349Y1155D01*
X1374Y1155D02*
X1431Y1155D01*
X1451Y1155D02*
X1507Y1155D01*
X1529Y1155D02*
X1586Y1155D01*
X1608Y1155D02*
X1664Y1155D01*
X1687Y1155D02*
X1743Y1155D01*
X1766Y1155D02*
X1822Y1155D01*
X1844Y1155D02*
X1901Y1155D01*
X1293Y1154D02*
X1349Y1154D01*
X1374Y1154D02*
X1431Y1154D01*
X1451Y1154D02*
X1507Y1154D01*
X1529Y1154D02*
X1586Y1154D01*
X1608Y1154D02*
X1664Y1154D01*
X1687Y1154D02*
X1743Y1154D01*
X1766Y1154D02*
X1822Y1154D01*
X1844Y1154D02*
X1901Y1154D01*
X1293Y1153D02*
X1349Y1153D01*
X1374Y1153D02*
X1431Y1153D01*
X1451Y1153D02*
X1507Y1153D01*
X1529Y1153D02*
X1586Y1153D01*
X1608Y1153D02*
X1664Y1153D01*
X1687Y1153D02*
X1743Y1153D01*
X1766Y1153D02*
X1822Y1153D01*
X1844Y1153D02*
X1901Y1153D01*
X1293Y1152D02*
X1349Y1152D01*
X1374Y1152D02*
X1431Y1152D01*
X1451Y1152D02*
X1507Y1152D01*
X1529Y1152D02*
X1586Y1152D01*
X1608Y1152D02*
X1664Y1152D01*
X1687Y1152D02*
X1743Y1152D01*
X1766Y1152D02*
X1822Y1152D01*
X1844Y1152D02*
X1901Y1152D01*
X1293Y1151D02*
X1349Y1151D01*
X1374Y1151D02*
X1431Y1151D01*
X1451Y1151D02*
X1507Y1151D01*
X1529Y1151D02*
X1586Y1151D01*
X1608Y1151D02*
X1664Y1151D01*
X1687Y1151D02*
X1743Y1151D01*
X1766Y1151D02*
X1822Y1151D01*
X1844Y1151D02*
X1901Y1151D01*
X1293Y1150D02*
X1349Y1150D01*
X1374Y1150D02*
X1431Y1150D01*
X1451Y1150D02*
X1507Y1150D01*
X1529Y1150D02*
X1586Y1150D01*
X1608Y1150D02*
X1664Y1150D01*
X1687Y1150D02*
X1743Y1150D01*
X1766Y1150D02*
X1822Y1150D01*
X1844Y1150D02*
X1901Y1150D01*
X1293Y1149D02*
X1349Y1149D01*
X1374Y1149D02*
X1431Y1149D01*
X1451Y1149D02*
X1507Y1149D01*
X1529Y1149D02*
X1586Y1149D01*
X1608Y1149D02*
X1664Y1149D01*
X1687Y1149D02*
X1743Y1149D01*
X1766Y1149D02*
X1822Y1149D01*
X1844Y1149D02*
X1901Y1149D01*
X1293Y1148D02*
X1349Y1148D01*
X1374Y1148D02*
X1431Y1148D01*
X1451Y1148D02*
X1507Y1148D01*
X1529Y1148D02*
X1586Y1148D01*
X1608Y1148D02*
X1664Y1148D01*
X1687Y1148D02*
X1743Y1148D01*
X1766Y1148D02*
X1822Y1148D01*
X1844Y1148D02*
X1901Y1148D01*
X1293Y1147D02*
X1349Y1147D01*
X1374Y1147D02*
X1431Y1147D01*
X1451Y1147D02*
X1507Y1147D01*
X1529Y1147D02*
X1586Y1147D01*
X1608Y1147D02*
X1664Y1147D01*
X1687Y1147D02*
X1743Y1147D01*
X1766Y1147D02*
X1822Y1147D01*
X1844Y1147D02*
X1901Y1147D01*
X1293Y1146D02*
X1349Y1146D01*
X1374Y1146D02*
X1431Y1146D01*
X1451Y1146D02*
X1507Y1146D01*
X1529Y1146D02*
X1586Y1146D01*
X1608Y1146D02*
X1664Y1146D01*
X1687Y1146D02*
X1743Y1146D01*
X1766Y1146D02*
X1822Y1146D01*
X1844Y1146D02*
X1901Y1146D01*
X1293Y1145D02*
X1349Y1145D01*
X1374Y1145D02*
X1431Y1145D01*
X1451Y1145D02*
X1507Y1145D01*
X1529Y1145D02*
X1586Y1145D01*
X1608Y1145D02*
X1664Y1145D01*
X1687Y1145D02*
X1743Y1145D01*
X1766Y1145D02*
X1822Y1145D01*
X1844Y1145D02*
X1901Y1145D01*
X1293Y1144D02*
X1349Y1144D01*
X1374Y1144D02*
X1431Y1144D01*
X1451Y1144D02*
X1507Y1144D01*
X1529Y1144D02*
X1586Y1144D01*
X1608Y1144D02*
X1664Y1144D01*
X1687Y1144D02*
X1743Y1144D01*
X1766Y1144D02*
X1822Y1144D01*
X1844Y1144D02*
X1901Y1144D01*
X1293Y1143D02*
X1349Y1143D01*
X1374Y1143D02*
X1431Y1143D01*
X1451Y1143D02*
X1507Y1143D01*
X1529Y1143D02*
X1586Y1143D01*
X1608Y1143D02*
X1664Y1143D01*
X1687Y1143D02*
X1743Y1143D01*
X1766Y1143D02*
X1822Y1143D01*
X1844Y1143D02*
X1901Y1143D01*
X1293Y1142D02*
X1349Y1142D01*
X1374Y1142D02*
X1431Y1142D01*
X1451Y1142D02*
X1507Y1142D01*
X1529Y1142D02*
X1586Y1142D01*
X1608Y1142D02*
X1664Y1142D01*
X1687Y1142D02*
X1743Y1142D01*
X1766Y1142D02*
X1822Y1142D01*
X1844Y1142D02*
X1901Y1142D01*
X1293Y1141D02*
X1349Y1141D01*
X1374Y1141D02*
X1431Y1141D01*
X1451Y1141D02*
X1507Y1141D01*
X1529Y1141D02*
X1586Y1141D01*
X1608Y1141D02*
X1664Y1141D01*
X1687Y1141D02*
X1743Y1141D01*
X1766Y1141D02*
X1822Y1141D01*
X1844Y1141D02*
X1901Y1141D01*
X1293Y1140D02*
X1349Y1140D01*
X1374Y1140D02*
X1431Y1140D01*
X1451Y1140D02*
X1507Y1140D01*
X1529Y1140D02*
X1586Y1140D01*
X1608Y1140D02*
X1664Y1140D01*
X1687Y1140D02*
X1743Y1140D01*
X1766Y1140D02*
X1822Y1140D01*
X1844Y1140D02*
X1901Y1140D01*
X1293Y1139D02*
X1349Y1139D01*
X1374Y1139D02*
X1431Y1139D01*
X1451Y1139D02*
X1507Y1139D01*
X1529Y1139D02*
X1586Y1139D01*
X1608Y1139D02*
X1664Y1139D01*
X1687Y1139D02*
X1743Y1139D01*
X1766Y1139D02*
X1822Y1139D01*
X1844Y1139D02*
X1901Y1139D01*
X1293Y1138D02*
X1349Y1138D01*
X1374Y1138D02*
X1431Y1138D01*
X1451Y1138D02*
X1507Y1138D01*
X1529Y1138D02*
X1586Y1138D01*
X1608Y1138D02*
X1664Y1138D01*
X1687Y1138D02*
X1743Y1138D01*
X1766Y1138D02*
X1822Y1138D01*
X1844Y1138D02*
X1901Y1138D01*
X1293Y1137D02*
X1349Y1137D01*
X1374Y1137D02*
X1431Y1137D01*
X1451Y1137D02*
X1507Y1137D01*
X1529Y1137D02*
X1586Y1137D01*
X1608Y1137D02*
X1664Y1137D01*
X1687Y1137D02*
X1743Y1137D01*
X1766Y1137D02*
X1822Y1137D01*
X1844Y1137D02*
X1901Y1137D01*
X1293Y1136D02*
X1349Y1136D01*
X1374Y1136D02*
X1431Y1136D01*
X1451Y1136D02*
X1507Y1136D01*
X1529Y1136D02*
X1586Y1136D01*
X1608Y1136D02*
X1664Y1136D01*
X1687Y1136D02*
X1743Y1136D01*
X1766Y1136D02*
X1822Y1136D01*
X1844Y1136D02*
X1901Y1136D01*
X1293Y1135D02*
X1349Y1135D01*
X1374Y1135D02*
X1431Y1135D01*
X1451Y1135D02*
X1507Y1135D01*
X1529Y1135D02*
X1586Y1135D01*
X1608Y1135D02*
X1664Y1135D01*
X1687Y1135D02*
X1743Y1135D01*
X1766Y1135D02*
X1822Y1135D01*
X1844Y1135D02*
X1901Y1135D01*
X1293Y1134D02*
X1349Y1134D01*
X1374Y1134D02*
X1431Y1134D01*
X1451Y1134D02*
X1507Y1134D01*
X1529Y1134D02*
X1586Y1134D01*
X1608Y1134D02*
X1664Y1134D01*
X1687Y1134D02*
X1743Y1134D01*
X1766Y1134D02*
X1822Y1134D01*
X1844Y1134D02*
X1901Y1134D01*
X1293Y1133D02*
X1349Y1133D01*
X1374Y1133D02*
X1431Y1133D01*
X1451Y1133D02*
X1507Y1133D01*
X1529Y1133D02*
X1586Y1133D01*
X1608Y1133D02*
X1664Y1133D01*
X1687Y1133D02*
X1743Y1133D01*
X1766Y1133D02*
X1822Y1133D01*
X1844Y1133D02*
X1901Y1133D01*
X1293Y1132D02*
X1349Y1132D01*
X1374Y1132D02*
X1431Y1132D01*
X1451Y1132D02*
X1507Y1132D01*
X1529Y1132D02*
X1586Y1132D01*
X1608Y1132D02*
X1664Y1132D01*
X1687Y1132D02*
X1743Y1132D01*
X1766Y1132D02*
X1822Y1132D01*
X1844Y1132D02*
X1901Y1132D01*
X1293Y1131D02*
X1349Y1131D01*
X1374Y1131D02*
X1431Y1131D01*
X1451Y1131D02*
X1507Y1131D01*
X1529Y1131D02*
X1586Y1131D01*
X1608Y1131D02*
X1664Y1131D01*
X1687Y1131D02*
X1743Y1131D01*
X1766Y1131D02*
X1822Y1131D01*
X1844Y1131D02*
X1901Y1131D01*
X1293Y1130D02*
X1349Y1130D01*
X1374Y1130D02*
X1431Y1130D01*
X1451Y1130D02*
X1507Y1130D01*
X1529Y1130D02*
X1586Y1130D01*
X1608Y1130D02*
X1664Y1130D01*
X1687Y1130D02*
X1743Y1130D01*
X1766Y1130D02*
X1822Y1130D01*
X1844Y1130D02*
X1901Y1130D01*
X1293Y1129D02*
X1349Y1129D01*
X1374Y1129D02*
X1431Y1129D01*
X1451Y1129D02*
X1507Y1129D01*
X1529Y1129D02*
X1586Y1129D01*
X1608Y1129D02*
X1664Y1129D01*
X1687Y1129D02*
X1743Y1129D01*
X1766Y1129D02*
X1822Y1129D01*
X1844Y1129D02*
X1901Y1129D01*
X1293Y1128D02*
X1349Y1128D01*
X1374Y1128D02*
X1431Y1128D01*
X1451Y1128D02*
X1507Y1128D01*
X1529Y1128D02*
X1586Y1128D01*
X1608Y1128D02*
X1664Y1128D01*
X1687Y1128D02*
X1743Y1128D01*
X1766Y1128D02*
X1822Y1128D01*
X1844Y1128D02*
X1901Y1128D01*
X1293Y1127D02*
X1349Y1127D01*
X1374Y1127D02*
X1431Y1127D01*
X1451Y1127D02*
X1507Y1127D01*
X1529Y1127D02*
X1586Y1127D01*
X1608Y1127D02*
X1664Y1127D01*
X1687Y1127D02*
X1743Y1127D01*
X1766Y1127D02*
X1822Y1127D01*
X1844Y1127D02*
X1901Y1127D01*
X1293Y1126D02*
X1349Y1126D01*
X1374Y1126D02*
X1431Y1126D01*
X1451Y1126D02*
X1507Y1126D01*
X1529Y1126D02*
X1586Y1126D01*
X1608Y1126D02*
X1664Y1126D01*
X1687Y1126D02*
X1743Y1126D01*
X1766Y1126D02*
X1822Y1126D01*
X1844Y1126D02*
X1901Y1126D01*
X1293Y1125D02*
X1349Y1125D01*
X1374Y1125D02*
X1431Y1125D01*
X1451Y1125D02*
X1507Y1125D01*
X1529Y1125D02*
X1586Y1125D01*
X1608Y1125D02*
X1664Y1125D01*
X1687Y1125D02*
X1743Y1125D01*
X1766Y1125D02*
X1822Y1125D01*
X1844Y1125D02*
X1901Y1125D01*
X1293Y1124D02*
X1349Y1124D01*
X1374Y1124D02*
X1431Y1124D01*
X1451Y1124D02*
X1507Y1124D01*
X1529Y1124D02*
X1586Y1124D01*
X1608Y1124D02*
X1664Y1124D01*
X1687Y1124D02*
X1743Y1124D01*
X1766Y1124D02*
X1822Y1124D01*
X1844Y1124D02*
X1901Y1124D01*
X1293Y1123D02*
X1349Y1123D01*
X1374Y1123D02*
X1431Y1123D01*
X1451Y1123D02*
X1507Y1123D01*
X1529Y1123D02*
X1586Y1123D01*
X1608Y1123D02*
X1664Y1123D01*
X1687Y1123D02*
X1743Y1123D01*
X1766Y1123D02*
X1822Y1123D01*
X1844Y1123D02*
X1901Y1123D01*
X1293Y1122D02*
X1349Y1122D01*
X1374Y1122D02*
X1431Y1122D01*
X1451Y1122D02*
X1507Y1122D01*
X1529Y1122D02*
X1586Y1122D01*
X1608Y1122D02*
X1664Y1122D01*
X1687Y1122D02*
X1743Y1122D01*
X1766Y1122D02*
X1822Y1122D01*
X1844Y1122D02*
X1901Y1122D01*
X1293Y1121D02*
X1349Y1121D01*
X1374Y1121D02*
X1431Y1121D01*
X1451Y1121D02*
X1507Y1121D01*
X1529Y1121D02*
X1586Y1121D01*
X1608Y1121D02*
X1664Y1121D01*
X1687Y1121D02*
X1743Y1121D01*
X1766Y1121D02*
X1822Y1121D01*
X1844Y1121D02*
X1901Y1121D01*
X1293Y1120D02*
X1349Y1120D01*
X1374Y1120D02*
X1431Y1120D01*
X1451Y1120D02*
X1507Y1120D01*
X1529Y1120D02*
X1586Y1120D01*
X1608Y1120D02*
X1664Y1120D01*
X1687Y1120D02*
X1743Y1120D01*
X1766Y1120D02*
X1822Y1120D01*
X1844Y1120D02*
X1901Y1120D01*
X1293Y1119D02*
X1349Y1119D01*
X1374Y1119D02*
X1431Y1119D01*
X1451Y1119D02*
X1507Y1119D01*
X1529Y1119D02*
X1586Y1119D01*
X1608Y1119D02*
X1664Y1119D01*
X1687Y1119D02*
X1743Y1119D01*
X1766Y1119D02*
X1822Y1119D01*
X1844Y1119D02*
X1901Y1119D01*
X1293Y1118D02*
X1349Y1118D01*
X1374Y1118D02*
X1431Y1118D01*
X1451Y1118D02*
X1507Y1118D01*
X1529Y1118D02*
X1586Y1118D01*
X1608Y1118D02*
X1664Y1118D01*
X1687Y1118D02*
X1743Y1118D01*
X1766Y1118D02*
X1822Y1118D01*
X1844Y1118D02*
X1901Y1118D01*
X1293Y1117D02*
X1349Y1117D01*
X1374Y1117D02*
X1431Y1117D01*
X1451Y1117D02*
X1507Y1117D01*
X1529Y1117D02*
X1586Y1117D01*
X1608Y1117D02*
X1664Y1117D01*
X1687Y1117D02*
X1743Y1117D01*
X1766Y1117D02*
X1822Y1117D01*
X1844Y1117D02*
X1901Y1117D01*
X1293Y1116D02*
X1349Y1116D01*
X1374Y1116D02*
X1431Y1116D01*
X1451Y1116D02*
X1507Y1116D01*
X1529Y1116D02*
X1586Y1116D01*
X1608Y1116D02*
X1664Y1116D01*
X1687Y1116D02*
X1743Y1116D01*
X1766Y1116D02*
X1822Y1116D01*
X1844Y1116D02*
X1901Y1116D01*
X1293Y1115D02*
X1349Y1115D01*
X1374Y1115D02*
X1431Y1115D01*
X1451Y1115D02*
X1507Y1115D01*
X1529Y1115D02*
X1586Y1115D01*
X1608Y1115D02*
X1664Y1115D01*
X1687Y1115D02*
X1743Y1115D01*
X1766Y1115D02*
X1822Y1115D01*
X1844Y1115D02*
X1901Y1115D01*
X1293Y1114D02*
X1349Y1114D01*
X1374Y1114D02*
X1431Y1114D01*
X1451Y1114D02*
X1507Y1114D01*
X1529Y1114D02*
X1586Y1114D01*
X1608Y1114D02*
X1664Y1114D01*
X1687Y1114D02*
X1743Y1114D01*
X1766Y1114D02*
X1822Y1114D01*
X1844Y1114D02*
X1901Y1114D01*
X1293Y1113D02*
X1349Y1113D01*
X1374Y1113D02*
X1431Y1113D01*
X1451Y1113D02*
X1507Y1113D01*
X1529Y1113D02*
X1586Y1113D01*
X1608Y1113D02*
X1664Y1113D01*
X1687Y1113D02*
X1743Y1113D01*
X1766Y1113D02*
X1822Y1113D01*
X1844Y1113D02*
X1901Y1113D01*
X1293Y1112D02*
X1349Y1112D01*
X1374Y1112D02*
X1431Y1112D01*
X1451Y1112D02*
X1507Y1112D01*
X1529Y1112D02*
X1586Y1112D01*
X1608Y1112D02*
X1664Y1112D01*
X1687Y1112D02*
X1743Y1112D01*
X1766Y1112D02*
X1822Y1112D01*
X1844Y1112D02*
X1901Y1112D01*
X1293Y1111D02*
X1349Y1111D01*
X1374Y1111D02*
X1431Y1111D01*
X1451Y1111D02*
X1507Y1111D01*
X1529Y1111D02*
X1586Y1111D01*
X1608Y1111D02*
X1664Y1111D01*
X1687Y1111D02*
X1743Y1111D01*
X1766Y1111D02*
X1822Y1111D01*
X1844Y1111D02*
X1901Y1111D01*
X1293Y1110D02*
X1349Y1110D01*
X1374Y1110D02*
X1431Y1110D01*
X1451Y1110D02*
X1507Y1110D01*
X1529Y1110D02*
X1586Y1110D01*
X1608Y1110D02*
X1664Y1110D01*
X1687Y1110D02*
X1743Y1110D01*
X1766Y1110D02*
X1822Y1110D01*
X1844Y1110D02*
X1901Y1110D01*
X1293Y1109D02*
X1349Y1109D01*
X1374Y1109D02*
X1431Y1109D01*
X1451Y1109D02*
X1507Y1109D01*
X1529Y1109D02*
X1586Y1109D01*
X1608Y1109D02*
X1664Y1109D01*
X1687Y1109D02*
X1743Y1109D01*
X1766Y1109D02*
X1822Y1109D01*
X1844Y1109D02*
X1901Y1109D01*
X1293Y1108D02*
X1320Y1108D01*
X1323Y1108D02*
X1349Y1108D01*
X1374Y1108D02*
X1400Y1108D01*
X1404Y1108D02*
X1431Y1108D01*
X1451Y1108D02*
X1477Y1108D01*
X1481Y1108D02*
X1507Y1108D01*
X1529Y1108D02*
X1556Y1108D01*
X1559Y1108D02*
X1586Y1108D01*
X1608Y1108D02*
X1635Y1108D01*
X1638Y1108D02*
X1664Y1108D01*
X1687Y1108D02*
X1714Y1108D01*
X1716Y1108D02*
X1743Y1108D01*
X1766Y1108D02*
X1792Y1108D01*
X1796Y1108D02*
X1822Y1108D01*
X1844Y1108D02*
X1871Y1108D01*
X1875Y1108D02*
X1901Y1108D01*
X1293Y1107D02*
X1317Y1107D01*
X1326Y1107D02*
X1349Y1107D01*
X1374Y1107D02*
X1398Y1107D01*
X1407Y1107D02*
X1431Y1107D01*
X1451Y1107D02*
X1474Y1107D01*
X1483Y1107D02*
X1507Y1107D01*
X1529Y1107D02*
X1553Y1107D01*
X1562Y1107D02*
X1586Y1107D01*
X1608Y1107D02*
X1632Y1107D01*
X1641Y1107D02*
X1664Y1107D01*
X1687Y1107D02*
X1711Y1107D01*
X1719Y1107D02*
X1743Y1107D01*
X1766Y1107D02*
X1789Y1107D01*
X1798Y1107D02*
X1822Y1107D01*
X1844Y1107D02*
X1868Y1107D01*
X1877Y1107D02*
X1901Y1107D01*
X1293Y1106D02*
X1316Y1106D01*
X1327Y1106D02*
X1349Y1106D01*
X1374Y1106D02*
X1397Y1106D01*
X1408Y1106D02*
X1431Y1106D01*
X1451Y1106D02*
X1473Y1106D01*
X1484Y1106D02*
X1507Y1106D01*
X1529Y1106D02*
X1552Y1106D01*
X1563Y1106D02*
X1586Y1106D01*
X1608Y1106D02*
X1631Y1106D01*
X1642Y1106D02*
X1664Y1106D01*
X1687Y1106D02*
X1709Y1106D01*
X1720Y1106D02*
X1743Y1106D01*
X1766Y1106D02*
X1788Y1106D01*
X1799Y1106D02*
X1822Y1106D01*
X1844Y1106D02*
X1867Y1106D01*
X1878Y1106D02*
X1901Y1106D01*
X1293Y1105D02*
X1315Y1105D01*
X1328Y1105D02*
X1349Y1105D01*
X1374Y1105D02*
X1396Y1105D01*
X1409Y1105D02*
X1431Y1105D01*
X1451Y1105D02*
X1472Y1105D01*
X1485Y1105D02*
X1507Y1105D01*
X1529Y1105D02*
X1551Y1105D01*
X1564Y1105D02*
X1586Y1105D01*
X1608Y1105D02*
X1630Y1105D01*
X1643Y1105D02*
X1664Y1105D01*
X1687Y1105D02*
X1709Y1105D01*
X1721Y1105D02*
X1743Y1105D01*
X1766Y1105D02*
X1787Y1105D01*
X1800Y1105D02*
X1822Y1105D01*
X1844Y1105D02*
X1866Y1105D01*
X1879Y1105D02*
X1901Y1105D01*
X1293Y1104D02*
X1314Y1104D01*
X1328Y1104D02*
X1349Y1104D01*
X1374Y1104D02*
X1395Y1104D01*
X1409Y1104D02*
X1431Y1104D01*
X1451Y1104D02*
X1472Y1104D01*
X1486Y1104D02*
X1507Y1104D01*
X1529Y1104D02*
X1551Y1104D01*
X1565Y1104D02*
X1586Y1104D01*
X1608Y1104D02*
X1629Y1104D01*
X1643Y1104D02*
X1664Y1104D01*
X1687Y1104D02*
X1708Y1104D01*
X1722Y1104D02*
X1743Y1104D01*
X1766Y1104D02*
X1787Y1104D01*
X1801Y1104D02*
X1822Y1104D01*
X1844Y1104D02*
X1866Y1104D01*
X1880Y1104D02*
X1901Y1104D01*
X1293Y1103D02*
X1314Y1103D01*
X1329Y1103D02*
X1349Y1103D01*
X1374Y1103D02*
X1395Y1103D01*
X1410Y1103D02*
X1431Y1103D01*
X1451Y1103D02*
X1471Y1103D01*
X1486Y1103D02*
X1507Y1103D01*
X1529Y1103D02*
X1550Y1103D01*
X1565Y1103D02*
X1586Y1103D01*
X1608Y1103D02*
X1629Y1103D01*
X1644Y1103D02*
X1664Y1103D01*
X1687Y1103D02*
X1708Y1103D01*
X1722Y1103D02*
X1743Y1103D01*
X1766Y1103D02*
X1786Y1103D01*
X1801Y1103D02*
X1822Y1103D01*
X1844Y1103D02*
X1865Y1103D01*
X1880Y1103D02*
X1901Y1103D01*
X1293Y1102D02*
X1314Y1102D01*
X1329Y1102D02*
X1349Y1102D01*
X1374Y1102D02*
X1395Y1102D01*
X1410Y1102D02*
X1431Y1102D01*
X1451Y1102D02*
X1471Y1102D01*
X1486Y1102D02*
X1507Y1102D01*
X1529Y1102D02*
X1550Y1102D01*
X1565Y1102D02*
X1586Y1102D01*
X1608Y1102D02*
X1629Y1102D01*
X1644Y1102D02*
X1664Y1102D01*
X1687Y1102D02*
X1707Y1102D01*
X1723Y1102D02*
X1743Y1102D01*
X1766Y1102D02*
X1786Y1102D01*
X1801Y1102D02*
X1822Y1102D01*
X1844Y1102D02*
X1865Y1102D01*
X1880Y1102D02*
X1901Y1102D01*
X1293Y1101D02*
X1314Y1101D01*
X1329Y1101D02*
X1349Y1101D01*
X1374Y1101D02*
X1395Y1101D01*
X1410Y1101D02*
X1431Y1101D01*
X1451Y1101D02*
X1471Y1101D01*
X1487Y1101D02*
X1507Y1101D01*
X1529Y1101D02*
X1550Y1101D01*
X1565Y1101D02*
X1586Y1101D01*
X1608Y1101D02*
X1629Y1101D01*
X1644Y1101D02*
X1664Y1101D01*
X1687Y1101D02*
X1707Y1101D01*
X1723Y1101D02*
X1743Y1101D01*
X1766Y1101D02*
X1786Y1101D01*
X1801Y1101D02*
X1822Y1101D01*
X1844Y1101D02*
X1865Y1101D01*
X1880Y1101D02*
X1901Y1101D01*
X1293Y1100D02*
X1314Y1100D01*
X1329Y1100D02*
X1349Y1100D01*
X1374Y1100D02*
X1395Y1100D01*
X1410Y1100D02*
X1431Y1100D01*
X1451Y1100D02*
X1471Y1100D01*
X1486Y1100D02*
X1507Y1100D01*
X1529Y1100D02*
X1550Y1100D01*
X1565Y1100D02*
X1586Y1100D01*
X1608Y1100D02*
X1629Y1100D01*
X1644Y1100D02*
X1664Y1100D01*
X1687Y1100D02*
X1707Y1100D01*
X1723Y1100D02*
X1743Y1100D01*
X1766Y1100D02*
X1786Y1100D01*
X1801Y1100D02*
X1822Y1100D01*
X1844Y1100D02*
X1865Y1100D01*
X1880Y1100D02*
X1901Y1100D01*
X441Y1099D02*
X515Y1099D01*
X1293Y1099D02*
X1314Y1099D01*
X1329Y1099D02*
X1349Y1099D01*
X1374Y1099D02*
X1395Y1099D01*
X1410Y1099D02*
X1431Y1099D01*
X1451Y1099D02*
X1471Y1099D01*
X1486Y1099D02*
X1507Y1099D01*
X1529Y1099D02*
X1550Y1099D01*
X1565Y1099D02*
X1586Y1099D01*
X1608Y1099D02*
X1629Y1099D01*
X1644Y1099D02*
X1664Y1099D01*
X1687Y1099D02*
X1708Y1099D01*
X1722Y1099D02*
X1743Y1099D01*
X1766Y1099D02*
X1786Y1099D01*
X1801Y1099D02*
X1822Y1099D01*
X1844Y1099D02*
X1865Y1099D01*
X1880Y1099D02*
X1901Y1099D01*
X441Y1098D02*
X515Y1098D01*
X1293Y1098D02*
X1314Y1098D01*
X1328Y1098D02*
X1349Y1098D01*
X1374Y1098D02*
X1395Y1098D01*
X1409Y1098D02*
X1431Y1098D01*
X1451Y1098D02*
X1472Y1098D01*
X1486Y1098D02*
X1507Y1098D01*
X1529Y1098D02*
X1550Y1098D01*
X1565Y1098D02*
X1586Y1098D01*
X1608Y1098D02*
X1629Y1098D01*
X1643Y1098D02*
X1664Y1098D01*
X1687Y1098D02*
X1708Y1098D01*
X1722Y1098D02*
X1743Y1098D01*
X1766Y1098D02*
X1787Y1098D01*
X1801Y1098D02*
X1822Y1098D01*
X1844Y1098D02*
X1866Y1098D01*
X1880Y1098D02*
X1901Y1098D01*
X441Y1097D02*
X515Y1097D01*
X1293Y1097D02*
X1315Y1097D01*
X1328Y1097D02*
X1349Y1097D01*
X1374Y1097D02*
X1396Y1097D01*
X1409Y1097D02*
X1431Y1097D01*
X1451Y1097D02*
X1472Y1097D01*
X1485Y1097D02*
X1507Y1097D01*
X1529Y1097D02*
X1551Y1097D01*
X1564Y1097D02*
X1586Y1097D01*
X1608Y1097D02*
X1630Y1097D01*
X1643Y1097D02*
X1664Y1097D01*
X1687Y1097D02*
X1708Y1097D01*
X1721Y1097D02*
X1743Y1097D01*
X1766Y1097D02*
X1787Y1097D01*
X1800Y1097D02*
X1822Y1097D01*
X1844Y1097D02*
X1866Y1097D01*
X1879Y1097D02*
X1901Y1097D01*
X441Y1096D02*
X515Y1096D01*
X1293Y1096D02*
X1316Y1096D01*
X1327Y1096D02*
X1349Y1096D01*
X1374Y1096D02*
X1397Y1096D01*
X1408Y1096D02*
X1431Y1096D01*
X1451Y1096D02*
X1473Y1096D01*
X1484Y1096D02*
X1507Y1096D01*
X1529Y1096D02*
X1552Y1096D01*
X1563Y1096D02*
X1586Y1096D01*
X1608Y1096D02*
X1631Y1096D01*
X1642Y1096D02*
X1664Y1096D01*
X1687Y1096D02*
X1709Y1096D01*
X1721Y1096D02*
X1743Y1096D01*
X1766Y1096D02*
X1788Y1096D01*
X1799Y1096D02*
X1822Y1096D01*
X1844Y1096D02*
X1867Y1096D01*
X1878Y1096D02*
X1901Y1096D01*
X441Y1095D02*
X515Y1095D01*
X1293Y1095D02*
X1317Y1095D01*
X1326Y1095D02*
X1349Y1095D01*
X1374Y1095D02*
X1398Y1095D01*
X1407Y1095D02*
X1431Y1095D01*
X1451Y1095D02*
X1474Y1095D01*
X1483Y1095D02*
X1507Y1095D01*
X1529Y1095D02*
X1553Y1095D01*
X1562Y1095D02*
X1586Y1095D01*
X1608Y1095D02*
X1632Y1095D01*
X1641Y1095D02*
X1664Y1095D01*
X1687Y1095D02*
X1710Y1095D01*
X1719Y1095D02*
X1743Y1095D01*
X1766Y1095D02*
X1789Y1095D01*
X1798Y1095D02*
X1822Y1095D01*
X1844Y1095D02*
X1868Y1095D01*
X1877Y1095D02*
X1901Y1095D01*
X441Y1094D02*
X515Y1094D01*
X1293Y1094D02*
X1319Y1094D01*
X1324Y1094D02*
X1349Y1094D01*
X1374Y1094D02*
X1400Y1094D01*
X1405Y1094D02*
X1431Y1094D01*
X1451Y1094D02*
X1477Y1094D01*
X1481Y1094D02*
X1507Y1094D01*
X1529Y1094D02*
X1555Y1094D01*
X1560Y1094D02*
X1586Y1094D01*
X1608Y1094D02*
X1634Y1094D01*
X1639Y1094D02*
X1664Y1094D01*
X1687Y1094D02*
X1713Y1094D01*
X1717Y1094D02*
X1743Y1094D01*
X1766Y1094D02*
X1792Y1094D01*
X1796Y1094D02*
X1822Y1094D01*
X1844Y1094D02*
X1870Y1094D01*
X1875Y1094D02*
X1901Y1094D01*
X441Y1093D02*
X515Y1093D01*
X1293Y1093D02*
X1349Y1093D01*
X1374Y1093D02*
X1431Y1093D01*
X1451Y1093D02*
X1507Y1093D01*
X1529Y1093D02*
X1586Y1093D01*
X1608Y1093D02*
X1664Y1093D01*
X1687Y1093D02*
X1743Y1093D01*
X1766Y1093D02*
X1822Y1093D01*
X1844Y1093D02*
X1901Y1093D01*
X441Y1092D02*
X515Y1092D01*
X1293Y1092D02*
X1349Y1092D01*
X1374Y1092D02*
X1431Y1092D01*
X1451Y1092D02*
X1507Y1092D01*
X1529Y1092D02*
X1586Y1092D01*
X1608Y1092D02*
X1664Y1092D01*
X1687Y1092D02*
X1743Y1092D01*
X1766Y1092D02*
X1822Y1092D01*
X1844Y1092D02*
X1901Y1092D01*
X441Y1091D02*
X515Y1091D01*
X1293Y1091D02*
X1349Y1091D01*
X1374Y1091D02*
X1431Y1091D01*
X1451Y1091D02*
X1507Y1091D01*
X1529Y1091D02*
X1586Y1091D01*
X1608Y1091D02*
X1664Y1091D01*
X1687Y1091D02*
X1743Y1091D01*
X1766Y1091D02*
X1822Y1091D01*
X1844Y1091D02*
X1901Y1091D01*
X441Y1090D02*
X515Y1090D01*
X1293Y1090D02*
X1349Y1090D01*
X1374Y1090D02*
X1431Y1090D01*
X1451Y1090D02*
X1507Y1090D01*
X1529Y1090D02*
X1586Y1090D01*
X1608Y1090D02*
X1664Y1090D01*
X1687Y1090D02*
X1743Y1090D01*
X1766Y1090D02*
X1822Y1090D01*
X1844Y1090D02*
X1901Y1090D01*
X441Y1089D02*
X515Y1089D01*
X1293Y1089D02*
X1349Y1089D01*
X1374Y1089D02*
X1431Y1089D01*
X1451Y1089D02*
X1507Y1089D01*
X1529Y1089D02*
X1586Y1089D01*
X1608Y1089D02*
X1664Y1089D01*
X1687Y1089D02*
X1743Y1089D01*
X1766Y1089D02*
X1822Y1089D01*
X1844Y1089D02*
X1901Y1089D01*
X441Y1088D02*
X515Y1088D01*
X1293Y1088D02*
X1349Y1088D01*
X1374Y1088D02*
X1431Y1088D01*
X1451Y1088D02*
X1507Y1088D01*
X1529Y1088D02*
X1586Y1088D01*
X1608Y1088D02*
X1664Y1088D01*
X1687Y1088D02*
X1743Y1088D01*
X1766Y1088D02*
X1822Y1088D01*
X1844Y1088D02*
X1901Y1088D01*
X441Y1087D02*
X515Y1087D01*
X1293Y1087D02*
X1349Y1087D01*
X1374Y1087D02*
X1431Y1087D01*
X1451Y1087D02*
X1507Y1087D01*
X1529Y1087D02*
X1586Y1087D01*
X1608Y1087D02*
X1664Y1087D01*
X1687Y1087D02*
X1743Y1087D01*
X1766Y1087D02*
X1822Y1087D01*
X1844Y1087D02*
X1901Y1087D01*
X441Y1086D02*
X515Y1086D01*
X1293Y1086D02*
X1349Y1086D01*
X1374Y1086D02*
X1431Y1086D01*
X1451Y1086D02*
X1507Y1086D01*
X1529Y1086D02*
X1586Y1086D01*
X1608Y1086D02*
X1664Y1086D01*
X1687Y1086D02*
X1743Y1086D01*
X1766Y1086D02*
X1822Y1086D01*
X1844Y1086D02*
X1901Y1086D01*
X441Y1085D02*
X515Y1085D01*
X1293Y1085D02*
X1349Y1085D01*
X1374Y1085D02*
X1431Y1085D01*
X1451Y1085D02*
X1507Y1085D01*
X1529Y1085D02*
X1586Y1085D01*
X1608Y1085D02*
X1664Y1085D01*
X1687Y1085D02*
X1743Y1085D01*
X1766Y1085D02*
X1822Y1085D01*
X1844Y1085D02*
X1901Y1085D01*
X441Y1084D02*
X515Y1084D01*
X1293Y1084D02*
X1349Y1084D01*
X1374Y1084D02*
X1431Y1084D01*
X1451Y1084D02*
X1507Y1084D01*
X1529Y1084D02*
X1586Y1084D01*
X1608Y1084D02*
X1664Y1084D01*
X1687Y1084D02*
X1743Y1084D01*
X1766Y1084D02*
X1822Y1084D01*
X1844Y1084D02*
X1901Y1084D01*
X441Y1083D02*
X515Y1083D01*
X1293Y1083D02*
X1349Y1083D01*
X1374Y1083D02*
X1431Y1083D01*
X1451Y1083D02*
X1507Y1083D01*
X1529Y1083D02*
X1586Y1083D01*
X1608Y1083D02*
X1664Y1083D01*
X1687Y1083D02*
X1743Y1083D01*
X1766Y1083D02*
X1822Y1083D01*
X1844Y1083D02*
X1901Y1083D01*
X441Y1082D02*
X515Y1082D01*
X1293Y1082D02*
X1349Y1082D01*
X1374Y1082D02*
X1431Y1082D01*
X1451Y1082D02*
X1507Y1082D01*
X1529Y1082D02*
X1586Y1082D01*
X1608Y1082D02*
X1664Y1082D01*
X1687Y1082D02*
X1743Y1082D01*
X1766Y1082D02*
X1822Y1082D01*
X1844Y1082D02*
X1901Y1082D01*
X441Y1081D02*
X515Y1081D01*
X1293Y1081D02*
X1349Y1081D01*
X1374Y1081D02*
X1431Y1081D01*
X1451Y1081D02*
X1507Y1081D01*
X1529Y1081D02*
X1586Y1081D01*
X1608Y1081D02*
X1664Y1081D01*
X1687Y1081D02*
X1743Y1081D01*
X1766Y1081D02*
X1822Y1081D01*
X1844Y1081D02*
X1901Y1081D01*
X441Y1080D02*
X515Y1080D01*
X1293Y1080D02*
X1349Y1080D01*
X1374Y1080D02*
X1431Y1080D01*
X1451Y1080D02*
X1507Y1080D01*
X1529Y1080D02*
X1586Y1080D01*
X1608Y1080D02*
X1664Y1080D01*
X1687Y1080D02*
X1743Y1080D01*
X1766Y1080D02*
X1822Y1080D01*
X1844Y1080D02*
X1901Y1080D01*
X441Y1079D02*
X515Y1079D01*
X1293Y1079D02*
X1349Y1079D01*
X1374Y1079D02*
X1431Y1079D01*
X1451Y1079D02*
X1507Y1079D01*
X1529Y1079D02*
X1586Y1079D01*
X1608Y1079D02*
X1664Y1079D01*
X1687Y1079D02*
X1743Y1079D01*
X1766Y1079D02*
X1822Y1079D01*
X1844Y1079D02*
X1901Y1079D01*
X441Y1078D02*
X515Y1078D01*
X1293Y1078D02*
X1349Y1078D01*
X1374Y1078D02*
X1431Y1078D01*
X1451Y1078D02*
X1507Y1078D01*
X1529Y1078D02*
X1586Y1078D01*
X1608Y1078D02*
X1664Y1078D01*
X1687Y1078D02*
X1743Y1078D01*
X1766Y1078D02*
X1822Y1078D01*
X1844Y1078D02*
X1901Y1078D01*
X441Y1077D02*
X515Y1077D01*
X1293Y1077D02*
X1349Y1077D01*
X1374Y1077D02*
X1431Y1077D01*
X1451Y1077D02*
X1507Y1077D01*
X1529Y1077D02*
X1586Y1077D01*
X1608Y1077D02*
X1664Y1077D01*
X1687Y1077D02*
X1743Y1077D01*
X1766Y1077D02*
X1822Y1077D01*
X1844Y1077D02*
X1901Y1077D01*
X441Y1076D02*
X515Y1076D01*
X1293Y1076D02*
X1349Y1076D01*
X1374Y1076D02*
X1430Y1076D01*
X1451Y1076D02*
X1507Y1076D01*
X1529Y1076D02*
X1586Y1076D01*
X1608Y1076D02*
X1664Y1076D01*
X1687Y1076D02*
X1743Y1076D01*
X1766Y1076D02*
X1822Y1076D01*
X1845Y1076D02*
X1901Y1076D01*
X441Y1075D02*
X515Y1075D01*
X441Y1074D02*
X515Y1074D01*
X441Y1073D02*
X515Y1073D01*
X441Y1072D02*
X515Y1072D01*
X441Y1071D02*
X475Y1071D01*
X480Y1071D02*
X515Y1071D01*
X441Y1070D02*
X473Y1070D01*
X483Y1070D02*
X515Y1070D01*
X441Y1069D02*
X471Y1069D01*
X484Y1069D02*
X515Y1069D01*
X441Y1068D02*
X470Y1068D01*
X485Y1068D02*
X515Y1068D01*
X441Y1067D02*
X470Y1067D01*
X486Y1067D02*
X515Y1067D01*
X441Y1066D02*
X469Y1066D01*
X486Y1066D02*
X515Y1066D01*
X441Y1065D02*
X469Y1065D01*
X487Y1065D02*
X515Y1065D01*
X441Y1064D02*
X468Y1064D01*
X487Y1064D02*
X515Y1064D01*
X441Y1063D02*
X468Y1063D01*
X487Y1063D02*
X515Y1063D01*
X441Y1062D02*
X468Y1062D01*
X487Y1062D02*
X515Y1062D01*
X441Y1061D02*
X468Y1061D01*
X487Y1061D02*
X515Y1061D01*
X441Y1060D02*
X469Y1060D01*
X487Y1060D02*
X515Y1060D01*
X441Y1059D02*
X469Y1059D01*
X486Y1059D02*
X515Y1059D01*
X441Y1058D02*
X470Y1058D01*
X486Y1058D02*
X515Y1058D01*
X441Y1057D02*
X470Y1057D01*
X485Y1057D02*
X515Y1057D01*
X441Y1056D02*
X471Y1056D01*
X484Y1056D02*
X515Y1056D01*
X441Y1055D02*
X472Y1055D01*
X483Y1055D02*
X515Y1055D01*
X441Y1054D02*
X474Y1054D01*
X481Y1054D02*
X515Y1054D01*
X441Y1053D02*
X515Y1053D01*
X441Y1052D02*
X515Y1052D01*
X441Y1051D02*
X515Y1051D01*
X441Y1050D02*
X515Y1050D01*
X441Y1049D02*
X515Y1049D01*
X441Y1048D02*
X515Y1048D01*
X441Y1047D02*
X515Y1047D01*
X441Y1046D02*
X515Y1046D01*
X441Y1045D02*
X515Y1045D01*
X441Y1044D02*
X515Y1044D01*
X441Y1043D02*
X515Y1043D01*
X441Y1042D02*
X515Y1042D01*
X441Y1041D02*
X515Y1041D01*
X441Y1040D02*
X515Y1040D01*
X441Y1039D02*
X515Y1039D01*
X441Y1038D02*
X515Y1038D01*
X441Y1037D02*
X515Y1037D01*
X441Y1036D02*
X515Y1036D01*
X441Y1035D02*
X515Y1035D01*
X441Y1034D02*
X515Y1034D01*
X441Y1033D02*
X515Y1033D01*
X441Y1032D02*
X515Y1032D01*
X441Y1031D02*
X515Y1031D01*
X441Y1030D02*
X515Y1030D01*
X441Y1029D02*
X515Y1029D01*
X441Y1028D02*
X515Y1028D01*
X441Y1027D02*
X515Y1027D01*
X441Y1026D02*
X515Y1026D01*
X441Y1025D02*
X514Y1025D01*
X1294Y554D02*
X1349Y554D01*
X1374Y554D02*
X1430Y554D01*
X1451Y554D02*
X1507Y554D01*
X1530Y554D02*
X1586Y554D01*
X1608Y554D02*
X1664Y554D01*
X1687Y554D02*
X1743Y554D01*
X1766Y554D02*
X1822Y554D01*
X1845Y554D02*
X1901Y554D01*
X1293Y553D02*
X1350Y553D01*
X1374Y553D02*
X1431Y553D01*
X1451Y553D02*
X1507Y553D01*
X1530Y553D02*
X1586Y553D01*
X1608Y553D02*
X1665Y553D01*
X1687Y553D02*
X1743Y553D01*
X1766Y553D02*
X1822Y553D01*
X1844Y553D02*
X1901Y553D01*
X1293Y552D02*
X1350Y552D01*
X1374Y552D02*
X1431Y552D01*
X1451Y552D02*
X1507Y552D01*
X1530Y552D02*
X1586Y552D01*
X1608Y552D02*
X1665Y552D01*
X1687Y552D02*
X1743Y552D01*
X1766Y552D02*
X1822Y552D01*
X1844Y552D02*
X1901Y552D01*
X1293Y551D02*
X1350Y551D01*
X1374Y551D02*
X1431Y551D01*
X1451Y551D02*
X1507Y551D01*
X1530Y551D02*
X1586Y551D01*
X1608Y551D02*
X1665Y551D01*
X1687Y551D02*
X1743Y551D01*
X1766Y551D02*
X1822Y551D01*
X1844Y551D02*
X1901Y551D01*
X1293Y550D02*
X1350Y550D01*
X1374Y550D02*
X1431Y550D01*
X1451Y550D02*
X1507Y550D01*
X1530Y550D02*
X1586Y550D01*
X1608Y550D02*
X1665Y550D01*
X1687Y550D02*
X1743Y550D01*
X1766Y550D02*
X1822Y550D01*
X1844Y550D02*
X1901Y550D01*
X1293Y549D02*
X1350Y549D01*
X1374Y549D02*
X1431Y549D01*
X1451Y549D02*
X1507Y549D01*
X1530Y549D02*
X1586Y549D01*
X1608Y549D02*
X1665Y549D01*
X1687Y549D02*
X1743Y549D01*
X1766Y549D02*
X1822Y549D01*
X1844Y549D02*
X1901Y549D01*
X1293Y548D02*
X1350Y548D01*
X1374Y548D02*
X1431Y548D01*
X1451Y548D02*
X1507Y548D01*
X1530Y548D02*
X1586Y548D01*
X1608Y548D02*
X1665Y548D01*
X1687Y548D02*
X1743Y548D01*
X1766Y548D02*
X1822Y548D01*
X1844Y548D02*
X1901Y548D01*
X1293Y547D02*
X1350Y547D01*
X1374Y547D02*
X1431Y547D01*
X1451Y547D02*
X1507Y547D01*
X1530Y547D02*
X1586Y547D01*
X1608Y547D02*
X1665Y547D01*
X1687Y547D02*
X1743Y547D01*
X1766Y547D02*
X1822Y547D01*
X1844Y547D02*
X1901Y547D01*
X1293Y546D02*
X1350Y546D01*
X1374Y546D02*
X1431Y546D01*
X1451Y546D02*
X1507Y546D01*
X1530Y546D02*
X1586Y546D01*
X1608Y546D02*
X1665Y546D01*
X1687Y546D02*
X1743Y546D01*
X1766Y546D02*
X1822Y546D01*
X1844Y546D02*
X1901Y546D01*
X1293Y545D02*
X1350Y545D01*
X1374Y545D02*
X1431Y545D01*
X1451Y545D02*
X1507Y545D01*
X1530Y545D02*
X1586Y545D01*
X1608Y545D02*
X1665Y545D01*
X1687Y545D02*
X1743Y545D01*
X1766Y545D02*
X1822Y545D01*
X1844Y545D02*
X1901Y545D01*
X1293Y544D02*
X1350Y544D01*
X1374Y544D02*
X1431Y544D01*
X1451Y544D02*
X1507Y544D01*
X1530Y544D02*
X1586Y544D01*
X1608Y544D02*
X1665Y544D01*
X1687Y544D02*
X1743Y544D01*
X1766Y544D02*
X1822Y544D01*
X1844Y544D02*
X1901Y544D01*
X1293Y543D02*
X1350Y543D01*
X1374Y543D02*
X1431Y543D01*
X1451Y543D02*
X1507Y543D01*
X1530Y543D02*
X1586Y543D01*
X1608Y543D02*
X1665Y543D01*
X1687Y543D02*
X1743Y543D01*
X1766Y543D02*
X1822Y543D01*
X1844Y543D02*
X1901Y543D01*
X1293Y542D02*
X1350Y542D01*
X1374Y542D02*
X1431Y542D01*
X1451Y542D02*
X1507Y542D01*
X1530Y542D02*
X1586Y542D01*
X1608Y542D02*
X1665Y542D01*
X1687Y542D02*
X1743Y542D01*
X1766Y542D02*
X1822Y542D01*
X1844Y542D02*
X1901Y542D01*
X1293Y541D02*
X1350Y541D01*
X1374Y541D02*
X1431Y541D01*
X1451Y541D02*
X1507Y541D01*
X1530Y541D02*
X1586Y541D01*
X1608Y541D02*
X1665Y541D01*
X1687Y541D02*
X1743Y541D01*
X1766Y541D02*
X1822Y541D01*
X1844Y541D02*
X1901Y541D01*
X1293Y540D02*
X1350Y540D01*
X1374Y540D02*
X1431Y540D01*
X1451Y540D02*
X1507Y540D01*
X1530Y540D02*
X1586Y540D01*
X1608Y540D02*
X1665Y540D01*
X1687Y540D02*
X1743Y540D01*
X1766Y540D02*
X1822Y540D01*
X1844Y540D02*
X1901Y540D01*
X1293Y539D02*
X1350Y539D01*
X1374Y539D02*
X1431Y539D01*
X1451Y539D02*
X1507Y539D01*
X1530Y539D02*
X1586Y539D01*
X1608Y539D02*
X1665Y539D01*
X1687Y539D02*
X1743Y539D01*
X1766Y539D02*
X1822Y539D01*
X1844Y539D02*
X1901Y539D01*
X1293Y538D02*
X1350Y538D01*
X1374Y538D02*
X1431Y538D01*
X1451Y538D02*
X1507Y538D01*
X1530Y538D02*
X1586Y538D01*
X1608Y538D02*
X1665Y538D01*
X1687Y538D02*
X1743Y538D01*
X1766Y538D02*
X1822Y538D01*
X1844Y538D02*
X1901Y538D01*
X1293Y537D02*
X1350Y537D01*
X1374Y537D02*
X1431Y537D01*
X1451Y537D02*
X1507Y537D01*
X1530Y537D02*
X1586Y537D01*
X1608Y537D02*
X1665Y537D01*
X1687Y537D02*
X1743Y537D01*
X1766Y537D02*
X1822Y537D01*
X1844Y537D02*
X1901Y537D01*
X1293Y536D02*
X1350Y536D01*
X1374Y536D02*
X1431Y536D01*
X1451Y536D02*
X1478Y536D01*
X1480Y536D02*
X1507Y536D01*
X1530Y536D02*
X1556Y536D01*
X1559Y536D02*
X1586Y536D01*
X1608Y536D02*
X1635Y536D01*
X1638Y536D02*
X1665Y536D01*
X1687Y536D02*
X1714Y536D01*
X1716Y536D02*
X1743Y536D01*
X1766Y536D02*
X1793Y536D01*
X1795Y536D02*
X1822Y536D01*
X1844Y536D02*
X1871Y536D01*
X1874Y536D02*
X1901Y536D01*
X1293Y535D02*
X1317Y535D01*
X1326Y535D02*
X1350Y535D01*
X1374Y535D02*
X1398Y535D01*
X1407Y535D02*
X1431Y535D01*
X1451Y535D02*
X1475Y535D01*
X1483Y535D02*
X1507Y535D01*
X1530Y535D02*
X1553Y535D01*
X1562Y535D02*
X1586Y535D01*
X1608Y535D02*
X1632Y535D01*
X1641Y535D02*
X1665Y535D01*
X1687Y535D02*
X1711Y535D01*
X1719Y535D02*
X1743Y535D01*
X1766Y535D02*
X1790Y535D01*
X1798Y535D02*
X1822Y535D01*
X1844Y535D02*
X1868Y535D01*
X1877Y535D02*
X1901Y535D01*
X1293Y534D02*
X1316Y534D01*
X1327Y534D02*
X1350Y534D01*
X1374Y534D02*
X1397Y534D01*
X1408Y534D02*
X1431Y534D01*
X1451Y534D02*
X1473Y534D01*
X1484Y534D02*
X1507Y534D01*
X1530Y534D02*
X1552Y534D01*
X1563Y534D02*
X1586Y534D01*
X1608Y534D02*
X1631Y534D01*
X1642Y534D02*
X1665Y534D01*
X1687Y534D02*
X1710Y534D01*
X1721Y534D02*
X1743Y534D01*
X1766Y534D02*
X1788Y534D01*
X1799Y534D02*
X1822Y534D01*
X1844Y534D02*
X1867Y534D01*
X1878Y534D02*
X1901Y534D01*
X1293Y533D02*
X1315Y533D01*
X1328Y533D02*
X1350Y533D01*
X1374Y533D02*
X1396Y533D01*
X1409Y533D02*
X1431Y533D01*
X1451Y533D02*
X1473Y533D01*
X1485Y533D02*
X1507Y533D01*
X1530Y533D02*
X1551Y533D01*
X1564Y533D02*
X1586Y533D01*
X1608Y533D02*
X1630Y533D01*
X1643Y533D02*
X1665Y533D01*
X1687Y533D02*
X1709Y533D01*
X1721Y533D02*
X1743Y533D01*
X1766Y533D02*
X1787Y533D01*
X1800Y533D02*
X1822Y533D01*
X1844Y533D02*
X1866Y533D01*
X1879Y533D02*
X1901Y533D01*
X1293Y532D02*
X1314Y532D01*
X1328Y532D02*
X1350Y532D01*
X1374Y532D02*
X1395Y532D01*
X1409Y532D02*
X1431Y532D01*
X1451Y532D02*
X1472Y532D01*
X1486Y532D02*
X1507Y532D01*
X1530Y532D02*
X1551Y532D01*
X1565Y532D02*
X1586Y532D01*
X1608Y532D02*
X1629Y532D01*
X1643Y532D02*
X1665Y532D01*
X1687Y532D02*
X1708Y532D01*
X1722Y532D02*
X1743Y532D01*
X1766Y532D02*
X1787Y532D01*
X1801Y532D02*
X1822Y532D01*
X1844Y532D02*
X1866Y532D01*
X1880Y532D02*
X1901Y532D01*
X1293Y531D02*
X1314Y531D01*
X1329Y531D02*
X1350Y531D01*
X1374Y531D02*
X1395Y531D01*
X1410Y531D02*
X1431Y531D01*
X1451Y531D02*
X1472Y531D01*
X1486Y531D02*
X1507Y531D01*
X1530Y531D02*
X1550Y531D01*
X1565Y531D02*
X1586Y531D01*
X1608Y531D02*
X1629Y531D01*
X1644Y531D02*
X1665Y531D01*
X1687Y531D02*
X1708Y531D01*
X1722Y531D02*
X1743Y531D01*
X1766Y531D02*
X1786Y531D01*
X1801Y531D02*
X1822Y531D01*
X1844Y531D02*
X1865Y531D01*
X1880Y531D02*
X1901Y531D01*
X1293Y530D02*
X1314Y530D01*
X1329Y530D02*
X1350Y530D01*
X1374Y530D02*
X1395Y530D01*
X1410Y530D02*
X1431Y530D01*
X1451Y530D02*
X1471Y530D01*
X1486Y530D02*
X1507Y530D01*
X1530Y530D02*
X1550Y530D01*
X1565Y530D02*
X1586Y530D01*
X1608Y530D02*
X1629Y530D01*
X1644Y530D02*
X1665Y530D01*
X1687Y530D02*
X1707Y530D01*
X1723Y530D02*
X1743Y530D01*
X1766Y530D02*
X1786Y530D01*
X1801Y530D02*
X1822Y530D01*
X1844Y530D02*
X1865Y530D01*
X1880Y530D02*
X1901Y530D01*
X1293Y529D02*
X1314Y529D01*
X1329Y529D02*
X1350Y529D01*
X1374Y529D02*
X1395Y529D01*
X1410Y529D02*
X1431Y529D01*
X1451Y529D02*
X1471Y529D01*
X1487Y529D02*
X1507Y529D01*
X1530Y529D02*
X1550Y529D01*
X1565Y529D02*
X1586Y529D01*
X1608Y529D02*
X1629Y529D01*
X1644Y529D02*
X1665Y529D01*
X1687Y529D02*
X1707Y529D01*
X1723Y529D02*
X1743Y529D01*
X1766Y529D02*
X1786Y529D01*
X1801Y529D02*
X1822Y529D01*
X1844Y529D02*
X1865Y529D01*
X1880Y529D02*
X1901Y529D01*
X1293Y528D02*
X1314Y528D01*
X1329Y528D02*
X1350Y528D01*
X1374Y528D02*
X1395Y528D01*
X1410Y528D02*
X1431Y528D01*
X1451Y528D02*
X1471Y528D01*
X1486Y528D02*
X1507Y528D01*
X1530Y528D02*
X1550Y528D01*
X1565Y528D02*
X1586Y528D01*
X1608Y528D02*
X1629Y528D01*
X1644Y528D02*
X1665Y528D01*
X1687Y528D02*
X1707Y528D01*
X1723Y528D02*
X1743Y528D01*
X1766Y528D02*
X1786Y528D01*
X1801Y528D02*
X1822Y528D01*
X1844Y528D02*
X1865Y528D01*
X1880Y528D02*
X1901Y528D01*
X1293Y527D02*
X1314Y527D01*
X1329Y527D02*
X1350Y527D01*
X1374Y527D02*
X1395Y527D01*
X1410Y527D02*
X1431Y527D01*
X1451Y527D02*
X1471Y527D01*
X1486Y527D02*
X1507Y527D01*
X1530Y527D02*
X1550Y527D01*
X1565Y527D02*
X1586Y527D01*
X1608Y527D02*
X1629Y527D01*
X1644Y527D02*
X1665Y527D01*
X1687Y527D02*
X1708Y527D01*
X1722Y527D02*
X1743Y527D01*
X1766Y527D02*
X1786Y527D01*
X1801Y527D02*
X1822Y527D01*
X1844Y527D02*
X1865Y527D01*
X1880Y527D02*
X1901Y527D01*
X1293Y526D02*
X1314Y526D01*
X1329Y526D02*
X1350Y526D01*
X1374Y526D02*
X1395Y526D01*
X1410Y526D02*
X1431Y526D01*
X1451Y526D02*
X1472Y526D01*
X1486Y526D02*
X1507Y526D01*
X1530Y526D02*
X1551Y526D01*
X1565Y526D02*
X1586Y526D01*
X1608Y526D02*
X1629Y526D01*
X1644Y526D02*
X1665Y526D01*
X1687Y526D02*
X1708Y526D01*
X1722Y526D02*
X1743Y526D01*
X1766Y526D02*
X1787Y526D01*
X1801Y526D02*
X1822Y526D01*
X1844Y526D02*
X1865Y526D01*
X1880Y526D02*
X1901Y526D01*
X1293Y525D02*
X1315Y525D01*
X1328Y525D02*
X1350Y525D01*
X1374Y525D02*
X1396Y525D01*
X1409Y525D02*
X1431Y525D01*
X1451Y525D02*
X1472Y525D01*
X1485Y525D02*
X1507Y525D01*
X1530Y525D02*
X1551Y525D01*
X1564Y525D02*
X1586Y525D01*
X1608Y525D02*
X1630Y525D01*
X1643Y525D02*
X1665Y525D01*
X1687Y525D02*
X1709Y525D01*
X1722Y525D02*
X1743Y525D01*
X1766Y525D02*
X1787Y525D01*
X1800Y525D02*
X1822Y525D01*
X1844Y525D02*
X1866Y525D01*
X1879Y525D02*
X1901Y525D01*
X1293Y524D02*
X1316Y524D01*
X1327Y524D02*
X1350Y524D01*
X1374Y524D02*
X1397Y524D01*
X1408Y524D02*
X1431Y524D01*
X1451Y524D02*
X1473Y524D01*
X1485Y524D02*
X1507Y524D01*
X1530Y524D02*
X1552Y524D01*
X1563Y524D02*
X1586Y524D01*
X1608Y524D02*
X1631Y524D01*
X1642Y524D02*
X1665Y524D01*
X1687Y524D02*
X1709Y524D01*
X1721Y524D02*
X1743Y524D01*
X1766Y524D02*
X1788Y524D01*
X1799Y524D02*
X1822Y524D01*
X1844Y524D02*
X1867Y524D01*
X1878Y524D02*
X1901Y524D01*
X1293Y523D02*
X1317Y523D01*
X1326Y523D02*
X1350Y523D01*
X1374Y523D02*
X1398Y523D01*
X1407Y523D02*
X1431Y523D01*
X1451Y523D02*
X1474Y523D01*
X1483Y523D02*
X1507Y523D01*
X1530Y523D02*
X1553Y523D01*
X1562Y523D02*
X1586Y523D01*
X1608Y523D02*
X1632Y523D01*
X1641Y523D02*
X1665Y523D01*
X1687Y523D02*
X1711Y523D01*
X1720Y523D02*
X1743Y523D01*
X1766Y523D02*
X1789Y523D01*
X1798Y523D02*
X1822Y523D01*
X1844Y523D02*
X1868Y523D01*
X1877Y523D02*
X1901Y523D01*
X1293Y522D02*
X1319Y522D01*
X1324Y522D02*
X1350Y522D01*
X1374Y522D02*
X1400Y522D01*
X1405Y522D02*
X1431Y522D01*
X1451Y522D02*
X1476Y522D01*
X1481Y522D02*
X1507Y522D01*
X1530Y522D02*
X1555Y522D01*
X1560Y522D02*
X1586Y522D01*
X1608Y522D02*
X1634Y522D01*
X1639Y522D02*
X1665Y522D01*
X1687Y522D02*
X1713Y522D01*
X1717Y522D02*
X1743Y522D01*
X1766Y522D02*
X1791Y522D01*
X1796Y522D02*
X1822Y522D01*
X1844Y522D02*
X1870Y522D01*
X1875Y522D02*
X1901Y522D01*
X1293Y521D02*
X1350Y521D01*
X1374Y521D02*
X1431Y521D01*
X1451Y521D02*
X1507Y521D01*
X1530Y521D02*
X1586Y521D01*
X1608Y521D02*
X1665Y521D01*
X1687Y521D02*
X1743Y521D01*
X1766Y521D02*
X1822Y521D01*
X1844Y521D02*
X1901Y521D01*
X1293Y520D02*
X1350Y520D01*
X1374Y520D02*
X1431Y520D01*
X1451Y520D02*
X1507Y520D01*
X1530Y520D02*
X1586Y520D01*
X1608Y520D02*
X1665Y520D01*
X1687Y520D02*
X1743Y520D01*
X1766Y520D02*
X1822Y520D01*
X1844Y520D02*
X1901Y520D01*
X1293Y519D02*
X1350Y519D01*
X1374Y519D02*
X1431Y519D01*
X1451Y519D02*
X1507Y519D01*
X1530Y519D02*
X1586Y519D01*
X1608Y519D02*
X1665Y519D01*
X1687Y519D02*
X1743Y519D01*
X1766Y519D02*
X1822Y519D01*
X1844Y519D02*
X1901Y519D01*
X1293Y518D02*
X1350Y518D01*
X1374Y518D02*
X1431Y518D01*
X1451Y518D02*
X1507Y518D01*
X1530Y518D02*
X1586Y518D01*
X1608Y518D02*
X1665Y518D01*
X1687Y518D02*
X1743Y518D01*
X1766Y518D02*
X1822Y518D01*
X1844Y518D02*
X1901Y518D01*
X1293Y517D02*
X1350Y517D01*
X1374Y517D02*
X1431Y517D01*
X1451Y517D02*
X1507Y517D01*
X1530Y517D02*
X1586Y517D01*
X1608Y517D02*
X1665Y517D01*
X1687Y517D02*
X1743Y517D01*
X1766Y517D02*
X1822Y517D01*
X1844Y517D02*
X1901Y517D01*
X1293Y516D02*
X1350Y516D01*
X1374Y516D02*
X1431Y516D01*
X1451Y516D02*
X1507Y516D01*
X1530Y516D02*
X1586Y516D01*
X1608Y516D02*
X1665Y516D01*
X1687Y516D02*
X1743Y516D01*
X1766Y516D02*
X1822Y516D01*
X1844Y516D02*
X1901Y516D01*
X1293Y515D02*
X1350Y515D01*
X1374Y515D02*
X1431Y515D01*
X1451Y515D02*
X1507Y515D01*
X1530Y515D02*
X1586Y515D01*
X1608Y515D02*
X1665Y515D01*
X1687Y515D02*
X1743Y515D01*
X1766Y515D02*
X1822Y515D01*
X1844Y515D02*
X1901Y515D01*
X1293Y514D02*
X1350Y514D01*
X1374Y514D02*
X1431Y514D01*
X1451Y514D02*
X1507Y514D01*
X1530Y514D02*
X1586Y514D01*
X1608Y514D02*
X1665Y514D01*
X1687Y514D02*
X1743Y514D01*
X1766Y514D02*
X1822Y514D01*
X1844Y514D02*
X1901Y514D01*
X1293Y513D02*
X1350Y513D01*
X1374Y513D02*
X1431Y513D01*
X1451Y513D02*
X1507Y513D01*
X1530Y513D02*
X1586Y513D01*
X1608Y513D02*
X1665Y513D01*
X1687Y513D02*
X1743Y513D01*
X1766Y513D02*
X1822Y513D01*
X1844Y513D02*
X1901Y513D01*
X1293Y512D02*
X1350Y512D01*
X1374Y512D02*
X1431Y512D01*
X1451Y512D02*
X1507Y512D01*
X1530Y512D02*
X1586Y512D01*
X1608Y512D02*
X1665Y512D01*
X1687Y512D02*
X1743Y512D01*
X1766Y512D02*
X1822Y512D01*
X1844Y512D02*
X1901Y512D01*
X1293Y511D02*
X1350Y511D01*
X1374Y511D02*
X1431Y511D01*
X1451Y511D02*
X1507Y511D01*
X1530Y511D02*
X1586Y511D01*
X1608Y511D02*
X1665Y511D01*
X1687Y511D02*
X1743Y511D01*
X1766Y511D02*
X1822Y511D01*
X1844Y511D02*
X1901Y511D01*
X1293Y510D02*
X1350Y510D01*
X1374Y510D02*
X1431Y510D01*
X1451Y510D02*
X1507Y510D01*
X1530Y510D02*
X1586Y510D01*
X1608Y510D02*
X1665Y510D01*
X1687Y510D02*
X1743Y510D01*
X1766Y510D02*
X1822Y510D01*
X1844Y510D02*
X1901Y510D01*
X1293Y509D02*
X1350Y509D01*
X1374Y509D02*
X1431Y509D01*
X1451Y509D02*
X1507Y509D01*
X1530Y509D02*
X1586Y509D01*
X1608Y509D02*
X1665Y509D01*
X1687Y509D02*
X1743Y509D01*
X1766Y509D02*
X1822Y509D01*
X1844Y509D02*
X1901Y509D01*
X1293Y508D02*
X1350Y508D01*
X1374Y508D02*
X1431Y508D01*
X1451Y508D02*
X1507Y508D01*
X1530Y508D02*
X1586Y508D01*
X1608Y508D02*
X1665Y508D01*
X1687Y508D02*
X1743Y508D01*
X1766Y508D02*
X1822Y508D01*
X1844Y508D02*
X1901Y508D01*
X1293Y507D02*
X1350Y507D01*
X1374Y507D02*
X1431Y507D01*
X1451Y507D02*
X1507Y507D01*
X1530Y507D02*
X1586Y507D01*
X1608Y507D02*
X1665Y507D01*
X1687Y507D02*
X1743Y507D01*
X1766Y507D02*
X1822Y507D01*
X1844Y507D02*
X1901Y507D01*
X1293Y506D02*
X1350Y506D01*
X1374Y506D02*
X1431Y506D01*
X1451Y506D02*
X1507Y506D01*
X1530Y506D02*
X1586Y506D01*
X1608Y506D02*
X1665Y506D01*
X1687Y506D02*
X1743Y506D01*
X1766Y506D02*
X1822Y506D01*
X1844Y506D02*
X1901Y506D01*
X1293Y505D02*
X1350Y505D01*
X1374Y505D02*
X1431Y505D01*
X1451Y505D02*
X1507Y505D01*
X1530Y505D02*
X1586Y505D01*
X1608Y505D02*
X1665Y505D01*
X1687Y505D02*
X1743Y505D01*
X1766Y505D02*
X1822Y505D01*
X1844Y505D02*
X1901Y505D01*
X1293Y504D02*
X1350Y504D01*
X1374Y504D02*
X1431Y504D01*
X1451Y504D02*
X1507Y504D01*
X1530Y504D02*
X1586Y504D01*
X1608Y504D02*
X1665Y504D01*
X1687Y504D02*
X1743Y504D01*
X1766Y504D02*
X1822Y504D01*
X1844Y504D02*
X1901Y504D01*
X1293Y503D02*
X1350Y503D01*
X1374Y503D02*
X1431Y503D01*
X1451Y503D02*
X1507Y503D01*
X1530Y503D02*
X1586Y503D01*
X1608Y503D02*
X1665Y503D01*
X1687Y503D02*
X1743Y503D01*
X1766Y503D02*
X1822Y503D01*
X1844Y503D02*
X1901Y503D01*
X1293Y502D02*
X1350Y502D01*
X1374Y502D02*
X1431Y502D01*
X1451Y502D02*
X1507Y502D01*
X1530Y502D02*
X1586Y502D01*
X1608Y502D02*
X1665Y502D01*
X1687Y502D02*
X1743Y502D01*
X1766Y502D02*
X1822Y502D01*
X1844Y502D02*
X1901Y502D01*
X1293Y501D02*
X1350Y501D01*
X1374Y501D02*
X1431Y501D01*
X1451Y501D02*
X1507Y501D01*
X1530Y501D02*
X1586Y501D01*
X1608Y501D02*
X1665Y501D01*
X1687Y501D02*
X1743Y501D01*
X1766Y501D02*
X1822Y501D01*
X1844Y501D02*
X1901Y501D01*
X1293Y500D02*
X1350Y500D01*
X1374Y500D02*
X1431Y500D01*
X1451Y500D02*
X1507Y500D01*
X1530Y500D02*
X1586Y500D01*
X1608Y500D02*
X1665Y500D01*
X1687Y500D02*
X1743Y500D01*
X1766Y500D02*
X1822Y500D01*
X1844Y500D02*
X1901Y500D01*
X1293Y499D02*
X1350Y499D01*
X1374Y499D02*
X1431Y499D01*
X1451Y499D02*
X1507Y499D01*
X1530Y499D02*
X1586Y499D01*
X1608Y499D02*
X1665Y499D01*
X1687Y499D02*
X1743Y499D01*
X1766Y499D02*
X1822Y499D01*
X1844Y499D02*
X1901Y499D01*
X1293Y498D02*
X1350Y498D01*
X1374Y498D02*
X1431Y498D01*
X1451Y498D02*
X1507Y498D01*
X1530Y498D02*
X1586Y498D01*
X1608Y498D02*
X1665Y498D01*
X1687Y498D02*
X1743Y498D01*
X1766Y498D02*
X1822Y498D01*
X1844Y498D02*
X1901Y498D01*
X1293Y497D02*
X1350Y497D01*
X1374Y497D02*
X1431Y497D01*
X1451Y497D02*
X1507Y497D01*
X1530Y497D02*
X1586Y497D01*
X1608Y497D02*
X1665Y497D01*
X1687Y497D02*
X1743Y497D01*
X1766Y497D02*
X1822Y497D01*
X1844Y497D02*
X1901Y497D01*
X1293Y496D02*
X1350Y496D01*
X1374Y496D02*
X1431Y496D01*
X1451Y496D02*
X1507Y496D01*
X1530Y496D02*
X1586Y496D01*
X1608Y496D02*
X1665Y496D01*
X1687Y496D02*
X1743Y496D01*
X1766Y496D02*
X1822Y496D01*
X1844Y496D02*
X1901Y496D01*
X1293Y495D02*
X1350Y495D01*
X1374Y495D02*
X1431Y495D01*
X1451Y495D02*
X1507Y495D01*
X1530Y495D02*
X1586Y495D01*
X1608Y495D02*
X1665Y495D01*
X1687Y495D02*
X1743Y495D01*
X1766Y495D02*
X1822Y495D01*
X1844Y495D02*
X1901Y495D01*
X1293Y494D02*
X1350Y494D01*
X1374Y494D02*
X1431Y494D01*
X1451Y494D02*
X1507Y494D01*
X1530Y494D02*
X1586Y494D01*
X1608Y494D02*
X1665Y494D01*
X1687Y494D02*
X1743Y494D01*
X1766Y494D02*
X1822Y494D01*
X1844Y494D02*
X1901Y494D01*
X1293Y493D02*
X1350Y493D01*
X1374Y493D02*
X1431Y493D01*
X1451Y493D02*
X1507Y493D01*
X1530Y493D02*
X1586Y493D01*
X1608Y493D02*
X1665Y493D01*
X1687Y493D02*
X1743Y493D01*
X1766Y493D02*
X1822Y493D01*
X1844Y493D02*
X1901Y493D01*
X1293Y492D02*
X1350Y492D01*
X1374Y492D02*
X1431Y492D01*
X1451Y492D02*
X1507Y492D01*
X1530Y492D02*
X1586Y492D01*
X1608Y492D02*
X1665Y492D01*
X1687Y492D02*
X1743Y492D01*
X1766Y492D02*
X1822Y492D01*
X1844Y492D02*
X1901Y492D01*
X1293Y491D02*
X1350Y491D01*
X1374Y491D02*
X1431Y491D01*
X1451Y491D02*
X1507Y491D01*
X1530Y491D02*
X1586Y491D01*
X1608Y491D02*
X1665Y491D01*
X1687Y491D02*
X1743Y491D01*
X1766Y491D02*
X1822Y491D01*
X1844Y491D02*
X1901Y491D01*
X1293Y490D02*
X1350Y490D01*
X1374Y490D02*
X1431Y490D01*
X1451Y490D02*
X1507Y490D01*
X1530Y490D02*
X1586Y490D01*
X1608Y490D02*
X1665Y490D01*
X1687Y490D02*
X1743Y490D01*
X1766Y490D02*
X1822Y490D01*
X1844Y490D02*
X1901Y490D01*
X1293Y489D02*
X1350Y489D01*
X1374Y489D02*
X1431Y489D01*
X1451Y489D02*
X1507Y489D01*
X1530Y489D02*
X1586Y489D01*
X1608Y489D02*
X1665Y489D01*
X1687Y489D02*
X1743Y489D01*
X1766Y489D02*
X1822Y489D01*
X1844Y489D02*
X1901Y489D01*
X1293Y488D02*
X1350Y488D01*
X1374Y488D02*
X1431Y488D01*
X1451Y488D02*
X1507Y488D01*
X1530Y488D02*
X1586Y488D01*
X1608Y488D02*
X1665Y488D01*
X1687Y488D02*
X1743Y488D01*
X1766Y488D02*
X1822Y488D01*
X1844Y488D02*
X1901Y488D01*
X1293Y487D02*
X1350Y487D01*
X1374Y487D02*
X1431Y487D01*
X1451Y487D02*
X1507Y487D01*
X1530Y487D02*
X1586Y487D01*
X1608Y487D02*
X1665Y487D01*
X1687Y487D02*
X1743Y487D01*
X1766Y487D02*
X1822Y487D01*
X1844Y487D02*
X1901Y487D01*
X1293Y486D02*
X1350Y486D01*
X1374Y486D02*
X1431Y486D01*
X1451Y486D02*
X1507Y486D01*
X1530Y486D02*
X1586Y486D01*
X1608Y486D02*
X1665Y486D01*
X1687Y486D02*
X1743Y486D01*
X1766Y486D02*
X1822Y486D01*
X1844Y486D02*
X1901Y486D01*
X1293Y485D02*
X1350Y485D01*
X1374Y485D02*
X1431Y485D01*
X1451Y485D02*
X1507Y485D01*
X1530Y485D02*
X1586Y485D01*
X1608Y485D02*
X1665Y485D01*
X1687Y485D02*
X1743Y485D01*
X1766Y485D02*
X1822Y485D01*
X1844Y485D02*
X1901Y485D01*
X1293Y484D02*
X1350Y484D01*
X1374Y484D02*
X1431Y484D01*
X1451Y484D02*
X1507Y484D01*
X1530Y484D02*
X1586Y484D01*
X1608Y484D02*
X1665Y484D01*
X1687Y484D02*
X1743Y484D01*
X1766Y484D02*
X1822Y484D01*
X1844Y484D02*
X1901Y484D01*
X1293Y483D02*
X1350Y483D01*
X1374Y483D02*
X1431Y483D01*
X1451Y483D02*
X1507Y483D01*
X1530Y483D02*
X1586Y483D01*
X1608Y483D02*
X1665Y483D01*
X1687Y483D02*
X1743Y483D01*
X1766Y483D02*
X1822Y483D01*
X1844Y483D02*
X1901Y483D01*
X1293Y482D02*
X1350Y482D01*
X1374Y482D02*
X1431Y482D01*
X1451Y482D02*
X1507Y482D01*
X1530Y482D02*
X1586Y482D01*
X1608Y482D02*
X1665Y482D01*
X1687Y482D02*
X1743Y482D01*
X1766Y482D02*
X1822Y482D01*
X1844Y482D02*
X1901Y482D01*
X1293Y481D02*
X1350Y481D01*
X1374Y481D02*
X1431Y481D01*
X1451Y481D02*
X1507Y481D01*
X1530Y481D02*
X1586Y481D01*
X1608Y481D02*
X1665Y481D01*
X1687Y481D02*
X1743Y481D01*
X1766Y481D02*
X1822Y481D01*
X1844Y481D02*
X1901Y481D01*
X1293Y480D02*
X1350Y480D01*
X1374Y480D02*
X1431Y480D01*
X1451Y480D02*
X1507Y480D01*
X1530Y480D02*
X1586Y480D01*
X1608Y480D02*
X1665Y480D01*
X1687Y480D02*
X1743Y480D01*
X1766Y480D02*
X1822Y480D01*
X1844Y480D02*
X1901Y480D01*
X1293Y479D02*
X1350Y479D01*
X1374Y479D02*
X1431Y479D01*
X1451Y479D02*
X1507Y479D01*
X1530Y479D02*
X1586Y479D01*
X1608Y479D02*
X1665Y479D01*
X1687Y479D02*
X1743Y479D01*
X1766Y479D02*
X1822Y479D01*
X1844Y479D02*
X1901Y479D01*
X1293Y478D02*
X1350Y478D01*
X1374Y478D02*
X1431Y478D01*
X1451Y478D02*
X1507Y478D01*
X1530Y478D02*
X1586Y478D01*
X1608Y478D02*
X1665Y478D01*
X1687Y478D02*
X1743Y478D01*
X1766Y478D02*
X1822Y478D01*
X1844Y478D02*
X1901Y478D01*
X1293Y477D02*
X1350Y477D01*
X1374Y477D02*
X1431Y477D01*
X1451Y477D02*
X1507Y477D01*
X1530Y477D02*
X1586Y477D01*
X1608Y477D02*
X1665Y477D01*
X1687Y477D02*
X1743Y477D01*
X1766Y477D02*
X1822Y477D01*
X1844Y477D02*
X1901Y477D01*
X1293Y476D02*
X1350Y476D01*
X1374Y476D02*
X1431Y476D01*
X1451Y476D02*
X1507Y476D01*
X1530Y476D02*
X1586Y476D01*
X1608Y476D02*
X1665Y476D01*
X1687Y476D02*
X1743Y476D01*
X1766Y476D02*
X1822Y476D01*
X1844Y476D02*
X1901Y476D01*
X1293Y475D02*
X1350Y475D01*
X1374Y475D02*
X1431Y475D01*
X1451Y475D02*
X1507Y475D01*
X1530Y475D02*
X1586Y475D01*
X1608Y475D02*
X1665Y475D01*
X1687Y475D02*
X1743Y475D01*
X1766Y475D02*
X1822Y475D01*
X1844Y475D02*
X1901Y475D01*
X1293Y474D02*
X1350Y474D01*
X1374Y474D02*
X1431Y474D01*
X1451Y474D02*
X1507Y474D01*
X1530Y474D02*
X1586Y474D01*
X1608Y474D02*
X1665Y474D01*
X1687Y474D02*
X1743Y474D01*
X1766Y474D02*
X1822Y474D01*
X1844Y474D02*
X1901Y474D01*
X1293Y473D02*
X1350Y473D01*
X1374Y473D02*
X1431Y473D01*
X1451Y473D02*
X1507Y473D01*
X1530Y473D02*
X1586Y473D01*
X1608Y473D02*
X1665Y473D01*
X1687Y473D02*
X1743Y473D01*
X1766Y473D02*
X1822Y473D01*
X1844Y473D02*
X1901Y473D01*
X1293Y472D02*
X1350Y472D01*
X1374Y472D02*
X1431Y472D01*
X1451Y472D02*
X1507Y472D01*
X1530Y472D02*
X1586Y472D01*
X1608Y472D02*
X1665Y472D01*
X1687Y472D02*
X1743Y472D01*
X1766Y472D02*
X1822Y472D01*
X1844Y472D02*
X1901Y472D01*
X1293Y471D02*
X1350Y471D01*
X1374Y471D02*
X1431Y471D01*
X1451Y471D02*
X1507Y471D01*
X1530Y471D02*
X1586Y471D01*
X1608Y471D02*
X1665Y471D01*
X1687Y471D02*
X1743Y471D01*
X1766Y471D02*
X1822Y471D01*
X1844Y471D02*
X1901Y471D01*
X1293Y470D02*
X1350Y470D01*
X1374Y470D02*
X1431Y470D01*
X1451Y470D02*
X1507Y470D01*
X1530Y470D02*
X1586Y470D01*
X1608Y470D02*
X1665Y470D01*
X1687Y470D02*
X1743Y470D01*
X1766Y470D02*
X1822Y470D01*
X1844Y470D02*
X1901Y470D01*
X1293Y469D02*
X1350Y469D01*
X1374Y469D02*
X1431Y469D01*
X1451Y469D02*
X1507Y469D01*
X1530Y469D02*
X1586Y469D01*
X1608Y469D02*
X1665Y469D01*
X1687Y469D02*
X1743Y469D01*
X1766Y469D02*
X1822Y469D01*
X1844Y469D02*
X1901Y469D01*
X1293Y468D02*
X1350Y468D01*
X1374Y468D02*
X1431Y468D01*
X1451Y468D02*
X1507Y468D01*
X1530Y468D02*
X1586Y468D01*
X1608Y468D02*
X1665Y468D01*
X1687Y468D02*
X1743Y468D01*
X1766Y468D02*
X1822Y468D01*
X1844Y468D02*
X1901Y468D01*
X1293Y467D02*
X1350Y467D01*
X1374Y467D02*
X1431Y467D01*
X1451Y467D02*
X1507Y467D01*
X1530Y467D02*
X1586Y467D01*
X1608Y467D02*
X1665Y467D01*
X1687Y467D02*
X1743Y467D01*
X1766Y467D02*
X1822Y467D01*
X1844Y467D02*
X1901Y467D01*
X1293Y466D02*
X1350Y466D01*
X1374Y466D02*
X1431Y466D01*
X1451Y466D02*
X1507Y466D01*
X1530Y466D02*
X1586Y466D01*
X1608Y466D02*
X1665Y466D01*
X1687Y466D02*
X1743Y466D01*
X1766Y466D02*
X1822Y466D01*
X1844Y466D02*
X1901Y466D01*
X1293Y465D02*
X1350Y465D01*
X1374Y465D02*
X1431Y465D01*
X1451Y465D02*
X1507Y465D01*
X1530Y465D02*
X1586Y465D01*
X1608Y465D02*
X1665Y465D01*
X1687Y465D02*
X1743Y465D01*
X1766Y465D02*
X1822Y465D01*
X1844Y465D02*
X1901Y465D01*
X1293Y464D02*
X1350Y464D01*
X1374Y464D02*
X1431Y464D01*
X1451Y464D02*
X1507Y464D01*
X1530Y464D02*
X1586Y464D01*
X1608Y464D02*
X1665Y464D01*
X1687Y464D02*
X1743Y464D01*
X1766Y464D02*
X1822Y464D01*
X1844Y464D02*
X1901Y464D01*
X1293Y463D02*
X1350Y463D01*
X1374Y463D02*
X1431Y463D01*
X1451Y463D02*
X1507Y463D01*
X1530Y463D02*
X1586Y463D01*
X1608Y463D02*
X1665Y463D01*
X1687Y463D02*
X1743Y463D01*
X1766Y463D02*
X1822Y463D01*
X1844Y463D02*
X1901Y463D01*
X1293Y462D02*
X1350Y462D01*
X1374Y462D02*
X1431Y462D01*
X1451Y462D02*
X1507Y462D01*
X1530Y462D02*
X1586Y462D01*
X1608Y462D02*
X1665Y462D01*
X1687Y462D02*
X1743Y462D01*
X1766Y462D02*
X1822Y462D01*
X1844Y462D02*
X1901Y462D01*
X1293Y461D02*
X1350Y461D01*
X1374Y461D02*
X1431Y461D01*
X1451Y461D02*
X1507Y461D01*
X1530Y461D02*
X1586Y461D01*
X1608Y461D02*
X1665Y461D01*
X1687Y461D02*
X1743Y461D01*
X1766Y461D02*
X1822Y461D01*
X1844Y461D02*
X1901Y461D01*
X1293Y460D02*
X1350Y460D01*
X1374Y460D02*
X1431Y460D01*
X1451Y460D02*
X1507Y460D01*
X1530Y460D02*
X1586Y460D01*
X1608Y460D02*
X1665Y460D01*
X1687Y460D02*
X1743Y460D01*
X1766Y460D02*
X1822Y460D01*
X1844Y460D02*
X1901Y460D01*
X1293Y459D02*
X1350Y459D01*
X1374Y459D02*
X1431Y459D01*
X1451Y459D02*
X1507Y459D01*
X1530Y459D02*
X1586Y459D01*
X1608Y459D02*
X1665Y459D01*
X1687Y459D02*
X1743Y459D01*
X1766Y459D02*
X1822Y459D01*
X1844Y459D02*
X1901Y459D01*
X1293Y458D02*
X1350Y458D01*
X1374Y458D02*
X1431Y458D01*
X1451Y458D02*
X1507Y458D01*
X1530Y458D02*
X1586Y458D01*
X1608Y458D02*
X1665Y458D01*
X1687Y458D02*
X1743Y458D01*
X1766Y458D02*
X1822Y458D01*
X1844Y458D02*
X1901Y458D01*
X1293Y457D02*
X1350Y457D01*
X1374Y457D02*
X1431Y457D01*
X1451Y457D02*
X1507Y457D01*
X1530Y457D02*
X1586Y457D01*
X1608Y457D02*
X1665Y457D01*
X1687Y457D02*
X1743Y457D01*
X1766Y457D02*
X1822Y457D01*
X1844Y457D02*
X1901Y457D01*
X1293Y456D02*
X1349Y456D01*
X1374Y456D02*
X1430Y456D01*
X1451Y456D02*
X1507Y456D01*
X1530Y456D02*
X1586Y456D01*
X1608Y456D02*
X1664Y456D01*
X1687Y456D02*
X1743Y456D01*
X1766Y456D02*
X1822Y456D01*
X1845Y456D02*
X1901Y456D01*
D02*
G04 End of Mask1*
M02*