G04 MADE WITH FRITZING*
G04 WWW.FRITZING.ORG*
G04 DOUBLE SIDED*
G04 HOLES PLATED*
G04 CONTOUR ON CENTER OF CONTOUR VECTOR*
%ASAXBY*%
%FSLAX23Y23*%
%MOIN*%
%OFA0B0*%
%SFA1.0B1.0*%
%ADD10C,0.082677*%
%ADD11C,0.074000*%
%ADD12C,0.039370*%
%ADD13C,0.062992*%
%ADD14C,0.051496*%
%ADD15C,0.094803*%
%ADD16C,0.078000*%
%ADD17C,0.065000*%
%ADD18R,0.074000X0.074000*%
%ADD19R,0.062992X0.062992*%
%ADD20R,0.062992X0.090551*%
%ADD21C,0.024000*%
%ADD22R,0.001000X0.001000*%
%LNCOPPER0*%
G90*
G70*
G54D10*
X222Y1320D03*
X220Y1606D03*
G54D11*
X1416Y1737D03*
X1416Y1637D03*
X1416Y1537D03*
X1416Y1437D03*
X1316Y1737D03*
X1316Y1637D03*
X1316Y1537D03*
X1316Y1437D03*
G54D12*
X1553Y1225D03*
X1478Y1287D03*
G54D13*
X553Y1689D03*
X553Y1787D03*
X978Y1689D03*
X978Y1787D03*
G54D14*
X253Y1525D03*
X253Y1462D03*
X253Y1399D03*
X206Y1494D03*
X206Y1431D03*
G54D15*
X52Y1318D03*
X52Y1606D03*
G54D12*
X1403Y612D03*
X566Y575D03*
G54D16*
X841Y425D03*
X741Y425D03*
X103Y800D03*
X103Y700D03*
X103Y600D03*
X103Y500D03*
X103Y400D03*
X103Y300D03*
G54D12*
X991Y1025D03*
X994Y507D03*
X1866Y625D03*
X1116Y1337D03*
X1641Y412D03*
X1191Y912D03*
G54D17*
X516Y1325D03*
X516Y1425D03*
X478Y962D03*
X478Y1062D03*
G54D18*
X1316Y1737D03*
G54D19*
X553Y1689D03*
X978Y1689D03*
G54D20*
X391Y1625D03*
X391Y1873D03*
G54D21*
X1241Y1225D02*
X1534Y1225D01*
D02*
X1241Y1538D02*
X1241Y1225D01*
D02*
X1285Y1537D02*
X1241Y1538D01*
D02*
X1316Y1288D02*
X1459Y1287D01*
D02*
X1316Y1406D02*
X1316Y1288D01*
D02*
X1628Y612D02*
X1629Y1637D01*
D02*
X1629Y1637D02*
X1447Y1637D01*
D02*
X1628Y612D02*
X1422Y612D01*
D02*
X1117Y412D02*
X1116Y1318D01*
D02*
X1622Y412D02*
X1117Y412D01*
D02*
X1879Y1838D02*
X1205Y1836D01*
D02*
X1205Y1637D02*
X1285Y1637D01*
D02*
X1205Y1836D02*
X1205Y1637D01*
D02*
X1866Y644D02*
X1879Y1838D01*
D02*
X992Y325D02*
X742Y325D01*
D02*
X742Y325D02*
X741Y394D01*
D02*
X993Y488D02*
X992Y325D01*
D02*
X993Y525D02*
X991Y1006D01*
D02*
X1705Y1737D02*
X1704Y262D01*
D02*
X1447Y1737D02*
X1705Y1737D01*
D02*
X566Y262D02*
X566Y556D01*
D02*
X1704Y262D02*
X566Y262D01*
D02*
X265Y599D02*
X133Y599D01*
D02*
X553Y1875D02*
X553Y1814D01*
D02*
X417Y1873D02*
X553Y1875D01*
D02*
X855Y1563D02*
X533Y1562D01*
D02*
X855Y1400D02*
X855Y1563D01*
D02*
X533Y1562D02*
X453Y1625D01*
D02*
X453Y1625D02*
X417Y1625D01*
D02*
X1192Y1399D02*
X855Y1400D01*
D02*
X1191Y931D02*
X1192Y1399D01*
D02*
X266Y1063D02*
X265Y599D01*
D02*
X453Y1062D02*
X266Y1063D01*
G54D22*
X483Y1457D02*
X547Y1457D01*
X483Y1456D02*
X547Y1456D01*
X483Y1455D02*
X547Y1455D01*
X483Y1454D02*
X547Y1454D01*
X483Y1453D02*
X547Y1453D01*
X483Y1452D02*
X547Y1452D01*
X483Y1451D02*
X547Y1451D01*
X483Y1450D02*
X547Y1450D01*
X483Y1449D02*
X547Y1449D01*
X483Y1448D02*
X547Y1448D01*
X483Y1447D02*
X547Y1447D01*
X483Y1446D02*
X547Y1446D01*
X483Y1445D02*
X547Y1445D01*
X483Y1444D02*
X547Y1444D01*
X483Y1443D02*
X547Y1443D01*
X483Y1442D02*
X547Y1442D01*
X483Y1441D02*
X547Y1441D01*
X483Y1440D02*
X547Y1440D01*
X483Y1439D02*
X547Y1439D01*
X483Y1438D02*
X511Y1438D01*
X520Y1438D02*
X547Y1438D01*
X483Y1437D02*
X508Y1437D01*
X522Y1437D02*
X547Y1437D01*
X483Y1436D02*
X507Y1436D01*
X524Y1436D02*
X547Y1436D01*
X483Y1435D02*
X505Y1435D01*
X525Y1435D02*
X547Y1435D01*
X483Y1434D02*
X504Y1434D01*
X526Y1434D02*
X547Y1434D01*
X483Y1433D02*
X504Y1433D01*
X527Y1433D02*
X547Y1433D01*
X483Y1432D02*
X503Y1432D01*
X527Y1432D02*
X547Y1432D01*
X483Y1431D02*
X502Y1431D01*
X528Y1431D02*
X547Y1431D01*
X483Y1430D02*
X502Y1430D01*
X528Y1430D02*
X547Y1430D01*
X483Y1429D02*
X502Y1429D01*
X529Y1429D02*
X547Y1429D01*
X483Y1428D02*
X501Y1428D01*
X529Y1428D02*
X547Y1428D01*
X483Y1427D02*
X501Y1427D01*
X529Y1427D02*
X547Y1427D01*
X483Y1426D02*
X501Y1426D01*
X529Y1426D02*
X547Y1426D01*
X483Y1425D02*
X501Y1425D01*
X529Y1425D02*
X547Y1425D01*
X483Y1424D02*
X501Y1424D01*
X529Y1424D02*
X547Y1424D01*
X483Y1423D02*
X501Y1423D01*
X529Y1423D02*
X547Y1423D01*
X483Y1422D02*
X501Y1422D01*
X529Y1422D02*
X547Y1422D01*
X483Y1421D02*
X501Y1421D01*
X529Y1421D02*
X547Y1421D01*
X483Y1420D02*
X502Y1420D01*
X528Y1420D02*
X547Y1420D01*
X483Y1419D02*
X502Y1419D01*
X528Y1419D02*
X547Y1419D01*
X483Y1418D02*
X503Y1418D01*
X528Y1418D02*
X547Y1418D01*
X483Y1417D02*
X503Y1417D01*
X527Y1417D02*
X547Y1417D01*
X483Y1416D02*
X504Y1416D01*
X526Y1416D02*
X547Y1416D01*
X483Y1415D02*
X505Y1415D01*
X525Y1415D02*
X547Y1415D01*
X483Y1414D02*
X506Y1414D01*
X524Y1414D02*
X547Y1414D01*
X483Y1413D02*
X508Y1413D01*
X523Y1413D02*
X547Y1413D01*
X483Y1412D02*
X510Y1412D01*
X520Y1412D02*
X547Y1412D01*
X483Y1411D02*
X547Y1411D01*
X483Y1410D02*
X547Y1410D01*
X483Y1409D02*
X547Y1409D01*
X483Y1408D02*
X547Y1408D01*
X483Y1407D02*
X547Y1407D01*
X483Y1406D02*
X547Y1406D01*
X483Y1405D02*
X547Y1405D01*
X483Y1404D02*
X547Y1404D01*
X483Y1403D02*
X547Y1403D01*
X483Y1402D02*
X547Y1402D01*
X483Y1401D02*
X547Y1401D01*
X483Y1400D02*
X547Y1400D01*
X483Y1399D02*
X547Y1399D01*
X483Y1398D02*
X547Y1398D01*
X483Y1397D02*
X547Y1397D01*
X483Y1396D02*
X547Y1396D01*
X483Y1395D02*
X547Y1395D01*
X483Y1394D02*
X547Y1394D01*
X483Y1393D02*
X547Y1393D01*
X446Y1094D02*
X510Y1094D01*
X446Y1093D02*
X510Y1093D01*
X446Y1092D02*
X510Y1092D01*
X446Y1091D02*
X510Y1091D01*
X446Y1090D02*
X510Y1090D01*
X446Y1089D02*
X510Y1089D01*
X446Y1088D02*
X510Y1088D01*
X446Y1087D02*
X510Y1087D01*
X446Y1086D02*
X510Y1086D01*
X446Y1085D02*
X510Y1085D01*
X446Y1084D02*
X510Y1084D01*
X446Y1083D02*
X510Y1083D01*
X446Y1082D02*
X510Y1082D01*
X446Y1081D02*
X510Y1081D01*
X446Y1080D02*
X510Y1080D01*
X446Y1079D02*
X510Y1079D01*
X446Y1078D02*
X510Y1078D01*
X446Y1077D02*
X510Y1077D01*
X446Y1076D02*
X475Y1076D01*
X480Y1076D02*
X510Y1076D01*
X446Y1075D02*
X472Y1075D01*
X483Y1075D02*
X510Y1075D01*
X446Y1074D02*
X470Y1074D01*
X485Y1074D02*
X510Y1074D01*
X446Y1073D02*
X469Y1073D01*
X487Y1073D02*
X510Y1073D01*
X446Y1072D02*
X467Y1072D01*
X488Y1072D02*
X510Y1072D01*
X446Y1071D02*
X467Y1071D01*
X489Y1071D02*
X510Y1071D01*
X446Y1070D02*
X466Y1070D01*
X490Y1070D02*
X510Y1070D01*
X446Y1069D02*
X465Y1069D01*
X490Y1069D02*
X510Y1069D01*
X446Y1068D02*
X465Y1068D01*
X491Y1068D02*
X510Y1068D01*
X446Y1067D02*
X464Y1067D01*
X491Y1067D02*
X510Y1067D01*
X446Y1066D02*
X464Y1066D01*
X491Y1066D02*
X510Y1066D01*
X446Y1065D02*
X464Y1065D01*
X492Y1065D02*
X510Y1065D01*
X446Y1064D02*
X463Y1064D01*
X492Y1064D02*
X510Y1064D01*
X446Y1063D02*
X463Y1063D01*
X492Y1063D02*
X510Y1063D01*
X446Y1062D02*
X463Y1062D01*
X492Y1062D02*
X510Y1062D01*
X446Y1061D02*
X463Y1061D01*
X492Y1061D02*
X510Y1061D01*
X446Y1060D02*
X464Y1060D01*
X492Y1060D02*
X510Y1060D01*
X446Y1059D02*
X464Y1059D01*
X492Y1059D02*
X510Y1059D01*
X446Y1058D02*
X464Y1058D01*
X491Y1058D02*
X510Y1058D01*
X446Y1057D02*
X465Y1057D01*
X491Y1057D02*
X510Y1057D01*
X446Y1056D02*
X465Y1056D01*
X490Y1056D02*
X510Y1056D01*
X446Y1055D02*
X466Y1055D01*
X490Y1055D02*
X510Y1055D01*
X446Y1054D02*
X466Y1054D01*
X489Y1054D02*
X510Y1054D01*
X446Y1053D02*
X467Y1053D01*
X488Y1053D02*
X510Y1053D01*
X446Y1052D02*
X468Y1052D01*
X487Y1052D02*
X510Y1052D01*
X446Y1051D02*
X470Y1051D01*
X486Y1051D02*
X510Y1051D01*
X446Y1050D02*
X471Y1050D01*
X484Y1050D02*
X510Y1050D01*
X446Y1049D02*
X474Y1049D01*
X481Y1049D02*
X510Y1049D01*
X446Y1048D02*
X510Y1048D01*
X446Y1047D02*
X510Y1047D01*
X446Y1046D02*
X510Y1046D01*
X446Y1045D02*
X510Y1045D01*
X446Y1044D02*
X510Y1044D01*
X446Y1043D02*
X510Y1043D01*
X446Y1042D02*
X510Y1042D01*
X446Y1041D02*
X510Y1041D01*
X446Y1040D02*
X510Y1040D01*
X446Y1039D02*
X510Y1039D01*
X446Y1038D02*
X510Y1038D01*
X446Y1037D02*
X510Y1037D01*
X446Y1036D02*
X510Y1036D01*
X446Y1035D02*
X510Y1035D01*
X446Y1034D02*
X510Y1034D01*
X446Y1033D02*
X510Y1033D01*
X446Y1032D02*
X510Y1032D01*
X446Y1031D02*
X510Y1031D01*
X446Y1030D02*
X509Y1030D01*
D02*
G04 End of Copper0*
M02*