; NON-PLATED HOLES START AT T1
; THROUGH (PLATED) HOLES START AT T100
M48
INCH
T1C0.118110
T100C0.040000
T101C0.015748
T102C0.031496
T103C0.031497
T104C0.027559
T105C0.038000
T106C0.074803
T107C0.059055
%
T1
X000907Y010745
T100
X014157Y016370
X013157Y016370
X014157Y014370
X013157Y014370
X014157Y017370
X013157Y017370
X014157Y015370
X013157Y015370
T101
X014032Y006120
X016407Y004120
X014782Y012870
X011157Y013370
X018657Y006245
X011907Y009120
X015532Y012245
X005657Y005745
X009935Y005065
X009907Y010245
T102
X002060Y014305
X002532Y015250
X002532Y013990
X002532Y014620
X002060Y014935
T103
X005532Y016886
X009782Y016886
X005532Y017870
X009782Y017870
T104
X004782Y009620
X004782Y010620
X005157Y014245
X005157Y013245
T105
X001032Y006995
X008407Y004245
X007407Y004245
X001032Y004995
X001032Y002995
X001032Y007995
X001032Y005995
X001032Y003995
T106
X000524Y016057
X000524Y013183
T107
X002215Y013201
X002199Y016062
T00
M30
