G04 MADE WITH FRITZING*
G04 WWW.FRITZING.ORG*
G04 DOUBLE SIDED*
G04 HOLES PLATED*
G04 CONTOUR ON CENTER OF CONTOUR VECTOR*
%ASAXBY*%
%FSLAX23Y23*%
%MOIN*%
%OFA0B0*%
%SFA1.0B1.0*%
%ADD10C,0.008000*%
%ADD11R,0.001000X0.001000*%
%LNSILK0*%
G90*
G70*
G54D10*
X740Y40D02*
X685Y40D01*
D02*
X685Y40D02*
X685Y119D01*
D02*
X685Y119D02*
X740Y119D01*
D02*
X874Y119D02*
X819Y119D01*
D02*
X791Y52D02*
X791Y80D01*
D02*
X791Y80D02*
X791Y107D01*
D02*
X791Y80D02*
X768Y56D01*
D02*
X768Y56D02*
X768Y103D01*
D02*
X768Y103D02*
X791Y80D01*
D02*
X983Y40D02*
X928Y40D01*
D02*
X928Y40D02*
X928Y119D01*
D02*
X928Y119D02*
X983Y119D01*
D02*
X1062Y40D02*
X1117Y40D01*
D02*
X1117Y40D02*
X1117Y119D01*
D02*
X1117Y119D02*
X1062Y119D01*
D02*
X1035Y52D02*
X1035Y80D01*
D02*
X1035Y80D02*
X1035Y107D01*
D02*
X1035Y80D02*
X1011Y56D01*
D02*
X1011Y56D02*
X1011Y103D01*
D02*
X1011Y103D02*
X1035Y80D01*
D02*
X509Y35D02*
X454Y35D01*
D02*
X454Y35D02*
X454Y113D01*
D02*
X454Y113D02*
X509Y113D01*
D02*
X587Y35D02*
X643Y35D01*
D02*
X643Y35D02*
X643Y113D01*
D02*
X643Y113D02*
X587Y113D01*
D02*
X560Y47D02*
X560Y74D01*
D02*
X560Y74D02*
X560Y102D01*
D02*
X560Y74D02*
X536Y50D01*
D02*
X536Y50D02*
X536Y98D01*
D02*
X536Y98D02*
X560Y74D01*
D02*
X197Y71D02*
X197Y118D01*
D02*
X197Y339D02*
X197Y291D01*
D02*
X197Y118D02*
X141Y118D01*
D02*
X141Y118D02*
X141Y291D01*
D02*
X141Y291D02*
X197Y291D01*
G54D11*
X0Y925D02*
X1378Y925D01*
X0Y924D02*
X1378Y924D01*
X0Y923D02*
X1378Y923D01*
X0Y922D02*
X1378Y922D01*
X0Y921D02*
X1378Y921D01*
X0Y920D02*
X1378Y920D01*
X0Y919D02*
X1378Y919D01*
X0Y918D02*
X1378Y918D01*
X0Y917D02*
X7Y917D01*
X1371Y917D02*
X1378Y917D01*
X0Y916D02*
X7Y916D01*
X685Y916D02*
X688Y916D01*
X714Y916D02*
X718Y916D01*
X765Y916D02*
X769Y916D01*
X794Y916D02*
X794Y916D01*
X820Y916D02*
X824Y916D01*
X1371Y916D02*
X1378Y916D01*
X0Y915D02*
X7Y915D01*
X682Y915D02*
X691Y915D01*
X711Y915D02*
X722Y915D01*
X738Y915D02*
X750Y915D01*
X762Y915D02*
X772Y915D01*
X794Y915D02*
X798Y915D01*
X815Y915D02*
X827Y915D01*
X848Y915D02*
X863Y915D01*
X1371Y915D02*
X1378Y915D01*
X0Y914D02*
X7Y914D01*
X681Y914D02*
X692Y914D01*
X709Y914D02*
X724Y914D01*
X736Y914D02*
X750Y914D01*
X761Y914D02*
X774Y914D01*
X794Y914D02*
X802Y914D01*
X815Y914D02*
X829Y914D01*
X845Y914D02*
X863Y914D01*
X1371Y914D02*
X1378Y914D01*
X0Y913D02*
X7Y913D01*
X680Y913D02*
X693Y913D01*
X708Y913D02*
X724Y913D01*
X734Y913D02*
X750Y913D01*
X760Y913D02*
X775Y913D01*
X794Y913D02*
X803Y913D01*
X815Y913D02*
X830Y913D01*
X843Y913D02*
X863Y913D01*
X1371Y913D02*
X1378Y913D01*
X0Y912D02*
X7Y912D01*
X679Y912D02*
X683Y912D01*
X690Y912D02*
X694Y912D01*
X707Y912D02*
X712Y912D01*
X721Y912D02*
X724Y912D01*
X733Y912D02*
X743Y912D01*
X746Y912D02*
X750Y912D01*
X759Y912D02*
X763Y912D01*
X772Y912D02*
X775Y912D01*
X794Y912D02*
X803Y912D01*
X815Y912D02*
X817Y912D01*
X826Y912D02*
X830Y912D01*
X842Y912D02*
X854Y912D01*
X859Y912D02*
X863Y912D01*
X1371Y912D02*
X1378Y912D01*
X0Y911D02*
X7Y911D01*
X679Y911D02*
X682Y911D01*
X691Y911D02*
X695Y911D01*
X707Y911D02*
X711Y911D01*
X724Y911D02*
X724Y911D01*
X733Y911D02*
X738Y911D01*
X746Y911D02*
X750Y911D01*
X759Y911D02*
X762Y911D01*
X773Y911D02*
X776Y911D01*
X794Y911D02*
X797Y911D01*
X801Y911D02*
X803Y911D01*
X827Y911D02*
X831Y911D01*
X841Y911D02*
X847Y911D01*
X859Y911D02*
X863Y911D01*
X1371Y911D02*
X1378Y911D01*
X0Y910D02*
X7Y910D01*
X678Y910D02*
X681Y910D01*
X692Y910D02*
X695Y910D01*
X707Y910D02*
X710Y910D01*
X732Y910D02*
X737Y910D01*
X746Y910D02*
X750Y910D01*
X759Y910D02*
X762Y910D01*
X773Y910D02*
X776Y910D01*
X794Y910D02*
X797Y910D01*
X828Y910D02*
X831Y910D01*
X840Y910D02*
X845Y910D01*
X859Y910D02*
X863Y910D01*
X1371Y910D02*
X1378Y910D01*
X0Y909D02*
X7Y909D01*
X677Y909D02*
X681Y909D01*
X692Y909D02*
X696Y909D01*
X706Y909D02*
X710Y909D01*
X732Y909D02*
X736Y909D01*
X746Y909D02*
X750Y909D01*
X759Y909D02*
X762Y909D01*
X773Y909D02*
X776Y909D01*
X794Y909D02*
X797Y909D01*
X828Y909D02*
X831Y909D01*
X839Y909D02*
X844Y909D01*
X859Y909D02*
X863Y909D01*
X1371Y909D02*
X1378Y909D01*
X0Y908D02*
X7Y908D01*
X677Y908D02*
X680Y908D01*
X693Y908D02*
X696Y908D01*
X706Y908D02*
X710Y908D01*
X732Y908D02*
X736Y908D01*
X746Y908D02*
X750Y908D01*
X759Y908D02*
X762Y908D01*
X773Y908D02*
X776Y908D01*
X794Y908D02*
X797Y908D01*
X828Y908D02*
X831Y908D01*
X839Y908D02*
X843Y908D01*
X859Y908D02*
X863Y908D01*
X1371Y908D02*
X1378Y908D01*
X0Y907D02*
X7Y907D01*
X677Y907D02*
X680Y907D01*
X693Y907D02*
X696Y907D01*
X706Y907D02*
X710Y907D01*
X732Y907D02*
X736Y907D01*
X746Y907D02*
X750Y907D01*
X759Y907D02*
X762Y907D01*
X773Y907D02*
X776Y907D01*
X794Y907D02*
X797Y907D01*
X828Y907D02*
X831Y907D01*
X838Y907D02*
X843Y907D01*
X859Y907D02*
X863Y907D01*
X1371Y907D02*
X1378Y907D01*
X0Y906D02*
X7Y906D01*
X677Y906D02*
X680Y906D01*
X693Y906D02*
X697Y906D01*
X706Y906D02*
X710Y906D01*
X733Y906D02*
X736Y906D01*
X746Y906D02*
X750Y906D01*
X760Y906D02*
X762Y906D01*
X772Y906D02*
X776Y906D01*
X794Y906D02*
X797Y906D01*
X827Y906D02*
X831Y906D01*
X838Y906D02*
X842Y906D01*
X859Y906D02*
X863Y906D01*
X1371Y906D02*
X1378Y906D01*
X0Y905D02*
X7Y905D01*
X676Y905D02*
X680Y905D01*
X693Y905D02*
X697Y905D01*
X707Y905D02*
X710Y905D01*
X733Y905D02*
X736Y905D01*
X746Y905D02*
X750Y905D01*
X760Y905D02*
X763Y905D01*
X771Y905D02*
X775Y905D01*
X794Y905D02*
X797Y905D01*
X826Y905D02*
X831Y905D01*
X838Y905D02*
X842Y905D01*
X859Y905D02*
X863Y905D01*
X1371Y905D02*
X1378Y905D01*
X0Y904D02*
X7Y904D01*
X676Y904D02*
X680Y904D01*
X693Y904D02*
X697Y904D01*
X707Y904D02*
X711Y904D01*
X734Y904D02*
X737Y904D01*
X746Y904D02*
X750Y904D01*
X761Y904D02*
X764Y904D01*
X770Y904D02*
X775Y904D01*
X794Y904D02*
X797Y904D01*
X825Y904D02*
X830Y904D01*
X837Y904D02*
X841Y904D01*
X859Y904D02*
X863Y904D01*
X1371Y904D02*
X1378Y904D01*
X0Y903D02*
X7Y903D01*
X676Y903D02*
X679Y903D01*
X694Y903D02*
X697Y903D01*
X707Y903D02*
X711Y903D01*
X734Y903D02*
X738Y903D01*
X746Y903D02*
X750Y903D01*
X762Y903D02*
X765Y903D01*
X768Y903D02*
X774Y903D01*
X794Y903D02*
X797Y903D01*
X823Y903D02*
X830Y903D01*
X837Y903D02*
X841Y903D01*
X859Y903D02*
X863Y903D01*
X1371Y903D02*
X1378Y903D01*
X0Y902D02*
X7Y902D01*
X676Y902D02*
X679Y902D01*
X694Y902D02*
X697Y902D01*
X708Y902D02*
X712Y902D01*
X735Y902D02*
X740Y902D01*
X746Y902D02*
X750Y902D01*
X763Y902D02*
X773Y902D01*
X794Y902D02*
X797Y902D01*
X822Y902D02*
X829Y902D01*
X837Y902D02*
X841Y902D01*
X859Y902D02*
X863Y902D01*
X1371Y902D02*
X1378Y902D01*
X0Y901D02*
X7Y901D01*
X676Y901D02*
X679Y901D01*
X694Y901D02*
X697Y901D01*
X709Y901D02*
X712Y901D01*
X737Y901D02*
X750Y901D01*
X764Y901D02*
X772Y901D01*
X794Y901D02*
X797Y901D01*
X820Y901D02*
X828Y901D01*
X837Y901D02*
X841Y901D01*
X859Y901D02*
X863Y901D01*
X1371Y901D02*
X1378Y901D01*
X0Y900D02*
X7Y900D01*
X676Y900D02*
X679Y900D01*
X694Y900D02*
X697Y900D01*
X709Y900D02*
X713Y900D01*
X738Y900D02*
X750Y900D01*
X763Y900D02*
X773Y900D01*
X794Y900D02*
X797Y900D01*
X819Y900D02*
X826Y900D01*
X837Y900D02*
X841Y900D01*
X859Y900D02*
X863Y900D01*
X1371Y900D02*
X1378Y900D01*
X0Y899D02*
X7Y899D01*
X676Y899D02*
X679Y899D01*
X694Y899D02*
X697Y899D01*
X710Y899D02*
X714Y899D01*
X736Y899D02*
X750Y899D01*
X762Y899D02*
X774Y899D01*
X794Y899D02*
X797Y899D01*
X817Y899D02*
X825Y899D01*
X837Y899D02*
X841Y899D01*
X859Y899D02*
X863Y899D01*
X1371Y899D02*
X1378Y899D01*
X0Y898D02*
X7Y898D01*
X676Y898D02*
X679Y898D01*
X694Y898D02*
X697Y898D01*
X711Y898D02*
X715Y898D01*
X735Y898D02*
X740Y898D01*
X746Y898D02*
X750Y898D01*
X761Y898D02*
X767Y898D01*
X772Y898D02*
X775Y898D01*
X794Y898D02*
X797Y898D01*
X816Y898D02*
X823Y898D01*
X837Y898D02*
X841Y898D01*
X859Y898D02*
X863Y898D01*
X1371Y898D02*
X1378Y898D01*
X0Y897D02*
X7Y897D01*
X676Y897D02*
X679Y897D01*
X694Y897D02*
X697Y897D01*
X713Y897D02*
X716Y897D01*
X733Y897D02*
X738Y897D01*
X746Y897D02*
X750Y897D01*
X760Y897D02*
X766Y897D01*
X773Y897D02*
X776Y897D01*
X794Y897D02*
X797Y897D01*
X815Y897D02*
X821Y897D01*
X837Y897D02*
X841Y897D01*
X859Y897D02*
X863Y897D01*
X1371Y897D02*
X1378Y897D01*
X0Y896D02*
X7Y896D01*
X312Y896D02*
X329Y896D01*
X676Y896D02*
X679Y896D01*
X694Y896D02*
X697Y896D01*
X714Y896D02*
X718Y896D01*
X732Y896D02*
X737Y896D01*
X746Y896D02*
X750Y896D01*
X759Y896D02*
X764Y896D01*
X773Y896D02*
X777Y896D01*
X794Y896D02*
X797Y896D01*
X814Y896D02*
X820Y896D01*
X837Y896D02*
X841Y896D01*
X859Y896D02*
X863Y896D01*
X1021Y896D02*
X1037Y896D01*
X1249Y896D02*
X1266Y896D01*
X1371Y896D02*
X1378Y896D01*
X0Y895D02*
X7Y895D01*
X304Y895D02*
X337Y895D01*
X676Y895D02*
X680Y895D01*
X693Y895D02*
X697Y895D01*
X715Y895D02*
X719Y895D01*
X732Y895D02*
X736Y895D01*
X746Y895D02*
X750Y895D01*
X758Y895D02*
X763Y895D01*
X774Y895D02*
X777Y895D01*
X794Y895D02*
X797Y895D01*
X814Y895D02*
X819Y895D01*
X838Y895D02*
X842Y895D01*
X859Y895D02*
X863Y895D01*
X1012Y895D02*
X1045Y895D01*
X1241Y895D02*
X1274Y895D01*
X1371Y895D02*
X1378Y895D01*
X0Y894D02*
X7Y894D01*
X299Y894D02*
X342Y894D01*
X676Y894D02*
X680Y894D01*
X693Y894D02*
X697Y894D01*
X716Y894D02*
X720Y894D01*
X731Y894D02*
X735Y894D01*
X746Y894D02*
X750Y894D01*
X758Y894D02*
X762Y894D01*
X774Y894D02*
X778Y894D01*
X794Y894D02*
X797Y894D01*
X813Y894D02*
X818Y894D01*
X838Y894D02*
X842Y894D01*
X859Y894D02*
X863Y894D01*
X1007Y894D02*
X1051Y894D01*
X1236Y894D02*
X1279Y894D01*
X1371Y894D02*
X1378Y894D01*
X0Y893D02*
X7Y893D01*
X294Y893D02*
X346Y893D01*
X676Y893D02*
X680Y893D01*
X693Y893D02*
X697Y893D01*
X717Y893D02*
X721Y893D01*
X731Y893D02*
X735Y893D01*
X746Y893D02*
X750Y893D01*
X758Y893D02*
X761Y893D01*
X775Y893D02*
X778Y893D01*
X794Y893D02*
X797Y893D01*
X813Y893D02*
X817Y893D01*
X838Y893D02*
X842Y893D01*
X859Y893D02*
X863Y893D01*
X1003Y893D02*
X1055Y893D01*
X1231Y893D02*
X1283Y893D01*
X1371Y893D02*
X1378Y893D01*
X0Y892D02*
X7Y892D01*
X291Y892D02*
X350Y892D01*
X677Y892D02*
X680Y892D01*
X693Y892D02*
X696Y892D01*
X718Y892D02*
X721Y892D01*
X731Y892D02*
X735Y892D01*
X746Y892D02*
X750Y892D01*
X758Y892D02*
X761Y892D01*
X775Y892D02*
X778Y892D01*
X794Y892D02*
X797Y892D01*
X813Y892D02*
X817Y892D01*
X839Y892D02*
X843Y892D01*
X859Y892D02*
X863Y892D01*
X1000Y892D02*
X1058Y892D01*
X1228Y892D02*
X1287Y892D01*
X1371Y892D02*
X1378Y892D01*
X0Y891D02*
X7Y891D01*
X288Y891D02*
X353Y891D01*
X677Y891D02*
X680Y891D01*
X693Y891D02*
X696Y891D01*
X719Y891D02*
X722Y891D01*
X731Y891D02*
X735Y891D01*
X746Y891D02*
X750Y891D01*
X758Y891D02*
X761Y891D01*
X775Y891D02*
X778Y891D01*
X794Y891D02*
X797Y891D01*
X813Y891D02*
X817Y891D01*
X839Y891D02*
X843Y891D01*
X859Y891D02*
X863Y891D01*
X996Y891D02*
X1061Y891D01*
X1225Y891D02*
X1290Y891D01*
X1371Y891D02*
X1378Y891D01*
X0Y890D02*
X7Y890D01*
X132Y890D02*
X150Y890D01*
X170Y890D02*
X187Y890D01*
X285Y890D02*
X356Y890D01*
X677Y890D02*
X681Y890D01*
X692Y890D02*
X696Y890D01*
X719Y890D02*
X723Y890D01*
X731Y890D02*
X735Y890D01*
X746Y890D02*
X750Y890D01*
X758Y890D02*
X761Y890D01*
X774Y890D02*
X778Y890D01*
X794Y890D02*
X797Y890D01*
X813Y890D02*
X817Y890D01*
X840Y890D02*
X844Y890D01*
X859Y890D02*
X863Y890D01*
X993Y890D02*
X1064Y890D01*
X1222Y890D02*
X1293Y890D01*
X1371Y890D02*
X1378Y890D01*
X0Y889D02*
X7Y889D01*
X132Y889D02*
X151Y889D01*
X169Y889D02*
X189Y889D01*
X282Y889D02*
X358Y889D01*
X678Y889D02*
X681Y889D01*
X692Y889D02*
X695Y889D01*
X720Y889D02*
X723Y889D01*
X731Y889D02*
X736Y889D01*
X746Y889D02*
X750Y889D01*
X758Y889D02*
X761Y889D01*
X774Y889D02*
X778Y889D01*
X794Y889D02*
X797Y889D01*
X814Y889D02*
X817Y889D01*
X840Y889D02*
X845Y889D01*
X859Y889D02*
X863Y889D01*
X991Y889D02*
X1067Y889D01*
X1219Y889D02*
X1295Y889D01*
X1371Y889D02*
X1378Y889D01*
X0Y888D02*
X7Y888D01*
X132Y888D02*
X151Y888D01*
X168Y888D02*
X191Y888D01*
X280Y888D02*
X361Y888D01*
X678Y888D02*
X682Y888D01*
X691Y888D02*
X695Y888D01*
X720Y888D02*
X724Y888D01*
X732Y888D02*
X737Y888D01*
X746Y888D02*
X750Y888D01*
X758Y888D02*
X762Y888D01*
X773Y888D02*
X777Y888D01*
X794Y888D02*
X797Y888D01*
X814Y888D02*
X818Y888D01*
X831Y888D02*
X832Y888D01*
X841Y888D02*
X847Y888D01*
X859Y888D02*
X863Y888D01*
X988Y888D02*
X1069Y888D01*
X1217Y888D02*
X1298Y888D01*
X1371Y888D02*
X1378Y888D01*
X0Y887D02*
X7Y887D01*
X132Y887D02*
X151Y887D01*
X168Y887D02*
X192Y887D01*
X278Y887D02*
X363Y887D01*
X679Y887D02*
X683Y887D01*
X690Y887D02*
X694Y887D01*
X707Y887D02*
X724Y887D01*
X732Y887D02*
X740Y887D01*
X746Y887D02*
X750Y887D01*
X759Y887D02*
X763Y887D01*
X772Y887D02*
X777Y887D01*
X793Y887D02*
X797Y887D01*
X815Y887D02*
X819Y887D01*
X829Y887D02*
X832Y887D01*
X842Y887D02*
X850Y887D01*
X859Y887D02*
X863Y887D01*
X986Y887D02*
X1071Y887D01*
X1215Y887D02*
X1300Y887D01*
X1371Y887D02*
X1378Y887D01*
X0Y886D02*
X7Y886D01*
X132Y886D02*
X151Y886D01*
X168Y886D02*
X192Y886D01*
X276Y886D02*
X311Y886D01*
X330Y886D02*
X365Y886D01*
X680Y886D02*
X685Y886D01*
X689Y886D02*
X693Y886D01*
X706Y886D02*
X724Y886D01*
X733Y886D02*
X750Y886D01*
X760Y886D02*
X766Y886D01*
X770Y886D02*
X776Y886D01*
X787Y886D02*
X803Y886D01*
X815Y886D02*
X832Y886D01*
X844Y886D02*
X863Y886D01*
X984Y886D02*
X1019Y886D01*
X1038Y886D02*
X1074Y886D01*
X1213Y886D02*
X1248Y886D01*
X1267Y886D02*
X1302Y886D01*
X1371Y886D02*
X1378Y886D01*
X0Y885D02*
X7Y885D01*
X132Y885D02*
X151Y885D01*
X169Y885D02*
X193Y885D01*
X274Y885D02*
X303Y885D01*
X337Y885D02*
X367Y885D01*
X681Y885D02*
X692Y885D01*
X706Y885D02*
X724Y885D01*
X734Y885D02*
X750Y885D01*
X761Y885D02*
X775Y885D01*
X787Y885D02*
X803Y885D01*
X816Y885D02*
X832Y885D01*
X845Y885D02*
X863Y885D01*
X982Y885D02*
X1012Y885D01*
X1046Y885D02*
X1076Y885D01*
X1210Y885D02*
X1240Y885D01*
X1274Y885D02*
X1304Y885D01*
X1371Y885D02*
X1378Y885D01*
X0Y884D02*
X7Y884D01*
X132Y884D02*
X150Y884D01*
X170Y884D02*
X193Y884D01*
X272Y884D02*
X298Y884D01*
X342Y884D02*
X369Y884D01*
X682Y884D02*
X691Y884D01*
X706Y884D02*
X724Y884D01*
X736Y884D02*
X750Y884D01*
X762Y884D02*
X774Y884D01*
X787Y884D02*
X803Y884D01*
X818Y884D02*
X831Y884D01*
X848Y884D02*
X863Y884D01*
X980Y884D02*
X1007Y884D01*
X1051Y884D02*
X1078Y884D01*
X1208Y884D02*
X1235Y884D01*
X1279Y884D02*
X1306Y884D01*
X1371Y884D02*
X1378Y884D01*
X0Y883D02*
X7Y883D01*
X132Y883D02*
X138Y883D01*
X187Y883D02*
X194Y883D01*
X270Y883D02*
X294Y883D01*
X346Y883D02*
X371Y883D01*
X684Y883D02*
X689Y883D01*
X765Y883D02*
X771Y883D01*
X821Y883D02*
X827Y883D01*
X978Y883D02*
X1003Y883D01*
X1055Y883D02*
X1080Y883D01*
X1207Y883D02*
X1231Y883D01*
X1283Y883D02*
X1308Y883D01*
X1371Y883D02*
X1378Y883D01*
X0Y882D02*
X7Y882D01*
X132Y882D02*
X138Y882D01*
X187Y882D02*
X194Y882D01*
X268Y882D02*
X291Y882D01*
X350Y882D02*
X373Y882D01*
X977Y882D02*
X999Y882D01*
X1058Y882D02*
X1081Y882D01*
X1205Y882D02*
X1228Y882D01*
X1287Y882D02*
X1309Y882D01*
X1371Y882D02*
X1378Y882D01*
X0Y881D02*
X7Y881D01*
X132Y881D02*
X138Y881D01*
X188Y881D02*
X195Y881D01*
X266Y881D02*
X288Y881D01*
X353Y881D02*
X374Y881D01*
X975Y881D02*
X997Y881D01*
X1061Y881D02*
X1083Y881D01*
X1203Y881D02*
X1225Y881D01*
X1289Y881D02*
X1311Y881D01*
X1371Y881D02*
X1378Y881D01*
X0Y880D02*
X7Y880D01*
X132Y880D02*
X138Y880D01*
X189Y880D02*
X195Y880D01*
X265Y880D02*
X285Y880D01*
X355Y880D02*
X376Y880D01*
X973Y880D02*
X994Y880D01*
X1064Y880D02*
X1084Y880D01*
X1202Y880D02*
X1222Y880D01*
X1292Y880D02*
X1313Y880D01*
X1371Y880D02*
X1378Y880D01*
X0Y879D02*
X7Y879D01*
X132Y879D02*
X138Y879D01*
X189Y879D02*
X196Y879D01*
X263Y879D02*
X283Y879D01*
X358Y879D02*
X378Y879D01*
X972Y879D02*
X991Y879D01*
X1066Y879D02*
X1086Y879D01*
X1200Y879D02*
X1220Y879D01*
X1295Y879D02*
X1314Y879D01*
X1371Y879D02*
X1378Y879D01*
X0Y878D02*
X7Y878D01*
X132Y878D02*
X138Y878D01*
X190Y878D02*
X196Y878D01*
X262Y878D02*
X281Y878D01*
X360Y878D02*
X379Y878D01*
X970Y878D02*
X989Y878D01*
X1069Y878D02*
X1088Y878D01*
X1198Y878D02*
X1217Y878D01*
X1297Y878D02*
X1316Y878D01*
X1371Y878D02*
X1378Y878D01*
X0Y877D02*
X7Y877D01*
X132Y877D02*
X138Y877D01*
X190Y877D02*
X197Y877D01*
X260Y877D02*
X279Y877D01*
X362Y877D02*
X380Y877D01*
X969Y877D02*
X987Y877D01*
X1071Y877D02*
X1089Y877D01*
X1197Y877D02*
X1215Y877D01*
X1299Y877D02*
X1317Y877D01*
X1371Y877D02*
X1378Y877D01*
X0Y876D02*
X7Y876D01*
X132Y876D02*
X138Y876D01*
X191Y876D02*
X197Y876D01*
X259Y876D02*
X277Y876D01*
X364Y876D02*
X382Y876D01*
X721Y876D02*
X738Y876D01*
X967Y876D02*
X985Y876D01*
X1073Y876D02*
X1090Y876D01*
X1196Y876D02*
X1213Y876D01*
X1301Y876D02*
X1319Y876D01*
X1371Y876D02*
X1378Y876D01*
X0Y875D02*
X7Y875D01*
X132Y875D02*
X138Y875D01*
X191Y875D02*
X198Y875D01*
X258Y875D02*
X274Y875D01*
X366Y875D02*
X383Y875D01*
X719Y875D02*
X835Y875D01*
X966Y875D02*
X983Y875D01*
X1075Y875D02*
X1092Y875D01*
X1194Y875D02*
X1211Y875D01*
X1303Y875D02*
X1320Y875D01*
X1371Y875D02*
X1378Y875D01*
X0Y874D02*
X7Y874D01*
X132Y874D02*
X138Y874D01*
X192Y874D02*
X198Y874D01*
X256Y874D02*
X273Y874D01*
X368Y874D02*
X385Y874D01*
X719Y874D02*
X836Y874D01*
X965Y874D02*
X981Y874D01*
X1076Y874D02*
X1093Y874D01*
X1193Y874D02*
X1210Y874D01*
X1305Y874D02*
X1321Y874D01*
X1371Y874D02*
X1378Y874D01*
X0Y873D02*
X7Y873D01*
X132Y873D02*
X138Y873D01*
X192Y873D02*
X199Y873D01*
X255Y873D02*
X271Y873D01*
X369Y873D02*
X386Y873D01*
X718Y873D02*
X837Y873D01*
X963Y873D02*
X980Y873D01*
X1078Y873D02*
X1094Y873D01*
X1192Y873D02*
X1208Y873D01*
X1306Y873D02*
X1323Y873D01*
X1371Y873D02*
X1378Y873D01*
X0Y872D02*
X7Y872D01*
X132Y872D02*
X138Y872D01*
X193Y872D02*
X199Y872D01*
X254Y872D02*
X270Y872D01*
X371Y872D02*
X387Y872D01*
X717Y872D02*
X837Y872D01*
X962Y872D02*
X978Y872D01*
X1080Y872D02*
X1096Y872D01*
X1190Y872D02*
X1206Y872D01*
X1308Y872D02*
X1324Y872D01*
X1371Y872D02*
X1378Y872D01*
X0Y871D02*
X7Y871D01*
X132Y871D02*
X138Y871D01*
X193Y871D02*
X200Y871D01*
X252Y871D02*
X268Y871D01*
X373Y871D02*
X388Y871D01*
X716Y871D02*
X838Y871D01*
X961Y871D02*
X976Y871D01*
X1081Y871D02*
X1097Y871D01*
X1189Y871D02*
X1205Y871D01*
X1310Y871D02*
X1325Y871D01*
X1371Y871D02*
X1378Y871D01*
X0Y870D02*
X7Y870D01*
X132Y870D02*
X138Y870D01*
X194Y870D02*
X200Y870D01*
X251Y870D02*
X266Y870D01*
X374Y870D02*
X389Y870D01*
X715Y870D02*
X839Y870D01*
X960Y870D02*
X975Y870D01*
X1083Y870D02*
X1098Y870D01*
X1188Y870D02*
X1203Y870D01*
X1311Y870D02*
X1326Y870D01*
X1371Y870D02*
X1378Y870D01*
X0Y869D02*
X7Y869D01*
X132Y869D02*
X138Y869D01*
X194Y869D02*
X201Y869D01*
X250Y869D02*
X265Y869D01*
X376Y869D02*
X390Y869D01*
X715Y869D02*
X722Y869D01*
X833Y869D02*
X840Y869D01*
X959Y869D02*
X974Y869D01*
X1084Y869D02*
X1099Y869D01*
X1187Y869D02*
X1202Y869D01*
X1312Y869D02*
X1327Y869D01*
X1371Y869D02*
X1378Y869D01*
X0Y868D02*
X7Y868D01*
X132Y868D02*
X138Y868D01*
X195Y868D02*
X201Y868D01*
X249Y868D02*
X264Y868D01*
X377Y868D02*
X392Y868D01*
X714Y868D02*
X721Y868D01*
X834Y868D02*
X841Y868D01*
X958Y868D02*
X972Y868D01*
X1085Y868D02*
X1100Y868D01*
X1186Y868D02*
X1201Y868D01*
X1314Y868D02*
X1328Y868D01*
X1371Y868D02*
X1378Y868D01*
X0Y867D02*
X7Y867D01*
X132Y867D02*
X138Y867D01*
X195Y867D02*
X201Y867D01*
X248Y867D02*
X262Y867D01*
X378Y867D02*
X393Y867D01*
X713Y867D02*
X720Y867D01*
X834Y867D02*
X841Y867D01*
X957Y867D02*
X971Y867D01*
X1087Y867D02*
X1101Y867D01*
X1185Y867D02*
X1199Y867D01*
X1315Y867D02*
X1329Y867D01*
X1371Y867D02*
X1378Y867D01*
X0Y866D02*
X7Y866D01*
X132Y866D02*
X138Y866D01*
X195Y866D02*
X202Y866D01*
X247Y866D02*
X261Y866D01*
X380Y866D02*
X394Y866D01*
X713Y866D02*
X719Y866D01*
X835Y866D02*
X842Y866D01*
X955Y866D02*
X970Y866D01*
X1088Y866D02*
X1102Y866D01*
X1184Y866D02*
X1198Y866D01*
X1316Y866D02*
X1331Y866D01*
X1371Y866D02*
X1378Y866D01*
X0Y865D02*
X7Y865D01*
X132Y865D02*
X138Y865D01*
X196Y865D02*
X202Y865D01*
X246Y865D02*
X260Y865D01*
X381Y865D02*
X395Y865D01*
X712Y865D02*
X718Y865D01*
X836Y865D02*
X843Y865D01*
X955Y865D02*
X968Y865D01*
X1089Y865D02*
X1103Y865D01*
X1183Y865D02*
X1197Y865D01*
X1318Y865D02*
X1332Y865D01*
X1371Y865D02*
X1378Y865D01*
X0Y864D02*
X7Y864D01*
X132Y864D02*
X138Y864D01*
X196Y864D02*
X202Y864D01*
X245Y864D02*
X259Y864D01*
X382Y864D02*
X396Y864D01*
X711Y864D02*
X718Y864D01*
X837Y864D02*
X843Y864D01*
X954Y864D02*
X967Y864D01*
X1091Y864D02*
X1104Y864D01*
X1182Y864D02*
X1195Y864D01*
X1319Y864D02*
X1332Y864D01*
X1371Y864D02*
X1378Y864D01*
X0Y863D02*
X7Y863D01*
X132Y863D02*
X138Y863D01*
X196Y863D02*
X202Y863D01*
X244Y863D02*
X258Y863D01*
X383Y863D02*
X397Y863D01*
X711Y863D02*
X717Y863D01*
X837Y863D02*
X844Y863D01*
X953Y863D02*
X966Y863D01*
X1092Y863D02*
X1105Y863D01*
X1181Y863D02*
X1194Y863D01*
X1320Y863D02*
X1333Y863D01*
X1371Y863D02*
X1378Y863D01*
X0Y862D02*
X7Y862D01*
X132Y862D02*
X138Y862D01*
X196Y862D02*
X202Y862D01*
X243Y862D02*
X256Y862D01*
X384Y862D02*
X397Y862D01*
X710Y862D02*
X717Y862D01*
X838Y862D02*
X844Y862D01*
X952Y862D02*
X965Y862D01*
X1093Y862D02*
X1106Y862D01*
X1180Y862D02*
X1193Y862D01*
X1321Y862D02*
X1334Y862D01*
X1371Y862D02*
X1378Y862D01*
X0Y861D02*
X7Y861D01*
X120Y861D02*
X122Y861D01*
X132Y861D02*
X138Y861D01*
X195Y861D02*
X202Y861D01*
X242Y861D02*
X255Y861D01*
X385Y861D02*
X398Y861D01*
X710Y861D02*
X716Y861D01*
X839Y861D02*
X845Y861D01*
X951Y861D02*
X964Y861D01*
X1094Y861D02*
X1107Y861D01*
X1179Y861D02*
X1192Y861D01*
X1322Y861D02*
X1335Y861D01*
X1371Y861D02*
X1378Y861D01*
X0Y860D02*
X7Y860D01*
X119Y860D02*
X123Y860D01*
X132Y860D02*
X138Y860D01*
X195Y860D02*
X201Y860D01*
X241Y860D02*
X254Y860D01*
X386Y860D02*
X399Y860D01*
X709Y860D02*
X715Y860D01*
X839Y860D02*
X845Y860D01*
X950Y860D02*
X963Y860D01*
X1095Y860D02*
X1108Y860D01*
X1178Y860D02*
X1191Y860D01*
X1323Y860D02*
X1336Y860D01*
X1371Y860D02*
X1378Y860D01*
X0Y859D02*
X7Y859D01*
X118Y859D02*
X124Y859D01*
X132Y859D02*
X138Y859D01*
X195Y859D02*
X201Y859D01*
X241Y859D02*
X253Y859D01*
X388Y859D02*
X400Y859D01*
X709Y859D02*
X715Y859D01*
X840Y859D02*
X846Y859D01*
X949Y859D02*
X962Y859D01*
X1096Y859D02*
X1109Y859D01*
X1177Y859D02*
X1190Y859D01*
X1324Y859D02*
X1337Y859D01*
X1371Y859D02*
X1378Y859D01*
X0Y858D02*
X7Y858D01*
X118Y858D02*
X124Y858D01*
X132Y858D02*
X138Y858D01*
X194Y858D02*
X201Y858D01*
X240Y858D02*
X252Y858D01*
X389Y858D02*
X401Y858D01*
X708Y858D02*
X714Y858D01*
X840Y858D02*
X846Y858D01*
X948Y858D02*
X961Y858D01*
X1097Y858D02*
X1110Y858D01*
X1177Y858D02*
X1189Y858D01*
X1325Y858D02*
X1338Y858D01*
X1371Y858D02*
X1378Y858D01*
X0Y857D02*
X7Y857D01*
X118Y857D02*
X124Y857D01*
X132Y857D02*
X138Y857D01*
X194Y857D02*
X200Y857D01*
X239Y857D02*
X251Y857D01*
X389Y857D02*
X402Y857D01*
X708Y857D02*
X713Y857D01*
X841Y857D02*
X847Y857D01*
X947Y857D02*
X960Y857D01*
X1098Y857D02*
X1110Y857D01*
X1176Y857D02*
X1188Y857D01*
X1326Y857D02*
X1339Y857D01*
X1371Y857D02*
X1378Y857D01*
X0Y856D02*
X7Y856D01*
X118Y856D02*
X124Y856D01*
X132Y856D02*
X138Y856D01*
X193Y856D02*
X200Y856D01*
X238Y856D02*
X250Y856D01*
X390Y856D02*
X402Y856D01*
X707Y856D02*
X713Y856D01*
X842Y856D02*
X847Y856D01*
X947Y856D02*
X959Y856D01*
X1099Y856D02*
X1111Y856D01*
X1175Y856D02*
X1187Y856D01*
X1327Y856D02*
X1339Y856D01*
X1371Y856D02*
X1378Y856D01*
X0Y855D02*
X7Y855D01*
X118Y855D02*
X124Y855D01*
X132Y855D02*
X138Y855D01*
X193Y855D02*
X199Y855D01*
X237Y855D02*
X249Y855D01*
X391Y855D02*
X403Y855D01*
X707Y855D02*
X712Y855D01*
X842Y855D02*
X848Y855D01*
X946Y855D02*
X958Y855D01*
X1100Y855D02*
X1112Y855D01*
X1174Y855D02*
X1186Y855D01*
X1328Y855D02*
X1340Y855D01*
X1371Y855D02*
X1378Y855D01*
X0Y854D02*
X7Y854D01*
X118Y854D02*
X124Y854D01*
X132Y854D02*
X138Y854D01*
X192Y854D02*
X199Y854D01*
X237Y854D02*
X248Y854D01*
X392Y854D02*
X404Y854D01*
X706Y854D02*
X712Y854D01*
X843Y854D02*
X848Y854D01*
X945Y854D02*
X957Y854D01*
X1101Y854D02*
X1113Y854D01*
X1174Y854D02*
X1185Y854D01*
X1329Y854D02*
X1341Y854D01*
X1371Y854D02*
X1378Y854D01*
X0Y853D02*
X7Y853D01*
X118Y853D02*
X124Y853D01*
X132Y853D02*
X138Y853D01*
X191Y853D02*
X198Y853D01*
X236Y853D02*
X248Y853D01*
X393Y853D02*
X405Y853D01*
X706Y853D02*
X711Y853D01*
X843Y853D02*
X849Y853D01*
X944Y853D02*
X956Y853D01*
X1102Y853D02*
X1113Y853D01*
X1173Y853D02*
X1184Y853D01*
X1330Y853D02*
X1342Y853D01*
X1371Y853D02*
X1378Y853D01*
X0Y852D02*
X7Y852D01*
X118Y852D02*
X124Y852D01*
X132Y852D02*
X138Y852D01*
X191Y852D02*
X198Y852D01*
X235Y852D02*
X247Y852D01*
X394Y852D02*
X405Y852D01*
X705Y852D02*
X711Y852D01*
X844Y852D02*
X849Y852D01*
X944Y852D02*
X955Y852D01*
X1103Y852D02*
X1114Y852D01*
X1172Y852D02*
X1183Y852D01*
X1331Y852D02*
X1342Y852D01*
X1371Y852D02*
X1378Y852D01*
X0Y851D02*
X7Y851D01*
X118Y851D02*
X124Y851D01*
X132Y851D02*
X138Y851D01*
X190Y851D02*
X197Y851D01*
X234Y851D02*
X246Y851D01*
X353Y851D02*
X388Y851D01*
X395Y851D02*
X406Y851D01*
X706Y851D02*
X711Y851D01*
X844Y851D02*
X849Y851D01*
X943Y851D02*
X954Y851D01*
X1061Y851D02*
X1096Y851D01*
X1103Y851D02*
X1115Y851D01*
X1171Y851D02*
X1183Y851D01*
X1290Y851D02*
X1325Y851D01*
X1332Y851D02*
X1343Y851D01*
X1371Y851D02*
X1378Y851D01*
X0Y850D02*
X7Y850D01*
X118Y850D02*
X124Y850D01*
X132Y850D02*
X138Y850D01*
X190Y850D02*
X197Y850D01*
X234Y850D02*
X245Y850D01*
X352Y850D02*
X389Y850D01*
X396Y850D02*
X407Y850D01*
X707Y850D02*
X710Y850D01*
X844Y850D02*
X848Y850D01*
X942Y850D02*
X954Y850D01*
X1060Y850D02*
X1097Y850D01*
X1104Y850D02*
X1115Y850D01*
X1171Y850D02*
X1182Y850D01*
X1289Y850D02*
X1326Y850D01*
X1332Y850D02*
X1344Y850D01*
X1371Y850D02*
X1378Y850D01*
X0Y849D02*
X7Y849D01*
X118Y849D02*
X124Y849D01*
X132Y849D02*
X138Y849D01*
X189Y849D02*
X196Y849D01*
X233Y849D02*
X244Y849D01*
X351Y849D02*
X390Y849D01*
X396Y849D02*
X408Y849D01*
X708Y849D02*
X710Y849D01*
X845Y849D02*
X847Y849D01*
X942Y849D02*
X953Y849D01*
X1060Y849D02*
X1098Y849D01*
X1105Y849D02*
X1116Y849D01*
X1170Y849D02*
X1181Y849D01*
X1288Y849D02*
X1326Y849D01*
X1333Y849D02*
X1344Y849D01*
X1371Y849D02*
X1378Y849D01*
X0Y848D02*
X7Y848D01*
X118Y848D02*
X124Y848D01*
X132Y848D02*
X138Y848D01*
X189Y848D02*
X196Y848D01*
X233Y848D02*
X244Y848D01*
X351Y848D02*
X390Y848D01*
X397Y848D02*
X408Y848D01*
X709Y848D02*
X709Y848D01*
X845Y848D02*
X846Y848D01*
X941Y848D02*
X952Y848D01*
X1059Y848D02*
X1099Y848D01*
X1106Y848D02*
X1117Y848D01*
X1169Y848D02*
X1180Y848D01*
X1287Y848D02*
X1327Y848D01*
X1334Y848D02*
X1345Y848D01*
X1371Y848D02*
X1378Y848D01*
X0Y847D02*
X7Y847D01*
X118Y847D02*
X124Y847D01*
X132Y847D02*
X138Y847D01*
X188Y847D02*
X195Y847D01*
X232Y847D02*
X243Y847D01*
X350Y847D02*
X390Y847D01*
X398Y847D02*
X409Y847D01*
X709Y847D02*
X709Y847D01*
X940Y847D02*
X951Y847D01*
X1059Y847D02*
X1099Y847D01*
X1106Y847D02*
X1117Y847D01*
X1169Y847D02*
X1180Y847D01*
X1287Y847D02*
X1327Y847D01*
X1335Y847D02*
X1346Y847D01*
X1371Y847D02*
X1378Y847D01*
X0Y846D02*
X7Y846D01*
X118Y846D02*
X124Y846D01*
X132Y846D02*
X138Y846D01*
X188Y846D02*
X195Y846D01*
X231Y846D02*
X242Y846D01*
X350Y846D02*
X390Y846D01*
X399Y846D02*
X409Y846D01*
X940Y846D02*
X951Y846D01*
X1059Y846D02*
X1099Y846D01*
X1107Y846D02*
X1118Y846D01*
X1168Y846D02*
X1179Y846D01*
X1287Y846D02*
X1327Y846D01*
X1335Y846D02*
X1346Y846D01*
X1371Y846D02*
X1378Y846D01*
X0Y845D02*
X7Y845D01*
X118Y845D02*
X124Y845D01*
X132Y845D02*
X138Y845D01*
X187Y845D02*
X194Y845D01*
X231Y845D02*
X241Y845D01*
X351Y845D02*
X390Y845D01*
X399Y845D02*
X410Y845D01*
X939Y845D02*
X950Y845D01*
X1059Y845D02*
X1099Y845D01*
X1108Y845D02*
X1118Y845D01*
X1168Y845D02*
X1178Y845D01*
X1287Y845D02*
X1327Y845D01*
X1336Y845D02*
X1347Y845D01*
X1371Y845D02*
X1378Y845D01*
X0Y844D02*
X7Y844D01*
X118Y844D02*
X124Y844D01*
X132Y844D02*
X138Y844D01*
X186Y844D02*
X194Y844D01*
X230Y844D02*
X241Y844D01*
X351Y844D02*
X390Y844D01*
X400Y844D02*
X411Y844D01*
X939Y844D02*
X949Y844D01*
X1060Y844D02*
X1098Y844D01*
X1109Y844D02*
X1119Y844D01*
X1167Y844D02*
X1178Y844D01*
X1288Y844D02*
X1327Y844D01*
X1337Y844D02*
X1347Y844D01*
X1371Y844D02*
X1378Y844D01*
X0Y843D02*
X7Y843D01*
X118Y843D02*
X150Y843D01*
X170Y843D02*
X193Y843D01*
X230Y843D02*
X240Y843D01*
X352Y843D02*
X389Y843D01*
X401Y843D02*
X411Y843D01*
X938Y843D02*
X949Y843D01*
X1060Y843D02*
X1098Y843D01*
X1109Y843D02*
X1120Y843D01*
X1166Y843D02*
X1177Y843D01*
X1288Y843D02*
X1326Y843D01*
X1337Y843D02*
X1348Y843D01*
X1371Y843D02*
X1378Y843D01*
X0Y842D02*
X7Y842D01*
X118Y842D02*
X151Y842D01*
X169Y842D02*
X193Y842D01*
X229Y842D02*
X239Y842D01*
X353Y842D02*
X388Y842D01*
X401Y842D02*
X412Y842D01*
X937Y842D02*
X948Y842D01*
X1061Y842D02*
X1096Y842D01*
X1110Y842D02*
X1120Y842D01*
X1166Y842D02*
X1176Y842D01*
X1290Y842D02*
X1325Y842D01*
X1338Y842D02*
X1349Y842D01*
X1371Y842D02*
X1378Y842D01*
X0Y841D02*
X7Y841D01*
X118Y841D02*
X151Y841D01*
X168Y841D02*
X192Y841D01*
X228Y841D02*
X239Y841D01*
X356Y841D02*
X385Y841D01*
X402Y841D02*
X412Y841D01*
X937Y841D02*
X947Y841D01*
X1064Y841D02*
X1094Y841D01*
X1110Y841D02*
X1121Y841D01*
X1165Y841D02*
X1176Y841D01*
X1293Y841D02*
X1322Y841D01*
X1339Y841D02*
X1349Y841D01*
X1371Y841D02*
X1378Y841D01*
X0Y840D02*
X7Y840D01*
X118Y840D02*
X151Y840D01*
X168Y840D02*
X191Y840D01*
X228Y840D02*
X238Y840D01*
X402Y840D02*
X413Y840D01*
X936Y840D02*
X947Y840D01*
X1111Y840D02*
X1121Y840D01*
X1165Y840D02*
X1175Y840D01*
X1339Y840D02*
X1350Y840D01*
X1371Y840D02*
X1378Y840D01*
X0Y839D02*
X7Y839D01*
X118Y839D02*
X151Y839D01*
X168Y839D02*
X190Y839D01*
X227Y839D02*
X238Y839D01*
X403Y839D02*
X413Y839D01*
X936Y839D02*
X946Y839D01*
X1112Y839D02*
X1122Y839D01*
X1164Y839D02*
X1174Y839D01*
X1340Y839D02*
X1350Y839D01*
X1371Y839D02*
X1378Y839D01*
X0Y838D02*
X7Y838D01*
X119Y838D02*
X151Y838D01*
X169Y838D02*
X189Y838D01*
X227Y838D02*
X237Y838D01*
X404Y838D02*
X414Y838D01*
X935Y838D02*
X946Y838D01*
X1112Y838D02*
X1122Y838D01*
X1164Y838D02*
X1174Y838D01*
X1341Y838D02*
X1351Y838D01*
X1371Y838D02*
X1378Y838D01*
X0Y837D02*
X7Y837D01*
X120Y837D02*
X150Y837D01*
X170Y837D02*
X187Y837D01*
X226Y837D02*
X236Y837D01*
X404Y837D02*
X414Y837D01*
X935Y837D02*
X945Y837D01*
X1113Y837D02*
X1123Y837D01*
X1163Y837D02*
X1173Y837D01*
X1341Y837D02*
X1351Y837D01*
X1371Y837D02*
X1378Y837D01*
X0Y836D02*
X7Y836D01*
X226Y836D02*
X236Y836D01*
X405Y836D02*
X415Y836D01*
X935Y836D02*
X944Y836D01*
X1113Y836D02*
X1123Y836D01*
X1163Y836D02*
X1173Y836D01*
X1342Y836D02*
X1352Y836D01*
X1371Y836D02*
X1378Y836D01*
X0Y835D02*
X7Y835D01*
X226Y835D02*
X235Y835D01*
X405Y835D02*
X415Y835D01*
X934Y835D02*
X944Y835D01*
X1114Y835D02*
X1124Y835D01*
X1162Y835D02*
X1172Y835D01*
X1342Y835D02*
X1352Y835D01*
X1371Y835D02*
X1378Y835D01*
X0Y834D02*
X7Y834D01*
X225Y834D02*
X235Y834D01*
X406Y834D02*
X416Y834D01*
X934Y834D02*
X943Y834D01*
X1114Y834D02*
X1124Y834D01*
X1162Y834D02*
X1172Y834D01*
X1343Y834D02*
X1352Y834D01*
X1371Y834D02*
X1378Y834D01*
X0Y833D02*
X7Y833D01*
X225Y833D02*
X234Y833D01*
X413Y833D02*
X416Y833D01*
X933Y833D02*
X943Y833D01*
X1122Y833D02*
X1125Y833D01*
X1161Y833D02*
X1171Y833D01*
X1350Y833D02*
X1353Y833D01*
X1371Y833D02*
X1378Y833D01*
X0Y832D02*
X7Y832D01*
X224Y832D02*
X234Y832D01*
X413Y832D02*
X417Y832D01*
X933Y832D02*
X942Y832D01*
X1122Y832D02*
X1125Y832D01*
X1161Y832D02*
X1171Y832D01*
X1350Y832D02*
X1353Y832D01*
X1371Y832D02*
X1378Y832D01*
X0Y831D02*
X7Y831D01*
X224Y831D02*
X233Y831D01*
X413Y831D02*
X417Y831D01*
X932Y831D02*
X942Y831D01*
X1122Y831D02*
X1126Y831D01*
X1161Y831D02*
X1170Y831D01*
X1350Y831D02*
X1354Y831D01*
X1371Y831D02*
X1378Y831D01*
X0Y830D02*
X7Y830D01*
X223Y830D02*
X233Y830D01*
X413Y830D02*
X417Y830D01*
X932Y830D02*
X942Y830D01*
X1122Y830D02*
X1126Y830D01*
X1160Y830D02*
X1170Y830D01*
X1350Y830D02*
X1354Y830D01*
X1371Y830D02*
X1378Y830D01*
X0Y829D02*
X7Y829D01*
X223Y829D02*
X232Y829D01*
X413Y829D02*
X418Y829D01*
X931Y829D02*
X941Y829D01*
X1122Y829D02*
X1126Y829D01*
X1160Y829D02*
X1169Y829D01*
X1350Y829D02*
X1355Y829D01*
X1371Y829D02*
X1378Y829D01*
X0Y828D02*
X7Y828D01*
X223Y828D02*
X232Y828D01*
X413Y828D02*
X418Y828D01*
X931Y828D02*
X941Y828D01*
X1122Y828D02*
X1127Y828D01*
X1159Y828D02*
X1169Y828D01*
X1350Y828D02*
X1355Y828D01*
X1371Y828D02*
X1378Y828D01*
X0Y827D02*
X7Y827D01*
X222Y827D02*
X232Y827D01*
X413Y827D02*
X419Y827D01*
X931Y827D02*
X940Y827D01*
X1122Y827D02*
X1127Y827D01*
X1159Y827D02*
X1169Y827D01*
X1350Y827D02*
X1355Y827D01*
X1371Y827D02*
X1378Y827D01*
X0Y826D02*
X7Y826D01*
X222Y826D02*
X231Y826D01*
X413Y826D02*
X419Y826D01*
X930Y826D02*
X940Y826D01*
X1122Y826D02*
X1127Y826D01*
X1159Y826D02*
X1168Y826D01*
X1350Y826D02*
X1356Y826D01*
X1371Y826D02*
X1378Y826D01*
X0Y825D02*
X7Y825D01*
X221Y825D02*
X231Y825D01*
X413Y825D02*
X419Y825D01*
X930Y825D02*
X939Y825D01*
X1122Y825D02*
X1128Y825D01*
X1158Y825D02*
X1168Y825D01*
X1350Y825D02*
X1356Y825D01*
X1371Y825D02*
X1378Y825D01*
X0Y824D02*
X7Y824D01*
X221Y824D02*
X231Y824D01*
X413Y824D02*
X420Y824D01*
X930Y824D02*
X939Y824D01*
X1122Y824D02*
X1128Y824D01*
X1158Y824D02*
X1167Y824D01*
X1350Y824D02*
X1356Y824D01*
X1371Y824D02*
X1378Y824D01*
X0Y823D02*
X7Y823D01*
X221Y823D02*
X230Y823D01*
X413Y823D02*
X420Y823D01*
X929Y823D02*
X939Y823D01*
X1122Y823D02*
X1128Y823D01*
X1158Y823D02*
X1167Y823D01*
X1350Y823D02*
X1357Y823D01*
X1371Y823D02*
X1378Y823D01*
X0Y822D02*
X7Y822D01*
X220Y822D02*
X230Y822D01*
X413Y822D02*
X420Y822D01*
X929Y822D02*
X938Y822D01*
X1122Y822D02*
X1129Y822D01*
X1157Y822D02*
X1167Y822D01*
X1350Y822D02*
X1357Y822D01*
X1371Y822D02*
X1378Y822D01*
X0Y821D02*
X7Y821D01*
X220Y821D02*
X230Y821D01*
X413Y821D02*
X421Y821D01*
X929Y821D02*
X938Y821D01*
X1122Y821D02*
X1129Y821D01*
X1157Y821D02*
X1166Y821D01*
X1350Y821D02*
X1357Y821D01*
X1371Y821D02*
X1378Y821D01*
X0Y820D02*
X7Y820D01*
X220Y820D02*
X229Y820D01*
X413Y820D02*
X421Y820D01*
X928Y820D02*
X938Y820D01*
X1122Y820D02*
X1129Y820D01*
X1157Y820D02*
X1166Y820D01*
X1350Y820D02*
X1358Y820D01*
X1371Y820D02*
X1378Y820D01*
X0Y819D02*
X7Y819D01*
X220Y819D02*
X229Y819D01*
X413Y819D02*
X421Y819D01*
X928Y819D02*
X937Y819D01*
X1122Y819D02*
X1130Y819D01*
X1156Y819D02*
X1166Y819D01*
X1350Y819D02*
X1358Y819D01*
X1371Y819D02*
X1378Y819D01*
X0Y818D02*
X7Y818D01*
X219Y818D02*
X229Y818D01*
X413Y818D02*
X421Y818D01*
X928Y818D02*
X937Y818D01*
X1122Y818D02*
X1130Y818D01*
X1156Y818D02*
X1165Y818D01*
X1350Y818D02*
X1358Y818D01*
X1371Y818D02*
X1378Y818D01*
X0Y817D02*
X7Y817D01*
X219Y817D02*
X228Y817D01*
X413Y817D02*
X422Y817D01*
X928Y817D02*
X937Y817D01*
X1122Y817D02*
X1130Y817D01*
X1156Y817D02*
X1165Y817D01*
X1350Y817D02*
X1358Y817D01*
X1371Y817D02*
X1378Y817D01*
X0Y816D02*
X7Y816D01*
X219Y816D02*
X228Y816D01*
X413Y816D02*
X422Y816D01*
X927Y816D02*
X937Y816D01*
X1122Y816D02*
X1130Y816D01*
X1156Y816D02*
X1165Y816D01*
X1350Y816D02*
X1359Y816D01*
X1371Y816D02*
X1378Y816D01*
X0Y815D02*
X7Y815D01*
X219Y815D02*
X228Y815D01*
X413Y815D02*
X422Y815D01*
X927Y815D02*
X936Y815D01*
X1122Y815D02*
X1131Y815D01*
X1155Y815D02*
X1165Y815D01*
X1350Y815D02*
X1359Y815D01*
X1371Y815D02*
X1378Y815D01*
X0Y814D02*
X7Y814D01*
X218Y814D02*
X228Y814D01*
X413Y814D02*
X422Y814D01*
X927Y814D02*
X936Y814D01*
X1122Y814D02*
X1131Y814D01*
X1155Y814D02*
X1164Y814D01*
X1350Y814D02*
X1359Y814D01*
X1371Y814D02*
X1378Y814D01*
X0Y813D02*
X7Y813D01*
X218Y813D02*
X227Y813D01*
X413Y813D02*
X423Y813D01*
X927Y813D02*
X936Y813D01*
X1122Y813D02*
X1131Y813D01*
X1155Y813D02*
X1164Y813D01*
X1350Y813D02*
X1359Y813D01*
X1371Y813D02*
X1378Y813D01*
X0Y812D02*
X7Y812D01*
X218Y812D02*
X227Y812D01*
X414Y812D02*
X423Y812D01*
X926Y812D02*
X936Y812D01*
X1122Y812D02*
X1131Y812D01*
X1155Y812D02*
X1164Y812D01*
X1350Y812D02*
X1360Y812D01*
X1371Y812D02*
X1378Y812D01*
X0Y811D02*
X7Y811D01*
X218Y811D02*
X227Y811D01*
X414Y811D02*
X423Y811D01*
X926Y811D02*
X935Y811D01*
X1122Y811D02*
X1131Y811D01*
X1155Y811D02*
X1164Y811D01*
X1351Y811D02*
X1360Y811D01*
X1371Y811D02*
X1378Y811D01*
X0Y810D02*
X7Y810D01*
X218Y810D02*
X227Y810D01*
X414Y810D02*
X423Y810D01*
X926Y810D02*
X935Y810D01*
X1123Y810D02*
X1132Y810D01*
X1154Y810D02*
X1163Y810D01*
X1351Y810D02*
X1360Y810D01*
X1371Y810D02*
X1378Y810D01*
X0Y809D02*
X7Y809D01*
X217Y809D02*
X226Y809D01*
X414Y809D02*
X423Y809D01*
X926Y809D02*
X935Y809D01*
X1123Y809D02*
X1132Y809D01*
X1154Y809D02*
X1163Y809D01*
X1351Y809D02*
X1360Y809D01*
X1371Y809D02*
X1378Y809D01*
X0Y808D02*
X7Y808D01*
X217Y808D02*
X226Y808D01*
X414Y808D02*
X423Y808D01*
X926Y808D02*
X935Y808D01*
X1123Y808D02*
X1132Y808D01*
X1154Y808D02*
X1163Y808D01*
X1351Y808D02*
X1360Y808D01*
X1371Y808D02*
X1378Y808D01*
X0Y807D02*
X7Y807D01*
X217Y807D02*
X226Y807D01*
X415Y807D02*
X424Y807D01*
X926Y807D02*
X935Y807D01*
X1123Y807D02*
X1132Y807D01*
X1154Y807D02*
X1163Y807D01*
X1351Y807D02*
X1360Y807D01*
X1371Y807D02*
X1378Y807D01*
X0Y806D02*
X7Y806D01*
X217Y806D02*
X226Y806D01*
X415Y806D02*
X424Y806D01*
X925Y806D02*
X934Y806D01*
X1123Y806D02*
X1132Y806D01*
X1154Y806D02*
X1163Y806D01*
X1352Y806D02*
X1361Y806D01*
X1371Y806D02*
X1378Y806D01*
X0Y805D02*
X7Y805D01*
X217Y805D02*
X226Y805D01*
X415Y805D02*
X424Y805D01*
X925Y805D02*
X934Y805D01*
X1123Y805D02*
X1132Y805D01*
X1154Y805D02*
X1163Y805D01*
X1352Y805D02*
X1361Y805D01*
X1371Y805D02*
X1378Y805D01*
X0Y804D02*
X7Y804D01*
X217Y804D02*
X226Y804D01*
X415Y804D02*
X424Y804D01*
X925Y804D02*
X934Y804D01*
X1124Y804D02*
X1133Y804D01*
X1153Y804D02*
X1163Y804D01*
X1352Y804D02*
X1361Y804D01*
X1371Y804D02*
X1378Y804D01*
X0Y803D02*
X7Y803D01*
X217Y803D02*
X226Y803D01*
X415Y803D02*
X424Y803D01*
X925Y803D02*
X934Y803D01*
X1124Y803D02*
X1133Y803D01*
X1153Y803D02*
X1162Y803D01*
X1352Y803D02*
X1361Y803D01*
X1371Y803D02*
X1378Y803D01*
X0Y802D02*
X7Y802D01*
X216Y802D02*
X225Y802D01*
X415Y802D02*
X424Y802D01*
X925Y802D02*
X934Y802D01*
X1124Y802D02*
X1133Y802D01*
X1153Y802D02*
X1162Y802D01*
X1352Y802D02*
X1361Y802D01*
X1371Y802D02*
X1378Y802D01*
X0Y801D02*
X7Y801D01*
X216Y801D02*
X225Y801D01*
X415Y801D02*
X424Y801D01*
X925Y801D02*
X934Y801D01*
X1124Y801D02*
X1133Y801D01*
X1153Y801D02*
X1162Y801D01*
X1352Y801D02*
X1361Y801D01*
X1371Y801D02*
X1378Y801D01*
X0Y800D02*
X7Y800D01*
X216Y800D02*
X225Y800D01*
X415Y800D02*
X424Y800D01*
X925Y800D02*
X934Y800D01*
X1124Y800D02*
X1133Y800D01*
X1153Y800D02*
X1162Y800D01*
X1352Y800D02*
X1361Y800D01*
X1371Y800D02*
X1378Y800D01*
X0Y799D02*
X7Y799D01*
X216Y799D02*
X225Y799D01*
X416Y799D02*
X425Y799D01*
X709Y799D02*
X709Y799D01*
X925Y799D02*
X934Y799D01*
X1124Y799D02*
X1133Y799D01*
X1153Y799D02*
X1162Y799D01*
X1352Y799D02*
X1361Y799D01*
X1371Y799D02*
X1378Y799D01*
X0Y798D02*
X7Y798D01*
X216Y798D02*
X225Y798D01*
X416Y798D02*
X425Y798D01*
X709Y798D02*
X709Y798D01*
X845Y798D02*
X846Y798D01*
X925Y798D02*
X934Y798D01*
X1124Y798D02*
X1133Y798D01*
X1153Y798D02*
X1162Y798D01*
X1352Y798D02*
X1361Y798D01*
X1371Y798D02*
X1378Y798D01*
X0Y797D02*
X7Y797D01*
X216Y797D02*
X225Y797D01*
X416Y797D02*
X425Y797D01*
X708Y797D02*
X710Y797D01*
X845Y797D02*
X847Y797D01*
X925Y797D02*
X934Y797D01*
X1124Y797D02*
X1133Y797D01*
X1153Y797D02*
X1162Y797D01*
X1353Y797D02*
X1362Y797D01*
X1371Y797D02*
X1378Y797D01*
X0Y796D02*
X7Y796D01*
X216Y796D02*
X225Y796D01*
X416Y796D02*
X425Y796D01*
X707Y796D02*
X710Y796D01*
X844Y796D02*
X848Y796D01*
X925Y796D02*
X934Y796D01*
X1124Y796D02*
X1133Y796D01*
X1153Y796D02*
X1162Y796D01*
X1353Y796D02*
X1362Y796D01*
X1371Y796D02*
X1378Y796D01*
X0Y795D02*
X7Y795D01*
X216Y795D02*
X225Y795D01*
X416Y795D02*
X425Y795D01*
X706Y795D02*
X710Y795D01*
X844Y795D02*
X849Y795D01*
X924Y795D02*
X933Y795D01*
X1124Y795D02*
X1133Y795D01*
X1153Y795D02*
X1162Y795D01*
X1353Y795D02*
X1362Y795D01*
X1371Y795D02*
X1378Y795D01*
X0Y794D02*
X7Y794D01*
X216Y794D02*
X225Y794D01*
X416Y794D02*
X425Y794D01*
X705Y794D02*
X711Y794D01*
X844Y794D02*
X849Y794D01*
X924Y794D02*
X933Y794D01*
X1124Y794D02*
X1133Y794D01*
X1153Y794D02*
X1162Y794D01*
X1353Y794D02*
X1362Y794D01*
X1371Y794D02*
X1378Y794D01*
X0Y793D02*
X7Y793D01*
X216Y793D02*
X225Y793D01*
X416Y793D02*
X425Y793D01*
X706Y793D02*
X711Y793D01*
X843Y793D02*
X849Y793D01*
X924Y793D02*
X933Y793D01*
X1124Y793D02*
X1133Y793D01*
X1153Y793D02*
X1162Y793D01*
X1353Y793D02*
X1362Y793D01*
X1371Y793D02*
X1378Y793D01*
X0Y792D02*
X7Y792D01*
X216Y792D02*
X225Y792D01*
X416Y792D02*
X425Y792D01*
X706Y792D02*
X712Y792D01*
X843Y792D02*
X848Y792D01*
X924Y792D02*
X933Y792D01*
X1124Y792D02*
X1133Y792D01*
X1153Y792D02*
X1162Y792D01*
X1353Y792D02*
X1362Y792D01*
X1371Y792D02*
X1378Y792D01*
X0Y791D02*
X7Y791D01*
X216Y791D02*
X225Y791D01*
X416Y791D02*
X425Y791D01*
X707Y791D02*
X712Y791D01*
X842Y791D02*
X848Y791D01*
X924Y791D02*
X933Y791D01*
X1124Y791D02*
X1133Y791D01*
X1153Y791D02*
X1162Y791D01*
X1353Y791D02*
X1362Y791D01*
X1371Y791D02*
X1378Y791D01*
X0Y790D02*
X7Y790D01*
X216Y790D02*
X225Y790D01*
X416Y790D02*
X425Y790D01*
X707Y790D02*
X713Y790D01*
X842Y790D02*
X847Y790D01*
X924Y790D02*
X933Y790D01*
X1124Y790D02*
X1133Y790D01*
X1153Y790D02*
X1162Y790D01*
X1353Y790D02*
X1362Y790D01*
X1371Y790D02*
X1378Y790D01*
X0Y789D02*
X7Y789D01*
X216Y789D02*
X225Y789D01*
X416Y789D02*
X425Y789D01*
X708Y789D02*
X713Y789D01*
X841Y789D02*
X847Y789D01*
X924Y789D02*
X933Y789D01*
X1124Y789D02*
X1133Y789D01*
X1153Y789D02*
X1162Y789D01*
X1353Y789D02*
X1362Y789D01*
X1371Y789D02*
X1378Y789D01*
X0Y788D02*
X7Y788D01*
X216Y788D02*
X225Y788D01*
X416Y788D02*
X425Y788D01*
X708Y788D02*
X714Y788D01*
X841Y788D02*
X847Y788D01*
X924Y788D02*
X933Y788D01*
X1124Y788D02*
X1133Y788D01*
X1153Y788D02*
X1162Y788D01*
X1353Y788D02*
X1362Y788D01*
X1371Y788D02*
X1378Y788D01*
X0Y787D02*
X7Y787D01*
X216Y787D02*
X225Y787D01*
X416Y787D02*
X425Y787D01*
X709Y787D02*
X714Y787D01*
X840Y787D02*
X846Y787D01*
X925Y787D02*
X934Y787D01*
X1124Y787D02*
X1133Y787D01*
X1153Y787D02*
X1162Y787D01*
X1353Y787D02*
X1362Y787D01*
X1371Y787D02*
X1378Y787D01*
X0Y786D02*
X7Y786D01*
X216Y786D02*
X225Y786D01*
X416Y786D02*
X425Y786D01*
X709Y786D02*
X715Y786D01*
X839Y786D02*
X845Y786D01*
X925Y786D02*
X934Y786D01*
X1124Y786D02*
X1133Y786D01*
X1153Y786D02*
X1162Y786D01*
X1353Y786D02*
X1362Y786D01*
X1371Y786D02*
X1378Y786D01*
X0Y785D02*
X7Y785D01*
X216Y785D02*
X225Y785D01*
X416Y785D02*
X425Y785D01*
X710Y785D02*
X716Y785D01*
X839Y785D02*
X845Y785D01*
X925Y785D02*
X934Y785D01*
X1124Y785D02*
X1133Y785D01*
X1153Y785D02*
X1162Y785D01*
X1352Y785D02*
X1361Y785D01*
X1371Y785D02*
X1378Y785D01*
X0Y784D02*
X7Y784D01*
X216Y784D02*
X225Y784D01*
X416Y784D02*
X425Y784D01*
X710Y784D02*
X716Y784D01*
X838Y784D02*
X844Y784D01*
X925Y784D02*
X934Y784D01*
X1124Y784D02*
X1133Y784D01*
X1153Y784D02*
X1162Y784D01*
X1352Y784D02*
X1361Y784D01*
X1371Y784D02*
X1378Y784D01*
X0Y783D02*
X7Y783D01*
X216Y783D02*
X225Y783D01*
X415Y783D02*
X424Y783D01*
X711Y783D02*
X717Y783D01*
X837Y783D02*
X844Y783D01*
X925Y783D02*
X934Y783D01*
X1124Y783D02*
X1133Y783D01*
X1153Y783D02*
X1162Y783D01*
X1352Y783D02*
X1361Y783D01*
X1371Y783D02*
X1378Y783D01*
X0Y782D02*
X7Y782D01*
X216Y782D02*
X225Y782D01*
X415Y782D02*
X424Y782D01*
X711Y782D02*
X718Y782D01*
X837Y782D02*
X843Y782D01*
X925Y782D02*
X934Y782D01*
X1124Y782D02*
X1133Y782D01*
X1153Y782D02*
X1162Y782D01*
X1352Y782D02*
X1361Y782D01*
X1371Y782D02*
X1378Y782D01*
X0Y781D02*
X7Y781D01*
X216Y781D02*
X225Y781D01*
X415Y781D02*
X424Y781D01*
X712Y781D02*
X718Y781D01*
X836Y781D02*
X843Y781D01*
X925Y781D02*
X934Y781D01*
X1124Y781D02*
X1133Y781D01*
X1153Y781D02*
X1162Y781D01*
X1352Y781D02*
X1361Y781D01*
X1371Y781D02*
X1378Y781D01*
X0Y780D02*
X7Y780D01*
X217Y780D02*
X226Y780D01*
X415Y780D02*
X424Y780D01*
X713Y780D02*
X719Y780D01*
X835Y780D02*
X842Y780D01*
X925Y780D02*
X934Y780D01*
X1124Y780D02*
X1133Y780D01*
X1153Y780D02*
X1162Y780D01*
X1352Y780D02*
X1361Y780D01*
X1371Y780D02*
X1378Y780D01*
X0Y779D02*
X7Y779D01*
X217Y779D02*
X226Y779D01*
X415Y779D02*
X424Y779D01*
X713Y779D02*
X720Y779D01*
X835Y779D02*
X841Y779D01*
X925Y779D02*
X934Y779D01*
X1124Y779D02*
X1133Y779D01*
X1153Y779D02*
X1163Y779D01*
X1352Y779D02*
X1361Y779D01*
X1371Y779D02*
X1378Y779D01*
X0Y778D02*
X7Y778D01*
X217Y778D02*
X226Y778D01*
X415Y778D02*
X424Y778D01*
X714Y778D02*
X721Y778D01*
X834Y778D02*
X841Y778D01*
X925Y778D02*
X934Y778D01*
X1123Y778D02*
X1132Y778D01*
X1154Y778D02*
X1163Y778D01*
X1352Y778D02*
X1361Y778D01*
X1371Y778D02*
X1378Y778D01*
X0Y777D02*
X7Y777D01*
X217Y777D02*
X226Y777D01*
X415Y777D02*
X424Y777D01*
X715Y777D02*
X722Y777D01*
X833Y777D02*
X840Y777D01*
X925Y777D02*
X934Y777D01*
X1123Y777D02*
X1132Y777D01*
X1154Y777D02*
X1163Y777D01*
X1352Y777D02*
X1361Y777D01*
X1371Y777D02*
X1378Y777D01*
X0Y776D02*
X7Y776D01*
X217Y776D02*
X226Y776D01*
X415Y776D02*
X424Y776D01*
X715Y776D02*
X722Y776D01*
X832Y776D02*
X839Y776D01*
X926Y776D02*
X935Y776D01*
X1123Y776D02*
X1132Y776D01*
X1154Y776D02*
X1163Y776D01*
X1351Y776D02*
X1360Y776D01*
X1371Y776D02*
X1378Y776D01*
X0Y775D02*
X7Y775D01*
X217Y775D02*
X226Y775D01*
X414Y775D02*
X423Y775D01*
X716Y775D02*
X723Y775D01*
X831Y775D02*
X838Y775D01*
X926Y775D02*
X935Y775D01*
X1123Y775D02*
X1132Y775D01*
X1154Y775D02*
X1163Y775D01*
X1351Y775D02*
X1360Y775D01*
X1371Y775D02*
X1378Y775D01*
X0Y774D02*
X7Y774D01*
X217Y774D02*
X226Y774D01*
X414Y774D02*
X423Y774D01*
X717Y774D02*
X724Y774D01*
X830Y774D02*
X837Y774D01*
X926Y774D02*
X935Y774D01*
X1123Y774D02*
X1132Y774D01*
X1154Y774D02*
X1163Y774D01*
X1351Y774D02*
X1360Y774D01*
X1371Y774D02*
X1378Y774D01*
X0Y773D02*
X7Y773D01*
X218Y773D02*
X227Y773D01*
X414Y773D02*
X423Y773D01*
X718Y773D02*
X725Y773D01*
X829Y773D02*
X837Y773D01*
X926Y773D02*
X935Y773D01*
X1123Y773D02*
X1132Y773D01*
X1154Y773D02*
X1163Y773D01*
X1351Y773D02*
X1360Y773D01*
X1371Y773D02*
X1378Y773D01*
X0Y772D02*
X7Y772D01*
X218Y772D02*
X227Y772D01*
X414Y772D02*
X423Y772D01*
X719Y772D02*
X726Y772D01*
X828Y772D02*
X836Y772D01*
X926Y772D02*
X935Y772D01*
X1122Y772D02*
X1131Y772D01*
X1155Y772D02*
X1164Y772D01*
X1351Y772D02*
X1360Y772D01*
X1371Y772D02*
X1378Y772D01*
X0Y771D02*
X7Y771D01*
X218Y771D02*
X227Y771D01*
X414Y771D02*
X423Y771D01*
X720Y771D02*
X727Y771D01*
X827Y771D02*
X835Y771D01*
X926Y771D02*
X936Y771D01*
X1122Y771D02*
X1131Y771D01*
X1155Y771D02*
X1164Y771D01*
X1350Y771D02*
X1360Y771D01*
X1371Y771D02*
X1378Y771D01*
X0Y770D02*
X7Y770D01*
X218Y770D02*
X227Y770D01*
X413Y770D02*
X423Y770D01*
X720Y770D02*
X728Y770D01*
X826Y770D02*
X834Y770D01*
X927Y770D02*
X936Y770D01*
X1122Y770D02*
X1131Y770D01*
X1155Y770D02*
X1164Y770D01*
X1350Y770D02*
X1359Y770D01*
X1371Y770D02*
X1378Y770D01*
X0Y769D02*
X7Y769D01*
X218Y769D02*
X228Y769D01*
X413Y769D02*
X422Y769D01*
X721Y769D02*
X729Y769D01*
X825Y769D02*
X833Y769D01*
X927Y769D02*
X936Y769D01*
X1122Y769D02*
X1131Y769D01*
X1155Y769D02*
X1164Y769D01*
X1350Y769D02*
X1359Y769D01*
X1371Y769D02*
X1378Y769D01*
X0Y768D02*
X7Y768D01*
X219Y768D02*
X228Y768D01*
X413Y768D02*
X422Y768D01*
X722Y768D02*
X731Y768D01*
X824Y768D02*
X832Y768D01*
X927Y768D02*
X936Y768D01*
X1122Y768D02*
X1131Y768D01*
X1155Y768D02*
X1165Y768D01*
X1350Y768D02*
X1359Y768D01*
X1371Y768D02*
X1378Y768D01*
X0Y767D02*
X7Y767D01*
X219Y767D02*
X228Y767D01*
X413Y767D02*
X422Y767D01*
X723Y767D02*
X732Y767D01*
X823Y767D02*
X831Y767D01*
X927Y767D02*
X937Y767D01*
X1122Y767D02*
X1130Y767D01*
X1156Y767D02*
X1165Y767D01*
X1350Y767D02*
X1359Y767D01*
X1371Y767D02*
X1378Y767D01*
X0Y766D02*
X7Y766D01*
X219Y766D02*
X228Y766D01*
X413Y766D02*
X422Y766D01*
X724Y766D02*
X733Y766D01*
X822Y766D02*
X830Y766D01*
X928Y766D02*
X937Y766D01*
X1122Y766D02*
X1130Y766D01*
X1156Y766D02*
X1165Y766D01*
X1350Y766D02*
X1358Y766D01*
X1371Y766D02*
X1378Y766D01*
X0Y765D02*
X7Y765D01*
X219Y765D02*
X229Y765D01*
X413Y765D02*
X421Y765D01*
X726Y765D02*
X734Y765D01*
X820Y765D02*
X829Y765D01*
X928Y765D02*
X937Y765D01*
X1122Y765D02*
X1130Y765D01*
X1156Y765D02*
X1165Y765D01*
X1350Y765D02*
X1358Y765D01*
X1371Y765D02*
X1378Y765D01*
X0Y764D02*
X7Y764D01*
X220Y764D02*
X229Y764D01*
X413Y764D02*
X421Y764D01*
X727Y764D02*
X736Y764D01*
X819Y764D02*
X828Y764D01*
X928Y764D02*
X937Y764D01*
X1122Y764D02*
X1130Y764D01*
X1156Y764D02*
X1166Y764D01*
X1350Y764D02*
X1358Y764D01*
X1371Y764D02*
X1378Y764D01*
X0Y763D02*
X7Y763D01*
X220Y763D02*
X229Y763D01*
X413Y763D02*
X421Y763D01*
X728Y763D02*
X737Y763D01*
X817Y763D02*
X827Y763D01*
X928Y763D02*
X938Y763D01*
X1122Y763D02*
X1129Y763D01*
X1157Y763D02*
X1166Y763D01*
X1350Y763D02*
X1358Y763D01*
X1371Y763D02*
X1378Y763D01*
X0Y762D02*
X7Y762D01*
X220Y762D02*
X230Y762D01*
X413Y762D02*
X421Y762D01*
X729Y762D02*
X739Y762D01*
X816Y762D02*
X825Y762D01*
X929Y762D02*
X938Y762D01*
X1122Y762D02*
X1129Y762D01*
X1157Y762D02*
X1166Y762D01*
X1350Y762D02*
X1357Y762D01*
X1371Y762D02*
X1378Y762D01*
X0Y761D02*
X7Y761D01*
X220Y761D02*
X230Y761D01*
X413Y761D02*
X420Y761D01*
X730Y761D02*
X740Y761D01*
X814Y761D02*
X824Y761D01*
X929Y761D02*
X938Y761D01*
X1122Y761D02*
X1129Y761D01*
X1157Y761D02*
X1167Y761D01*
X1350Y761D02*
X1357Y761D01*
X1371Y761D02*
X1378Y761D01*
X0Y760D02*
X7Y760D01*
X221Y760D02*
X230Y760D01*
X413Y760D02*
X420Y760D01*
X732Y760D02*
X742Y760D01*
X812Y760D02*
X823Y760D01*
X929Y760D02*
X939Y760D01*
X1122Y760D02*
X1128Y760D01*
X1158Y760D02*
X1167Y760D01*
X1350Y760D02*
X1357Y760D01*
X1371Y760D02*
X1378Y760D01*
X0Y759D02*
X7Y759D01*
X221Y759D02*
X231Y759D01*
X413Y759D02*
X420Y759D01*
X733Y759D02*
X744Y759D01*
X811Y759D02*
X821Y759D01*
X930Y759D02*
X939Y759D01*
X1122Y759D02*
X1128Y759D01*
X1158Y759D02*
X1167Y759D01*
X1350Y759D02*
X1356Y759D01*
X1371Y759D02*
X1378Y759D01*
X0Y758D02*
X7Y758D01*
X221Y758D02*
X231Y758D01*
X413Y758D02*
X419Y758D01*
X735Y758D02*
X746Y758D01*
X809Y758D02*
X820Y758D01*
X930Y758D02*
X939Y758D01*
X1122Y758D02*
X1128Y758D01*
X1158Y758D02*
X1168Y758D01*
X1350Y758D02*
X1356Y758D01*
X1371Y758D02*
X1378Y758D01*
X0Y757D02*
X7Y757D01*
X222Y757D02*
X231Y757D01*
X413Y757D02*
X419Y757D01*
X736Y757D02*
X748Y757D01*
X806Y757D02*
X818Y757D01*
X930Y757D02*
X940Y757D01*
X1122Y757D02*
X1127Y757D01*
X1159Y757D02*
X1168Y757D01*
X1350Y757D02*
X1356Y757D01*
X1371Y757D02*
X1378Y757D01*
X0Y756D02*
X7Y756D01*
X222Y756D02*
X232Y756D01*
X413Y756D02*
X419Y756D01*
X738Y756D02*
X751Y756D01*
X804Y756D02*
X817Y756D01*
X931Y756D02*
X940Y756D01*
X1122Y756D02*
X1127Y756D01*
X1159Y756D02*
X1169Y756D01*
X1350Y756D02*
X1355Y756D01*
X1371Y756D02*
X1378Y756D01*
X0Y755D02*
X7Y755D01*
X223Y755D02*
X232Y755D01*
X413Y755D02*
X418Y755D01*
X740Y755D02*
X753Y755D01*
X801Y755D02*
X815Y755D01*
X931Y755D02*
X941Y755D01*
X1122Y755D02*
X1127Y755D01*
X1159Y755D02*
X1169Y755D01*
X1350Y755D02*
X1355Y755D01*
X1371Y755D02*
X1378Y755D01*
X0Y754D02*
X7Y754D01*
X223Y754D02*
X232Y754D01*
X413Y754D02*
X418Y754D01*
X741Y754D02*
X756Y754D01*
X798Y754D02*
X813Y754D01*
X931Y754D02*
X941Y754D01*
X1122Y754D02*
X1126Y754D01*
X1160Y754D02*
X1169Y754D01*
X1350Y754D02*
X1355Y754D01*
X1371Y754D02*
X1378Y754D01*
X0Y753D02*
X7Y753D01*
X223Y753D02*
X233Y753D01*
X413Y753D02*
X417Y753D01*
X743Y753D02*
X760Y753D01*
X795Y753D02*
X811Y753D01*
X932Y753D02*
X942Y753D01*
X1122Y753D02*
X1126Y753D01*
X1160Y753D02*
X1170Y753D01*
X1350Y753D02*
X1354Y753D01*
X1371Y753D02*
X1378Y753D01*
X0Y752D02*
X7Y752D01*
X224Y752D02*
X233Y752D01*
X413Y752D02*
X417Y752D01*
X745Y752D02*
X765Y752D01*
X790Y752D02*
X809Y752D01*
X932Y752D02*
X942Y752D01*
X1122Y752D02*
X1126Y752D01*
X1161Y752D02*
X1170Y752D01*
X1350Y752D02*
X1354Y752D01*
X1371Y752D02*
X1378Y752D01*
X0Y751D02*
X7Y751D01*
X224Y751D02*
X234Y751D01*
X413Y751D02*
X417Y751D01*
X748Y751D02*
X774Y751D01*
X777Y751D02*
X806Y751D01*
X933Y751D02*
X942Y751D01*
X1122Y751D02*
X1125Y751D01*
X1161Y751D02*
X1171Y751D01*
X1350Y751D02*
X1353Y751D01*
X1371Y751D02*
X1378Y751D01*
X0Y750D02*
X7Y750D01*
X225Y750D02*
X234Y750D01*
X413Y750D02*
X416Y750D01*
X751Y750D02*
X804Y750D01*
X933Y750D02*
X943Y750D01*
X1122Y750D02*
X1125Y750D01*
X1161Y750D02*
X1171Y750D01*
X1350Y750D02*
X1353Y750D01*
X1371Y750D02*
X1378Y750D01*
X0Y749D02*
X7Y749D01*
X225Y749D02*
X235Y749D01*
X406Y749D02*
X416Y749D01*
X753Y749D02*
X801Y749D01*
X934Y749D02*
X943Y749D01*
X1114Y749D02*
X1124Y749D01*
X1162Y749D02*
X1172Y749D01*
X1343Y749D02*
X1353Y749D01*
X1371Y749D02*
X1378Y749D01*
X0Y748D02*
X7Y748D01*
X226Y748D02*
X235Y748D01*
X405Y748D02*
X415Y748D01*
X757Y748D02*
X798Y748D01*
X934Y748D02*
X944Y748D01*
X1114Y748D02*
X1124Y748D01*
X1162Y748D02*
X1172Y748D01*
X1342Y748D02*
X1352Y748D01*
X1371Y748D02*
X1378Y748D01*
X0Y747D02*
X7Y747D01*
X226Y747D02*
X236Y747D01*
X405Y747D02*
X415Y747D01*
X761Y747D02*
X793Y747D01*
X935Y747D02*
X944Y747D01*
X1113Y747D02*
X1123Y747D01*
X1163Y747D02*
X1173Y747D01*
X1342Y747D02*
X1352Y747D01*
X1371Y747D02*
X1378Y747D01*
X0Y746D02*
X7Y746D01*
X226Y746D02*
X236Y746D01*
X404Y746D02*
X414Y746D01*
X766Y746D02*
X788Y746D01*
X935Y746D02*
X945Y746D01*
X1113Y746D02*
X1123Y746D01*
X1163Y746D02*
X1173Y746D01*
X1341Y746D02*
X1351Y746D01*
X1371Y746D02*
X1378Y746D01*
X0Y745D02*
X7Y745D01*
X227Y745D02*
X237Y745D01*
X404Y745D02*
X414Y745D01*
X935Y745D02*
X946Y745D01*
X1112Y745D02*
X1122Y745D01*
X1164Y745D02*
X1174Y745D01*
X1341Y745D02*
X1351Y745D01*
X1371Y745D02*
X1378Y745D01*
X0Y744D02*
X7Y744D01*
X227Y744D02*
X238Y744D01*
X403Y744D02*
X413Y744D01*
X936Y744D02*
X946Y744D01*
X1112Y744D02*
X1122Y744D01*
X1164Y744D02*
X1174Y744D01*
X1340Y744D02*
X1350Y744D01*
X1371Y744D02*
X1378Y744D01*
X0Y743D02*
X7Y743D01*
X228Y743D02*
X238Y743D01*
X402Y743D02*
X413Y743D01*
X936Y743D02*
X947Y743D01*
X1111Y743D02*
X1121Y743D01*
X1165Y743D02*
X1175Y743D01*
X1339Y743D02*
X1350Y743D01*
X1371Y743D02*
X1378Y743D01*
X0Y742D02*
X7Y742D01*
X228Y742D02*
X239Y742D01*
X356Y742D02*
X385Y742D01*
X402Y742D02*
X412Y742D01*
X686Y742D02*
X885Y742D01*
X937Y742D02*
X947Y742D01*
X1064Y742D02*
X1093Y742D01*
X1110Y742D02*
X1121Y742D01*
X1165Y742D02*
X1176Y742D01*
X1293Y742D02*
X1322Y742D01*
X1339Y742D02*
X1349Y742D01*
X1371Y742D02*
X1378Y742D01*
X0Y741D02*
X7Y741D01*
X229Y741D02*
X239Y741D01*
X353Y741D02*
X388Y741D01*
X401Y741D02*
X412Y741D01*
X686Y741D02*
X886Y741D01*
X937Y741D02*
X948Y741D01*
X1061Y741D02*
X1096Y741D01*
X1110Y741D02*
X1120Y741D01*
X1166Y741D02*
X1176Y741D01*
X1290Y741D02*
X1325Y741D01*
X1338Y741D02*
X1349Y741D01*
X1371Y741D02*
X1378Y741D01*
X0Y740D02*
X7Y740D01*
X230Y740D02*
X240Y740D01*
X352Y740D02*
X389Y740D01*
X401Y740D02*
X411Y740D01*
X686Y740D02*
X886Y740D01*
X938Y740D02*
X949Y740D01*
X1060Y740D02*
X1098Y740D01*
X1109Y740D02*
X1120Y740D01*
X1166Y740D02*
X1177Y740D01*
X1288Y740D02*
X1326Y740D01*
X1337Y740D02*
X1348Y740D01*
X1371Y740D02*
X1378Y740D01*
X0Y739D02*
X7Y739D01*
X230Y739D02*
X241Y739D01*
X351Y739D02*
X390Y739D01*
X400Y739D02*
X411Y739D01*
X686Y739D02*
X688Y739D01*
X762Y739D02*
X810Y739D01*
X884Y739D02*
X886Y739D01*
X939Y739D02*
X949Y739D01*
X1060Y739D02*
X1098Y739D01*
X1109Y739D02*
X1119Y739D01*
X1167Y739D02*
X1177Y739D01*
X1288Y739D02*
X1327Y739D01*
X1337Y739D02*
X1347Y739D01*
X1371Y739D02*
X1378Y739D01*
X0Y738D02*
X7Y738D01*
X231Y738D02*
X241Y738D01*
X351Y738D02*
X390Y738D01*
X399Y738D02*
X410Y738D01*
X686Y738D02*
X688Y738D01*
X884Y738D02*
X886Y738D01*
X939Y738D02*
X950Y738D01*
X1059Y738D02*
X1099Y738D01*
X1108Y738D02*
X1118Y738D01*
X1168Y738D02*
X1178Y738D01*
X1287Y738D02*
X1327Y738D01*
X1336Y738D02*
X1347Y738D01*
X1371Y738D02*
X1378Y738D01*
X0Y737D02*
X7Y737D01*
X231Y737D02*
X242Y737D01*
X350Y737D02*
X390Y737D01*
X399Y737D02*
X409Y737D01*
X686Y737D02*
X688Y737D01*
X884Y737D02*
X886Y737D01*
X940Y737D02*
X951Y737D01*
X1059Y737D02*
X1099Y737D01*
X1107Y737D02*
X1118Y737D01*
X1168Y737D02*
X1179Y737D01*
X1287Y737D02*
X1327Y737D01*
X1335Y737D02*
X1346Y737D01*
X1371Y737D02*
X1378Y737D01*
X0Y736D02*
X7Y736D01*
X232Y736D02*
X243Y736D01*
X350Y736D02*
X390Y736D01*
X398Y736D02*
X409Y736D01*
X686Y736D02*
X688Y736D01*
X884Y736D02*
X886Y736D01*
X940Y736D02*
X951Y736D01*
X1059Y736D02*
X1099Y736D01*
X1106Y736D02*
X1117Y736D01*
X1169Y736D02*
X1180Y736D01*
X1287Y736D02*
X1327Y736D01*
X1335Y736D02*
X1346Y736D01*
X1371Y736D02*
X1378Y736D01*
X0Y735D02*
X7Y735D01*
X233Y735D02*
X244Y735D01*
X351Y735D02*
X390Y735D01*
X397Y735D02*
X408Y735D01*
X686Y735D02*
X688Y735D01*
X884Y735D02*
X886Y735D01*
X941Y735D02*
X952Y735D01*
X1059Y735D02*
X1099Y735D01*
X1106Y735D02*
X1117Y735D01*
X1169Y735D02*
X1180Y735D01*
X1287Y735D02*
X1327Y735D01*
X1334Y735D02*
X1345Y735D01*
X1371Y735D02*
X1378Y735D01*
X0Y734D02*
X7Y734D01*
X233Y734D02*
X244Y734D01*
X351Y734D02*
X390Y734D01*
X396Y734D02*
X408Y734D01*
X686Y734D02*
X688Y734D01*
X884Y734D02*
X886Y734D01*
X942Y734D02*
X953Y734D01*
X1060Y734D02*
X1098Y734D01*
X1105Y734D02*
X1116Y734D01*
X1170Y734D02*
X1181Y734D01*
X1288Y734D02*
X1326Y734D01*
X1333Y734D02*
X1344Y734D01*
X1371Y734D02*
X1378Y734D01*
X0Y733D02*
X7Y733D01*
X234Y733D02*
X245Y733D01*
X352Y733D02*
X389Y733D01*
X396Y733D02*
X407Y733D01*
X686Y733D02*
X688Y733D01*
X884Y733D02*
X886Y733D01*
X942Y733D02*
X954Y733D01*
X1060Y733D02*
X1097Y733D01*
X1104Y733D02*
X1115Y733D01*
X1171Y733D02*
X1182Y733D01*
X1289Y733D02*
X1326Y733D01*
X1332Y733D02*
X1344Y733D01*
X1371Y733D02*
X1378Y733D01*
X0Y732D02*
X7Y732D01*
X234Y732D02*
X246Y732D01*
X353Y732D02*
X388Y732D01*
X395Y732D02*
X406Y732D01*
X686Y732D02*
X688Y732D01*
X884Y732D02*
X886Y732D01*
X943Y732D02*
X954Y732D01*
X1061Y732D02*
X1096Y732D01*
X1103Y732D02*
X1115Y732D01*
X1171Y732D02*
X1183Y732D01*
X1290Y732D02*
X1325Y732D01*
X1332Y732D02*
X1343Y732D01*
X1371Y732D02*
X1378Y732D01*
X0Y731D02*
X7Y731D01*
X235Y731D02*
X247Y731D01*
X394Y731D02*
X405Y731D01*
X686Y731D02*
X688Y731D01*
X884Y731D02*
X886Y731D01*
X944Y731D02*
X955Y731D01*
X1103Y731D02*
X1114Y731D01*
X1172Y731D02*
X1183Y731D01*
X1331Y731D02*
X1342Y731D01*
X1371Y731D02*
X1378Y731D01*
X0Y730D02*
X7Y730D01*
X236Y730D02*
X248Y730D01*
X393Y730D02*
X405Y730D01*
X686Y730D02*
X688Y730D01*
X884Y730D02*
X886Y730D01*
X944Y730D02*
X956Y730D01*
X1102Y730D02*
X1113Y730D01*
X1173Y730D02*
X1184Y730D01*
X1330Y730D02*
X1342Y730D01*
X1371Y730D02*
X1378Y730D01*
X0Y729D02*
X7Y729D01*
X237Y729D02*
X248Y729D01*
X392Y729D02*
X404Y729D01*
X686Y729D02*
X688Y729D01*
X884Y729D02*
X886Y729D01*
X945Y729D02*
X957Y729D01*
X1101Y729D02*
X1113Y729D01*
X1174Y729D02*
X1185Y729D01*
X1329Y729D02*
X1341Y729D01*
X1371Y729D02*
X1378Y729D01*
X0Y728D02*
X7Y728D01*
X237Y728D02*
X249Y728D01*
X391Y728D02*
X403Y728D01*
X686Y728D02*
X688Y728D01*
X884Y728D02*
X886Y728D01*
X946Y728D02*
X958Y728D01*
X1100Y728D02*
X1112Y728D01*
X1174Y728D02*
X1186Y728D01*
X1328Y728D02*
X1340Y728D01*
X1371Y728D02*
X1378Y728D01*
X0Y727D02*
X7Y727D01*
X238Y727D02*
X250Y727D01*
X390Y727D02*
X402Y727D01*
X686Y727D02*
X688Y727D01*
X884Y727D02*
X886Y727D01*
X947Y727D02*
X959Y727D01*
X1099Y727D02*
X1111Y727D01*
X1175Y727D02*
X1187Y727D01*
X1327Y727D02*
X1339Y727D01*
X1371Y727D02*
X1378Y727D01*
X0Y726D02*
X7Y726D01*
X239Y726D02*
X251Y726D01*
X389Y726D02*
X402Y726D01*
X686Y726D02*
X688Y726D01*
X884Y726D02*
X886Y726D01*
X947Y726D02*
X960Y726D01*
X1098Y726D02*
X1110Y726D01*
X1176Y726D02*
X1188Y726D01*
X1326Y726D02*
X1339Y726D01*
X1371Y726D02*
X1378Y726D01*
X0Y725D02*
X7Y725D01*
X240Y725D02*
X252Y725D01*
X389Y725D02*
X401Y725D01*
X686Y725D02*
X688Y725D01*
X884Y725D02*
X886Y725D01*
X948Y725D02*
X961Y725D01*
X1097Y725D02*
X1110Y725D01*
X1177Y725D02*
X1189Y725D01*
X1325Y725D02*
X1338Y725D01*
X1371Y725D02*
X1378Y725D01*
X0Y724D02*
X7Y724D01*
X241Y724D02*
X253Y724D01*
X388Y724D02*
X400Y724D01*
X686Y724D02*
X688Y724D01*
X884Y724D02*
X886Y724D01*
X949Y724D02*
X962Y724D01*
X1096Y724D02*
X1109Y724D01*
X1177Y724D02*
X1190Y724D01*
X1324Y724D02*
X1337Y724D01*
X1371Y724D02*
X1378Y724D01*
X0Y723D02*
X7Y723D01*
X241Y723D02*
X254Y723D01*
X386Y723D02*
X399Y723D01*
X686Y723D02*
X688Y723D01*
X884Y723D02*
X886Y723D01*
X950Y723D02*
X963Y723D01*
X1095Y723D02*
X1108Y723D01*
X1178Y723D02*
X1191Y723D01*
X1323Y723D02*
X1336Y723D01*
X1371Y723D02*
X1378Y723D01*
X0Y722D02*
X7Y722D01*
X242Y722D02*
X255Y722D01*
X385Y722D02*
X398Y722D01*
X686Y722D02*
X688Y722D01*
X884Y722D02*
X886Y722D01*
X951Y722D02*
X964Y722D01*
X1094Y722D02*
X1107Y722D01*
X1179Y722D02*
X1192Y722D01*
X1322Y722D02*
X1335Y722D01*
X1371Y722D02*
X1378Y722D01*
X0Y721D02*
X7Y721D01*
X243Y721D02*
X256Y721D01*
X384Y721D02*
X397Y721D01*
X686Y721D02*
X688Y721D01*
X884Y721D02*
X886Y721D01*
X952Y721D02*
X965Y721D01*
X1093Y721D02*
X1106Y721D01*
X1180Y721D02*
X1193Y721D01*
X1321Y721D02*
X1334Y721D01*
X1371Y721D02*
X1378Y721D01*
X0Y720D02*
X7Y720D01*
X244Y720D02*
X257Y720D01*
X383Y720D02*
X397Y720D01*
X686Y720D02*
X688Y720D01*
X884Y720D02*
X886Y720D01*
X953Y720D02*
X966Y720D01*
X1092Y720D02*
X1105Y720D01*
X1181Y720D02*
X1194Y720D01*
X1320Y720D02*
X1333Y720D01*
X1371Y720D02*
X1378Y720D01*
X0Y719D02*
X7Y719D01*
X245Y719D02*
X259Y719D01*
X382Y719D02*
X396Y719D01*
X686Y719D02*
X688Y719D01*
X884Y719D02*
X886Y719D01*
X954Y719D02*
X967Y719D01*
X1091Y719D02*
X1104Y719D01*
X1182Y719D02*
X1195Y719D01*
X1319Y719D02*
X1332Y719D01*
X1371Y719D02*
X1378Y719D01*
X0Y718D02*
X7Y718D01*
X246Y718D02*
X260Y718D01*
X381Y718D02*
X395Y718D01*
X686Y718D02*
X688Y718D01*
X884Y718D02*
X886Y718D01*
X955Y718D02*
X968Y718D01*
X1089Y718D02*
X1103Y718D01*
X1183Y718D02*
X1197Y718D01*
X1318Y718D02*
X1332Y718D01*
X1371Y718D02*
X1378Y718D01*
X0Y717D02*
X7Y717D01*
X247Y717D02*
X261Y717D01*
X380Y717D02*
X394Y717D01*
X686Y717D02*
X688Y717D01*
X884Y717D02*
X886Y717D01*
X955Y717D02*
X970Y717D01*
X1088Y717D02*
X1102Y717D01*
X1184Y717D02*
X1198Y717D01*
X1316Y717D02*
X1331Y717D01*
X1371Y717D02*
X1378Y717D01*
X0Y716D02*
X7Y716D01*
X248Y716D02*
X262Y716D01*
X378Y716D02*
X393Y716D01*
X686Y716D02*
X688Y716D01*
X884Y716D02*
X886Y716D01*
X957Y716D02*
X971Y716D01*
X1087Y716D02*
X1101Y716D01*
X1185Y716D02*
X1199Y716D01*
X1315Y716D02*
X1329Y716D01*
X1371Y716D02*
X1378Y716D01*
X0Y715D02*
X7Y715D01*
X249Y715D02*
X264Y715D01*
X377Y715D02*
X392Y715D01*
X686Y715D02*
X688Y715D01*
X884Y715D02*
X886Y715D01*
X958Y715D02*
X972Y715D01*
X1086Y715D02*
X1100Y715D01*
X1186Y715D02*
X1201Y715D01*
X1314Y715D02*
X1328Y715D01*
X1371Y715D02*
X1378Y715D01*
X0Y714D02*
X7Y714D01*
X250Y714D02*
X265Y714D01*
X376Y714D02*
X390Y714D01*
X686Y714D02*
X688Y714D01*
X884Y714D02*
X886Y714D01*
X959Y714D02*
X974Y714D01*
X1084Y714D02*
X1099Y714D01*
X1187Y714D02*
X1202Y714D01*
X1312Y714D02*
X1327Y714D01*
X1371Y714D02*
X1378Y714D01*
X0Y713D02*
X7Y713D01*
X251Y713D02*
X266Y713D01*
X374Y713D02*
X389Y713D01*
X686Y713D02*
X688Y713D01*
X884Y713D02*
X886Y713D01*
X960Y713D02*
X975Y713D01*
X1083Y713D02*
X1098Y713D01*
X1188Y713D02*
X1203Y713D01*
X1311Y713D02*
X1326Y713D01*
X1371Y713D02*
X1378Y713D01*
X0Y712D02*
X7Y712D01*
X252Y712D02*
X268Y712D01*
X373Y712D02*
X388Y712D01*
X686Y712D02*
X688Y712D01*
X884Y712D02*
X886Y712D01*
X961Y712D02*
X976Y712D01*
X1081Y712D02*
X1097Y712D01*
X1189Y712D02*
X1205Y712D01*
X1310Y712D02*
X1325Y712D01*
X1371Y712D02*
X1378Y712D01*
X0Y711D02*
X7Y711D01*
X254Y711D02*
X270Y711D01*
X371Y711D02*
X387Y711D01*
X686Y711D02*
X688Y711D01*
X884Y711D02*
X886Y711D01*
X962Y711D02*
X978Y711D01*
X1080Y711D02*
X1096Y711D01*
X1190Y711D02*
X1206Y711D01*
X1308Y711D02*
X1324Y711D01*
X1371Y711D02*
X1378Y711D01*
X0Y710D02*
X7Y710D01*
X255Y710D02*
X271Y710D01*
X369Y710D02*
X386Y710D01*
X686Y710D02*
X688Y710D01*
X884Y710D02*
X886Y710D01*
X963Y710D02*
X980Y710D01*
X1078Y710D02*
X1094Y710D01*
X1192Y710D02*
X1208Y710D01*
X1306Y710D02*
X1323Y710D01*
X1371Y710D02*
X1378Y710D01*
X0Y709D02*
X7Y709D01*
X256Y709D02*
X273Y709D01*
X368Y709D02*
X385Y709D01*
X686Y709D02*
X688Y709D01*
X884Y709D02*
X886Y709D01*
X965Y709D02*
X981Y709D01*
X1076Y709D02*
X1093Y709D01*
X1193Y709D02*
X1210Y709D01*
X1305Y709D02*
X1321Y709D01*
X1371Y709D02*
X1378Y709D01*
X0Y708D02*
X7Y708D01*
X258Y708D02*
X274Y708D01*
X366Y708D02*
X383Y708D01*
X686Y708D02*
X688Y708D01*
X884Y708D02*
X886Y708D01*
X966Y708D02*
X983Y708D01*
X1075Y708D02*
X1092Y708D01*
X1194Y708D02*
X1211Y708D01*
X1303Y708D02*
X1320Y708D01*
X1371Y708D02*
X1378Y708D01*
X0Y707D02*
X7Y707D01*
X259Y707D02*
X277Y707D01*
X364Y707D02*
X382Y707D01*
X686Y707D02*
X688Y707D01*
X884Y707D02*
X886Y707D01*
X967Y707D02*
X985Y707D01*
X1073Y707D02*
X1090Y707D01*
X1196Y707D02*
X1213Y707D01*
X1301Y707D02*
X1319Y707D01*
X1371Y707D02*
X1378Y707D01*
X0Y706D02*
X7Y706D01*
X260Y706D02*
X279Y706D01*
X362Y706D02*
X380Y706D01*
X686Y706D02*
X688Y706D01*
X884Y706D02*
X886Y706D01*
X969Y706D02*
X987Y706D01*
X1071Y706D02*
X1089Y706D01*
X1197Y706D02*
X1215Y706D01*
X1299Y706D02*
X1317Y706D01*
X1371Y706D02*
X1378Y706D01*
X0Y705D02*
X7Y705D01*
X262Y705D02*
X281Y705D01*
X360Y705D02*
X379Y705D01*
X686Y705D02*
X688Y705D01*
X884Y705D02*
X886Y705D01*
X970Y705D02*
X989Y705D01*
X1069Y705D02*
X1088Y705D01*
X1198Y705D02*
X1217Y705D01*
X1297Y705D02*
X1316Y705D01*
X1371Y705D02*
X1378Y705D01*
X0Y704D02*
X7Y704D01*
X263Y704D02*
X283Y704D01*
X358Y704D02*
X378Y704D01*
X686Y704D02*
X688Y704D01*
X884Y704D02*
X886Y704D01*
X972Y704D02*
X991Y704D01*
X1066Y704D02*
X1086Y704D01*
X1200Y704D02*
X1220Y704D01*
X1295Y704D02*
X1314Y704D01*
X1371Y704D02*
X1378Y704D01*
X0Y703D02*
X7Y703D01*
X265Y703D02*
X285Y703D01*
X355Y703D02*
X376Y703D01*
X686Y703D02*
X688Y703D01*
X884Y703D02*
X886Y703D01*
X973Y703D02*
X994Y703D01*
X1064Y703D02*
X1084Y703D01*
X1202Y703D02*
X1222Y703D01*
X1292Y703D02*
X1313Y703D01*
X1371Y703D02*
X1378Y703D01*
X0Y702D02*
X7Y702D01*
X266Y702D02*
X288Y702D01*
X353Y702D02*
X374Y702D01*
X686Y702D02*
X688Y702D01*
X884Y702D02*
X886Y702D01*
X975Y702D02*
X997Y702D01*
X1061Y702D02*
X1083Y702D01*
X1203Y702D02*
X1225Y702D01*
X1289Y702D02*
X1311Y702D01*
X1371Y702D02*
X1378Y702D01*
X0Y701D02*
X7Y701D01*
X268Y701D02*
X291Y701D01*
X350Y701D02*
X373Y701D01*
X686Y701D02*
X688Y701D01*
X884Y701D02*
X886Y701D01*
X977Y701D02*
X999Y701D01*
X1058Y701D02*
X1081Y701D01*
X1205Y701D02*
X1228Y701D01*
X1287Y701D02*
X1309Y701D01*
X1371Y701D02*
X1378Y701D01*
X0Y700D02*
X7Y700D01*
X270Y700D02*
X294Y700D01*
X346Y700D02*
X371Y700D01*
X686Y700D02*
X688Y700D01*
X884Y700D02*
X886Y700D01*
X978Y700D02*
X1003Y700D01*
X1055Y700D02*
X1080Y700D01*
X1207Y700D02*
X1231Y700D01*
X1283Y700D02*
X1308Y700D01*
X1371Y700D02*
X1378Y700D01*
X0Y699D02*
X7Y699D01*
X272Y699D02*
X298Y699D01*
X342Y699D02*
X369Y699D01*
X686Y699D02*
X688Y699D01*
X884Y699D02*
X886Y699D01*
X980Y699D02*
X1007Y699D01*
X1051Y699D02*
X1078Y699D01*
X1208Y699D02*
X1235Y699D01*
X1279Y699D02*
X1306Y699D01*
X1371Y699D02*
X1378Y699D01*
X0Y698D02*
X7Y698D01*
X274Y698D02*
X303Y698D01*
X337Y698D02*
X367Y698D01*
X686Y698D02*
X688Y698D01*
X884Y698D02*
X886Y698D01*
X982Y698D02*
X1012Y698D01*
X1046Y698D02*
X1076Y698D01*
X1210Y698D02*
X1240Y698D01*
X1274Y698D02*
X1304Y698D01*
X1371Y698D02*
X1378Y698D01*
X0Y697D02*
X7Y697D01*
X276Y697D02*
X311Y697D01*
X330Y697D02*
X365Y697D01*
X686Y697D02*
X688Y697D01*
X884Y697D02*
X886Y697D01*
X984Y697D02*
X1019Y697D01*
X1039Y697D02*
X1074Y697D01*
X1213Y697D02*
X1248Y697D01*
X1267Y697D02*
X1302Y697D01*
X1371Y697D02*
X1378Y697D01*
X0Y696D02*
X7Y696D01*
X278Y696D02*
X363Y696D01*
X686Y696D02*
X688Y696D01*
X884Y696D02*
X886Y696D01*
X986Y696D02*
X1071Y696D01*
X1215Y696D02*
X1300Y696D01*
X1371Y696D02*
X1378Y696D01*
X0Y695D02*
X7Y695D01*
X280Y695D02*
X361Y695D01*
X686Y695D02*
X688Y695D01*
X884Y695D02*
X886Y695D01*
X988Y695D02*
X1069Y695D01*
X1217Y695D02*
X1298Y695D01*
X1371Y695D02*
X1378Y695D01*
X0Y694D02*
X7Y694D01*
X282Y694D02*
X358Y694D01*
X686Y694D02*
X688Y694D01*
X884Y694D02*
X886Y694D01*
X991Y694D02*
X1067Y694D01*
X1219Y694D02*
X1295Y694D01*
X1371Y694D02*
X1378Y694D01*
X0Y693D02*
X7Y693D01*
X285Y693D02*
X356Y693D01*
X686Y693D02*
X688Y693D01*
X884Y693D02*
X886Y693D01*
X993Y693D02*
X1064Y693D01*
X1222Y693D02*
X1293Y693D01*
X1371Y693D02*
X1378Y693D01*
X0Y692D02*
X7Y692D01*
X288Y692D02*
X353Y692D01*
X686Y692D02*
X688Y692D01*
X884Y692D02*
X886Y692D01*
X996Y692D02*
X1061Y692D01*
X1225Y692D02*
X1290Y692D01*
X1371Y692D02*
X1378Y692D01*
X0Y691D02*
X7Y691D01*
X291Y691D02*
X350Y691D01*
X686Y691D02*
X688Y691D01*
X884Y691D02*
X886Y691D01*
X1000Y691D02*
X1058Y691D01*
X1228Y691D02*
X1287Y691D01*
X1371Y691D02*
X1378Y691D01*
X0Y690D02*
X7Y690D01*
X294Y690D02*
X346Y690D01*
X686Y690D02*
X688Y690D01*
X884Y690D02*
X886Y690D01*
X1003Y690D02*
X1055Y690D01*
X1231Y690D02*
X1283Y690D01*
X1371Y690D02*
X1378Y690D01*
X0Y689D02*
X7Y689D01*
X299Y689D02*
X342Y689D01*
X686Y689D02*
X688Y689D01*
X884Y689D02*
X886Y689D01*
X1007Y689D02*
X1051Y689D01*
X1236Y689D02*
X1279Y689D01*
X1371Y689D02*
X1378Y689D01*
X0Y688D02*
X7Y688D01*
X304Y688D02*
X337Y688D01*
X686Y688D02*
X688Y688D01*
X884Y688D02*
X886Y688D01*
X1012Y688D02*
X1045Y688D01*
X1241Y688D02*
X1274Y688D01*
X1371Y688D02*
X1378Y688D01*
X0Y687D02*
X7Y687D01*
X312Y687D02*
X329Y687D01*
X686Y687D02*
X688Y687D01*
X884Y687D02*
X886Y687D01*
X1020Y687D02*
X1037Y687D01*
X1249Y687D02*
X1266Y687D01*
X1371Y687D02*
X1378Y687D01*
X0Y686D02*
X7Y686D01*
X686Y686D02*
X688Y686D01*
X884Y686D02*
X886Y686D01*
X1371Y686D02*
X1378Y686D01*
X0Y685D02*
X7Y685D01*
X686Y685D02*
X688Y685D01*
X884Y685D02*
X886Y685D01*
X1288Y685D02*
X1315Y685D01*
X1335Y685D02*
X1352Y685D01*
X1371Y685D02*
X1378Y685D01*
X0Y684D02*
X7Y684D01*
X574Y684D02*
X577Y684D01*
X636Y684D02*
X639Y684D01*
X686Y684D02*
X688Y684D01*
X884Y684D02*
X886Y684D01*
X1286Y684D02*
X1316Y684D01*
X1334Y684D02*
X1354Y684D01*
X1371Y684D02*
X1378Y684D01*
X0Y683D02*
X7Y683D01*
X574Y683D02*
X577Y683D01*
X636Y683D02*
X639Y683D01*
X686Y683D02*
X688Y683D01*
X884Y683D02*
X886Y683D01*
X1038Y683D02*
X1070Y683D01*
X1088Y683D02*
X1106Y683D01*
X1285Y683D02*
X1317Y683D01*
X1334Y683D02*
X1355Y683D01*
X1371Y683D02*
X1378Y683D01*
X0Y682D02*
X7Y682D01*
X574Y682D02*
X577Y682D01*
X636Y682D02*
X639Y682D01*
X686Y682D02*
X688Y682D01*
X884Y682D02*
X886Y682D01*
X1037Y682D02*
X1070Y682D01*
X1087Y682D02*
X1108Y682D01*
X1284Y682D02*
X1317Y682D01*
X1333Y682D02*
X1356Y682D01*
X1371Y682D02*
X1378Y682D01*
X0Y681D02*
X7Y681D01*
X574Y681D02*
X577Y681D01*
X636Y681D02*
X639Y681D01*
X686Y681D02*
X688Y681D01*
X884Y681D02*
X886Y681D01*
X1036Y681D02*
X1070Y681D01*
X1087Y681D02*
X1109Y681D01*
X1284Y681D02*
X1317Y681D01*
X1334Y681D02*
X1357Y681D01*
X1371Y681D02*
X1378Y681D01*
X0Y680D02*
X7Y680D01*
X574Y680D02*
X577Y680D01*
X636Y680D02*
X639Y680D01*
X686Y680D02*
X688Y680D01*
X884Y680D02*
X886Y680D01*
X1036Y680D02*
X1070Y680D01*
X1087Y680D02*
X1110Y680D01*
X1283Y680D02*
X1316Y680D01*
X1334Y680D02*
X1358Y680D01*
X1371Y680D02*
X1378Y680D01*
X0Y679D02*
X7Y679D01*
X574Y679D02*
X577Y679D01*
X636Y679D02*
X639Y679D01*
X686Y679D02*
X688Y679D01*
X884Y679D02*
X886Y679D01*
X1037Y679D02*
X1070Y679D01*
X1087Y679D02*
X1111Y679D01*
X1283Y679D02*
X1315Y679D01*
X1335Y679D02*
X1359Y679D01*
X1371Y679D02*
X1378Y679D01*
X0Y678D02*
X7Y678D01*
X574Y678D02*
X577Y678D01*
X636Y678D02*
X639Y678D01*
X686Y678D02*
X688Y678D01*
X884Y678D02*
X886Y678D01*
X1037Y678D02*
X1070Y678D01*
X1087Y678D02*
X1111Y678D01*
X1283Y678D02*
X1289Y678D01*
X1351Y678D02*
X1359Y678D01*
X1371Y678D02*
X1378Y678D01*
X0Y677D02*
X7Y677D01*
X574Y677D02*
X577Y677D01*
X636Y677D02*
X639Y677D01*
X686Y677D02*
X688Y677D01*
X884Y677D02*
X886Y677D01*
X1039Y677D02*
X1070Y677D01*
X1089Y677D02*
X1112Y677D01*
X1283Y677D02*
X1289Y677D01*
X1353Y677D02*
X1360Y677D01*
X1371Y677D02*
X1378Y677D01*
X0Y676D02*
X7Y676D01*
X574Y676D02*
X577Y676D01*
X636Y676D02*
X639Y676D01*
X686Y676D02*
X688Y676D01*
X884Y676D02*
X886Y676D01*
X1064Y676D02*
X1070Y676D01*
X1105Y676D02*
X1112Y676D01*
X1283Y676D02*
X1289Y676D01*
X1353Y676D02*
X1360Y676D01*
X1371Y676D02*
X1378Y676D01*
X0Y675D02*
X7Y675D01*
X574Y675D02*
X577Y675D01*
X636Y675D02*
X639Y675D01*
X686Y675D02*
X688Y675D01*
X884Y675D02*
X886Y675D01*
X1064Y675D02*
X1070Y675D01*
X1106Y675D02*
X1113Y675D01*
X1283Y675D02*
X1289Y675D01*
X1354Y675D02*
X1361Y675D01*
X1371Y675D02*
X1378Y675D01*
X0Y674D02*
X7Y674D01*
X574Y674D02*
X577Y674D01*
X636Y674D02*
X639Y674D01*
X686Y674D02*
X688Y674D01*
X884Y674D02*
X886Y674D01*
X1064Y674D02*
X1070Y674D01*
X1106Y674D02*
X1113Y674D01*
X1283Y674D02*
X1289Y674D01*
X1354Y674D02*
X1361Y674D01*
X1371Y674D02*
X1378Y674D01*
X0Y673D02*
X7Y673D01*
X574Y673D02*
X577Y673D01*
X636Y673D02*
X639Y673D01*
X686Y673D02*
X688Y673D01*
X884Y673D02*
X886Y673D01*
X1064Y673D02*
X1070Y673D01*
X1107Y673D02*
X1114Y673D01*
X1283Y673D02*
X1289Y673D01*
X1355Y673D02*
X1362Y673D01*
X1371Y673D02*
X1378Y673D01*
X0Y672D02*
X7Y672D01*
X574Y672D02*
X577Y672D01*
X636Y672D02*
X639Y672D01*
X686Y672D02*
X688Y672D01*
X884Y672D02*
X886Y672D01*
X1064Y672D02*
X1070Y672D01*
X1107Y672D02*
X1114Y672D01*
X1283Y672D02*
X1289Y672D01*
X1355Y672D02*
X1362Y672D01*
X1371Y672D02*
X1378Y672D01*
X0Y671D02*
X7Y671D01*
X574Y671D02*
X577Y671D01*
X636Y671D02*
X639Y671D01*
X686Y671D02*
X688Y671D01*
X884Y671D02*
X886Y671D01*
X1064Y671D02*
X1070Y671D01*
X1108Y671D02*
X1115Y671D01*
X1283Y671D02*
X1289Y671D01*
X1356Y671D02*
X1363Y671D01*
X1371Y671D02*
X1378Y671D01*
X0Y670D02*
X7Y670D01*
X574Y670D02*
X577Y670D01*
X636Y670D02*
X639Y670D01*
X686Y670D02*
X688Y670D01*
X884Y670D02*
X886Y670D01*
X899Y670D02*
X908Y670D01*
X929Y670D02*
X939Y670D01*
X957Y670D02*
X970Y670D01*
X1064Y670D02*
X1070Y670D01*
X1108Y670D02*
X1115Y670D01*
X1283Y670D02*
X1289Y670D01*
X1356Y670D02*
X1363Y670D01*
X1371Y670D02*
X1378Y670D01*
X0Y669D02*
X7Y669D01*
X574Y669D02*
X577Y669D01*
X636Y669D02*
X639Y669D01*
X686Y669D02*
X688Y669D01*
X884Y669D02*
X886Y669D01*
X899Y669D02*
X910Y669D01*
X929Y669D02*
X940Y669D01*
X954Y669D02*
X971Y669D01*
X1064Y669D02*
X1070Y669D01*
X1109Y669D02*
X1116Y669D01*
X1283Y669D02*
X1289Y669D01*
X1357Y669D02*
X1364Y669D01*
X1371Y669D02*
X1378Y669D01*
X0Y668D02*
X7Y668D01*
X574Y668D02*
X577Y668D01*
X636Y668D02*
X639Y668D01*
X686Y668D02*
X688Y668D01*
X884Y668D02*
X886Y668D01*
X899Y668D02*
X910Y668D01*
X929Y668D02*
X940Y668D01*
X953Y668D02*
X971Y668D01*
X1064Y668D02*
X1070Y668D01*
X1109Y668D02*
X1116Y668D01*
X1283Y668D02*
X1289Y668D01*
X1357Y668D02*
X1364Y668D01*
X1371Y668D02*
X1378Y668D01*
X0Y667D02*
X7Y667D01*
X574Y667D02*
X577Y667D01*
X636Y667D02*
X639Y667D01*
X686Y667D02*
X688Y667D01*
X884Y667D02*
X886Y667D01*
X899Y667D02*
X910Y667D01*
X929Y667D02*
X940Y667D01*
X952Y667D02*
X971Y667D01*
X1064Y667D02*
X1070Y667D01*
X1110Y667D02*
X1117Y667D01*
X1283Y667D02*
X1289Y667D01*
X1358Y667D02*
X1365Y667D01*
X1371Y667D02*
X1378Y667D01*
X0Y666D02*
X7Y666D01*
X574Y666D02*
X577Y666D01*
X636Y666D02*
X639Y666D01*
X686Y666D02*
X688Y666D01*
X884Y666D02*
X886Y666D01*
X899Y666D02*
X909Y666D01*
X929Y666D02*
X939Y666D01*
X951Y666D02*
X971Y666D01*
X1064Y666D02*
X1070Y666D01*
X1110Y666D02*
X1117Y666D01*
X1283Y666D02*
X1289Y666D01*
X1358Y666D02*
X1365Y666D01*
X1371Y666D02*
X1378Y666D01*
X0Y665D02*
X7Y665D01*
X574Y665D02*
X577Y665D01*
X636Y665D02*
X639Y665D01*
X686Y665D02*
X688Y665D01*
X884Y665D02*
X886Y665D01*
X899Y665D02*
X902Y665D01*
X929Y665D02*
X932Y665D01*
X951Y665D02*
X955Y665D01*
X967Y665D02*
X971Y665D01*
X1064Y665D02*
X1070Y665D01*
X1111Y665D02*
X1118Y665D01*
X1283Y665D02*
X1289Y665D01*
X1359Y665D02*
X1365Y665D01*
X1371Y665D02*
X1378Y665D01*
X0Y664D02*
X7Y664D01*
X574Y664D02*
X577Y664D01*
X636Y664D02*
X639Y664D01*
X686Y664D02*
X688Y664D01*
X884Y664D02*
X886Y664D01*
X899Y664D02*
X902Y664D01*
X929Y664D02*
X932Y664D01*
X951Y664D02*
X954Y664D01*
X967Y664D02*
X971Y664D01*
X1064Y664D02*
X1070Y664D01*
X1111Y664D02*
X1118Y664D01*
X1283Y664D02*
X1290Y664D01*
X1359Y664D02*
X1366Y664D01*
X1371Y664D02*
X1378Y664D01*
X0Y663D02*
X7Y663D01*
X574Y663D02*
X577Y663D01*
X636Y663D02*
X639Y663D01*
X686Y663D02*
X688Y663D01*
X884Y663D02*
X886Y663D01*
X899Y663D02*
X902Y663D01*
X929Y663D02*
X932Y663D01*
X951Y663D02*
X954Y663D01*
X967Y663D02*
X971Y663D01*
X1064Y663D02*
X1070Y663D01*
X1112Y663D02*
X1119Y663D01*
X1283Y663D02*
X1290Y663D01*
X1360Y663D02*
X1366Y663D01*
X1371Y663D02*
X1378Y663D01*
X0Y662D02*
X7Y662D01*
X574Y662D02*
X577Y662D01*
X636Y662D02*
X639Y662D01*
X686Y662D02*
X688Y662D01*
X884Y662D02*
X886Y662D01*
X899Y662D02*
X902Y662D01*
X929Y662D02*
X932Y662D01*
X951Y662D02*
X954Y662D01*
X967Y662D02*
X971Y662D01*
X1064Y662D02*
X1070Y662D01*
X1112Y662D02*
X1119Y662D01*
X1284Y662D02*
X1292Y662D01*
X1360Y662D02*
X1367Y662D01*
X1371Y662D02*
X1378Y662D01*
X0Y661D02*
X7Y661D01*
X574Y661D02*
X577Y661D01*
X636Y661D02*
X639Y661D01*
X686Y661D02*
X688Y661D01*
X884Y661D02*
X886Y661D01*
X899Y661D02*
X902Y661D01*
X929Y661D02*
X932Y661D01*
X951Y661D02*
X954Y661D01*
X967Y661D02*
X971Y661D01*
X1064Y661D02*
X1070Y661D01*
X1113Y661D02*
X1119Y661D01*
X1284Y661D02*
X1309Y661D01*
X1361Y661D02*
X1367Y661D01*
X1371Y661D02*
X1378Y661D01*
X0Y660D02*
X7Y660D01*
X574Y660D02*
X577Y660D01*
X636Y660D02*
X639Y660D01*
X686Y660D02*
X688Y660D01*
X884Y660D02*
X886Y660D01*
X899Y660D02*
X902Y660D01*
X929Y660D02*
X932Y660D01*
X951Y660D02*
X955Y660D01*
X967Y660D02*
X971Y660D01*
X1042Y660D02*
X1070Y660D01*
X1113Y660D02*
X1120Y660D01*
X1285Y660D02*
X1309Y660D01*
X1361Y660D02*
X1367Y660D01*
X1371Y660D02*
X1378Y660D01*
X0Y659D02*
X7Y659D01*
X574Y659D02*
X577Y659D01*
X636Y659D02*
X639Y659D01*
X686Y659D02*
X688Y659D01*
X884Y659D02*
X886Y659D01*
X899Y659D02*
X902Y659D01*
X929Y659D02*
X932Y659D01*
X951Y659D02*
X971Y659D01*
X1039Y659D02*
X1070Y659D01*
X1114Y659D02*
X1120Y659D01*
X1285Y659D02*
X1310Y659D01*
X1361Y659D02*
X1367Y659D01*
X1371Y659D02*
X1378Y659D01*
X0Y658D02*
X7Y658D01*
X574Y658D02*
X577Y658D01*
X636Y658D02*
X639Y658D01*
X686Y658D02*
X688Y658D01*
X884Y658D02*
X886Y658D01*
X899Y658D02*
X902Y658D01*
X929Y658D02*
X932Y658D01*
X952Y658D02*
X971Y658D01*
X1038Y658D02*
X1069Y658D01*
X1114Y658D02*
X1120Y658D01*
X1286Y658D02*
X1310Y658D01*
X1361Y658D02*
X1367Y658D01*
X1371Y658D02*
X1378Y658D01*
X0Y657D02*
X7Y657D01*
X574Y657D02*
X577Y657D01*
X636Y657D02*
X639Y657D01*
X686Y657D02*
X688Y657D01*
X884Y657D02*
X886Y657D01*
X899Y657D02*
X902Y657D01*
X929Y657D02*
X932Y657D01*
X953Y657D02*
X971Y657D01*
X1037Y657D02*
X1069Y657D01*
X1114Y657D02*
X1120Y657D01*
X1285Y657D02*
X1310Y657D01*
X1361Y657D02*
X1367Y657D01*
X1371Y657D02*
X1378Y657D01*
X0Y656D02*
X7Y656D01*
X574Y656D02*
X577Y656D01*
X636Y656D02*
X639Y656D01*
X686Y656D02*
X688Y656D01*
X884Y656D02*
X886Y656D01*
X899Y656D02*
X902Y656D01*
X929Y656D02*
X932Y656D01*
X954Y656D02*
X971Y656D01*
X1037Y656D02*
X1068Y656D01*
X1114Y656D02*
X1120Y656D01*
X1284Y656D02*
X1309Y656D01*
X1361Y656D02*
X1367Y656D01*
X1371Y656D02*
X1378Y656D01*
X0Y655D02*
X7Y655D01*
X574Y655D02*
X577Y655D01*
X636Y655D02*
X639Y655D01*
X686Y655D02*
X688Y655D01*
X761Y655D02*
X810Y655D01*
X883Y655D02*
X886Y655D01*
X899Y655D02*
X902Y655D01*
X929Y655D02*
X932Y655D01*
X959Y655D02*
X963Y655D01*
X967Y655D02*
X971Y655D01*
X1037Y655D02*
X1067Y655D01*
X1114Y655D02*
X1120Y655D01*
X1284Y655D02*
X1307Y655D01*
X1360Y655D02*
X1367Y655D01*
X1371Y655D02*
X1378Y655D01*
X0Y654D02*
X7Y654D01*
X574Y654D02*
X577Y654D01*
X636Y654D02*
X639Y654D01*
X686Y654D02*
X886Y654D01*
X899Y654D02*
X902Y654D01*
X929Y654D02*
X932Y654D01*
X959Y654D02*
X963Y654D01*
X967Y654D02*
X971Y654D01*
X1036Y654D02*
X1066Y654D01*
X1114Y654D02*
X1120Y654D01*
X1284Y654D02*
X1291Y654D01*
X1360Y654D02*
X1366Y654D01*
X1371Y654D02*
X1378Y654D01*
X0Y653D02*
X7Y653D01*
X574Y653D02*
X577Y653D01*
X636Y653D02*
X639Y653D01*
X686Y653D02*
X886Y653D01*
X899Y653D02*
X902Y653D01*
X929Y653D02*
X932Y653D01*
X958Y653D02*
X962Y653D01*
X967Y653D02*
X971Y653D01*
X1036Y653D02*
X1042Y653D01*
X1113Y653D02*
X1120Y653D01*
X1283Y653D02*
X1290Y653D01*
X1359Y653D02*
X1366Y653D01*
X1371Y653D02*
X1378Y653D01*
X0Y652D02*
X7Y652D01*
X574Y652D02*
X577Y652D01*
X636Y652D02*
X639Y652D01*
X686Y652D02*
X885Y652D01*
X892Y652D02*
X893Y652D01*
X899Y652D02*
X902Y652D01*
X922Y652D02*
X923Y652D01*
X929Y652D02*
X932Y652D01*
X958Y652D02*
X962Y652D01*
X967Y652D02*
X971Y652D01*
X1036Y652D02*
X1042Y652D01*
X1113Y652D02*
X1119Y652D01*
X1283Y652D02*
X1289Y652D01*
X1359Y652D02*
X1366Y652D01*
X1371Y652D02*
X1378Y652D01*
X0Y651D02*
X7Y651D01*
X574Y651D02*
X577Y651D01*
X636Y651D02*
X639Y651D01*
X891Y651D02*
X894Y651D01*
X899Y651D02*
X902Y651D01*
X921Y651D02*
X924Y651D01*
X929Y651D02*
X932Y651D01*
X957Y651D02*
X961Y651D01*
X967Y651D02*
X971Y651D01*
X1036Y651D02*
X1042Y651D01*
X1112Y651D02*
X1119Y651D01*
X1283Y651D02*
X1289Y651D01*
X1358Y651D02*
X1365Y651D01*
X1371Y651D02*
X1378Y651D01*
X0Y650D02*
X7Y650D01*
X574Y650D02*
X577Y650D01*
X636Y650D02*
X639Y650D01*
X891Y650D02*
X894Y650D01*
X899Y650D02*
X902Y650D01*
X921Y650D02*
X924Y650D01*
X929Y650D02*
X932Y650D01*
X956Y650D02*
X960Y650D01*
X967Y650D02*
X971Y650D01*
X1036Y650D02*
X1042Y650D01*
X1112Y650D02*
X1119Y650D01*
X1283Y650D02*
X1289Y650D01*
X1358Y650D02*
X1365Y650D01*
X1371Y650D02*
X1378Y650D01*
X0Y649D02*
X7Y649D01*
X574Y649D02*
X577Y649D01*
X636Y649D02*
X639Y649D01*
X891Y649D02*
X894Y649D01*
X899Y649D02*
X902Y649D01*
X921Y649D02*
X924Y649D01*
X929Y649D02*
X932Y649D01*
X956Y649D02*
X960Y649D01*
X967Y649D02*
X971Y649D01*
X1036Y649D02*
X1042Y649D01*
X1111Y649D02*
X1118Y649D01*
X1283Y649D02*
X1289Y649D01*
X1357Y649D02*
X1364Y649D01*
X1371Y649D02*
X1378Y649D01*
X0Y648D02*
X7Y648D01*
X574Y648D02*
X577Y648D01*
X636Y648D02*
X639Y648D01*
X891Y648D02*
X894Y648D01*
X899Y648D02*
X902Y648D01*
X921Y648D02*
X924Y648D01*
X929Y648D02*
X932Y648D01*
X955Y648D02*
X959Y648D01*
X967Y648D02*
X971Y648D01*
X1036Y648D02*
X1042Y648D01*
X1111Y648D02*
X1118Y648D01*
X1283Y648D02*
X1289Y648D01*
X1357Y648D02*
X1364Y648D01*
X1371Y648D02*
X1378Y648D01*
X0Y647D02*
X7Y647D01*
X891Y647D02*
X894Y647D01*
X899Y647D02*
X902Y647D01*
X921Y647D02*
X924Y647D01*
X929Y647D02*
X932Y647D01*
X955Y647D02*
X959Y647D01*
X967Y647D02*
X971Y647D01*
X1036Y647D02*
X1042Y647D01*
X1110Y647D02*
X1117Y647D01*
X1283Y647D02*
X1289Y647D01*
X1356Y647D02*
X1363Y647D01*
X1371Y647D02*
X1378Y647D01*
X0Y646D02*
X7Y646D01*
X891Y646D02*
X894Y646D01*
X899Y646D02*
X902Y646D01*
X921Y646D02*
X924Y646D01*
X929Y646D02*
X932Y646D01*
X954Y646D02*
X958Y646D01*
X967Y646D02*
X971Y646D01*
X1036Y646D02*
X1042Y646D01*
X1110Y646D02*
X1117Y646D01*
X1283Y646D02*
X1289Y646D01*
X1356Y646D02*
X1363Y646D01*
X1371Y646D02*
X1378Y646D01*
X0Y645D02*
X7Y645D01*
X891Y645D02*
X894Y645D01*
X899Y645D02*
X902Y645D01*
X921Y645D02*
X924Y645D01*
X929Y645D02*
X932Y645D01*
X954Y645D02*
X957Y645D01*
X967Y645D02*
X971Y645D01*
X1036Y645D02*
X1042Y645D01*
X1109Y645D02*
X1116Y645D01*
X1283Y645D02*
X1289Y645D01*
X1355Y645D02*
X1362Y645D01*
X1371Y645D02*
X1378Y645D01*
X0Y644D02*
X7Y644D01*
X891Y644D02*
X894Y644D01*
X899Y644D02*
X902Y644D01*
X921Y644D02*
X924Y644D01*
X929Y644D02*
X932Y644D01*
X953Y644D02*
X957Y644D01*
X967Y644D02*
X971Y644D01*
X1036Y644D02*
X1042Y644D01*
X1109Y644D02*
X1116Y644D01*
X1283Y644D02*
X1289Y644D01*
X1355Y644D02*
X1362Y644D01*
X1371Y644D02*
X1378Y644D01*
X0Y643D02*
X7Y643D01*
X891Y643D02*
X894Y643D01*
X899Y643D02*
X902Y643D01*
X921Y643D02*
X924Y643D01*
X929Y643D02*
X932Y643D01*
X952Y643D02*
X956Y643D01*
X967Y643D02*
X971Y643D01*
X1036Y643D02*
X1042Y643D01*
X1108Y643D02*
X1115Y643D01*
X1283Y643D02*
X1289Y643D01*
X1354Y643D02*
X1361Y643D01*
X1371Y643D02*
X1378Y643D01*
X0Y642D02*
X7Y642D01*
X891Y642D02*
X894Y642D01*
X899Y642D02*
X902Y642D01*
X921Y642D02*
X924Y642D01*
X929Y642D02*
X932Y642D01*
X952Y642D02*
X956Y642D01*
X967Y642D02*
X971Y642D01*
X1036Y642D02*
X1042Y642D01*
X1108Y642D02*
X1115Y642D01*
X1283Y642D02*
X1289Y642D01*
X1354Y642D02*
X1361Y642D01*
X1371Y642D02*
X1378Y642D01*
X0Y641D02*
X7Y641D01*
X891Y641D02*
X910Y641D01*
X921Y641D02*
X940Y641D01*
X951Y641D02*
X955Y641D01*
X967Y641D02*
X971Y641D01*
X1036Y641D02*
X1042Y641D01*
X1107Y641D02*
X1114Y641D01*
X1283Y641D02*
X1289Y641D01*
X1353Y641D02*
X1360Y641D01*
X1371Y641D02*
X1378Y641D01*
X0Y640D02*
X7Y640D01*
X891Y640D02*
X910Y640D01*
X921Y640D02*
X940Y640D01*
X951Y640D02*
X955Y640D01*
X967Y640D02*
X971Y640D01*
X1036Y640D02*
X1042Y640D01*
X1107Y640D02*
X1114Y640D01*
X1283Y640D02*
X1289Y640D01*
X1353Y640D02*
X1360Y640D01*
X1371Y640D02*
X1378Y640D01*
X0Y639D02*
X7Y639D01*
X891Y639D02*
X910Y639D01*
X921Y639D02*
X940Y639D01*
X951Y639D02*
X954Y639D01*
X968Y639D02*
X970Y639D01*
X1036Y639D02*
X1042Y639D01*
X1106Y639D02*
X1113Y639D01*
X1283Y639D02*
X1289Y639D01*
X1352Y639D02*
X1359Y639D01*
X1371Y639D02*
X1378Y639D01*
X0Y638D02*
X7Y638D01*
X892Y638D02*
X909Y638D01*
X922Y638D02*
X940Y638D01*
X952Y638D02*
X953Y638D01*
X968Y638D02*
X970Y638D01*
X1036Y638D02*
X1042Y638D01*
X1106Y638D02*
X1113Y638D01*
X1283Y638D02*
X1315Y638D01*
X1336Y638D02*
X1359Y638D01*
X1371Y638D02*
X1378Y638D01*
X0Y637D02*
X7Y637D01*
X1036Y637D02*
X1042Y637D01*
X1104Y637D02*
X1112Y637D01*
X1283Y637D02*
X1316Y637D01*
X1334Y637D02*
X1358Y637D01*
X1371Y637D02*
X1378Y637D01*
X0Y636D02*
X7Y636D01*
X1036Y636D02*
X1068Y636D01*
X1088Y636D02*
X1112Y636D01*
X1284Y636D02*
X1317Y636D01*
X1334Y636D02*
X1358Y636D01*
X1371Y636D02*
X1378Y636D01*
X0Y635D02*
X7Y635D01*
X1036Y635D02*
X1069Y635D01*
X1087Y635D02*
X1111Y635D01*
X1284Y635D02*
X1317Y635D01*
X1333Y635D02*
X1357Y635D01*
X1371Y635D02*
X1378Y635D01*
X0Y634D02*
X7Y634D01*
X1037Y634D02*
X1070Y634D01*
X1087Y634D02*
X1110Y634D01*
X1285Y634D02*
X1317Y634D01*
X1334Y634D02*
X1356Y634D01*
X1371Y634D02*
X1378Y634D01*
X0Y633D02*
X7Y633D01*
X1037Y633D02*
X1070Y633D01*
X1087Y633D02*
X1110Y633D01*
X1286Y633D02*
X1316Y633D01*
X1334Y633D02*
X1355Y633D01*
X1371Y633D02*
X1378Y633D01*
X0Y632D02*
X7Y632D01*
X1038Y632D02*
X1070Y632D01*
X1087Y632D02*
X1109Y632D01*
X1287Y632D02*
X1315Y632D01*
X1335Y632D02*
X1352Y632D01*
X1371Y632D02*
X1378Y632D01*
X0Y631D02*
X7Y631D01*
X1039Y631D02*
X1069Y631D01*
X1087Y631D02*
X1107Y631D01*
X1371Y631D02*
X1378Y631D01*
X0Y630D02*
X7Y630D01*
X1041Y630D02*
X1068Y630D01*
X1089Y630D02*
X1105Y630D01*
X1371Y630D02*
X1378Y630D01*
X0Y629D02*
X7Y629D01*
X1371Y629D02*
X1378Y629D01*
X0Y628D02*
X7Y628D01*
X1371Y628D02*
X1378Y628D01*
X0Y627D02*
X7Y627D01*
X1371Y627D02*
X1378Y627D01*
X0Y626D02*
X7Y626D01*
X1371Y626D02*
X1378Y626D01*
X0Y625D02*
X7Y625D01*
X1371Y625D02*
X1378Y625D01*
X0Y624D02*
X7Y624D01*
X1371Y624D02*
X1378Y624D01*
X0Y623D02*
X7Y623D01*
X1371Y623D02*
X1378Y623D01*
X0Y622D02*
X7Y622D01*
X1371Y622D02*
X1378Y622D01*
X0Y621D02*
X7Y621D01*
X1371Y621D02*
X1378Y621D01*
X0Y620D02*
X7Y620D01*
X1371Y620D02*
X1378Y620D01*
X0Y619D02*
X7Y619D01*
X1371Y619D02*
X1378Y619D01*
X0Y618D02*
X7Y618D01*
X1371Y618D02*
X1378Y618D01*
X0Y617D02*
X7Y617D01*
X1371Y617D02*
X1378Y617D01*
X0Y616D02*
X7Y616D01*
X1371Y616D02*
X1378Y616D01*
X0Y615D02*
X7Y615D01*
X1371Y615D02*
X1378Y615D01*
X0Y614D02*
X7Y614D01*
X1371Y614D02*
X1378Y614D01*
X0Y613D02*
X7Y613D01*
X1371Y613D02*
X1378Y613D01*
X0Y612D02*
X7Y612D01*
X1371Y612D02*
X1378Y612D01*
X0Y611D02*
X7Y611D01*
X1371Y611D02*
X1378Y611D01*
X0Y610D02*
X7Y610D01*
X1371Y610D02*
X1378Y610D01*
X0Y609D02*
X7Y609D01*
X1371Y609D02*
X1378Y609D01*
X0Y608D02*
X7Y608D01*
X1371Y608D02*
X1378Y608D01*
X0Y607D02*
X7Y607D01*
X1371Y607D02*
X1378Y607D01*
X0Y606D02*
X7Y606D01*
X1371Y606D02*
X1378Y606D01*
X0Y605D02*
X7Y605D01*
X1371Y605D02*
X1378Y605D01*
X0Y604D02*
X7Y604D01*
X1371Y604D02*
X1378Y604D01*
X0Y603D02*
X7Y603D01*
X1371Y603D02*
X1378Y603D01*
X0Y602D02*
X7Y602D01*
X1371Y602D02*
X1378Y602D01*
X0Y601D02*
X7Y601D01*
X1371Y601D02*
X1378Y601D01*
X0Y600D02*
X7Y600D01*
X1371Y600D02*
X1378Y600D01*
X0Y599D02*
X7Y599D01*
X1371Y599D02*
X1378Y599D01*
X0Y598D02*
X7Y598D01*
X1371Y598D02*
X1378Y598D01*
X0Y597D02*
X7Y597D01*
X1371Y597D02*
X1378Y597D01*
X0Y596D02*
X7Y596D01*
X1371Y596D02*
X1378Y596D01*
X0Y595D02*
X7Y595D01*
X1371Y595D02*
X1378Y595D01*
X0Y594D02*
X7Y594D01*
X1371Y594D02*
X1378Y594D01*
X0Y593D02*
X7Y593D01*
X1371Y593D02*
X1378Y593D01*
X0Y592D02*
X7Y592D01*
X1371Y592D02*
X1378Y592D01*
X0Y591D02*
X7Y591D01*
X1371Y591D02*
X1378Y591D01*
X0Y590D02*
X7Y590D01*
X1371Y590D02*
X1378Y590D01*
X0Y589D02*
X7Y589D01*
X1371Y589D02*
X1378Y589D01*
X0Y588D02*
X7Y588D01*
X1371Y588D02*
X1378Y588D01*
X0Y587D02*
X7Y587D01*
X1371Y587D02*
X1378Y587D01*
X0Y586D02*
X7Y586D01*
X1371Y586D02*
X1378Y586D01*
X0Y585D02*
X7Y585D01*
X1371Y585D02*
X1378Y585D01*
X0Y584D02*
X7Y584D01*
X1371Y584D02*
X1378Y584D01*
X0Y583D02*
X7Y583D01*
X1371Y583D02*
X1378Y583D01*
X0Y582D02*
X7Y582D01*
X1371Y582D02*
X1378Y582D01*
X0Y581D02*
X7Y581D01*
X1371Y581D02*
X1378Y581D01*
X0Y580D02*
X7Y580D01*
X1371Y580D02*
X1378Y580D01*
X0Y579D02*
X7Y579D01*
X1371Y579D02*
X1378Y579D01*
X0Y578D02*
X7Y578D01*
X1371Y578D02*
X1378Y578D01*
X0Y577D02*
X7Y577D01*
X1371Y577D02*
X1378Y577D01*
X0Y576D02*
X7Y576D01*
X536Y576D02*
X561Y576D01*
X1371Y576D02*
X1378Y576D01*
X0Y575D02*
X7Y575D01*
X535Y575D02*
X561Y575D01*
X1371Y575D02*
X1378Y575D01*
X0Y574D02*
X7Y574D01*
X534Y574D02*
X561Y574D01*
X584Y574D02*
X606Y574D01*
X1371Y574D02*
X1378Y574D01*
X0Y573D02*
X7Y573D01*
X534Y573D02*
X561Y573D01*
X584Y573D02*
X607Y573D01*
X1371Y573D02*
X1378Y573D01*
X0Y572D02*
X7Y572D01*
X534Y572D02*
X561Y572D01*
X584Y572D02*
X608Y572D01*
X1371Y572D02*
X1378Y572D01*
X0Y571D02*
X7Y571D01*
X535Y571D02*
X561Y571D01*
X585Y571D02*
X609Y571D01*
X1371Y571D02*
X1378Y571D01*
X0Y570D02*
X7Y570D01*
X536Y570D02*
X561Y570D01*
X586Y570D02*
X609Y570D01*
X1371Y570D02*
X1378Y570D01*
X0Y569D02*
X7Y569D01*
X555Y569D02*
X561Y569D01*
X602Y569D02*
X610Y569D01*
X1371Y569D02*
X1378Y569D01*
X0Y568D02*
X7Y568D01*
X555Y568D02*
X561Y568D01*
X603Y568D02*
X610Y568D01*
X1371Y568D02*
X1378Y568D01*
X0Y567D02*
X7Y567D01*
X555Y567D02*
X561Y567D01*
X604Y567D02*
X611Y567D01*
X1371Y567D02*
X1378Y567D01*
X0Y566D02*
X7Y566D01*
X555Y566D02*
X561Y566D01*
X604Y566D02*
X611Y566D01*
X1371Y566D02*
X1378Y566D01*
X0Y565D02*
X7Y565D01*
X555Y565D02*
X561Y565D01*
X605Y565D02*
X612Y565D01*
X1371Y565D02*
X1378Y565D01*
X0Y564D02*
X7Y564D01*
X555Y564D02*
X561Y564D01*
X605Y564D02*
X612Y564D01*
X1371Y564D02*
X1378Y564D01*
X0Y563D02*
X7Y563D01*
X555Y563D02*
X561Y563D01*
X606Y563D02*
X613Y563D01*
X1371Y563D02*
X1378Y563D01*
X0Y562D02*
X7Y562D01*
X555Y562D02*
X561Y562D01*
X606Y562D02*
X613Y562D01*
X1371Y562D02*
X1378Y562D01*
X0Y561D02*
X7Y561D01*
X555Y561D02*
X561Y561D01*
X607Y561D02*
X614Y561D01*
X1371Y561D02*
X1378Y561D01*
X0Y560D02*
X7Y560D01*
X555Y560D02*
X561Y560D01*
X607Y560D02*
X613Y560D01*
X1371Y560D02*
X1378Y560D01*
X0Y559D02*
X7Y559D01*
X555Y559D02*
X561Y559D01*
X608Y559D02*
X613Y559D01*
X1371Y559D02*
X1378Y559D01*
X0Y558D02*
X7Y558D01*
X555Y558D02*
X561Y558D01*
X608Y558D02*
X613Y558D01*
X1371Y558D02*
X1378Y558D01*
X0Y557D02*
X7Y557D01*
X555Y557D02*
X561Y557D01*
X609Y557D02*
X613Y557D01*
X1371Y557D02*
X1378Y557D01*
X0Y556D02*
X7Y556D01*
X555Y556D02*
X561Y556D01*
X609Y556D02*
X613Y556D01*
X1371Y556D02*
X1378Y556D01*
X0Y555D02*
X7Y555D01*
X555Y555D02*
X561Y555D01*
X610Y555D02*
X613Y555D01*
X1371Y555D02*
X1378Y555D01*
X0Y554D02*
X7Y554D01*
X555Y554D02*
X561Y554D01*
X610Y554D02*
X613Y554D01*
X1371Y554D02*
X1378Y554D01*
X0Y553D02*
X7Y553D01*
X554Y553D02*
X561Y553D01*
X611Y553D02*
X613Y553D01*
X1371Y553D02*
X1378Y553D01*
X0Y552D02*
X7Y552D01*
X538Y552D02*
X561Y552D01*
X611Y552D02*
X613Y552D01*
X1371Y552D02*
X1378Y552D01*
X0Y551D02*
X7Y551D01*
X536Y551D02*
X561Y551D01*
X612Y551D02*
X613Y551D01*
X1371Y551D02*
X1378Y551D01*
X0Y550D02*
X7Y550D01*
X535Y550D02*
X561Y550D01*
X612Y550D02*
X614Y550D01*
X1371Y550D02*
X1378Y550D01*
X0Y549D02*
X7Y549D01*
X535Y549D02*
X561Y549D01*
X612Y549D02*
X614Y549D01*
X1371Y549D02*
X1378Y549D01*
X0Y548D02*
X7Y548D01*
X534Y548D02*
X561Y548D01*
X612Y548D02*
X614Y548D01*
X1371Y548D02*
X1378Y548D01*
X0Y547D02*
X7Y547D01*
X534Y547D02*
X561Y547D01*
X611Y547D02*
X615Y547D01*
X1371Y547D02*
X1378Y547D01*
X0Y546D02*
X7Y546D01*
X534Y546D02*
X560Y546D01*
X611Y546D02*
X615Y546D01*
X1371Y546D02*
X1378Y546D01*
X0Y545D02*
X7Y545D01*
X534Y545D02*
X540Y545D01*
X611Y545D02*
X615Y545D01*
X1371Y545D02*
X1378Y545D01*
X0Y544D02*
X7Y544D01*
X534Y544D02*
X540Y544D01*
X610Y544D02*
X616Y544D01*
X1371Y544D02*
X1378Y544D01*
X0Y543D02*
X7Y543D01*
X534Y543D02*
X540Y543D01*
X610Y543D02*
X616Y543D01*
X1371Y543D02*
X1378Y543D01*
X0Y542D02*
X7Y542D01*
X534Y542D02*
X540Y542D01*
X609Y542D02*
X616Y542D01*
X1371Y542D02*
X1378Y542D01*
X0Y541D02*
X7Y541D01*
X534Y541D02*
X540Y541D01*
X609Y541D02*
X615Y541D01*
X1371Y541D02*
X1378Y541D01*
X0Y540D02*
X7Y540D01*
X534Y540D02*
X540Y540D01*
X608Y540D02*
X615Y540D01*
X1371Y540D02*
X1378Y540D01*
X0Y539D02*
X7Y539D01*
X534Y539D02*
X540Y539D01*
X608Y539D02*
X614Y539D01*
X1371Y539D02*
X1378Y539D01*
X0Y538D02*
X7Y538D01*
X534Y538D02*
X540Y538D01*
X607Y538D02*
X614Y538D01*
X1371Y538D02*
X1378Y538D01*
X0Y537D02*
X7Y537D01*
X534Y537D02*
X540Y537D01*
X607Y537D02*
X613Y537D01*
X1371Y537D02*
X1378Y537D01*
X0Y536D02*
X7Y536D01*
X534Y536D02*
X540Y536D01*
X606Y536D02*
X613Y536D01*
X1371Y536D02*
X1378Y536D01*
X0Y535D02*
X7Y535D01*
X534Y535D02*
X540Y535D01*
X606Y535D02*
X612Y535D01*
X1371Y535D02*
X1378Y535D01*
X0Y534D02*
X7Y534D01*
X534Y534D02*
X540Y534D01*
X605Y534D02*
X612Y534D01*
X1371Y534D02*
X1378Y534D01*
X0Y533D02*
X7Y533D01*
X534Y533D02*
X540Y533D01*
X605Y533D02*
X611Y533D01*
X1371Y533D02*
X1378Y533D01*
X0Y532D02*
X7Y532D01*
X534Y532D02*
X540Y532D01*
X564Y532D02*
X565Y532D01*
X604Y532D02*
X611Y532D01*
X1371Y532D02*
X1378Y532D01*
X0Y531D02*
X7Y531D01*
X534Y531D02*
X540Y531D01*
X561Y531D02*
X567Y531D01*
X603Y531D02*
X610Y531D01*
X1371Y531D02*
X1378Y531D01*
X0Y530D02*
X7Y530D01*
X534Y530D02*
X540Y530D01*
X559Y530D02*
X567Y530D01*
X603Y530D02*
X610Y530D01*
X1371Y530D02*
X1378Y530D01*
X0Y529D02*
X7Y529D01*
X534Y529D02*
X567Y529D01*
X586Y529D02*
X609Y529D01*
X1371Y529D02*
X1378Y529D01*
X0Y528D02*
X7Y528D01*
X534Y528D02*
X567Y528D01*
X585Y528D02*
X609Y528D01*
X1371Y528D02*
X1378Y528D01*
X0Y527D02*
X7Y527D01*
X534Y527D02*
X567Y527D01*
X584Y527D02*
X608Y527D01*
X1371Y527D02*
X1378Y527D01*
X0Y526D02*
X7Y526D01*
X535Y526D02*
X566Y526D01*
X584Y526D02*
X607Y526D01*
X1371Y526D02*
X1378Y526D01*
X0Y525D02*
X7Y525D01*
X536Y525D02*
X564Y525D01*
X584Y525D02*
X606Y525D01*
X1371Y525D02*
X1378Y525D01*
X0Y524D02*
X7Y524D01*
X536Y524D02*
X562Y524D01*
X585Y524D02*
X605Y524D01*
X1371Y524D02*
X1378Y524D01*
X0Y523D02*
X7Y523D01*
X538Y523D02*
X560Y523D01*
X586Y523D02*
X603Y523D01*
X1371Y523D02*
X1378Y523D01*
X0Y522D02*
X7Y522D01*
X1371Y522D02*
X1378Y522D01*
X0Y521D02*
X7Y521D01*
X1371Y521D02*
X1378Y521D01*
X0Y520D02*
X7Y520D01*
X1371Y520D02*
X1378Y520D01*
X0Y519D02*
X7Y519D01*
X1371Y519D02*
X1378Y519D01*
X0Y518D02*
X7Y518D01*
X1371Y518D02*
X1378Y518D01*
X0Y517D02*
X7Y517D01*
X1371Y517D02*
X1378Y517D01*
X0Y516D02*
X7Y516D01*
X1371Y516D02*
X1378Y516D01*
X0Y515D02*
X7Y515D01*
X1371Y515D02*
X1378Y515D01*
X0Y514D02*
X7Y514D01*
X1371Y514D02*
X1378Y514D01*
X0Y513D02*
X7Y513D01*
X315Y513D02*
X515Y513D01*
X1371Y513D02*
X1378Y513D01*
X0Y512D02*
X7Y512D01*
X315Y512D02*
X515Y512D01*
X1371Y512D02*
X1378Y512D01*
X0Y511D02*
X7Y511D01*
X315Y511D02*
X515Y511D01*
X1371Y511D02*
X1378Y511D01*
X0Y510D02*
X7Y510D01*
X315Y510D02*
X317Y510D01*
X391Y510D02*
X439Y510D01*
X513Y510D02*
X515Y510D01*
X1371Y510D02*
X1378Y510D01*
X0Y509D02*
X7Y509D01*
X315Y509D02*
X317Y509D01*
X513Y509D02*
X515Y509D01*
X1371Y509D02*
X1378Y509D01*
X0Y508D02*
X7Y508D01*
X315Y508D02*
X317Y508D01*
X513Y508D02*
X515Y508D01*
X1371Y508D02*
X1378Y508D01*
X0Y507D02*
X7Y507D01*
X315Y507D02*
X317Y507D01*
X513Y507D02*
X515Y507D01*
X1371Y507D02*
X1378Y507D01*
X0Y506D02*
X7Y506D01*
X315Y506D02*
X317Y506D01*
X513Y506D02*
X515Y506D01*
X1371Y506D02*
X1378Y506D01*
X0Y505D02*
X7Y505D01*
X315Y505D02*
X317Y505D01*
X513Y505D02*
X515Y505D01*
X1371Y505D02*
X1378Y505D01*
X0Y504D02*
X7Y504D01*
X315Y504D02*
X317Y504D01*
X513Y504D02*
X515Y504D01*
X1371Y504D02*
X1378Y504D01*
X0Y503D02*
X7Y503D01*
X315Y503D02*
X317Y503D01*
X513Y503D02*
X515Y503D01*
X1371Y503D02*
X1378Y503D01*
X0Y502D02*
X7Y502D01*
X315Y502D02*
X317Y502D01*
X513Y502D02*
X515Y502D01*
X1371Y502D02*
X1378Y502D01*
X0Y501D02*
X7Y501D01*
X315Y501D02*
X317Y501D01*
X513Y501D02*
X515Y501D01*
X1371Y501D02*
X1378Y501D01*
X0Y500D02*
X7Y500D01*
X315Y500D02*
X317Y500D01*
X513Y500D02*
X515Y500D01*
X1371Y500D02*
X1378Y500D01*
X0Y499D02*
X7Y499D01*
X315Y499D02*
X317Y499D01*
X513Y499D02*
X515Y499D01*
X1371Y499D02*
X1378Y499D01*
X0Y498D02*
X7Y498D01*
X315Y498D02*
X317Y498D01*
X513Y498D02*
X515Y498D01*
X1371Y498D02*
X1378Y498D01*
X0Y497D02*
X7Y497D01*
X315Y497D02*
X317Y497D01*
X513Y497D02*
X515Y497D01*
X1371Y497D02*
X1378Y497D01*
X0Y496D02*
X7Y496D01*
X315Y496D02*
X317Y496D01*
X513Y496D02*
X515Y496D01*
X1371Y496D02*
X1378Y496D01*
X0Y495D02*
X7Y495D01*
X315Y495D02*
X317Y495D01*
X513Y495D02*
X515Y495D01*
X1371Y495D02*
X1378Y495D01*
X0Y494D02*
X7Y494D01*
X315Y494D02*
X317Y494D01*
X513Y494D02*
X515Y494D01*
X1371Y494D02*
X1378Y494D01*
X0Y493D02*
X7Y493D01*
X315Y493D02*
X317Y493D01*
X513Y493D02*
X515Y493D01*
X1371Y493D02*
X1378Y493D01*
X0Y492D02*
X7Y492D01*
X315Y492D02*
X317Y492D01*
X513Y492D02*
X515Y492D01*
X1371Y492D02*
X1378Y492D01*
X0Y491D02*
X7Y491D01*
X315Y491D02*
X317Y491D01*
X513Y491D02*
X515Y491D01*
X1371Y491D02*
X1378Y491D01*
X0Y490D02*
X7Y490D01*
X315Y490D02*
X317Y490D01*
X513Y490D02*
X515Y490D01*
X1371Y490D02*
X1378Y490D01*
X0Y489D02*
X7Y489D01*
X315Y489D02*
X317Y489D01*
X513Y489D02*
X515Y489D01*
X807Y489D02*
X839Y489D01*
X859Y489D02*
X876Y489D01*
X1371Y489D02*
X1378Y489D01*
X0Y488D02*
X7Y488D01*
X315Y488D02*
X317Y488D01*
X513Y488D02*
X515Y488D01*
X807Y488D02*
X840Y488D01*
X858Y488D02*
X879Y488D01*
X1371Y488D02*
X1378Y488D01*
X0Y487D02*
X7Y487D01*
X315Y487D02*
X317Y487D01*
X513Y487D02*
X515Y487D01*
X807Y487D02*
X841Y487D01*
X858Y487D02*
X880Y487D01*
X905Y487D02*
X908Y487D01*
X967Y487D02*
X970Y487D01*
X1371Y487D02*
X1378Y487D01*
X0Y486D02*
X7Y486D01*
X315Y486D02*
X317Y486D01*
X513Y486D02*
X515Y486D01*
X807Y486D02*
X841Y486D01*
X858Y486D02*
X881Y486D01*
X905Y486D02*
X908Y486D01*
X967Y486D02*
X970Y486D01*
X1371Y486D02*
X1378Y486D01*
X0Y485D02*
X7Y485D01*
X315Y485D02*
X317Y485D01*
X513Y485D02*
X515Y485D01*
X807Y485D02*
X841Y485D01*
X858Y485D02*
X882Y485D01*
X905Y485D02*
X908Y485D01*
X967Y485D02*
X970Y485D01*
X1371Y485D02*
X1378Y485D01*
X0Y484D02*
X7Y484D01*
X315Y484D02*
X317Y484D01*
X513Y484D02*
X515Y484D01*
X807Y484D02*
X841Y484D01*
X858Y484D02*
X882Y484D01*
X905Y484D02*
X908Y484D01*
X967Y484D02*
X970Y484D01*
X1371Y484D02*
X1378Y484D01*
X0Y483D02*
X7Y483D01*
X315Y483D02*
X317Y483D01*
X513Y483D02*
X515Y483D01*
X807Y483D02*
X841Y483D01*
X860Y483D02*
X883Y483D01*
X905Y483D02*
X908Y483D01*
X967Y483D02*
X970Y483D01*
X1371Y483D02*
X1378Y483D01*
X0Y482D02*
X7Y482D01*
X315Y482D02*
X317Y482D01*
X513Y482D02*
X515Y482D01*
X807Y482D02*
X813Y482D01*
X835Y482D02*
X841Y482D01*
X876Y482D02*
X883Y482D01*
X905Y482D02*
X908Y482D01*
X967Y482D02*
X970Y482D01*
X1371Y482D02*
X1378Y482D01*
X0Y481D02*
X7Y481D01*
X315Y481D02*
X317Y481D01*
X513Y481D02*
X515Y481D01*
X807Y481D02*
X813Y481D01*
X836Y481D02*
X840Y481D01*
X877Y481D02*
X884Y481D01*
X905Y481D02*
X908Y481D01*
X967Y481D02*
X970Y481D01*
X1371Y481D02*
X1378Y481D01*
X0Y480D02*
X7Y480D01*
X315Y480D02*
X317Y480D01*
X513Y480D02*
X515Y480D01*
X807Y480D02*
X813Y480D01*
X837Y480D02*
X839Y480D01*
X877Y480D02*
X884Y480D01*
X905Y480D02*
X908Y480D01*
X967Y480D02*
X970Y480D01*
X1371Y480D02*
X1378Y480D01*
X0Y479D02*
X7Y479D01*
X315Y479D02*
X317Y479D01*
X513Y479D02*
X515Y479D01*
X807Y479D02*
X813Y479D01*
X878Y479D02*
X885Y479D01*
X905Y479D02*
X908Y479D01*
X967Y479D02*
X970Y479D01*
X1371Y479D02*
X1378Y479D01*
X0Y478D02*
X7Y478D01*
X315Y478D02*
X317Y478D01*
X513Y478D02*
X515Y478D01*
X807Y478D02*
X813Y478D01*
X878Y478D02*
X885Y478D01*
X905Y478D02*
X908Y478D01*
X967Y478D02*
X970Y478D01*
X1371Y478D02*
X1378Y478D01*
X0Y477D02*
X7Y477D01*
X315Y477D02*
X317Y477D01*
X513Y477D02*
X515Y477D01*
X807Y477D02*
X813Y477D01*
X879Y477D02*
X886Y477D01*
X905Y477D02*
X908Y477D01*
X967Y477D02*
X970Y477D01*
X1371Y477D02*
X1378Y477D01*
X0Y476D02*
X7Y476D01*
X315Y476D02*
X317Y476D01*
X513Y476D02*
X515Y476D01*
X807Y476D02*
X813Y476D01*
X879Y476D02*
X886Y476D01*
X905Y476D02*
X908Y476D01*
X967Y476D02*
X970Y476D01*
X1371Y476D02*
X1378Y476D01*
X0Y475D02*
X7Y475D01*
X315Y475D02*
X317Y475D01*
X513Y475D02*
X515Y475D01*
X807Y475D02*
X813Y475D01*
X880Y475D02*
X887Y475D01*
X905Y475D02*
X908Y475D01*
X967Y475D02*
X970Y475D01*
X1371Y475D02*
X1378Y475D01*
X0Y474D02*
X7Y474D01*
X315Y474D02*
X317Y474D01*
X513Y474D02*
X515Y474D01*
X807Y474D02*
X813Y474D01*
X881Y474D02*
X887Y474D01*
X905Y474D02*
X908Y474D01*
X967Y474D02*
X970Y474D01*
X1371Y474D02*
X1378Y474D01*
X0Y473D02*
X7Y473D01*
X315Y473D02*
X317Y473D01*
X513Y473D02*
X515Y473D01*
X807Y473D02*
X813Y473D01*
X881Y473D02*
X888Y473D01*
X905Y473D02*
X908Y473D01*
X967Y473D02*
X970Y473D01*
X1371Y473D02*
X1378Y473D01*
X0Y472D02*
X7Y472D01*
X315Y472D02*
X317Y472D01*
X513Y472D02*
X515Y472D01*
X807Y472D02*
X813Y472D01*
X882Y472D02*
X888Y472D01*
X905Y472D02*
X908Y472D01*
X967Y472D02*
X970Y472D01*
X1371Y472D02*
X1378Y472D01*
X0Y471D02*
X7Y471D01*
X315Y471D02*
X317Y471D01*
X513Y471D02*
X515Y471D01*
X807Y471D02*
X813Y471D01*
X882Y471D02*
X889Y471D01*
X905Y471D02*
X908Y471D01*
X967Y471D02*
X970Y471D01*
X1371Y471D02*
X1378Y471D01*
X0Y470D02*
X7Y470D01*
X315Y470D02*
X317Y470D01*
X513Y470D02*
X515Y470D01*
X807Y470D02*
X814Y470D01*
X883Y470D02*
X889Y470D01*
X905Y470D02*
X908Y470D01*
X967Y470D02*
X970Y470D01*
X1371Y470D02*
X1378Y470D01*
X0Y469D02*
X7Y469D01*
X315Y469D02*
X317Y469D01*
X513Y469D02*
X515Y469D01*
X807Y469D02*
X815Y469D01*
X883Y469D02*
X890Y469D01*
X905Y469D02*
X908Y469D01*
X967Y469D02*
X970Y469D01*
X1371Y469D02*
X1378Y469D01*
X0Y468D02*
X7Y468D01*
X315Y468D02*
X317Y468D01*
X513Y468D02*
X515Y468D01*
X808Y468D02*
X816Y468D01*
X884Y468D02*
X890Y468D01*
X905Y468D02*
X908Y468D01*
X967Y468D02*
X970Y468D01*
X1371Y468D02*
X1378Y468D01*
X0Y467D02*
X7Y467D01*
X315Y467D02*
X317Y467D01*
X513Y467D02*
X515Y467D01*
X808Y467D02*
X817Y467D01*
X884Y467D02*
X890Y467D01*
X905Y467D02*
X908Y467D01*
X967Y467D02*
X970Y467D01*
X1371Y467D02*
X1378Y467D01*
X0Y466D02*
X7Y466D01*
X315Y466D02*
X317Y466D01*
X513Y466D02*
X515Y466D01*
X808Y466D02*
X818Y466D01*
X884Y466D02*
X891Y466D01*
X905Y466D02*
X908Y466D01*
X967Y466D02*
X970Y466D01*
X1371Y466D02*
X1378Y466D01*
X0Y465D02*
X7Y465D01*
X315Y465D02*
X317Y465D01*
X513Y465D02*
X515Y465D01*
X810Y465D02*
X819Y465D01*
X885Y465D02*
X891Y465D01*
X905Y465D02*
X908Y465D01*
X967Y465D02*
X970Y465D01*
X1371Y465D02*
X1378Y465D01*
X0Y464D02*
X7Y464D01*
X315Y464D02*
X317Y464D01*
X513Y464D02*
X515Y464D01*
X811Y464D02*
X821Y464D01*
X885Y464D02*
X891Y464D01*
X905Y464D02*
X908Y464D01*
X967Y464D02*
X970Y464D01*
X1371Y464D02*
X1378Y464D01*
X0Y463D02*
X7Y463D01*
X315Y463D02*
X317Y463D01*
X513Y463D02*
X515Y463D01*
X812Y463D02*
X822Y463D01*
X885Y463D02*
X891Y463D01*
X905Y463D02*
X908Y463D01*
X967Y463D02*
X970Y463D01*
X1371Y463D02*
X1378Y463D01*
X0Y462D02*
X7Y462D01*
X315Y462D02*
X317Y462D01*
X513Y462D02*
X515Y462D01*
X813Y462D02*
X823Y462D01*
X885Y462D02*
X891Y462D01*
X905Y462D02*
X908Y462D01*
X967Y462D02*
X970Y462D01*
X1371Y462D02*
X1378Y462D01*
X0Y461D02*
X7Y461D01*
X315Y461D02*
X317Y461D01*
X513Y461D02*
X515Y461D01*
X814Y461D02*
X824Y461D01*
X885Y461D02*
X891Y461D01*
X905Y461D02*
X908Y461D01*
X967Y461D02*
X970Y461D01*
X1371Y461D02*
X1378Y461D01*
X0Y460D02*
X7Y460D01*
X315Y460D02*
X317Y460D01*
X513Y460D02*
X515Y460D01*
X815Y460D02*
X825Y460D01*
X885Y460D02*
X891Y460D01*
X905Y460D02*
X908Y460D01*
X967Y460D02*
X970Y460D01*
X1371Y460D02*
X1378Y460D01*
X0Y459D02*
X7Y459D01*
X315Y459D02*
X317Y459D01*
X513Y459D02*
X515Y459D01*
X817Y459D02*
X826Y459D01*
X884Y459D02*
X891Y459D01*
X905Y459D02*
X908Y459D01*
X967Y459D02*
X970Y459D01*
X1371Y459D02*
X1378Y459D01*
X0Y458D02*
X7Y458D01*
X315Y458D02*
X317Y458D01*
X513Y458D02*
X515Y458D01*
X818Y458D02*
X827Y458D01*
X884Y458D02*
X890Y458D01*
X905Y458D02*
X908Y458D01*
X967Y458D02*
X970Y458D01*
X1371Y458D02*
X1378Y458D01*
X0Y457D02*
X7Y457D01*
X315Y457D02*
X317Y457D01*
X513Y457D02*
X515Y457D01*
X819Y457D02*
X827Y457D01*
X884Y457D02*
X890Y457D01*
X905Y457D02*
X908Y457D01*
X967Y457D02*
X970Y457D01*
X1371Y457D02*
X1378Y457D01*
X0Y456D02*
X7Y456D01*
X315Y456D02*
X317Y456D01*
X513Y456D02*
X515Y456D01*
X820Y456D02*
X827Y456D01*
X883Y456D02*
X890Y456D01*
X905Y456D02*
X908Y456D01*
X967Y456D02*
X970Y456D01*
X1371Y456D02*
X1378Y456D01*
X0Y455D02*
X7Y455D01*
X315Y455D02*
X317Y455D01*
X513Y455D02*
X515Y455D01*
X821Y455D02*
X827Y455D01*
X883Y455D02*
X889Y455D01*
X905Y455D02*
X908Y455D01*
X967Y455D02*
X970Y455D01*
X1371Y455D02*
X1378Y455D01*
X0Y454D02*
X7Y454D01*
X315Y454D02*
X317Y454D01*
X513Y454D02*
X515Y454D01*
X821Y454D02*
X827Y454D01*
X882Y454D02*
X889Y454D01*
X905Y454D02*
X908Y454D01*
X967Y454D02*
X970Y454D01*
X1371Y454D02*
X1378Y454D01*
X0Y453D02*
X7Y453D01*
X315Y453D02*
X317Y453D01*
X513Y453D02*
X515Y453D01*
X821Y453D02*
X827Y453D01*
X882Y453D02*
X888Y453D01*
X905Y453D02*
X908Y453D01*
X967Y453D02*
X970Y453D01*
X1371Y453D02*
X1378Y453D01*
X0Y452D02*
X7Y452D01*
X315Y452D02*
X317Y452D01*
X513Y452D02*
X515Y452D01*
X821Y452D02*
X827Y452D01*
X881Y452D02*
X888Y452D01*
X905Y452D02*
X908Y452D01*
X967Y452D02*
X970Y452D01*
X1371Y452D02*
X1378Y452D01*
X0Y451D02*
X7Y451D01*
X315Y451D02*
X317Y451D01*
X513Y451D02*
X515Y451D01*
X821Y451D02*
X827Y451D01*
X880Y451D02*
X887Y451D01*
X905Y451D02*
X908Y451D01*
X967Y451D02*
X970Y451D01*
X1371Y451D02*
X1378Y451D01*
X0Y450D02*
X7Y450D01*
X315Y450D02*
X317Y450D01*
X513Y450D02*
X515Y450D01*
X821Y450D02*
X827Y450D01*
X880Y450D02*
X887Y450D01*
X1371Y450D02*
X1378Y450D01*
X0Y449D02*
X7Y449D01*
X315Y449D02*
X317Y449D01*
X513Y449D02*
X515Y449D01*
X821Y449D02*
X827Y449D01*
X879Y449D02*
X886Y449D01*
X1371Y449D02*
X1378Y449D01*
X0Y448D02*
X7Y448D01*
X315Y448D02*
X317Y448D01*
X513Y448D02*
X515Y448D01*
X821Y448D02*
X827Y448D01*
X879Y448D02*
X886Y448D01*
X1371Y448D02*
X1378Y448D01*
X0Y447D02*
X7Y447D01*
X315Y447D02*
X317Y447D01*
X513Y447D02*
X515Y447D01*
X821Y447D02*
X827Y447D01*
X878Y447D02*
X885Y447D01*
X1371Y447D02*
X1378Y447D01*
X0Y446D02*
X7Y446D01*
X315Y446D02*
X317Y446D01*
X513Y446D02*
X515Y446D01*
X821Y446D02*
X827Y446D01*
X878Y446D02*
X885Y446D01*
X1371Y446D02*
X1378Y446D01*
X0Y445D02*
X7Y445D01*
X315Y445D02*
X317Y445D01*
X513Y445D02*
X515Y445D01*
X821Y445D02*
X827Y445D01*
X877Y445D02*
X884Y445D01*
X1371Y445D02*
X1378Y445D01*
X0Y444D02*
X7Y444D01*
X315Y444D02*
X317Y444D01*
X513Y444D02*
X515Y444D01*
X821Y444D02*
X827Y444D01*
X877Y444D02*
X884Y444D01*
X1371Y444D02*
X1378Y444D01*
X0Y443D02*
X7Y443D01*
X315Y443D02*
X317Y443D01*
X513Y443D02*
X515Y443D01*
X821Y443D02*
X827Y443D01*
X876Y443D02*
X883Y443D01*
X1371Y443D02*
X1378Y443D01*
X0Y442D02*
X7Y442D01*
X315Y442D02*
X317Y442D01*
X513Y442D02*
X515Y442D01*
X821Y442D02*
X827Y442D01*
X860Y442D02*
X883Y442D01*
X1371Y442D02*
X1378Y442D01*
X0Y441D02*
X7Y441D01*
X315Y441D02*
X317Y441D01*
X513Y441D02*
X515Y441D01*
X821Y441D02*
X827Y441D01*
X858Y441D02*
X882Y441D01*
X1371Y441D02*
X1378Y441D01*
X0Y440D02*
X7Y440D01*
X315Y440D02*
X317Y440D01*
X513Y440D02*
X515Y440D01*
X821Y440D02*
X827Y440D01*
X858Y440D02*
X882Y440D01*
X1371Y440D02*
X1378Y440D01*
X0Y439D02*
X7Y439D01*
X315Y439D02*
X317Y439D01*
X513Y439D02*
X515Y439D01*
X821Y439D02*
X827Y439D01*
X858Y439D02*
X881Y439D01*
X1371Y439D02*
X1378Y439D01*
X0Y438D02*
X7Y438D01*
X315Y438D02*
X317Y438D01*
X513Y438D02*
X515Y438D01*
X821Y438D02*
X827Y438D01*
X858Y438D02*
X880Y438D01*
X1371Y438D02*
X1378Y438D01*
X0Y437D02*
X7Y437D01*
X315Y437D02*
X317Y437D01*
X513Y437D02*
X515Y437D01*
X822Y437D02*
X827Y437D01*
X858Y437D02*
X878Y437D01*
X1371Y437D02*
X1378Y437D01*
X0Y436D02*
X7Y436D01*
X315Y436D02*
X317Y436D01*
X513Y436D02*
X515Y436D01*
X823Y436D02*
X825Y436D01*
X859Y436D02*
X876Y436D01*
X1371Y436D02*
X1378Y436D01*
X0Y435D02*
X7Y435D01*
X315Y435D02*
X317Y435D01*
X513Y435D02*
X515Y435D01*
X1371Y435D02*
X1378Y435D01*
X0Y434D02*
X7Y434D01*
X315Y434D02*
X317Y434D01*
X513Y434D02*
X515Y434D01*
X1371Y434D02*
X1378Y434D01*
X0Y433D02*
X7Y433D01*
X315Y433D02*
X317Y433D01*
X513Y433D02*
X515Y433D01*
X1371Y433D02*
X1378Y433D01*
X0Y432D02*
X7Y432D01*
X315Y432D02*
X317Y432D01*
X513Y432D02*
X515Y432D01*
X1371Y432D02*
X1378Y432D01*
X0Y431D02*
X7Y431D01*
X315Y431D02*
X317Y431D01*
X513Y431D02*
X515Y431D01*
X1371Y431D02*
X1378Y431D01*
X0Y430D02*
X7Y430D01*
X315Y430D02*
X317Y430D01*
X513Y430D02*
X515Y430D01*
X1371Y430D02*
X1378Y430D01*
X0Y429D02*
X7Y429D01*
X315Y429D02*
X317Y429D01*
X513Y429D02*
X515Y429D01*
X1371Y429D02*
X1378Y429D01*
X0Y428D02*
X7Y428D01*
X315Y428D02*
X317Y428D01*
X513Y428D02*
X515Y428D01*
X1371Y428D02*
X1378Y428D01*
X0Y427D02*
X7Y427D01*
X315Y427D02*
X317Y427D01*
X391Y427D02*
X439Y427D01*
X513Y427D02*
X515Y427D01*
X1371Y427D02*
X1378Y427D01*
X0Y426D02*
X7Y426D01*
X315Y426D02*
X515Y426D01*
X1371Y426D02*
X1378Y426D01*
X0Y425D02*
X7Y425D01*
X315Y425D02*
X515Y425D01*
X1371Y425D02*
X1378Y425D01*
X0Y424D02*
X7Y424D01*
X315Y424D02*
X515Y424D01*
X1371Y424D02*
X1378Y424D01*
X0Y423D02*
X7Y423D01*
X1371Y423D02*
X1378Y423D01*
X0Y422D02*
X7Y422D01*
X1371Y422D02*
X1378Y422D01*
X0Y421D02*
X7Y421D01*
X1371Y421D02*
X1378Y421D01*
X0Y420D02*
X7Y420D01*
X1371Y420D02*
X1378Y420D01*
X0Y419D02*
X7Y419D01*
X1371Y419D02*
X1378Y419D01*
X0Y418D02*
X7Y418D01*
X1371Y418D02*
X1378Y418D01*
X0Y417D02*
X7Y417D01*
X1371Y417D02*
X1378Y417D01*
X0Y416D02*
X7Y416D01*
X1371Y416D02*
X1378Y416D01*
X0Y415D02*
X7Y415D01*
X1371Y415D02*
X1378Y415D01*
X0Y414D02*
X7Y414D01*
X1371Y414D02*
X1378Y414D01*
X0Y413D02*
X7Y413D01*
X357Y413D02*
X383Y413D01*
X416Y413D02*
X433Y413D01*
X461Y413D02*
X486Y413D01*
X1371Y413D02*
X1378Y413D01*
X0Y412D02*
X7Y412D01*
X355Y412D02*
X385Y412D01*
X416Y412D02*
X435Y412D01*
X458Y412D02*
X486Y412D01*
X1371Y412D02*
X1378Y412D01*
X0Y411D02*
X7Y411D01*
X354Y411D02*
X385Y411D01*
X416Y411D02*
X435Y411D01*
X457Y411D02*
X486Y411D01*
X1371Y411D02*
X1378Y411D01*
X0Y410D02*
X7Y410D01*
X353Y410D02*
X385Y410D01*
X416Y410D02*
X436Y410D01*
X455Y410D02*
X486Y410D01*
X1371Y410D02*
X1378Y410D01*
X0Y409D02*
X7Y409D01*
X353Y409D02*
X385Y409D01*
X416Y409D02*
X436Y409D01*
X455Y409D02*
X486Y409D01*
X1371Y409D02*
X1378Y409D01*
X0Y408D02*
X7Y408D01*
X352Y408D02*
X385Y408D01*
X416Y408D02*
X435Y408D01*
X454Y408D02*
X486Y408D01*
X1371Y408D02*
X1378Y408D01*
X0Y407D02*
X7Y407D01*
X352Y407D02*
X384Y407D01*
X416Y407D02*
X434Y407D01*
X453Y407D02*
X486Y407D01*
X1371Y407D02*
X1378Y407D01*
X0Y406D02*
X7Y406D01*
X352Y406D02*
X358Y406D01*
X416Y406D02*
X422Y406D01*
X453Y406D02*
X461Y406D01*
X480Y406D02*
X486Y406D01*
X1371Y406D02*
X1378Y406D01*
X0Y405D02*
X7Y405D01*
X352Y405D02*
X358Y405D01*
X416Y405D02*
X422Y405D01*
X453Y405D02*
X459Y405D01*
X480Y405D02*
X486Y405D01*
X1371Y405D02*
X1378Y405D01*
X0Y404D02*
X7Y404D01*
X352Y404D02*
X358Y404D01*
X416Y404D02*
X422Y404D01*
X452Y404D02*
X459Y404D01*
X480Y404D02*
X486Y404D01*
X1371Y404D02*
X1378Y404D01*
X0Y403D02*
X7Y403D01*
X352Y403D02*
X358Y403D01*
X416Y403D02*
X422Y403D01*
X452Y403D02*
X458Y403D01*
X480Y403D02*
X486Y403D01*
X1371Y403D02*
X1378Y403D01*
X0Y402D02*
X7Y402D01*
X352Y402D02*
X358Y402D01*
X416Y402D02*
X422Y402D01*
X452Y402D02*
X458Y402D01*
X480Y402D02*
X486Y402D01*
X1371Y402D02*
X1378Y402D01*
X0Y401D02*
X7Y401D01*
X352Y401D02*
X358Y401D01*
X416Y401D02*
X422Y401D01*
X452Y401D02*
X458Y401D01*
X480Y401D02*
X486Y401D01*
X1371Y401D02*
X1378Y401D01*
X0Y400D02*
X7Y400D01*
X352Y400D02*
X358Y400D01*
X416Y400D02*
X422Y400D01*
X452Y400D02*
X458Y400D01*
X480Y400D02*
X486Y400D01*
X1371Y400D02*
X1378Y400D01*
X0Y399D02*
X7Y399D01*
X352Y399D02*
X358Y399D01*
X416Y399D02*
X422Y399D01*
X452Y399D02*
X458Y399D01*
X480Y399D02*
X486Y399D01*
X1371Y399D02*
X1378Y399D01*
X0Y398D02*
X7Y398D01*
X352Y398D02*
X358Y398D01*
X416Y398D02*
X422Y398D01*
X452Y398D02*
X459Y398D01*
X480Y398D02*
X486Y398D01*
X1371Y398D02*
X1378Y398D01*
X0Y397D02*
X7Y397D01*
X352Y397D02*
X358Y397D01*
X416Y397D02*
X422Y397D01*
X453Y397D02*
X459Y397D01*
X480Y397D02*
X486Y397D01*
X1371Y397D02*
X1378Y397D01*
X0Y396D02*
X7Y396D01*
X352Y396D02*
X358Y396D01*
X416Y396D02*
X422Y396D01*
X453Y396D02*
X460Y396D01*
X480Y396D02*
X486Y396D01*
X1371Y396D02*
X1378Y396D01*
X0Y395D02*
X7Y395D01*
X352Y395D02*
X358Y395D01*
X416Y395D02*
X422Y395D01*
X453Y395D02*
X486Y395D01*
X1371Y395D02*
X1378Y395D01*
X0Y394D02*
X7Y394D01*
X352Y394D02*
X358Y394D01*
X416Y394D02*
X422Y394D01*
X454Y394D02*
X486Y394D01*
X1371Y394D02*
X1378Y394D01*
X0Y393D02*
X7Y393D01*
X352Y393D02*
X358Y393D01*
X416Y393D02*
X422Y393D01*
X454Y393D02*
X486Y393D01*
X1371Y393D02*
X1378Y393D01*
X0Y392D02*
X7Y392D01*
X352Y392D02*
X358Y392D01*
X416Y392D02*
X422Y392D01*
X455Y392D02*
X486Y392D01*
X1371Y392D02*
X1378Y392D01*
X0Y391D02*
X7Y391D01*
X352Y391D02*
X359Y391D01*
X416Y391D02*
X422Y391D01*
X456Y391D02*
X486Y391D01*
X1371Y391D02*
X1378Y391D01*
X0Y390D02*
X7Y390D01*
X352Y390D02*
X360Y390D01*
X416Y390D02*
X422Y390D01*
X458Y390D02*
X486Y390D01*
X1371Y390D02*
X1378Y390D01*
X0Y389D02*
X7Y389D01*
X353Y389D02*
X377Y389D01*
X416Y389D02*
X422Y389D01*
X460Y389D02*
X486Y389D01*
X1371Y389D02*
X1378Y389D01*
X0Y388D02*
X7Y388D01*
X353Y388D02*
X378Y388D01*
X416Y388D02*
X422Y388D01*
X467Y388D02*
X474Y388D01*
X480Y388D02*
X486Y388D01*
X1371Y388D02*
X1378Y388D01*
X0Y387D02*
X7Y387D01*
X354Y387D02*
X379Y387D01*
X416Y387D02*
X422Y387D01*
X466Y387D02*
X473Y387D01*
X480Y387D02*
X486Y387D01*
X1371Y387D02*
X1378Y387D01*
X0Y386D02*
X7Y386D01*
X355Y386D02*
X379Y386D01*
X416Y386D02*
X422Y386D01*
X465Y386D02*
X473Y386D01*
X480Y386D02*
X486Y386D01*
X1371Y386D02*
X1378Y386D01*
X0Y385D02*
X7Y385D01*
X354Y385D02*
X378Y385D01*
X416Y385D02*
X422Y385D01*
X465Y385D02*
X472Y385D01*
X480Y385D02*
X486Y385D01*
X1371Y385D02*
X1378Y385D01*
X0Y384D02*
X7Y384D01*
X353Y384D02*
X378Y384D01*
X416Y384D02*
X422Y384D01*
X464Y384D02*
X471Y384D01*
X480Y384D02*
X486Y384D01*
X1371Y384D02*
X1378Y384D01*
X0Y383D02*
X7Y383D01*
X353Y383D02*
X376Y383D01*
X404Y383D02*
X407Y383D01*
X416Y383D02*
X422Y383D01*
X464Y383D02*
X471Y383D01*
X480Y383D02*
X486Y383D01*
X1371Y383D02*
X1378Y383D01*
X0Y382D02*
X7Y382D01*
X352Y382D02*
X360Y382D01*
X403Y382D02*
X408Y382D01*
X416Y382D02*
X422Y382D01*
X463Y382D02*
X470Y382D01*
X480Y382D02*
X486Y382D01*
X1371Y382D02*
X1378Y382D01*
X0Y381D02*
X7Y381D01*
X352Y381D02*
X359Y381D01*
X402Y381D02*
X408Y381D01*
X416Y381D02*
X422Y381D01*
X463Y381D02*
X470Y381D01*
X480Y381D02*
X486Y381D01*
X1371Y381D02*
X1378Y381D01*
X0Y380D02*
X7Y380D01*
X352Y380D02*
X358Y380D01*
X402Y380D02*
X408Y380D01*
X416Y380D02*
X422Y380D01*
X462Y380D02*
X469Y380D01*
X480Y380D02*
X486Y380D01*
X1371Y380D02*
X1378Y380D01*
X0Y379D02*
X7Y379D01*
X352Y379D02*
X358Y379D01*
X402Y379D02*
X408Y379D01*
X416Y379D02*
X422Y379D01*
X461Y379D02*
X469Y379D01*
X480Y379D02*
X486Y379D01*
X1371Y379D02*
X1378Y379D01*
X0Y378D02*
X7Y378D01*
X352Y378D02*
X358Y378D01*
X402Y378D02*
X408Y378D01*
X416Y378D02*
X422Y378D01*
X461Y378D02*
X468Y378D01*
X480Y378D02*
X486Y378D01*
X1371Y378D02*
X1378Y378D01*
X0Y377D02*
X7Y377D01*
X352Y377D02*
X358Y377D01*
X402Y377D02*
X408Y377D01*
X416Y377D02*
X422Y377D01*
X460Y377D02*
X467Y377D01*
X480Y377D02*
X486Y377D01*
X1371Y377D02*
X1378Y377D01*
X0Y376D02*
X7Y376D01*
X352Y376D02*
X358Y376D01*
X402Y376D02*
X408Y376D01*
X416Y376D02*
X422Y376D01*
X460Y376D02*
X467Y376D01*
X480Y376D02*
X486Y376D01*
X1371Y376D02*
X1378Y376D01*
X0Y375D02*
X7Y375D01*
X352Y375D02*
X358Y375D01*
X402Y375D02*
X408Y375D01*
X416Y375D02*
X422Y375D01*
X459Y375D02*
X466Y375D01*
X480Y375D02*
X486Y375D01*
X1371Y375D02*
X1378Y375D01*
X0Y374D02*
X7Y374D01*
X352Y374D02*
X358Y374D01*
X402Y374D02*
X408Y374D01*
X416Y374D02*
X422Y374D01*
X458Y374D02*
X466Y374D01*
X480Y374D02*
X486Y374D01*
X1371Y374D02*
X1378Y374D01*
X0Y373D02*
X7Y373D01*
X352Y373D02*
X358Y373D01*
X402Y373D02*
X408Y373D01*
X416Y373D02*
X422Y373D01*
X458Y373D02*
X465Y373D01*
X480Y373D02*
X486Y373D01*
X1371Y373D02*
X1378Y373D01*
X0Y372D02*
X7Y372D01*
X352Y372D02*
X358Y372D01*
X402Y372D02*
X408Y372D01*
X416Y372D02*
X422Y372D01*
X457Y372D02*
X464Y372D01*
X480Y372D02*
X486Y372D01*
X1371Y372D02*
X1378Y372D01*
X0Y371D02*
X7Y371D01*
X352Y371D02*
X358Y371D01*
X402Y371D02*
X408Y371D01*
X416Y371D02*
X422Y371D01*
X457Y371D02*
X464Y371D01*
X480Y371D02*
X486Y371D01*
X1371Y371D02*
X1378Y371D01*
X0Y370D02*
X7Y370D01*
X352Y370D02*
X358Y370D01*
X402Y370D02*
X408Y370D01*
X416Y370D02*
X422Y370D01*
X456Y370D02*
X463Y370D01*
X480Y370D02*
X486Y370D01*
X1371Y370D02*
X1378Y370D01*
X0Y369D02*
X7Y369D01*
X352Y369D02*
X358Y369D01*
X402Y369D02*
X408Y369D01*
X416Y369D02*
X422Y369D01*
X456Y369D02*
X463Y369D01*
X480Y369D02*
X486Y369D01*
X1371Y369D02*
X1378Y369D01*
X0Y368D02*
X7Y368D01*
X352Y368D02*
X358Y368D01*
X402Y368D02*
X408Y368D01*
X416Y368D02*
X422Y368D01*
X455Y368D02*
X462Y368D01*
X480Y368D02*
X486Y368D01*
X1371Y368D02*
X1378Y368D01*
X0Y367D02*
X7Y367D01*
X352Y367D02*
X358Y367D01*
X402Y367D02*
X408Y367D01*
X416Y367D02*
X422Y367D01*
X454Y367D02*
X462Y367D01*
X480Y367D02*
X486Y367D01*
X1371Y367D02*
X1378Y367D01*
X0Y366D02*
X7Y366D01*
X352Y366D02*
X383Y366D01*
X402Y366D02*
X433Y366D01*
X454Y366D02*
X461Y366D01*
X480Y366D02*
X486Y366D01*
X1371Y366D02*
X1378Y366D01*
X0Y365D02*
X7Y365D01*
X352Y365D02*
X385Y365D01*
X402Y365D02*
X435Y365D01*
X453Y365D02*
X460Y365D01*
X480Y365D02*
X486Y365D01*
X1371Y365D02*
X1378Y365D01*
X0Y364D02*
X7Y364D01*
X352Y364D02*
X385Y364D01*
X402Y364D02*
X435Y364D01*
X453Y364D02*
X460Y364D01*
X480Y364D02*
X486Y364D01*
X1371Y364D02*
X1378Y364D01*
X0Y363D02*
X7Y363D01*
X353Y363D02*
X385Y363D01*
X402Y363D02*
X436Y363D01*
X452Y363D02*
X459Y363D01*
X480Y363D02*
X486Y363D01*
X1371Y363D02*
X1378Y363D01*
X0Y362D02*
X7Y362D01*
X353Y362D02*
X385Y362D01*
X402Y362D02*
X436Y362D01*
X452Y362D02*
X459Y362D01*
X480Y362D02*
X486Y362D01*
X1371Y362D02*
X1378Y362D01*
X0Y361D02*
X7Y361D01*
X354Y361D02*
X385Y361D01*
X403Y361D02*
X435Y361D01*
X453Y361D02*
X458Y361D01*
X480Y361D02*
X485Y361D01*
X1371Y361D02*
X1378Y361D01*
X0Y360D02*
X7Y360D01*
X356Y360D02*
X384Y360D01*
X403Y360D02*
X434Y360D01*
X454Y360D02*
X457Y360D01*
X481Y360D02*
X485Y360D01*
X1371Y360D02*
X1378Y360D01*
X0Y359D02*
X7Y359D01*
X1371Y359D02*
X1378Y359D01*
X0Y358D02*
X7Y358D01*
X1371Y358D02*
X1378Y358D01*
X0Y357D02*
X7Y357D01*
X1371Y357D02*
X1378Y357D01*
X0Y356D02*
X7Y356D01*
X1371Y356D02*
X1378Y356D01*
X0Y355D02*
X7Y355D01*
X1371Y355D02*
X1378Y355D01*
X0Y354D02*
X7Y354D01*
X1371Y354D02*
X1378Y354D01*
X0Y353D02*
X7Y353D01*
X1371Y353D02*
X1378Y353D01*
X0Y352D02*
X7Y352D01*
X1371Y352D02*
X1378Y352D01*
X0Y351D02*
X7Y351D01*
X1371Y351D02*
X1378Y351D01*
X0Y350D02*
X7Y350D01*
X1371Y350D02*
X1378Y350D01*
X0Y349D02*
X7Y349D01*
X1371Y349D02*
X1378Y349D01*
X0Y348D02*
X7Y348D01*
X1371Y348D02*
X1378Y348D01*
X0Y347D02*
X7Y347D01*
X1371Y347D02*
X1378Y347D01*
X0Y346D02*
X7Y346D01*
X1371Y346D02*
X1378Y346D01*
X0Y345D02*
X7Y345D01*
X1371Y345D02*
X1378Y345D01*
X0Y344D02*
X7Y344D01*
X1371Y344D02*
X1378Y344D01*
X0Y343D02*
X7Y343D01*
X25Y343D02*
X29Y343D01*
X145Y343D02*
X198Y343D01*
X1371Y343D02*
X1378Y343D01*
X0Y342D02*
X7Y342D01*
X24Y342D02*
X30Y342D01*
X146Y342D02*
X199Y342D01*
X1371Y342D02*
X1378Y342D01*
X0Y341D02*
X7Y341D01*
X24Y341D02*
X30Y341D01*
X146Y341D02*
X199Y341D01*
X1371Y341D02*
X1378Y341D01*
X0Y340D02*
X7Y340D01*
X23Y340D02*
X30Y340D01*
X146Y340D02*
X200Y340D01*
X1371Y340D02*
X1378Y340D01*
X0Y339D02*
X7Y339D01*
X23Y339D02*
X30Y339D01*
X146Y339D02*
X199Y339D01*
X1371Y339D02*
X1378Y339D01*
X0Y338D02*
X7Y338D01*
X23Y338D02*
X30Y338D01*
X146Y338D02*
X199Y338D01*
X1371Y338D02*
X1378Y338D01*
X0Y337D02*
X7Y337D01*
X23Y337D02*
X30Y337D01*
X146Y337D02*
X198Y337D01*
X1371Y337D02*
X1378Y337D01*
X0Y336D02*
X7Y336D01*
X23Y336D02*
X30Y336D01*
X147Y336D02*
X196Y336D01*
X1371Y336D02*
X1378Y336D01*
X0Y335D02*
X7Y335D01*
X23Y335D02*
X30Y335D01*
X1371Y335D02*
X1378Y335D01*
X0Y334D02*
X7Y334D01*
X23Y334D02*
X30Y334D01*
X1371Y334D02*
X1378Y334D01*
X0Y333D02*
X7Y333D01*
X23Y333D02*
X30Y333D01*
X1371Y333D02*
X1378Y333D01*
X0Y332D02*
X7Y332D01*
X23Y332D02*
X30Y332D01*
X1371Y332D02*
X1378Y332D01*
X0Y331D02*
X7Y331D01*
X23Y331D02*
X30Y331D01*
X1371Y331D02*
X1378Y331D01*
X0Y330D02*
X7Y330D01*
X23Y330D02*
X30Y330D01*
X1371Y330D02*
X1378Y330D01*
X0Y329D02*
X7Y329D01*
X23Y329D02*
X30Y329D01*
X1371Y329D02*
X1378Y329D01*
X0Y328D02*
X7Y328D01*
X23Y328D02*
X30Y328D01*
X1371Y328D02*
X1378Y328D01*
X0Y327D02*
X7Y327D01*
X23Y327D02*
X30Y327D01*
X1371Y327D02*
X1378Y327D01*
X0Y326D02*
X7Y326D01*
X23Y326D02*
X30Y326D01*
X1371Y326D02*
X1378Y326D01*
X0Y325D02*
X7Y325D01*
X23Y325D02*
X30Y325D01*
X1371Y325D02*
X1378Y325D01*
X0Y324D02*
X7Y324D01*
X23Y324D02*
X30Y324D01*
X1371Y324D02*
X1378Y324D01*
X0Y323D02*
X7Y323D01*
X23Y323D02*
X30Y323D01*
X1371Y323D02*
X1378Y323D01*
X0Y322D02*
X7Y322D01*
X23Y322D02*
X30Y322D01*
X1371Y322D02*
X1378Y322D01*
X0Y321D02*
X7Y321D01*
X23Y321D02*
X30Y321D01*
X1371Y321D02*
X1378Y321D01*
X0Y320D02*
X7Y320D01*
X23Y320D02*
X30Y320D01*
X1371Y320D02*
X1378Y320D01*
X0Y319D02*
X7Y319D01*
X23Y319D02*
X30Y319D01*
X1371Y319D02*
X1378Y319D01*
X0Y318D02*
X7Y318D01*
X23Y318D02*
X30Y318D01*
X1371Y318D02*
X1378Y318D01*
X0Y317D02*
X7Y317D01*
X23Y317D02*
X30Y317D01*
X1371Y317D02*
X1378Y317D01*
X0Y316D02*
X7Y316D01*
X23Y316D02*
X30Y316D01*
X1371Y316D02*
X1378Y316D01*
X0Y315D02*
X7Y315D01*
X23Y315D02*
X30Y315D01*
X1371Y315D02*
X1378Y315D01*
X0Y314D02*
X7Y314D01*
X23Y314D02*
X30Y314D01*
X1371Y314D02*
X1378Y314D01*
X0Y313D02*
X7Y313D01*
X23Y313D02*
X30Y313D01*
X1371Y313D02*
X1378Y313D01*
X0Y312D02*
X7Y312D01*
X23Y312D02*
X30Y312D01*
X1371Y312D02*
X1378Y312D01*
X0Y311D02*
X7Y311D01*
X23Y311D02*
X30Y311D01*
X1371Y311D02*
X1378Y311D01*
X0Y310D02*
X7Y310D01*
X23Y310D02*
X30Y310D01*
X1371Y310D02*
X1378Y310D01*
X0Y309D02*
X7Y309D01*
X23Y309D02*
X30Y309D01*
X1371Y309D02*
X1378Y309D01*
X0Y308D02*
X7Y308D01*
X23Y308D02*
X30Y308D01*
X1371Y308D02*
X1378Y308D01*
X0Y307D02*
X7Y307D01*
X23Y307D02*
X30Y307D01*
X1371Y307D02*
X1378Y307D01*
X0Y306D02*
X7Y306D01*
X23Y306D02*
X30Y306D01*
X1371Y306D02*
X1378Y306D01*
X0Y305D02*
X7Y305D01*
X23Y305D02*
X30Y305D01*
X1371Y305D02*
X1378Y305D01*
X0Y304D02*
X7Y304D01*
X23Y304D02*
X30Y304D01*
X1371Y304D02*
X1378Y304D01*
X0Y303D02*
X7Y303D01*
X23Y303D02*
X30Y303D01*
X1371Y303D02*
X1378Y303D01*
X0Y302D02*
X7Y302D01*
X23Y302D02*
X30Y302D01*
X1371Y302D02*
X1378Y302D01*
X0Y301D02*
X7Y301D01*
X23Y301D02*
X30Y301D01*
X1371Y301D02*
X1378Y301D01*
X0Y300D02*
X7Y300D01*
X23Y300D02*
X30Y300D01*
X1371Y300D02*
X1378Y300D01*
X0Y299D02*
X7Y299D01*
X23Y299D02*
X30Y299D01*
X1371Y299D02*
X1378Y299D01*
X0Y298D02*
X7Y298D01*
X23Y298D02*
X30Y298D01*
X1371Y298D02*
X1378Y298D01*
X0Y297D02*
X7Y297D01*
X23Y297D02*
X30Y297D01*
X1371Y297D02*
X1378Y297D01*
X0Y296D02*
X7Y296D01*
X23Y296D02*
X30Y296D01*
X1371Y296D02*
X1378Y296D01*
X0Y295D02*
X7Y295D01*
X23Y295D02*
X30Y295D01*
X1371Y295D02*
X1378Y295D01*
X0Y294D02*
X7Y294D01*
X23Y294D02*
X30Y294D01*
X1371Y294D02*
X1378Y294D01*
X0Y293D02*
X7Y293D01*
X23Y293D02*
X30Y293D01*
X1371Y293D02*
X1378Y293D01*
X0Y292D02*
X7Y292D01*
X23Y292D02*
X30Y292D01*
X1371Y292D02*
X1378Y292D01*
X0Y291D02*
X7Y291D01*
X23Y291D02*
X30Y291D01*
X1371Y291D02*
X1378Y291D01*
X0Y290D02*
X7Y290D01*
X23Y290D02*
X30Y290D01*
X1371Y290D02*
X1378Y290D01*
X0Y289D02*
X7Y289D01*
X23Y289D02*
X30Y289D01*
X1371Y289D02*
X1378Y289D01*
X0Y288D02*
X7Y288D01*
X23Y288D02*
X30Y288D01*
X1371Y288D02*
X1378Y288D01*
X0Y287D02*
X7Y287D01*
X23Y287D02*
X30Y287D01*
X1371Y287D02*
X1378Y287D01*
X0Y286D02*
X7Y286D01*
X23Y286D02*
X30Y286D01*
X1371Y286D02*
X1378Y286D01*
X0Y285D02*
X7Y285D01*
X23Y285D02*
X30Y285D01*
X1371Y285D02*
X1378Y285D01*
X0Y284D02*
X7Y284D01*
X23Y284D02*
X30Y284D01*
X1371Y284D02*
X1378Y284D01*
X0Y283D02*
X7Y283D01*
X23Y283D02*
X30Y283D01*
X1371Y283D02*
X1378Y283D01*
X0Y282D02*
X7Y282D01*
X23Y282D02*
X30Y282D01*
X1371Y282D02*
X1378Y282D01*
X0Y281D02*
X7Y281D01*
X23Y281D02*
X30Y281D01*
X1371Y281D02*
X1378Y281D01*
X0Y280D02*
X7Y280D01*
X23Y280D02*
X30Y280D01*
X1371Y280D02*
X1378Y280D01*
X0Y279D02*
X7Y279D01*
X23Y279D02*
X29Y279D01*
X1371Y279D02*
X1378Y279D01*
X0Y278D02*
X7Y278D01*
X23Y278D02*
X27Y278D01*
X1371Y278D02*
X1378Y278D01*
X0Y277D02*
X7Y277D01*
X23Y277D02*
X25Y277D01*
X1371Y277D02*
X1378Y277D01*
X0Y276D02*
X7Y276D01*
X23Y276D02*
X23Y276D01*
X1371Y276D02*
X1378Y276D01*
X0Y275D02*
X7Y275D01*
X1371Y275D02*
X1378Y275D01*
X0Y274D02*
X7Y274D01*
X1371Y274D02*
X1378Y274D01*
X0Y273D02*
X7Y273D01*
X1371Y273D02*
X1378Y273D01*
X0Y272D02*
X7Y272D01*
X1371Y272D02*
X1378Y272D01*
X0Y271D02*
X7Y271D01*
X1371Y271D02*
X1378Y271D01*
X0Y270D02*
X7Y270D01*
X1371Y270D02*
X1378Y270D01*
X0Y269D02*
X7Y269D01*
X1371Y269D02*
X1378Y269D01*
X0Y268D02*
X7Y268D01*
X1371Y268D02*
X1378Y268D01*
X0Y267D02*
X7Y267D01*
X1371Y267D02*
X1378Y267D01*
X0Y266D02*
X7Y266D01*
X1371Y266D02*
X1378Y266D01*
X0Y265D02*
X7Y265D01*
X1371Y265D02*
X1378Y265D01*
X0Y264D02*
X7Y264D01*
X1371Y264D02*
X1378Y264D01*
X0Y263D02*
X7Y263D01*
X1371Y263D02*
X1378Y263D01*
X0Y262D02*
X7Y262D01*
X1371Y262D02*
X1378Y262D01*
X0Y261D02*
X7Y261D01*
X1371Y261D02*
X1378Y261D01*
X0Y260D02*
X7Y260D01*
X1371Y260D02*
X1378Y260D01*
X0Y259D02*
X7Y259D01*
X1371Y259D02*
X1378Y259D01*
X0Y258D02*
X7Y258D01*
X1371Y258D02*
X1378Y258D01*
X0Y257D02*
X7Y257D01*
X1371Y257D02*
X1378Y257D01*
X0Y256D02*
X7Y256D01*
X1371Y256D02*
X1378Y256D01*
X0Y255D02*
X7Y255D01*
X1371Y255D02*
X1378Y255D01*
X0Y254D02*
X7Y254D01*
X1371Y254D02*
X1378Y254D01*
X0Y253D02*
X7Y253D01*
X1371Y253D02*
X1378Y253D01*
X0Y252D02*
X7Y252D01*
X1371Y252D02*
X1378Y252D01*
X0Y251D02*
X7Y251D01*
X1371Y251D02*
X1378Y251D01*
X0Y250D02*
X7Y250D01*
X1371Y250D02*
X1378Y250D01*
X0Y249D02*
X7Y249D01*
X1371Y249D02*
X1378Y249D01*
X0Y248D02*
X7Y248D01*
X1371Y248D02*
X1378Y248D01*
X0Y247D02*
X7Y247D01*
X1371Y247D02*
X1378Y247D01*
X0Y246D02*
X7Y246D01*
X1371Y246D02*
X1378Y246D01*
X0Y245D02*
X7Y245D01*
X1371Y245D02*
X1378Y245D01*
X0Y244D02*
X7Y244D01*
X1371Y244D02*
X1378Y244D01*
X0Y243D02*
X7Y243D01*
X1371Y243D02*
X1378Y243D01*
X0Y242D02*
X7Y242D01*
X1371Y242D02*
X1378Y242D01*
X0Y241D02*
X7Y241D01*
X1371Y241D02*
X1378Y241D01*
X0Y240D02*
X7Y240D01*
X1371Y240D02*
X1378Y240D01*
X0Y239D02*
X7Y239D01*
X1371Y239D02*
X1378Y239D01*
X0Y238D02*
X7Y238D01*
X1371Y238D02*
X1378Y238D01*
X0Y237D02*
X7Y237D01*
X1371Y237D02*
X1378Y237D01*
X0Y236D02*
X7Y236D01*
X23Y236D02*
X24Y236D01*
X1371Y236D02*
X1378Y236D01*
X0Y235D02*
X7Y235D01*
X23Y235D02*
X25Y235D01*
X1371Y235D02*
X1378Y235D01*
X0Y234D02*
X7Y234D01*
X23Y234D02*
X27Y234D01*
X1371Y234D02*
X1378Y234D01*
X0Y233D02*
X7Y233D01*
X23Y233D02*
X30Y233D01*
X1371Y233D02*
X1378Y233D01*
X0Y232D02*
X7Y232D01*
X23Y232D02*
X30Y232D01*
X1371Y232D02*
X1378Y232D01*
X0Y231D02*
X7Y231D01*
X23Y231D02*
X30Y231D01*
X1371Y231D02*
X1378Y231D01*
X0Y230D02*
X7Y230D01*
X23Y230D02*
X30Y230D01*
X1371Y230D02*
X1378Y230D01*
X0Y229D02*
X7Y229D01*
X23Y229D02*
X30Y229D01*
X1371Y229D02*
X1378Y229D01*
X0Y228D02*
X7Y228D01*
X23Y228D02*
X30Y228D01*
X1371Y228D02*
X1378Y228D01*
X0Y227D02*
X7Y227D01*
X23Y227D02*
X30Y227D01*
X1371Y227D02*
X1378Y227D01*
X0Y226D02*
X7Y226D01*
X23Y226D02*
X30Y226D01*
X1371Y226D02*
X1378Y226D01*
X0Y225D02*
X7Y225D01*
X23Y225D02*
X30Y225D01*
X1371Y225D02*
X1378Y225D01*
X0Y224D02*
X7Y224D01*
X23Y224D02*
X30Y224D01*
X1371Y224D02*
X1378Y224D01*
X0Y223D02*
X7Y223D01*
X23Y223D02*
X30Y223D01*
X1371Y223D02*
X1378Y223D01*
X0Y222D02*
X7Y222D01*
X23Y222D02*
X30Y222D01*
X1371Y222D02*
X1378Y222D01*
X0Y221D02*
X7Y221D01*
X23Y221D02*
X30Y221D01*
X1371Y221D02*
X1378Y221D01*
X0Y220D02*
X7Y220D01*
X23Y220D02*
X30Y220D01*
X1371Y220D02*
X1378Y220D01*
X0Y219D02*
X7Y219D01*
X23Y219D02*
X30Y219D01*
X1371Y219D02*
X1378Y219D01*
X0Y218D02*
X7Y218D01*
X23Y218D02*
X30Y218D01*
X1371Y218D02*
X1378Y218D01*
X0Y217D02*
X7Y217D01*
X23Y217D02*
X30Y217D01*
X1371Y217D02*
X1378Y217D01*
X0Y216D02*
X7Y216D01*
X23Y216D02*
X30Y216D01*
X1371Y216D02*
X1378Y216D01*
X0Y215D02*
X7Y215D01*
X23Y215D02*
X30Y215D01*
X1371Y215D02*
X1378Y215D01*
X0Y214D02*
X7Y214D01*
X23Y214D02*
X30Y214D01*
X1371Y214D02*
X1378Y214D01*
X0Y213D02*
X7Y213D01*
X23Y213D02*
X30Y213D01*
X1371Y213D02*
X1378Y213D01*
X0Y212D02*
X7Y212D01*
X23Y212D02*
X30Y212D01*
X1371Y212D02*
X1378Y212D01*
X0Y211D02*
X7Y211D01*
X23Y211D02*
X30Y211D01*
X1371Y211D02*
X1378Y211D01*
X0Y210D02*
X7Y210D01*
X23Y210D02*
X30Y210D01*
X1371Y210D02*
X1378Y210D01*
X0Y209D02*
X7Y209D01*
X23Y209D02*
X30Y209D01*
X1371Y209D02*
X1378Y209D01*
X0Y208D02*
X7Y208D01*
X23Y208D02*
X30Y208D01*
X1371Y208D02*
X1378Y208D01*
X0Y207D02*
X7Y207D01*
X23Y207D02*
X30Y207D01*
X1371Y207D02*
X1378Y207D01*
X0Y206D02*
X7Y206D01*
X23Y206D02*
X30Y206D01*
X1371Y206D02*
X1378Y206D01*
X0Y205D02*
X7Y205D01*
X23Y205D02*
X30Y205D01*
X1371Y205D02*
X1378Y205D01*
X0Y204D02*
X7Y204D01*
X23Y204D02*
X30Y204D01*
X1371Y204D02*
X1378Y204D01*
X0Y203D02*
X7Y203D01*
X23Y203D02*
X30Y203D01*
X1371Y203D02*
X1378Y203D01*
X0Y202D02*
X7Y202D01*
X23Y202D02*
X30Y202D01*
X1371Y202D02*
X1378Y202D01*
X0Y201D02*
X7Y201D01*
X23Y201D02*
X30Y201D01*
X1371Y201D02*
X1378Y201D01*
X0Y200D02*
X7Y200D01*
X23Y200D02*
X30Y200D01*
X1371Y200D02*
X1378Y200D01*
X0Y199D02*
X7Y199D01*
X23Y199D02*
X30Y199D01*
X1371Y199D02*
X1378Y199D01*
X0Y198D02*
X7Y198D01*
X23Y198D02*
X30Y198D01*
X1371Y198D02*
X1378Y198D01*
X0Y197D02*
X7Y197D01*
X23Y197D02*
X30Y197D01*
X1371Y197D02*
X1378Y197D01*
X0Y196D02*
X7Y196D01*
X23Y196D02*
X30Y196D01*
X1371Y196D02*
X1378Y196D01*
X0Y195D02*
X7Y195D01*
X23Y195D02*
X30Y195D01*
X1371Y195D02*
X1378Y195D01*
X0Y194D02*
X7Y194D01*
X23Y194D02*
X30Y194D01*
X1371Y194D02*
X1378Y194D01*
X0Y193D02*
X7Y193D01*
X23Y193D02*
X30Y193D01*
X1371Y193D02*
X1378Y193D01*
X0Y192D02*
X7Y192D01*
X23Y192D02*
X30Y192D01*
X1371Y192D02*
X1378Y192D01*
X0Y191D02*
X7Y191D01*
X23Y191D02*
X30Y191D01*
X1371Y191D02*
X1378Y191D01*
X0Y190D02*
X7Y190D01*
X23Y190D02*
X30Y190D01*
X1371Y190D02*
X1378Y190D01*
X0Y189D02*
X7Y189D01*
X23Y189D02*
X30Y189D01*
X1371Y189D02*
X1378Y189D01*
X0Y188D02*
X7Y188D01*
X23Y188D02*
X30Y188D01*
X1371Y188D02*
X1378Y188D01*
X0Y187D02*
X7Y187D01*
X23Y187D02*
X30Y187D01*
X1371Y187D02*
X1378Y187D01*
X0Y186D02*
X7Y186D01*
X23Y186D02*
X30Y186D01*
X1371Y186D02*
X1378Y186D01*
X0Y185D02*
X7Y185D01*
X23Y185D02*
X30Y185D01*
X1171Y185D02*
X1198Y185D01*
X1231Y185D02*
X1248Y185D01*
X1275Y185D02*
X1300Y185D01*
X1371Y185D02*
X1378Y185D01*
X0Y184D02*
X7Y184D01*
X23Y184D02*
X30Y184D01*
X1170Y184D02*
X1199Y184D01*
X1231Y184D02*
X1250Y184D01*
X1272Y184D02*
X1301Y184D01*
X1371Y184D02*
X1378Y184D01*
X0Y183D02*
X7Y183D01*
X23Y183D02*
X30Y183D01*
X1168Y183D02*
X1200Y183D01*
X1231Y183D02*
X1250Y183D01*
X1271Y183D02*
X1301Y183D01*
X1371Y183D02*
X1378Y183D01*
X0Y182D02*
X7Y182D01*
X23Y182D02*
X30Y182D01*
X961Y182D02*
X993Y182D01*
X1017Y182D02*
X1043Y182D01*
X1062Y182D02*
X1075Y182D01*
X1168Y182D02*
X1200Y182D01*
X1231Y182D02*
X1250Y182D01*
X1270Y182D02*
X1301Y182D01*
X1371Y182D02*
X1378Y182D01*
X0Y181D02*
X7Y181D01*
X23Y181D02*
X30Y181D01*
X960Y181D02*
X993Y181D01*
X1015Y181D02*
X1043Y181D01*
X1060Y181D02*
X1078Y181D01*
X1167Y181D02*
X1200Y181D01*
X1231Y181D02*
X1250Y181D01*
X1269Y181D02*
X1301Y181D01*
X1371Y181D02*
X1378Y181D01*
X0Y180D02*
X7Y180D01*
X23Y180D02*
X30Y180D01*
X758Y180D02*
X774Y180D01*
X795Y180D02*
X826Y180D01*
X851Y180D02*
X877Y180D01*
X959Y180D02*
X993Y180D01*
X1013Y180D02*
X1043Y180D01*
X1060Y180D02*
X1079Y180D01*
X1167Y180D02*
X1200Y180D01*
X1231Y180D02*
X1250Y180D01*
X1268Y180D02*
X1301Y180D01*
X1371Y180D02*
X1378Y180D01*
X0Y179D02*
X7Y179D01*
X23Y179D02*
X30Y179D01*
X756Y179D02*
X776Y179D01*
X794Y179D02*
X827Y179D01*
X848Y179D02*
X877Y179D01*
X959Y179D02*
X993Y179D01*
X1012Y179D02*
X1043Y179D01*
X1060Y179D02*
X1080Y179D01*
X1167Y179D02*
X1199Y179D01*
X1231Y179D02*
X1249Y179D01*
X1268Y179D02*
X1301Y179D01*
X1371Y179D02*
X1378Y179D01*
X0Y178D02*
X7Y178D01*
X23Y178D02*
X30Y178D01*
X313Y178D02*
X338Y178D01*
X373Y178D02*
X391Y178D01*
X416Y178D02*
X443Y178D01*
X754Y178D02*
X776Y178D01*
X793Y178D02*
X827Y178D01*
X847Y178D02*
X877Y178D01*
X959Y178D02*
X993Y178D01*
X1011Y178D02*
X1043Y178D01*
X1060Y178D02*
X1081Y178D01*
X1167Y178D02*
X1173Y178D01*
X1231Y178D02*
X1237Y178D01*
X1267Y178D02*
X1275Y178D01*
X1294Y178D02*
X1301Y178D01*
X1371Y178D02*
X1378Y178D01*
X0Y177D02*
X7Y177D01*
X23Y177D02*
X30Y177D01*
X311Y177D02*
X340Y177D01*
X373Y177D02*
X392Y177D01*
X414Y177D02*
X443Y177D01*
X505Y177D02*
X507Y177D01*
X533Y177D02*
X535Y177D01*
X555Y177D02*
X558Y177D01*
X583Y177D02*
X585Y177D01*
X753Y177D02*
X776Y177D01*
X793Y177D02*
X827Y177D01*
X846Y177D02*
X877Y177D01*
X960Y177D02*
X993Y177D01*
X1011Y177D02*
X1043Y177D01*
X1060Y177D02*
X1082Y177D01*
X1167Y177D02*
X1173Y177D01*
X1231Y177D02*
X1237Y177D01*
X1267Y177D02*
X1274Y177D01*
X1294Y177D02*
X1301Y177D01*
X1371Y177D02*
X1378Y177D01*
X0Y176D02*
X7Y176D01*
X23Y176D02*
X30Y176D01*
X310Y176D02*
X341Y176D01*
X373Y176D02*
X392Y176D01*
X413Y176D02*
X443Y176D01*
X504Y176D02*
X509Y176D01*
X532Y176D02*
X536Y176D01*
X554Y176D02*
X559Y176D01*
X582Y176D02*
X586Y176D01*
X752Y176D02*
X776Y176D01*
X793Y176D02*
X827Y176D01*
X845Y176D02*
X877Y176D01*
X961Y176D02*
X993Y176D01*
X1010Y176D02*
X1043Y176D01*
X1061Y176D02*
X1082Y176D01*
X1167Y176D02*
X1173Y176D01*
X1231Y176D02*
X1237Y176D01*
X1267Y176D02*
X1273Y176D01*
X1294Y176D02*
X1301Y176D01*
X1371Y176D02*
X1378Y176D01*
X0Y175D02*
X7Y175D01*
X23Y175D02*
X30Y175D01*
X310Y175D02*
X341Y175D01*
X373Y175D02*
X392Y175D01*
X412Y175D02*
X443Y175D01*
X503Y175D02*
X509Y175D01*
X531Y175D02*
X537Y175D01*
X554Y175D02*
X559Y175D01*
X581Y175D02*
X587Y175D01*
X752Y175D02*
X776Y175D01*
X794Y175D02*
X827Y175D01*
X845Y175D02*
X877Y175D01*
X987Y175D02*
X993Y175D01*
X1010Y175D02*
X1017Y175D01*
X1037Y175D02*
X1043Y175D01*
X1075Y175D02*
X1083Y175D01*
X1167Y175D02*
X1173Y175D01*
X1231Y175D02*
X1237Y175D01*
X1267Y175D02*
X1273Y175D01*
X1294Y175D02*
X1301Y175D01*
X1371Y175D02*
X1378Y175D01*
X0Y174D02*
X7Y174D01*
X23Y174D02*
X30Y174D01*
X309Y174D02*
X342Y174D01*
X373Y174D02*
X392Y174D01*
X411Y174D02*
X443Y174D01*
X503Y174D02*
X509Y174D01*
X531Y174D02*
X537Y174D01*
X553Y174D02*
X559Y174D01*
X581Y174D02*
X587Y174D01*
X751Y174D02*
X775Y174D01*
X795Y174D02*
X827Y174D01*
X844Y174D02*
X877Y174D01*
X987Y174D02*
X993Y174D01*
X1010Y174D02*
X1016Y174D01*
X1037Y174D02*
X1043Y174D01*
X1076Y174D02*
X1084Y174D01*
X1167Y174D02*
X1173Y174D01*
X1231Y174D02*
X1237Y174D01*
X1267Y174D02*
X1273Y174D01*
X1294Y174D02*
X1301Y174D01*
X1371Y174D02*
X1378Y174D01*
X0Y173D02*
X7Y173D01*
X23Y173D02*
X30Y173D01*
X309Y173D02*
X342Y173D01*
X373Y173D02*
X392Y173D01*
X410Y173D02*
X443Y173D01*
X503Y173D02*
X509Y173D01*
X531Y173D02*
X537Y173D01*
X553Y173D02*
X559Y173D01*
X581Y173D02*
X587Y173D01*
X751Y173D02*
X758Y173D01*
X763Y173D02*
X769Y173D01*
X820Y173D02*
X827Y173D01*
X844Y173D02*
X851Y173D01*
X871Y173D02*
X877Y173D01*
X987Y173D02*
X993Y173D01*
X1009Y173D02*
X1016Y173D01*
X1037Y173D02*
X1043Y173D01*
X1077Y173D02*
X1085Y173D01*
X1167Y173D02*
X1173Y173D01*
X1231Y173D02*
X1237Y173D01*
X1267Y173D02*
X1273Y173D01*
X1294Y173D02*
X1301Y173D01*
X1371Y173D02*
X1378Y173D01*
X0Y172D02*
X7Y172D01*
X23Y172D02*
X30Y172D01*
X309Y172D02*
X342Y172D01*
X373Y172D02*
X391Y172D01*
X410Y172D02*
X443Y172D01*
X503Y172D02*
X509Y172D01*
X531Y172D02*
X537Y172D01*
X553Y172D02*
X559Y172D01*
X581Y172D02*
X587Y172D01*
X750Y172D02*
X757Y172D01*
X763Y172D02*
X769Y172D01*
X820Y172D02*
X827Y172D01*
X843Y172D02*
X850Y172D01*
X871Y172D02*
X877Y172D01*
X987Y172D02*
X993Y172D01*
X1009Y172D02*
X1015Y172D01*
X1037Y172D02*
X1043Y172D01*
X1078Y172D02*
X1086Y172D01*
X1167Y172D02*
X1173Y172D01*
X1231Y172D02*
X1237Y172D01*
X1267Y172D02*
X1273Y172D01*
X1294Y172D02*
X1301Y172D01*
X1371Y172D02*
X1378Y172D01*
X0Y171D02*
X7Y171D01*
X23Y171D02*
X30Y171D01*
X309Y171D02*
X315Y171D01*
X336Y171D02*
X342Y171D01*
X373Y171D02*
X379Y171D01*
X409Y171D02*
X417Y171D01*
X437Y171D02*
X443Y171D01*
X503Y171D02*
X509Y171D01*
X531Y171D02*
X537Y171D01*
X553Y171D02*
X559Y171D01*
X581Y171D02*
X587Y171D01*
X750Y171D02*
X757Y171D01*
X763Y171D02*
X769Y171D01*
X820Y171D02*
X827Y171D01*
X843Y171D02*
X849Y171D01*
X871Y171D02*
X877Y171D01*
X987Y171D02*
X993Y171D01*
X1009Y171D02*
X1015Y171D01*
X1037Y171D02*
X1043Y171D01*
X1078Y171D02*
X1086Y171D01*
X1167Y171D02*
X1173Y171D01*
X1231Y171D02*
X1237Y171D01*
X1267Y171D02*
X1273Y171D01*
X1294Y171D02*
X1301Y171D01*
X1371Y171D02*
X1378Y171D01*
X0Y170D02*
X7Y170D01*
X23Y170D02*
X30Y170D01*
X309Y170D02*
X315Y170D01*
X336Y170D02*
X342Y170D01*
X373Y170D02*
X379Y170D01*
X409Y170D02*
X416Y170D01*
X437Y170D02*
X443Y170D01*
X503Y170D02*
X509Y170D01*
X531Y170D02*
X537Y170D01*
X553Y170D02*
X559Y170D01*
X581Y170D02*
X587Y170D01*
X749Y170D02*
X756Y170D01*
X763Y170D02*
X769Y170D01*
X820Y170D02*
X827Y170D01*
X843Y170D02*
X849Y170D01*
X871Y170D02*
X877Y170D01*
X987Y170D02*
X993Y170D01*
X1009Y170D02*
X1015Y170D01*
X1037Y170D02*
X1043Y170D01*
X1079Y170D02*
X1087Y170D01*
X1167Y170D02*
X1173Y170D01*
X1231Y170D02*
X1237Y170D01*
X1267Y170D02*
X1273Y170D01*
X1294Y170D02*
X1301Y170D01*
X1371Y170D02*
X1378Y170D01*
X0Y169D02*
X7Y169D01*
X23Y169D02*
X30Y169D01*
X309Y169D02*
X315Y169D01*
X336Y169D02*
X342Y169D01*
X373Y169D02*
X379Y169D01*
X409Y169D02*
X415Y169D01*
X437Y169D02*
X443Y169D01*
X503Y169D02*
X509Y169D01*
X531Y169D02*
X537Y169D01*
X553Y169D02*
X559Y169D01*
X581Y169D02*
X587Y169D01*
X749Y169D02*
X756Y169D01*
X763Y169D02*
X769Y169D01*
X820Y169D02*
X827Y169D01*
X843Y169D02*
X849Y169D01*
X871Y169D02*
X877Y169D01*
X987Y169D02*
X993Y169D01*
X1009Y169D02*
X1015Y169D01*
X1037Y169D02*
X1043Y169D01*
X1080Y169D02*
X1088Y169D01*
X1167Y169D02*
X1173Y169D01*
X1231Y169D02*
X1237Y169D01*
X1267Y169D02*
X1274Y169D01*
X1294Y169D02*
X1301Y169D01*
X1371Y169D02*
X1378Y169D01*
X0Y168D02*
X7Y168D01*
X23Y168D02*
X30Y168D01*
X309Y168D02*
X315Y168D01*
X336Y168D02*
X342Y168D01*
X373Y168D02*
X379Y168D01*
X409Y168D02*
X415Y168D01*
X437Y168D02*
X443Y168D01*
X503Y168D02*
X509Y168D01*
X531Y168D02*
X537Y168D01*
X553Y168D02*
X559Y168D01*
X581Y168D02*
X587Y168D01*
X748Y168D02*
X755Y168D01*
X763Y168D02*
X769Y168D01*
X820Y168D02*
X827Y168D01*
X843Y168D02*
X849Y168D01*
X871Y168D02*
X877Y168D01*
X987Y168D02*
X993Y168D01*
X1009Y168D02*
X1015Y168D01*
X1037Y168D02*
X1043Y168D01*
X1081Y168D02*
X1089Y168D01*
X1167Y168D02*
X1173Y168D01*
X1231Y168D02*
X1237Y168D01*
X1267Y168D02*
X1275Y168D01*
X1294Y168D02*
X1301Y168D01*
X1371Y168D02*
X1378Y168D01*
X0Y167D02*
X7Y167D01*
X23Y167D02*
X30Y167D01*
X309Y167D02*
X315Y167D01*
X336Y167D02*
X342Y167D01*
X373Y167D02*
X379Y167D01*
X409Y167D02*
X415Y167D01*
X437Y167D02*
X443Y167D01*
X503Y167D02*
X509Y167D01*
X531Y167D02*
X537Y167D01*
X553Y167D02*
X559Y167D01*
X581Y167D02*
X587Y167D01*
X748Y167D02*
X755Y167D01*
X763Y167D02*
X769Y167D01*
X820Y167D02*
X827Y167D01*
X843Y167D02*
X849Y167D01*
X871Y167D02*
X877Y167D01*
X987Y167D02*
X993Y167D01*
X1009Y167D02*
X1016Y167D01*
X1037Y167D02*
X1043Y167D01*
X1082Y167D02*
X1089Y167D01*
X1167Y167D02*
X1173Y167D01*
X1231Y167D02*
X1237Y167D01*
X1268Y167D02*
X1301Y167D01*
X1371Y167D02*
X1378Y167D01*
X0Y166D02*
X7Y166D01*
X23Y166D02*
X30Y166D01*
X309Y166D02*
X315Y166D01*
X336Y166D02*
X342Y166D01*
X373Y166D02*
X379Y166D01*
X409Y166D02*
X415Y166D01*
X437Y166D02*
X443Y166D01*
X503Y166D02*
X509Y166D01*
X531Y166D02*
X537Y166D01*
X553Y166D02*
X559Y166D01*
X581Y166D02*
X587Y166D01*
X747Y166D02*
X754Y166D01*
X763Y166D02*
X769Y166D01*
X820Y166D02*
X827Y166D01*
X843Y166D02*
X849Y166D01*
X871Y166D02*
X877Y166D01*
X987Y166D02*
X993Y166D01*
X1010Y166D02*
X1016Y166D01*
X1037Y166D02*
X1043Y166D01*
X1082Y166D02*
X1090Y166D01*
X1167Y166D02*
X1173Y166D01*
X1231Y166D02*
X1237Y166D01*
X1268Y166D02*
X1301Y166D01*
X1371Y166D02*
X1378Y166D01*
X0Y165D02*
X7Y165D01*
X23Y165D02*
X30Y165D01*
X309Y165D02*
X315Y165D01*
X336Y165D02*
X342Y165D01*
X373Y165D02*
X379Y165D01*
X409Y165D02*
X415Y165D01*
X437Y165D02*
X443Y165D01*
X503Y165D02*
X509Y165D01*
X531Y165D02*
X537Y165D01*
X553Y165D02*
X559Y165D01*
X581Y165D02*
X587Y165D01*
X747Y165D02*
X754Y165D01*
X763Y165D02*
X769Y165D01*
X820Y165D02*
X827Y165D01*
X843Y165D02*
X849Y165D01*
X871Y165D02*
X877Y165D01*
X987Y165D02*
X993Y165D01*
X1010Y165D02*
X1017Y165D01*
X1037Y165D02*
X1043Y165D01*
X1083Y165D02*
X1091Y165D01*
X1167Y165D02*
X1173Y165D01*
X1231Y165D02*
X1237Y165D01*
X1269Y165D02*
X1301Y165D01*
X1371Y165D02*
X1378Y165D01*
X0Y164D02*
X7Y164D01*
X23Y164D02*
X30Y164D01*
X309Y164D02*
X315Y164D01*
X336Y164D02*
X342Y164D01*
X373Y164D02*
X379Y164D01*
X409Y164D02*
X415Y164D01*
X437Y164D02*
X443Y164D01*
X503Y164D02*
X509Y164D01*
X531Y164D02*
X537Y164D01*
X553Y164D02*
X559Y164D01*
X581Y164D02*
X587Y164D01*
X746Y164D02*
X753Y164D01*
X763Y164D02*
X769Y164D01*
X820Y164D02*
X827Y164D01*
X843Y164D02*
X850Y164D01*
X871Y164D02*
X877Y164D01*
X987Y164D02*
X993Y164D01*
X1010Y164D02*
X1043Y164D01*
X1084Y164D02*
X1091Y164D01*
X1167Y164D02*
X1173Y164D01*
X1231Y164D02*
X1237Y164D01*
X1270Y164D02*
X1301Y164D01*
X1371Y164D02*
X1378Y164D01*
X0Y163D02*
X7Y163D01*
X23Y163D02*
X30Y163D01*
X309Y163D02*
X315Y163D01*
X336Y163D02*
X342Y163D01*
X373Y163D02*
X379Y163D01*
X409Y163D02*
X415Y163D01*
X437Y163D02*
X443Y163D01*
X503Y163D02*
X509Y163D01*
X531Y163D02*
X537Y163D01*
X553Y163D02*
X559Y163D01*
X581Y163D02*
X587Y163D01*
X746Y163D02*
X753Y163D01*
X763Y163D02*
X769Y163D01*
X820Y163D02*
X827Y163D01*
X844Y163D02*
X852Y163D01*
X871Y163D02*
X877Y163D01*
X987Y163D02*
X993Y163D01*
X1011Y163D02*
X1043Y163D01*
X1085Y163D02*
X1092Y163D01*
X1167Y163D02*
X1173Y163D01*
X1231Y163D02*
X1237Y163D01*
X1271Y163D02*
X1301Y163D01*
X1371Y163D02*
X1378Y163D01*
X0Y162D02*
X7Y162D01*
X23Y162D02*
X30Y162D01*
X309Y162D02*
X315Y162D01*
X336Y162D02*
X342Y162D01*
X373Y162D02*
X379Y162D01*
X409Y162D02*
X416Y162D01*
X437Y162D02*
X443Y162D01*
X503Y162D02*
X509Y162D01*
X531Y162D02*
X537Y162D01*
X553Y162D02*
X559Y162D01*
X581Y162D02*
X587Y162D01*
X745Y162D02*
X752Y162D01*
X763Y162D02*
X769Y162D01*
X820Y162D02*
X827Y162D01*
X844Y162D02*
X877Y162D01*
X987Y162D02*
X993Y162D01*
X1011Y162D02*
X1043Y162D01*
X1085Y162D02*
X1092Y162D01*
X1167Y162D02*
X1173Y162D01*
X1231Y162D02*
X1237Y162D01*
X1272Y162D02*
X1301Y162D01*
X1371Y162D02*
X1378Y162D01*
X0Y161D02*
X7Y161D01*
X23Y161D02*
X30Y161D01*
X309Y161D02*
X315Y161D01*
X336Y161D02*
X342Y161D01*
X373Y161D02*
X379Y161D01*
X410Y161D02*
X418Y161D01*
X436Y161D02*
X443Y161D01*
X503Y161D02*
X509Y161D01*
X531Y161D02*
X537Y161D01*
X553Y161D02*
X559Y161D01*
X581Y161D02*
X587Y161D01*
X745Y161D02*
X752Y161D01*
X763Y161D02*
X769Y161D01*
X820Y161D02*
X827Y161D01*
X845Y161D02*
X877Y161D01*
X987Y161D02*
X993Y161D01*
X1012Y161D02*
X1043Y161D01*
X1086Y161D02*
X1093Y161D01*
X1167Y161D02*
X1196Y161D01*
X1231Y161D02*
X1237Y161D01*
X1275Y161D02*
X1301Y161D01*
X1371Y161D02*
X1378Y161D01*
X0Y160D02*
X7Y160D01*
X23Y160D02*
X30Y160D01*
X309Y160D02*
X315Y160D01*
X336Y160D02*
X342Y160D01*
X373Y160D02*
X379Y160D01*
X410Y160D02*
X443Y160D01*
X503Y160D02*
X509Y160D01*
X531Y160D02*
X537Y160D01*
X553Y160D02*
X559Y160D01*
X581Y160D02*
X587Y160D01*
X744Y160D02*
X751Y160D01*
X763Y160D02*
X769Y160D01*
X820Y160D02*
X827Y160D01*
X845Y160D02*
X877Y160D01*
X987Y160D02*
X993Y160D01*
X1013Y160D02*
X1043Y160D01*
X1087Y160D02*
X1093Y160D01*
X1167Y160D02*
X1198Y160D01*
X1231Y160D02*
X1237Y160D01*
X1281Y160D02*
X1288Y160D01*
X1294Y160D02*
X1301Y160D01*
X1371Y160D02*
X1378Y160D01*
X0Y159D02*
X7Y159D01*
X23Y159D02*
X30Y159D01*
X309Y159D02*
X315Y159D01*
X336Y159D02*
X342Y159D01*
X373Y159D02*
X379Y159D01*
X411Y159D02*
X443Y159D01*
X503Y159D02*
X509Y159D01*
X531Y159D02*
X537Y159D01*
X553Y159D02*
X559Y159D01*
X569Y159D02*
X572Y159D01*
X581Y159D02*
X587Y159D01*
X744Y159D02*
X751Y159D01*
X763Y159D02*
X769Y159D01*
X820Y159D02*
X827Y159D01*
X846Y159D02*
X877Y159D01*
X986Y159D02*
X993Y159D01*
X1015Y159D02*
X1043Y159D01*
X1087Y159D02*
X1093Y159D01*
X1167Y159D02*
X1199Y159D01*
X1231Y159D02*
X1237Y159D01*
X1281Y159D02*
X1288Y159D01*
X1294Y159D02*
X1301Y159D01*
X1371Y159D02*
X1378Y159D01*
X0Y158D02*
X7Y158D01*
X23Y158D02*
X30Y158D01*
X309Y158D02*
X315Y158D01*
X336Y158D02*
X342Y158D01*
X373Y158D02*
X379Y158D01*
X411Y158D02*
X443Y158D01*
X503Y158D02*
X509Y158D01*
X531Y158D02*
X537Y158D01*
X553Y158D02*
X559Y158D01*
X568Y158D02*
X573Y158D01*
X581Y158D02*
X587Y158D01*
X744Y158D02*
X750Y158D01*
X763Y158D02*
X769Y158D01*
X820Y158D02*
X827Y158D01*
X847Y158D02*
X877Y158D01*
X974Y158D02*
X993Y158D01*
X1017Y158D02*
X1043Y158D01*
X1087Y158D02*
X1093Y158D01*
X1168Y158D02*
X1199Y158D01*
X1231Y158D02*
X1237Y158D01*
X1280Y158D02*
X1287Y158D01*
X1294Y158D02*
X1301Y158D01*
X1371Y158D02*
X1378Y158D01*
X0Y157D02*
X7Y157D01*
X23Y157D02*
X30Y157D01*
X309Y157D02*
X315Y157D01*
X336Y157D02*
X342Y157D01*
X373Y157D02*
X379Y157D01*
X412Y157D02*
X443Y157D01*
X503Y157D02*
X509Y157D01*
X531Y157D02*
X537Y157D01*
X553Y157D02*
X559Y157D01*
X567Y157D02*
X573Y157D01*
X581Y157D02*
X587Y157D01*
X743Y157D02*
X750Y157D01*
X763Y157D02*
X769Y157D01*
X820Y157D02*
X827Y157D01*
X849Y157D02*
X877Y157D01*
X973Y157D02*
X993Y157D01*
X1023Y157D02*
X1031Y157D01*
X1037Y157D02*
X1043Y157D01*
X1087Y157D02*
X1093Y157D01*
X1169Y157D02*
X1200Y157D01*
X1231Y157D02*
X1237Y157D01*
X1279Y157D02*
X1287Y157D01*
X1294Y157D02*
X1301Y157D01*
X1371Y157D02*
X1378Y157D01*
X0Y156D02*
X7Y156D01*
X23Y156D02*
X30Y156D01*
X309Y156D02*
X315Y156D01*
X336Y156D02*
X342Y156D01*
X373Y156D02*
X379Y156D01*
X413Y156D02*
X443Y156D01*
X503Y156D02*
X509Y156D01*
X531Y156D02*
X537Y156D01*
X553Y156D02*
X559Y156D01*
X567Y156D02*
X573Y156D01*
X581Y156D02*
X587Y156D01*
X743Y156D02*
X749Y156D01*
X763Y156D02*
X769Y156D01*
X808Y156D02*
X827Y156D01*
X851Y156D02*
X877Y156D01*
X973Y156D02*
X993Y156D01*
X1023Y156D02*
X1030Y156D01*
X1037Y156D02*
X1043Y156D01*
X1087Y156D02*
X1093Y156D01*
X1170Y156D02*
X1200Y156D01*
X1231Y156D02*
X1237Y156D01*
X1279Y156D02*
X1286Y156D01*
X1294Y156D02*
X1301Y156D01*
X1371Y156D02*
X1378Y156D01*
X0Y155D02*
X7Y155D01*
X23Y155D02*
X30Y155D01*
X309Y155D02*
X315Y155D01*
X336Y155D02*
X342Y155D01*
X373Y155D02*
X379Y155D01*
X415Y155D02*
X443Y155D01*
X503Y155D02*
X509Y155D01*
X531Y155D02*
X537Y155D01*
X553Y155D02*
X559Y155D01*
X567Y155D02*
X573Y155D01*
X581Y155D02*
X587Y155D01*
X743Y155D02*
X749Y155D01*
X763Y155D02*
X769Y155D01*
X807Y155D02*
X827Y155D01*
X857Y155D02*
X864Y155D01*
X871Y155D02*
X877Y155D01*
X973Y155D02*
X993Y155D01*
X1022Y155D02*
X1029Y155D01*
X1037Y155D02*
X1043Y155D01*
X1087Y155D02*
X1093Y155D01*
X1172Y155D02*
X1200Y155D01*
X1218Y155D02*
X1222Y155D01*
X1231Y155D02*
X1237Y155D01*
X1278Y155D02*
X1285Y155D01*
X1294Y155D02*
X1301Y155D01*
X1371Y155D02*
X1378Y155D01*
X0Y154D02*
X7Y154D01*
X23Y154D02*
X30Y154D01*
X309Y154D02*
X315Y154D01*
X336Y154D02*
X342Y154D01*
X373Y154D02*
X379Y154D01*
X418Y154D02*
X443Y154D01*
X503Y154D02*
X510Y154D01*
X530Y154D02*
X537Y154D01*
X553Y154D02*
X559Y154D01*
X567Y154D02*
X573Y154D01*
X581Y154D02*
X587Y154D01*
X743Y154D02*
X749Y154D01*
X763Y154D02*
X769Y154D01*
X807Y154D02*
X827Y154D01*
X857Y154D02*
X864Y154D01*
X871Y154D02*
X877Y154D01*
X973Y154D02*
X993Y154D01*
X1022Y154D02*
X1029Y154D01*
X1037Y154D02*
X1043Y154D01*
X1087Y154D02*
X1093Y154D01*
X1194Y154D02*
X1200Y154D01*
X1217Y154D02*
X1222Y154D01*
X1231Y154D02*
X1237Y154D01*
X1278Y154D02*
X1285Y154D01*
X1294Y154D02*
X1301Y154D01*
X1371Y154D02*
X1378Y154D01*
X0Y153D02*
X7Y153D01*
X23Y153D02*
X30Y153D01*
X309Y153D02*
X315Y153D01*
X336Y153D02*
X342Y153D01*
X373Y153D02*
X379Y153D01*
X423Y153D02*
X430Y153D01*
X437Y153D02*
X443Y153D01*
X503Y153D02*
X537Y153D01*
X553Y153D02*
X559Y153D01*
X567Y153D02*
X573Y153D01*
X581Y153D02*
X587Y153D01*
X743Y153D02*
X749Y153D01*
X763Y153D02*
X769Y153D01*
X807Y153D02*
X827Y153D01*
X856Y153D02*
X863Y153D01*
X871Y153D02*
X877Y153D01*
X974Y153D02*
X993Y153D01*
X1021Y153D02*
X1028Y153D01*
X1037Y153D02*
X1043Y153D01*
X1087Y153D02*
X1093Y153D01*
X1194Y153D02*
X1200Y153D01*
X1217Y153D02*
X1223Y153D01*
X1231Y153D02*
X1237Y153D01*
X1277Y153D02*
X1284Y153D01*
X1294Y153D02*
X1301Y153D01*
X1371Y153D02*
X1378Y153D01*
X0Y152D02*
X7Y152D01*
X23Y152D02*
X30Y152D01*
X309Y152D02*
X315Y152D01*
X336Y152D02*
X342Y152D01*
X373Y152D02*
X379Y152D01*
X423Y152D02*
X430Y152D01*
X437Y152D02*
X443Y152D01*
X503Y152D02*
X537Y152D01*
X553Y152D02*
X559Y152D01*
X567Y152D02*
X573Y152D01*
X581Y152D02*
X587Y152D01*
X743Y152D02*
X749Y152D01*
X763Y152D02*
X769Y152D01*
X807Y152D02*
X827Y152D01*
X856Y152D02*
X863Y152D01*
X871Y152D02*
X877Y152D01*
X975Y152D02*
X993Y152D01*
X1021Y152D02*
X1028Y152D01*
X1037Y152D02*
X1043Y152D01*
X1059Y152D02*
X1075Y152D01*
X1087Y152D02*
X1093Y152D01*
X1194Y152D02*
X1200Y152D01*
X1217Y152D02*
X1223Y152D01*
X1231Y152D02*
X1237Y152D01*
X1276Y152D02*
X1284Y152D01*
X1294Y152D02*
X1301Y152D01*
X1371Y152D02*
X1378Y152D01*
X0Y151D02*
X7Y151D01*
X23Y151D02*
X30Y151D01*
X309Y151D02*
X315Y151D01*
X336Y151D02*
X342Y151D01*
X373Y151D02*
X379Y151D01*
X422Y151D02*
X429Y151D01*
X437Y151D02*
X443Y151D01*
X503Y151D02*
X537Y151D01*
X553Y151D02*
X559Y151D01*
X567Y151D02*
X573Y151D01*
X581Y151D02*
X587Y151D01*
X743Y151D02*
X749Y151D01*
X763Y151D02*
X769Y151D01*
X808Y151D02*
X827Y151D01*
X855Y151D02*
X862Y151D01*
X871Y151D02*
X877Y151D01*
X987Y151D02*
X993Y151D01*
X1020Y151D02*
X1027Y151D01*
X1037Y151D02*
X1043Y151D01*
X1059Y151D02*
X1075Y151D01*
X1087Y151D02*
X1093Y151D01*
X1194Y151D02*
X1200Y151D01*
X1217Y151D02*
X1223Y151D01*
X1231Y151D02*
X1237Y151D01*
X1276Y151D02*
X1283Y151D01*
X1294Y151D02*
X1301Y151D01*
X1371Y151D02*
X1378Y151D01*
X0Y150D02*
X7Y150D01*
X23Y150D02*
X30Y150D01*
X309Y150D02*
X315Y150D01*
X336Y150D02*
X342Y150D01*
X373Y150D02*
X379Y150D01*
X421Y150D02*
X429Y150D01*
X437Y150D02*
X443Y150D01*
X503Y150D02*
X537Y150D01*
X553Y150D02*
X559Y150D01*
X567Y150D02*
X573Y150D01*
X581Y150D02*
X587Y150D01*
X743Y150D02*
X749Y150D01*
X763Y150D02*
X769Y150D01*
X810Y150D02*
X827Y150D01*
X854Y150D02*
X862Y150D01*
X871Y150D02*
X877Y150D01*
X987Y150D02*
X993Y150D01*
X1019Y150D02*
X1027Y150D01*
X1037Y150D02*
X1043Y150D01*
X1059Y150D02*
X1076Y150D01*
X1087Y150D02*
X1093Y150D01*
X1194Y150D02*
X1200Y150D01*
X1217Y150D02*
X1223Y150D01*
X1231Y150D02*
X1237Y150D01*
X1275Y150D02*
X1282Y150D01*
X1294Y150D02*
X1301Y150D01*
X1371Y150D02*
X1378Y150D01*
X0Y149D02*
X7Y149D01*
X23Y149D02*
X30Y149D01*
X309Y149D02*
X315Y149D01*
X336Y149D02*
X342Y149D01*
X362Y149D02*
X362Y149D01*
X373Y149D02*
X379Y149D01*
X421Y149D02*
X428Y149D01*
X437Y149D02*
X443Y149D01*
X503Y149D02*
X537Y149D01*
X553Y149D02*
X559Y149D01*
X567Y149D02*
X573Y149D01*
X581Y149D02*
X587Y149D01*
X743Y149D02*
X750Y149D01*
X763Y149D02*
X769Y149D01*
X820Y149D02*
X827Y149D01*
X854Y149D02*
X861Y149D01*
X871Y149D02*
X877Y149D01*
X987Y149D02*
X993Y149D01*
X1019Y149D02*
X1026Y149D01*
X1037Y149D02*
X1043Y149D01*
X1059Y149D02*
X1076Y149D01*
X1087Y149D02*
X1093Y149D01*
X1194Y149D02*
X1200Y149D01*
X1217Y149D02*
X1223Y149D01*
X1231Y149D02*
X1237Y149D01*
X1275Y149D02*
X1282Y149D01*
X1294Y149D02*
X1301Y149D01*
X1371Y149D02*
X1378Y149D01*
X0Y148D02*
X7Y148D01*
X23Y148D02*
X30Y148D01*
X309Y148D02*
X315Y148D01*
X336Y148D02*
X342Y148D01*
X360Y148D02*
X364Y148D01*
X373Y148D02*
X379Y148D01*
X420Y148D02*
X427Y148D01*
X437Y148D02*
X443Y148D01*
X503Y148D02*
X537Y148D01*
X553Y148D02*
X559Y148D01*
X567Y148D02*
X573Y148D01*
X581Y148D02*
X587Y148D01*
X744Y148D02*
X750Y148D01*
X763Y148D02*
X769Y148D01*
X820Y148D02*
X827Y148D01*
X853Y148D02*
X860Y148D01*
X871Y148D02*
X877Y148D01*
X987Y148D02*
X993Y148D01*
X1018Y148D02*
X1025Y148D01*
X1037Y148D02*
X1043Y148D01*
X1059Y148D02*
X1075Y148D01*
X1087Y148D02*
X1093Y148D01*
X1194Y148D02*
X1200Y148D01*
X1217Y148D02*
X1223Y148D01*
X1231Y148D02*
X1237Y148D01*
X1274Y148D02*
X1281Y148D01*
X1294Y148D02*
X1301Y148D01*
X1371Y148D02*
X1378Y148D01*
X0Y147D02*
X7Y147D01*
X23Y147D02*
X30Y147D01*
X309Y147D02*
X315Y147D01*
X336Y147D02*
X342Y147D01*
X359Y147D02*
X364Y147D01*
X373Y147D02*
X379Y147D01*
X420Y147D02*
X427Y147D01*
X437Y147D02*
X443Y147D01*
X503Y147D02*
X537Y147D01*
X553Y147D02*
X559Y147D01*
X567Y147D02*
X573Y147D01*
X581Y147D02*
X587Y147D01*
X744Y147D02*
X751Y147D01*
X763Y147D02*
X769Y147D01*
X820Y147D02*
X827Y147D01*
X853Y147D02*
X860Y147D01*
X871Y147D02*
X877Y147D01*
X987Y147D02*
X993Y147D01*
X1018Y147D02*
X1025Y147D01*
X1037Y147D02*
X1043Y147D01*
X1059Y147D02*
X1075Y147D01*
X1087Y147D02*
X1093Y147D01*
X1194Y147D02*
X1200Y147D01*
X1217Y147D02*
X1223Y147D01*
X1231Y147D02*
X1237Y147D01*
X1274Y147D02*
X1281Y147D01*
X1294Y147D02*
X1301Y147D01*
X1371Y147D02*
X1378Y147D01*
X0Y146D02*
X7Y146D01*
X23Y146D02*
X30Y146D01*
X309Y146D02*
X315Y146D01*
X336Y146D02*
X342Y146D01*
X359Y146D02*
X365Y146D01*
X373Y146D02*
X379Y146D01*
X419Y146D02*
X426Y146D01*
X437Y146D02*
X443Y146D01*
X503Y146D02*
X509Y146D01*
X531Y146D02*
X537Y146D01*
X553Y146D02*
X559Y146D01*
X567Y146D02*
X573Y146D01*
X581Y146D02*
X587Y146D01*
X745Y146D02*
X751Y146D01*
X763Y146D02*
X769Y146D01*
X820Y146D02*
X827Y146D01*
X852Y146D02*
X859Y146D01*
X871Y146D02*
X877Y146D01*
X987Y146D02*
X993Y146D01*
X1017Y146D02*
X1024Y146D01*
X1037Y146D02*
X1043Y146D01*
X1059Y146D02*
X1073Y146D01*
X1087Y146D02*
X1093Y146D01*
X1194Y146D02*
X1200Y146D01*
X1217Y146D02*
X1223Y146D01*
X1231Y146D02*
X1237Y146D01*
X1273Y146D02*
X1280Y146D01*
X1294Y146D02*
X1301Y146D01*
X1371Y146D02*
X1378Y146D01*
X0Y145D02*
X7Y145D01*
X23Y145D02*
X30Y145D01*
X309Y145D02*
X315Y145D01*
X336Y145D02*
X342Y145D01*
X359Y145D02*
X365Y145D01*
X373Y145D02*
X379Y145D01*
X418Y145D02*
X426Y145D01*
X437Y145D02*
X443Y145D01*
X503Y145D02*
X509Y145D01*
X531Y145D02*
X537Y145D01*
X553Y145D02*
X559Y145D01*
X567Y145D02*
X573Y145D01*
X581Y145D02*
X587Y145D01*
X745Y145D02*
X752Y145D01*
X763Y145D02*
X769Y145D01*
X820Y145D02*
X827Y145D01*
X851Y145D02*
X859Y145D01*
X871Y145D02*
X877Y145D01*
X987Y145D02*
X993Y145D01*
X1016Y145D02*
X1024Y145D01*
X1037Y145D02*
X1043Y145D01*
X1059Y145D02*
X1065Y145D01*
X1087Y145D02*
X1093Y145D01*
X1194Y145D02*
X1200Y145D01*
X1217Y145D02*
X1223Y145D01*
X1231Y145D02*
X1237Y145D01*
X1272Y145D02*
X1280Y145D01*
X1294Y145D02*
X1301Y145D01*
X1371Y145D02*
X1378Y145D01*
X0Y144D02*
X7Y144D01*
X23Y144D02*
X30Y144D01*
X309Y144D02*
X315Y144D01*
X336Y144D02*
X342Y144D01*
X359Y144D02*
X365Y144D01*
X373Y144D02*
X379Y144D01*
X418Y144D02*
X425Y144D01*
X437Y144D02*
X443Y144D01*
X503Y144D02*
X509Y144D01*
X531Y144D02*
X537Y144D01*
X553Y144D02*
X559Y144D01*
X567Y144D02*
X573Y144D01*
X581Y144D02*
X587Y144D01*
X746Y144D02*
X752Y144D01*
X763Y144D02*
X769Y144D01*
X820Y144D02*
X827Y144D01*
X851Y144D02*
X858Y144D01*
X871Y144D02*
X877Y144D01*
X987Y144D02*
X993Y144D01*
X1016Y144D02*
X1023Y144D01*
X1037Y144D02*
X1043Y144D01*
X1059Y144D02*
X1065Y144D01*
X1087Y144D02*
X1093Y144D01*
X1194Y144D02*
X1200Y144D01*
X1217Y144D02*
X1223Y144D01*
X1231Y144D02*
X1237Y144D01*
X1272Y144D02*
X1279Y144D01*
X1294Y144D02*
X1301Y144D01*
X1371Y144D02*
X1378Y144D01*
X0Y143D02*
X7Y143D01*
X23Y143D02*
X30Y143D01*
X309Y143D02*
X315Y143D01*
X336Y143D02*
X342Y143D01*
X359Y143D02*
X365Y143D01*
X373Y143D02*
X379Y143D01*
X417Y143D02*
X424Y143D01*
X437Y143D02*
X443Y143D01*
X503Y143D02*
X509Y143D01*
X531Y143D02*
X537Y143D01*
X553Y143D02*
X559Y143D01*
X567Y143D02*
X573Y143D01*
X581Y143D02*
X587Y143D01*
X746Y143D02*
X753Y143D01*
X763Y143D02*
X769Y143D01*
X820Y143D02*
X827Y143D01*
X850Y143D02*
X857Y143D01*
X871Y143D02*
X877Y143D01*
X987Y143D02*
X993Y143D01*
X1015Y143D02*
X1022Y143D01*
X1037Y143D02*
X1043Y143D01*
X1059Y143D02*
X1065Y143D01*
X1087Y143D02*
X1093Y143D01*
X1194Y143D02*
X1200Y143D01*
X1217Y143D02*
X1223Y143D01*
X1231Y143D02*
X1237Y143D01*
X1271Y143D02*
X1278Y143D01*
X1294Y143D02*
X1301Y143D01*
X1371Y143D02*
X1378Y143D01*
X0Y142D02*
X7Y142D01*
X23Y142D02*
X30Y142D01*
X309Y142D02*
X315Y142D01*
X336Y142D02*
X342Y142D01*
X359Y142D02*
X365Y142D01*
X373Y142D02*
X379Y142D01*
X417Y142D02*
X424Y142D01*
X437Y142D02*
X443Y142D01*
X503Y142D02*
X509Y142D01*
X531Y142D02*
X537Y142D01*
X553Y142D02*
X559Y142D01*
X567Y142D02*
X573Y142D01*
X581Y142D02*
X587Y142D01*
X747Y142D02*
X753Y142D01*
X763Y142D02*
X769Y142D01*
X820Y142D02*
X827Y142D01*
X850Y142D02*
X857Y142D01*
X871Y142D02*
X877Y142D01*
X987Y142D02*
X993Y142D01*
X1015Y142D02*
X1022Y142D01*
X1037Y142D02*
X1043Y142D01*
X1059Y142D02*
X1065Y142D01*
X1087Y142D02*
X1093Y142D01*
X1194Y142D02*
X1200Y142D01*
X1217Y142D02*
X1223Y142D01*
X1231Y142D02*
X1237Y142D01*
X1271Y142D02*
X1278Y142D01*
X1294Y142D02*
X1301Y142D01*
X1371Y142D02*
X1378Y142D01*
X0Y141D02*
X7Y141D01*
X23Y141D02*
X30Y141D01*
X309Y141D02*
X315Y141D01*
X336Y141D02*
X342Y141D01*
X359Y141D02*
X365Y141D01*
X373Y141D02*
X379Y141D01*
X416Y141D02*
X423Y141D01*
X437Y141D02*
X443Y141D01*
X503Y141D02*
X509Y141D01*
X531Y141D02*
X537Y141D01*
X553Y141D02*
X559Y141D01*
X567Y141D02*
X573Y141D01*
X581Y141D02*
X587Y141D01*
X747Y141D02*
X754Y141D01*
X763Y141D02*
X769Y141D01*
X820Y141D02*
X827Y141D01*
X849Y141D02*
X856Y141D01*
X871Y141D02*
X877Y141D01*
X987Y141D02*
X993Y141D01*
X1014Y141D02*
X1021Y141D01*
X1037Y141D02*
X1043Y141D01*
X1059Y141D02*
X1065Y141D01*
X1087Y141D02*
X1093Y141D01*
X1194Y141D02*
X1200Y141D01*
X1217Y141D02*
X1223Y141D01*
X1231Y141D02*
X1237Y141D01*
X1270Y141D02*
X1277Y141D01*
X1294Y141D02*
X1301Y141D01*
X1371Y141D02*
X1378Y141D01*
X0Y140D02*
X7Y140D01*
X23Y140D02*
X30Y140D01*
X309Y140D02*
X315Y140D01*
X336Y140D02*
X342Y140D01*
X359Y140D02*
X365Y140D01*
X373Y140D02*
X379Y140D01*
X416Y140D02*
X423Y140D01*
X437Y140D02*
X443Y140D01*
X503Y140D02*
X509Y140D01*
X531Y140D02*
X537Y140D01*
X553Y140D02*
X559Y140D01*
X567Y140D02*
X573Y140D01*
X581Y140D02*
X587Y140D01*
X748Y140D02*
X754Y140D01*
X763Y140D02*
X769Y140D01*
X820Y140D02*
X827Y140D01*
X849Y140D02*
X856Y140D01*
X871Y140D02*
X877Y140D01*
X987Y140D02*
X993Y140D01*
X1014Y140D02*
X1021Y140D01*
X1037Y140D02*
X1043Y140D01*
X1059Y140D02*
X1065Y140D01*
X1087Y140D02*
X1093Y140D01*
X1194Y140D02*
X1200Y140D01*
X1217Y140D02*
X1223Y140D01*
X1231Y140D02*
X1237Y140D01*
X1269Y140D02*
X1277Y140D01*
X1294Y140D02*
X1301Y140D01*
X1371Y140D02*
X1378Y140D01*
X0Y139D02*
X7Y139D01*
X23Y139D02*
X30Y139D01*
X309Y139D02*
X315Y139D01*
X336Y139D02*
X342Y139D01*
X359Y139D02*
X365Y139D01*
X373Y139D02*
X379Y139D01*
X415Y139D02*
X422Y139D01*
X437Y139D02*
X443Y139D01*
X503Y139D02*
X509Y139D01*
X531Y139D02*
X537Y139D01*
X553Y139D02*
X559Y139D01*
X567Y139D02*
X573Y139D01*
X581Y139D02*
X587Y139D01*
X748Y139D02*
X755Y139D01*
X763Y139D02*
X769Y139D01*
X820Y139D02*
X827Y139D01*
X848Y139D02*
X855Y139D01*
X871Y139D02*
X877Y139D01*
X987Y139D02*
X993Y139D01*
X1013Y139D02*
X1020Y139D01*
X1037Y139D02*
X1043Y139D01*
X1059Y139D02*
X1065Y139D01*
X1087Y139D02*
X1093Y139D01*
X1194Y139D02*
X1200Y139D01*
X1217Y139D02*
X1223Y139D01*
X1231Y139D02*
X1237Y139D01*
X1269Y139D02*
X1276Y139D01*
X1294Y139D02*
X1301Y139D01*
X1371Y139D02*
X1378Y139D01*
X0Y138D02*
X7Y138D01*
X23Y138D02*
X30Y138D01*
X309Y138D02*
X315Y138D01*
X336Y138D02*
X342Y138D01*
X359Y138D02*
X365Y138D01*
X373Y138D02*
X379Y138D01*
X414Y138D02*
X422Y138D01*
X437Y138D02*
X443Y138D01*
X503Y138D02*
X509Y138D01*
X531Y138D02*
X537Y138D01*
X553Y138D02*
X559Y138D01*
X567Y138D02*
X573Y138D01*
X581Y138D02*
X587Y138D01*
X749Y138D02*
X755Y138D01*
X763Y138D02*
X769Y138D01*
X820Y138D02*
X827Y138D01*
X847Y138D02*
X855Y138D01*
X871Y138D02*
X877Y138D01*
X987Y138D02*
X993Y138D01*
X1012Y138D02*
X1020Y138D01*
X1037Y138D02*
X1043Y138D01*
X1060Y138D02*
X1066Y138D01*
X1087Y138D02*
X1093Y138D01*
X1169Y138D02*
X1200Y138D01*
X1217Y138D02*
X1248Y138D01*
X1268Y138D02*
X1275Y138D01*
X1294Y138D02*
X1301Y138D01*
X1371Y138D02*
X1378Y138D01*
X0Y137D02*
X7Y137D01*
X23Y137D02*
X30Y137D01*
X309Y137D02*
X315Y137D01*
X336Y137D02*
X342Y137D01*
X359Y137D02*
X365Y137D01*
X373Y137D02*
X379Y137D01*
X414Y137D02*
X421Y137D01*
X437Y137D02*
X443Y137D01*
X503Y137D02*
X509Y137D01*
X531Y137D02*
X537Y137D01*
X553Y137D02*
X559Y137D01*
X567Y137D02*
X573Y137D01*
X581Y137D02*
X587Y137D01*
X749Y137D02*
X756Y137D01*
X763Y137D02*
X769Y137D01*
X820Y137D02*
X827Y137D01*
X847Y137D02*
X854Y137D01*
X871Y137D02*
X877Y137D01*
X987Y137D02*
X993Y137D01*
X1012Y137D02*
X1019Y137D01*
X1037Y137D02*
X1043Y137D01*
X1060Y137D02*
X1066Y137D01*
X1086Y137D02*
X1093Y137D01*
X1167Y137D02*
X1200Y137D01*
X1217Y137D02*
X1249Y137D01*
X1268Y137D02*
X1275Y137D01*
X1294Y137D02*
X1301Y137D01*
X1371Y137D02*
X1378Y137D01*
X0Y136D02*
X7Y136D01*
X23Y136D02*
X30Y136D01*
X309Y136D02*
X315Y136D01*
X336Y136D02*
X342Y136D01*
X359Y136D02*
X365Y136D01*
X373Y136D02*
X379Y136D01*
X413Y136D02*
X420Y136D01*
X437Y136D02*
X443Y136D01*
X503Y136D02*
X509Y136D01*
X531Y136D02*
X537Y136D01*
X553Y136D02*
X559Y136D01*
X567Y136D02*
X573Y136D01*
X581Y136D02*
X587Y136D01*
X750Y136D02*
X756Y136D01*
X763Y136D02*
X769Y136D01*
X820Y136D02*
X827Y136D01*
X846Y136D02*
X853Y136D01*
X871Y136D02*
X877Y136D01*
X987Y136D02*
X993Y136D01*
X1011Y136D02*
X1018Y136D01*
X1037Y136D02*
X1043Y136D01*
X1060Y136D02*
X1067Y136D01*
X1086Y136D02*
X1093Y136D01*
X1167Y136D02*
X1200Y136D01*
X1217Y136D02*
X1250Y136D01*
X1267Y136D02*
X1274Y136D01*
X1294Y136D02*
X1301Y136D01*
X1371Y136D02*
X1378Y136D01*
X0Y135D02*
X7Y135D01*
X23Y135D02*
X30Y135D01*
X309Y135D02*
X315Y135D01*
X336Y135D02*
X342Y135D01*
X359Y135D02*
X365Y135D01*
X373Y135D02*
X379Y135D01*
X413Y135D02*
X420Y135D01*
X437Y135D02*
X443Y135D01*
X503Y135D02*
X509Y135D01*
X531Y135D02*
X537Y135D01*
X553Y135D02*
X559Y135D01*
X567Y135D02*
X573Y135D01*
X581Y135D02*
X587Y135D01*
X750Y135D02*
X757Y135D01*
X763Y135D02*
X769Y135D01*
X820Y135D02*
X827Y135D01*
X846Y135D02*
X853Y135D01*
X871Y135D02*
X877Y135D01*
X961Y135D02*
X993Y135D01*
X1011Y135D02*
X1018Y135D01*
X1037Y135D02*
X1043Y135D01*
X1060Y135D02*
X1092Y135D01*
X1167Y135D02*
X1200Y135D01*
X1217Y135D02*
X1250Y135D01*
X1267Y135D02*
X1274Y135D01*
X1295Y135D02*
X1301Y135D01*
X1371Y135D02*
X1378Y135D01*
X0Y134D02*
X7Y134D01*
X23Y134D02*
X30Y134D01*
X309Y134D02*
X315Y134D01*
X336Y134D02*
X342Y134D01*
X359Y134D02*
X365Y134D01*
X373Y134D02*
X379Y134D01*
X412Y134D02*
X419Y134D01*
X437Y134D02*
X443Y134D01*
X503Y134D02*
X509Y134D01*
X531Y134D02*
X537Y134D01*
X553Y134D02*
X559Y134D01*
X567Y134D02*
X573Y134D01*
X581Y134D02*
X587Y134D01*
X751Y134D02*
X758Y134D01*
X763Y134D02*
X769Y134D01*
X820Y134D02*
X827Y134D01*
X845Y134D02*
X852Y134D01*
X871Y134D02*
X877Y134D01*
X960Y134D02*
X993Y134D01*
X1010Y134D02*
X1017Y134D01*
X1037Y134D02*
X1043Y134D01*
X1061Y134D02*
X1092Y134D01*
X1167Y134D02*
X1200Y134D01*
X1217Y134D02*
X1250Y134D01*
X1267Y134D02*
X1273Y134D01*
X1295Y134D02*
X1300Y134D01*
X1371Y134D02*
X1378Y134D01*
X0Y133D02*
X7Y133D01*
X23Y133D02*
X30Y133D01*
X309Y133D02*
X315Y133D01*
X336Y133D02*
X342Y133D01*
X359Y133D02*
X365Y133D01*
X373Y133D02*
X379Y133D01*
X411Y133D02*
X419Y133D01*
X437Y133D02*
X443Y133D01*
X503Y133D02*
X509Y133D01*
X531Y133D02*
X537Y133D01*
X553Y133D02*
X560Y133D01*
X567Y133D02*
X574Y133D01*
X581Y133D02*
X587Y133D01*
X751Y133D02*
X774Y133D01*
X795Y133D02*
X827Y133D01*
X844Y133D02*
X852Y133D01*
X871Y133D02*
X877Y133D01*
X959Y133D02*
X993Y133D01*
X1010Y133D02*
X1017Y133D01*
X1037Y133D02*
X1043Y133D01*
X1061Y133D02*
X1091Y133D01*
X1167Y133D02*
X1200Y133D01*
X1217Y133D02*
X1250Y133D01*
X1267Y133D02*
X1273Y133D01*
X1295Y133D02*
X1300Y133D01*
X1371Y133D02*
X1378Y133D01*
X0Y132D02*
X7Y132D01*
X23Y132D02*
X30Y132D01*
X309Y132D02*
X315Y132D01*
X336Y132D02*
X342Y132D01*
X359Y132D02*
X365Y132D01*
X373Y132D02*
X379Y132D01*
X411Y132D02*
X418Y132D01*
X437Y132D02*
X443Y132D01*
X503Y132D02*
X509Y132D01*
X531Y132D02*
X537Y132D01*
X553Y132D02*
X560Y132D01*
X566Y132D02*
X574Y132D01*
X580Y132D02*
X587Y132D01*
X752Y132D02*
X775Y132D01*
X794Y132D02*
X827Y132D01*
X844Y132D02*
X851Y132D01*
X871Y132D02*
X877Y132D01*
X959Y132D02*
X993Y132D01*
X1009Y132D02*
X1016Y132D01*
X1037Y132D02*
X1043Y132D01*
X1062Y132D02*
X1091Y132D01*
X1168Y132D02*
X1200Y132D01*
X1218Y132D02*
X1249Y132D01*
X1268Y132D02*
X1272Y132D01*
X1296Y132D02*
X1299Y132D01*
X1371Y132D02*
X1378Y132D01*
X0Y131D02*
X7Y131D01*
X23Y131D02*
X30Y131D01*
X309Y131D02*
X342Y131D01*
X359Y131D02*
X391Y131D01*
X410Y131D02*
X417Y131D01*
X437Y131D02*
X443Y131D01*
X503Y131D02*
X509Y131D01*
X531Y131D02*
X537Y131D01*
X554Y131D02*
X561Y131D01*
X566Y131D02*
X575Y131D01*
X579Y131D02*
X587Y131D01*
X752Y131D02*
X776Y131D01*
X793Y131D02*
X827Y131D01*
X843Y131D02*
X850Y131D01*
X871Y131D02*
X877Y131D01*
X959Y131D02*
X993Y131D01*
X1009Y131D02*
X1015Y131D01*
X1037Y131D02*
X1043Y131D01*
X1063Y131D02*
X1090Y131D01*
X1371Y131D02*
X1378Y131D01*
X0Y130D02*
X7Y130D01*
X23Y130D02*
X30Y130D01*
X309Y130D02*
X342Y130D01*
X359Y130D02*
X392Y130D01*
X410Y130D02*
X417Y130D01*
X437Y130D02*
X443Y130D01*
X503Y130D02*
X509Y130D01*
X531Y130D02*
X537Y130D01*
X555Y130D02*
X586Y130D01*
X753Y130D02*
X776Y130D01*
X793Y130D02*
X827Y130D01*
X843Y130D02*
X850Y130D01*
X871Y130D02*
X877Y130D01*
X960Y130D02*
X993Y130D01*
X1010Y130D02*
X1015Y130D01*
X1037Y130D02*
X1042Y130D01*
X1064Y130D02*
X1088Y130D01*
X1371Y130D02*
X1378Y130D01*
X0Y129D02*
X7Y129D01*
X23Y129D02*
X30Y129D01*
X309Y129D02*
X342Y129D01*
X359Y129D02*
X392Y129D01*
X409Y129D02*
X416Y129D01*
X437Y129D02*
X443Y129D01*
X503Y129D02*
X509Y129D01*
X531Y129D02*
X537Y129D01*
X555Y129D02*
X585Y129D01*
X754Y129D02*
X776Y129D01*
X793Y129D02*
X827Y129D01*
X843Y129D02*
X849Y129D01*
X871Y129D02*
X877Y129D01*
X961Y129D02*
X993Y129D01*
X1011Y129D02*
X1014Y129D01*
X1038Y129D02*
X1041Y129D01*
X1066Y129D02*
X1087Y129D01*
X1371Y129D02*
X1378Y129D01*
X0Y128D02*
X7Y128D01*
X23Y128D02*
X30Y128D01*
X310Y128D02*
X341Y128D01*
X359Y128D02*
X392Y128D01*
X409Y128D02*
X416Y128D01*
X437Y128D02*
X443Y128D01*
X503Y128D02*
X509Y128D01*
X531Y128D02*
X537Y128D01*
X556Y128D02*
X585Y128D01*
X755Y128D02*
X776Y128D01*
X794Y128D02*
X827Y128D01*
X844Y128D02*
X849Y128D01*
X871Y128D02*
X876Y128D01*
X1371Y128D02*
X1378Y128D01*
X0Y127D02*
X7Y127D01*
X23Y127D02*
X30Y127D01*
X310Y127D02*
X341Y127D01*
X359Y127D02*
X392Y127D01*
X409Y127D02*
X415Y127D01*
X437Y127D02*
X442Y127D01*
X503Y127D02*
X509Y127D01*
X531Y127D02*
X537Y127D01*
X556Y127D02*
X584Y127D01*
X757Y127D02*
X775Y127D01*
X794Y127D02*
X827Y127D01*
X845Y127D02*
X848Y127D01*
X872Y127D02*
X875Y127D01*
X1371Y127D02*
X1378Y127D01*
X0Y126D02*
X7Y126D01*
X23Y126D02*
X30Y126D01*
X311Y126D02*
X340Y126D01*
X359Y126D02*
X392Y126D01*
X410Y126D02*
X414Y126D01*
X437Y126D02*
X442Y126D01*
X503Y126D02*
X509Y126D01*
X531Y126D02*
X537Y126D01*
X557Y126D02*
X584Y126D01*
X1140Y126D02*
X1339Y126D01*
X1371Y126D02*
X1378Y126D01*
X0Y125D02*
X7Y125D01*
X23Y125D02*
X30Y125D01*
X313Y125D02*
X338Y125D01*
X361Y125D02*
X391Y125D01*
X411Y125D02*
X413Y125D01*
X438Y125D02*
X441Y125D01*
X504Y125D02*
X509Y125D01*
X531Y125D02*
X536Y125D01*
X558Y125D02*
X569Y125D01*
X571Y125D02*
X583Y125D01*
X1140Y125D02*
X1339Y125D01*
X1371Y125D02*
X1378Y125D01*
X0Y124D02*
X7Y124D01*
X23Y124D02*
X30Y124D01*
X505Y124D02*
X508Y124D01*
X532Y124D02*
X535Y124D01*
X559Y124D02*
X568Y124D01*
X572Y124D02*
X582Y124D01*
X872Y124D02*
X875Y124D01*
X1140Y124D02*
X1339Y124D01*
X1371Y124D02*
X1378Y124D01*
X0Y123D02*
X7Y123D01*
X23Y123D02*
X30Y123D01*
X871Y123D02*
X876Y123D01*
X1140Y123D02*
X1141Y123D01*
X1215Y123D02*
X1263Y123D01*
X1337Y123D02*
X1339Y123D01*
X1371Y123D02*
X1378Y123D01*
X0Y122D02*
X7Y122D01*
X23Y122D02*
X30Y122D01*
X870Y122D02*
X877Y122D01*
X1140Y122D02*
X1141Y122D01*
X1337Y122D02*
X1339Y122D01*
X1371Y122D02*
X1378Y122D01*
X0Y121D02*
X7Y121D01*
X23Y121D02*
X30Y121D01*
X870Y121D02*
X877Y121D01*
X1140Y121D02*
X1141Y121D01*
X1337Y121D02*
X1339Y121D01*
X1371Y121D02*
X1378Y121D01*
X0Y120D02*
X7Y120D01*
X23Y120D02*
X30Y120D01*
X233Y120D02*
X433Y120D01*
X870Y120D02*
X877Y120D01*
X1140Y120D02*
X1141Y120D01*
X1337Y120D02*
X1339Y120D01*
X1371Y120D02*
X1378Y120D01*
X0Y119D02*
X7Y119D01*
X23Y119D02*
X30Y119D01*
X233Y119D02*
X433Y119D01*
X870Y119D02*
X877Y119D01*
X1140Y119D02*
X1141Y119D01*
X1337Y119D02*
X1339Y119D01*
X1371Y119D02*
X1378Y119D01*
X0Y118D02*
X7Y118D01*
X23Y118D02*
X30Y118D01*
X233Y118D02*
X433Y118D01*
X870Y118D02*
X877Y118D01*
X1140Y118D02*
X1141Y118D01*
X1337Y118D02*
X1339Y118D01*
X1371Y118D02*
X1378Y118D01*
X0Y117D02*
X7Y117D01*
X23Y117D02*
X30Y117D01*
X233Y117D02*
X235Y117D01*
X309Y117D02*
X357Y117D01*
X431Y117D02*
X433Y117D01*
X870Y117D02*
X877Y117D01*
X1140Y117D02*
X1141Y117D01*
X1337Y117D02*
X1339Y117D01*
X1371Y117D02*
X1378Y117D01*
X0Y116D02*
X7Y116D01*
X23Y116D02*
X30Y116D01*
X233Y116D02*
X235Y116D01*
X431Y116D02*
X433Y116D01*
X870Y116D02*
X877Y116D01*
X1140Y116D02*
X1141Y116D01*
X1337Y116D02*
X1339Y116D01*
X1371Y116D02*
X1378Y116D01*
X0Y115D02*
X7Y115D01*
X23Y115D02*
X30Y115D01*
X233Y115D02*
X235Y115D01*
X431Y115D02*
X433Y115D01*
X870Y115D02*
X877Y115D01*
X1140Y115D02*
X1141Y115D01*
X1337Y115D02*
X1339Y115D01*
X1371Y115D02*
X1378Y115D01*
X0Y114D02*
X7Y114D01*
X23Y114D02*
X30Y114D01*
X233Y114D02*
X235Y114D01*
X431Y114D02*
X433Y114D01*
X870Y114D02*
X877Y114D01*
X1140Y114D02*
X1141Y114D01*
X1337Y114D02*
X1339Y114D01*
X1371Y114D02*
X1378Y114D01*
X0Y113D02*
X7Y113D01*
X23Y113D02*
X30Y113D01*
X233Y113D02*
X235Y113D01*
X431Y113D02*
X433Y113D01*
X870Y113D02*
X877Y113D01*
X1140Y113D02*
X1141Y113D01*
X1337Y113D02*
X1339Y113D01*
X1371Y113D02*
X1378Y113D01*
X0Y112D02*
X7Y112D01*
X23Y112D02*
X30Y112D01*
X233Y112D02*
X235Y112D01*
X431Y112D02*
X433Y112D01*
X870Y112D02*
X877Y112D01*
X1140Y112D02*
X1141Y112D01*
X1337Y112D02*
X1339Y112D01*
X1371Y112D02*
X1378Y112D01*
X0Y111D02*
X7Y111D01*
X23Y111D02*
X30Y111D01*
X233Y111D02*
X235Y111D01*
X431Y111D02*
X433Y111D01*
X870Y111D02*
X877Y111D01*
X1140Y111D02*
X1141Y111D01*
X1337Y111D02*
X1339Y111D01*
X1371Y111D02*
X1378Y111D01*
X0Y110D02*
X7Y110D01*
X23Y110D02*
X30Y110D01*
X233Y110D02*
X235Y110D01*
X431Y110D02*
X433Y110D01*
X870Y110D02*
X877Y110D01*
X1140Y110D02*
X1141Y110D01*
X1337Y110D02*
X1339Y110D01*
X1371Y110D02*
X1378Y110D01*
X0Y109D02*
X7Y109D01*
X23Y109D02*
X30Y109D01*
X233Y109D02*
X235Y109D01*
X431Y109D02*
X433Y109D01*
X870Y109D02*
X877Y109D01*
X1140Y109D02*
X1141Y109D01*
X1337Y109D02*
X1339Y109D01*
X1371Y109D02*
X1378Y109D01*
X0Y108D02*
X7Y108D01*
X23Y108D02*
X30Y108D01*
X233Y108D02*
X235Y108D01*
X431Y108D02*
X433Y108D01*
X870Y108D02*
X877Y108D01*
X1140Y108D02*
X1141Y108D01*
X1337Y108D02*
X1339Y108D01*
X1371Y108D02*
X1378Y108D01*
X0Y107D02*
X7Y107D01*
X23Y107D02*
X30Y107D01*
X233Y107D02*
X235Y107D01*
X431Y107D02*
X433Y107D01*
X870Y107D02*
X877Y107D01*
X1140Y107D02*
X1141Y107D01*
X1337Y107D02*
X1339Y107D01*
X1371Y107D02*
X1378Y107D01*
X0Y106D02*
X7Y106D01*
X23Y106D02*
X30Y106D01*
X233Y106D02*
X235Y106D01*
X431Y106D02*
X433Y106D01*
X870Y106D02*
X877Y106D01*
X1140Y106D02*
X1141Y106D01*
X1337Y106D02*
X1339Y106D01*
X1371Y106D02*
X1378Y106D01*
X0Y105D02*
X7Y105D01*
X23Y105D02*
X30Y105D01*
X233Y105D02*
X235Y105D01*
X431Y105D02*
X433Y105D01*
X870Y105D02*
X877Y105D01*
X1140Y105D02*
X1141Y105D01*
X1337Y105D02*
X1339Y105D01*
X1371Y105D02*
X1378Y105D01*
X0Y104D02*
X7Y104D01*
X23Y104D02*
X30Y104D01*
X233Y104D02*
X235Y104D01*
X431Y104D02*
X433Y104D01*
X870Y104D02*
X877Y104D01*
X1140Y104D02*
X1141Y104D01*
X1337Y104D02*
X1339Y104D01*
X1371Y104D02*
X1378Y104D01*
X0Y103D02*
X7Y103D01*
X23Y103D02*
X30Y103D01*
X233Y103D02*
X235Y103D01*
X431Y103D02*
X433Y103D01*
X870Y103D02*
X877Y103D01*
X1140Y103D02*
X1141Y103D01*
X1337Y103D02*
X1339Y103D01*
X1371Y103D02*
X1378Y103D01*
X0Y102D02*
X7Y102D01*
X23Y102D02*
X30Y102D01*
X233Y102D02*
X235Y102D01*
X431Y102D02*
X433Y102D01*
X870Y102D02*
X877Y102D01*
X1140Y102D02*
X1141Y102D01*
X1337Y102D02*
X1339Y102D01*
X1371Y102D02*
X1378Y102D01*
X0Y101D02*
X7Y101D01*
X23Y101D02*
X30Y101D01*
X233Y101D02*
X235Y101D01*
X431Y101D02*
X433Y101D01*
X870Y101D02*
X877Y101D01*
X1140Y101D02*
X1141Y101D01*
X1337Y101D02*
X1339Y101D01*
X1371Y101D02*
X1378Y101D01*
X0Y100D02*
X7Y100D01*
X23Y100D02*
X30Y100D01*
X233Y100D02*
X235Y100D01*
X431Y100D02*
X433Y100D01*
X870Y100D02*
X877Y100D01*
X1140Y100D02*
X1141Y100D01*
X1337Y100D02*
X1339Y100D01*
X1371Y100D02*
X1378Y100D01*
X0Y99D02*
X7Y99D01*
X23Y99D02*
X30Y99D01*
X233Y99D02*
X235Y99D01*
X431Y99D02*
X433Y99D01*
X870Y99D02*
X877Y99D01*
X1140Y99D02*
X1141Y99D01*
X1337Y99D02*
X1339Y99D01*
X1371Y99D02*
X1378Y99D01*
X0Y98D02*
X7Y98D01*
X23Y98D02*
X30Y98D01*
X233Y98D02*
X235Y98D01*
X431Y98D02*
X433Y98D01*
X870Y98D02*
X877Y98D01*
X1140Y98D02*
X1141Y98D01*
X1337Y98D02*
X1339Y98D01*
X1371Y98D02*
X1378Y98D01*
X0Y97D02*
X7Y97D01*
X23Y97D02*
X30Y97D01*
X233Y97D02*
X235Y97D01*
X431Y97D02*
X433Y97D01*
X870Y97D02*
X877Y97D01*
X1140Y97D02*
X1141Y97D01*
X1337Y97D02*
X1339Y97D01*
X1371Y97D02*
X1378Y97D01*
X0Y96D02*
X7Y96D01*
X23Y96D02*
X30Y96D01*
X233Y96D02*
X235Y96D01*
X431Y96D02*
X433Y96D01*
X870Y96D02*
X877Y96D01*
X1140Y96D02*
X1141Y96D01*
X1337Y96D02*
X1339Y96D01*
X1371Y96D02*
X1378Y96D01*
X0Y95D02*
X7Y95D01*
X23Y95D02*
X30Y95D01*
X233Y95D02*
X235Y95D01*
X431Y95D02*
X433Y95D01*
X870Y95D02*
X877Y95D01*
X1140Y95D02*
X1141Y95D01*
X1337Y95D02*
X1339Y95D01*
X1371Y95D02*
X1378Y95D01*
X0Y94D02*
X7Y94D01*
X23Y94D02*
X30Y94D01*
X233Y94D02*
X235Y94D01*
X431Y94D02*
X433Y94D01*
X870Y94D02*
X877Y94D01*
X1140Y94D02*
X1141Y94D01*
X1337Y94D02*
X1339Y94D01*
X1371Y94D02*
X1378Y94D01*
X0Y93D02*
X7Y93D01*
X23Y93D02*
X30Y93D01*
X233Y93D02*
X235Y93D01*
X431Y93D02*
X433Y93D01*
X870Y93D02*
X877Y93D01*
X1140Y93D02*
X1141Y93D01*
X1337Y93D02*
X1339Y93D01*
X1371Y93D02*
X1378Y93D01*
X0Y92D02*
X7Y92D01*
X23Y92D02*
X30Y92D01*
X233Y92D02*
X235Y92D01*
X431Y92D02*
X433Y92D01*
X870Y92D02*
X877Y92D01*
X1140Y92D02*
X1141Y92D01*
X1337Y92D02*
X1339Y92D01*
X1371Y92D02*
X1378Y92D01*
X0Y91D02*
X7Y91D01*
X23Y91D02*
X30Y91D01*
X233Y91D02*
X235Y91D01*
X431Y91D02*
X433Y91D01*
X870Y91D02*
X877Y91D01*
X1140Y91D02*
X1141Y91D01*
X1337Y91D02*
X1339Y91D01*
X1371Y91D02*
X1378Y91D01*
X0Y90D02*
X7Y90D01*
X23Y90D02*
X30Y90D01*
X233Y90D02*
X235Y90D01*
X431Y90D02*
X433Y90D01*
X870Y90D02*
X877Y90D01*
X1140Y90D02*
X1141Y90D01*
X1337Y90D02*
X1339Y90D01*
X1371Y90D02*
X1378Y90D01*
X0Y89D02*
X7Y89D01*
X23Y89D02*
X30Y89D01*
X233Y89D02*
X235Y89D01*
X431Y89D02*
X433Y89D01*
X870Y89D02*
X877Y89D01*
X1140Y89D02*
X1141Y89D01*
X1337Y89D02*
X1339Y89D01*
X1371Y89D02*
X1378Y89D01*
X0Y88D02*
X7Y88D01*
X23Y88D02*
X30Y88D01*
X233Y88D02*
X235Y88D01*
X431Y88D02*
X433Y88D01*
X870Y88D02*
X877Y88D01*
X1140Y88D02*
X1141Y88D01*
X1337Y88D02*
X1339Y88D01*
X1371Y88D02*
X1378Y88D01*
X0Y87D02*
X7Y87D01*
X23Y87D02*
X30Y87D01*
X233Y87D02*
X235Y87D01*
X431Y87D02*
X433Y87D01*
X870Y87D02*
X877Y87D01*
X1140Y87D02*
X1141Y87D01*
X1337Y87D02*
X1339Y87D01*
X1371Y87D02*
X1378Y87D01*
X0Y86D02*
X7Y86D01*
X23Y86D02*
X30Y86D01*
X233Y86D02*
X235Y86D01*
X431Y86D02*
X433Y86D01*
X870Y86D02*
X877Y86D01*
X1140Y86D02*
X1141Y86D01*
X1337Y86D02*
X1339Y86D01*
X1371Y86D02*
X1378Y86D01*
X0Y85D02*
X7Y85D01*
X23Y85D02*
X30Y85D01*
X233Y85D02*
X235Y85D01*
X431Y85D02*
X433Y85D01*
X870Y85D02*
X877Y85D01*
X1140Y85D02*
X1141Y85D01*
X1337Y85D02*
X1339Y85D01*
X1371Y85D02*
X1378Y85D01*
X0Y84D02*
X7Y84D01*
X23Y84D02*
X30Y84D01*
X233Y84D02*
X235Y84D01*
X431Y84D02*
X433Y84D01*
X870Y84D02*
X877Y84D01*
X1140Y84D02*
X1141Y84D01*
X1337Y84D02*
X1339Y84D01*
X1371Y84D02*
X1378Y84D01*
X0Y83D02*
X7Y83D01*
X23Y83D02*
X30Y83D01*
X233Y83D02*
X235Y83D01*
X431Y83D02*
X433Y83D01*
X870Y83D02*
X877Y83D01*
X1140Y83D02*
X1141Y83D01*
X1337Y83D02*
X1339Y83D01*
X1371Y83D02*
X1378Y83D01*
X0Y82D02*
X7Y82D01*
X23Y82D02*
X30Y82D01*
X233Y82D02*
X235Y82D01*
X431Y82D02*
X433Y82D01*
X870Y82D02*
X877Y82D01*
X1140Y82D02*
X1141Y82D01*
X1337Y82D02*
X1339Y82D01*
X1371Y82D02*
X1378Y82D01*
X0Y81D02*
X7Y81D01*
X23Y81D02*
X30Y81D01*
X233Y81D02*
X235Y81D01*
X431Y81D02*
X433Y81D01*
X870Y81D02*
X877Y81D01*
X1140Y81D02*
X1141Y81D01*
X1337Y81D02*
X1339Y81D01*
X1371Y81D02*
X1378Y81D01*
X0Y80D02*
X7Y80D01*
X23Y80D02*
X30Y80D01*
X233Y80D02*
X235Y80D01*
X431Y80D02*
X433Y80D01*
X870Y80D02*
X877Y80D01*
X1140Y80D02*
X1141Y80D01*
X1337Y80D02*
X1339Y80D01*
X1371Y80D02*
X1378Y80D01*
X0Y79D02*
X7Y79D01*
X23Y79D02*
X30Y79D01*
X233Y79D02*
X235Y79D01*
X431Y79D02*
X433Y79D01*
X870Y79D02*
X877Y79D01*
X1140Y79D02*
X1141Y79D01*
X1337Y79D02*
X1339Y79D01*
X1371Y79D02*
X1378Y79D01*
X0Y78D02*
X7Y78D01*
X23Y78D02*
X30Y78D01*
X233Y78D02*
X235Y78D01*
X431Y78D02*
X433Y78D01*
X870Y78D02*
X877Y78D01*
X1140Y78D02*
X1141Y78D01*
X1337Y78D02*
X1339Y78D01*
X1371Y78D02*
X1378Y78D01*
X0Y77D02*
X7Y77D01*
X23Y77D02*
X30Y77D01*
X233Y77D02*
X235Y77D01*
X431Y77D02*
X433Y77D01*
X870Y77D02*
X877Y77D01*
X1140Y77D02*
X1141Y77D01*
X1337Y77D02*
X1339Y77D01*
X1371Y77D02*
X1378Y77D01*
X0Y76D02*
X7Y76D01*
X23Y76D02*
X30Y76D01*
X147Y76D02*
X197Y76D01*
X233Y76D02*
X235Y76D01*
X431Y76D02*
X433Y76D01*
X870Y76D02*
X877Y76D01*
X1140Y76D02*
X1141Y76D01*
X1337Y76D02*
X1339Y76D01*
X1371Y76D02*
X1378Y76D01*
X0Y75D02*
X7Y75D01*
X23Y75D02*
X30Y75D01*
X146Y75D02*
X198Y75D01*
X233Y75D02*
X235Y75D01*
X431Y75D02*
X433Y75D01*
X870Y75D02*
X877Y75D01*
X1140Y75D02*
X1141Y75D01*
X1337Y75D02*
X1339Y75D01*
X1371Y75D02*
X1378Y75D01*
X0Y74D02*
X7Y74D01*
X23Y74D02*
X30Y74D01*
X146Y74D02*
X199Y74D01*
X233Y74D02*
X235Y74D01*
X431Y74D02*
X433Y74D01*
X870Y74D02*
X877Y74D01*
X1140Y74D02*
X1141Y74D01*
X1337Y74D02*
X1339Y74D01*
X1371Y74D02*
X1378Y74D01*
X0Y73D02*
X7Y73D01*
X23Y73D02*
X30Y73D01*
X146Y73D02*
X199Y73D01*
X233Y73D02*
X235Y73D01*
X431Y73D02*
X433Y73D01*
X870Y73D02*
X877Y73D01*
X1140Y73D02*
X1141Y73D01*
X1337Y73D02*
X1339Y73D01*
X1371Y73D02*
X1378Y73D01*
X0Y72D02*
X7Y72D01*
X23Y72D02*
X30Y72D01*
X146Y72D02*
X199Y72D01*
X233Y72D02*
X235Y72D01*
X431Y72D02*
X433Y72D01*
X870Y72D02*
X877Y72D01*
X1140Y72D02*
X1141Y72D01*
X1337Y72D02*
X1339Y72D01*
X1371Y72D02*
X1378Y72D01*
X0Y71D02*
X7Y71D01*
X24Y71D02*
X30Y71D01*
X146Y71D02*
X199Y71D01*
X233Y71D02*
X235Y71D01*
X431Y71D02*
X433Y71D01*
X870Y71D02*
X877Y71D01*
X1140Y71D02*
X1141Y71D01*
X1337Y71D02*
X1339Y71D01*
X1371Y71D02*
X1378Y71D01*
X0Y70D02*
X7Y70D01*
X24Y70D02*
X29Y70D01*
X146Y70D02*
X199Y70D01*
X233Y70D02*
X235Y70D01*
X431Y70D02*
X433Y70D01*
X870Y70D02*
X877Y70D01*
X1140Y70D02*
X1141Y70D01*
X1337Y70D02*
X1339Y70D01*
X1371Y70D02*
X1378Y70D01*
X0Y69D02*
X7Y69D01*
X25Y69D02*
X28Y69D01*
X145Y69D02*
X198Y69D01*
X233Y69D02*
X235Y69D01*
X431Y69D02*
X433Y69D01*
X870Y69D02*
X877Y69D01*
X1140Y69D02*
X1141Y69D01*
X1337Y69D02*
X1339Y69D01*
X1371Y69D02*
X1378Y69D01*
X0Y68D02*
X7Y68D01*
X233Y68D02*
X235Y68D01*
X431Y68D02*
X433Y68D01*
X870Y68D02*
X877Y68D01*
X1140Y68D02*
X1141Y68D01*
X1337Y68D02*
X1339Y68D01*
X1371Y68D02*
X1378Y68D01*
X0Y67D02*
X7Y67D01*
X233Y67D02*
X235Y67D01*
X431Y67D02*
X433Y67D01*
X870Y67D02*
X877Y67D01*
X1140Y67D02*
X1141Y67D01*
X1337Y67D02*
X1339Y67D01*
X1371Y67D02*
X1378Y67D01*
X0Y66D02*
X7Y66D01*
X233Y66D02*
X235Y66D01*
X431Y66D02*
X433Y66D01*
X870Y66D02*
X877Y66D01*
X1140Y66D02*
X1141Y66D01*
X1337Y66D02*
X1339Y66D01*
X1371Y66D02*
X1378Y66D01*
X0Y65D02*
X7Y65D01*
X233Y65D02*
X235Y65D01*
X431Y65D02*
X433Y65D01*
X870Y65D02*
X877Y65D01*
X1140Y65D02*
X1141Y65D01*
X1337Y65D02*
X1339Y65D01*
X1371Y65D02*
X1378Y65D01*
X0Y64D02*
X7Y64D01*
X233Y64D02*
X235Y64D01*
X431Y64D02*
X433Y64D01*
X870Y64D02*
X877Y64D01*
X1140Y64D02*
X1141Y64D01*
X1337Y64D02*
X1339Y64D01*
X1371Y64D02*
X1378Y64D01*
X0Y63D02*
X7Y63D01*
X233Y63D02*
X235Y63D01*
X431Y63D02*
X433Y63D01*
X870Y63D02*
X877Y63D01*
X1140Y63D02*
X1141Y63D01*
X1337Y63D02*
X1339Y63D01*
X1371Y63D02*
X1378Y63D01*
X0Y62D02*
X7Y62D01*
X233Y62D02*
X235Y62D01*
X431Y62D02*
X433Y62D01*
X870Y62D02*
X877Y62D01*
X1140Y62D02*
X1141Y62D01*
X1337Y62D02*
X1339Y62D01*
X1371Y62D02*
X1378Y62D01*
X0Y61D02*
X7Y61D01*
X233Y61D02*
X235Y61D01*
X431Y61D02*
X433Y61D01*
X870Y61D02*
X877Y61D01*
X1140Y61D02*
X1141Y61D01*
X1337Y61D02*
X1339Y61D01*
X1371Y61D02*
X1378Y61D01*
X0Y60D02*
X7Y60D01*
X233Y60D02*
X235Y60D01*
X431Y60D02*
X433Y60D01*
X870Y60D02*
X877Y60D01*
X1140Y60D02*
X1141Y60D01*
X1337Y60D02*
X1339Y60D01*
X1371Y60D02*
X1378Y60D01*
X0Y59D02*
X7Y59D01*
X233Y59D02*
X235Y59D01*
X431Y59D02*
X433Y59D01*
X870Y59D02*
X877Y59D01*
X1140Y59D02*
X1141Y59D01*
X1337Y59D02*
X1339Y59D01*
X1371Y59D02*
X1378Y59D01*
X0Y58D02*
X7Y58D01*
X233Y58D02*
X235Y58D01*
X431Y58D02*
X433Y58D01*
X870Y58D02*
X877Y58D01*
X1140Y58D02*
X1141Y58D01*
X1337Y58D02*
X1339Y58D01*
X1371Y58D02*
X1378Y58D01*
X0Y57D02*
X7Y57D01*
X233Y57D02*
X235Y57D01*
X431Y57D02*
X433Y57D01*
X870Y57D02*
X877Y57D01*
X1140Y57D02*
X1141Y57D01*
X1337Y57D02*
X1339Y57D01*
X1371Y57D02*
X1378Y57D01*
X0Y56D02*
X7Y56D01*
X233Y56D02*
X235Y56D01*
X431Y56D02*
X433Y56D01*
X870Y56D02*
X876Y56D01*
X1140Y56D02*
X1141Y56D01*
X1337Y56D02*
X1339Y56D01*
X1371Y56D02*
X1378Y56D01*
X0Y55D02*
X7Y55D01*
X233Y55D02*
X235Y55D01*
X431Y55D02*
X433Y55D01*
X870Y55D02*
X875Y55D01*
X1140Y55D02*
X1141Y55D01*
X1337Y55D02*
X1339Y55D01*
X1371Y55D02*
X1378Y55D01*
X0Y54D02*
X7Y54D01*
X233Y54D02*
X235Y54D01*
X431Y54D02*
X433Y54D01*
X870Y54D02*
X875Y54D01*
X1140Y54D02*
X1141Y54D01*
X1337Y54D02*
X1339Y54D01*
X1371Y54D02*
X1378Y54D01*
X0Y53D02*
X7Y53D01*
X233Y53D02*
X235Y53D01*
X431Y53D02*
X433Y53D01*
X870Y53D02*
X875Y53D01*
X1140Y53D02*
X1141Y53D01*
X1337Y53D02*
X1339Y53D01*
X1371Y53D02*
X1378Y53D01*
X0Y52D02*
X7Y52D01*
X233Y52D02*
X235Y52D01*
X431Y52D02*
X433Y52D01*
X870Y52D02*
X874Y52D01*
X1140Y52D02*
X1141Y52D01*
X1337Y52D02*
X1339Y52D01*
X1371Y52D02*
X1378Y52D01*
X0Y51D02*
X7Y51D01*
X233Y51D02*
X235Y51D01*
X431Y51D02*
X433Y51D01*
X870Y51D02*
X874Y51D01*
X1140Y51D02*
X1141Y51D01*
X1337Y51D02*
X1339Y51D01*
X1371Y51D02*
X1378Y51D01*
X0Y50D02*
X7Y50D01*
X233Y50D02*
X235Y50D01*
X431Y50D02*
X433Y50D01*
X870Y50D02*
X874Y50D01*
X1140Y50D02*
X1141Y50D01*
X1337Y50D02*
X1339Y50D01*
X1371Y50D02*
X1378Y50D01*
X0Y49D02*
X7Y49D01*
X233Y49D02*
X235Y49D01*
X431Y49D02*
X433Y49D01*
X870Y49D02*
X873Y49D01*
X1140Y49D02*
X1141Y49D01*
X1337Y49D02*
X1339Y49D01*
X1371Y49D02*
X1378Y49D01*
X0Y48D02*
X7Y48D01*
X233Y48D02*
X235Y48D01*
X431Y48D02*
X433Y48D01*
X870Y48D02*
X873Y48D01*
X1140Y48D02*
X1141Y48D01*
X1337Y48D02*
X1339Y48D01*
X1371Y48D02*
X1378Y48D01*
X0Y47D02*
X7Y47D01*
X233Y47D02*
X235Y47D01*
X431Y47D02*
X433Y47D01*
X870Y47D02*
X873Y47D01*
X1140Y47D02*
X1141Y47D01*
X1337Y47D02*
X1339Y47D01*
X1371Y47D02*
X1378Y47D01*
X0Y46D02*
X7Y46D01*
X233Y46D02*
X235Y46D01*
X431Y46D02*
X433Y46D01*
X870Y46D02*
X873Y46D01*
X1140Y46D02*
X1141Y46D01*
X1337Y46D02*
X1339Y46D01*
X1371Y46D02*
X1378Y46D01*
X0Y45D02*
X7Y45D01*
X233Y45D02*
X235Y45D01*
X431Y45D02*
X433Y45D01*
X816Y45D02*
X873Y45D01*
X1140Y45D02*
X1141Y45D01*
X1337Y45D02*
X1339Y45D01*
X1371Y45D02*
X1378Y45D01*
X0Y44D02*
X7Y44D01*
X233Y44D02*
X235Y44D01*
X431Y44D02*
X433Y44D01*
X816Y44D02*
X873Y44D01*
X1140Y44D02*
X1141Y44D01*
X1337Y44D02*
X1339Y44D01*
X1371Y44D02*
X1378Y44D01*
X0Y43D02*
X7Y43D01*
X233Y43D02*
X235Y43D01*
X431Y43D02*
X433Y43D01*
X815Y43D02*
X873Y43D01*
X1140Y43D02*
X1141Y43D01*
X1337Y43D02*
X1339Y43D01*
X1371Y43D02*
X1378Y43D01*
X0Y42D02*
X7Y42D01*
X233Y42D02*
X235Y42D01*
X431Y42D02*
X433Y42D01*
X815Y42D02*
X873Y42D01*
X1140Y42D02*
X1141Y42D01*
X1337Y42D02*
X1339Y42D01*
X1371Y42D02*
X1378Y42D01*
X0Y41D02*
X7Y41D01*
X233Y41D02*
X235Y41D01*
X431Y41D02*
X433Y41D01*
X815Y41D02*
X873Y41D01*
X1140Y41D02*
X1141Y41D01*
X1337Y41D02*
X1339Y41D01*
X1371Y41D02*
X1378Y41D01*
X0Y40D02*
X7Y40D01*
X233Y40D02*
X235Y40D01*
X431Y40D02*
X433Y40D01*
X815Y40D02*
X873Y40D01*
X1140Y40D02*
X1141Y40D01*
X1337Y40D02*
X1339Y40D01*
X1371Y40D02*
X1378Y40D01*
X0Y39D02*
X7Y39D01*
X233Y39D02*
X235Y39D01*
X431Y39D02*
X433Y39D01*
X816Y39D02*
X873Y39D01*
X1140Y39D02*
X1142Y39D01*
X1215Y39D02*
X1264Y39D01*
X1337Y39D02*
X1339Y39D01*
X1371Y39D02*
X1378Y39D01*
X0Y38D02*
X7Y38D01*
X233Y38D02*
X235Y38D01*
X431Y38D02*
X433Y38D01*
X818Y38D02*
X874Y38D01*
X1140Y38D02*
X1339Y38D01*
X1371Y38D02*
X1378Y38D01*
X0Y37D02*
X7Y37D01*
X233Y37D02*
X235Y37D01*
X431Y37D02*
X433Y37D01*
X1140Y37D02*
X1339Y37D01*
X1371Y37D02*
X1378Y37D01*
X0Y36D02*
X7Y36D01*
X233Y36D02*
X235Y36D01*
X431Y36D02*
X433Y36D01*
X1140Y36D02*
X1339Y36D01*
X1371Y36D02*
X1378Y36D01*
X0Y35D02*
X7Y35D01*
X233Y35D02*
X235Y35D01*
X431Y35D02*
X433Y35D01*
X1371Y35D02*
X1378Y35D01*
X0Y34D02*
X7Y34D01*
X233Y34D02*
X235Y34D01*
X309Y34D02*
X357Y34D01*
X431Y34D02*
X433Y34D01*
X1371Y34D02*
X1378Y34D01*
X0Y33D02*
X7Y33D01*
X233Y33D02*
X433Y33D01*
X1371Y33D02*
X1378Y33D01*
X0Y32D02*
X7Y32D01*
X233Y32D02*
X433Y32D01*
X1371Y32D02*
X1378Y32D01*
X0Y31D02*
X7Y31D01*
X233Y31D02*
X433Y31D01*
X1371Y31D02*
X1378Y31D01*
X0Y30D02*
X7Y30D01*
X1371Y30D02*
X1378Y30D01*
X0Y29D02*
X7Y29D01*
X1371Y29D02*
X1378Y29D01*
X0Y28D02*
X7Y28D01*
X1371Y28D02*
X1378Y28D01*
X0Y27D02*
X7Y27D01*
X1371Y27D02*
X1378Y27D01*
X0Y26D02*
X7Y26D01*
X1371Y26D02*
X1378Y26D01*
X0Y25D02*
X7Y25D01*
X1371Y25D02*
X1378Y25D01*
X0Y24D02*
X7Y24D01*
X1371Y24D02*
X1378Y24D01*
X0Y23D02*
X7Y23D01*
X1371Y23D02*
X1378Y23D01*
X0Y22D02*
X7Y22D01*
X1371Y22D02*
X1378Y22D01*
X0Y21D02*
X7Y21D01*
X1371Y21D02*
X1378Y21D01*
X0Y20D02*
X7Y20D01*
X1371Y20D02*
X1378Y20D01*
X0Y19D02*
X7Y19D01*
X1371Y19D02*
X1378Y19D01*
X0Y18D02*
X7Y18D01*
X1371Y18D02*
X1378Y18D01*
X0Y17D02*
X7Y17D01*
X1371Y17D02*
X1378Y17D01*
X0Y16D02*
X7Y16D01*
X1371Y16D02*
X1378Y16D01*
X0Y15D02*
X7Y15D01*
X1371Y15D02*
X1378Y15D01*
X0Y14D02*
X7Y14D01*
X1371Y14D02*
X1378Y14D01*
X0Y13D02*
X7Y13D01*
X1371Y13D02*
X1378Y13D01*
X0Y12D02*
X7Y12D01*
X1371Y12D02*
X1378Y12D01*
X0Y11D02*
X7Y11D01*
X1371Y11D02*
X1378Y11D01*
X0Y10D02*
X7Y10D01*
X1371Y10D02*
X1378Y10D01*
X0Y9D02*
X41Y9D01*
X127Y9D02*
X1378Y9D01*
X0Y8D02*
X1378Y8D01*
X0Y7D02*
X1378Y7D01*
X0Y6D02*
X1378Y6D01*
X0Y5D02*
X1378Y5D01*
X0Y4D02*
X1378Y4D01*
X0Y3D02*
X1378Y3D01*
X0Y2D02*
X1378Y2D01*
D02*
G04 End of Silk0*
M02*