G04 MADE WITH FRITZING*
G04 WWW.FRITZING.ORG*
G04 DOUBLE SIDED*
G04 HOLES PLATED*
G04 CONTOUR ON CENTER OF CONTOUR VECTOR*
%ASAXBY*%
%FSLAX23Y23*%
%MOIN*%
%OFA0B0*%
%SFA1.0B1.0*%
%ADD10C,0.049370*%
%ADD11C,0.079444*%
%ADD12C,0.069055*%
%ADD13C,0.116299*%
%ADD14C,0.072992*%
%ADD15C,0.088000*%
%ADD16C,0.085000*%
%ADD17R,0.057244X0.031654*%
%ADD18R,0.072992X0.080866*%
%ADD19R,0.072992X0.084803*%
%ADD20R,0.090000X0.036000*%
%ADD21R,0.085000X0.085000*%
%ADD22R,0.084803X0.072992*%
%LNMASK1*%
G90*
G70*
G54D10*
X1024Y507D03*
G54D11*
X878Y822D03*
X778Y822D03*
X678Y822D03*
X878Y822D03*
X778Y822D03*
X678Y822D03*
G54D10*
X938Y594D03*
X639Y554D03*
G54D12*
X135Y704D03*
X135Y625D03*
X135Y547D03*
G54D10*
X898Y43D03*
X39Y255D03*
G54D13*
X89Y80D03*
G54D14*
X135Y791D03*
X135Y460D03*
G54D13*
X89Y330D03*
G54D10*
X1026Y255D03*
X749Y397D03*
X473Y169D03*
X552Y342D03*
X1339Y161D03*
X347Y554D03*
G54D15*
X497Y722D03*
X497Y822D03*
X1264Y592D03*
X1264Y492D03*
X1264Y392D03*
X1264Y292D03*
X1139Y592D03*
X1139Y492D03*
X1139Y392D03*
X1139Y292D03*
G54D16*
X371Y791D03*
X271Y791D03*
X371Y791D03*
X271Y791D03*
X1080Y791D03*
X980Y791D03*
X1080Y791D03*
X980Y791D03*
X1308Y791D03*
X1208Y791D03*
X1308Y791D03*
X1208Y791D03*
G54D17*
X717Y669D03*
X717Y631D03*
X717Y594D03*
X820Y594D03*
X820Y669D03*
G54D18*
X1206Y688D03*
X1316Y688D03*
G54D19*
X332Y169D03*
X209Y169D03*
G54D17*
X426Y355D03*
X426Y392D03*
X426Y430D03*
X324Y430D03*
X324Y355D03*
G54D20*
X640Y505D03*
X640Y455D03*
X640Y405D03*
X640Y355D03*
X640Y305D03*
X640Y255D03*
X640Y205D03*
X901Y205D03*
X901Y255D03*
X901Y305D03*
X901Y355D03*
X901Y405D03*
X901Y455D03*
X901Y505D03*
G54D21*
X371Y791D03*
X371Y791D03*
X1080Y791D03*
X1080Y791D03*
X1308Y791D03*
X1308Y791D03*
G54D22*
X237Y547D03*
X237Y424D03*
G04 End of Mask1*
M02*