; NON-PLATED HOLES START AT T1
; THROUGH (PLATED) HOLES START AT T100
M48
INCH
T100C0.027559
T101C0.035000
T102C0.043307
T103C0.038000
T104C0.039370
T105C0.015748
T106C0.030556
%
T100
X001346Y007040
X001346Y005465
X001346Y006252
T101
X002709Y007906
X003709Y007906
X013079Y007906
X010795Y007906
X009795Y007906
X012079Y007906
T102
X000887Y003297
X000887Y000797
T103
X011387Y005922
X012637Y002922
X004968Y007221
X012637Y003922
X004968Y008221
X012637Y004922
X011387Y002922
X012637Y005922
X011387Y003922
X011387Y004922
T104
X001346Y004599
X001346Y007906
T105
X003472Y005544
X007488Y003969
X000387Y002547
X010262Y002547
X009378Y005937
X005520Y003418
X006386Y005544
X008984Y000425
X004732Y001685
X010239Y005071
X013394Y001606
T106
X008779Y008221
X007778Y008220
X006779Y008221
T00
M30
