G04 MADE WITH FRITZING*
G04 WWW.FRITZING.ORG*
G04 DOUBLE SIDED*
G04 HOLES PLATED*
G04 CONTOUR ON CENTER OF CONTOUR VECTOR*
%ASAXBY*%
%FSLAX23Y23*%
%MOIN*%
%OFA0B0*%
%SFA1.0B1.0*%
%ADD10C,0.049370*%
%ADD11C,0.079444*%
%ADD12C,0.069055*%
%ADD13C,0.116299*%
%ADD14C,0.072992*%
%ADD15C,0.088000*%
%ADD16C,0.085000*%
%ADD17R,0.080866X0.072992*%
%ADD18R,0.057244X0.065118*%
%ADD19R,0.072992X0.084803*%
%ADD20R,0.065118X0.023779*%
%ADD21R,0.084803X0.080866*%
%ADD22R,0.085000X0.085000*%
%LNMASK0*%
G90*
G70*
G54D10*
X1024Y507D03*
G54D11*
X878Y822D03*
X778Y822D03*
X678Y822D03*
X878Y822D03*
X778Y822D03*
X678Y822D03*
G54D10*
X938Y594D03*
X639Y554D03*
G54D12*
X135Y704D03*
X135Y625D03*
X135Y547D03*
G54D10*
X898Y43D03*
X39Y255D03*
G54D13*
X89Y80D03*
G54D14*
X135Y791D03*
X135Y460D03*
G54D13*
X89Y330D03*
G54D10*
X1026Y255D03*
X749Y397D03*
X473Y169D03*
X552Y342D03*
X1339Y161D03*
X347Y554D03*
G54D15*
X497Y722D03*
X497Y822D03*
X1264Y592D03*
X1264Y492D03*
X1264Y392D03*
X1264Y292D03*
X1139Y592D03*
X1139Y492D03*
X1139Y392D03*
X1139Y292D03*
G54D16*
X371Y791D03*
X271Y791D03*
X371Y791D03*
X271Y791D03*
X1080Y791D03*
X980Y791D03*
X1080Y791D03*
X980Y791D03*
X1308Y791D03*
X1208Y791D03*
X1308Y791D03*
X1208Y791D03*
G54D17*
X938Y523D03*
X938Y413D03*
X607Y720D03*
X607Y610D03*
G54D18*
X721Y80D03*
X839Y80D03*
X964Y80D03*
X1082Y80D03*
X489Y74D03*
X607Y74D03*
G54D19*
X476Y467D03*
X354Y467D03*
X1301Y80D03*
X1179Y80D03*
X725Y696D03*
X847Y696D03*
X395Y74D03*
X272Y74D03*
G54D20*
X189Y154D03*
X189Y256D03*
X189Y179D03*
X189Y205D03*
X189Y230D03*
G54D21*
X84Y47D03*
X84Y362D03*
G54D22*
X371Y791D03*
X371Y791D03*
X1080Y791D03*
X1080Y791D03*
X1308Y791D03*
X1308Y791D03*
G04 End of Mask0*
M02*