; NON-PLATED HOLES START AT T1
; THROUGH (PLATED) HOLES START AT T100
M48
INCH
T100C0.015748
T101C0.031496
T102C0.031497
T103C0.035000
T104C0.043307
T105C0.038000
T106C0.047244
%
T100
X006963Y004047
X000213Y002547
X007838Y004047
X013213Y001547
X007963Y003172
X007838Y005047
X003463Y004047
X002713Y004047
X010088Y002547
X009713Y004672
T101
X000675Y005797
X001463Y007372
X000675Y006585
X001463Y005797
X000675Y007372
X001463Y006585
T102
X005088Y003547
X005088Y006532
X005088Y004532
X005088Y005547
T103
X003838Y007922
X002838Y007922
X012838Y007922
X011838Y007922
X010588Y007922
X009588Y007922
T104
X000713Y000797
X000713Y003297
T105
X011213Y005922
X002963Y000672
X012463Y002922
X003963Y000672
X004963Y000672
X012463Y003922
X005088Y008047
X011213Y002922
X012463Y004922
X006088Y008047
X011213Y003922
X012463Y005922
X011213Y004922
T106
X001069Y004774
X001069Y008396
T00
M30
