G04 MADE WITH FRITZING*
G04 WWW.FRITZING.ORG*
G04 DOUBLE SIDED*
G04 HOLES PLATED*
G04 CONTOUR ON CENTER OF CONTOUR VECTOR*
%ASAXBY*%
%FSLAX23Y23*%
%MOIN*%
%OFA0B0*%
%SFA1.0B1.0*%
%ADD10C,0.039370*%
%ADD11C,0.051496*%
%ADD12C,0.067244*%
%ADD13C,0.106299*%
%ADD14C,0.062992*%
%ADD15C,0.078000*%
%ADD16C,0.075000*%
%ADD17R,0.062992X0.062992*%
%ADD18R,0.047244X0.055118*%
%ADD19R,0.062992X0.074803*%
%ADD20R,0.039370X0.118110*%
%ADD21R,0.055118X0.013780*%
%ADD22R,0.074803X0.070866*%
%ADD23R,0.075000X0.075000*%
%ADD24C,0.016000*%
%ADD25C,0.024000*%
%LNCOPPER0*%
G90*
G70*
G54D10*
X21Y255D03*
G54D11*
X68Y580D03*
X146Y580D03*
X68Y659D03*
X146Y659D03*
X68Y737D03*
X146Y737D03*
G54D12*
X107Y840D03*
X107Y477D03*
G54D13*
X71Y80D03*
X71Y330D03*
G54D10*
X346Y405D03*
G54D14*
X509Y453D03*
X509Y355D03*
X509Y653D03*
X509Y555D03*
G54D10*
X1009Y255D03*
X784Y405D03*
X796Y317D03*
X696Y405D03*
X971Y467D03*
X784Y505D03*
X1321Y155D03*
X271Y405D03*
G54D15*
X496Y67D03*
X396Y67D03*
X296Y67D03*
X509Y805D03*
X609Y805D03*
X1246Y592D03*
X1246Y492D03*
X1246Y392D03*
X1246Y292D03*
X1121Y592D03*
X1121Y492D03*
X1121Y392D03*
X1121Y292D03*
G54D16*
X384Y792D03*
X284Y792D03*
X1059Y792D03*
X959Y792D03*
X1284Y792D03*
X1184Y792D03*
G54D17*
X509Y453D03*
X509Y653D03*
G54D18*
X848Y809D03*
X730Y809D03*
G54D19*
X1221Y55D03*
X1099Y55D03*
X1221Y155D03*
X1099Y155D03*
X596Y205D03*
X474Y205D03*
X846Y705D03*
X724Y705D03*
G54D20*
X596Y67D03*
X696Y67D03*
X796Y67D03*
X896Y67D03*
G54D21*
X171Y154D03*
X171Y256D03*
X171Y179D03*
X171Y205D03*
X171Y230D03*
G54D22*
X67Y47D03*
X67Y362D03*
G54D23*
X384Y792D03*
X1059Y792D03*
X1284Y792D03*
G54D24*
X35Y255D02*
X149Y256D01*
G54D25*
D02*
X1195Y155D02*
X1125Y155D01*
G54D24*
D02*
X972Y154D02*
X971Y454D01*
D02*
X1073Y155D02*
X972Y154D01*
G54D25*
D02*
X1195Y55D02*
X1125Y55D01*
G54D24*
D02*
X1322Y54D02*
X1321Y141D01*
D02*
X1247Y55D02*
X1322Y54D01*
D02*
X397Y204D02*
X448Y205D01*
D02*
X596Y121D02*
X596Y173D01*
D02*
X583Y356D02*
X530Y355D01*
D02*
X583Y655D02*
X583Y356D01*
D02*
X530Y654D02*
X583Y655D01*
D02*
X959Y705D02*
X959Y769D01*
D02*
X884Y580D02*
X959Y705D01*
D02*
X796Y218D02*
X884Y217D01*
D02*
X884Y217D02*
X884Y455D01*
D02*
X734Y455D02*
X734Y580D01*
D02*
X884Y455D02*
X734Y455D01*
D02*
X734Y580D02*
X884Y580D01*
D02*
X796Y121D02*
X796Y218D01*
D02*
X582Y67D02*
X521Y67D01*
D02*
X696Y268D02*
X845Y268D01*
D02*
X845Y268D02*
X845Y404D01*
D02*
X845Y404D02*
X797Y405D01*
D02*
X696Y121D02*
X696Y268D01*
D02*
X1059Y705D02*
X1059Y769D01*
D02*
X921Y505D02*
X1059Y705D01*
D02*
X209Y779D02*
X164Y749D01*
D02*
X509Y868D02*
X209Y868D01*
D02*
X209Y868D02*
X209Y779D01*
D02*
X509Y829D02*
X509Y868D01*
D02*
X635Y280D02*
X634Y318D01*
D02*
X634Y318D02*
X783Y317D01*
D02*
X396Y280D02*
X635Y280D01*
D02*
X397Y204D02*
X396Y280D01*
D02*
X396Y92D02*
X397Y204D01*
D02*
X1046Y218D02*
X1322Y218D01*
D02*
X1322Y218D02*
X1322Y393D01*
D02*
X1322Y393D02*
X1271Y392D01*
D02*
X1045Y254D02*
X1046Y218D01*
D02*
X1022Y255D02*
X1045Y254D01*
D02*
X684Y805D02*
X633Y805D01*
D02*
X712Y808D02*
X684Y805D01*
D02*
X846Y755D02*
X847Y787D01*
D02*
X846Y737D02*
X846Y755D01*
D02*
X696Y692D02*
X698Y693D01*
D02*
X696Y418D02*
X696Y692D01*
D02*
X272Y779D02*
X268Y775D01*
D02*
X271Y418D02*
X272Y779D01*
D02*
X896Y130D02*
X921Y192D01*
D02*
X896Y121D02*
X896Y130D01*
D02*
X921Y192D02*
X921Y505D01*
D02*
X921Y505D02*
X797Y505D01*
D02*
X346Y717D02*
X509Y717D01*
D02*
X509Y717D02*
X509Y780D01*
D02*
X346Y418D02*
X346Y717D01*
D02*
X272Y154D02*
X271Y391D01*
D02*
X193Y154D02*
X272Y154D01*
G04 End of Copper0*
M02*