G04 MADE WITH FRITZING*
G04 WWW.FRITZING.ORG*
G04 DOUBLE SIDED*
G04 HOLES PLATED*
G04 CONTOUR ON CENTER OF CONTOUR VECTOR*
%ASAXBY*%
%FSLAX23Y23*%
%MOIN*%
%OFA0B0*%
%SFA1.0B1.0*%
%ADD10C,0.039370*%
%ADD11C,0.051496*%
%ADD12C,0.067244*%
%ADD13C,0.106299*%
%ADD14C,0.062992*%
%ADD15C,0.078000*%
%ADD16C,0.075000*%
%ADD17R,0.062992X0.062992*%
%ADD18R,0.062992X0.074803*%
%ADD19R,0.062992X0.070866*%
%ADD20R,0.047244X0.021653*%
%ADD21R,0.080000X0.026000*%
%ADD22R,0.075000X0.075000*%
%ADD23C,0.024000*%
%ADD24C,0.016000*%
%LNCOPPER1*%
G90*
G70*
G54D10*
X21Y255D03*
G54D11*
X68Y580D03*
X146Y580D03*
X68Y659D03*
X146Y659D03*
X68Y737D03*
X146Y737D03*
G54D12*
X107Y840D03*
X107Y477D03*
G54D11*
X68Y580D03*
X146Y580D03*
X68Y659D03*
X146Y659D03*
X68Y737D03*
X146Y737D03*
G54D12*
X107Y840D03*
X107Y477D03*
G54D13*
X71Y80D03*
X71Y330D03*
G54D10*
X346Y405D03*
G54D14*
X509Y453D03*
X509Y355D03*
X509Y653D03*
X509Y555D03*
G54D10*
X1009Y255D03*
X784Y405D03*
X796Y317D03*
X696Y405D03*
X971Y467D03*
X784Y505D03*
X1321Y155D03*
X271Y405D03*
G54D15*
X496Y67D03*
X396Y67D03*
X296Y67D03*
X509Y805D03*
X609Y805D03*
X1246Y592D03*
X1246Y492D03*
X1246Y392D03*
X1246Y292D03*
X1121Y592D03*
X1121Y492D03*
X1121Y392D03*
X1121Y292D03*
G54D16*
X384Y792D03*
X284Y792D03*
X1059Y792D03*
X959Y792D03*
X1284Y792D03*
X1184Y792D03*
G54D17*
X509Y453D03*
X509Y653D03*
G54D18*
X271Y492D03*
X393Y492D03*
X271Y605D03*
X393Y605D03*
X384Y180D03*
X262Y180D03*
G54D19*
X871Y592D03*
X982Y592D03*
G54D20*
X409Y267D03*
X409Y305D03*
X409Y342D03*
X306Y342D03*
X306Y267D03*
G54D21*
X623Y505D03*
X623Y455D03*
X623Y405D03*
X623Y355D03*
X623Y305D03*
X623Y255D03*
X623Y205D03*
X884Y205D03*
X884Y255D03*
X884Y305D03*
X884Y355D03*
X884Y405D03*
X884Y455D03*
X884Y505D03*
G54D20*
X734Y792D03*
X734Y755D03*
X734Y717D03*
X836Y717D03*
X836Y792D03*
G54D22*
X384Y792D03*
X1059Y792D03*
X1284Y792D03*
G54D23*
X21Y330D02*
X39Y330D01*
G54D24*
D02*
X221Y580D02*
X168Y580D01*
D02*
X271Y418D02*
X271Y460D01*
D02*
X89Y580D02*
X125Y580D01*
G54D23*
D02*
X21Y580D02*
X41Y580D01*
G54D24*
D02*
X221Y580D02*
X221Y592D01*
D02*
X221Y592D02*
X245Y598D01*
D02*
X489Y460D02*
X419Y484D01*
D02*
X489Y563D02*
X419Y594D01*
D02*
X485Y354D02*
X488Y354D01*
D02*
X484Y268D02*
X485Y354D01*
D02*
X1324Y590D02*
X1321Y168D01*
D02*
X108Y67D02*
X272Y67D01*
D02*
X97Y71D02*
X108Y67D01*
D02*
X359Y192D02*
X359Y305D01*
D02*
X359Y305D02*
X391Y305D01*
D02*
X384Y180D02*
X359Y192D01*
D02*
X259Y268D02*
X288Y268D01*
D02*
X261Y212D02*
X259Y268D01*
D02*
X272Y343D02*
X288Y343D01*
D02*
X409Y404D02*
X409Y347D01*
D02*
X360Y405D02*
X409Y404D01*
D02*
X272Y343D02*
X271Y391D01*
D02*
X684Y505D02*
X610Y505D01*
D02*
X685Y792D02*
X684Y717D01*
D02*
X610Y505D02*
X623Y505D01*
D02*
X684Y717D02*
X684Y505D01*
D02*
X716Y792D02*
X685Y792D01*
D02*
X484Y268D02*
X427Y268D01*
D02*
X683Y405D02*
X657Y405D01*
D02*
X359Y142D02*
X372Y143D01*
D02*
X372Y143D02*
X374Y148D01*
D02*
X312Y86D02*
X359Y142D01*
D02*
X221Y718D02*
X163Y672D01*
D02*
X684Y717D02*
X221Y718D01*
D02*
X822Y355D02*
X849Y355D01*
D02*
X958Y465D02*
X918Y460D01*
D02*
X797Y405D02*
X849Y405D01*
D02*
X796Y354D02*
X822Y355D01*
D02*
X796Y331D02*
X796Y354D01*
D02*
X383Y879D02*
X384Y815D01*
D02*
X995Y255D02*
X918Y255D01*
D02*
X21Y79D02*
X44Y80D01*
D02*
X21Y241D02*
X21Y79D01*
D02*
X21Y330D02*
X21Y268D01*
D02*
X21Y405D02*
X21Y330D01*
D02*
X535Y304D02*
X588Y304D01*
D02*
X535Y218D02*
X535Y304D01*
D02*
X497Y218D02*
X535Y218D01*
D02*
X496Y154D02*
X497Y218D01*
D02*
X496Y92D02*
X496Y154D01*
D02*
X610Y880D02*
X609Y829D01*
D02*
X921Y505D02*
X918Y505D01*
D02*
X961Y562D02*
X921Y505D01*
D02*
X834Y592D02*
X836Y712D01*
D02*
X845Y592D02*
X834Y592D01*
D02*
X1246Y80D02*
X1246Y268D01*
D02*
X1184Y116D02*
X1185Y456D01*
D02*
X1185Y456D02*
X1225Y480D01*
D02*
X708Y254D02*
X708Y116D01*
D02*
X708Y116D02*
X1184Y116D01*
D02*
X657Y254D02*
X708Y254D01*
D02*
X934Y205D02*
X918Y205D01*
D02*
X1059Y205D02*
X934Y205D01*
D02*
X1059Y392D02*
X1059Y205D01*
D02*
X1008Y304D02*
X918Y305D01*
D02*
X1008Y418D02*
X1008Y304D01*
D02*
X1059Y491D02*
X1008Y418D01*
D02*
X1097Y392D02*
X1059Y392D01*
D02*
X1097Y492D02*
X1059Y491D01*
D02*
X610Y880D02*
X1059Y880D01*
D02*
X1122Y154D02*
X746Y154D01*
D02*
X746Y154D02*
X747Y354D01*
D02*
X747Y354D02*
X657Y355D01*
D02*
X1121Y268D02*
X1122Y154D01*
D02*
X383Y879D02*
X610Y880D01*
D02*
X85Y879D02*
X383Y879D01*
D02*
X22Y880D02*
X85Y879D01*
D02*
X21Y580D02*
X22Y880D01*
D02*
X21Y405D02*
X21Y580D01*
D02*
X785Y755D02*
X752Y755D01*
D02*
X733Y668D02*
X734Y712D01*
D02*
X733Y505D02*
X733Y668D01*
D02*
X734Y454D02*
X733Y505D01*
D02*
X657Y455D02*
X734Y454D01*
D02*
X846Y792D02*
X836Y792D01*
D02*
X896Y792D02*
X846Y792D01*
D02*
X896Y668D02*
X896Y792D01*
D02*
X1122Y668D02*
X896Y668D01*
D02*
X1322Y754D02*
X1300Y776D01*
D02*
X1324Y590D02*
X1322Y754D01*
D02*
X1271Y592D02*
X1324Y590D01*
D02*
X959Y843D02*
X959Y815D01*
D02*
X733Y843D02*
X959Y843D01*
D02*
X734Y798D02*
X733Y843D01*
D02*
X1284Y880D02*
X1059Y880D01*
D02*
X1059Y880D02*
X1059Y815D01*
D02*
X1284Y815D02*
X1284Y880D01*
D02*
X1122Y668D02*
X1174Y772D01*
D02*
X1122Y617D02*
X1122Y668D01*
D02*
X797Y505D02*
X849Y505D01*
D02*
X785Y755D02*
X784Y518D01*
D02*
X1246Y80D02*
X620Y80D01*
D02*
X620Y80D02*
X623Y197D01*
G04 End of Copper1*
M02*