G04 MADE WITH FRITZING*
G04 WWW.FRITZING.ORG*
G04 DOUBLE SIDED*
G04 HOLES PLATED*
G04 CONTOUR ON CENTER OF CONTOUR VECTOR*
%ASAXBY*%
%FSLAX23Y23*%
%MOIN*%
%OFA0B0*%
%SFA1.0B1.0*%
%ADD10C,0.008000*%
%ADD11R,0.001000X0.001000*%
%LNSILK0*%
G90*
G70*
G54D10*
X828Y849D02*
X883Y849D01*
D02*
X883Y849D02*
X883Y770D01*
D02*
X883Y770D02*
X828Y770D01*
D02*
X749Y849D02*
X694Y849D01*
D02*
X694Y849D02*
X694Y770D01*
D02*
X694Y770D02*
X749Y770D01*
D02*
X777Y837D02*
X777Y809D01*
D02*
X777Y809D02*
X777Y782D01*
D02*
X777Y809D02*
X801Y833D01*
D02*
X801Y833D02*
X801Y786D01*
D02*
X801Y786D02*
X777Y809D01*
D02*
X179Y71D02*
X179Y118D01*
D02*
X179Y339D02*
X179Y291D01*
D02*
X179Y118D02*
X124Y118D01*
D02*
X124Y118D02*
X124Y291D01*
D02*
X124Y291D02*
X179Y291D01*
G54D11*
X0Y905D02*
X1378Y905D01*
X0Y904D02*
X1378Y904D01*
X0Y903D02*
X1378Y903D01*
X0Y902D02*
X1378Y902D01*
X0Y901D02*
X1378Y901D01*
X0Y900D02*
X1378Y900D01*
X0Y899D02*
X1378Y899D01*
X0Y898D02*
X1378Y898D01*
X0Y897D02*
X7Y897D01*
X1371Y897D02*
X1378Y897D01*
X0Y896D02*
X7Y896D01*
X1371Y896D02*
X1378Y896D01*
X0Y895D02*
X7Y895D01*
X1371Y895D02*
X1378Y895D01*
X0Y894D02*
X7Y894D01*
X1371Y894D02*
X1378Y894D01*
X0Y893D02*
X7Y893D01*
X1371Y893D02*
X1378Y893D01*
X0Y892D02*
X7Y892D01*
X1371Y892D02*
X1378Y892D01*
X0Y891D02*
X7Y891D01*
X1371Y891D02*
X1378Y891D01*
X0Y890D02*
X7Y890D01*
X1371Y890D02*
X1378Y890D01*
X0Y889D02*
X7Y889D01*
X1371Y889D02*
X1378Y889D01*
X0Y888D02*
X7Y888D01*
X1371Y888D02*
X1378Y888D01*
X0Y887D02*
X7Y887D01*
X721Y887D02*
X721Y887D01*
X750Y887D02*
X768Y887D01*
X781Y887D02*
X790Y887D01*
X811Y887D02*
X826Y887D01*
X1371Y887D02*
X1378Y887D01*
X0Y886D02*
X7Y886D01*
X719Y886D02*
X722Y886D01*
X749Y886D02*
X769Y886D01*
X780Y886D02*
X792Y886D01*
X810Y886D02*
X828Y886D01*
X1371Y886D02*
X1378Y886D01*
X0Y885D02*
X7Y885D01*
X719Y885D02*
X722Y885D01*
X749Y885D02*
X769Y885D01*
X779Y885D02*
X793Y885D01*
X810Y885D02*
X829Y885D01*
X1371Y885D02*
X1378Y885D01*
X0Y884D02*
X7Y884D01*
X719Y884D02*
X722Y884D01*
X749Y884D02*
X769Y884D01*
X780Y884D02*
X794Y884D01*
X810Y884D02*
X829Y884D01*
X1371Y884D02*
X1378Y884D01*
X0Y883D02*
X7Y883D01*
X719Y883D02*
X722Y883D01*
X749Y883D02*
X767Y883D01*
X781Y883D02*
X794Y883D01*
X812Y883D02*
X829Y883D01*
X1371Y883D02*
X1378Y883D01*
X0Y882D02*
X7Y882D01*
X719Y882D02*
X722Y882D01*
X749Y882D02*
X753Y882D01*
X784Y882D02*
X787Y882D01*
X791Y882D02*
X795Y882D01*
X826Y882D02*
X829Y882D01*
X1371Y882D02*
X1378Y882D01*
X0Y881D02*
X7Y881D01*
X719Y881D02*
X722Y881D01*
X749Y881D02*
X753Y881D01*
X784Y881D02*
X787Y881D01*
X792Y881D02*
X795Y881D01*
X826Y881D02*
X829Y881D01*
X1371Y881D02*
X1378Y881D01*
X0Y880D02*
X7Y880D01*
X719Y880D02*
X722Y880D01*
X749Y880D02*
X753Y880D01*
X784Y880D02*
X787Y880D01*
X792Y880D02*
X796Y880D01*
X826Y880D02*
X829Y880D01*
X1371Y880D02*
X1378Y880D01*
X0Y879D02*
X7Y879D01*
X719Y879D02*
X722Y879D01*
X749Y879D02*
X753Y879D01*
X784Y879D02*
X787Y879D01*
X793Y879D02*
X796Y879D01*
X826Y879D02*
X829Y879D01*
X1371Y879D02*
X1378Y879D01*
X0Y878D02*
X7Y878D01*
X719Y878D02*
X722Y878D01*
X749Y878D02*
X753Y878D01*
X784Y878D02*
X787Y878D01*
X793Y878D02*
X797Y878D01*
X826Y878D02*
X829Y878D01*
X1371Y878D02*
X1378Y878D01*
X0Y877D02*
X7Y877D01*
X719Y877D02*
X722Y877D01*
X749Y877D02*
X753Y877D01*
X784Y877D02*
X787Y877D01*
X794Y877D02*
X797Y877D01*
X826Y877D02*
X829Y877D01*
X1371Y877D02*
X1378Y877D01*
X0Y876D02*
X7Y876D01*
X719Y876D02*
X722Y876D01*
X749Y876D02*
X753Y876D01*
X784Y876D02*
X787Y876D01*
X794Y876D02*
X798Y876D01*
X826Y876D02*
X829Y876D01*
X1371Y876D02*
X1378Y876D01*
X0Y875D02*
X7Y875D01*
X719Y875D02*
X722Y875D01*
X749Y875D02*
X753Y875D01*
X784Y875D02*
X787Y875D01*
X795Y875D02*
X798Y875D01*
X826Y875D02*
X829Y875D01*
X1371Y875D02*
X1378Y875D01*
X0Y874D02*
X7Y874D01*
X719Y874D02*
X722Y874D01*
X749Y874D02*
X753Y874D01*
X784Y874D02*
X787Y874D01*
X795Y874D02*
X799Y874D01*
X826Y874D02*
X829Y874D01*
X1371Y874D02*
X1378Y874D01*
X0Y873D02*
X7Y873D01*
X719Y873D02*
X722Y873D01*
X749Y873D02*
X759Y873D01*
X784Y873D02*
X787Y873D01*
X796Y873D02*
X799Y873D01*
X815Y873D02*
X829Y873D01*
X1371Y873D02*
X1378Y873D01*
X0Y872D02*
X7Y872D01*
X719Y872D02*
X722Y872D01*
X749Y872D02*
X760Y872D01*
X784Y872D02*
X787Y872D01*
X796Y872D02*
X799Y872D01*
X814Y872D02*
X828Y872D01*
X1371Y872D02*
X1378Y872D01*
X0Y871D02*
X7Y871D01*
X719Y871D02*
X722Y871D01*
X749Y871D02*
X761Y871D01*
X784Y871D02*
X787Y871D01*
X796Y871D02*
X799Y871D01*
X814Y871D02*
X828Y871D01*
X1371Y871D02*
X1378Y871D01*
X0Y870D02*
X7Y870D01*
X719Y870D02*
X722Y870D01*
X749Y870D02*
X761Y870D01*
X784Y870D02*
X787Y870D01*
X796Y870D02*
X799Y870D01*
X814Y870D02*
X828Y870D01*
X1371Y870D02*
X1378Y870D01*
X0Y869D02*
X7Y869D01*
X719Y869D02*
X722Y869D01*
X749Y869D02*
X759Y869D01*
X784Y869D02*
X787Y869D01*
X796Y869D02*
X799Y869D01*
X815Y869D02*
X829Y869D01*
X1371Y869D02*
X1378Y869D01*
X0Y868D02*
X7Y868D01*
X719Y868D02*
X722Y868D01*
X749Y868D02*
X753Y868D01*
X784Y868D02*
X787Y868D01*
X795Y868D02*
X799Y868D01*
X826Y868D02*
X829Y868D01*
X1371Y868D02*
X1378Y868D01*
X0Y867D02*
X7Y867D01*
X719Y867D02*
X722Y867D01*
X749Y867D02*
X753Y867D01*
X784Y867D02*
X787Y867D01*
X795Y867D02*
X798Y867D01*
X826Y867D02*
X829Y867D01*
X1371Y867D02*
X1378Y867D01*
X0Y866D02*
X7Y866D01*
X719Y866D02*
X722Y866D01*
X749Y866D02*
X753Y866D01*
X784Y866D02*
X787Y866D01*
X794Y866D02*
X798Y866D01*
X826Y866D02*
X829Y866D01*
X1371Y866D02*
X1378Y866D01*
X0Y865D02*
X7Y865D01*
X719Y865D02*
X722Y865D01*
X749Y865D02*
X753Y865D01*
X784Y865D02*
X787Y865D01*
X794Y865D02*
X797Y865D01*
X826Y865D02*
X829Y865D01*
X1371Y865D02*
X1378Y865D01*
X0Y864D02*
X7Y864D01*
X719Y864D02*
X722Y864D01*
X749Y864D02*
X753Y864D01*
X784Y864D02*
X787Y864D01*
X793Y864D02*
X797Y864D01*
X826Y864D02*
X829Y864D01*
X1371Y864D02*
X1378Y864D01*
X0Y863D02*
X7Y863D01*
X719Y863D02*
X722Y863D01*
X749Y863D02*
X753Y863D01*
X784Y863D02*
X787Y863D01*
X793Y863D02*
X796Y863D01*
X826Y863D02*
X829Y863D01*
X1371Y863D02*
X1378Y863D01*
X0Y862D02*
X7Y862D01*
X719Y862D02*
X722Y862D01*
X749Y862D02*
X753Y862D01*
X784Y862D02*
X787Y862D01*
X792Y862D02*
X796Y862D01*
X826Y862D02*
X829Y862D01*
X1371Y862D02*
X1378Y862D01*
X0Y861D02*
X7Y861D01*
X719Y861D02*
X722Y861D01*
X749Y861D02*
X753Y861D01*
X784Y861D02*
X787Y861D01*
X792Y861D02*
X795Y861D01*
X826Y861D02*
X829Y861D01*
X1371Y861D02*
X1378Y861D01*
X0Y860D02*
X7Y860D01*
X719Y860D02*
X722Y860D01*
X749Y860D02*
X753Y860D01*
X784Y860D02*
X787Y860D01*
X791Y860D02*
X795Y860D01*
X826Y860D02*
X829Y860D01*
X1371Y860D02*
X1378Y860D01*
X0Y859D02*
X7Y859D01*
X719Y859D02*
X723Y859D01*
X749Y859D02*
X753Y859D01*
X783Y859D02*
X787Y859D01*
X790Y859D02*
X794Y859D01*
X826Y859D02*
X829Y859D01*
X1371Y859D02*
X1378Y859D01*
X0Y858D02*
X7Y858D01*
X719Y858D02*
X739Y858D01*
X749Y858D02*
X769Y858D01*
X780Y858D02*
X794Y858D01*
X810Y858D02*
X829Y858D01*
X1371Y858D02*
X1378Y858D01*
X0Y857D02*
X7Y857D01*
X719Y857D02*
X739Y857D01*
X749Y857D02*
X769Y857D01*
X779Y857D02*
X793Y857D01*
X810Y857D02*
X829Y857D01*
X1371Y857D02*
X1378Y857D01*
X0Y856D02*
X7Y856D01*
X719Y856D02*
X739Y856D01*
X749Y856D02*
X769Y856D01*
X780Y856D02*
X792Y856D01*
X810Y856D02*
X828Y856D01*
X1371Y856D02*
X1378Y856D01*
X0Y855D02*
X7Y855D01*
X719Y855D02*
X738Y855D01*
X749Y855D02*
X768Y855D01*
X781Y855D02*
X790Y855D01*
X811Y855D02*
X827Y855D01*
X1371Y855D02*
X1378Y855D01*
X0Y854D02*
X7Y854D01*
X1371Y854D02*
X1378Y854D01*
X0Y853D02*
X7Y853D01*
X1371Y853D02*
X1378Y853D01*
X0Y852D02*
X7Y852D01*
X1371Y852D02*
X1378Y852D01*
X0Y851D02*
X7Y851D01*
X1371Y851D02*
X1378Y851D01*
X0Y850D02*
X7Y850D01*
X1371Y850D02*
X1378Y850D01*
X0Y849D02*
X7Y849D01*
X1371Y849D02*
X1378Y849D01*
X0Y848D02*
X7Y848D01*
X1371Y848D02*
X1378Y848D01*
X0Y847D02*
X7Y847D01*
X1371Y847D02*
X1378Y847D01*
X0Y846D02*
X7Y846D01*
X1371Y846D02*
X1378Y846D01*
X0Y845D02*
X7Y845D01*
X1371Y845D02*
X1378Y845D01*
X0Y844D02*
X7Y844D01*
X1371Y844D02*
X1378Y844D01*
X0Y843D02*
X7Y843D01*
X1371Y843D02*
X1378Y843D01*
X0Y842D02*
X7Y842D01*
X1371Y842D02*
X1378Y842D01*
X0Y841D02*
X7Y841D01*
X1371Y841D02*
X1378Y841D01*
X0Y840D02*
X7Y840D01*
X1371Y840D02*
X1378Y840D01*
X0Y839D02*
X7Y839D01*
X1371Y839D02*
X1378Y839D01*
X0Y838D02*
X7Y838D01*
X1371Y838D02*
X1378Y838D01*
X0Y837D02*
X7Y837D01*
X1371Y837D02*
X1378Y837D01*
X0Y836D02*
X7Y836D01*
X1371Y836D02*
X1378Y836D01*
X0Y835D02*
X7Y835D01*
X1371Y835D02*
X1378Y835D01*
X0Y834D02*
X7Y834D01*
X1371Y834D02*
X1378Y834D01*
X0Y833D02*
X7Y833D01*
X1371Y833D02*
X1378Y833D01*
X0Y832D02*
X7Y832D01*
X1371Y832D02*
X1378Y832D01*
X0Y831D02*
X7Y831D01*
X1371Y831D02*
X1378Y831D01*
X0Y830D02*
X7Y830D01*
X1371Y830D02*
X1378Y830D01*
X0Y829D02*
X7Y829D01*
X1371Y829D02*
X1378Y829D01*
X0Y828D02*
X7Y828D01*
X1371Y828D02*
X1378Y828D01*
X0Y827D02*
X7Y827D01*
X1371Y827D02*
X1378Y827D01*
X0Y826D02*
X7Y826D01*
X1371Y826D02*
X1378Y826D01*
X0Y825D02*
X7Y825D01*
X1371Y825D02*
X1378Y825D01*
X0Y824D02*
X7Y824D01*
X1371Y824D02*
X1378Y824D01*
X0Y823D02*
X7Y823D01*
X1371Y823D02*
X1378Y823D01*
X0Y822D02*
X7Y822D01*
X1371Y822D02*
X1378Y822D01*
X0Y821D02*
X7Y821D01*
X1371Y821D02*
X1378Y821D01*
X0Y820D02*
X7Y820D01*
X1371Y820D02*
X1378Y820D01*
X0Y819D02*
X7Y819D01*
X1371Y819D02*
X1378Y819D01*
X0Y818D02*
X7Y818D01*
X1371Y818D02*
X1378Y818D01*
X0Y817D02*
X7Y817D01*
X1371Y817D02*
X1378Y817D01*
X0Y816D02*
X7Y816D01*
X1371Y816D02*
X1378Y816D01*
X0Y815D02*
X7Y815D01*
X1371Y815D02*
X1378Y815D01*
X0Y814D02*
X7Y814D01*
X1371Y814D02*
X1378Y814D01*
X0Y813D02*
X7Y813D01*
X1371Y813D02*
X1378Y813D01*
X0Y812D02*
X7Y812D01*
X1371Y812D02*
X1378Y812D01*
X0Y811D02*
X7Y811D01*
X1371Y811D02*
X1378Y811D01*
X0Y810D02*
X7Y810D01*
X1371Y810D02*
X1378Y810D01*
X0Y809D02*
X7Y809D01*
X1371Y809D02*
X1378Y809D01*
X0Y808D02*
X7Y808D01*
X1371Y808D02*
X1378Y808D01*
X0Y807D02*
X7Y807D01*
X1371Y807D02*
X1378Y807D01*
X0Y806D02*
X7Y806D01*
X1371Y806D02*
X1378Y806D01*
X0Y805D02*
X7Y805D01*
X1371Y805D02*
X1378Y805D01*
X0Y804D02*
X7Y804D01*
X1371Y804D02*
X1378Y804D01*
X0Y803D02*
X7Y803D01*
X1371Y803D02*
X1378Y803D01*
X0Y802D02*
X7Y802D01*
X1371Y802D02*
X1378Y802D01*
X0Y801D02*
X7Y801D01*
X1371Y801D02*
X1378Y801D01*
X0Y800D02*
X7Y800D01*
X1371Y800D02*
X1378Y800D01*
X0Y799D02*
X7Y799D01*
X1371Y799D02*
X1378Y799D01*
X0Y798D02*
X7Y798D01*
X1371Y798D02*
X1378Y798D01*
X0Y797D02*
X7Y797D01*
X1371Y797D02*
X1378Y797D01*
X0Y796D02*
X7Y796D01*
X1371Y796D02*
X1378Y796D01*
X0Y795D02*
X7Y795D01*
X1371Y795D02*
X1378Y795D01*
X0Y794D02*
X7Y794D01*
X1371Y794D02*
X1378Y794D01*
X0Y793D02*
X7Y793D01*
X1371Y793D02*
X1378Y793D01*
X0Y792D02*
X7Y792D01*
X1371Y792D02*
X1378Y792D01*
X0Y791D02*
X7Y791D01*
X1371Y791D02*
X1378Y791D01*
X0Y790D02*
X7Y790D01*
X1371Y790D02*
X1378Y790D01*
X0Y789D02*
X7Y789D01*
X1371Y789D02*
X1378Y789D01*
X0Y788D02*
X7Y788D01*
X1371Y788D02*
X1378Y788D01*
X0Y787D02*
X7Y787D01*
X1371Y787D02*
X1378Y787D01*
X0Y786D02*
X7Y786D01*
X1371Y786D02*
X1378Y786D01*
X0Y785D02*
X7Y785D01*
X1371Y785D02*
X1378Y785D01*
X0Y784D02*
X7Y784D01*
X1371Y784D02*
X1378Y784D01*
X0Y783D02*
X7Y783D01*
X1371Y783D02*
X1378Y783D01*
X0Y782D02*
X7Y782D01*
X1371Y782D02*
X1378Y782D01*
X0Y781D02*
X7Y781D01*
X1371Y781D02*
X1378Y781D01*
X0Y780D02*
X7Y780D01*
X1371Y780D02*
X1378Y780D01*
X0Y779D02*
X7Y779D01*
X1371Y779D02*
X1378Y779D01*
X0Y778D02*
X7Y778D01*
X1371Y778D02*
X1378Y778D01*
X0Y777D02*
X7Y777D01*
X1371Y777D02*
X1378Y777D01*
X0Y776D02*
X7Y776D01*
X1371Y776D02*
X1378Y776D01*
X0Y775D02*
X7Y775D01*
X1371Y775D02*
X1378Y775D01*
X0Y774D02*
X7Y774D01*
X1371Y774D02*
X1378Y774D01*
X0Y773D02*
X7Y773D01*
X1371Y773D02*
X1378Y773D01*
X0Y772D02*
X7Y772D01*
X1371Y772D02*
X1378Y772D01*
X0Y771D02*
X7Y771D01*
X1371Y771D02*
X1378Y771D01*
X0Y770D02*
X7Y770D01*
X1371Y770D02*
X1378Y770D01*
X0Y769D02*
X7Y769D01*
X1371Y769D02*
X1378Y769D01*
X0Y768D02*
X7Y768D01*
X1371Y768D02*
X1378Y768D01*
X0Y767D02*
X7Y767D01*
X1371Y767D02*
X1378Y767D01*
X0Y766D02*
X7Y766D01*
X1371Y766D02*
X1378Y766D01*
X0Y765D02*
X7Y765D01*
X1371Y765D02*
X1378Y765D01*
X0Y764D02*
X7Y764D01*
X1371Y764D02*
X1378Y764D01*
X0Y763D02*
X7Y763D01*
X1371Y763D02*
X1378Y763D01*
X0Y762D02*
X7Y762D01*
X1371Y762D02*
X1378Y762D01*
X0Y761D02*
X7Y761D01*
X1371Y761D02*
X1378Y761D01*
X0Y760D02*
X7Y760D01*
X1371Y760D02*
X1378Y760D01*
X0Y759D02*
X7Y759D01*
X1371Y759D02*
X1378Y759D01*
X0Y758D02*
X7Y758D01*
X1371Y758D02*
X1378Y758D01*
X0Y757D02*
X7Y757D01*
X1371Y757D02*
X1378Y757D01*
X0Y756D02*
X7Y756D01*
X1371Y756D02*
X1378Y756D01*
X0Y755D02*
X7Y755D01*
X1371Y755D02*
X1378Y755D01*
X0Y754D02*
X7Y754D01*
X1371Y754D02*
X1378Y754D01*
X0Y753D02*
X7Y753D01*
X1371Y753D02*
X1378Y753D01*
X0Y752D02*
X7Y752D01*
X1371Y752D02*
X1378Y752D01*
X0Y751D02*
X7Y751D01*
X1371Y751D02*
X1378Y751D01*
X0Y750D02*
X7Y750D01*
X685Y750D02*
X884Y750D01*
X1371Y750D02*
X1378Y750D01*
X0Y749D02*
X7Y749D01*
X685Y749D02*
X885Y749D01*
X1371Y749D02*
X1378Y749D01*
X0Y748D02*
X7Y748D01*
X685Y748D02*
X885Y748D01*
X1371Y748D02*
X1378Y748D01*
X0Y747D02*
X7Y747D01*
X685Y747D02*
X687Y747D01*
X761Y747D02*
X809Y747D01*
X883Y747D02*
X885Y747D01*
X1371Y747D02*
X1378Y747D01*
X0Y746D02*
X7Y746D01*
X685Y746D02*
X687Y746D01*
X883Y746D02*
X885Y746D01*
X1371Y746D02*
X1378Y746D01*
X0Y745D02*
X7Y745D01*
X685Y745D02*
X687Y745D01*
X883Y745D02*
X885Y745D01*
X1371Y745D02*
X1378Y745D01*
X0Y744D02*
X7Y744D01*
X685Y744D02*
X687Y744D01*
X883Y744D02*
X885Y744D01*
X1371Y744D02*
X1378Y744D01*
X0Y743D02*
X7Y743D01*
X685Y743D02*
X687Y743D01*
X883Y743D02*
X885Y743D01*
X1371Y743D02*
X1378Y743D01*
X0Y742D02*
X7Y742D01*
X685Y742D02*
X687Y742D01*
X883Y742D02*
X885Y742D01*
X1371Y742D02*
X1378Y742D01*
X0Y741D02*
X7Y741D01*
X685Y741D02*
X687Y741D01*
X883Y741D02*
X885Y741D01*
X1371Y741D02*
X1378Y741D01*
X0Y740D02*
X7Y740D01*
X685Y740D02*
X687Y740D01*
X883Y740D02*
X885Y740D01*
X1371Y740D02*
X1378Y740D01*
X0Y739D02*
X7Y739D01*
X685Y739D02*
X687Y739D01*
X883Y739D02*
X885Y739D01*
X1371Y739D02*
X1378Y739D01*
X0Y738D02*
X7Y738D01*
X685Y738D02*
X687Y738D01*
X883Y738D02*
X885Y738D01*
X1371Y738D02*
X1378Y738D01*
X0Y737D02*
X7Y737D01*
X685Y737D02*
X687Y737D01*
X883Y737D02*
X885Y737D01*
X1371Y737D02*
X1378Y737D01*
X0Y736D02*
X7Y736D01*
X685Y736D02*
X687Y736D01*
X883Y736D02*
X885Y736D01*
X1371Y736D02*
X1378Y736D01*
X0Y735D02*
X7Y735D01*
X685Y735D02*
X687Y735D01*
X883Y735D02*
X885Y735D01*
X1371Y735D02*
X1378Y735D01*
X0Y734D02*
X7Y734D01*
X685Y734D02*
X687Y734D01*
X883Y734D02*
X885Y734D01*
X1371Y734D02*
X1378Y734D01*
X0Y733D02*
X7Y733D01*
X685Y733D02*
X687Y733D01*
X883Y733D02*
X885Y733D01*
X1371Y733D02*
X1378Y733D01*
X0Y732D02*
X7Y732D01*
X685Y732D02*
X687Y732D01*
X883Y732D02*
X885Y732D01*
X1371Y732D02*
X1378Y732D01*
X0Y731D02*
X7Y731D01*
X685Y731D02*
X687Y731D01*
X883Y731D02*
X885Y731D01*
X1371Y731D02*
X1378Y731D01*
X0Y730D02*
X7Y730D01*
X685Y730D02*
X687Y730D01*
X883Y730D02*
X885Y730D01*
X1371Y730D02*
X1378Y730D01*
X0Y729D02*
X7Y729D01*
X685Y729D02*
X687Y729D01*
X883Y729D02*
X885Y729D01*
X1371Y729D02*
X1378Y729D01*
X0Y728D02*
X7Y728D01*
X685Y728D02*
X687Y728D01*
X883Y728D02*
X885Y728D01*
X1371Y728D02*
X1378Y728D01*
X0Y727D02*
X7Y727D01*
X685Y727D02*
X687Y727D01*
X883Y727D02*
X885Y727D01*
X1371Y727D02*
X1378Y727D01*
X0Y726D02*
X7Y726D01*
X685Y726D02*
X687Y726D01*
X883Y726D02*
X885Y726D01*
X1371Y726D02*
X1378Y726D01*
X0Y725D02*
X7Y725D01*
X685Y725D02*
X687Y725D01*
X883Y725D02*
X885Y725D01*
X1371Y725D02*
X1378Y725D01*
X0Y724D02*
X7Y724D01*
X685Y724D02*
X687Y724D01*
X883Y724D02*
X885Y724D01*
X1371Y724D02*
X1378Y724D01*
X0Y723D02*
X7Y723D01*
X685Y723D02*
X687Y723D01*
X883Y723D02*
X885Y723D01*
X1371Y723D02*
X1378Y723D01*
X0Y722D02*
X7Y722D01*
X685Y722D02*
X687Y722D01*
X883Y722D02*
X885Y722D01*
X1371Y722D02*
X1378Y722D01*
X0Y721D02*
X7Y721D01*
X685Y721D02*
X687Y721D01*
X883Y721D02*
X885Y721D01*
X1371Y721D02*
X1378Y721D01*
X0Y720D02*
X7Y720D01*
X685Y720D02*
X687Y720D01*
X883Y720D02*
X885Y720D01*
X1371Y720D02*
X1378Y720D01*
X0Y719D02*
X7Y719D01*
X685Y719D02*
X687Y719D01*
X883Y719D02*
X885Y719D01*
X1371Y719D02*
X1378Y719D01*
X0Y718D02*
X7Y718D01*
X685Y718D02*
X687Y718D01*
X883Y718D02*
X885Y718D01*
X1371Y718D02*
X1378Y718D01*
X0Y717D02*
X7Y717D01*
X685Y717D02*
X687Y717D01*
X883Y717D02*
X885Y717D01*
X1371Y717D02*
X1378Y717D01*
X0Y716D02*
X7Y716D01*
X685Y716D02*
X687Y716D01*
X883Y716D02*
X885Y716D01*
X1371Y716D02*
X1378Y716D01*
X0Y715D02*
X7Y715D01*
X685Y715D02*
X687Y715D01*
X883Y715D02*
X885Y715D01*
X1371Y715D02*
X1378Y715D01*
X0Y714D02*
X7Y714D01*
X685Y714D02*
X687Y714D01*
X883Y714D02*
X885Y714D01*
X1371Y714D02*
X1378Y714D01*
X0Y713D02*
X7Y713D01*
X685Y713D02*
X687Y713D01*
X883Y713D02*
X885Y713D01*
X1371Y713D02*
X1378Y713D01*
X0Y712D02*
X7Y712D01*
X685Y712D02*
X687Y712D01*
X883Y712D02*
X885Y712D01*
X1371Y712D02*
X1378Y712D01*
X0Y711D02*
X7Y711D01*
X685Y711D02*
X687Y711D01*
X883Y711D02*
X885Y711D01*
X1371Y711D02*
X1378Y711D01*
X0Y710D02*
X7Y710D01*
X685Y710D02*
X687Y710D01*
X883Y710D02*
X885Y710D01*
X1371Y710D02*
X1378Y710D01*
X0Y709D02*
X7Y709D01*
X685Y709D02*
X687Y709D01*
X883Y709D02*
X885Y709D01*
X1371Y709D02*
X1378Y709D01*
X0Y708D02*
X7Y708D01*
X685Y708D02*
X687Y708D01*
X883Y708D02*
X885Y708D01*
X1371Y708D02*
X1378Y708D01*
X0Y707D02*
X7Y707D01*
X685Y707D02*
X687Y707D01*
X883Y707D02*
X885Y707D01*
X1371Y707D02*
X1378Y707D01*
X0Y706D02*
X7Y706D01*
X685Y706D02*
X687Y706D01*
X883Y706D02*
X885Y706D01*
X1371Y706D02*
X1378Y706D01*
X0Y705D02*
X7Y705D01*
X685Y705D02*
X687Y705D01*
X883Y705D02*
X885Y705D01*
X1371Y705D02*
X1378Y705D01*
X0Y704D02*
X7Y704D01*
X685Y704D02*
X687Y704D01*
X883Y704D02*
X885Y704D01*
X1371Y704D02*
X1378Y704D01*
X0Y703D02*
X7Y703D01*
X685Y703D02*
X687Y703D01*
X883Y703D02*
X885Y703D01*
X1371Y703D02*
X1378Y703D01*
X0Y702D02*
X7Y702D01*
X685Y702D02*
X687Y702D01*
X883Y702D02*
X885Y702D01*
X1371Y702D02*
X1378Y702D01*
X0Y701D02*
X7Y701D01*
X685Y701D02*
X687Y701D01*
X883Y701D02*
X885Y701D01*
X1371Y701D02*
X1378Y701D01*
X0Y700D02*
X7Y700D01*
X685Y700D02*
X687Y700D01*
X883Y700D02*
X885Y700D01*
X1371Y700D02*
X1378Y700D01*
X0Y699D02*
X7Y699D01*
X685Y699D02*
X687Y699D01*
X883Y699D02*
X885Y699D01*
X1371Y699D02*
X1378Y699D01*
X0Y698D02*
X7Y698D01*
X685Y698D02*
X687Y698D01*
X883Y698D02*
X885Y698D01*
X1371Y698D02*
X1378Y698D01*
X0Y697D02*
X7Y697D01*
X685Y697D02*
X687Y697D01*
X883Y697D02*
X885Y697D01*
X1371Y697D02*
X1378Y697D01*
X0Y696D02*
X7Y696D01*
X685Y696D02*
X687Y696D01*
X883Y696D02*
X885Y696D01*
X1371Y696D02*
X1378Y696D01*
X0Y695D02*
X7Y695D01*
X685Y695D02*
X687Y695D01*
X883Y695D02*
X885Y695D01*
X1371Y695D02*
X1378Y695D01*
X0Y694D02*
X7Y694D01*
X685Y694D02*
X687Y694D01*
X883Y694D02*
X885Y694D01*
X1371Y694D02*
X1378Y694D01*
X0Y693D02*
X7Y693D01*
X685Y693D02*
X687Y693D01*
X883Y693D02*
X885Y693D01*
X1371Y693D02*
X1378Y693D01*
X0Y692D02*
X7Y692D01*
X685Y692D02*
X687Y692D01*
X883Y692D02*
X885Y692D01*
X1371Y692D02*
X1378Y692D01*
X0Y691D02*
X7Y691D01*
X685Y691D02*
X687Y691D01*
X883Y691D02*
X885Y691D01*
X1371Y691D02*
X1378Y691D01*
X0Y690D02*
X7Y690D01*
X685Y690D02*
X687Y690D01*
X883Y690D02*
X885Y690D01*
X1371Y690D02*
X1378Y690D01*
X0Y689D02*
X7Y689D01*
X685Y689D02*
X687Y689D01*
X883Y689D02*
X885Y689D01*
X1371Y689D02*
X1378Y689D01*
X0Y688D02*
X7Y688D01*
X685Y688D02*
X687Y688D01*
X883Y688D02*
X885Y688D01*
X1371Y688D02*
X1378Y688D01*
X0Y687D02*
X7Y687D01*
X685Y687D02*
X687Y687D01*
X883Y687D02*
X885Y687D01*
X1371Y687D02*
X1378Y687D01*
X0Y686D02*
X7Y686D01*
X685Y686D02*
X687Y686D01*
X883Y686D02*
X885Y686D01*
X1371Y686D02*
X1378Y686D01*
X0Y685D02*
X7Y685D01*
X685Y685D02*
X687Y685D01*
X883Y685D02*
X885Y685D01*
X1371Y685D02*
X1378Y685D01*
X0Y684D02*
X7Y684D01*
X685Y684D02*
X687Y684D01*
X883Y684D02*
X885Y684D01*
X1371Y684D02*
X1378Y684D01*
X0Y683D02*
X7Y683D01*
X685Y683D02*
X687Y683D01*
X883Y683D02*
X885Y683D01*
X1371Y683D02*
X1378Y683D01*
X0Y682D02*
X7Y682D01*
X685Y682D02*
X687Y682D01*
X883Y682D02*
X885Y682D01*
X1371Y682D02*
X1378Y682D01*
X0Y681D02*
X7Y681D01*
X685Y681D02*
X687Y681D01*
X883Y681D02*
X885Y681D01*
X1371Y681D02*
X1378Y681D01*
X0Y680D02*
X7Y680D01*
X685Y680D02*
X687Y680D01*
X883Y680D02*
X885Y680D01*
X1371Y680D02*
X1378Y680D01*
X0Y679D02*
X7Y679D01*
X685Y679D02*
X687Y679D01*
X883Y679D02*
X885Y679D01*
X1371Y679D02*
X1378Y679D01*
X0Y678D02*
X7Y678D01*
X685Y678D02*
X687Y678D01*
X883Y678D02*
X885Y678D01*
X1371Y678D02*
X1378Y678D01*
X0Y677D02*
X7Y677D01*
X685Y677D02*
X687Y677D01*
X883Y677D02*
X885Y677D01*
X1371Y677D02*
X1378Y677D01*
X0Y676D02*
X7Y676D01*
X685Y676D02*
X687Y676D01*
X883Y676D02*
X885Y676D01*
X1371Y676D02*
X1378Y676D01*
X0Y675D02*
X7Y675D01*
X685Y675D02*
X687Y675D01*
X883Y675D02*
X885Y675D01*
X1371Y675D02*
X1378Y675D01*
X0Y674D02*
X7Y674D01*
X685Y674D02*
X687Y674D01*
X883Y674D02*
X885Y674D01*
X1371Y674D02*
X1378Y674D01*
X0Y673D02*
X7Y673D01*
X685Y673D02*
X687Y673D01*
X883Y673D02*
X885Y673D01*
X1371Y673D02*
X1378Y673D01*
X0Y672D02*
X7Y672D01*
X685Y672D02*
X687Y672D01*
X883Y672D02*
X885Y672D01*
X1371Y672D02*
X1378Y672D01*
X0Y671D02*
X7Y671D01*
X685Y671D02*
X687Y671D01*
X883Y671D02*
X885Y671D01*
X1371Y671D02*
X1378Y671D01*
X0Y670D02*
X7Y670D01*
X685Y670D02*
X687Y670D01*
X883Y670D02*
X885Y670D01*
X1371Y670D02*
X1378Y670D01*
X0Y669D02*
X7Y669D01*
X685Y669D02*
X687Y669D01*
X883Y669D02*
X885Y669D01*
X1371Y669D02*
X1378Y669D01*
X0Y668D02*
X7Y668D01*
X685Y668D02*
X687Y668D01*
X883Y668D02*
X885Y668D01*
X1371Y668D02*
X1378Y668D01*
X0Y667D02*
X7Y667D01*
X685Y667D02*
X687Y667D01*
X883Y667D02*
X885Y667D01*
X1371Y667D02*
X1378Y667D01*
X0Y666D02*
X7Y666D01*
X685Y666D02*
X687Y666D01*
X883Y666D02*
X885Y666D01*
X1371Y666D02*
X1378Y666D01*
X0Y665D02*
X7Y665D01*
X685Y665D02*
X687Y665D01*
X883Y665D02*
X885Y665D01*
X1371Y665D02*
X1378Y665D01*
X0Y664D02*
X7Y664D01*
X685Y664D02*
X687Y664D01*
X883Y664D02*
X885Y664D01*
X1371Y664D02*
X1378Y664D01*
X0Y663D02*
X7Y663D01*
X685Y663D02*
X687Y663D01*
X761Y663D02*
X809Y663D01*
X883Y663D02*
X885Y663D01*
X1371Y663D02*
X1378Y663D01*
X0Y662D02*
X7Y662D01*
X685Y662D02*
X885Y662D01*
X1371Y662D02*
X1378Y662D01*
X0Y661D02*
X7Y661D01*
X685Y661D02*
X885Y661D01*
X1371Y661D02*
X1378Y661D01*
X0Y660D02*
X7Y660D01*
X685Y660D02*
X884Y660D01*
X1371Y660D02*
X1378Y660D01*
X0Y659D02*
X7Y659D01*
X1371Y659D02*
X1378Y659D01*
X0Y658D02*
X7Y658D01*
X1371Y658D02*
X1378Y658D01*
X0Y657D02*
X7Y657D01*
X1371Y657D02*
X1378Y657D01*
X0Y656D02*
X7Y656D01*
X1371Y656D02*
X1378Y656D01*
X0Y655D02*
X7Y655D01*
X1371Y655D02*
X1378Y655D01*
X0Y654D02*
X7Y654D01*
X1371Y654D02*
X1378Y654D01*
X0Y653D02*
X7Y653D01*
X1371Y653D02*
X1378Y653D01*
X0Y652D02*
X7Y652D01*
X1371Y652D02*
X1378Y652D01*
X0Y651D02*
X7Y651D01*
X734Y651D02*
X747Y651D01*
X766Y651D02*
X775Y651D01*
X798Y651D02*
X809Y651D01*
X1371Y651D02*
X1378Y651D01*
X0Y650D02*
X7Y650D01*
X734Y650D02*
X750Y650D01*
X764Y650D02*
X775Y650D01*
X795Y650D02*
X812Y650D01*
X1371Y650D02*
X1378Y650D01*
X0Y649D02*
X7Y649D01*
X734Y649D02*
X751Y649D01*
X764Y649D02*
X775Y649D01*
X794Y649D02*
X813Y649D01*
X1371Y649D02*
X1378Y649D01*
X0Y648D02*
X7Y648D01*
X734Y648D02*
X752Y648D01*
X764Y648D02*
X775Y648D01*
X794Y648D02*
X813Y648D01*
X1371Y648D02*
X1378Y648D01*
X0Y647D02*
X7Y647D01*
X734Y647D02*
X753Y647D01*
X765Y647D02*
X775Y647D01*
X794Y647D02*
X813Y647D01*
X1371Y647D02*
X1378Y647D01*
X0Y646D02*
X7Y646D01*
X734Y646D02*
X737Y646D01*
X750Y646D02*
X753Y646D01*
X772Y646D02*
X775Y646D01*
X794Y646D02*
X797Y646D01*
X810Y646D02*
X814Y646D01*
X1371Y646D02*
X1378Y646D01*
X0Y645D02*
X7Y645D01*
X734Y645D02*
X737Y645D01*
X750Y645D02*
X753Y645D01*
X772Y645D02*
X775Y645D01*
X794Y645D02*
X797Y645D01*
X810Y645D02*
X814Y645D01*
X1371Y645D02*
X1378Y645D01*
X0Y644D02*
X7Y644D01*
X734Y644D02*
X737Y644D01*
X750Y644D02*
X753Y644D01*
X772Y644D02*
X775Y644D01*
X794Y644D02*
X797Y644D01*
X810Y644D02*
X814Y644D01*
X1371Y644D02*
X1378Y644D01*
X0Y643D02*
X7Y643D01*
X734Y643D02*
X737Y643D01*
X750Y643D02*
X753Y643D01*
X772Y643D02*
X775Y643D01*
X794Y643D02*
X797Y643D01*
X810Y643D02*
X814Y643D01*
X1371Y643D02*
X1378Y643D01*
X0Y642D02*
X7Y642D01*
X734Y642D02*
X737Y642D01*
X750Y642D02*
X753Y642D01*
X772Y642D02*
X775Y642D01*
X794Y642D02*
X797Y642D01*
X810Y642D02*
X814Y642D01*
X1371Y642D02*
X1378Y642D01*
X0Y641D02*
X7Y641D01*
X734Y641D02*
X737Y641D01*
X749Y641D02*
X753Y641D01*
X772Y641D02*
X775Y641D01*
X794Y641D02*
X797Y641D01*
X810Y641D02*
X814Y641D01*
X1371Y641D02*
X1378Y641D01*
X0Y640D02*
X7Y640D01*
X734Y640D02*
X753Y640D01*
X772Y640D02*
X775Y640D01*
X794Y640D02*
X797Y640D01*
X810Y640D02*
X814Y640D01*
X1371Y640D02*
X1378Y640D01*
X0Y639D02*
X7Y639D01*
X734Y639D02*
X752Y639D01*
X772Y639D02*
X775Y639D01*
X794Y639D02*
X797Y639D01*
X810Y639D02*
X814Y639D01*
X1371Y639D02*
X1378Y639D01*
X0Y638D02*
X7Y638D01*
X734Y638D02*
X751Y638D01*
X772Y638D02*
X775Y638D01*
X794Y638D02*
X797Y638D01*
X810Y638D02*
X814Y638D01*
X1371Y638D02*
X1378Y638D01*
X0Y637D02*
X7Y637D01*
X734Y637D02*
X750Y637D01*
X772Y637D02*
X775Y637D01*
X794Y637D02*
X797Y637D01*
X810Y637D02*
X814Y637D01*
X1371Y637D02*
X1378Y637D01*
X0Y636D02*
X7Y636D01*
X734Y636D02*
X737Y636D01*
X741Y636D02*
X745Y636D01*
X772Y636D02*
X775Y636D01*
X794Y636D02*
X797Y636D01*
X810Y636D02*
X814Y636D01*
X1371Y636D02*
X1378Y636D01*
X0Y635D02*
X7Y635D01*
X734Y635D02*
X737Y635D01*
X741Y635D02*
X745Y635D01*
X772Y635D02*
X775Y635D01*
X794Y635D02*
X797Y635D01*
X810Y635D02*
X814Y635D01*
X1371Y635D02*
X1378Y635D01*
X0Y634D02*
X7Y634D01*
X734Y634D02*
X737Y634D01*
X742Y634D02*
X746Y634D01*
X772Y634D02*
X775Y634D01*
X794Y634D02*
X797Y634D01*
X810Y634D02*
X814Y634D01*
X1371Y634D02*
X1378Y634D01*
X0Y633D02*
X7Y633D01*
X734Y633D02*
X737Y633D01*
X742Y633D02*
X746Y633D01*
X772Y633D02*
X775Y633D01*
X781Y633D02*
X782Y633D01*
X794Y633D02*
X797Y633D01*
X810Y633D02*
X814Y633D01*
X1371Y633D02*
X1378Y633D01*
X0Y632D02*
X7Y632D01*
X734Y632D02*
X737Y632D01*
X743Y632D02*
X747Y632D01*
X772Y632D02*
X775Y632D01*
X780Y632D02*
X783Y632D01*
X794Y632D02*
X797Y632D01*
X810Y632D02*
X814Y632D01*
X1371Y632D02*
X1378Y632D01*
X0Y631D02*
X7Y631D01*
X734Y631D02*
X737Y631D01*
X744Y631D02*
X748Y631D01*
X772Y631D02*
X775Y631D01*
X780Y631D02*
X783Y631D01*
X794Y631D02*
X797Y631D01*
X810Y631D02*
X814Y631D01*
X1371Y631D02*
X1378Y631D01*
X0Y630D02*
X7Y630D01*
X734Y630D02*
X737Y630D01*
X744Y630D02*
X748Y630D01*
X772Y630D02*
X775Y630D01*
X780Y630D02*
X783Y630D01*
X794Y630D02*
X797Y630D01*
X810Y630D02*
X814Y630D01*
X1371Y630D02*
X1378Y630D01*
X0Y629D02*
X7Y629D01*
X734Y629D02*
X737Y629D01*
X745Y629D02*
X749Y629D01*
X772Y629D02*
X775Y629D01*
X780Y629D02*
X783Y629D01*
X794Y629D02*
X797Y629D01*
X810Y629D02*
X814Y629D01*
X1371Y629D02*
X1378Y629D01*
X0Y628D02*
X7Y628D01*
X734Y628D02*
X737Y628D01*
X745Y628D02*
X749Y628D01*
X772Y628D02*
X775Y628D01*
X780Y628D02*
X783Y628D01*
X794Y628D02*
X797Y628D01*
X810Y628D02*
X814Y628D01*
X1371Y628D02*
X1378Y628D01*
X0Y627D02*
X7Y627D01*
X734Y627D02*
X737Y627D01*
X746Y627D02*
X750Y627D01*
X772Y627D02*
X775Y627D01*
X780Y627D02*
X783Y627D01*
X794Y627D02*
X797Y627D01*
X810Y627D02*
X814Y627D01*
X1371Y627D02*
X1378Y627D01*
X0Y626D02*
X7Y626D01*
X734Y626D02*
X737Y626D01*
X747Y626D02*
X750Y626D01*
X772Y626D02*
X775Y626D01*
X780Y626D02*
X783Y626D01*
X794Y626D02*
X797Y626D01*
X810Y626D02*
X814Y626D01*
X1371Y626D02*
X1378Y626D01*
X0Y625D02*
X7Y625D01*
X734Y625D02*
X737Y625D01*
X747Y625D02*
X751Y625D01*
X772Y625D02*
X775Y625D01*
X780Y625D02*
X783Y625D01*
X794Y625D02*
X797Y625D01*
X810Y625D02*
X814Y625D01*
X1371Y625D02*
X1378Y625D01*
X0Y624D02*
X7Y624D01*
X734Y624D02*
X737Y624D01*
X748Y624D02*
X752Y624D01*
X772Y624D02*
X775Y624D01*
X780Y624D02*
X783Y624D01*
X794Y624D02*
X797Y624D01*
X810Y624D02*
X814Y624D01*
X1371Y624D02*
X1378Y624D01*
X0Y623D02*
X7Y623D01*
X734Y623D02*
X737Y623D01*
X748Y623D02*
X752Y623D01*
X772Y623D02*
X775Y623D01*
X780Y623D02*
X783Y623D01*
X794Y623D02*
X797Y623D01*
X810Y623D02*
X814Y623D01*
X1371Y623D02*
X1378Y623D01*
X0Y622D02*
X7Y622D01*
X734Y622D02*
X737Y622D01*
X749Y622D02*
X753Y622D01*
X764Y622D02*
X783Y622D01*
X794Y622D02*
X813Y622D01*
X1371Y622D02*
X1378Y622D01*
X0Y621D02*
X7Y621D01*
X734Y621D02*
X737Y621D01*
X749Y621D02*
X753Y621D01*
X764Y621D02*
X783Y621D01*
X794Y621D02*
X813Y621D01*
X1371Y621D02*
X1378Y621D01*
X0Y620D02*
X7Y620D01*
X734Y620D02*
X737Y620D01*
X750Y620D02*
X753Y620D01*
X764Y620D02*
X783Y620D01*
X795Y620D02*
X812Y620D01*
X1371Y620D02*
X1378Y620D01*
X0Y619D02*
X7Y619D01*
X734Y619D02*
X736Y619D01*
X751Y619D02*
X752Y619D01*
X765Y619D02*
X783Y619D01*
X796Y619D02*
X811Y619D01*
X1371Y619D02*
X1378Y619D01*
X0Y618D02*
X7Y618D01*
X1371Y618D02*
X1378Y618D01*
X0Y617D02*
X7Y617D01*
X1371Y617D02*
X1378Y617D01*
X0Y616D02*
X7Y616D01*
X1371Y616D02*
X1378Y616D01*
X0Y615D02*
X7Y615D01*
X1371Y615D02*
X1378Y615D01*
X0Y614D02*
X7Y614D01*
X1371Y614D02*
X1378Y614D01*
X0Y613D02*
X7Y613D01*
X1371Y613D02*
X1378Y613D01*
X0Y612D02*
X7Y612D01*
X1371Y612D02*
X1378Y612D01*
X0Y611D02*
X7Y611D01*
X1371Y611D02*
X1378Y611D01*
X0Y610D02*
X7Y610D01*
X1371Y610D02*
X1378Y610D01*
X0Y609D02*
X7Y609D01*
X1371Y609D02*
X1378Y609D01*
X0Y608D02*
X7Y608D01*
X1371Y608D02*
X1378Y608D01*
X0Y607D02*
X7Y607D01*
X1371Y607D02*
X1378Y607D01*
X0Y606D02*
X7Y606D01*
X1371Y606D02*
X1378Y606D01*
X0Y605D02*
X7Y605D01*
X1371Y605D02*
X1378Y605D01*
X0Y604D02*
X7Y604D01*
X1371Y604D02*
X1378Y604D01*
X0Y603D02*
X7Y603D01*
X1371Y603D02*
X1378Y603D01*
X0Y602D02*
X7Y602D01*
X1371Y602D02*
X1378Y602D01*
X0Y601D02*
X7Y601D01*
X1371Y601D02*
X1378Y601D01*
X0Y600D02*
X7Y600D01*
X1371Y600D02*
X1378Y600D01*
X0Y599D02*
X7Y599D01*
X1371Y599D02*
X1378Y599D01*
X0Y598D02*
X7Y598D01*
X1371Y598D02*
X1378Y598D01*
X0Y597D02*
X7Y597D01*
X1371Y597D02*
X1378Y597D01*
X0Y596D02*
X7Y596D01*
X1371Y596D02*
X1378Y596D01*
X0Y595D02*
X7Y595D01*
X1371Y595D02*
X1378Y595D01*
X0Y594D02*
X7Y594D01*
X1371Y594D02*
X1378Y594D01*
X0Y593D02*
X7Y593D01*
X1371Y593D02*
X1378Y593D01*
X0Y592D02*
X7Y592D01*
X1371Y592D02*
X1378Y592D01*
X0Y591D02*
X7Y591D01*
X1371Y591D02*
X1378Y591D01*
X0Y590D02*
X7Y590D01*
X1371Y590D02*
X1378Y590D01*
X0Y589D02*
X7Y589D01*
X1371Y589D02*
X1378Y589D01*
X0Y588D02*
X7Y588D01*
X1371Y588D02*
X1378Y588D01*
X0Y587D02*
X7Y587D01*
X1371Y587D02*
X1378Y587D01*
X0Y586D02*
X7Y586D01*
X1371Y586D02*
X1378Y586D01*
X0Y585D02*
X7Y585D01*
X1371Y585D02*
X1378Y585D01*
X0Y584D02*
X7Y584D01*
X1371Y584D02*
X1378Y584D01*
X0Y583D02*
X7Y583D01*
X1371Y583D02*
X1378Y583D01*
X0Y582D02*
X7Y582D01*
X1371Y582D02*
X1378Y582D01*
X0Y581D02*
X7Y581D01*
X1371Y581D02*
X1378Y581D01*
X0Y580D02*
X7Y580D01*
X1371Y580D02*
X1378Y580D01*
X0Y579D02*
X7Y579D01*
X1371Y579D02*
X1378Y579D01*
X0Y578D02*
X7Y578D01*
X1371Y578D02*
X1378Y578D01*
X0Y577D02*
X7Y577D01*
X1371Y577D02*
X1378Y577D01*
X0Y576D02*
X7Y576D01*
X1371Y576D02*
X1378Y576D01*
X0Y575D02*
X7Y575D01*
X1371Y575D02*
X1378Y575D01*
X0Y574D02*
X7Y574D01*
X1371Y574D02*
X1378Y574D01*
X0Y573D02*
X7Y573D01*
X1371Y573D02*
X1378Y573D01*
X0Y572D02*
X7Y572D01*
X1371Y572D02*
X1378Y572D01*
X0Y571D02*
X7Y571D01*
X1371Y571D02*
X1378Y571D01*
X0Y570D02*
X7Y570D01*
X1371Y570D02*
X1378Y570D01*
X0Y569D02*
X7Y569D01*
X1371Y569D02*
X1378Y569D01*
X0Y568D02*
X7Y568D01*
X1371Y568D02*
X1378Y568D01*
X0Y567D02*
X7Y567D01*
X1371Y567D02*
X1378Y567D01*
X0Y566D02*
X7Y566D01*
X1371Y566D02*
X1378Y566D01*
X0Y565D02*
X7Y565D01*
X1371Y565D02*
X1378Y565D01*
X0Y564D02*
X7Y564D01*
X1371Y564D02*
X1378Y564D01*
X0Y563D02*
X7Y563D01*
X1371Y563D02*
X1378Y563D01*
X0Y562D02*
X7Y562D01*
X1371Y562D02*
X1378Y562D01*
X0Y561D02*
X7Y561D01*
X1371Y561D02*
X1378Y561D01*
X0Y560D02*
X7Y560D01*
X1371Y560D02*
X1378Y560D01*
X0Y559D02*
X7Y559D01*
X1371Y559D02*
X1378Y559D01*
X0Y558D02*
X7Y558D01*
X1371Y558D02*
X1378Y558D01*
X0Y557D02*
X7Y557D01*
X1371Y557D02*
X1378Y557D01*
X0Y556D02*
X7Y556D01*
X1371Y556D02*
X1378Y556D01*
X0Y555D02*
X7Y555D01*
X1371Y555D02*
X1378Y555D01*
X0Y554D02*
X7Y554D01*
X1371Y554D02*
X1378Y554D01*
X0Y553D02*
X7Y553D01*
X1371Y553D02*
X1378Y553D01*
X0Y552D02*
X7Y552D01*
X1371Y552D02*
X1378Y552D01*
X0Y551D02*
X7Y551D01*
X1371Y551D02*
X1378Y551D01*
X0Y550D02*
X7Y550D01*
X1371Y550D02*
X1378Y550D01*
X0Y549D02*
X7Y549D01*
X1371Y549D02*
X1378Y549D01*
X0Y548D02*
X7Y548D01*
X1371Y548D02*
X1378Y548D01*
X0Y547D02*
X7Y547D01*
X1371Y547D02*
X1378Y547D01*
X0Y546D02*
X7Y546D01*
X1371Y546D02*
X1378Y546D01*
X0Y545D02*
X7Y545D01*
X1371Y545D02*
X1378Y545D01*
X0Y544D02*
X7Y544D01*
X1371Y544D02*
X1378Y544D01*
X0Y543D02*
X7Y543D01*
X1371Y543D02*
X1378Y543D01*
X0Y542D02*
X7Y542D01*
X1371Y542D02*
X1378Y542D01*
X0Y541D02*
X7Y541D01*
X1371Y541D02*
X1378Y541D01*
X0Y540D02*
X7Y540D01*
X1371Y540D02*
X1378Y540D01*
X0Y539D02*
X7Y539D01*
X1371Y539D02*
X1378Y539D01*
X0Y538D02*
X7Y538D01*
X1371Y538D02*
X1378Y538D01*
X0Y537D02*
X7Y537D01*
X1371Y537D02*
X1378Y537D01*
X0Y536D02*
X7Y536D01*
X1371Y536D02*
X1378Y536D01*
X0Y535D02*
X7Y535D01*
X1371Y535D02*
X1378Y535D01*
X0Y534D02*
X7Y534D01*
X1371Y534D02*
X1378Y534D01*
X0Y533D02*
X7Y533D01*
X1371Y533D02*
X1378Y533D01*
X0Y532D02*
X7Y532D01*
X1371Y532D02*
X1378Y532D01*
X0Y531D02*
X7Y531D01*
X1371Y531D02*
X1378Y531D01*
X0Y530D02*
X7Y530D01*
X1371Y530D02*
X1378Y530D01*
X0Y529D02*
X7Y529D01*
X1371Y529D02*
X1378Y529D01*
X0Y528D02*
X7Y528D01*
X1371Y528D02*
X1378Y528D01*
X0Y527D02*
X7Y527D01*
X1371Y527D02*
X1378Y527D01*
X0Y526D02*
X7Y526D01*
X1371Y526D02*
X1378Y526D01*
X0Y525D02*
X7Y525D01*
X1371Y525D02*
X1378Y525D01*
X0Y524D02*
X7Y524D01*
X1371Y524D02*
X1378Y524D01*
X0Y523D02*
X7Y523D01*
X1371Y523D02*
X1378Y523D01*
X0Y522D02*
X7Y522D01*
X1371Y522D02*
X1378Y522D01*
X0Y521D02*
X7Y521D01*
X1371Y521D02*
X1378Y521D01*
X0Y520D02*
X7Y520D01*
X1371Y520D02*
X1378Y520D01*
X0Y519D02*
X7Y519D01*
X1371Y519D02*
X1378Y519D01*
X0Y518D02*
X7Y518D01*
X1371Y518D02*
X1378Y518D01*
X0Y517D02*
X7Y517D01*
X1371Y517D02*
X1378Y517D01*
X0Y516D02*
X7Y516D01*
X1371Y516D02*
X1378Y516D01*
X0Y515D02*
X7Y515D01*
X1371Y515D02*
X1378Y515D01*
X0Y514D02*
X7Y514D01*
X1371Y514D02*
X1378Y514D01*
X0Y513D02*
X7Y513D01*
X1371Y513D02*
X1378Y513D01*
X0Y512D02*
X7Y512D01*
X1371Y512D02*
X1378Y512D01*
X0Y511D02*
X7Y511D01*
X1371Y511D02*
X1378Y511D01*
X0Y510D02*
X7Y510D01*
X1371Y510D02*
X1378Y510D01*
X0Y509D02*
X7Y509D01*
X1371Y509D02*
X1378Y509D01*
X0Y508D02*
X7Y508D01*
X1371Y508D02*
X1378Y508D01*
X0Y507D02*
X7Y507D01*
X1371Y507D02*
X1378Y507D01*
X0Y506D02*
X7Y506D01*
X1371Y506D02*
X1378Y506D01*
X0Y505D02*
X7Y505D01*
X1371Y505D02*
X1378Y505D01*
X0Y504D02*
X7Y504D01*
X1371Y504D02*
X1378Y504D01*
X0Y503D02*
X7Y503D01*
X1371Y503D02*
X1378Y503D01*
X0Y502D02*
X7Y502D01*
X1371Y502D02*
X1378Y502D01*
X0Y501D02*
X7Y501D01*
X1371Y501D02*
X1378Y501D01*
X0Y500D02*
X7Y500D01*
X1371Y500D02*
X1378Y500D01*
X0Y499D02*
X7Y499D01*
X1371Y499D02*
X1378Y499D01*
X0Y498D02*
X7Y498D01*
X1371Y498D02*
X1378Y498D01*
X0Y497D02*
X7Y497D01*
X1371Y497D02*
X1378Y497D01*
X0Y496D02*
X7Y496D01*
X1371Y496D02*
X1378Y496D01*
X0Y495D02*
X7Y495D01*
X1371Y495D02*
X1378Y495D01*
X0Y494D02*
X7Y494D01*
X1371Y494D02*
X1378Y494D01*
X0Y493D02*
X7Y493D01*
X1371Y493D02*
X1378Y493D01*
X0Y492D02*
X7Y492D01*
X1371Y492D02*
X1378Y492D01*
X0Y491D02*
X7Y491D01*
X1371Y491D02*
X1378Y491D01*
X0Y490D02*
X7Y490D01*
X1371Y490D02*
X1378Y490D01*
X0Y489D02*
X7Y489D01*
X1371Y489D02*
X1378Y489D01*
X0Y488D02*
X7Y488D01*
X1371Y488D02*
X1378Y488D01*
X0Y487D02*
X7Y487D01*
X1371Y487D02*
X1378Y487D01*
X0Y486D02*
X7Y486D01*
X1371Y486D02*
X1378Y486D01*
X0Y485D02*
X7Y485D01*
X1371Y485D02*
X1378Y485D01*
X0Y484D02*
X7Y484D01*
X1371Y484D02*
X1378Y484D01*
X0Y483D02*
X7Y483D01*
X1371Y483D02*
X1378Y483D01*
X0Y482D02*
X7Y482D01*
X1371Y482D02*
X1378Y482D01*
X0Y481D02*
X7Y481D01*
X1371Y481D02*
X1378Y481D01*
X0Y480D02*
X7Y480D01*
X1371Y480D02*
X1378Y480D01*
X0Y479D02*
X7Y479D01*
X1371Y479D02*
X1378Y479D01*
X0Y478D02*
X7Y478D01*
X1371Y478D02*
X1378Y478D01*
X0Y477D02*
X7Y477D01*
X1371Y477D02*
X1378Y477D01*
X0Y476D02*
X7Y476D01*
X1371Y476D02*
X1378Y476D01*
X0Y475D02*
X7Y475D01*
X1371Y475D02*
X1378Y475D01*
X0Y474D02*
X7Y474D01*
X1371Y474D02*
X1378Y474D01*
X0Y473D02*
X7Y473D01*
X1371Y473D02*
X1378Y473D01*
X0Y472D02*
X7Y472D01*
X1371Y472D02*
X1378Y472D01*
X0Y471D02*
X7Y471D01*
X1371Y471D02*
X1378Y471D01*
X0Y470D02*
X7Y470D01*
X1371Y470D02*
X1378Y470D01*
X0Y469D02*
X7Y469D01*
X1371Y469D02*
X1378Y469D01*
X0Y468D02*
X7Y468D01*
X1371Y468D02*
X1378Y468D01*
X0Y467D02*
X7Y467D01*
X1371Y467D02*
X1378Y467D01*
X0Y466D02*
X7Y466D01*
X1371Y466D02*
X1378Y466D01*
X0Y465D02*
X7Y465D01*
X1371Y465D02*
X1378Y465D01*
X0Y464D02*
X7Y464D01*
X1371Y464D02*
X1378Y464D01*
X0Y463D02*
X7Y463D01*
X1371Y463D02*
X1378Y463D01*
X0Y462D02*
X7Y462D01*
X1371Y462D02*
X1378Y462D01*
X0Y461D02*
X7Y461D01*
X1371Y461D02*
X1378Y461D01*
X0Y460D02*
X7Y460D01*
X1371Y460D02*
X1378Y460D01*
X0Y459D02*
X7Y459D01*
X1371Y459D02*
X1378Y459D01*
X0Y458D02*
X7Y458D01*
X1371Y458D02*
X1378Y458D01*
X0Y457D02*
X7Y457D01*
X1371Y457D02*
X1378Y457D01*
X0Y456D02*
X7Y456D01*
X1371Y456D02*
X1378Y456D01*
X0Y455D02*
X7Y455D01*
X1371Y455D02*
X1378Y455D01*
X0Y454D02*
X7Y454D01*
X1371Y454D02*
X1378Y454D01*
X0Y453D02*
X7Y453D01*
X1371Y453D02*
X1378Y453D01*
X0Y452D02*
X7Y452D01*
X1371Y452D02*
X1378Y452D01*
X0Y451D02*
X7Y451D01*
X1371Y451D02*
X1378Y451D01*
X0Y450D02*
X7Y450D01*
X1371Y450D02*
X1378Y450D01*
X0Y449D02*
X7Y449D01*
X1371Y449D02*
X1378Y449D01*
X0Y448D02*
X7Y448D01*
X1371Y448D02*
X1378Y448D01*
X0Y447D02*
X7Y447D01*
X1371Y447D02*
X1378Y447D01*
X0Y446D02*
X7Y446D01*
X1371Y446D02*
X1378Y446D01*
X0Y445D02*
X7Y445D01*
X1371Y445D02*
X1378Y445D01*
X0Y444D02*
X7Y444D01*
X1371Y444D02*
X1378Y444D01*
X0Y443D02*
X7Y443D01*
X1371Y443D02*
X1378Y443D01*
X0Y442D02*
X7Y442D01*
X1371Y442D02*
X1378Y442D01*
X0Y441D02*
X7Y441D01*
X1371Y441D02*
X1378Y441D01*
X0Y440D02*
X7Y440D01*
X1371Y440D02*
X1378Y440D01*
X0Y439D02*
X7Y439D01*
X1371Y439D02*
X1378Y439D01*
X0Y438D02*
X7Y438D01*
X1371Y438D02*
X1378Y438D01*
X0Y437D02*
X7Y437D01*
X1371Y437D02*
X1378Y437D01*
X0Y436D02*
X7Y436D01*
X1371Y436D02*
X1378Y436D01*
X0Y435D02*
X7Y435D01*
X1371Y435D02*
X1378Y435D01*
X0Y434D02*
X7Y434D01*
X1371Y434D02*
X1378Y434D01*
X0Y433D02*
X7Y433D01*
X1371Y433D02*
X1378Y433D01*
X0Y432D02*
X7Y432D01*
X1371Y432D02*
X1378Y432D01*
X0Y431D02*
X7Y431D01*
X1371Y431D02*
X1378Y431D01*
X0Y430D02*
X7Y430D01*
X1371Y430D02*
X1378Y430D01*
X0Y429D02*
X7Y429D01*
X1371Y429D02*
X1378Y429D01*
X0Y428D02*
X7Y428D01*
X1371Y428D02*
X1378Y428D01*
X0Y427D02*
X7Y427D01*
X1371Y427D02*
X1378Y427D01*
X0Y426D02*
X7Y426D01*
X1371Y426D02*
X1378Y426D01*
X0Y425D02*
X7Y425D01*
X1371Y425D02*
X1378Y425D01*
X0Y424D02*
X7Y424D01*
X1371Y424D02*
X1378Y424D01*
X0Y423D02*
X7Y423D01*
X1371Y423D02*
X1378Y423D01*
X0Y422D02*
X7Y422D01*
X1371Y422D02*
X1378Y422D01*
X0Y421D02*
X7Y421D01*
X1371Y421D02*
X1378Y421D01*
X0Y420D02*
X7Y420D01*
X1371Y420D02*
X1378Y420D01*
X0Y419D02*
X7Y419D01*
X1371Y419D02*
X1378Y419D01*
X0Y418D02*
X7Y418D01*
X1371Y418D02*
X1378Y418D01*
X0Y417D02*
X7Y417D01*
X1371Y417D02*
X1378Y417D01*
X0Y416D02*
X7Y416D01*
X1371Y416D02*
X1378Y416D01*
X0Y415D02*
X7Y415D01*
X1371Y415D02*
X1378Y415D01*
X0Y414D02*
X7Y414D01*
X1371Y414D02*
X1378Y414D01*
X0Y413D02*
X7Y413D01*
X1371Y413D02*
X1378Y413D01*
X0Y412D02*
X7Y412D01*
X1371Y412D02*
X1378Y412D01*
X0Y411D02*
X7Y411D01*
X1371Y411D02*
X1378Y411D01*
X0Y410D02*
X7Y410D01*
X1371Y410D02*
X1378Y410D01*
X0Y409D02*
X7Y409D01*
X1371Y409D02*
X1378Y409D01*
X0Y408D02*
X7Y408D01*
X1371Y408D02*
X1378Y408D01*
X0Y407D02*
X7Y407D01*
X1371Y407D02*
X1378Y407D01*
X0Y406D02*
X7Y406D01*
X1371Y406D02*
X1378Y406D01*
X0Y405D02*
X7Y405D01*
X1371Y405D02*
X1378Y405D01*
X0Y404D02*
X7Y404D01*
X1371Y404D02*
X1378Y404D01*
X0Y403D02*
X7Y403D01*
X1371Y403D02*
X1378Y403D01*
X0Y402D02*
X7Y402D01*
X1371Y402D02*
X1378Y402D01*
X0Y401D02*
X7Y401D01*
X1371Y401D02*
X1378Y401D01*
X0Y400D02*
X7Y400D01*
X1371Y400D02*
X1378Y400D01*
X0Y399D02*
X7Y399D01*
X1371Y399D02*
X1378Y399D01*
X0Y398D02*
X7Y398D01*
X1371Y398D02*
X1378Y398D01*
X0Y397D02*
X7Y397D01*
X1371Y397D02*
X1378Y397D01*
X0Y396D02*
X7Y396D01*
X1371Y396D02*
X1378Y396D01*
X0Y395D02*
X7Y395D01*
X1371Y395D02*
X1378Y395D01*
X0Y394D02*
X7Y394D01*
X1371Y394D02*
X1378Y394D01*
X0Y393D02*
X7Y393D01*
X1371Y393D02*
X1378Y393D01*
X0Y392D02*
X7Y392D01*
X1371Y392D02*
X1378Y392D01*
X0Y391D02*
X7Y391D01*
X1371Y391D02*
X1378Y391D01*
X0Y390D02*
X7Y390D01*
X1371Y390D02*
X1378Y390D01*
X0Y389D02*
X7Y389D01*
X1371Y389D02*
X1378Y389D01*
X0Y388D02*
X7Y388D01*
X1371Y388D02*
X1378Y388D01*
X0Y387D02*
X7Y387D01*
X1371Y387D02*
X1378Y387D01*
X0Y386D02*
X7Y386D01*
X1371Y386D02*
X1378Y386D01*
X0Y385D02*
X7Y385D01*
X1371Y385D02*
X1378Y385D01*
X0Y384D02*
X7Y384D01*
X1371Y384D02*
X1378Y384D01*
X0Y383D02*
X7Y383D01*
X1371Y383D02*
X1378Y383D01*
X0Y382D02*
X7Y382D01*
X1371Y382D02*
X1378Y382D01*
X0Y381D02*
X7Y381D01*
X1371Y381D02*
X1378Y381D01*
X0Y380D02*
X7Y380D01*
X1371Y380D02*
X1378Y380D01*
X0Y379D02*
X7Y379D01*
X1371Y379D02*
X1378Y379D01*
X0Y378D02*
X7Y378D01*
X1371Y378D02*
X1378Y378D01*
X0Y377D02*
X7Y377D01*
X1371Y377D02*
X1378Y377D01*
X0Y376D02*
X7Y376D01*
X1371Y376D02*
X1378Y376D01*
X0Y375D02*
X7Y375D01*
X1371Y375D02*
X1378Y375D01*
X0Y374D02*
X7Y374D01*
X1371Y374D02*
X1378Y374D01*
X0Y373D02*
X7Y373D01*
X1371Y373D02*
X1378Y373D01*
X0Y372D02*
X7Y372D01*
X1371Y372D02*
X1378Y372D01*
X0Y371D02*
X7Y371D01*
X1371Y371D02*
X1378Y371D01*
X0Y370D02*
X7Y370D01*
X1371Y370D02*
X1378Y370D01*
X0Y369D02*
X7Y369D01*
X1371Y369D02*
X1378Y369D01*
X0Y368D02*
X7Y368D01*
X1371Y368D02*
X1378Y368D01*
X0Y367D02*
X7Y367D01*
X1371Y367D02*
X1378Y367D01*
X0Y366D02*
X7Y366D01*
X1371Y366D02*
X1378Y366D01*
X0Y365D02*
X7Y365D01*
X1371Y365D02*
X1378Y365D01*
X0Y364D02*
X7Y364D01*
X1371Y364D02*
X1378Y364D01*
X0Y363D02*
X7Y363D01*
X1371Y363D02*
X1378Y363D01*
X0Y362D02*
X7Y362D01*
X1371Y362D02*
X1378Y362D01*
X0Y361D02*
X7Y361D01*
X1371Y361D02*
X1378Y361D01*
X0Y360D02*
X7Y360D01*
X1371Y360D02*
X1378Y360D01*
X0Y359D02*
X7Y359D01*
X1371Y359D02*
X1378Y359D01*
X0Y358D02*
X7Y358D01*
X1371Y358D02*
X1378Y358D01*
X0Y357D02*
X7Y357D01*
X1371Y357D02*
X1378Y357D01*
X0Y356D02*
X7Y356D01*
X1371Y356D02*
X1378Y356D01*
X0Y355D02*
X7Y355D01*
X1371Y355D02*
X1378Y355D01*
X0Y354D02*
X7Y354D01*
X1371Y354D02*
X1378Y354D01*
X0Y353D02*
X7Y353D01*
X1371Y353D02*
X1378Y353D01*
X0Y352D02*
X7Y352D01*
X1371Y352D02*
X1378Y352D01*
X0Y351D02*
X7Y351D01*
X1371Y351D02*
X1378Y351D01*
X0Y350D02*
X7Y350D01*
X1371Y350D02*
X1378Y350D01*
X0Y349D02*
X7Y349D01*
X1371Y349D02*
X1378Y349D01*
X0Y348D02*
X7Y348D01*
X1371Y348D02*
X1378Y348D01*
X0Y347D02*
X7Y347D01*
X1371Y347D02*
X1378Y347D01*
X0Y346D02*
X7Y346D01*
X1371Y346D02*
X1378Y346D01*
X0Y345D02*
X7Y345D01*
X1371Y345D02*
X1378Y345D01*
X0Y344D02*
X7Y344D01*
X1371Y344D02*
X1378Y344D01*
X0Y343D02*
X7Y343D01*
X128Y343D02*
X178Y343D01*
X1371Y343D02*
X1378Y343D01*
X0Y342D02*
X11Y342D01*
X128Y342D02*
X181Y342D01*
X1371Y342D02*
X1378Y342D01*
X0Y341D02*
X12Y341D01*
X128Y341D02*
X182Y341D01*
X1371Y341D02*
X1378Y341D01*
X0Y340D02*
X13Y340D01*
X128Y340D02*
X182Y340D01*
X1371Y340D02*
X1378Y340D01*
X0Y339D02*
X13Y339D01*
X129Y339D02*
X182Y339D01*
X1371Y339D02*
X1378Y339D01*
X0Y338D02*
X13Y338D01*
X129Y338D02*
X182Y338D01*
X1371Y338D02*
X1378Y338D01*
X0Y337D02*
X13Y337D01*
X129Y337D02*
X182Y337D01*
X1371Y337D02*
X1378Y337D01*
X0Y336D02*
X13Y336D01*
X129Y336D02*
X181Y336D01*
X1371Y336D02*
X1378Y336D01*
X0Y335D02*
X12Y335D01*
X1371Y335D02*
X1378Y335D01*
X0Y334D02*
X12Y334D01*
X1371Y334D02*
X1378Y334D01*
X0Y333D02*
X12Y333D01*
X1371Y333D02*
X1378Y333D01*
X0Y332D02*
X12Y332D01*
X1371Y332D02*
X1378Y332D01*
X0Y331D02*
X12Y331D01*
X1371Y331D02*
X1378Y331D01*
X0Y330D02*
X12Y330D01*
X1371Y330D02*
X1378Y330D01*
X0Y329D02*
X12Y329D01*
X1371Y329D02*
X1378Y329D01*
X0Y328D02*
X12Y328D01*
X1371Y328D02*
X1378Y328D01*
X0Y327D02*
X12Y327D01*
X1371Y327D02*
X1378Y327D01*
X0Y326D02*
X12Y326D01*
X1371Y326D02*
X1378Y326D01*
X0Y325D02*
X12Y325D01*
X1371Y325D02*
X1378Y325D01*
X0Y324D02*
X13Y324D01*
X1371Y324D02*
X1378Y324D01*
X0Y323D02*
X13Y323D01*
X1371Y323D02*
X1378Y323D01*
X0Y322D02*
X13Y322D01*
X1371Y322D02*
X1378Y322D01*
X0Y321D02*
X13Y321D01*
X1371Y321D02*
X1378Y321D01*
X0Y320D02*
X13Y320D01*
X1371Y320D02*
X1378Y320D01*
X0Y319D02*
X13Y319D01*
X1371Y319D02*
X1378Y319D01*
X0Y318D02*
X13Y318D01*
X1371Y318D02*
X1378Y318D01*
X0Y317D02*
X13Y317D01*
X1371Y317D02*
X1378Y317D01*
X0Y316D02*
X13Y316D01*
X1371Y316D02*
X1378Y316D01*
X0Y315D02*
X13Y315D01*
X1371Y315D02*
X1378Y315D01*
X0Y314D02*
X13Y314D01*
X1371Y314D02*
X1378Y314D01*
X0Y313D02*
X13Y313D01*
X1371Y313D02*
X1378Y313D01*
X0Y312D02*
X13Y312D01*
X1371Y312D02*
X1378Y312D01*
X0Y311D02*
X13Y311D01*
X1371Y311D02*
X1378Y311D01*
X0Y310D02*
X13Y310D01*
X1371Y310D02*
X1378Y310D01*
X0Y309D02*
X13Y309D01*
X1371Y309D02*
X1378Y309D01*
X0Y308D02*
X13Y308D01*
X1371Y308D02*
X1378Y308D01*
X0Y307D02*
X13Y307D01*
X1371Y307D02*
X1378Y307D01*
X0Y306D02*
X13Y306D01*
X1371Y306D02*
X1378Y306D01*
X0Y305D02*
X13Y305D01*
X1371Y305D02*
X1378Y305D01*
X0Y304D02*
X13Y304D01*
X1371Y304D02*
X1378Y304D01*
X0Y303D02*
X13Y303D01*
X1371Y303D02*
X1378Y303D01*
X0Y302D02*
X13Y302D01*
X1371Y302D02*
X1378Y302D01*
X0Y301D02*
X13Y301D01*
X1371Y301D02*
X1378Y301D01*
X0Y300D02*
X13Y300D01*
X1371Y300D02*
X1378Y300D01*
X0Y299D02*
X13Y299D01*
X1371Y299D02*
X1378Y299D01*
X0Y298D02*
X13Y298D01*
X1371Y298D02*
X1378Y298D01*
X0Y297D02*
X13Y297D01*
X1371Y297D02*
X1378Y297D01*
X0Y296D02*
X13Y296D01*
X1371Y296D02*
X1378Y296D01*
X0Y295D02*
X13Y295D01*
X1371Y295D02*
X1378Y295D01*
X0Y294D02*
X13Y294D01*
X1371Y294D02*
X1378Y294D01*
X0Y293D02*
X13Y293D01*
X1371Y293D02*
X1378Y293D01*
X0Y292D02*
X13Y292D01*
X1371Y292D02*
X1378Y292D01*
X0Y291D02*
X13Y291D01*
X1371Y291D02*
X1378Y291D01*
X0Y290D02*
X13Y290D01*
X1371Y290D02*
X1378Y290D01*
X0Y289D02*
X13Y289D01*
X1371Y289D02*
X1378Y289D01*
X0Y288D02*
X13Y288D01*
X1371Y288D02*
X1378Y288D01*
X0Y287D02*
X13Y287D01*
X1371Y287D02*
X1378Y287D01*
X0Y286D02*
X13Y286D01*
X1371Y286D02*
X1378Y286D01*
X0Y285D02*
X13Y285D01*
X1371Y285D02*
X1378Y285D01*
X0Y284D02*
X13Y284D01*
X1371Y284D02*
X1378Y284D01*
X0Y283D02*
X13Y283D01*
X1371Y283D02*
X1378Y283D01*
X0Y282D02*
X13Y282D01*
X1371Y282D02*
X1378Y282D01*
X0Y281D02*
X13Y281D01*
X1371Y281D02*
X1378Y281D01*
X0Y280D02*
X13Y280D01*
X1371Y280D02*
X1378Y280D01*
X0Y279D02*
X13Y279D01*
X1371Y279D02*
X1378Y279D01*
X0Y278D02*
X12Y278D01*
X1371Y278D02*
X1378Y278D01*
X0Y277D02*
X10Y277D01*
X1371Y277D02*
X1378Y277D01*
X0Y276D02*
X8Y276D01*
X1371Y276D02*
X1378Y276D01*
X0Y275D02*
X7Y275D01*
X1371Y275D02*
X1378Y275D01*
X0Y274D02*
X6Y274D01*
X1371Y274D02*
X1378Y274D01*
X0Y273D02*
X4Y273D01*
X1371Y273D02*
X1378Y273D01*
X0Y272D02*
X3Y272D01*
X1371Y272D02*
X1378Y272D01*
X0Y271D02*
X2Y271D01*
X1371Y271D02*
X1378Y271D01*
X0Y270D02*
X2Y270D01*
X1371Y270D02*
X1378Y270D01*
X0Y269D02*
X1Y269D01*
X1371Y269D02*
X1378Y269D01*
X0Y268D02*
X0Y268D01*
X1371Y268D02*
X1378Y268D01*
X1371Y267D02*
X1378Y267D01*
X1371Y266D02*
X1378Y266D01*
X1371Y265D02*
X1378Y265D01*
X1371Y264D02*
X1378Y264D01*
X1371Y263D02*
X1378Y263D01*
X1371Y262D02*
X1378Y262D01*
X1371Y261D02*
X1378Y261D01*
X1371Y260D02*
X1378Y260D01*
X1371Y259D02*
X1378Y259D01*
X1371Y258D02*
X1378Y258D01*
X1371Y257D02*
X1378Y257D01*
X1371Y256D02*
X1378Y256D01*
X1371Y255D02*
X1378Y255D01*
X1371Y254D02*
X1378Y254D01*
X1371Y253D02*
X1378Y253D01*
X1371Y252D02*
X1378Y252D01*
X1371Y251D02*
X1378Y251D01*
X435Y250D02*
X635Y250D01*
X1371Y250D02*
X1378Y250D01*
X435Y249D02*
X635Y249D01*
X1371Y249D02*
X1378Y249D01*
X435Y248D02*
X635Y248D01*
X1371Y248D02*
X1378Y248D01*
X435Y247D02*
X437Y247D01*
X511Y247D02*
X559Y247D01*
X633Y247D02*
X635Y247D01*
X1371Y247D02*
X1378Y247D01*
X435Y246D02*
X437Y246D01*
X633Y246D02*
X635Y246D01*
X1371Y246D02*
X1378Y246D01*
X435Y245D02*
X437Y245D01*
X633Y245D02*
X635Y245D01*
X1371Y245D02*
X1378Y245D01*
X61Y244D02*
X82Y244D01*
X435Y244D02*
X437Y244D01*
X633Y244D02*
X635Y244D01*
X1371Y244D02*
X1378Y244D01*
X0Y243D02*
X0Y243D01*
X60Y243D02*
X83Y243D01*
X435Y243D02*
X437Y243D01*
X633Y243D02*
X635Y243D01*
X1371Y243D02*
X1378Y243D01*
X0Y242D02*
X0Y242D01*
X60Y242D02*
X83Y242D01*
X435Y242D02*
X437Y242D01*
X633Y242D02*
X635Y242D01*
X1371Y242D02*
X1378Y242D01*
X0Y241D02*
X1Y241D01*
X59Y241D02*
X83Y241D01*
X435Y241D02*
X437Y241D01*
X633Y241D02*
X635Y241D01*
X1371Y241D02*
X1378Y241D01*
X0Y240D02*
X2Y240D01*
X59Y240D02*
X83Y240D01*
X435Y240D02*
X437Y240D01*
X633Y240D02*
X635Y240D01*
X1371Y240D02*
X1378Y240D01*
X0Y239D02*
X3Y239D01*
X59Y239D02*
X82Y239D01*
X435Y239D02*
X437Y239D01*
X633Y239D02*
X635Y239D01*
X1371Y239D02*
X1378Y239D01*
X0Y238D02*
X4Y238D01*
X59Y238D02*
X81Y238D01*
X435Y238D02*
X437Y238D01*
X633Y238D02*
X635Y238D01*
X1371Y238D02*
X1378Y238D01*
X0Y237D02*
X5Y237D01*
X59Y237D02*
X65Y237D01*
X435Y237D02*
X437Y237D01*
X633Y237D02*
X635Y237D01*
X1371Y237D02*
X1378Y237D01*
X0Y236D02*
X6Y236D01*
X59Y236D02*
X65Y236D01*
X435Y236D02*
X437Y236D01*
X633Y236D02*
X635Y236D01*
X1371Y236D02*
X1378Y236D01*
X0Y235D02*
X7Y235D01*
X59Y235D02*
X65Y235D01*
X435Y235D02*
X437Y235D01*
X633Y235D02*
X635Y235D01*
X1371Y235D02*
X1378Y235D01*
X0Y234D02*
X9Y234D01*
X59Y234D02*
X65Y234D01*
X435Y234D02*
X437Y234D01*
X633Y234D02*
X635Y234D01*
X1371Y234D02*
X1378Y234D01*
X0Y233D02*
X11Y233D01*
X59Y233D02*
X65Y233D01*
X435Y233D02*
X437Y233D01*
X633Y233D02*
X635Y233D01*
X1371Y233D02*
X1378Y233D01*
X0Y232D02*
X13Y232D01*
X59Y232D02*
X65Y232D01*
X435Y232D02*
X437Y232D01*
X633Y232D02*
X635Y232D01*
X1371Y232D02*
X1378Y232D01*
X0Y231D02*
X13Y231D01*
X59Y231D02*
X66Y231D01*
X435Y231D02*
X437Y231D01*
X633Y231D02*
X635Y231D01*
X1371Y231D02*
X1378Y231D01*
X0Y230D02*
X13Y230D01*
X59Y230D02*
X113Y230D01*
X435Y230D02*
X437Y230D01*
X633Y230D02*
X635Y230D01*
X1371Y230D02*
X1378Y230D01*
X0Y229D02*
X13Y229D01*
X59Y229D02*
X113Y229D01*
X435Y229D02*
X437Y229D01*
X633Y229D02*
X635Y229D01*
X1371Y229D02*
X1378Y229D01*
X0Y228D02*
X13Y228D01*
X59Y228D02*
X113Y228D01*
X435Y228D02*
X437Y228D01*
X633Y228D02*
X635Y228D01*
X1371Y228D02*
X1378Y228D01*
X0Y227D02*
X13Y227D01*
X59Y227D02*
X113Y227D01*
X435Y227D02*
X437Y227D01*
X633Y227D02*
X635Y227D01*
X1371Y227D02*
X1378Y227D01*
X0Y226D02*
X13Y226D01*
X59Y226D02*
X113Y226D01*
X435Y226D02*
X437Y226D01*
X633Y226D02*
X635Y226D01*
X1371Y226D02*
X1378Y226D01*
X0Y225D02*
X13Y225D01*
X59Y225D02*
X113Y225D01*
X435Y225D02*
X437Y225D01*
X633Y225D02*
X635Y225D01*
X1371Y225D02*
X1378Y225D01*
X0Y224D02*
X13Y224D01*
X59Y224D02*
X113Y224D01*
X435Y224D02*
X437Y224D01*
X633Y224D02*
X635Y224D01*
X1371Y224D02*
X1378Y224D01*
X0Y223D02*
X13Y223D01*
X59Y223D02*
X65Y223D01*
X107Y223D02*
X113Y223D01*
X435Y223D02*
X437Y223D01*
X633Y223D02*
X635Y223D01*
X1371Y223D02*
X1378Y223D01*
X0Y222D02*
X13Y222D01*
X59Y222D02*
X65Y222D01*
X107Y222D02*
X113Y222D01*
X435Y222D02*
X437Y222D01*
X633Y222D02*
X635Y222D01*
X1371Y222D02*
X1378Y222D01*
X0Y221D02*
X13Y221D01*
X59Y221D02*
X65Y221D01*
X107Y221D02*
X113Y221D01*
X435Y221D02*
X437Y221D01*
X633Y221D02*
X635Y221D01*
X1371Y221D02*
X1378Y221D01*
X0Y220D02*
X13Y220D01*
X59Y220D02*
X65Y220D01*
X107Y220D02*
X113Y220D01*
X435Y220D02*
X437Y220D01*
X633Y220D02*
X635Y220D01*
X1371Y220D02*
X1378Y220D01*
X0Y219D02*
X13Y219D01*
X59Y219D02*
X65Y219D01*
X107Y219D02*
X113Y219D01*
X435Y219D02*
X437Y219D01*
X633Y219D02*
X635Y219D01*
X1371Y219D02*
X1378Y219D01*
X0Y218D02*
X13Y218D01*
X59Y218D02*
X65Y218D01*
X107Y218D02*
X113Y218D01*
X435Y218D02*
X437Y218D01*
X633Y218D02*
X635Y218D01*
X1371Y218D02*
X1378Y218D01*
X0Y217D02*
X13Y217D01*
X59Y217D02*
X65Y217D01*
X107Y217D02*
X113Y217D01*
X435Y217D02*
X437Y217D01*
X633Y217D02*
X635Y217D01*
X1371Y217D02*
X1378Y217D01*
X0Y216D02*
X13Y216D01*
X59Y216D02*
X65Y216D01*
X107Y216D02*
X113Y216D01*
X435Y216D02*
X437Y216D01*
X633Y216D02*
X635Y216D01*
X1371Y216D02*
X1378Y216D01*
X0Y215D02*
X13Y215D01*
X59Y215D02*
X65Y215D01*
X107Y215D02*
X113Y215D01*
X435Y215D02*
X437Y215D01*
X633Y215D02*
X635Y215D01*
X1371Y215D02*
X1378Y215D01*
X0Y214D02*
X13Y214D01*
X59Y214D02*
X65Y214D01*
X107Y214D02*
X113Y214D01*
X435Y214D02*
X437Y214D01*
X633Y214D02*
X635Y214D01*
X1371Y214D02*
X1378Y214D01*
X0Y213D02*
X13Y213D01*
X60Y213D02*
X65Y213D01*
X107Y213D02*
X113Y213D01*
X435Y213D02*
X437Y213D01*
X633Y213D02*
X635Y213D01*
X1371Y213D02*
X1378Y213D01*
X0Y212D02*
X13Y212D01*
X60Y212D02*
X65Y212D01*
X107Y212D02*
X112Y212D01*
X435Y212D02*
X437Y212D01*
X633Y212D02*
X635Y212D01*
X1371Y212D02*
X1378Y212D01*
X0Y211D02*
X13Y211D01*
X61Y211D02*
X64Y211D01*
X108Y211D02*
X111Y211D01*
X435Y211D02*
X437Y211D01*
X633Y211D02*
X635Y211D01*
X1371Y211D02*
X1378Y211D01*
X0Y210D02*
X13Y210D01*
X435Y210D02*
X437Y210D01*
X633Y210D02*
X635Y210D01*
X1371Y210D02*
X1378Y210D01*
X0Y209D02*
X13Y209D01*
X435Y209D02*
X437Y209D01*
X633Y209D02*
X635Y209D01*
X1371Y209D02*
X1378Y209D01*
X0Y208D02*
X13Y208D01*
X435Y208D02*
X437Y208D01*
X633Y208D02*
X635Y208D01*
X1371Y208D02*
X1378Y208D01*
X0Y207D02*
X13Y207D01*
X435Y207D02*
X437Y207D01*
X633Y207D02*
X635Y207D01*
X1371Y207D02*
X1378Y207D01*
X0Y206D02*
X13Y206D01*
X435Y206D02*
X437Y206D01*
X633Y206D02*
X635Y206D01*
X1371Y206D02*
X1378Y206D01*
X0Y205D02*
X13Y205D01*
X435Y205D02*
X437Y205D01*
X633Y205D02*
X635Y205D01*
X1371Y205D02*
X1378Y205D01*
X0Y204D02*
X13Y204D01*
X435Y204D02*
X437Y204D01*
X633Y204D02*
X635Y204D01*
X1371Y204D02*
X1378Y204D01*
X0Y203D02*
X13Y203D01*
X435Y203D02*
X437Y203D01*
X633Y203D02*
X635Y203D01*
X1371Y203D02*
X1378Y203D01*
X0Y202D02*
X13Y202D01*
X435Y202D02*
X437Y202D01*
X633Y202D02*
X635Y202D01*
X1371Y202D02*
X1378Y202D01*
X0Y201D02*
X13Y201D01*
X435Y201D02*
X437Y201D01*
X633Y201D02*
X635Y201D01*
X1371Y201D02*
X1378Y201D01*
X0Y200D02*
X13Y200D01*
X435Y200D02*
X437Y200D01*
X633Y200D02*
X635Y200D01*
X1060Y200D02*
X1259Y200D01*
X1371Y200D02*
X1378Y200D01*
X0Y199D02*
X13Y199D01*
X435Y199D02*
X437Y199D01*
X633Y199D02*
X635Y199D01*
X1060Y199D02*
X1259Y199D01*
X1371Y199D02*
X1378Y199D01*
X0Y198D02*
X13Y198D01*
X435Y198D02*
X437Y198D01*
X633Y198D02*
X635Y198D01*
X1060Y198D02*
X1259Y198D01*
X1371Y198D02*
X1378Y198D01*
X0Y197D02*
X13Y197D01*
X435Y197D02*
X437Y197D01*
X633Y197D02*
X635Y197D01*
X1060Y197D02*
X1062Y197D01*
X1136Y197D02*
X1184Y197D01*
X1258Y197D02*
X1259Y197D01*
X1371Y197D02*
X1378Y197D01*
X0Y196D02*
X13Y196D01*
X435Y196D02*
X437Y196D01*
X633Y196D02*
X635Y196D01*
X1060Y196D02*
X1062Y196D01*
X1258Y196D02*
X1259Y196D01*
X1371Y196D02*
X1378Y196D01*
X0Y195D02*
X13Y195D01*
X435Y195D02*
X437Y195D01*
X633Y195D02*
X635Y195D01*
X1060Y195D02*
X1062Y195D01*
X1258Y195D02*
X1259Y195D01*
X1371Y195D02*
X1378Y195D01*
X0Y194D02*
X13Y194D01*
X61Y194D02*
X64Y194D01*
X108Y194D02*
X111Y194D01*
X435Y194D02*
X437Y194D01*
X633Y194D02*
X635Y194D01*
X1060Y194D02*
X1062Y194D01*
X1258Y194D02*
X1259Y194D01*
X1371Y194D02*
X1378Y194D01*
X0Y193D02*
X13Y193D01*
X60Y193D02*
X66Y193D01*
X107Y193D02*
X112Y193D01*
X435Y193D02*
X437Y193D01*
X633Y193D02*
X635Y193D01*
X1060Y193D02*
X1062Y193D01*
X1258Y193D02*
X1259Y193D01*
X1371Y193D02*
X1378Y193D01*
X0Y192D02*
X13Y192D01*
X60Y192D02*
X67Y192D01*
X105Y192D02*
X112Y192D01*
X435Y192D02*
X437Y192D01*
X633Y192D02*
X635Y192D01*
X1060Y192D02*
X1062Y192D01*
X1258Y192D02*
X1259Y192D01*
X1371Y192D02*
X1378Y192D01*
X0Y191D02*
X13Y191D01*
X60Y191D02*
X69Y191D01*
X103Y191D02*
X113Y191D01*
X435Y191D02*
X437Y191D01*
X633Y191D02*
X635Y191D01*
X1060Y191D02*
X1062Y191D01*
X1258Y191D02*
X1259Y191D01*
X1371Y191D02*
X1378Y191D01*
X0Y190D02*
X13Y190D01*
X60Y190D02*
X71Y190D01*
X101Y190D02*
X112Y190D01*
X435Y190D02*
X437Y190D01*
X633Y190D02*
X635Y190D01*
X1060Y190D02*
X1062Y190D01*
X1258Y190D02*
X1259Y190D01*
X1371Y190D02*
X1378Y190D01*
X0Y189D02*
X13Y189D01*
X60Y189D02*
X72Y189D01*
X100Y189D02*
X112Y189D01*
X435Y189D02*
X437Y189D01*
X633Y189D02*
X635Y189D01*
X1060Y189D02*
X1062Y189D01*
X1258Y189D02*
X1259Y189D01*
X1371Y189D02*
X1378Y189D01*
X0Y188D02*
X13Y188D01*
X61Y188D02*
X74Y188D01*
X98Y188D02*
X111Y188D01*
X435Y188D02*
X437Y188D01*
X633Y188D02*
X635Y188D01*
X1060Y188D02*
X1062Y188D01*
X1258Y188D02*
X1259Y188D01*
X1371Y188D02*
X1378Y188D01*
X0Y187D02*
X13Y187D01*
X63Y187D02*
X76Y187D01*
X96Y187D02*
X109Y187D01*
X435Y187D02*
X437Y187D01*
X633Y187D02*
X635Y187D01*
X1060Y187D02*
X1062Y187D01*
X1258Y187D02*
X1259Y187D01*
X1371Y187D02*
X1378Y187D01*
X0Y186D02*
X13Y186D01*
X65Y186D02*
X77Y186D01*
X95Y186D02*
X108Y186D01*
X435Y186D02*
X437Y186D01*
X633Y186D02*
X635Y186D01*
X1060Y186D02*
X1062Y186D01*
X1258Y186D02*
X1259Y186D01*
X1371Y186D02*
X1378Y186D01*
X0Y185D02*
X13Y185D01*
X66Y185D02*
X79Y185D01*
X93Y185D02*
X106Y185D01*
X435Y185D02*
X437Y185D01*
X633Y185D02*
X635Y185D01*
X1060Y185D02*
X1062Y185D01*
X1258Y185D02*
X1259Y185D01*
X1371Y185D02*
X1378Y185D01*
X0Y184D02*
X13Y184D01*
X68Y184D02*
X81Y184D01*
X91Y184D02*
X104Y184D01*
X435Y184D02*
X437Y184D01*
X633Y184D02*
X635Y184D01*
X1060Y184D02*
X1062Y184D01*
X1258Y184D02*
X1259Y184D01*
X1371Y184D02*
X1378Y184D01*
X0Y183D02*
X13Y183D01*
X70Y183D02*
X83Y183D01*
X89Y183D02*
X102Y183D01*
X435Y183D02*
X437Y183D01*
X633Y183D02*
X635Y183D01*
X1060Y183D02*
X1062Y183D01*
X1258Y183D02*
X1259Y183D01*
X1371Y183D02*
X1378Y183D01*
X0Y182D02*
X13Y182D01*
X71Y182D02*
X84Y182D01*
X88Y182D02*
X101Y182D01*
X435Y182D02*
X437Y182D01*
X633Y182D02*
X635Y182D01*
X1060Y182D02*
X1062Y182D01*
X1258Y182D02*
X1259Y182D01*
X1371Y182D02*
X1378Y182D01*
X0Y181D02*
X13Y181D01*
X73Y181D02*
X99Y181D01*
X435Y181D02*
X437Y181D01*
X633Y181D02*
X635Y181D01*
X1060Y181D02*
X1062Y181D01*
X1258Y181D02*
X1259Y181D01*
X1371Y181D02*
X1378Y181D01*
X0Y180D02*
X13Y180D01*
X75Y180D02*
X97Y180D01*
X435Y180D02*
X437Y180D01*
X633Y180D02*
X635Y180D01*
X1060Y180D02*
X1062Y180D01*
X1258Y180D02*
X1259Y180D01*
X1371Y180D02*
X1378Y180D01*
X0Y179D02*
X13Y179D01*
X77Y179D02*
X96Y179D01*
X435Y179D02*
X437Y179D01*
X633Y179D02*
X635Y179D01*
X1060Y179D02*
X1062Y179D01*
X1258Y179D02*
X1259Y179D01*
X1371Y179D02*
X1378Y179D01*
X0Y178D02*
X13Y178D01*
X78Y178D02*
X94Y178D01*
X435Y178D02*
X437Y178D01*
X633Y178D02*
X635Y178D01*
X1060Y178D02*
X1062Y178D01*
X1258Y178D02*
X1259Y178D01*
X1371Y178D02*
X1378Y178D01*
X0Y177D02*
X13Y177D01*
X79Y177D02*
X93Y177D01*
X435Y177D02*
X437Y177D01*
X633Y177D02*
X635Y177D01*
X1060Y177D02*
X1062Y177D01*
X1258Y177D02*
X1259Y177D01*
X1371Y177D02*
X1378Y177D01*
X0Y176D02*
X13Y176D01*
X77Y176D02*
X95Y176D01*
X435Y176D02*
X437Y176D01*
X633Y176D02*
X635Y176D01*
X1060Y176D02*
X1062Y176D01*
X1258Y176D02*
X1259Y176D01*
X1371Y176D02*
X1378Y176D01*
X0Y175D02*
X13Y175D01*
X76Y175D02*
X96Y175D01*
X435Y175D02*
X437Y175D01*
X633Y175D02*
X635Y175D01*
X1060Y175D02*
X1062Y175D01*
X1258Y175D02*
X1259Y175D01*
X1371Y175D02*
X1378Y175D01*
X0Y174D02*
X13Y174D01*
X74Y174D02*
X98Y174D01*
X435Y174D02*
X437Y174D01*
X633Y174D02*
X635Y174D01*
X1060Y174D02*
X1062Y174D01*
X1258Y174D02*
X1259Y174D01*
X1371Y174D02*
X1378Y174D01*
X0Y173D02*
X13Y173D01*
X72Y173D02*
X85Y173D01*
X87Y173D02*
X100Y173D01*
X435Y173D02*
X437Y173D01*
X633Y173D02*
X635Y173D01*
X1060Y173D02*
X1062Y173D01*
X1258Y173D02*
X1259Y173D01*
X1371Y173D02*
X1378Y173D01*
X0Y172D02*
X13Y172D01*
X71Y172D02*
X84Y172D01*
X89Y172D02*
X102Y172D01*
X435Y172D02*
X437Y172D01*
X633Y172D02*
X635Y172D01*
X1060Y172D02*
X1062Y172D01*
X1258Y172D02*
X1259Y172D01*
X1371Y172D02*
X1378Y172D01*
X0Y171D02*
X13Y171D01*
X69Y171D02*
X82Y171D01*
X90Y171D02*
X103Y171D01*
X435Y171D02*
X437Y171D01*
X633Y171D02*
X635Y171D01*
X1060Y171D02*
X1062Y171D01*
X1258Y171D02*
X1259Y171D01*
X1371Y171D02*
X1378Y171D01*
X0Y170D02*
X13Y170D01*
X67Y170D02*
X80Y170D01*
X92Y170D02*
X105Y170D01*
X435Y170D02*
X437Y170D01*
X633Y170D02*
X635Y170D01*
X1060Y170D02*
X1062Y170D01*
X1258Y170D02*
X1259Y170D01*
X1371Y170D02*
X1378Y170D01*
X0Y169D02*
X13Y169D01*
X65Y169D02*
X78Y169D01*
X94Y169D02*
X107Y169D01*
X435Y169D02*
X437Y169D01*
X633Y169D02*
X635Y169D01*
X1060Y169D02*
X1062Y169D01*
X1258Y169D02*
X1259Y169D01*
X1371Y169D02*
X1378Y169D01*
X0Y168D02*
X13Y168D01*
X64Y168D02*
X77Y168D01*
X95Y168D02*
X108Y168D01*
X435Y168D02*
X437Y168D01*
X633Y168D02*
X635Y168D01*
X1060Y168D02*
X1062Y168D01*
X1258Y168D02*
X1259Y168D01*
X1371Y168D02*
X1378Y168D01*
X0Y167D02*
X13Y167D01*
X62Y167D02*
X75Y167D01*
X97Y167D02*
X110Y167D01*
X435Y167D02*
X437Y167D01*
X633Y167D02*
X635Y167D01*
X1060Y167D02*
X1062Y167D01*
X1258Y167D02*
X1259Y167D01*
X1371Y167D02*
X1378Y167D01*
X0Y166D02*
X13Y166D01*
X61Y166D02*
X73Y166D01*
X99Y166D02*
X111Y166D01*
X435Y166D02*
X437Y166D01*
X633Y166D02*
X635Y166D01*
X1060Y166D02*
X1062Y166D01*
X1258Y166D02*
X1259Y166D01*
X1371Y166D02*
X1378Y166D01*
X0Y165D02*
X13Y165D01*
X60Y165D02*
X72Y165D01*
X100Y165D02*
X112Y165D01*
X435Y165D02*
X437Y165D01*
X633Y165D02*
X635Y165D01*
X1060Y165D02*
X1062Y165D01*
X1258Y165D02*
X1259Y165D01*
X1371Y165D02*
X1378Y165D01*
X0Y164D02*
X13Y164D01*
X60Y164D02*
X70Y164D01*
X102Y164D02*
X113Y164D01*
X435Y164D02*
X437Y164D01*
X633Y164D02*
X635Y164D01*
X1060Y164D02*
X1062Y164D01*
X1258Y164D02*
X1259Y164D01*
X1371Y164D02*
X1378Y164D01*
X0Y163D02*
X13Y163D01*
X60Y163D02*
X68Y163D01*
X104Y163D02*
X113Y163D01*
X435Y163D02*
X437Y163D01*
X510Y163D02*
X559Y163D01*
X632Y163D02*
X635Y163D01*
X1060Y163D02*
X1062Y163D01*
X1258Y163D02*
X1259Y163D01*
X1371Y163D02*
X1378Y163D01*
X0Y162D02*
X13Y162D01*
X60Y162D02*
X67Y162D01*
X106Y162D02*
X112Y162D01*
X435Y162D02*
X635Y162D01*
X1060Y162D02*
X1062Y162D01*
X1258Y162D02*
X1259Y162D01*
X1371Y162D02*
X1378Y162D01*
X0Y161D02*
X13Y161D01*
X61Y161D02*
X65Y161D01*
X107Y161D02*
X112Y161D01*
X435Y161D02*
X635Y161D01*
X1060Y161D02*
X1062Y161D01*
X1258Y161D02*
X1259Y161D01*
X1371Y161D02*
X1378Y161D01*
X0Y160D02*
X13Y160D01*
X435Y160D02*
X634Y160D01*
X1060Y160D02*
X1062Y160D01*
X1258Y160D02*
X1259Y160D01*
X1371Y160D02*
X1378Y160D01*
X0Y159D02*
X13Y159D01*
X1060Y159D02*
X1062Y159D01*
X1258Y159D02*
X1259Y159D01*
X1371Y159D02*
X1378Y159D01*
X0Y158D02*
X13Y158D01*
X1060Y158D02*
X1062Y158D01*
X1258Y158D02*
X1259Y158D01*
X1371Y158D02*
X1378Y158D01*
X0Y157D02*
X13Y157D01*
X1060Y157D02*
X1062Y157D01*
X1258Y157D02*
X1259Y157D01*
X1371Y157D02*
X1378Y157D01*
X0Y156D02*
X13Y156D01*
X1060Y156D02*
X1062Y156D01*
X1258Y156D02*
X1259Y156D01*
X1371Y156D02*
X1378Y156D01*
X0Y155D02*
X13Y155D01*
X1060Y155D02*
X1062Y155D01*
X1258Y155D02*
X1259Y155D01*
X1371Y155D02*
X1378Y155D01*
X0Y154D02*
X13Y154D01*
X1060Y154D02*
X1062Y154D01*
X1258Y154D02*
X1259Y154D01*
X1371Y154D02*
X1378Y154D01*
X0Y153D02*
X13Y153D01*
X1060Y153D02*
X1062Y153D01*
X1258Y153D02*
X1259Y153D01*
X1371Y153D02*
X1378Y153D01*
X0Y152D02*
X13Y152D01*
X1060Y152D02*
X1062Y152D01*
X1258Y152D02*
X1259Y152D01*
X1371Y152D02*
X1378Y152D01*
X0Y151D02*
X13Y151D01*
X484Y151D02*
X499Y151D01*
X515Y151D02*
X525Y151D01*
X545Y151D02*
X555Y151D01*
X1060Y151D02*
X1062Y151D01*
X1258Y151D02*
X1259Y151D01*
X1371Y151D02*
X1378Y151D01*
X0Y150D02*
X13Y150D01*
X484Y150D02*
X501Y150D01*
X514Y150D02*
X525Y150D01*
X544Y150D02*
X555Y150D01*
X1060Y150D02*
X1062Y150D01*
X1258Y150D02*
X1259Y150D01*
X1371Y150D02*
X1378Y150D01*
X0Y149D02*
X13Y149D01*
X484Y149D02*
X502Y149D01*
X514Y149D02*
X525Y149D01*
X544Y149D02*
X555Y149D01*
X1060Y149D02*
X1062Y149D01*
X1258Y149D02*
X1259Y149D01*
X1371Y149D02*
X1378Y149D01*
X0Y148D02*
X13Y148D01*
X484Y148D02*
X502Y148D01*
X514Y148D02*
X525Y148D01*
X544Y148D02*
X555Y148D01*
X1060Y148D02*
X1062Y148D01*
X1258Y148D02*
X1259Y148D01*
X1371Y148D02*
X1378Y148D01*
X0Y147D02*
X13Y147D01*
X484Y147D02*
X487Y147D01*
X498Y147D02*
X503Y147D01*
X521Y147D02*
X525Y147D01*
X552Y147D02*
X555Y147D01*
X1060Y147D02*
X1062Y147D01*
X1258Y147D02*
X1259Y147D01*
X1371Y147D02*
X1378Y147D01*
X0Y146D02*
X13Y146D01*
X484Y146D02*
X487Y146D01*
X500Y146D02*
X503Y146D01*
X522Y146D02*
X525Y146D01*
X552Y146D02*
X555Y146D01*
X1060Y146D02*
X1062Y146D01*
X1258Y146D02*
X1259Y146D01*
X1371Y146D02*
X1378Y146D01*
X0Y145D02*
X13Y145D01*
X484Y145D02*
X487Y145D01*
X500Y145D02*
X503Y145D01*
X522Y145D02*
X525Y145D01*
X552Y145D02*
X555Y145D01*
X1060Y145D02*
X1062Y145D01*
X1258Y145D02*
X1259Y145D01*
X1371Y145D02*
X1378Y145D01*
X0Y144D02*
X13Y144D01*
X484Y144D02*
X487Y144D01*
X500Y144D02*
X503Y144D01*
X522Y144D02*
X525Y144D01*
X552Y144D02*
X555Y144D01*
X1060Y144D02*
X1062Y144D01*
X1258Y144D02*
X1259Y144D01*
X1371Y144D02*
X1378Y144D01*
X0Y143D02*
X13Y143D01*
X484Y143D02*
X487Y143D01*
X500Y143D02*
X503Y143D01*
X522Y143D02*
X525Y143D01*
X552Y143D02*
X555Y143D01*
X1060Y143D02*
X1062Y143D01*
X1258Y143D02*
X1259Y143D01*
X1371Y143D02*
X1378Y143D01*
X0Y142D02*
X13Y142D01*
X484Y142D02*
X487Y142D01*
X500Y142D02*
X503Y142D01*
X522Y142D02*
X525Y142D01*
X552Y142D02*
X555Y142D01*
X1060Y142D02*
X1062Y142D01*
X1258Y142D02*
X1259Y142D01*
X1371Y142D02*
X1378Y142D01*
X0Y141D02*
X13Y141D01*
X484Y141D02*
X487Y141D01*
X499Y141D02*
X503Y141D01*
X522Y141D02*
X525Y141D01*
X552Y141D02*
X555Y141D01*
X1060Y141D02*
X1062Y141D01*
X1258Y141D02*
X1259Y141D01*
X1371Y141D02*
X1378Y141D01*
X0Y140D02*
X13Y140D01*
X484Y140D02*
X503Y140D01*
X522Y140D02*
X525Y140D01*
X552Y140D02*
X555Y140D01*
X1060Y140D02*
X1062Y140D01*
X1258Y140D02*
X1259Y140D01*
X1371Y140D02*
X1378Y140D01*
X0Y139D02*
X13Y139D01*
X484Y139D02*
X502Y139D01*
X522Y139D02*
X525Y139D01*
X552Y139D02*
X555Y139D01*
X1060Y139D02*
X1062Y139D01*
X1258Y139D02*
X1259Y139D01*
X1371Y139D02*
X1378Y139D01*
X0Y138D02*
X13Y138D01*
X484Y138D02*
X501Y138D01*
X522Y138D02*
X525Y138D01*
X552Y138D02*
X555Y138D01*
X1060Y138D02*
X1062Y138D01*
X1258Y138D02*
X1259Y138D01*
X1371Y138D02*
X1378Y138D01*
X0Y137D02*
X13Y137D01*
X484Y137D02*
X500Y137D01*
X522Y137D02*
X525Y137D01*
X552Y137D02*
X555Y137D01*
X1060Y137D02*
X1062Y137D01*
X1258Y137D02*
X1259Y137D01*
X1371Y137D02*
X1378Y137D01*
X0Y136D02*
X13Y136D01*
X484Y136D02*
X487Y136D01*
X491Y136D02*
X495Y136D01*
X522Y136D02*
X525Y136D01*
X552Y136D02*
X555Y136D01*
X1060Y136D02*
X1062Y136D01*
X1258Y136D02*
X1259Y136D01*
X1371Y136D02*
X1378Y136D01*
X0Y135D02*
X13Y135D01*
X484Y135D02*
X487Y135D01*
X491Y135D02*
X495Y135D01*
X522Y135D02*
X525Y135D01*
X552Y135D02*
X555Y135D01*
X1060Y135D02*
X1062Y135D01*
X1258Y135D02*
X1259Y135D01*
X1371Y135D02*
X1378Y135D01*
X0Y134D02*
X13Y134D01*
X484Y134D02*
X487Y134D01*
X492Y134D02*
X496Y134D01*
X522Y134D02*
X525Y134D01*
X552Y134D02*
X555Y134D01*
X1060Y134D02*
X1062Y134D01*
X1258Y134D02*
X1259Y134D01*
X1371Y134D02*
X1378Y134D01*
X0Y133D02*
X13Y133D01*
X484Y133D02*
X487Y133D01*
X493Y133D02*
X497Y133D01*
X522Y133D02*
X525Y133D01*
X531Y133D02*
X533Y133D01*
X552Y133D02*
X555Y133D01*
X561Y133D02*
X563Y133D01*
X1060Y133D02*
X1062Y133D01*
X1258Y133D02*
X1259Y133D01*
X1371Y133D02*
X1378Y133D01*
X0Y132D02*
X13Y132D01*
X484Y132D02*
X487Y132D01*
X493Y132D02*
X497Y132D01*
X522Y132D02*
X525Y132D01*
X530Y132D02*
X533Y132D01*
X552Y132D02*
X555Y132D01*
X560Y132D02*
X563Y132D01*
X1060Y132D02*
X1062Y132D01*
X1258Y132D02*
X1259Y132D01*
X1371Y132D02*
X1378Y132D01*
X0Y131D02*
X13Y131D01*
X484Y131D02*
X487Y131D01*
X494Y131D02*
X498Y131D01*
X522Y131D02*
X525Y131D01*
X530Y131D02*
X533Y131D01*
X552Y131D02*
X555Y131D01*
X560Y131D02*
X564Y131D01*
X1060Y131D02*
X1062Y131D01*
X1258Y131D02*
X1259Y131D01*
X1371Y131D02*
X1378Y131D01*
X0Y130D02*
X13Y130D01*
X484Y130D02*
X487Y130D01*
X494Y130D02*
X498Y130D01*
X522Y130D02*
X525Y130D01*
X530Y130D02*
X533Y130D01*
X552Y130D02*
X555Y130D01*
X560Y130D02*
X564Y130D01*
X1060Y130D02*
X1062Y130D01*
X1258Y130D02*
X1259Y130D01*
X1371Y130D02*
X1378Y130D01*
X0Y129D02*
X13Y129D01*
X484Y129D02*
X487Y129D01*
X495Y129D02*
X499Y129D01*
X522Y129D02*
X525Y129D01*
X530Y129D02*
X533Y129D01*
X552Y129D02*
X555Y129D01*
X560Y129D02*
X564Y129D01*
X1060Y129D02*
X1062Y129D01*
X1258Y129D02*
X1259Y129D01*
X1371Y129D02*
X1378Y129D01*
X0Y128D02*
X13Y128D01*
X484Y128D02*
X487Y128D01*
X496Y128D02*
X499Y128D01*
X522Y128D02*
X525Y128D01*
X530Y128D02*
X533Y128D01*
X552Y128D02*
X555Y128D01*
X560Y128D02*
X564Y128D01*
X1060Y128D02*
X1062Y128D01*
X1258Y128D02*
X1259Y128D01*
X1371Y128D02*
X1378Y128D01*
X0Y127D02*
X13Y127D01*
X484Y127D02*
X487Y127D01*
X496Y127D02*
X500Y127D01*
X522Y127D02*
X525Y127D01*
X530Y127D02*
X533Y127D01*
X552Y127D02*
X555Y127D01*
X560Y127D02*
X564Y127D01*
X1060Y127D02*
X1062Y127D01*
X1258Y127D02*
X1259Y127D01*
X1371Y127D02*
X1378Y127D01*
X0Y126D02*
X13Y126D01*
X484Y126D02*
X487Y126D01*
X497Y126D02*
X501Y126D01*
X522Y126D02*
X525Y126D01*
X530Y126D02*
X533Y126D01*
X552Y126D02*
X555Y126D01*
X560Y126D02*
X564Y126D01*
X1060Y126D02*
X1062Y126D01*
X1258Y126D02*
X1259Y126D01*
X1371Y126D02*
X1378Y126D01*
X0Y125D02*
X13Y125D01*
X484Y125D02*
X487Y125D01*
X497Y125D02*
X501Y125D01*
X522Y125D02*
X525Y125D01*
X530Y125D02*
X533Y125D01*
X552Y125D02*
X555Y125D01*
X560Y125D02*
X564Y125D01*
X1060Y125D02*
X1062Y125D01*
X1258Y125D02*
X1259Y125D01*
X1371Y125D02*
X1378Y125D01*
X0Y124D02*
X13Y124D01*
X484Y124D02*
X487Y124D01*
X498Y124D02*
X502Y124D01*
X522Y124D02*
X525Y124D01*
X530Y124D02*
X533Y124D01*
X552Y124D02*
X555Y124D01*
X560Y124D02*
X564Y124D01*
X1060Y124D02*
X1062Y124D01*
X1258Y124D02*
X1259Y124D01*
X1371Y124D02*
X1378Y124D01*
X0Y123D02*
X13Y123D01*
X484Y123D02*
X487Y123D01*
X498Y123D02*
X502Y123D01*
X522Y123D02*
X526Y123D01*
X530Y123D02*
X533Y123D01*
X552Y123D02*
X556Y123D01*
X560Y123D02*
X564Y123D01*
X1060Y123D02*
X1062Y123D01*
X1258Y123D02*
X1259Y123D01*
X1371Y123D02*
X1378Y123D01*
X0Y122D02*
X13Y122D01*
X484Y122D02*
X487Y122D01*
X499Y122D02*
X503Y122D01*
X514Y122D02*
X533Y122D01*
X544Y122D02*
X564Y122D01*
X1060Y122D02*
X1062Y122D01*
X1258Y122D02*
X1259Y122D01*
X1371Y122D02*
X1378Y122D01*
X0Y121D02*
X13Y121D01*
X484Y121D02*
X487Y121D01*
X500Y121D02*
X503Y121D01*
X514Y121D02*
X533Y121D01*
X544Y121D02*
X564Y121D01*
X1060Y121D02*
X1062Y121D01*
X1258Y121D02*
X1259Y121D01*
X1371Y121D02*
X1378Y121D01*
X0Y120D02*
X13Y120D01*
X484Y120D02*
X487Y120D01*
X500Y120D02*
X503Y120D01*
X514Y120D02*
X533Y120D01*
X544Y120D02*
X563Y120D01*
X1060Y120D02*
X1062Y120D01*
X1258Y120D02*
X1259Y120D01*
X1371Y120D02*
X1378Y120D01*
X0Y119D02*
X13Y119D01*
X485Y119D02*
X486Y119D01*
X501Y119D02*
X502Y119D01*
X515Y119D02*
X532Y119D01*
X545Y119D02*
X562Y119D01*
X1060Y119D02*
X1062Y119D01*
X1258Y119D02*
X1259Y119D01*
X1371Y119D02*
X1378Y119D01*
X0Y118D02*
X13Y118D01*
X1060Y118D02*
X1062Y118D01*
X1258Y118D02*
X1259Y118D01*
X1371Y118D02*
X1378Y118D01*
X0Y117D02*
X13Y117D01*
X1060Y117D02*
X1062Y117D01*
X1258Y117D02*
X1259Y117D01*
X1371Y117D02*
X1378Y117D01*
X0Y116D02*
X13Y116D01*
X1060Y116D02*
X1062Y116D01*
X1258Y116D02*
X1259Y116D01*
X1371Y116D02*
X1378Y116D01*
X0Y115D02*
X13Y115D01*
X1060Y115D02*
X1062Y115D01*
X1258Y115D02*
X1259Y115D01*
X1371Y115D02*
X1378Y115D01*
X0Y114D02*
X13Y114D01*
X1060Y114D02*
X1062Y114D01*
X1258Y114D02*
X1259Y114D01*
X1371Y114D02*
X1378Y114D01*
X0Y113D02*
X13Y113D01*
X1060Y113D02*
X1062Y113D01*
X1135Y113D02*
X1184Y113D01*
X1257Y113D02*
X1259Y113D01*
X1371Y113D02*
X1378Y113D01*
X0Y112D02*
X13Y112D01*
X1060Y112D02*
X1259Y112D01*
X1371Y112D02*
X1378Y112D01*
X0Y111D02*
X13Y111D01*
X1060Y111D02*
X1259Y111D01*
X1371Y111D02*
X1378Y111D01*
X0Y110D02*
X13Y110D01*
X1060Y110D02*
X1259Y110D01*
X1371Y110D02*
X1378Y110D01*
X0Y109D02*
X13Y109D01*
X1371Y109D02*
X1378Y109D01*
X0Y108D02*
X13Y108D01*
X1371Y108D02*
X1378Y108D01*
X0Y107D02*
X13Y107D01*
X1371Y107D02*
X1378Y107D01*
X0Y106D02*
X13Y106D01*
X1371Y106D02*
X1378Y106D01*
X0Y105D02*
X13Y105D01*
X1371Y105D02*
X1378Y105D01*
X0Y104D02*
X13Y104D01*
X1371Y104D02*
X1378Y104D01*
X0Y103D02*
X13Y103D01*
X1371Y103D02*
X1378Y103D01*
X0Y102D02*
X13Y102D01*
X1371Y102D02*
X1378Y102D01*
X0Y101D02*
X13Y101D01*
X1371Y101D02*
X1378Y101D01*
X0Y100D02*
X13Y100D01*
X1060Y100D02*
X1259Y100D01*
X1371Y100D02*
X1378Y100D01*
X0Y99D02*
X13Y99D01*
X1060Y99D02*
X1259Y99D01*
X1371Y99D02*
X1378Y99D01*
X0Y98D02*
X13Y98D01*
X1060Y98D02*
X1259Y98D01*
X1371Y98D02*
X1378Y98D01*
X0Y97D02*
X13Y97D01*
X1060Y97D02*
X1062Y97D01*
X1136Y97D02*
X1184Y97D01*
X1258Y97D02*
X1259Y97D01*
X1371Y97D02*
X1378Y97D01*
X0Y96D02*
X13Y96D01*
X1060Y96D02*
X1062Y96D01*
X1258Y96D02*
X1259Y96D01*
X1371Y96D02*
X1378Y96D01*
X0Y95D02*
X13Y95D01*
X1060Y95D02*
X1062Y95D01*
X1258Y95D02*
X1259Y95D01*
X1371Y95D02*
X1378Y95D01*
X0Y94D02*
X13Y94D01*
X1060Y94D02*
X1062Y94D01*
X1258Y94D02*
X1259Y94D01*
X1371Y94D02*
X1378Y94D01*
X0Y93D02*
X13Y93D01*
X1060Y93D02*
X1062Y93D01*
X1258Y93D02*
X1259Y93D01*
X1371Y93D02*
X1378Y93D01*
X0Y92D02*
X13Y92D01*
X1060Y92D02*
X1062Y92D01*
X1258Y92D02*
X1259Y92D01*
X1371Y92D02*
X1378Y92D01*
X0Y91D02*
X13Y91D01*
X1060Y91D02*
X1062Y91D01*
X1258Y91D02*
X1259Y91D01*
X1371Y91D02*
X1378Y91D01*
X0Y90D02*
X13Y90D01*
X1060Y90D02*
X1062Y90D01*
X1258Y90D02*
X1259Y90D01*
X1371Y90D02*
X1378Y90D01*
X0Y89D02*
X13Y89D01*
X1060Y89D02*
X1062Y89D01*
X1258Y89D02*
X1259Y89D01*
X1371Y89D02*
X1378Y89D01*
X0Y88D02*
X13Y88D01*
X1060Y88D02*
X1062Y88D01*
X1258Y88D02*
X1259Y88D01*
X1371Y88D02*
X1378Y88D01*
X0Y87D02*
X13Y87D01*
X1060Y87D02*
X1062Y87D01*
X1258Y87D02*
X1259Y87D01*
X1371Y87D02*
X1378Y87D01*
X0Y86D02*
X13Y86D01*
X1060Y86D02*
X1062Y86D01*
X1258Y86D02*
X1259Y86D01*
X1371Y86D02*
X1378Y86D01*
X0Y85D02*
X12Y85D01*
X1060Y85D02*
X1062Y85D01*
X1258Y85D02*
X1259Y85D01*
X1371Y85D02*
X1378Y85D01*
X0Y84D02*
X12Y84D01*
X1060Y84D02*
X1062Y84D01*
X1258Y84D02*
X1259Y84D01*
X1371Y84D02*
X1378Y84D01*
X0Y83D02*
X12Y83D01*
X1060Y83D02*
X1062Y83D01*
X1258Y83D02*
X1259Y83D01*
X1371Y83D02*
X1378Y83D01*
X0Y82D02*
X12Y82D01*
X1060Y82D02*
X1062Y82D01*
X1258Y82D02*
X1259Y82D01*
X1371Y82D02*
X1378Y82D01*
X0Y81D02*
X12Y81D01*
X1060Y81D02*
X1062Y81D01*
X1258Y81D02*
X1259Y81D01*
X1371Y81D02*
X1378Y81D01*
X0Y80D02*
X12Y80D01*
X1060Y80D02*
X1062Y80D01*
X1258Y80D02*
X1259Y80D01*
X1371Y80D02*
X1378Y80D01*
X0Y79D02*
X12Y79D01*
X1060Y79D02*
X1062Y79D01*
X1258Y79D02*
X1259Y79D01*
X1371Y79D02*
X1378Y79D01*
X0Y78D02*
X12Y78D01*
X1060Y78D02*
X1062Y78D01*
X1258Y78D02*
X1259Y78D01*
X1371Y78D02*
X1378Y78D01*
X0Y77D02*
X12Y77D01*
X1060Y77D02*
X1062Y77D01*
X1258Y77D02*
X1259Y77D01*
X1371Y77D02*
X1378Y77D01*
X0Y76D02*
X12Y76D01*
X1060Y76D02*
X1062Y76D01*
X1258Y76D02*
X1259Y76D01*
X1371Y76D02*
X1378Y76D01*
X0Y75D02*
X12Y75D01*
X129Y75D02*
X180Y75D01*
X1060Y75D02*
X1062Y75D01*
X1258Y75D02*
X1259Y75D01*
X1371Y75D02*
X1378Y75D01*
X0Y74D02*
X13Y74D01*
X129Y74D02*
X181Y74D01*
X1060Y74D02*
X1062Y74D01*
X1258Y74D02*
X1259Y74D01*
X1371Y74D02*
X1378Y74D01*
X0Y73D02*
X13Y73D01*
X129Y73D02*
X182Y73D01*
X1060Y73D02*
X1062Y73D01*
X1258Y73D02*
X1259Y73D01*
X1371Y73D02*
X1378Y73D01*
X0Y72D02*
X13Y72D01*
X129Y72D02*
X182Y72D01*
X1060Y72D02*
X1062Y72D01*
X1258Y72D02*
X1259Y72D01*
X1371Y72D02*
X1378Y72D01*
X0Y71D02*
X13Y71D01*
X128Y71D02*
X182Y71D01*
X1060Y71D02*
X1062Y71D01*
X1258Y71D02*
X1259Y71D01*
X1371Y71D02*
X1378Y71D01*
X0Y70D02*
X13Y70D01*
X128Y70D02*
X182Y70D01*
X1060Y70D02*
X1062Y70D01*
X1258Y70D02*
X1259Y70D01*
X1371Y70D02*
X1378Y70D01*
X0Y69D02*
X12Y69D01*
X128Y69D02*
X181Y69D01*
X1060Y69D02*
X1062Y69D01*
X1258Y69D02*
X1259Y69D01*
X1371Y69D02*
X1378Y69D01*
X0Y68D02*
X11Y68D01*
X128Y68D02*
X180Y68D01*
X1060Y68D02*
X1062Y68D01*
X1258Y68D02*
X1259Y68D01*
X1371Y68D02*
X1378Y68D01*
X0Y67D02*
X7Y67D01*
X1060Y67D02*
X1062Y67D01*
X1258Y67D02*
X1259Y67D01*
X1371Y67D02*
X1378Y67D01*
X0Y66D02*
X7Y66D01*
X1060Y66D02*
X1062Y66D01*
X1258Y66D02*
X1259Y66D01*
X1371Y66D02*
X1378Y66D01*
X0Y65D02*
X7Y65D01*
X1060Y65D02*
X1062Y65D01*
X1258Y65D02*
X1259Y65D01*
X1371Y65D02*
X1378Y65D01*
X0Y64D02*
X7Y64D01*
X1060Y64D02*
X1062Y64D01*
X1258Y64D02*
X1259Y64D01*
X1371Y64D02*
X1378Y64D01*
X0Y63D02*
X7Y63D01*
X1060Y63D02*
X1062Y63D01*
X1258Y63D02*
X1259Y63D01*
X1371Y63D02*
X1378Y63D01*
X0Y62D02*
X7Y62D01*
X1060Y62D02*
X1062Y62D01*
X1258Y62D02*
X1259Y62D01*
X1371Y62D02*
X1378Y62D01*
X0Y61D02*
X7Y61D01*
X1060Y61D02*
X1062Y61D01*
X1258Y61D02*
X1259Y61D01*
X1371Y61D02*
X1378Y61D01*
X0Y60D02*
X7Y60D01*
X1060Y60D02*
X1062Y60D01*
X1258Y60D02*
X1259Y60D01*
X1371Y60D02*
X1378Y60D01*
X0Y59D02*
X7Y59D01*
X1060Y59D02*
X1062Y59D01*
X1258Y59D02*
X1259Y59D01*
X1371Y59D02*
X1378Y59D01*
X0Y58D02*
X7Y58D01*
X1060Y58D02*
X1062Y58D01*
X1258Y58D02*
X1259Y58D01*
X1371Y58D02*
X1378Y58D01*
X0Y57D02*
X7Y57D01*
X1060Y57D02*
X1062Y57D01*
X1258Y57D02*
X1259Y57D01*
X1371Y57D02*
X1378Y57D01*
X0Y56D02*
X7Y56D01*
X1060Y56D02*
X1062Y56D01*
X1258Y56D02*
X1259Y56D01*
X1371Y56D02*
X1378Y56D01*
X0Y55D02*
X7Y55D01*
X1060Y55D02*
X1062Y55D01*
X1258Y55D02*
X1259Y55D01*
X1371Y55D02*
X1378Y55D01*
X0Y54D02*
X7Y54D01*
X1060Y54D02*
X1062Y54D01*
X1258Y54D02*
X1259Y54D01*
X1371Y54D02*
X1378Y54D01*
X0Y53D02*
X7Y53D01*
X1060Y53D02*
X1062Y53D01*
X1258Y53D02*
X1259Y53D01*
X1371Y53D02*
X1378Y53D01*
X0Y52D02*
X7Y52D01*
X1060Y52D02*
X1062Y52D01*
X1258Y52D02*
X1259Y52D01*
X1371Y52D02*
X1378Y52D01*
X0Y51D02*
X7Y51D01*
X1060Y51D02*
X1062Y51D01*
X1258Y51D02*
X1259Y51D01*
X1371Y51D02*
X1378Y51D01*
X0Y50D02*
X7Y50D01*
X1060Y50D02*
X1062Y50D01*
X1258Y50D02*
X1259Y50D01*
X1371Y50D02*
X1378Y50D01*
X0Y49D02*
X7Y49D01*
X1060Y49D02*
X1062Y49D01*
X1258Y49D02*
X1259Y49D01*
X1371Y49D02*
X1378Y49D01*
X0Y48D02*
X7Y48D01*
X1060Y48D02*
X1062Y48D01*
X1258Y48D02*
X1259Y48D01*
X1371Y48D02*
X1378Y48D01*
X0Y47D02*
X7Y47D01*
X1060Y47D02*
X1062Y47D01*
X1258Y47D02*
X1259Y47D01*
X1371Y47D02*
X1378Y47D01*
X0Y46D02*
X7Y46D01*
X1060Y46D02*
X1062Y46D01*
X1258Y46D02*
X1259Y46D01*
X1371Y46D02*
X1378Y46D01*
X0Y45D02*
X7Y45D01*
X1060Y45D02*
X1062Y45D01*
X1258Y45D02*
X1259Y45D01*
X1371Y45D02*
X1378Y45D01*
X0Y44D02*
X7Y44D01*
X1060Y44D02*
X1062Y44D01*
X1258Y44D02*
X1259Y44D01*
X1371Y44D02*
X1378Y44D01*
X0Y43D02*
X7Y43D01*
X1060Y43D02*
X1062Y43D01*
X1258Y43D02*
X1259Y43D01*
X1371Y43D02*
X1378Y43D01*
X0Y42D02*
X7Y42D01*
X1060Y42D02*
X1062Y42D01*
X1258Y42D02*
X1259Y42D01*
X1371Y42D02*
X1378Y42D01*
X0Y41D02*
X7Y41D01*
X1060Y41D02*
X1062Y41D01*
X1258Y41D02*
X1259Y41D01*
X1274Y41D02*
X1283Y41D01*
X1301Y41D02*
X1315Y41D01*
X1371Y41D02*
X1378Y41D01*
X0Y40D02*
X7Y40D01*
X1060Y40D02*
X1062Y40D01*
X1258Y40D02*
X1259Y40D01*
X1271Y40D02*
X1286Y40D01*
X1299Y40D02*
X1317Y40D01*
X1371Y40D02*
X1378Y40D01*
X0Y39D02*
X7Y39D01*
X1060Y39D02*
X1062Y39D01*
X1258Y39D02*
X1259Y39D01*
X1270Y39D02*
X1287Y39D01*
X1299Y39D02*
X1318Y39D01*
X1371Y39D02*
X1378Y39D01*
X0Y38D02*
X7Y38D01*
X1060Y38D02*
X1062Y38D01*
X1258Y38D02*
X1259Y38D01*
X1269Y38D02*
X1288Y38D01*
X1299Y38D02*
X1319Y38D01*
X1371Y38D02*
X1378Y38D01*
X0Y37D02*
X7Y37D01*
X1060Y37D02*
X1062Y37D01*
X1258Y37D02*
X1259Y37D01*
X1269Y37D02*
X1288Y37D01*
X1300Y37D02*
X1319Y37D01*
X1371Y37D02*
X1378Y37D01*
X0Y36D02*
X7Y36D01*
X1060Y36D02*
X1062Y36D01*
X1258Y36D02*
X1259Y36D01*
X1269Y36D02*
X1272Y36D01*
X1285Y36D02*
X1289Y36D01*
X1316Y36D02*
X1319Y36D01*
X1371Y36D02*
X1378Y36D01*
X0Y35D02*
X7Y35D01*
X1060Y35D02*
X1062Y35D01*
X1258Y35D02*
X1259Y35D01*
X1269Y35D02*
X1273Y35D01*
X1286Y35D02*
X1289Y35D01*
X1316Y35D02*
X1319Y35D01*
X1371Y35D02*
X1378Y35D01*
X0Y34D02*
X7Y34D01*
X1060Y34D02*
X1062Y34D01*
X1258Y34D02*
X1259Y34D01*
X1270Y34D02*
X1274Y34D01*
X1286Y34D02*
X1288Y34D01*
X1316Y34D02*
X1319Y34D01*
X1371Y34D02*
X1378Y34D01*
X0Y33D02*
X7Y33D01*
X1060Y33D02*
X1062Y33D01*
X1258Y33D02*
X1259Y33D01*
X1270Y33D02*
X1275Y33D01*
X1316Y33D02*
X1319Y33D01*
X1371Y33D02*
X1378Y33D01*
X0Y32D02*
X7Y32D01*
X1060Y32D02*
X1062Y32D01*
X1258Y32D02*
X1259Y32D01*
X1271Y32D02*
X1275Y32D01*
X1316Y32D02*
X1319Y32D01*
X1371Y32D02*
X1378Y32D01*
X0Y31D02*
X7Y31D01*
X1060Y31D02*
X1062Y31D01*
X1258Y31D02*
X1259Y31D01*
X1272Y31D02*
X1276Y31D01*
X1316Y31D02*
X1319Y31D01*
X1371Y31D02*
X1378Y31D01*
X0Y30D02*
X7Y30D01*
X1060Y30D02*
X1062Y30D01*
X1258Y30D02*
X1259Y30D01*
X1272Y30D02*
X1277Y30D01*
X1316Y30D02*
X1319Y30D01*
X1371Y30D02*
X1378Y30D01*
X0Y29D02*
X7Y29D01*
X1060Y29D02*
X1062Y29D01*
X1258Y29D02*
X1259Y29D01*
X1273Y29D02*
X1278Y29D01*
X1316Y29D02*
X1319Y29D01*
X1371Y29D02*
X1378Y29D01*
X0Y28D02*
X7Y28D01*
X1060Y28D02*
X1062Y28D01*
X1258Y28D02*
X1259Y28D01*
X1274Y28D02*
X1278Y28D01*
X1316Y28D02*
X1319Y28D01*
X1371Y28D02*
X1378Y28D01*
X0Y27D02*
X7Y27D01*
X1060Y27D02*
X1062Y27D01*
X1258Y27D02*
X1259Y27D01*
X1275Y27D02*
X1279Y27D01*
X1315Y27D02*
X1319Y27D01*
X1371Y27D02*
X1378Y27D01*
X0Y26D02*
X7Y26D01*
X1060Y26D02*
X1062Y26D01*
X1258Y26D02*
X1259Y26D01*
X1276Y26D02*
X1280Y26D01*
X1301Y26D02*
X1319Y26D01*
X1371Y26D02*
X1378Y26D01*
X0Y25D02*
X7Y25D01*
X1060Y25D02*
X1062Y25D01*
X1258Y25D02*
X1259Y25D01*
X1276Y25D02*
X1281Y25D01*
X1300Y25D02*
X1318Y25D01*
X1371Y25D02*
X1378Y25D01*
X0Y24D02*
X7Y24D01*
X1060Y24D02*
X1062Y24D01*
X1258Y24D02*
X1259Y24D01*
X1277Y24D02*
X1282Y24D01*
X1299Y24D02*
X1318Y24D01*
X1371Y24D02*
X1378Y24D01*
X0Y23D02*
X7Y23D01*
X1060Y23D02*
X1062Y23D01*
X1258Y23D02*
X1259Y23D01*
X1278Y23D02*
X1282Y23D01*
X1299Y23D02*
X1316Y23D01*
X1371Y23D02*
X1378Y23D01*
X0Y22D02*
X7Y22D01*
X1060Y22D02*
X1062Y22D01*
X1258Y22D02*
X1259Y22D01*
X1279Y22D02*
X1283Y22D01*
X1299Y22D02*
X1302Y22D01*
X1371Y22D02*
X1378Y22D01*
X0Y21D02*
X7Y21D01*
X1060Y21D02*
X1062Y21D01*
X1258Y21D02*
X1259Y21D01*
X1279Y21D02*
X1284Y21D01*
X1299Y21D02*
X1302Y21D01*
X1371Y21D02*
X1378Y21D01*
X0Y20D02*
X7Y20D01*
X1060Y20D02*
X1062Y20D01*
X1258Y20D02*
X1259Y20D01*
X1280Y20D02*
X1285Y20D01*
X1299Y20D02*
X1302Y20D01*
X1371Y20D02*
X1378Y20D01*
X0Y19D02*
X7Y19D01*
X1060Y19D02*
X1062Y19D01*
X1258Y19D02*
X1259Y19D01*
X1281Y19D02*
X1285Y19D01*
X1299Y19D02*
X1302Y19D01*
X1371Y19D02*
X1378Y19D01*
X0Y18D02*
X7Y18D01*
X1060Y18D02*
X1062Y18D01*
X1258Y18D02*
X1259Y18D01*
X1282Y18D02*
X1286Y18D01*
X1299Y18D02*
X1302Y18D01*
X1371Y18D02*
X1378Y18D01*
X0Y17D02*
X7Y17D01*
X1060Y17D02*
X1062Y17D01*
X1258Y17D02*
X1259Y17D01*
X1283Y17D02*
X1287Y17D01*
X1299Y17D02*
X1302Y17D01*
X1371Y17D02*
X1378Y17D01*
X0Y16D02*
X7Y16D01*
X1060Y16D02*
X1062Y16D01*
X1258Y16D02*
X1259Y16D01*
X1270Y16D02*
X1271Y16D01*
X1283Y16D02*
X1288Y16D01*
X1299Y16D02*
X1302Y16D01*
X1371Y16D02*
X1378Y16D01*
X0Y15D02*
X7Y15D01*
X1060Y15D02*
X1062Y15D01*
X1258Y15D02*
X1259Y15D01*
X1269Y15D02*
X1272Y15D01*
X1284Y15D02*
X1288Y15D01*
X1299Y15D02*
X1302Y15D01*
X1371Y15D02*
X1378Y15D01*
X0Y14D02*
X7Y14D01*
X1060Y14D02*
X1062Y14D01*
X1258Y14D02*
X1259Y14D01*
X1269Y14D02*
X1272Y14D01*
X1285Y14D02*
X1289Y14D01*
X1299Y14D02*
X1302Y14D01*
X1371Y14D02*
X1378Y14D01*
X0Y13D02*
X7Y13D01*
X1060Y13D02*
X1062Y13D01*
X1135Y13D02*
X1184Y13D01*
X1257Y13D02*
X1259Y13D01*
X1269Y13D02*
X1273Y13D01*
X1285Y13D02*
X1289Y13D01*
X1299Y13D02*
X1302Y13D01*
X1371Y13D02*
X1378Y13D01*
X0Y12D02*
X7Y12D01*
X1060Y12D02*
X1259Y12D01*
X1269Y12D02*
X1288Y12D01*
X1299Y12D02*
X1318Y12D01*
X1371Y12D02*
X1378Y12D01*
X0Y11D02*
X7Y11D01*
X1060Y11D02*
X1259Y11D01*
X1270Y11D02*
X1288Y11D01*
X1299Y11D02*
X1319Y11D01*
X1371Y11D02*
X1378Y11D01*
X0Y10D02*
X7Y10D01*
X1271Y10D02*
X1287Y10D01*
X1299Y10D02*
X1319Y10D01*
X1371Y10D02*
X1378Y10D01*
X0Y9D02*
X7Y9D01*
X1272Y9D02*
X1286Y9D01*
X1299Y9D02*
X1318Y9D01*
X1371Y9D02*
X1378Y9D01*
X0Y8D02*
X24Y8D01*
X109Y8D02*
X571Y8D01*
X621Y8D02*
X670Y8D01*
X721Y8D02*
X770Y8D01*
X821Y8D02*
X870Y8D01*
X921Y8D02*
X1378Y8D01*
X0Y7D02*
X571Y7D01*
X621Y7D02*
X670Y7D01*
X721Y7D02*
X770Y7D01*
X821Y7D02*
X870Y7D01*
X921Y7D02*
X1378Y7D01*
X0Y6D02*
X571Y6D01*
X621Y6D02*
X670Y6D01*
X721Y6D02*
X770Y6D01*
X821Y6D02*
X870Y6D01*
X921Y6D02*
X1378Y6D01*
X0Y5D02*
X571Y5D01*
X621Y5D02*
X670Y5D01*
X721Y5D02*
X770Y5D01*
X821Y5D02*
X870Y5D01*
X921Y5D02*
X1378Y5D01*
X0Y4D02*
X571Y4D01*
X621Y4D02*
X671Y4D01*
X721Y4D02*
X771Y4D01*
X821Y4D02*
X871Y4D01*
X921Y4D02*
X1378Y4D01*
X0Y3D02*
X1378Y3D01*
X0Y2D02*
X1378Y2D01*
X0Y1D02*
X1378Y1D01*
D02*
G04 End of Silk0*
M02*